<svg id="f010fad9-d75e-40fc-a29f-2de004ea6566" data-name="Layer 1" xmlns="http://www.w3.org/2000/svg" width="956.73" height="713.19" viewBox="0 0 956.73 713.19"><title>creative thinking</title><ellipse cx="471" cy="667.19" rx="471" ry="46" fill="#3f3d56"/><ellipse cx="331" cy="660.69" rx="222" ry="33.5" opacity="0.1"/><path d="M342,354.14c-104.26,0-188.77,84.52-188.77,188.77S237.78,731.68,342,731.68a189.68,189.68,0,0,0,38.24-3.88,188,188,0,0,1-27.38-98c0-91.14,64.6-167.2,150.52-184.88A188.66,188.66,0,0,0,342,354.14Z" transform="translate(-121.63 -93.4)" fill="#6c63ff"/><path d="M172.28,548.34c0-104.25,84.52-188.76,188.77-188.76a190.4,190.4,0,0,1,30.3,2.43A189.11,189.11,0,0,0,342,355.5c-104.26,0-188.77,84.52-188.77,188.77,0,94,68.69,171.91,158.61,186.35A188.83,188.83,0,0,1,172.28,548.34Z" transform="translate(-121.63 -93.4)" opacity="0.1"/><path d="M502.48,443.55a188.66,188.66,0,0,0,90.79-161.38c0-104.25-84.51-188.77-188.77-188.77S215.74,177.92,215.74,282.17a189.77,189.77,0,0,0,3.88,38.25,187.85,187.85,0,0,1,98-27.39C408.74,293,484.8,357.64,502.48,443.55Z" transform="translate(-121.63 -93.4)" fill="#6c63ff"/><path d="M577,282.17a188.49,188.49,0,0,1-76.71,151.91c.81,3.13,1.56,6.28,2.22,9.47a188.66,188.66,0,0,0,90.79-161.38c0-104.25-84.51-188.77-188.77-188.77-2.73,0-5.44.07-8.14.19C496.83,97.86,577,180.65,577,282.17Z" transform="translate(-121.63 -93.4)" opacity="0.1"/><path d="M494.24,528.44a56.34,56.34,0,0,0-8.78,5.56,18.88,18.88,0,0,0-6.11,8.27c-1.71-3.55-2.64-7.41-3.78-11.18A186,186,0,0,0,467.85,511,26.77,26.77,0,0,0,480,501.67c6,5.95,12.11,12.15,15.08,20,.51,1.36,2,2.81,2.35,4C497.9,527.44,495.54,527.72,494.24,528.44Z" transform="translate(-121.63 -93.4)" fill="#ffbfc5"/><path d="M329,721.12c0,44.62,32.19,49.35,71.91,49.35s71.9-4.73,71.9-49.35-32.19-61.57-71.9-61.57S329,676.51,329,721.12Z" transform="translate(-121.63 -93.4)" fill="#3f3d56"/><path d="M550.43,673.37a55.07,55.07,0,0,1,17.94,9.6,1.85,1.85,0,0,1,.81,1.1c.14,1-1.24,1.45-2.24,1.74-3,.85-4.83,3.62-7,5.78s-5.65,3.87-8.18,2.14a8,8,0,0,1-1.72-1.81L539.36,678a64.67,64.67,0,0,1,11.37-5" transform="translate(-121.63 -93.4)" fill="#f1f1f1"/><path d="M569.64,676.27c1.42,1.44,2,3.52,3.42,5a12.23,12.23,0,0,0,3.16,2.19l8.18,4.5a22.62,22.62,0,0,0,4,1.87,35.5,35.5,0,0,0,4.69,1,33.78,33.78,0,0,1,6.62,2c1.6.66,3.39,1.79,3.38,3.52a3.82,3.82,0,0,1-1,2.28c-3.22,4.06-8.93,5-14.09,5.51-11.16,1.18-22.58,2.06-33.49-.57a14.29,14.29,0,0,1-5.89-2.55c-3.29-2.73-4-7.7-2.72-11.79a6.38,6.38,0,0,1,2.6-3.87c1.73-1,3.88-.53,5.87-.68a18.52,18.52,0,0,0,6-1.93c1.25-.56,2.68-1.29,3-2.77s-1.37-2.76-1-4C563.07,673.19,568.34,674.94,569.64,676.27Z" transform="translate(-121.63 -93.4)" fill="#575a89"/><path d="M569.64,676.27c1.42,1.44,2,3.52,3.42,5a12.23,12.23,0,0,0,3.16,2.19l8.18,4.5a22.62,22.62,0,0,0,4,1.87,35.5,35.5,0,0,0,4.69,1,33.78,33.78,0,0,1,6.62,2c1.6.66,3.39,1.79,3.38,3.52a3.82,3.82,0,0,1-1,2.28c-3.22,4.06-8.93,5-14.09,5.51-11.16,1.18-22.58,2.06-33.49-.57a14.29,14.29,0,0,1-5.89-2.55c-3.29-2.73-4-7.7-2.72-11.79a6.38,6.38,0,0,1,2.6-3.87c1.73-1,3.88-.53,5.87-.68a18.52,18.52,0,0,0,6-1.93c1.25-.56,2.68-1.29,3-2.77s-1.37-2.76-1-4C563.07,673.19,568.34,674.94,569.64,676.27Z" transform="translate(-121.63 -93.4)" opacity="0.1"/><path d="M588.61,720.93l3.44,2.27a6.15,6.15,0,0,1,2.49,2.46c.75,1.75-.26,3.73-1.38,5.27a30.28,30.28,0,0,1-13.24,10.26,19.73,19.73,0,0,1-5.75,1.43,2.4,2.4,0,0,1-1.33-.16c-1.05-.56-.9-2.05-.91-3.24,0-3.43-2.63-6.22-5-8.75s-4.71-5.63-4.17-9a11.2,11.2,0,0,1,3-5.28,21.59,21.59,0,0,1,4.5-4.25c2.43-1.59,3.28-.73,5.56.72Q582.25,716.75,588.61,720.93Z" transform="translate(-121.63 -93.4)" fill="#f1f1f1"/><path d="M577.45,737.67a6.13,6.13,0,0,0,5.41-1.22,13.55,13.55,0,0,0,3.51-4.52,36.74,36.74,0,0,0,2.18-4.78c.72-1.93,1.38-4.06,3.08-5.23,2-1.42,4.94-.86,7,.51s3.62,3.4,5.39,5.16c4.17,4.16,9.66,6.79,15.3,8.51s11.49,2.58,17.28,3.69a9.8,9.8,0,0,1,3.32,1.07c2.34,1.43,3.13,4.62,2.47,7.28S640,753,638.11,755a17.24,17.24,0,0,1-5.73,4.43,18.29,18.29,0,0,1-5.79,1.1,98.89,98.89,0,0,1-28.6-2.24,76.51,76.51,0,0,0-10.48-2.09c-2.15-.19-4.33-.13-6.48-.28a34.12,34.12,0,0,1-12.38-3.26,4.37,4.37,0,0,1-2.25-1.88,4.62,4.62,0,0,1-.17-2.48l1.43-12.54c.13-1.09.49-2.45,1.58-2.62s1.78.9,2.43,1.72a8.87,8.87,0,0,0,10.61,2.32" transform="translate(-121.63 -93.4)" fill="#575a89"/><path d="M494.41,579.53c6.29-.71,13.59-.83,17.85,3.86,2.61,2.88,3.4,6.91,4.3,10.68a69.35,69.35,0,0,0,6.82,18.16c2,3.54,4.43,6.85,6,10.61s2.16,8,3.08,12.09A72.94,72.94,0,0,0,558,675.57c-2.27,6.17-8.84,9.7-15.23,11.28A8.39,8.39,0,0,1,538,687a8.52,8.52,0,0,1-3.09-2.28,106,106,0,0,1-8.33-10.21c-9.21-12.3-18.55-24.85-23.57-39.36-1.76-5.1-3.52-11-8.47-13.17-2.82-1.22-6.05-.84-9.08-.32a123.09,123.09,0,0,0-19.92,5.11c-6.92,2.41-14.84,5.37-21.17,1.69-3.79-2.21-6-6.44-6.87-10.74s-.43-8.74,0-13.1a13.49,13.49,0,0,1,1.38-5.66,12.27,12.27,0,0,1,3.31-3.35,68.15,68.15,0,0,1,18.64-10c6.39-2.26,13.27-3,19.94-4.13Q487.56,580.3,494.41,579.53Z" transform="translate(-121.63 -93.4)" fill="#575a89"/><path d="M494.41,579.53c6.29-.71,13.59-.83,17.85,3.86,2.61,2.88,3.4,6.91,4.3,10.68a69.35,69.35,0,0,0,6.82,18.16c2,3.54,4.43,6.85,6,10.61s2.16,8,3.08,12.09A72.94,72.94,0,0,0,558,675.57c-2.27,6.17-8.84,9.7-15.23,11.28A8.39,8.39,0,0,1,538,687a8.52,8.52,0,0,1-3.09-2.28,106,106,0,0,1-8.33-10.21c-9.21-12.3-18.55-24.85-23.57-39.36-1.76-5.1-3.52-11-8.47-13.17-2.82-1.22-6.05-.84-9.08-.32a123.09,123.09,0,0,0-19.92,5.11c-6.92,2.41-14.84,5.37-21.17,1.69-3.79-2.21-6-6.44-6.87-10.74s-.43-8.74,0-13.1a13.49,13.49,0,0,1,1.38-5.66,12.27,12.27,0,0,1,3.31-3.35,68.15,68.15,0,0,1,18.64-10c6.39-2.26,13.27-3,19.94-4.13Q487.56,580.3,494.41,579.53Z" transform="translate(-121.63 -93.4)" opacity="0.1"/><path d="M530.43,624.91a32.48,32.48,0,0,1,8,5.65c2.55,2.72,4.1,6.23,5.42,9.73a11.81,11.81,0,0,1,.94,3.76,4.27,4.27,0,0,1-1.39,3.48,6.23,6.23,0,0,1-3.93,1c-1.82,0-3.65,0-5.47-.14a9.14,9.14,0,0,1-3.24-.62,9,9,0,0,1-2.52-1.91,35.43,35.43,0,0,1-7.75-10.46c-1.32-2.91-3.5-9.63-1.42-12.66S528.17,623.62,530.43,624.91Z" transform="translate(-121.63 -93.4)" fill="#ffbfc5"/><path d="M442.2,623.87c9.31,3,19.22,3.32,28.95,4.23a241.78,241.78,0,0,1,48.25,9.54c3.22,1,6.51,2.08,9.1,4.23a27.06,27.06,0,0,1,5.28,6.72,113.49,113.49,0,0,1,6.93,12.12c1.77,3.78,3.12,7.74,4.76,11.57a81.31,81.31,0,0,0,25.37,32.49c2,1.55,4.29,3.23,4.81,5.72a7.94,7.94,0,0,1-.75,4.7c-2.4,5.59-7.38,9.66-12.61,12.77-2.24,1.34-4.72,2.69-5.82,5.07-7.94-3.28-13.85-10.28-18.76-17.32s-9.28-14.63-15.58-20.47c-2.77-2.58-5.92-4.82-8.11-7.92-3.33-4.72-4.23-11.18-8.71-14.82s-11-3.17-16.79-2.6a412,412,0,0,1-89.15-1c-6.15-.73-12.47-1.67-17.8-4.84s-9.48-9.09-8.73-15.24c.71-5.76,5.5-10.32,10.85-12.57s11.25-2.66,17-3.31C415,631.36,428.66,628.76,442.2,623.87Z" transform="translate(-121.63 -93.4)" fill="#575a89"/><path d="M357.11,635.82c.73-4.88,2.62-9.5,3.81-14.29a86.42,86.42,0,0,1,2.26-8.93c0-.09.07-.17.1-.25a2.06,2.06,0,0,0,1.52-.87,2.52,2.52,0,0,0,.13-1.34,9.72,9.72,0,0,1,0-1.43,102.25,102.25,0,0,1,6.38-9.45c4-5.71,7.52-11.78,11-17.84,2.86-5,5.72-9.94,8.08-15.16,1.78-3.91,3.27-8,5.23-11.78,7-13.6,19.52-23.63,33-30.83,12.94-6.91,26.93-11.56,40.53-17.06a9.22,9.22,0,0,1,.95,1.12c7.35,10.05,8.14,23.25,11.17,35.33,1.22,4.88,2.85,9.74,2.85,14.76,0,7.42-3.55,14.32-7.08,20.85-3.31,6.15-6.72,12.3-11.11,17.73-2.08,2.58-4.37,5-6.46,7.55-8.58,10.51-13.53,23.44-18.35,36.13-2.78,7.35-7.34,13.86-10.4,21.1-1.18,2.78-1.86,5.77-3.34,8.41s-4.05,4.94-7.07,5a10.6,10.6,0,0,1-2.61-.41c-10.93-2.81-20.08-10-29.16-16.74-1.63-1.2-3.26-2.38-5-3.46s-3.5-2.07-5.28-3l-4.06-2.23c-4.42-2.42-8.86-4.85-13.47-6.9a24.51,24.51,0,0,1-4-2A23.87,23.87,0,0,1,357.11,635.82Z" transform="translate(-121.63 -93.4)" fill="#3f3d56"/><circle cx="378.36" cy="409.02" r="25.18" fill="#ffbfc5"/><path d="M516.94,490.64a6,6,0,0,0,6.2,2.91,8.69,8.69,0,0,0,5.79-4.13,16.33,16.33,0,0,0,2.14-6.94c.21-1.91.18-4-1.05-5.49a12.06,12.06,0,0,0-3.19-2.24,12.14,12.14,0,0,1-4-4c-.7-1.17-1.21-2.44-1.84-3.64-2.29-4.35-6.75-7.89-11.66-7.73-2.36.08-4.61,1-6.94,1.38-7.81,1.37-16.29-2.76-23.54.46a22,22,0,0,0-4.92,3.28q-3.06,2.53-5.88,5.32a12.14,12.14,0,0,0-3.58,5.21c-1,3.7,1.35,7.83-.14,11.35a16.72,16.72,0,0,1-1.81,2.85c-1.64,2.41.14,11.82,0,14.73a5.45,5.45,0,0,0,1,4c1.19,1.33,3.18,1.44,5,1.46l3.27,0a4.15,4.15,0,0,0,1.45-.15,4.39,4.39,0,0,0,1.65-1.26c2.72-2.87,3.3-12.24,7.25-12.2a2.82,2.82,0,0,1,1.71.44c.71.52.92,1.49,1.43,2.21a4.18,4.18,0,0,0,4.85,1.14,10.94,10.94,0,0,0,4.13-3.34,16.27,16.27,0,0,1,3.86-3.69c2.11-1.23,4.49-1.76,6.54-3.15,1.71-1.16,2.68-2.84,4.22-4.12s2.84-1.1,4.48-.25C515.73,486.36,515.83,488.44,516.94,490.64Z" transform="translate(-121.63 -93.4)" fill="#3f3d56"/><path d="M458.76,535a40.07,40.07,0,0,1,17.54,1.4,9.32,9.32,0,0,1,4.89,2.91,8.78,8.78,0,0,1,1.4,3.66,29.59,29.59,0,0,1-2.13,17.84,2.36,2.36,0,0,0-.29,1.9,3.36,3.36,0,0,0,1,1,3.48,3.48,0,0,1-.21,5.19c-.47.34-1.09.64-1.18,1.21s.49,1.12.95,1.56a5.59,5.59,0,0,1,1.56,5.14,11.27,11.27,0,0,0-.51,2.27,7.41,7.41,0,0,0,.83,2.71,11.86,11.86,0,0,1,.75,6,6.61,6.61,0,0,0-.07,2.93,6.82,6.82,0,0,0,1.12,1.76c1.81,2.44,2.2,6.52-.42,8a6.07,6.07,0,0,1,3.23,6.26c1.57-.83,3.47.24,4.78,1.44s2.64,2.68,4.41,2.77c1.24.06,2.55-.58,3.67-.07,1.72.77,1.66,3.56,3.35,4.39,1.48.74,3.55-.46,4.81.61.44.37.66.94,1.09,1.33.95.88,2.45.51,3.75.45,3.07-.12,5.9,2,7.49,4.58s2.16,5.73,2.57,8.77a11.61,11.61,0,0,1-.1,5.05,4.33,4.33,0,0,1-3.55,3.2c-15.45,1-30.7-2.71-45.75-6.37-4.42-1.08-8.91-2.34-12.6-5-3.35-2.43-5.81-5.85-8.21-9.21-4.43-6.21-8.89-12.46-12.06-19.39-4.08-8.91-5.9-18.67-7.68-28.32a26.34,26.34,0,0,1-.65-7.9,22.39,22.39,0,0,1,3.48-8.66,94.3,94.3,0,0,1,7-9.93C446.89,539.71,452.68,535.87,458.76,535Z" transform="translate(-121.63 -93.4)" opacity="0.1"/><path d="M459.77,534a40,40,0,0,1,17.55,1.41,9.24,9.24,0,0,1,4.89,2.9,8.92,8.92,0,0,1,1.4,3.66,29.66,29.66,0,0,1-2.13,17.84,2.36,2.36,0,0,0-.29,1.9,3.36,3.36,0,0,0,1,1,3.48,3.48,0,0,1-.21,5.19c-.47.34-1.09.64-1.18,1.21s.49,1.12,1,1.56a5.59,5.59,0,0,1,1.56,5.14,11.27,11.27,0,0,0-.51,2.27,7.39,7.39,0,0,0,.82,2.71,11.77,11.77,0,0,1,.76,6,4.32,4.32,0,0,0,1.05,4.69c1.81,2.44,2.2,6.52-.42,8.06a6.05,6.05,0,0,1,3.23,6.25c1.57-.83,3.47.24,4.78,1.44s2.64,2.68,4.41,2.77c1.24.06,2.54-.58,3.67-.07,1.72.78,1.66,3.56,3.35,4.4,1.48.73,3.55-.47,4.81.6.44.37.66.94,1.09,1.33.95.88,2.45.51,3.75.45,3.07-.12,5.9,2,7.49,4.58a22.5,22.5,0,0,1,2.57,8.77,11.93,11.93,0,0,1-.1,5,4.33,4.33,0,0,1-3.55,3.2c-15.45,1-30.7-2.71-45.75-6.37-4.42-1.08-8.92-2.34-12.6-5-3.35-2.42-5.81-5.85-8.21-9.21-4.43-6.2-8.89-12.45-12.06-19.38-4.08-8.92-5.9-18.68-7.68-28.32a26.4,26.4,0,0,1-.65-7.91A22.39,22.39,0,0,1,437,553.4a91.74,91.74,0,0,1,7-9.92C447.91,538.69,453.7,534.86,459.77,534Z" transform="translate(-121.63 -93.4)" fill="#3f3d56"/><path d="M1030.81,357.51a20.11,20.11,0,1,0-10.07-38.85A58.48,58.48,0,0,1,1030.81,357.51Z" transform="translate(-121.63 -93.4)" fill="#f1f1f1"/><path d="M1062,349.38a20.11,20.11,0,1,0-10.07-38.85A58.48,58.48,0,0,1,1062,349.38Z" transform="translate(-121.63 -93.4)" fill="#f1f1f1"/><path d="M1030.81,357.51a20.11,20.11,0,0,1-10.07-38.85,58.36,58.36,0,0,0-62.59-23.35,160.21,160.21,0,0,1,31.1,112.49,58.36,58.36,0,0,0,41.56-50.29Z" transform="translate(-121.63 -93.4)" fill="#f1f1f1"/><path d="M671,374.13a58.39,58.39,0,0,0-45.16,46.29,20.11,20.11,0,0,1,6.46,39.29,58.31,58.31,0,0,0,69.22,26.89A160.25,160.25,0,0,1,671,374.13Z" transform="translate(-121.63 -93.4)" fill="#f1f1f1"/><path d="M625.86,420.42a20.12,20.12,0,1,0,6.46,39.29A58.54,58.54,0,0,1,625.86,420.42Z" transform="translate(-121.63 -93.4)" fill="#f1f1f1"/><path d="M589.07,429.12a20.12,20.12,0,1,0,6.46,39.29A58.61,58.61,0,0,1,589.07,429.12Z" transform="translate(-121.63 -93.4)" fill="#f1f1f1"/><path d="M897.09,246l-32.41,39.71a56.76,56.76,0,0,1,4.09,7.64l35.68-43.71C902,248.31,899.57,247.09,897.09,246Z" transform="translate(-121.63 -93.4)" fill="#f1f1f1"/><path d="M989.25,407.8a58.36,58.36,0,1,1-31.1-112.49,161.24,161.24,0,0,0-47.77-42.44l8.78,7.17-45.4,55.62A58.36,58.36,0,1,1,801,260.42l-3.65-3,21-25.71A160,160,0,0,0,671,374.13,58.35,58.35,0,0,1,701.54,486.6a160,160,0,0,0,287.71-78.8ZM816,513.59a58.37,58.37,0,1,1,82.12-8.32A58.37,58.37,0,0,1,816,513.59Z" transform="translate(-121.63 -93.4)" fill="#f1f1f1"/><path d="M851.14,232.67q-4.75-.63-9.54-1l-22.08,27.06a57.55,57.55,0,0,1,9.2,1.37Z" transform="translate(-121.63 -93.4)" fill="#f1f1f1"/><path d="M852.61,272l26.87-32.92q-4.14-1.35-8.32-2.46l-25.07,30.71a59.57,59.57,0,0,1,6.24,4.43Z" transform="translate(-121.63 -93.4)" fill="#f1f1f1"/></svg>