<svg xmlns="http://www.w3.org/2000/svg" width="1003.92" height="836.78" data-name="Layer 1" viewBox="0 0 1003.92 836.78"><defs><linearGradient id="a" x1="795.24" x2="795.24" y1="863.66" y2="394.91" gradientUnits="userSpaceOnUse"><stop offset="0" stop-color="gray" stop-opacity=".25"/><stop offset=".54" stop-color="gray" stop-opacity=".12"/><stop offset="1" stop-color="gray" stop-opacity=".1"/></linearGradient></defs><title>questions</title><ellipse cx="713.5" cy="826.66" fill="#ffbe55" opacity=".1" rx="102.56" ry="10.11"/><path fill="#ffbe55" d="M439.53 12.24C484.7-4.55 539.69 9.89 586.65 30.95c147.49 66.16 254.94 191.75 340.31 319.7 30.91 46.33 60.27 94.7 71.89 146.42 23.66 105.27-38.05 214.25-143 252.44-35.69 13-74.9 18.33-114.17 21.3-69.83 5.29-142.13 3.19-211.4-16.4-49.4-14-96.13-36.52-140.95-61.4-125.17-69.52-239.48-159.8-321.79-270.08C31.44 374.56.9 320.03.02 264.22s35.49-111.89 95.33-121.38c24.74-3.92 50.91.16 76.44 4.36 37.59 6.19 75.69 12.7 112.85 10 38.39-2.81 88.32-17.81 95.32-54.46 7.41-39.35 14.46-73.73 59.57-90.5z" opacity=".1"/><path fill="#ffbe55" d="M244.02 768.81s48.26-2.91 42.57 30.91c0 0 1.13 6-4.29 8.69 0 0-.08-2.51-4.95-1.66a21.8 21.8 0 0 1-5.24.26 10.93 10.93 0 0 1-6.41-2.65s-13.57-5.6-18.84-27.78c0 0-3.91-4.83-3.75-6.08l8.14 3.48s-2.78 5.88-.59 10.76c0 0 .26-10.54 1.83-10.3.31.05 4.23 2 4.23 2s-4.79 10.23-1.18 17.67c0 0-1.37-12.61 2.67-16.93l5.74 3.35s-5.6 10.57-1.8 19.19c0 0-1-13.23 3-18.38l5.2 4s-5.26 10.42-2.05 17.58c0 0 .41-15.41 3.17-16.57 0 0 4.55 4 5.24 5.66 0 0-3.6 7.56-1.37 11.55 0 0 1.37-10.26 2.5-10.31 0 0 4.52 6.8 5 11.46 0 0-.2-6.93-3.91-12.11 0 0 4.38.75 6.94 3.59 0 0-.71-4.81-8.05-5.23 0 0-3.74-5.15-4.75-5.47 0 0 7.31-.61 11.74 1.36 0 0-3.9-4.54-13.08-2.48l-5.13-4.18s9.63-1.32 13.7.14c0 0-4.69-4-15.08-1.09l-5.58-3.34s8.2-1.77 13.09-1.13c0 0-5.16-2.78-14.73.23l-4-1.79s6-1.18 7.77-1.37 1.85-.67 1.85-.67a20.82 20.82 0 0 0-11.29 1.25s-8.46-3.03-8.31-3.61z"/><ellipse cx="277.26" cy="811.36" fill="#ffbe55" opacity=".1" rx="34.16" ry="5.77"/><path fill="#ffbe55" d="M179.37 746.06s27.21-1.64 24 17.43a4.63 4.63 0 0 1-2.41 4.9s-.05-1.41-2.79-.93a12.13 12.13 0 0 1-2.95.14 6.06 6.06 0 0 1-3.62-1.49s-7.64-3.17-10.64-15.67c0 0-2.2-2.73-2.12-3.43l4.6 2s-1.57 3.32-.34 6.07c0 0 .15-5.95 1-5.81.18 0 2.39 1.15 2.39 1.15s-2.7 5.77-.66 10c0 0-.78-7.11 1.5-9.55l3.23 1.89s-3.15 6-1 10.82c0 0-.55-7.46 1.69-10.36l2.93 2.28s-3 5.87-1.15 9.91c0 0 .23-8.69 1.79-9.34 0 0 2.56 2.26 2.95 3.19 0 0-2 4.26-.77 6.51 0 0 .77-5.78 1.41-5.81 0 0 2.55 3.83 2.81 6.46a14 14 0 0 0-2.2-6.83 7.63 7.63 0 0 1 3.91 2s-.39-2.71-4.54-2.95c0 0-2.11-2.91-2.67-3.08 0 0 4.12-.35 6.62.76 0 0-2.2-2.56-7.38-1.4l-2.89-2.36s5.43-.74 7.73.08c0 0-2.65-2.26-8.51-.61l-3.14-1.89a28.57 28.57 0 0 1 7.37-.63s-2.9-1.57-8.3.13l-2.25-1s3.39-.67 4.38-.77 1.05-.38 1.05-.38a11.79 11.79 0 0 0-6.37.71s-4.74-1.81-4.66-2.14z"/><ellipse cx="198.11" cy="770.04" fill="#ffbe55" opacity=".1" rx="19.26" ry="3.26"/><path fill="#ffbe55" d="M848.78 764.39s32.85-2 29 21a5.64 5.64 0 0 1-2.92 5.92s-.06-1.71-3.37-1.13a14.81 14.81 0 0 1-3.57.17 7.35 7.35 0 0 1-4.36-1.8s-9.24-3.81-12.83-18.91c0 0-2.66-3.29-2.55-4.13l5.54 2.36s-1.89 4-.4 7.33c0 0 .18-7.18 1.24-7 .22 0 2.88 1.38 2.88 1.38s-3.26 7-.8 12c0 0-.93-8.58 1.82-11.52l3.9 2.27s-3.81 7.2-1.22 13.07c0 0-.67-9 2-12.51l3.54 2.76s-3.58 7.09-1.4 12c0 0 .29-10.48 2.17-11.28 0 0 3.09 2.73 3.56 3.85 0 0-2.45 5.15-.93 7.87 0 0 .93-7 1.7-7 0 0 3.08 4.63 3.4 7.8a16.81 16.81 0 0 0-2.65-8.24 9.29 9.29 0 0 1 4.72 2.44s-.48-3.27-5.49-3.56c0 0-2.54-3.51-3.22-3.72 0 0 5-.42 8 .92 0 0-2.66-3.08-8.91-1.68l-3.49-2.85s6.55-.9 9.33.09c0 0-3.2-2.73-10.27-.74l-3.8-2.27s5.58-1.2 8.91-.77c0 0-3.51-1.89-10 .16l-2.72-1.22s4.09-.81 5.29-.93 1.26-.46 1.26-.46a14.2 14.2 0 0 0-7.68.85s-5.78-2.14-5.68-2.52z"/><ellipse cx="871.4" cy="793.36" fill="#ffbe55" opacity=".1" rx="23.25" ry="3.93"/><path fill="url(#a)" d="M914.09 553.23a71.34 71.34 0 0 1-1.09-10.66c0-4.29-5.83-8.09-5.83-8.09s-3.6-8.33-6-9.56-9.81-12.13-9.81-12.13a9.91 9.91 0 0 0-2.23-5.88 84.52 84.52 0 0 1-6.07-9.16c-1-1.22-.5-2.08-2-9.19-.08-.37-.17-.73-.28-1.07 0-.16-.1-.3-.16-.46a12 12 0 0 0 2.83-12.43 5 5 0 0 0-1.42-2.2c-1.69-1.38-4.39-.81-6.13-2.12l1.85-8.18c.44-2 .67-4.53-1.08-5.61a9.08 9.08 0 0 0-2.06-.69c-3-1-4.74-4.17-5.52-7.22a24.74 24.74 0 0 1-.6-9c.34-2.9 1.19-5.72 1.5-8.63a23.7 23.7 0 0 0-3.67-15.34 11.81 11.81 0 0 0-4.85-4.58c-1.85-.83-4-1-5.73-2-3.72-2.37-3.53-8-6.5-11.23s-8.23-3.22-12.56-2.11-8.64 3-13.08 2.53c-2.86-.32-5.54-1.62-8.41-1.92a8.86 8.86 0 0 0-2.46.11v-.09c-2.12.38-4.07 1.56-4.57 3.57a5.45 5.45 0 0 0-.14 1.46c0 1.17.28 2.39.3 3.51a3.34 3.34 0 0 1-.81 2.47c-.57.61-1.41.93-2 1.56a2.5 2.5 0 0 0-.73 1.84c0 1.78 2.22 3.35 3.71 4.07h.06c-.4.4-.8.82-1.17 1.25a26.34 26.34 0 0 0-6.62 17.49A26.7 26.7 0 0 0 817 457.92l-.21.65a37.31 37.31 0 0 1-1.47 3.78 7.49 7.49 0 0 0-6.28.7c-2.86 2-8.45 1.84-9.94 1.47s-17-2.33-18.25-1.84-3.72-1.71-5.33 1.23-2.36 4.53-4 5.27-4.47 3.06-4.09 3.55-4.1 3.43-4.1 3.43-3.85 4-6.08 4.53-6.95 3.56-6.95 3.56l-5.47 4.28s-4.09.62-2.85-2.2-2.24-6.37-2.24-6.37-6.95-14.09-6.95-17-5.71-15.32-5.71-15.32l-.7-.07-.32-.91c-1.05-2.95-2.41-6.57-3.45-8.69-2-4.05-3.23-4.47-3.23-4.47s-24.08-18.08-39.72-12.57 28.55 21.93 32.52 23.65c1.39.6 2.39 2.54 3.09 4.81a20.58 20.58 0 0 0-8.55 7.69s9.56 21.19 9.81 26.46 6.58 20 6.58 20 2.36 10.91 15.14 10.29c0 0 17.63 3.24 21.48 0s7.32-5.78 9.19-6.15a7.25 7.25 0 0 0 3.47-2.45s-5.83 36.75-8.69 39.94-28.13 44.45-19.06 51.83a181.21 181.21 0 0 0 22.71 15c.77.38 3.08-3.47 6.38-6.2v2.13c.06 14.68 2 37 4.68 42 4 7.35 2.36 21.56 2.36 21.56a17 17 0 0 0 6.71 1.61c.12.48.26 1 .39 1.5 2.19 8.27 5.74 21.06 7.55 24.46 2.73 5.15 4.71 21.45 4.71 21.45s1.62 16 1 18.25c-.24.85.81 7.51 2.46 16-1 11.49-2.9 33.64-3.22 41.65V796.99a2.44 2.44 0 0 1 0 .27v.49a7.48 7.48 0 0 0 .06 1.51 4.9 4.9 0 0 1-.17 2.28 39.82 39.82 0 0 1-2.69 6.42 30.57 30.57 0 0 0-1.2 3.1c-1 .44-2.22 1.51-2.9 4.12-1.24 4.78-3.1 18-3.1 18s-.75 8.09-2.23 9.93-3 13.35 7.57 14.82 15.14-5.6 15.14-5.6l-.37-32.08v-.06a4.86 4.86 0 0 0 .55-.87v-.08c.07-.15.15-.31.22-.49l.09-.24.16-.39a.57.57 0 0 1 0-.14 21.2 21.2 0 0 0 .9-9.55V808.02v-.75-.19q0-.32.06-.66v-.12l.06-.39v-.17c0-.13 0-.26.08-.4a.44.44 0 0 1 0-.1c.1-.46.22-1 .35-1.44v-.11l.15-.48c.15-.51.32-1 .5-1.54v-.1c0-.16.11-.32.17-.47v-.06c.18-.49.37-1 .55-1.42l.05-.13.16-.4.05-.12.38-.89 2.93 9.05s1.62 6.74.75 8.33 1 8.21 2.23 8.33l-1.15 8.33a127.4 127.4 0 0 0-1.11 13.85c-.08.53-.16 1-.22 1.32-.8 4.27 1.12 10.89 1.12 10.89 9.8 11.59 21.48.9 21.48.9s1.36-6.13 0-7.35-.75-5.64-.75-5.64.62-10.91.74-18.87-6.51-15-6.51-15l-.37.33c-1.21-3.12-2.59-6.76-2.3-8.39.5-2.82-1.37-32.59-1.37-32.59a176.54 176.54 0 0 0 .44-24c.16-1.35.31-2.68.46-4 .75-6.4 1.36-11.87 1.6-14.74v-.34c.06-.77.09-1.32.08-1.58 0-1 0-2.14.1-3.39.23-3.44.77-7.27.77-7.27l2.6-15.81s2-7.72 4.85-12l.34-.54c.11-.19.22-.4.34-.62l.05-.09c.11-.21.23-.43.34-.66l.05-.09c.4-.79.83-1.7 1.28-2.7 0-.08.07-.15.1-.23l.34-.76c0-.1.08-.2.13-.3s.21-.51.32-.76a2.88 2.88 0 0 0 .13-.31c.13-.3.27-.61.4-.93l.19-.46c.09-.23.19-.46.29-.69l.24-.61c.07-.15.13-.3.19-.45l.27-.69c0-.1.09-.21.13-.31.71-1.77 1.39-3.52 2-5.11.19-.5.38-1 .55-1.44 6.36.39 10.68.74 10.68.74s2-14.33 1.36-23.76c-.42-6.44.78-14.54 1.57-19 .09-.49.17-.93.25-1.33l.17.14c3.11 2.45 5.34-5.64 5.34-5.64s-.84-7.55-2-16.7l-.12-.91a47 47 0 0 0 5.43.83s1-.09 2.37-.26a65.61 65.61 0 0 0 11.94 5.4l6.61-12.2a49.64 49.64 0 0 1 4.35-7.23c2-2.45 9.06-10.29 8.94-11.76s2.36-9.93 4.84-13.73 3.47-11.44 3.35-12.05zm-27.56 9.31c-2.61 1.1-5.09 7.23-5.21 9.07s-2.86 9.92-5.71 10.9c-2.63.9-7.65 5.52-8.45 6.26-.82.07-1.75.18-2.72.34-1.09-7.73-2.17-14.13-2.86-15.42-2-3.68 2.19-15.44 2.19-15.44s.41-11.88 3-14.7 2-9.93 2-9.93.62-2.94.87-4.28 3.69 0 3.72 0 6.7 3.67 7.7 9.18 8.32 15.07 8.32 15.07-1.12 3.31 0 5-.24 2.85-2.85 3.95z" transform="translate(-98.04 -31.61)"/><path fill="#4c4981" d="M608.96 426.22a20 20 0 0 1 20-9.42v14.31h-8.69l-6.8-1.72z"/><path d="M608.96 426.22a20 20 0 0 1 20-9.42v14.31h-8.69l-6.8-1.72z" opacity=".1"/><path fill="#ae6e79" d="M629.61 420.59l-10.65 7.46s-.09-1.49-.36-3.53c-.53-3.86-1.72-9.65-4.29-10.77-3.91-1.72-47.44-18.1-32-23.61s39.13 12.55 39.13 12.55 1.22.42 3.17 4.45c1 2.12 2.37 5.73 3.4 8.68.95 2.66 1.6 4.77 1.6 4.77z"/><path fill="#4c4981" d="M714.69 432.08l1.21-.57 3.4 3.88-2.78 5.93-4.74-1.9 1.1-4.74 1.81-2.6z"/><path fill="#444053" d="M698.58 779.39s-3.06-.36-4.28 4.41-3.06 18-3.06 18-.73 8.07-2.2 9.91-2.93 13.33 7.46 14.79 14.92-5.59 14.92-5.59l-.37-32.07zM734.84 780.83s6.54 7 6.42 14.94-.74 18.83-.74 18.83-.6 4.41.74 5.63 0 7.34 0 7.34-11.5 10.67-21.16-.9c0 0-1.88-6.61-1.1-10.87s2.96-23.41 2.96-23.41z"/><path fill="#ae6e79" d="M751.04 634.6s-6.6 18.46-9.42 22.74-4.76 12-4.76 12l-2.57 15.77a88 88 0 0 0-.86 10.64c.12 3.55-6.36 55.27-6.36 55.27l-10.27 13.09s-4.52 9.17-3.79 13-.49 9.91-2 11.74c0 0-.24 12-.61 14.67s1.35 10.28 0 11.62-19.32.74-19.81-1.47 2.2-12.84 2.2-12.84l1.59-10.27s3.18-5.62 2.45-7.46 1.34-6.11 1.46-6.48 3.43-6.36 2.82-8.68 3.85-51.66 3.85-51.66l12.59-88.41z"/><path d="M751.04 634.6s-1 2.78-2.37 6.43c-2.18 5.76-5.32 13.69-7.05 16.31-2.81 4.28-4.77 12-4.77 12l-2.57 15.78a88.68 88.68 0 0 0-.85 10.64c0 1.4-.94 10.33-2.14 20.62-1.85 15.73-4.22 34.65-4.22 34.65l-10.27 13.09s-.52 1-1.17 2.58c-1.29 3-3.11 7.87-2.62 10.38.73 3.79-.49 9.9-2 11.74 0 0-.25 12-.61 14.67s1.35 10.27 0 11.62-19.32.74-19.81-1.46 2.2-12.84 2.2-12.84l1.59-10.28s3.18-5.62 2.44-7.46 1.35-6.11 1.47-6.48 3.43-6.36 2.82-8.68c-.47-1.77 2-30.74 3.15-44.48.39-4.32.64-7.13.64-7.13l10.83-76.06.88-6.13.88-6.22z" opacity=".1"/><path fill="#ae6e79" d="M740.04 818.51c.11 1.35-17.25 3.31-19.73 1.84s0-19.69 0-19.69l1.13-8.31c-1.21-.13-3.05-6.73-2.2-8.32s-.73-8.31-.73-8.31l-2.88-9-1.76-5.51c-2.86-6.31-7-24.31-9.57-37.75-1.62-8.44-2.65-15.09-2.42-15.94.61-2.2-1-18.22-1-18.22s-2-16.27-4.64-21.4c-1.79-3.4-5.28-16.17-7.44-24.41-1.1-4.23-1.86-7.27-1.86-7.27s18.48-1.55 29.69-2.09c5.15-.25 8.77-.28 8.35.14s-.53 2.66-.51 5.9c.05 8.39 1.22 23.15 2.46 27.12 1.71 5.5 3.42 22 2.69 23.6s-.49 12.23-.49 12.23a55 55 0 012.16 13.27 179.39 179.39 0 01-.42 23.89s1.83 29.72 1.34 32.53 3.91 11.62 3.91 13.33 1.22 13.33 1.22 13.33 2.62 17.7 2.7 19.04zM749.69 461.31l-2.1 2.27-1.37 1.48-8 8.6-20.67 2.33-11-2.94-2.72-.73s0-5.52.49-12.14c.7-8.49 2.37-18.8 6.36-21.61a15.89 15.89 0 004.65-5.89 33.18 33.18 0 002-4.94c.08-.22.14-.43.21-.65a55.22 55.22 0 001.94-9.07s2.64-1.46 6.31-3.16c9.57-4.47 26.1-10.64 20.35 3.16a54 54 0 00-2.16 6.2c-.09.31-.17.62-.24.92-1.92 7.68-.65 12.34.78 14.91a9.33 9.33 0 00.83 1.27 6.67 6.67 0 001.39 1.41l2.38 15.11.2 1.25z"/><path d="M746.15 418.76c-1.09 2.62.53-2.14 0 0-4.36 3.1-14.63 11.93-20.4 11.93-3.9 0-5.07-.71-8.41-2.22a54.56 54.56 0 0 0 2.15-9.71s34.61-19.08 26.66 0z" opacity=".1"/><path fill="#ae6e79" d="M754.96 402.69a26.68 26.68 0 0 1-23.87 26.51c-.92.09-1.85.15-2.79.15a26.66 26.66 0 1 1 26.66-26.66z"/><path d="M758.75 520.87l-3.8 9.91s-3.09.13-7.91.28c-16.27.52-52.12 1.18-53.72-3a10.63 10.63 0 0 1-.56-3.29c-.21-6.37 2.76-16.15 2.76-16.15s1.71-19.57 1.71-20.42-1.47-14.56-1.47-14.56l2.94-11 8.19-5.75s3.67 5.63 5.87 6.11 5.14 3.19 5.14 3.19 7.21 4.4 9.54 1.95 20.42-13.21 20.42-13.21l9.54 10.52z" opacity=".1"/><path fill="#fff" d="M758.75 522.39l-3.8 9.9s-3.09.14-7.91.29h-.47c-2.08.07-4.46.14-7 .19-12.93.3-30.74.38-40.05-1-3.5-.5-5.79-1.22-6.17-2.2a8.83 8.83 0 0 1-.44-1.82c-.06-.46-.1-1-.12-1.47-.21-6.37 2.76-16.15 2.76-16.15s1.71-19.57 1.71-20.42-1.47-14.56-1.47-14.56l2.94-11 5.63-3.94 2.56-1.8a38.37 38.37 0 0 0 2.81 3.7 7.48 7.48 0 0 0 3.06 2.41c2.21.49 5.14 3.19 5.14 3.19s7.21 4.4 9.54 1.95c1.77-1.87 12.77-8.6 17.85-11.67 1.56-.95 2.57-1.54 2.57-1.54l1.28 1.42 8.26 9.1z"/><path d="M629.61 420.59l-10.65 7.46s-.09-1.49-.36-3.53c5.26-2.22 8.46-7.13 9.38-8.7.98 2.66 1.63 4.77 1.63 4.77z" opacity=".1"/><path fill="#4c4981" d="M667.03 445.91l-2.32-.62s-3.8 4-6 4.53-6.84 3.54-6.84 3.54l-5.39 4.28s-4 .62-2.81-2.2-2.2-6.36-2.2-6.36-6.85-14.06-6.85-17-5.66-15.28-5.66-15.28-7.1 13.82-20.06 9.42c0 0 9.42 21.15 9.66 26.41s6.48 19.93 6.48 19.93 2.33 10.89 14.92 10.28c0 0 17.37 3.23 21.16 0s7.21-5.77 9-6.14 3.42-2.44 3.42-2.44v-14.54z"/><path d="M645.26 459.72s3.06 11.38 1.1 12.6zM747.04 532.53c-16.27.52-52.12 1.17-53.72-3a10.63 10.63 0 01-.56-3.29l53.15 2.8zM751.04 634.6s-1 2.78-2.37 6.43c-6.75-.41-15.69-.84-24.18-.9-3 0-5.94 0-8.72.1-5.9.18-11 .66-14.25 1.58a37.79 37.79 0 01-12.7 1.64c-1.1-4.23-1.86-7.27-1.86-7.27s18.48-1.55 29.69-2.09l.88-6.22z" opacity=".1"/><path fill="#444053" d="M765.35 589.84l-2.08 4.4s-.29 1.31-.66 3.39c-.78 4.48-2 12.56-1.54 19 .61 9.42-1.35 23.72-1.35 23.72s-45-3.79-58.2 0-19.7 0-19.7 0 1.6-14.18-2.32-21.52c-2.67-5-4.55-27.32-4.61-42 0-6.77.34-11.9 1.19-12.94 2.69-3.3 14.18-36.32 14.18-36.32l2.62.14 7 .37 39.8 2.1 6.25.33.66 2z"/><path fill="#4c4981" d="M785.16 575.16l.37 3.92s-19.71-6.42-18.71-14.31 0-7 0-7l15.84 1.34z"/><path d="M785.16 575.16l.37 3.92s-19.71-6.42-18.71-14.31 0-7 0-7l15.84 1.34zM658.41 462.88a17.56 17.56 0 006.94 3.61 4.52 4.52 0 01-2-1c-1.41-1-2.75-2.09-4.11-3.15-1.1-.86-2.47-2.29-3.82-2.64a21.06 21.06 0 002.99 3.18zM658.71 468.03a8.83 8.83 0 011.52 2.41 14.57 14.57 0 01-.11 7.57l-3.16-7.62c-.55-1.3-1.1-2.6-1.76-3.84-.29-.53-2.11-2.74-1.9-3.2.56-1.3 4.82 3.95 5.41 4.68zM746.88 510.23a10.18 10.18 0 005.75-2.69c-3.25.41-6.33 1.69-9.53 2.36a14.16 14.16 0 01-8.88-.82c3.68 1.8 8.74 1.86 12.66 1.15zM737.69 487.84a2.23 2.23 0 01-1.65-.41q-3.66-2.1-7.22-4.38c-2.31-1.49-5.1-3-7.07-4.88 4.85 4.38 9.37 8.08 15.94 9.67zM744.47 513.78a15.22 15.22 0 003.82-.31 5.12 5.12 0 003.14-2.06 1.8 1.8 0 00-1.33.21 22.44 22.44 0 01-12.28 1.47c1.99.85 4.54.68 6.65.69zM721.31 570.56a40.11 40.11 0 01-7.81 1.53 47.19 47.19 0 01-6.18-.12l-10-.63-5-.32c-.59 0-3 0-1.81-1.19.6-.58 3.94-.21 4.8-.24q2.49-.08 5-.09c3.31 0 6.63 0 9.94.2 3.71.18 7.36.46 11.06.86zM709.72 575.51c-1.7-.07-3.89.94-5.64 1.16a37.53 37.53 0 01-5.9.23 32.9 32.9 0 01-11.37-2.32c7.63.39 15.28.62 22.91.93zM688.3 580.75a16.35 16.35 0 012.18.6c4.22 1.2 8.71.14 13-.92-1.07 1.61-3 2.3-4.93 2.74a22.86 22.86 0 01-9.6.35c-1-.2-3.51-.56-4-1.6-.82-1.53 2.41-1.32 3.35-1.17zM711.96 588.64a32.61 32.61 0 013.74 1c4.75 1.18 9.68-.44 14.45-1.53a67.27 67.27 0 0117.49-1.62c-1.05 0-2.72.92-3.75 1.23-1.35.41-2.72.79-4.09 1.13-2.69.66-5.42 1.2-8.17 1.59a84 84 0 01-16.77.73c-2.56-.14-7 .12-9.19-1.17a10.13 10.13 0 016.29-1.36zM713.75 437.82s.24 11.26-1.59 16.4c-.58 1.6-1.48 4.55-2.46 7.86-1.07 3.67-2.24 7.78-3.14 11s-1.5 5.38-1.5 5.38-4.13 33.64-5.2 49.67c0 .28 0 .57-.06.84-.06.9-.16 1.84-.31 2.81-2.38 15.92-16.11 40.47-20.72 42.43a13.72 13.72 0 00-3.88 2.67c0-6.77.34-11.9 1.19-12.94 2.69-3.3 14.18-36.32 14.18-36.32l2.62.14c-.06-.46-.1-1-.12-1.47-.21-6.37 2.76-16.15 2.76-16.15s1.71-19.57 1.71-20.42-1.47-14.56-1.47-14.56l2.94-11 5.63-3.94c.7-8.49 2.37-18.8 6.36-21.61a15.89 15.89 0 004.65-5.89c.79.11-.65-.59-.65-.59z" opacity=".1"/><path fill="#4c4981" d="M715.9 431.51a7.28 7.28 0 0 0-6.19.7c-2.82 2-8.32 1.83-9.79 1.47s-16.75-2.33-18-1.84-3.67-1.71-5.26 1.23-2.32 4.52-3.91 5.25-4.41 3.06-4 3.55-4 3.42-4 3.42l8.92 29s-5.75 36.68-8.56 39.86-27.76 44.39-18.83 51.73a177.72 177.72 0 0 0 22.38 15c1 .49 4.52-6.11 9.41-8.19s20.06-29.6 21-45.25 5.26-50.5 5.26-50.5 5.26-19.08 7.09-24.22 1.59-16.4 1.59-16.4z"/><path d="M765.35 589.84l-2.08 4.4s-.29 1.31-.66 3.39a1.87 1.87 0 0 1-1-.45c-3.06-2.45-21-20.91-21.89-37.3-.63-12.09-.33-22.51-.13-27.15.06-1.46.12-2.34.12-2.53s13.94-16.88 12.35-22.86-5.26-38-5.26-38l-.54-4.2-.93-7.1-2.22-17.18 2.3.54a6.67 6.67 0 0 0 1.39 1.41l2.38 15.11 8.26 9.1 1.35 55.4-3.8 9.9s-3.09.14-7.91.29h-.47z" opacity=".1"/><path fill="#4c4981" d="M773.05 498.39s-3.42-1.35-3.66 0-.86 4.27-.86 4.27.61 7.1-2 9.91-3 14.67-3 14.67-4.12 11.74-2.17 15.41c.71 1.33 1.81 8 2.91 16 .7 5 1.39 10.49 2 15.51 1.11 9.12 1.94 16.67 1.94 16.67s-2.21 8.07-5.27 5.62-21-20.91-21.88-37.3c-.6-11.51-.36-21.51-.16-26.44.08-2.09.16-3.27.16-3.27s13.94-16.88 12.35-22.87-5.26-38-5.26-38l-.64-4.95-.69-5.32-.16-1.17-2.21-17c.39.09 14.11 3.19 15.92 5s13 4.4 13 4.4a9.78 9.78 0 0 1 6.94 7.12c.11.34.19.7.27 1.07 1.47 7.1 1 7.95 2 9.18s-9.53 31.49-9.53 31.49z"/><path d="M766.35 574.15c-5-1-12.42-3.31-12.25-8.41.15-4.77 5.89-6.49 10.24-7.1.7 4.98 1.39 10.49 2.01 15.51z" opacity=".1"/><path fill="#ae6e79" d="M781.86 571.61c-.2.43-1 .8-2.14 1.13a57.67 57.67 0 0 1-8.13 1.33s-17-1.35-16.76-9.06c.18-5.53 7.86-7 12.17-7.33a28 28 0 0 1 2.87-.12s12.72 12.47 11.99 14.05z"/><path d="M781.86 571.61c-.2.43-1 .8-2.14 1.13-4.43-5.93-10.61-13.54-13.64-14.21l.92-.85a28 28 0 0 1 2.87-.12s12.72 12.47 11.99 14.05z" opacity=".1"/><path fill="#4c4981" d="M777.58 466.08l5 .74a86.89 86.89 0 0 0 6 9.17 10 10 0 0 1 2.2 5.87s7.34 10.88 9.66 12.1 5.87 9.54 5.87 9.54 5.75 3.79 5.75 8.07a71.89 71.89 0 0 0 1.1 10.64c.13.61-.85 8.2-3.3 12s-4.9 12.18-4.77 13.68-6.85 9.3-8.8 11.74a49.72 49.72 0 0 0-4.28 7.22l-6.48 12.23s-13.7-20.18-18.71-21.28c0 0 5.62-5.38 8.43-6.36s5.51-9 5.63-10.88 2.57-7.95 5.13-9 3.92-2.2 2.82-3.92 0-5 0-5-7.22-9.54-8.2-15-7.58-9.17-7.58-9.17l-3.79-9.3z"/><path d="M795.77 511.73a15.87 15.87 0 019.87-3.74c-2.32.4-4.76.91-6.46 2.53a15.24 15.24 0 00-1.79 2.28c-.58.83-5.3 6.83-6 5.88-1.17-1.39 3.43-6.14 4.38-6.95zM784.69 505.94a4.23 4.23 0 003.49-2.47 13.85 13.85 0 001.09-4.34 64.76 64.76 0 011.51-7.43 3.44 3.44 0 00-.21-3 10.15 10.15 0 00-1.08-2.22c-.9 1-1.16 3.33-1.53 4.67-.46 1.66-.88 3.33-1.28 5-.21.8-1.87 9.79-1.99 9.79zM780.36 456.57a10.3 10.3 0 01-1.69 1.74c-2 1.59-4.65 2.93-4.9 5.44a5.85 5.85 0 01-.3 2.41c-.64 1.1-2.21 1-3.46.79a6 6 0 01-2.93-1.08c-1.31-1.12-1.43-3.12-2.43-4.53a6.17 6.17 0 00-5-2.21c-1.87-.06-3.73.36-5.6.44a15.39 15.39 0 01-3.59-.24 11.36 11.36 0 01-1.16-.24 14.92 14.92 0 01-2.44-.83 10.74 10.74 0 01-1.19-.56 15.8 15.8 0 01-3.45-2.4c-1.83-1.68-3.35-4-3.2-6.49.09-1.53.78-2.94 1-4.45.75-4.32-2.12-8.4-5.23-11.49-1.24-1.23-2.56-2.42-3.8-3.67a18.29 18.29 0 01-4.47-6.38 19 19 0 01-.8-8 55.19 55.19 0 00.23-8.22c-.92-9.72-9.22-17.17-17.52-21.22l-.37-.19a26.65 26.65 0 1135.85 39c-.09.31-.17.62-.24.92-1.92 7.68-.65 12.34.78 14.91.39.09 14.11 3.19 15.92 5s13 4.4 13 4.4a9.78 9.78 0 016.99 7.15z" opacity=".1"/><path fill="#444053" d="M706.3 378.14c.55-.63 1.38-.95 1.94-1.56 1.73-1.88 0-4.95.63-7.43.68-2.75 4.06-3.95 6.88-3.66s5.46 1.59 8.28 1.91c4.38.49 8.62-1.41 12.89-2.52s9.43-1.17 12.37 2.1 2.74 8.84 6.4 11.21c1.69 1.09 3.82 1.21 5.65 2a11.61 11.61 0 0 1 4.78 4.57 23.94 23.94 0 0 1 3.62 15.31c-.31 2.9-1.15 5.72-1.49 8.62a25.1 25.1 0 0 0 .6 9c.77 3 2.44 6.24 5.43 7.2a9.16 9.16 0 0 1 2 .69c1.73 1.08 1.5 3.62 1.06 5.6l-1.78 8.21c1.71 1.3 4.37.74 6 2.11a5 5 0 0 1 1.4 2.2 12 12 0 0 1-3.59 13.14c-2 1.59-4.65 2.93-4.9 5.43a5.64 5.64 0 0 1-.3 2.41c-.63 1.1-2.21 1-3.46.79a6 6 0 0 1-2.92-1.08c-1.32-1.12-1.43-3.12-2.43-4.53a6.19 6.19 0 0 0-5-2.21c-1.88-.06-3.73.36-5.61.45a16.58 16.58 0 0 1-11.79-4.26c-1.84-1.69-3.35-4-3.21-6.5.09-1.52.78-2.94 1-4.45.74-4.31-2.12-8.4-5.23-11.49s-6.76-5.94-8.28-10.05c-1.9-5.09-.06-10.77-.57-16.17-.92-9.73-9.21-17.17-17.52-21.23-1.85-.95-5-3.36-2.85-5.81z"/><path d="M771.7 462.12c-1.32-1.13-1.43-3.12-2.43-4.53a6.21 6.21 0 0 0-5-2.22c-1.88-.06-3.74.36-5.61.45a16.53 16.53 0 0 1-11.83-4.27c-1.84-1.68-3.34-4-3.2-6.49.09-1.53.78-2.95 1-4.45.75-4.32-2.12-8.41-5.23-11.5s-6.75-5.94-8.28-10.05c-1.89-5.08 0-10.76-.56-16.17-.93-9.73-9.22-17.17-17.52-21.23-1.94-.95-5.09-3.36-2.94-5.81.54-.63 1.37-.95 1.93-1.56 1.73-1.87 0-4.95.64-7.42a4.08 4.08 0 0 1 .63-1.37c-2.09.39-4 1.57-4.51 3.57-.61 2.48 1.1 5.55-.63 7.43-.56.61-1.39.93-1.94 1.55-2.15 2.45 1 4.87 2.94 5.81 8.31 4.06 16.6 11.51 17.52 21.23.51 5.41-1.33 11.09.57 16.18 1.52 4.1 5.17 7 8.28 10.05s6 7.17 5.23 11.49a38.3 38.3 0 0 0-1 4.45c-.14 2.49 1.37 4.81 3.21 6.49a16.49 16.49 0 0 0 11.82 4.27c1.88-.09 3.73-.5 5.61-.45a6.22 6.22 0 0 1 5 2.22c1 1.41 1.11 3.41 2.43 4.53a6 6 0 0 0 2.92 1.07c1.25.23 2.83.31 3.46-.78a2.7 2.7 0 0 0 .28-1.44 5.75 5.75 0 0 1-2.79-1.05z" opacity=".1"/><path fill="#ffbe55" d="M626.13 402.69h-69.17v-68.16h69.22zm-1-102.77h-67.17c0-105.92 100.68-99.73 100.68-166.74 0-36.91-30.21-66.48-67.12-66.48s-67.11 31.88-67.11 67.53h-67.12A134 134 0 0 1 591.52 0c74.14 0 134.23 59.15 134.23 133.18 0 83.79-100.67 93.33-100.67 166.74z"/><path fill="#ffbe55" d="M281.14 382.39H263.3v-17.62h17.84zm-.27-26.5h-17.3c0-27.3 25.95-25.71 25.95-43a17.22 17.22 0 00-17.3-17.15 17.67 17.67 0 00-17.26 17.4h-17.3a34.61 34.61 0 0169.21-.27c-.05 21.6-26 24.06-26 42.98zM416.22 504.8h-17.84v-17.57h17.84zm-.26-26.49h-17.3c0-27.31 25.95-25.71 25.95-43a17.21 17.21 0 00-17.3-17.14 17.67 17.67 0 00-17.35 17.42h-17.3a34.61 34.61 0 0169.21-.27c.03 21.6-25.91 24.07-25.91 42.99zM498.36 288.1h-12.93v-12.71h12.93zm-.19-19.21h-12.54c0-19.78 18.81-18.63 18.81-31.15a12.48 12.48 0 00-12.54-12.42 12.8 12.8 0 00-12.54 12.62h-12.54a25.08 25.08 0 0150.16-.2c-.02 15.65-18.81 17.44-18.81 31.15zM719.2 306.04h-7.31v-7.2h7.31zm-.11-10.85h-7.13c0-11.18 10.63-10.53 10.63-17.61a7 7 0 00-7.08-7 7.24 7.24 0 00-7.09 7.13h-7.09a14.18 14.18 0 0128.35-.11c.04 8.79-10.59 9.84-10.59 17.59zM830.96 633.51h-7.31v-7.2h7.31zm-.11-10.85h-7.09c0-11.19 10.64-10.53 10.64-17.61a7.05 7.05 0 00-7.09-7 7.23 7.23 0 00-7.09 7.13h-7.09a14.18 14.18 0 0128.35-.11c.04 8.83-10.59 9.84-10.59 17.59z" opacity=".1"/></svg>