<svg id="b46bdb45-05c7-43e7-afee-243a50499326" data-name="Layer 1" xmlns="http://www.w3.org/2000/svg" xmlns:xlink="http://www.w3.org/1999/xlink" width="1130" height="852.62" viewBox="0 0 1130 852.62"><defs><linearGradient id="e0268b55-f382-4d45-820e-0bb1dff069b1" x1="675.66" y1="876.2" x2="675.66" y2="479.07" gradientUnits="userSpaceOnUse"><stop offset="0" stop-color="gray" stop-opacity="0.25"/><stop offset="0.54" stop-color="gray" stop-opacity="0.12"/><stop offset="1" stop-color="gray" stop-opacity="0.1"/></linearGradient></defs><title>stripe payments</title><path d="M691.54,187.35c-72.44-2.57-141.44-26.53-207.32-52.74S353.07,79.35,282.37,65.46c-45.48-8.93-97.49-10.19-134.13,14.78-35.27,24-46.66,65.54-52.78,104-4.61,29-7.32,59.45,5.3,86.57,8.77,18.83,24.34,34.65,35.11,52.68,37.45,62.75,11,140.13-29.62,201.4-19,28.74-41.13,56.16-55.82,86.75s-21.49,65.65-8.64,96.86c12.75,30.94,43.11,54.17,76,70.51,66.81,33.2,145.54,42.7,222.31,48.08,169.94,11.91,340.79,6.75,511.18,1.59,63.06-1.92,126.39-3.85,188.43-13.84,34.44-5.55,70-14.35,95-35.61,31.75-27,39.62-72.67,18.34-106.5C1117.4,616,1018.73,601.92,993.79,541c-13.73-33.52.37-70.86,20.32-102,42.8-66.69,114.54-125.2,118.32-201.44,2.6-52.36-31.89-104.8-85.21-129.57-55.9-26-133.4-22.7-174.64,20.28C830.12,172.6,755.5,189.63,691.54,187.35Z" transform="translate(-35 -23.69)" fill="#6c63ff" opacity="0.1"/><path d="M495.05,183.53c-1.49-5.11,2.13-8.3,9.07-10.33a76.1,76.1,0,0,1,35-1.1l-9-30.8a89.93,89.93,0,0,0-34.26,3.46c-26.6,7.76-40.24,26.82-33.47,50C472.91,231,521,210.65,525.58,226.24c1.76,6-2.9,9.53-10.24,11.67-10.88,3.18-26.08,2.78-38.85,0l9.11,31.19a94.55,94.55,0,0,0,38-3c27.26-8,42.06-26.93,35.21-50.39-11.53-39-59.43-17.49-63.72-32.17Zm70.58-87.6-30,16.15,30.51,105c5.67,19.4,24.38,29.44,43.78,23.77,10.75-3.13,18-7.39,21.67-11l-7.76-26.6c-3.7,2.93-22.65,15-28.31-4.4L582,152.33l24.9-7.27-8.15-27.92-24.9,7.27Zm76.66,19-4.93-9.09-28.31,8.27L642.53,228.8l32.77-9.57-22.69-77.72c4.78-12.35,18.43-14.34,22.91-14.08l-8.8-30.15c-4.65-.35-20.83,1.25-24.43,17.66Zm32.42-20,32.9-9.6L741.09,200l-32.9,9.61L674.71,95Zm-2.9-10,30.83-16.68L694.87,41.7,664,58.25,671.81,85ZM775.37,63.14a38.55,38.55,0,0,0-22.7,17.73l-4.08-7.63-28.83,8.42,44.61,152.81L795.11,218l-10.69-37.13c5.71,2,14.07,4.85,25.6,1.49,23.46-6.85,39.32-32,27.19-73.51-11.23-38-38.9-52.36-61.84-45.67Zm18.5,92.6c-7.73,2.26-13.12.85-17.26-1.64l-14.33-48.59c2.3-4.79,6.25-8.79,13.73-11,11.92-3.49,24.08,7.47,29.09,24.64,5.13,17.56.83,33-11.23,36.56ZM940.87,80c-9.8-33.55-33.78-55.28-64.84-46.21s-42.34,41.09-32.62,74.38C854.93,147.59,883,161,915,151.67c15.6-4.55,26.36-11.54,33.82-19.12l-7.65-26.21c-7.61,7.06-17,12.8-30,16.58-12.71,3.71-25.28,2.55-31.24-12.5L944,91.71c-.5-1.7-2.23-8.59-3.14-11.74Zm-68.38,6.45c-4.33-14.81,2.92-23.61,11.18-26,8-2.33,18.31,1.34,22.63,16.15Z" transform="translate(-35 -23.69)" opacity="0.1"/><path d="M495.05,175.53c-1.49-5.11,2.13-8.3,9.07-10.33a76.1,76.1,0,0,1,35-1.1l-9-30.8a89.93,89.93,0,0,0-34.26,3.46c-26.6,7.76-40.24,26.82-33.47,50C472.91,223,521,202.65,525.58,218.24c1.76,6-2.9,9.53-10.24,11.67-10.88,3.18-26.08,2.78-38.85,0l9.11,31.19a94.55,94.55,0,0,0,38-3c27.26-8,42.06-26.93,35.21-50.39-11.53-39-59.43-17.49-63.72-32.17Zm70.58-87.6-30,16.15,30.51,105c5.67,19.4,24.38,29.44,43.78,23.77,10.75-3.13,18-7.39,21.67-11l-7.76-26.6c-3.7,2.93-22.65,15-28.31-4.4L582,144.33l24.9-7.27-8.15-27.92-24.9,7.27Zm76.66,19-4.93-9.09-28.31,8.27L642.53,220.8l32.77-9.57-22.69-77.72c4.78-12.35,18.43-14.34,22.91-14.08l-8.8-30.15c-4.65-.35-20.83,1.25-24.43,17.66Zm32.42-20,32.9-9.6L741.09,192l-32.9,9.61L674.71,87Zm-2.9-10,30.83-16.68L694.87,33.7,664,50.25,671.81,77ZM775.37,55.14a38.55,38.55,0,0,0-22.7,17.73l-4.08-7.63-28.83,8.42,44.61,152.81L795.11,210l-10.69-37.13c5.71,2,14.07,4.85,25.6,1.49,23.46-6.85,39.32-32,27.19-73.51-11.23-38-38.9-52.36-61.84-45.67Zm18.5,92.6c-7.73,2.26-13.12.85-17.26-1.64L762.28,97.51c2.3-4.79,6.25-8.79,13.73-11,11.92-3.49,24.08,7.47,29.09,24.64,5.13,17.56.83,33-11.23,36.56ZM940.87,72c-9.8-33.55-33.78-55.28-64.84-46.21s-42.34,41.09-32.62,74.38C854.93,139.59,883,153,915,143.67c15.6-4.55,26.36-11.54,33.82-19.12l-7.65-26.21c-7.61,7.06-17,12.8-30,16.58-12.71,3.71-25.28,2.55-31.24-12.5L944,83.71c-.5-1.7-2.23-8.59-3.14-11.74Zm-68.38,6.45c-4.33-14.81,2.92-23.61,11.18-26,8-2.33,18.31,1.34,22.63,16.15Z" transform="translate(-35 -23.69)" fill="#6772e5"/><ellipse cx="678.83" cy="838.73" rx="92.55" ry="13.88" fill="#6c63ff" opacity="0.1"/><polygon points="644.47 813.69 466.28 811.41 466.81 806.84 475.42 731.45 631.91 731.45 643.42 806.84 644.3 812.55 644.47 813.69" fill="#d0d2d5"/><polygon points="644.3 812.55 555.38 812.55 466.28 811.41 466.81 806.84 643.42 806.84 644.3 812.55" opacity="0.1"/><rect x="436.58" y="807.98" width="236.45" height="5.71" fill="#d0d2d5"/><path d="M933.62,302.34a14.87,14.87,0,0,0-14.8-14.95H258.5a14.88,14.88,0,0,0-14.8,14.95V702.6H933.62Z" transform="translate(-35 -23.69)" fill="#444053"/><path d="M243.7,698.6v46.88a14.8,14.8,0,0,0,14.8,14.8H918.82a14.79,14.79,0,0,0,14.8-14.8V698.6Z" transform="translate(-35 -23.69)" fill="#d0d2d5"/><rect x="237.26" y="288.83" width="636.23" height="359.81" fill="#fff"/><path d="M592.09,742.5a15.43,15.43,0,0,0,12.13-5.89h0a15.28,15.28,0,0,0,1.2-1.77L597,733.44l9.15.07a15.44,15.44,0,0,0,.29-12.22l-12.27,6.37,11.32-8.32A15.42,15.42,0,1,0,580,736.6h0A15.43,15.43,0,0,0,592.09,742.5Z" transform="translate(-35 -23.69)" fill="#6c63ff"/><polygon points="572.51 736.59 643.6 807.98 632.69 736.59 572.51 736.59" opacity="0.1"/><rect x="236.76" y="288.87" width="636.92" height="21.02" fill="#444053" opacity="0.1"/><rect x="240.41" y="292.53" width="18.28" height="12.79" rx="0.78" fill="#6c63ff"/><rect x="457.9" y="292.53" width="191.9" height="12.79" rx="0.58" fill="#6c63ff" opacity="0.3"/><path d="M679.1,323.93h-.47l-.17-.14a3.94,3.94,0,0,0,.91-2.49,3.79,3.79,0,1,0-3.77,3.81,4,4,0,0,0,2.48-.91l.17.14v.47l2.93,2.93.87-.88Zm-3.5,0a2.64,2.64,0,1,1,2.63-2.63A2.61,2.61,0,0,1,675.6,323.93Z" transform="translate(-35 -23.69)" fill="#444053"/><circle cx="864.54" cy="298.92" r="6.4" fill="#6c63ff"/><path d="M736.09,413.74H444.48c-10.1,0-18.29,7.64-18.29,17.06V591.32c0,9.42,8.19,17.06,18.29,17.06H736.09c10.1,0,18.29-7.64,18.29-17.06V430.8C754.38,421.38,746.19,413.74,736.09,413.74Z" transform="translate(-35 -23.69)" opacity="0.1"/><rect x="402.34" y="380.91" width="306.08" height="194.64" rx="18.67" fill="#454b69"/><rect x="434.49" y="490.39" width="48.66" height="16.51" rx="4.8" fill="#6c63ff" opacity="0.3"/><rect x="499.66" y="490.39" width="48.66" height="16.51" rx="4.8" fill="#6c63ff" opacity="0.3"/><rect x="526.59" y="524.28" width="42.58" height="12.16" rx="4.8" fill="#6c63ff" opacity="0.3"/><rect x="564.83" y="490.39" width="48.66" height="16.51" rx="4.8" fill="#6c63ff" opacity="0.3"/><rect x="630" y="490.39" width="48.66" height="16.51" rx="4.8" fill="#6c63ff" opacity="0.3"/><rect x="438.83" y="451.29" width="33.02" height="33.02" rx="2.95" fill="#6c63ff"/><path d="M495.77,496.92H485.35V486.5h10.42Zm-10-.43h9.56v-9.56h-9.56Z" transform="translate(-35 -23.69)" fill="#454b69"/><rect x="455.34" y="451.29" width="0.43" height="11.73" fill="#454b69"/><rect x="455.34" y="473.01" width="0.43" height="11.3" fill="#454b69"/><rect x="438.83" y="467.58" width="11.73" height="0.43" fill="#454b69"/><rect x="460.56" y="467.58" width="11.3" height="0.43" fill="#454b69"/><polygon points="450.41 463.18 447 459.79 438.83 459.79 438.83 459.35 447.18 459.35 450.72 462.87 450.41 463.18" fill="#454b69"/><polygon points="460.7 463.18 460.41 462.86 464.38 459.35 471.85 459.35 471.85 459.79 464.55 459.79 460.7 463.18" fill="#454b69"/><polygon points="447.19 477.24 438.83 477.24 438.83 476.8 446.99 476.8 450.4 472.87 450.73 473.16 447.19 477.24" fill="#454b69"/><polygon points="471.85 477.24 464.37 477.24 460.4 473.17 460.71 472.86 464.56 476.8 471.85 476.8 471.85 477.24" fill="#454b69"/><rect x="434.27" y="395.9" width="92.54" height="16.51" rx="4.1" fill="#6c63ff"/><path d="M758.79,676.69c-.06-1.72-.27-3.44-.48-5.15-.77-6.42-1.56-12.84-2.81-19.17a20.32,20.32,0,0,0-1-3.62c-.45-1.11-1.07-2.13-1.54-3.23a.56.56,0,0,0,0-.12c.58-.28,1.15-.56,1.71-.86a8.57,8.57,0,0,0,1.16-.71,3.28,3.28,0,0,0,.91-1c1-1.76-.12-4-.63-6h0c-.54-2.15-.42-4.73-2-6.17-5.64-5-2.84-15.2-5.66-22.36-.5-1.25-1.07-2.48-1.5-3.76-.33-1-.56-2-.8-3q-3-12.5-6.32-24.89c-2.33-8.56-2.08-17.48-5-25.84a27.79,27.79,0,0,0-2.15-5,13.42,13.42,0,0,0-3.88-4.19c-4.26-2.94-8.55-5.45-13.55-6.52s-10.4-.9-15.5-.88a16.42,16.42,0,0,0-7.24-5.65l-.09-.26a17.91,17.91,0,0,1-.94-3.13,21.35,21.35,0,0,1-.25-3.2c0-1.15-.05-2.31-.08-3.46l.28-.27a19.36,19.36,0,0,0,1.84-2.26,15.83,15.83,0,0,0,1.4-2.39,22.2,22.2,0,0,0,1.14-2.93,33,33,0,0,0,1.23-6.21c.27-2.47.35-5,.42-7.47,0-.5,0-1,0-1.51v-.37c0-.4,0-.79,0-1.18v-.13a13.47,13.47,0,0,0-1.86-7.28c-1.81-2.7-4.91-4-7.9-5.08-6-2.08-12.59-3.45-18.52-1.22-4.71,1.78-8.47,5.66-13.12,7.63v0a5.77,5.77,0,0,1,.29.55.59.59,0,0,1,0,.08c.08.18.15.35.21.53v0a6.57,6.57,0,0,1,.33,1.25h0a7.4,7.4,0,0,1,0,2.44,8.34,8.34,0,0,1-4.48.66,14.24,14.24,0,0,0,2.82,5.12c.41.52.84,1,1.25,1.55l.63.78A16.22,16.22,0,0,1,659.7,505a8.16,8.16,0,0,1,.49,1.87c.19,1.27.14,2.73.31,4a6.08,6.08,0,0,0,.41,1.59,16.75,16.75,0,0,0,8.88,12.47,36.8,36.8,0,0,1,0,11.94c0,.22-.08.44-.13.66-2.72,3.43-5.33,7.05-8.68,9.73a31.59,31.59,0,0,1-4.87,3.14,13.37,13.37,0,0,1-3.21,1.33c-1.26.29-2.58.25-3.83.56a10,10,0,0,0-5.69,4.63,33.45,33.45,0,0,1-2.1,3.38c-.7.87-1.58,1.58-2.32,2.41-2.68,3-3.41,7.34-4,11.4a52.19,52.19,0,0,1-6.83,6.31,10,10,0,0,1-2.54,1.47c-2.36.79-4.95-.22-7-1.74s-3.65-3.52-5.63-5.08l-.52.77a4.16,4.16,0,0,1-.41-.47,10,10,0,0,1-1.65-3.82c-.72-3.69.64-7.64-.42-11.23-.39-1.3-1.33-2.64-2.63-2.61s-2.11,1.33-3.23,1.94c-1.8,1-4,.09-5.78-.9s-3.81-2.1-5.76-1.51a4.09,4.09,0,0,0,1.49,3.4,9.07,9.07,0,0,1,2.42,2.93,13.23,13.23,0,0,1,.33,3.79c.2,2.92,2,5.43,3.74,7.71q3.24,4.15,6.78,8.06l0,0a2.5,2.5,0,0,1-1.26,1.09,2.65,2.65,0,0,0,0,1.45,5.88,5.88,0,0,0,.38.95c.23.47.51.93.75,1.36l3.51,6.17.57,1c.24.42.48.82.73,1.23a22.64,22.64,0,0,0,2.93,4,12,12,0,0,0,1.84,1.58,9.54,9.54,0,0,0,1.37.82,8,8,0,0,0,2.12.73,6.62,6.62,0,0,0,1.1.14,7.37,7.37,0,0,0,1.15,0,15.33,15.33,0,0,0,3.37-.87c6.69-2.35,12.83-6.1,19.19-9.29a10.68,10.68,0,0,1,2.79-1.08,4.58,4.58,0,0,1,1-.08,3.67,3.67,0,0,1,1,.17,3.61,3.61,0,0,1,.9.45,2.59,2.59,0,0,1,1.09,1.62c.19,1,.37,1.93.55,2.89s.38,1.92.58,2.88c.4,1.91.83,3.82,1.33,5.71.27,1,.53,2.06.79,3.1.64,2.54,1.27,5.1,1.85,7.66.18.8.35,1.61.51,2.41a37,37,0,0,1,.64,4.31.38.38,0,0,1,0,.1c.1,1.26.11,2.51.12,3.77l0,3.95.1,11.66c0,1.68-.9,2.73-1.61,4.24-.14.31-.27.63-.38.95h0v0a10.79,10.79,0,0,0-.33,1.24c0,.13-.06.27-.08.4s0,.31-.06.46,0,.3-.05.44,0,.3,0,.44,0,.32,0,.48,0,.28,0,.41,0,.35,0,.52,0,.25,0,.37.07.39.1.59l.06.3c.07.29.14.58.24.87.2.6.45,1.19.71,1.77s.52,1.17.74,1.77a12,12,0,0,1,.36,1.16,2.61,2.61,0,0,1,.06.27c.08.31.15.62.21.94l0,.22c.06.34.11.69.15,1a.49.49,0,0,1,0,.12c0,.39.08.78.1,1.17h0c.09,1.42.07,2.87,0,4.3l-.12,7.12v.22h0a1.25,1.25,0,0,0,.14.64.78.78,0,0,0,.67.36,2.54,2.54,0,0,0,1.39-.54l3.18-2.31H664c-2.51,4.11-4.52,8.64-4.91,13.47a43,43,0,0,0,.61,9.53c2.93,21,9.83,42.19,8.38,63.39-.57,8.35,2.89,16.49,2.87,24.85,0,3.25-.55,6.47-.69,9.71-.61,13.92,6.49,28,3.6,41.6,1,3.38,4.79,5.18,5.86,8.54.9,2.85-.4,5.88-1.45,8.67a17.67,17.67,0,0,0-.87,3c-2.91,0-6.14.06-8.08.87a12,12,0,0,0-1.57.64c-1.79,1.07-1.91,4-.78,5.77s7.48,7.42,9.34,8.35l4.07,2a24.42,24.42,0,0,0,7,2.64,23.94,23.94,0,0,0,6.21-.12c1.59-.17,3.35-.43,4.38-1.73,1.45-1.84.71-4.83-.28-7.49a2.67,2.67,0,0,0,.82-1.11,8.88,8.88,0,0,0,.27-2.13,16,16,0,0,1,1.42-4c1.67-4.07,1.6-8.65,1.5-13.08a151.73,151.73,0,0,0-1.48-21.53c-.5-3-1.18-6-1.76-9a148.92,148.92,0,0,1-2.73-33,26.41,26.41,0,0,0-1.11-7.94,14.26,14.26,0,0,1-.26-4.53l1.2-18.31a73.51,73.51,0,0,0,.17-11.2c-.17-2-.5-4-.7-6a91.27,91.27,0,0,1-.19-11.46c.11-4.11.3-8.52,2.65-11.82a1.84,1.84,0,0,1,1.12-.87c.48-.07.62.58.44,1,.25.76.51,1.51.77,2.27.08.22.15.43.23.64.13.39.27.78.41,1.17s.2.54.29.81l.39,1c.11.3.23.59.34.88s.25.63.38.94.26.62.4.93.24.57.37.86l.48,1c.12.25.24.51.37.76s.39.73.59,1.09c.11.21.22.42.34.62.32.56.65,1.1,1,1.64h0c.68,1,1.41,2,2,3.07a10.16,10.16,0,0,1,.56,1.09,26.93,26.93,0,0,1,1.31,4.26c.35,1.32.76,2.61,1.21,3.88s1,2.54,1.49,3.78c.27.62.55,1.24.83,1.85.84,1.85,1.75,3.67,2.67,5.47a5.09,5.09,0,0,1,.38,1,4.64,4.64,0,0,1,.11.51,4.56,4.56,0,0,1,0,1,4.2,4.2,0,0,1-.08.62,4.67,4.67,0,0,1-.27.9c-1.23,2.81-.24,5.58.3,8.34a52.75,52.75,0,0,1,.68,8.8c0,1,0,2,.09,2.93,0,1.22,0,2.43.07,3.65s0,2.62.07,3.93a34.25,34.25,0,0,1-.16,3.93c0,.46-.12.91-.19,1.36-.22,1.35-.53,2.69-.8,4a79.55,79.55,0,0,0-1.38,16q0,3.23.21,6.47c.12,2.17.29,4.33.48,6.5.1,1.19.22,2.38.34,3.57.2,2.06.42,4.12.64,6.18s.46,4.33.67,6.48.4,4.3.55,6.44a5.39,5.39,0,0,1-.64,3.06,6.88,6.88,0,0,0-.5,1.16,6.24,6.24,0,0,0-.22.85,9,9,0,0,0-.12,1,11.39,11.39,0,0,0,.12,2.1q.08.52.18,1c.15.69.33,1.38.51,2.06a20.73,20.73,0,0,0,2,5.4,8,8,0,0,0,.66,1c.07.1.15.19.23.29a7.17,7.17,0,0,1,.57.76,2.42,2.42,0,0,1,.21.39,3.07,3.07,0,0,1,.12,1.73c-.11.6-.32,1.2-.48,1.77h0l.52.07c-.73,2.31-1.07,4.68.16,6.23,1,1.3,2.79,1.56,4.38,1.73a23.5,23.5,0,0,0,6.21.13,24.42,24.42,0,0,0,7-2.64l4.07-2c1.86-.93,8.2-6.54,9.33-8.36s1-4.69-.77-5.76a11.29,11.29,0,0,0-1.57-.65c-1.8-.75-4.71-.82-7.43-.86-.14-1-.22-2.09-.26-3.12a86.22,86.22,0,0,1,.22-11.48c.23-2.71.58-5.41.55-8.12,0-3.62-.75-7.2-1.14-10.8s-.43-7.12-.49-10.68c-.09-5.24,1.45-10.23,2.12-15.41l1.17-9.11a11.08,11.08,0,0,0,.08-3.35c-.18-1-.64-2-.83-3-.41-2.27.62-4.52.94-6.81.37-2.63-.2-5.3-.57-7.94a103.23,103.23,0,0,1-.69-12.56c-.36-25.8-1.09-52.18-9.81-76.32-.35-1-.73-2-1.12-2.93a5.25,5.25,0,0,0,.52-.17,3.51,3.51,0,0,0,.77-.4,2.1,2.1,0,0,0,.3-.22,2.31,2.31,0,0,0,.59-1,3.77,3.77,0,0,0,.18-1.13,8.05,8.05,0,0,0-.29-2l-.12-.41c-.2-.68-.42-1.35-.65-2h0c-.22-.65-.46-1.28-.71-1.92a23.37,23.37,0,0,1-1.26-3.67c-.61-2.84,0-6.12-1.71-8.43-3.78-5.18-1.11-13.14-2.69-19.45-.52-2-1.28-4-1.76-6-.3-1.28-.49-2.59-.68-3.9a48.58,48.58,0,0,1-.74-8.58c0-1.44.22-2.88.39-4.31l1.2-9.92a29.6,29.6,0,0,1,2.84,8.16c.09.41.17.81.26,1.22a144.38,144.38,0,0,0,4,14.48c.91,2.87,1.81,5.73,2.79,8.57.29.81.57,1.63.83,2.46a19.8,19.8,0,0,1,.6,2.53c.11.68.16,1.38.21,2.07s.09,1.4.16,2.09a19.68,19.68,0,0,0,2.9,8.31,2.43,2.43,0,0,1,.14.2,2.36,2.36,0,0,0,1.22,1.06h0a2.68,2.68,0,0,0,1.09,0h.06c.53-.11,1.06-.23,1.58-.36a2,2,0,0,0,.23-.06c.24,3.1,1.16,6.19,1.24,9.32.1,4.55-1.57,8.91-2.63,13.32a84.89,84.89,0,0,0-1.79,12.22,5.41,5.41,0,0,0,.15,2.44,1.73,1.73,0,0,0,1.82,1.23,2.2,2.2,0,0,0,1.29-1.15,9.13,9.13,0,0,0,1.11-6.59c.95.2,1.44,1.29,1.67,2.28a13.7,13.7,0,0,1-.42,7.74c-.59,1.66-1.5,3.19-2,4.9a2.56,2.56,0,0,0,0,1.64c.5,1.15,2.08,1.07,3.22.65a16.19,16.19,0,0,0,8.49-8A24.52,24.52,0,0,0,758.79,676.69Z" transform="translate(-35 -23.69)" fill="url(#e0268b55-f382-4d45-820e-0bb1dff069b1)"/><path d="M700.45,874.2c-1.07,1.29-2.9,1.55-4.56,1.72a26,26,0,0,1-6.47.12,26.4,26.4,0,0,1-7.27-2.62l-4.24-2c-1.93-.93-8.53-6.51-9.71-8.32s-1.06-4.66.8-5.73a13,13,0,0,1,1.64-.64c3.12-1.24,9.44-.61,12.76-1.09a8.84,8.84,0,0,1,4.72,1.11c3.28,1.45,9.06,2.6,10.49,6.29C699.72,865.88,702.76,871.39,700.45,874.2Z" transform="translate(-35 -23.69)" fill="#2f2e41"/><path d="M724,871.46c1.07,1.29,2.9,1.55,4.56,1.72a19.52,19.52,0,0,0,13.73-2.51l4.24-2c1.94-.93,8.54-6.51,9.72-8.32s1.06-4.67-.81-5.73a11,11,0,0,0-1.63-.64c-3.12-1.24-9.44-.61-12.76-1.09a8.81,8.81,0,0,0-4.73,1.11c-3.27,1.45-9,2.6-10.48,6.29C724.7,863.14,721.65,868.65,724,871.46Z" transform="translate(-35 -23.69)" fill="#2f2e41"/><path d="M734.31,669.26a50.49,50.49,0,0,1,2.67,6.08c9.08,24,9.84,50.26,10.22,75.93a96.46,96.46,0,0,0,.71,12.49c.38,2.63,1,5.28.59,7.91-.33,2.27-1.4,4.51-1,6.76.19,1,.67,2,.86,3a10.36,10.36,0,0,1-.09,3.33l-1.21,9.06c-.7,5.16-2.3,10.12-2.21,15.33.06,3.55.12,7.1.51,10.63a105.28,105.28,0,0,1,1.19,10.74c0,2.7-.34,5.39-.58,8.08a83.68,83.68,0,0,0-.23,11.42c.14,2.93.48,6,2,8.47-1.75,2.5-3.47,4.74-6.26,6-5.67,2.48-12.18,1.64-18.31.75.34-1.13.86-2.41.37-3.49a6.58,6.58,0,0,0-1.05-1.43,17,17,0,0,1-2.73-6.34c-.74-2.71-1.48-5.62,0-8.21a5.2,5.2,0,0,0,.67-3c-1.27-17-5.06-34.64-1.57-51.35.37-1.78.81-3.56,1-5.37a65.8,65.8,0,0,0,.1-7.82L720,774.5c-.18-3.87,0-7.84-.8-11.67-.55-2.74-1.59-5.5-.31-8.3a4.55,4.55,0,0,0-.19-4,74,74,0,0,1-6.46-14.91,25.86,25.86,0,0,0-1.36-4.24,30.07,30.07,0,0,0-2.68-4.13c-3-4.41-4.86-9.52-6.64-14.56.19-.47,0-1.11-.45-1a1.88,1.88,0,0,0-1.17.87c-2.44,3.28-2.65,7.66-2.76,11.76a86.74,86.74,0,0,0,.2,11.4c.2,2,.55,4,.73,6a70.27,70.27,0,0,1-.18,11.14L696.7,771a13.09,13.09,0,0,0,.26,4.51,25.23,25.23,0,0,1,1.16,7.89A141.87,141.87,0,0,0,701,816.18c.6,3,1.31,5.94,1.83,8.93a146.09,146.09,0,0,1,1.54,21.42c.11,4.41.18,9-1.56,13a14.89,14.89,0,0,0-1.48,4,8.27,8.27,0,0,1-.28,2.12c-.51,1.31-2,1.87-3.41,2.17a27.75,27.75,0,0,1-7.87.56,4.41,4.41,0,0,1-1.79-.4c-1-.51-1.5-1.59-2.25-2.4-1.61-1.76-4.29-2.3-5.76-4.18-1.84-2.36-1.07-5.77,0-8.55s2.44-5.79,1.5-8.63c-1.11-3.33-5-5.13-6.1-8.49,3-13.54-4.38-27.54-3.75-41.39.15-3.23.71-6.43.72-9.66,0-8.32-3.57-16.42-3-24.72,1.51-21.09-5.68-42.15-8.72-63.08a40.74,40.74,0,0,1-.64-9.47c.45-5.24,2.88-10.11,5.8-14.48,2.1-3.13,4.62-6.2,8.09-7.66,2.86-1.21,6.06-1.2,9.16-1.18,7.74.06,15.48.12,23.22.26a76.37,76.37,0,0,1,15.7,1.4C726.14,666.7,730.06,668.65,734.31,669.26Z" transform="translate(-35 -23.69)" fill="#2f2e41"/><g opacity="0.1"><path d="M702.38,712.5a1.91,1.91,0,0,1,1.17-.87c.5-.07.65.57.46,1,1.78,5,3.6,10.15,6.63,14.56a29.23,29.23,0,0,1,2.69,4.13,26.86,26.86,0,0,1,1.36,4.24,74.5,74.5,0,0,0,6.45,14.91,4.52,4.52,0,0,1,.19,4c-1.28,2.8-.24,5.56.32,8.3.77,3.83.62,7.8.8,11.67,0,1.21,0,2.42.07,3.63a63.75,63.75,0,0,1-.09,7.82c-.21,1.81-.65,3.59-1,5.37-3.48,16.71.3,34.32,1.57,51.35a5.19,5.19,0,0,1-.66,3c-1.52,2.59-.78,5.5,0,8.21a16.72,16.72,0,0,0,2.73,6.34,7.31,7.31,0,0,1,1,1.43c.49,1.08,0,2.36-.38,3.49a77.14,77.14,0,0,0,8.18.87,59.19,59.19,0,0,1-10.61-.87c.34-1.13.86-2.41.37-3.49a6.58,6.58,0,0,0-1.05-1.43,17,17,0,0,1-2.73-6.34c-.74-2.71-1.48-5.62,0-8.21a5.2,5.2,0,0,0,.67-3c-1.27-17-5.06-34.64-1.57-51.35.37-1.78.81-3.56,1-5.37a65.8,65.8,0,0,0,.1-7.82c0-1.21-.05-2.42-.08-3.63-.18-3.87,0-7.84-.8-11.67-.55-2.74-1.59-5.5-.31-8.3a4.55,4.55,0,0,0-.19-4,74,74,0,0,1-6.46-14.91,26.86,26.86,0,0,0-1.36-4.24,30.07,30.07,0,0,0-2.68-4.13c-2.9-4.21-4.69-9.05-6.39-13.87C702,713.07,702.18,712.78,702.38,712.5Z" transform="translate(-35 -23.69)"/></g><path d="M609.26,573.11c-.75-3.67.67-7.6-.44-11.17-.4-1.29-1.38-2.63-2.73-2.6s-2.2,1.32-3.36,1.93c-1.87,1-4.15.09-6-.89s-4-2.1-6-1.51c-.24,1.28.62,2.49,1.56,3.38a9.31,9.31,0,0,1,2.51,2.92c.47,1.18.25,2.5.35,3.77.21,2.9,2,5.41,3.89,7.67a137.21,137.21,0,0,0,9.43,10.45s5-6.24,4.93-7.33-1.78-2-2.4-2.82A9.57,9.57,0,0,1,609.26,573.11Z" transform="translate(-35 -23.69)" fill="#a1616a"/><path d="M759.32,649.91a19.43,19.43,0,0,1,1,3.6c1.3,6.3,2.12,12.69,2.93,19.07.21,1.7.43,3.41.49,5.12a23.37,23.37,0,0,1-2.43,11.79,16.49,16.49,0,0,1-8.83,8c-1.18.42-2.83.5-3.35-.64a2.46,2.46,0,0,1,0-1.63c.47-1.7,1.42-3.23,2-4.88a13.15,13.15,0,0,0,.44-7.7c-.24-1-.75-2.07-1.74-2.27a8.75,8.75,0,0,1-1.16,6.56,2.27,2.27,0,0,1-1.34,1.14,1.81,1.81,0,0,1-1.9-1.22,5.23,5.23,0,0,1-.15-2.43,81.72,81.72,0,0,1,1.86-12.16c1.1-4.39,2.85-8.72,2.73-13.25-.1-4.1-1.73-8.13-1.27-12.2a1,1,0,0,1,.74-1,27,27,0,0,1,3.53-1.17c.71-.18,3.13-1,3.81-.64s.72,2.13,1,2.75C758.21,647.78,758.86,648.8,759.32,649.91Z" transform="translate(-35 -23.69)" fill="#a1616a"/><circle cx="643.39" cy="487.97" r="16.75" fill="#a1616a"/><path d="M693.4,523.78a18.89,18.89,0,0,0,.25,3.19,17,17,0,0,0,1,3.11,18.14,18.14,0,0,0,2.34,4.6,6.85,6.85,0,0,0,4.24,2.76A120.46,120.46,0,0,1,665,547.91a15.28,15.28,0,0,0,4.8-5.13,14.49,14.49,0,0,0,1.27-4.17,35,35,0,0,0-1.57-18.07c-.21-.56-.41-1.26,0-1.73a1.71,1.71,0,0,1,.6-.38,37.21,37.21,0,0,1,15.74-2.94c1.38,0,2.76.07,4.14.17.74.06,2.37-.1,3,.44s.35,2.66.37,3.53Z" transform="translate(-35 -23.69)" fill="#a1616a"/><path d="M702.26,536a17.94,17.94,0,0,0-21.44-5.34c-8,3.81-11.9,13-18.91,18.32a33,33,0,0,1-5.08,3.13,14.18,14.18,0,0,1-3.34,1.32c-1.31.29-2.67.25-4,.56a10.27,10.27,0,0,0-5.93,4.6,31.14,31.14,0,0,1-2.18,3.36c-.73.87-1.64,1.58-2.41,2.41-2.79,3-3.55,7.3-4.18,11.34a53.71,53.71,0,0,1-7.12,6.27,10,10,0,0,1-2.64,1.46c-2.45.8-5.16-.21-7.25-1.72s-3.79-3.5-5.85-5c-1.89,2.7-3.87,5.42-5.89,8a2.53,2.53,0,0,1-1.32,1.08c-.38,1.28.53,2.6,1.21,3.74l3.65,6.14a31.13,31.13,0,0,0,4.41,6.18A10.35,10.35,0,0,0,620.7,605a13.27,13.27,0,0,0,4.71-.91c7-2.34,13.35-6.07,20-9.25a8.89,8.89,0,0,1,3.92-1.15,3.17,3.17,0,0,1,3.1,2.23c.76,3.84,1.51,7.66,2.55,11.42q1.49,5.34,2.75,10.71a46.22,46.22,0,0,1,1.2,6.69c.11,1.28.12,2.56.14,3.85l.14,15.52c0,1.68-.94,2.72-1.68,4.22a10,10,0,0,0-.47,7.46c.41,1.21,1.06,2.33,1.52,3.53,1.1,2.89,1.06,6.07,1,9.16l-.13,7.08a1.48,1.48,0,0,0,.15.86c.43.67,1.47.28,2.13-.18L665,674a75.63,75.63,0,0,0,13.38.65c12.71-.18,25.43.32,38.11,1.21,4.24.3,8.61.62,12.61-.79,2-.72,3.9-1.87,6-2.44a5.48,5.48,0,0,0,2.37-1c1.16-1.07.85-3,.38-4.46-.42-1.32-.89-2.63-1.42-3.91a23.74,23.74,0,0,1-1.32-3.65c-.63-2.82,0-6.09-1.77-8.39-3.94-5.15-1.15-13.08-2.81-19.35-.53-2-1.32-4-1.82-6-.32-1.28-.52-2.58-.71-3.88a45.44,45.44,0,0,1-.77-8.54c0-1.43.23-2.86.41-4.28l1.25-9.88a31.45,31.45,0,0,1,3.22,9.34,137.14,137.14,0,0,0,4.2,14.41c.94,2.85,1.88,5.69,2.9,8.52a27.76,27.76,0,0,1,1.49,5c.22,1.37.23,2.77.39,4.14a18.89,18.89,0,0,0,3,8.27,2.72,2.72,0,0,0,1.42,1.26,2.85,2.85,0,0,0,1.23,0,48.94,48.94,0,0,0,12.72-4.4,5.19,5.19,0,0,0,2.15-1.68c1.08-1.76-.13-3.95-.66-5.95s-.43-4.71-2.11-6.14c-5.87-5-3-15.13-5.89-22.25-.52-1.25-1.12-2.46-1.56-3.74-.34-1-.59-2-.84-3q-3.07-12.43-6.58-24.77c-2.42-8.52-2.16-17.39-5.21-25.71a27.12,27.12,0,0,0-2.23-5,13.65,13.65,0,0,0-4-4.17c-4.43-2.93-8.89-5.42-14.1-6.48S707.56,535.94,702.26,536Z" transform="translate(-35 -23.69)" fill="#3f3d56"/><path d="M663.17,515.76c-2.25-1.21-1.66-4.51-2-7-.79-5.21-6.66-8.29-8-13.37a9,9,0,0,0,4.66-.66,7.14,7.14,0,0,0-.94-4.88c4.83-2,8.75-5.81,13.65-7.58,6.18-2.23,13-.86,19.28,1.21,3.11,1,6.34,2.37,8.22,5.05,2.06,2.95,2,6.82,1.92,10.42-.17,5.64-.4,11.48-2.91,16.53-3.19,6.43-12.24,12.38-19.72,10.64-3.1-.72-4-2.68-5.33-5.38-.82-1.68-1.12-3.63-3-4.51S665,516.74,663.17,515.76Z" transform="translate(-35 -23.69)" fill="#3f3d56"/><g opacity="0.1"><path d="M659.53,669.67a.36.36,0,0,0,0,.09c.43.67,1.47.28,2.13-.18l3.32-2.29a75.63,75.63,0,0,0,13.38.64c12.71-.18,25.43.32,38.11,1.21,4.24.3,8.61.62,12.61-.79,2-.72,3.9-1.86,6-2.44a6.9,6.9,0,0,0,2.07-.74c.24.66.47,1.32.68,2,.47,1.51.78,3.39-.38,4.46a5.48,5.48,0,0,1-2.37,1c-2.08.57-4,1.72-6,2.44-4,1.41-8.37,1.09-12.61.79-12.68-.89-25.4-1.39-38.11-1.21A75.63,75.63,0,0,1,665,674l-3.32,2.3c-.66.46-1.7.85-2.13.18a1.48,1.48,0,0,1-.15-.86Q659.47,672.65,659.53,669.67Z" transform="translate(-35 -23.69)"/><path d="M732.11,608.61a31.45,31.45,0,0,0-3.22-9.34l-1.25,9.88c-.08.62-.16,1.24-.23,1.86a30.65,30.65,0,0,1-.18-4.28c0-1.43.23-2.86.41-4.28l1.25-9.88a31.45,31.45,0,0,1,3.22,9.34,137.14,137.14,0,0,0,4.2,14.41c.94,2.85,1.88,5.7,2.9,8.52a28,28,0,0,1,1.49,5c.22,1.37.23,2.77.39,4.14a18.74,18.74,0,0,0,3,8.27,2.66,2.66,0,0,0,1.41,1.26,2.85,2.85,0,0,0,1.23-.05,48.94,48.94,0,0,0,12.72-4.4,8,8,0,0,0,1.49-.95v0c.53,2,1.74,4.19.66,5.95a5.19,5.19,0,0,1-2.15,1.68,48.94,48.94,0,0,1-12.72,4.4,2.85,2.85,0,0,1-1.23,0,2.66,2.66,0,0,1-1.41-1.26,18.78,18.78,0,0,1-3-8.27c-.16-1.37-.17-2.77-.39-4.14a27.76,27.76,0,0,0-1.49-5c-1-2.83-2-5.67-2.9-8.52A137.14,137.14,0,0,1,732.11,608.61Z" transform="translate(-35 -23.69)"/><path d="M731.08,635.84c0,.44,0,.89,0,1.34C731.1,636.73,731.09,636.29,731.08,635.84Z" transform="translate(-35 -23.69)"/><path d="M658.55,652.66c1.1,2.89,1.06,6.07,1,9.16,0,.81,0,1.61,0,2.42a16.51,16.51,0,0,0-1-4.88c-.46-1.2-1.11-2.32-1.52-3.53a10,10,0,0,1,.08-6.51C657.52,650.46,658.11,651.53,658.55,652.66Z" transform="translate(-35 -23.69)"/><path d="M606.06,584.65l.57-.74,3,5a30.84,30.84,0,0,0,4.41,6.18,10.35,10.35,0,0,0,6.69,3.25,13.48,13.48,0,0,0,4.71-.9c7-2.35,13.35-6.08,20-9.26A8.89,8.89,0,0,1,649.3,587a3.18,3.18,0,0,1,3.1,2.24c.76,3.83,1.51,7.65,2.55,11.41q1.49,5.34,2.75,10.71a46.22,46.22,0,0,1,1.2,6.69c.11,1.28.12,2.57.13,3.85l.15,15.53a3.74,3.74,0,0,1-.06.68l-.09-9.51c0-1.29,0-2.57-.13-3.85a46.22,46.22,0,0,0-1.2-6.69q-1.28-5.37-2.75-10.71c-1-3.76-1.79-7.58-2.55-11.42a3.17,3.17,0,0,0-3.1-2.23,8.89,8.89,0,0,0-3.92,1.15c-6.62,3.18-13,6.91-20,9.25a13.27,13.27,0,0,1-4.71.91,10.35,10.35,0,0,1-6.69-3.25,31.13,31.13,0,0,1-4.41-6.18c-1.21-2.05-2.43-4.09-3.65-6.14-.68-1.14-1.59-2.46-1.21-3.74A2.53,2.53,0,0,0,606.06,584.65Z" transform="translate(-35 -23.69)"/></g><g opacity="0.1"><path d="M657.75,492.27h0a7,7,0,0,0-.92-2.45q.42-.17.84-.36A7,7,0,0,1,657.75,492.27Z" transform="translate(-35 -23.69)"/><path d="M661.13,506.29c.38,2.53-.21,5.82,2,7,1.82,1,4-.41,5.79.45s2.14,2.83,3,4.51c1.31,2.7,2.23,4.65,5.33,5.38,7.48,1.74,16.53-4.22,19.72-10.65,2.51-5.05,2.74-10.89,2.91-16.53,0-.28,0-.55,0-.83,0,1.09,0,2.19,0,3.27-.17,5.64-.4,11.48-2.91,16.53-3.19,6.43-12.24,12.38-19.72,10.64-3.1-.72-4-2.68-5.33-5.38-.82-1.68-1.12-3.63-3-4.51s-4,.54-5.79-.44c-2.25-1.21-1.66-4.51-2-7-.79-5.21-6.66-8.29-8-13.37a7.88,7.88,0,0,0,1.09.07C656.37,499.14,660.48,502,661.13,506.29Z" transform="translate(-35 -23.69)"/></g><path d="M270.44,794.93a30.29,30.29,0,0,0-8.79-3.11,40.74,40.74,0,0,0,6.58-1.48c5.71-1.81,8.59-4.23,6.43-5.42s-8.55-.69-14.26,1.12a22.3,22.3,0,0,0-5.48,2.43c-.59-1.25-2.19-2.7-4.7-4.08-5.07-2.79-11.89-4.19-15.23-3.14s-1.93,4.17,3.15,7a30.73,30.73,0,0,0,7.88,2.93,45.8,45.8,0,0,0-5.42,1c-6.21,1.49-9.81,3.75-8,5s8.27,1.13,14.49-.36a27.54,27.54,0,0,0,6.52-2.31c.51,1.29,2.14,2.83,4.78,4.28,5.07,2.78,11.89,4.19,15.23,3.14S275.51,797.71,270.44,794.93Z" transform="translate(-35 -23.69)" fill="#6c63ff"/><path d="M195.94,698.81a18.85,18.85,0,0,0-5.52-1.94,24.76,24.76,0,0,0,4.14-.93c3.57-1.13,5.38-2.65,4-3.39s-5.34-.43-8.92.7a13.82,13.82,0,0,0-3.42,1.52,6.9,6.9,0,0,0-3-2.55c-3.17-1.75-7.44-2.63-9.53-2s-1.2,2.61,2,4.36a19.43,19.43,0,0,0,5,1.83,30.94,30.94,0,0,0-3.41.6c-3.89.93-6.14,2.35-5,3.15s5.17.71,9.06-.22a17.22,17.22,0,0,0,4.08-1.44,6.51,6.51,0,0,0,3,2.67c3.18,1.75,7.45,2.63,9.54,2S199.12,700.56,195.94,698.81Z" transform="translate(-35 -23.69)" fill="#6c63ff"/><ellipse cx="771.47" cy="816.2" rx="32.29" ry="6.21" fill="#6c63ff"/><ellipse cx="770.93" cy="813.56" rx="3.76" ry="4.92" fill="#3f3d56"/><ellipse cx="770.93" cy="807.55" rx="3.76" ry="4.92" fill="#3f3d56"/><ellipse cx="770.93" cy="801.53" rx="3.76" ry="4.92" fill="#3f3d56"/><ellipse cx="770.93" cy="795.52" rx="3.76" ry="4.92" fill="#3f3d56"/><ellipse cx="770.93" cy="789.5" rx="3.76" ry="4.92" fill="#3f3d56"/><ellipse cx="770.93" cy="783.49" rx="3.76" ry="4.92" fill="#3f3d56"/><ellipse cx="770.93" cy="777.47" rx="3.76" ry="4.92" fill="#3f3d56"/><path d="M820,760a18.19,18.19,0,0,0,1.4-2.06l-9.88-1.62,10.68.08a18.06,18.06,0,0,0,.35-14.27l-14.34,7.44,13.22-9.72A18,18,0,1,0,791.7,760a18.35,18.35,0,0,0-2.06,3.29l12.83,6.66-13.68-4.59a18.15,18.15,0,0,0-.95,5.78,17.88,17.88,0,0,0,3.86,11.13,18,18,0,1,0,28.31,0A18,18,0,0,0,820,760Z" transform="translate(-35 -23.69)" fill="#6c63ff"/><path d="M787.84,771.13a17.88,17.88,0,0,0,3.86,11.13,18,18,0,1,0,28.31,0C822.42,779.2,787.84,769.11,787.84,771.13Z" transform="translate(-35 -23.69)" opacity="0.1"/></svg>