<svg xmlns="http://www.w3.org/2000/svg" xmlns:xlink="http://www.w3.org/1999/xlink" width="437" height="243"><defs><linearGradient id="a" x1="22.553%" x2="55.798%" y1="790.564%" y2="790.564%"><stop offset="0%" stop-color="#F8F8F8"/><stop offset="20.719%" stop-color="#C8D6FD"/><stop offset="100%" stop-color="#D7E1FF"/></linearGradient><linearGradient id="b" x1="22.553%" x2="55.798%" y1="790.564%" y2="790.564%"><stop offset="0%" stop-color="#F8F8F8"/><stop offset="18.47%" stop-color="#C8D6FD"/><stop offset="100%" stop-color="#D9E3FF"/></linearGradient><linearGradient id="c" x1="22.553%" x2="55.798%" y1="790.564%" y2="790.564%"><stop offset="0%" stop-color="#E2EAFF"/><stop offset="16.441%" stop-color="#C8D6FD"/><stop offset="38.065%" stop-color="#BDCFFE"/><stop offset="100%" stop-color="#EEF2FF"/></linearGradient><path id="e" d="M666.683 156.19l16.698 9.641a2.352 2.352 0 0 1 1.175 2.037v19.284c0 .84-.448 1.617-1.175 2.037l-16.698 9.642c-.728.42-1.624.42-2.352 0l-16.697-9.642a2.352 2.352 0 0 1-1.176-2.037v-19.284c0-.84.448-1.617 1.176-2.037l16.697-9.642a2.352 2.352 0 0 1 2.352 0z"/><filter id="d" width="175.3%" height="187%" x="-37.6%" y="-29.9%" filterUnits="objectBoundingBox"><feOffset dy="6" in="SourceAlpha" result="shadowOffsetOuter1"/><feGaussianBlur in="shadowOffsetOuter1" result="shadowBlurOuter1" stdDeviation="5.5"/><feColorMatrix in="shadowBlurOuter1" values="0 0 0 0 0.149504573 0 0 0 0 0.170452736 0 0 0 0 1 0 0 0 0.241122159 0"/></filter><path id="g" d="M752.49 43.261l7.154 4.132a4.368 4.368 0 0 1 2.184 3.782v8.265c0 1.56-.832 3.002-2.184 3.783l-7.154 4.131a4.368 4.368 0 0 1-4.369 0l-7.155-4.131a4.368 4.368 0 0 1-2.183-3.783v-8.265c0-1.56.832-3.002 2.183-3.782l7.155-4.132a4.368 4.368 0 0 1 4.369 0z"/><filter id="f" width="376%" height="384.2%" x="-138%" y="-100.8%" filterUnits="objectBoundingBox"><feOffset dy="11" in="SourceAlpha" result="shadowOffsetOuter1"/><feGaussianBlur in="shadowOffsetOuter1" result="shadowBlurOuter1" stdDeviation="11"/><feColorMatrix in="shadowBlurOuter1" values="0 0 0 0 0.149504573 0 0 0 0 0.170452736 0 0 0 0 1 0 0 0 0.241122159 0"/></filter><path id="i" d="M563.21 89.13l13.16 7.598a3.294 3.294 0 0 1 1.648 2.853v15.196a3.294 3.294 0 0 1-1.647 2.853l-13.16 7.598a3.294 3.294 0 0 1-3.295 0l-13.16-7.598a3.294 3.294 0 0 1-1.647-2.853V99.581c0-1.177.628-2.264 1.647-2.853l13.16-7.598a3.294 3.294 0 0 1 3.294 0z"/><filter id="h" width="170.8%" height="181.5%" x="-35.4%" y="-19.7%" filterUnits="objectBoundingBox"><feOffset dy="8" in="SourceAlpha" result="shadowOffsetOuter1"/><feGaussianBlur in="shadowOffsetOuter1" result="shadowBlurOuter1" stdDeviation="4"/><feColorMatrix in="shadowBlurOuter1" values="0 0 0 0 0 0 0 0 0 0.0246305419 0 0 0 0 1 0 0 0 0.155758304 0"/></filter><path id="k" d="M861.072 150.908l5.083 2.934a3.145 3.145 0 0 1 1.572 2.724v5.868c0 1.124-.6 2.162-1.572 2.724l-5.083 2.934a3.145 3.145 0 0 1-3.144 0l-5.083-2.934a3.145 3.145 0 0 1-1.572-2.724v-5.868c0-1.124.6-2.162 1.572-2.724l5.083-2.934a3.145 3.145 0 0 1 3.144 0z"/><filter id="j" width="381.3%" height="389.6%" x="-140.7%" y="-102.7%" filterUnits="objectBoundingBox"><feOffset dy="8" in="SourceAlpha" result="shadowOffsetOuter1"/><feGaussianBlur in="shadowOffsetOuter1" result="shadowBlurOuter1" stdDeviation="8"/><feColorMatrix in="shadowBlurOuter1" values="0 0 0 0 0.149504573 0 0 0 0 0.170452736 0 0 0 0 1 0 0 0 0.241122159 0"/></filter><circle id="m" cx="610.678" cy="26.892" r="19"/><filter id="l" width="378.9%" height="378.9%" x="-139.5%" y="-81.6%" filterUnits="objectBoundingBox"><feMorphology in="SourceAlpha" radius="4" result="shadowSpreadOuter1"/><feOffset dy="22" in="shadowSpreadOuter1" result="shadowOffsetOuter1"/><feGaussianBlur in="shadowOffsetOuter1" result="shadowBlurOuter1" stdDeviation="18"/><feComposite in="shadowBlurOuter1" in2="SourceAlpha" operator="out" result="shadowBlurOuter1"/><feColorMatrix in="shadowBlurOuter1" values="0 0 0 0 0 0 0 0 0 0 0 0 0 0 0 0 0 0 0.112092391 0"/></filter></defs><g fill="none" fill-rule="evenodd"><path stroke="url(#a)" stroke-dasharray="5.04" stroke-linecap="round" stroke-width="1.68" d="M895 27.775l-253.639-2.52-63.83 29.893-115.9-.5-53.457 20.55" transform="matrix(1 0 0 -1 -372.174 203.319)"/><path stroke="url(#b)" stroke-dasharray="5.04" stroke-linecap="round" stroke-width="1.68" d="M248.571 106.717h343.312l110.75 105.815 142.917.585" transform="matrix(1 0 0 -1 -163.121 203.319)"/><path stroke="url(#c)" stroke-dasharray="5.04" stroke-linecap="round" stroke-width="1.68" d="M0 146.188h52.7l36.618 31.072 303.922-.085 148.57-62.06h388.034" transform="matrix(1 0 0 -1 1.156 203.319)"/><g fill-rule="nonzero" opacity=".8" transform="translate(-400.014 -151.702)"><use fill="#000" filter="url(#d)" xlink:href="#e"/><use fill="#8983FF" xlink:href="#e"/></g><g fill-rule="nonzero" opacity=".8" transform="translate(-569.61 92.703)"><use fill="#000" filter="url(#f)" xlink:href="#g"/><use fill="#FFBB30" xlink:href="#g"/></g><g fill-rule="nonzero" opacity=".8" transform="translate(-192.127 -11.04)"><use fill="#000" filter="url(#h)" xlink:href="#i"/><use fill="#FF5B63" xlink:href="#i"/></g><g fill-rule="nonzero" opacity=".8" transform="matrix(-1 0 0 1 931 -115.681)"><use fill="#000" filter="url(#j)" xlink:href="#k"/><use fill="#AFCFF2" xlink:href="#k"/></g><g fill-rule="nonzero" transform="matrix(-1 0 0 1 931 149.536)"><use fill="#000" filter="url(#l)" xlink:href="#m"/><circle cx="610.678" cy="26.892" r="18.214" fill="#FFF" fill-rule="evenodd" stroke="#F1F4FF" stroke-linejoin="square" stroke-width="1.572"/></g></g></svg>