<?xml version="1.0" encoding="UTF-8"?>
<svg width="292px" height="16px" viewBox="0 0 292 16" version="1.1" xmlns="http://www.w3.org/2000/svg" xmlns:xlink="http://www.w3.org/1999/xlink">
    <!-- Generator: Sketch 56.3 (81716) - https://sketch.com -->
    <title>Browser</title>
    <desc>Created with Sketch.</desc>
    <defs>
        <linearGradient x1="50%" y1="0%" x2="50%" y2="100%" id="linearGradient-1">
            <stop stop-color="#FFFFFF" offset="0%"></stop>
            <stop stop-color="#FAFBFC" offset="100%"></stop>
        </linearGradient>
        <linearGradient x1="50%" y1="0%" x2="50%" y2="100%" id="linearGradient-2">
            <stop stop-color="#FFFFFF" offset="0%"></stop>
            <stop stop-color="#FAFBFC" offset="100%"></stop>
        </linearGradient>
    </defs>
    <g id="Page-1" stroke="none" stroke-width="1" fill="none" fill-rule="evenodd">
        <g id="demo">
            <g id="Browser">
                <g id="Mask">
                    <g id="Rectangle">
                        <g id="path-68-link" fill="#000000" fill-rule="nonzero">
                            <path d="M2.65454545,0 L289.345455,0 C290.81152,0 292,1.18848048 292,2.65454545 L292,15.9272727 L292,15.9272727 L0,15.9272727 L0,2.65454545 C0,1.18848048 1.18848048,0 2.65454545,0 Z" id="path-68"></path>
                        </g>
                        <g id="path-68-link" fill="url(#linearGradient-2)">
                            <path d="M2.65454545,0 L289.345455,0 C290.81152,0 292,1.18848048 292,2.65454545 L292,15.9272727 L292,15.9272727 L0,15.9272727 L0,2.65454545 C0,1.18848048 1.18848048,0 2.65454545,0 Z" id="path-68"></path>
                        </g>
                    </g>
                    <circle id="Oval" fill="#29CF42" fill-rule="nonzero" cx="21.2363636" cy="7.96363636" r="2.12363636"></circle>
                    <circle id="Oval" fill="#FFC02F" fill-rule="nonzero" cx="14.3345455" cy="7.96363636" r="2.12363636"></circle>
                    <circle id="Oval" fill="#FF554F" fill-rule="nonzero" cx="7.43272727" cy="7.96363636" r="2.12363636"></circle>
                </g>
            </g>
        </g>
    </g>
</svg>