<svg xmlns="http://www.w3.org/2000/svg" width="144" height="144" viewBox="0 0 48 48"><path fill="#f8bbd0" d="M24,4v20L14,6.681L24,4z"/><path fill="#ffccbc" d="M34,6.681L41.319,14L24,24L34,6.681z"/><path fill="#ffcdd2" d="M24,4l10,2.681L24,24V4z"/><path fill="#dcedc8" d="M24,44V24l10,17.319L24,44z"/><path fill="#b2ebf2" d="M14,41.319L6.681,34L24,24L14,41.319z"/><path fill="#c8e6c9" d="M24,44l-10-2.681L24,24V44z"/><path fill="#ffe0b2" d="M44,24H24l17.319-10L44,24z"/><path fill="#fff9c4" d="M41.319,34L34,41.319L24,24L41.319,34z"/><path fill="#ffecb3" d="M44,24l-2.681,10L24,24H44z"/><path fill="#c5cae9" d="M4,24h20L6.681,34L4,24z"/><path fill="#e1bee7" d="M6.681,14L14,6.681L24,24L6.681,14z"/><path fill="#d1c4e9" d="M4,24l2.681-10L24,24H4z"/><path fill="#f06292" d="M24 24L24 9 16.534 11.07z"/><path fill="#e57373" d="M31.47 11.063L24 9 24 24z"/><path fill="#aed581" d="M24 24L24 39 31.47 36.938z"/><path fill="#81c784" d="M16.534 36.93L24 39 24 24z"/><path fill="#ffb74d" d="M39.002 23.998L36.932 16.533 24.004 23.998z"/><path fill="#9575cd" d="M11.071 16.535L9.002 23.998 23.996 23.998z"/><path fill="#7986cb" d="M23.998 24L9.003 24 11.065 31.468z"/><path fill="#ffd54f" d="M39.002 24L24.006 24 36.94 31.468z"/><path fill="#ba68c8" d="M11.07 16.534L24 24 16.5 11.01z"/><path fill="#ff8a65" d="M31.498 11.015L24 24 36.928 16.513z"/><path fill="#fff176" d="M24.007 24.004L24.005 24.003 31.495 36.925 36.986 31.498z"/><path fill="#4fc3f7" d="M23.624 24.651L23.999 24.001 23.986 24.009 11.021 31.513 16.533 36.931z"/><path fill="#e91e63" d="M24 24.001L24 15.012 19.506 16.217z"/><path fill="#f44336" d="M24 15.012L24 24.001 28.494 16.217z"/><path fill="#8bc34a" d="M24 24.024L24 33.013 28.494 31.808z"/><path fill="#4caf50" d="M24 33.013L24 24.024 19.506 31.808z"/><path fill="#ff9800" d="M32.997 24.001L31.795 19.518 24.032 24.001z"/><path fill="#673ab7" d="M23.968 24.001L16.205 19.518 15.003 24.001z"/><path fill="#3f51b5" d="M15 24.013L16.204 28.503 23.98 24.013z"/><path fill="#ffc107" d="M31.796 28.503L33 24.013 24.02 24.013z"/><path fill="#9c27b0" d="M24 24.001L19.497 16.221 16.219 19.508z"/><path fill="#ff5722" d="M28.503 16.224L24.217 23.623 24 24.001 31.778 19.51z"/><path fill="#ffeb3b" d="M28.502 31.797L31.788 28.511 24.012 24.021z"/><path fill="#03a9f4" d="M16.212 28.512L19.498 31.797 23.988 24.021z"/></svg>