<svg xmlns="http://www.w3.org/2000/svg" viewBox="0 0 100 100"><path fill="#cee1F4" d="M87.215,56.71C88.35,54.555,89,52.105,89,49.5c0-6.621-4.159-12.257-10.001-14.478 C78.999,35.015,79,35.008,79,35c0-11.598-9.402-21-21-21c-9.784,0-17.981,6.701-20.313,15.757C36.211,29.272,34.638,29,33,29 c-7.692,0-14.023,5.793-14.89,13.252C12.906,43.353,9,47.969,9,53.5C9,59.851,14.149,65,20.5,65c0.177,0,0.352-0.012,0.526-0.022 C21.022,65.153,21,65.324,21,65.5C21,76.822,30.178,86,41.5,86c6.437,0,12.175-2.972,15.934-7.614C59.612,80.611,62.64,82,66,82 c4.65,0,8.674-2.65,10.666-6.518C77.718,75.817,78.837,76,80,76c6.075,0,11-4.925,11-11C91,61.689,89.53,58.727,87.215,56.71z"/><path fill="#fdfcef" d="M77.5,60.5V61h3v-0.5c0,0,4.242,0,5.5,0c2.485,0,4.5-2.015,4.5-4.5 c0-2.333-1.782-4.229-4.055-4.455C86.467,51.364,86.5,51.187,86.5,51c0-2.485-2.015-4.5-4.5-4.5c-1.438,0-2.703,0.686-3.527,1.736 C78.333,45.6,76.171,43.5,73.5,43.5c-2.761,0-5,2.239-5,5c0,0.446,0.077,0.87,0.187,1.282C68.045,49.005,67.086,48.5,66,48.5 c-1.781,0-3.234,1.335-3.455,3.055C62.364,51.533,62.187,51.5,62,51.5c-2.485,0-4.5,2.015-4.5,4.5s2.015,4.5,4.5,4.5s9.5,0,9.5,0 H77.5z"/><path fill="#472b29" d="M73.5,43c-3.033,0-5.5,2.467-5.5,5.5c0,0.016,0,0.031,0,0.047C67.398,48.192,66.71,48,66,48 c-1.831,0-3.411,1.261-3.858,3.005C62.095,51.002,62.048,51,62,51c-2.757,0-5,2.243-5,5s2.243,5,5,5h15.5 c0.276,0,0.5-0.224,0.5-0.5S77.776,60,77.5,60H62c-2.206,0-4-1.794-4-4s1.794-4,4-4c0.117,0,0.23,0.017,0.343,0.032l0.141,0.019 c0.021,0.003,0.041,0.004,0.062,0.004c0.246,0,0.462-0.185,0.495-0.437C63.232,50.125,64.504,49,66,49 c0.885,0,1.723,0.401,2.301,1.1c0.098,0.118,0.241,0.182,0.386,0.182c0.078,0,0.156-0.018,0.228-0.056 c0.209-0.107,0.314-0.346,0.254-0.573C69.054,49.218,69,48.852,69,48.5c0-2.481,2.019-4.5,4.5-4.5 c2.381,0,4.347,1.872,4.474,4.263c0.011,0.208,0.15,0.387,0.349,0.45c0.05,0.016,0.101,0.024,0.152,0.024 c0.15,0,0.296-0.069,0.392-0.192C79.638,47.563,80.779,47,82,47c2.206,0,4,1.794,4,4c0,0.117-0.017,0.23-0.032,0.343l-0.019,0.141 c-0.016,0.134,0.022,0.268,0.106,0.373c0.084,0.105,0.207,0.172,0.34,0.185C88.451,52.247,90,53.949,90,56c0,2.206-1.794,4-4,4 h-5.5c-0.276,0-0.5,0.224-0.5,0.5s0.224,0.5,0.5,0.5H86c2.757,0,5-2.243,5-5c0-2.397-1.689-4.413-4.003-4.877 C86.999,51.082,87,51.041,87,51c0-2.757-2.243-5-5-5c-1.176,0-2.293,0.416-3.183,1.164C78.219,44.76,76.055,43,73.5,43L73.5,43z"/><path fill="#472b29" d="M72 50c-1.403 0-2.609.999-2.913 2.341C68.72 52.119 68.301 52 67.875 52c-1.202 0-2.198.897-2.353 2.068C65.319 54.022 65.126 54 64.938 54c-1.529 0-2.811 1.2-2.918 2.732C62.01 56.87 62.114 56.99 62.251 57c.006 0 .012 0 .018 0 .13 0 .24-.101.249-.232.089-1.271 1.151-2.268 2.419-2.268.229 0 .47.042.738.127.022.007.045.01.067.01.055 0 .11-.02.156-.054C65.962 54.537 66 54.455 66 54.375c0-1.034.841-1.875 1.875-1.875.447 0 .885.168 1.231.473.047.041.106.063.165.063.032 0 .063-.006.093-.019.088-.035.148-.117.155-.212C69.623 51.512 70.712 50.5 72 50.5c.208 0 .425.034.682.107.023.007.047.01.07.01.109 0 .207-.073.239-.182.038-.133-.039-.271-.172-.309C72.517 50.04 72.256 50 72 50L72 50zM85.883 51.5c-1.326 0-2.508.897-2.874 2.182-.038.133.039.271.172.309C83.205 53.997 83.228 54 83.25 54c.109 0 .209-.072.24-.182C83.795 52.748 84.779 52 85.883 52c.117 0 .23.014.342.029.012.002.023.003.035.003.121 0 .229-.092.246-.217.019-.137-.077-.263-.214-.281C86.158 51.516 86.022 51.5 85.883 51.5L85.883 51.5z"/><path fill="#fde751" d="M52.479,45.805h5.753v9.613l-9.788,16.954l1.333,0.77c0.732,0.07,1.473,0.108,2.223,0.108 c12.841,0,23.25-10.409,23.25-23.25c0-4.74-1.422-9.147-3.858-12.823H52.479V45.805z"/><path fill="#472b29" d="M52,73.75c-0.731,0-1.496-0.037-2.271-0.11l-0.203-0.065l-1.766-1.02l9.971-17.271v-8.979h-5.752 v-9.629h19.681l0.148,0.224c2.578,3.891,3.941,8.42,3.941,13.1C75.75,63.096,65.096,73.75,52,73.75z M49.932,72.654 c0.707,0.063,1.401,0.096,2.068,0.096c12.544,0,22.75-10.206,22.75-22.75c0-4.393-1.254-8.647-3.628-12.323H52.979v7.629h5.752 v10.246l-9.605,16.638L49.932,72.654z"/><path fill="#ea5167" d="M52,26.75c-12.841,0-23.25,10.409-23.25,23.25c0,1.857,0.224,3.662,0.636,5.393h22.135V41.97 h22.305C70.556,33.087,62.018,26.75,52,26.75z"/><path fill="#472b29" d="M52.021,55.893h-23.03l-0.091-0.385C28.468,53.696,28.25,51.843,28.25,50 c0-13.096,10.654-23.75,23.75-23.75c9.913,0,18.872,6.248,22.294,15.548l0.248,0.673H52.021V55.893z M29.784,54.893h21.236 V41.471h22.076C69.641,32.936,61.254,27.25,52,27.25c-12.544,0-22.75,10.206-22.75,22.75 C29.25,51.635,29.43,53.279,29.784,54.893z"/><path fill="#67ba8c" d="M55.504,72.987c0.008-0.001,0.016-0.002,0.024-0.003C55.52,72.985,55.512,72.985,55.504,72.987z"/><path fill="#472b29" d="M55.643 73.47L55.383 72.502 55.455 72.489z"/><path fill="#67ba8c" d="M49.777,73.142l-1.333-0.77l9.788-16.954v-1.943H44.617l-10.55-18.274 C30.746,39.222,28.75,44.378,28.75,50c0,12.465,9.809,22.636,22.129,23.222C50.509,73.203,50.142,73.176,49.777,73.142z"/><path fill="#472b29" d="M50.855,73.721C50.854,73.721,50.854,73.721,50.855,73.721L50.855,73.721 c-0.001,0-0.002,0-0.003,0C38.178,73.118,28.25,62.699,28.25,50c0-5.509,1.929-10.878,5.432-15.116l0.458-0.555l10.766,18.646 h13.826v2.576l-9.605,16.638l0.805,0.464c0.322,0.029,0.646,0.053,0.972,0.069L50.855,73.721z M34,36.086 c-3.068,3.967-4.75,8.879-4.75,13.914c0,11.13,7.961,20.432,18.615,22.375l9.867-17.091v-1.309H44.329L34,36.086z"/><path fill="#67ba8c" d="M53.586,73.19c0.131-0.009,0.262-0.019,0.392-0.03C53.847,73.171,53.717,73.181,53.586,73.19z"/><path fill="#472b29" d="M53.619 73.689L53.552 72.691 53.937 72.662 54.019 73.658z"/><path fill="#67ba8c" d="M57.052,72.693c0.119-0.026,0.236-0.054,0.354-0.082C57.289,72.639,57.17,72.667,57.052,72.693z"/><path fill="#472b29" d="M57.16 73.182L56.943 72.205 57.289 72.125 57.523 73.098z"/><path fill="#67ba8c" d="M60.643,71.583c-0.101,0.04-0.202,0.081-0.304,0.12C60.44,71.664,60.542,71.624,60.643,71.583z"/><path fill="#472b29" d="M60.517 72.17L60.16 71.236 60.455 71.12 60.831 72.046z"/><path fill="#67ba8c" d="M63.658,70.113c-0.087,0.05-0.174,0.101-0.261,0.15C63.485,70.213,63.572,70.163,63.658,70.113z"/><path fill="#472b29" d="M63.645 70.697L63.15 69.828 63.406 69.681 63.912 70.543 63.911 70.544z"/><path fill="#67ba8c" d="M62.034,70.978c-0.001,0-0.002,0.001-0.003,0.001C62.033,70.979,62.033,70.978,62.034,70.978z"/><path fill="#472b29" d="M62.033 70.479A0.5 0.5 0 1 0 62.033 71.479A0.5 0.5 0 1 0 62.033 70.479Z"/><g><path fill="#67ba8c" d="M58.883,72.214c-0.003,0.001-0.006,0.002-0.008,0.003C58.877,72.215,58.88,72.214,58.883,72.214z"/><path fill="#472b29" d="M58.964 72.707L58.716 71.741 59.068 72.678z"/></g><g><path fill="#67ba8c" d="M64.939 69.318L64.943 69.315 64.943 69.315z"/><path fill="#472b29" d="M65.099 69.791L64.944 69.325 64.662 68.901 64.783 68.842 64.938 69.308 65.221 69.731z"/></g><g><path fill="#48bed8" d="M52 41.851A8.149 8.149 0 1 0 52 58.149A8.149 8.149 0 1 0 52 41.851Z"/><path fill="#472b29" d="M52,58.649c-4.77,0-8.649-3.88-8.649-8.649s3.88-8.649,8.649-8.649s8.649,3.88,8.649,8.649 S56.77,58.649,52,58.649z M52,42.351c-4.218,0-7.649,3.432-7.649,7.649s3.432,7.649,7.649,7.649s7.649-3.432,7.649-7.649 S56.218,42.351,52,42.351z"/></g><g><path fill="#472b29" d="M52,73.95c-13.206,0-23.95-10.744-23.95-23.95S38.794,26.05,52,26.05S75.95,36.794,75.95,50 S65.206,73.95,52,73.95z M52,27.45c-12.434,0-22.55,10.115-22.55,22.55S39.566,72.55,52,72.55S74.55,62.435,74.55,50 S64.434,27.45,52,27.45z"/></g><g><path fill="#472b29" d="M66.569,37.69c-0.137,0-0.273-0.056-0.372-0.166c-0.192-0.214-0.389-0.423-0.59-0.628 c-0.78-0.793-1.638-1.521-2.551-2.164c-0.226-0.159-0.28-0.472-0.121-0.697c0.159-0.225,0.47-0.279,0.697-0.121 c0.962,0.678,1.866,1.445,2.688,2.281c0.212,0.215,0.419,0.436,0.621,0.661c0.185,0.205,0.167,0.521-0.038,0.706 C66.808,37.648,66.688,37.69,66.569,37.69z"/></g><g><path fill="#472b29" d="M51.985,70.044c-7.563,0-14.806-4.295-18.173-11.581c-2.238-4.844-2.449-10.271-0.596-15.284 c1.853-5.012,5.549-9.008,10.407-11.252c5.204-2.404,11.2-2.47,16.45-0.175c0.397,0.173,0.789,0.359,1.174,0.559 c0.245,0.127,0.341,0.429,0.214,0.674c-0.126,0.245-0.428,0.343-0.674,0.215c-0.366-0.189-0.737-0.366-1.114-0.531 c-4.988-2.178-10.685-2.118-15.63,0.167c-4.616,2.132-8.127,5.929-9.888,10.69c-1.76,4.762-1.559,9.917,0.566,14.518 c4.388,9.498,15.71,13.644,25.238,9.242c4.616-2.132,8.127-5.929,9.888-10.69c1.76-4.762,1.559-9.917-0.566-14.518 c-0.399-0.865-0.866-1.704-1.387-2.495c-0.152-0.231-0.088-0.541,0.143-0.693c0.231-0.151,0.541-0.087,0.692,0.143 c0.548,0.833,1.04,1.717,1.46,2.626c2.238,4.844,2.449,10.271,0.596,15.284c-1.853,5.012-5.549,9.008-10.407,11.252 C57.658,69.449,54.799,70.044,51.985,70.044z"/></g><g><path fill="#fff" d="M15.5 51h-10C5.224 51 5 50.776 5 50.5S5.224 50 5.5 50h10c.276 0 .5.224.5.5S15.777 51 15.5 51zM18.5 51h-1c-.276 0-.5-.224-.5-.5s.224-.5.5-.5h1c.276 0 .5.224.5.5S18.777 51 18.5 51zM23.491 53H14.5c-.276 0-.5-.224-.5-.5s.224-.5.5-.5h8.991c.276 0 .5.224.5.5S23.767 53 23.491 53zM12.5 53h-1c-.276 0-.5-.224-.5-.5s.224-.5.5-.5h1c.276 0 .5.224.5.5S12.777 53 12.5 53zM9.5 53h-2C7.224 53 7 52.776 7 52.5S7.224 52 7.5 52h2c.276 0 .5.224.5.5S9.777 53 9.5 53zM15.5 55h-2c-.276 0-.5-.224-.5-.5s.224-.5.5-.5h2c.276 0 .5.224.5.5S15.776 55 15.5 55zM18.5 46c-.177 0-.823 0-1 0-.276 0-.5.224-.5.5 0 .276.224.5.5.5.177 0 .823 0 1 0 .276 0 .5-.224.5-.5C19 46.224 18.776 46 18.5 46zM18.5 48c-.177 0-4.823 0-5 0-.276 0-.5.224-.5.5 0 .276.224.5.5.5.177 0 4.823 0 5 0 .276 0 .5-.224.5-.5C19 48.224 18.776 48 18.5 48zM23.5 50c-.177 0-2.823 0-3 0-.276 0-.5.224-.5.5 0 .276.224.5.5.5.177 0 2.823 0 3 0 .276 0 .5-.224.5-.5C24 50.224 23.776 50 23.5 50z"/></g><g><path fill="#fff" d="M72.5 24h-10c-.276 0-.5-.224-.5-.5s.224-.5.5-.5h10c.276 0 .5.224.5.5S72.776 24 72.5 24zM76.5 24h-2c-.276 0-.5-.224-.5-.5s.224-.5.5-.5h2c.276 0 .5.224.5.5S76.776 24 76.5 24zM81.5 26h-10c-.276 0-.5-.224-.5-.5s.224-.5.5-.5h10c.276 0 .5.224.5.5S81.777 26 81.5 26zM69.5 26h-1c-.276 0-.5-.224-.5-.5s.224-.5.5-.5h1c.276 0 .5.224.5.5S69.776 26 69.5 26zM66.47 26H64.5c-.276 0-.5-.224-.5-.5s.224-.5.5-.5h1.97c.276 0 .5.224.5.5S66.746 26 66.47 26zM75.5 22h-5c-.276 0-.5-.224-.5-.5s.224-.5.5-.5h5c.276 0 .5.224.5.5S75.777 22 75.5 22zM72.5 28h-2c-.276 0-.5-.224-.5-.5s.224-.5.5-.5h2c.276 0 .5.224.5.5S72.776 28 72.5 28z"/></g><g><path fill="#fdfcef" d="M36.5,73.5c0,0,1.567,0,3.5,0s3.5-1.567,3.5-3.5c0-1.781-1.335-3.234-3.055-3.455 C40.473,66.366,40.5,66.187,40.5,66c0-1.933-1.567-3.5-3.5-3.5c-1.032,0-1.95,0.455-2.59,1.165 c-0.384-1.808-1.987-3.165-3.91-3.165c-2.209,0-4,1.791-4,4c0,0.191,0.03,0.374,0.056,0.558C26.128,64.714,25.592,64.5,25,64.5 c-1.228,0-2.245,0.887-2.455,2.055C22.366,66.527,22.187,66.5,22,66.5c-1.933,0-3.5,1.567-3.5,3.5s1.567,3.5,3.5,3.5s7.5,0,7.5,0 V74h7V73.5z"/><path fill="#472b29" d="M38.25 69C38.112 69 38 68.888 38 68.75c0-1.223.995-2.218 2.218-2.218.034.009.737-.001 1.244.136.133.036.212.173.176.306-.036.134-.173.213-.306.176-.444-.12-1.1-.12-1.113-.118-.948 0-1.719.771-1.719 1.718C38.5 68.888 38.388 69 38.25 69zM31.5 73A.5.5 0 1 0 31.5 74 .5.5 0 1 0 31.5 73z"/><path fill="#472b29" d="M40,74h-3.5c-0.276,0-0.5-0.224-0.5-0.5s0.224-0.5,0.5-0.5H40c1.654,0,3-1.346,3-3 c0-1.496-1.125-2.768-2.618-2.959c-0.134-0.018-0.255-0.088-0.336-0.196s-0.115-0.244-0.094-0.377C39.975,66.314,40,66.16,40,66 c0-1.654-1.346-3-3-3c-0.85,0-1.638,0.355-2.219,1c-0.125,0.139-0.321,0.198-0.5,0.148c-0.182-0.049-0.321-0.195-0.36-0.379 C33.58,62.165,32.141,61,30.5,61c-1.93,0-3.5,1.57-3.5,3.5c0,0.143,0.021,0.28,0.041,0.418c0.029,0.203-0.063,0.438-0.242,0.54 c-0.179,0.102-0.396,0.118-0.556-0.01C25.878,65.155,25.449,65,25,65c-0.966,0-1.792,0.691-1.963,1.644 c-0.048,0.267-0.296,0.446-0.569,0.405C22.314,67.025,22.16,67,22,67c-1.654,0-3,1.346-3,3s1.346,3,3,3h7.5 c0.276,0,0.5,0.224,0.5,0.5S29.776,74,29.5,74H22c-2.206,0-4-1.794-4-4s1.794-4,4-4c0.059,0,0.116,0.002,0.174,0.006 C22.588,64.82,23.711,64,25,64c0.349,0,0.689,0.061,1.011,0.18C26.176,61.847,28.126,60,30.5,60c1.831,0,3.466,1.127,4.153,2.774 C35.333,62.276,36.155,62,37,62c2.206,0,4,1.794,4,4c0,0.048-0.001,0.095-0.004,0.142C42.739,66.59,44,68.169,44,70 C44,72.206,42.206,74,40,74z"/><path fill="#472b29" d="M34.5,73c-0.159,0-0.841,0-1,0c-0.276,0-0.5,0.224-0.5,0.5c0,0.276,0.224,0.5,0.5,0.5 c0.159,0,0.841,0,1,0c0.276,0,0.5-0.224,0.5-0.5C35,73.224,34.776,73,34.5,73z"/></g></svg>