<svg xmlns="http://www.w3.org/2000/svg" viewBox="0 0 100 100" width="100" height="100"><path fill="#c7ede6" d="M87.215,56.71C88.35,54.555,89,52.105,89,49.5c0-6.621-4.159-12.257-10.001-14.478 C78.999,35.015,79,35.008,79,35c0-11.598-9.402-21-21-21c-9.784,0-17.981,6.701-20.313,15.757C36.211,29.272,34.638,29,33,29 c-7.692,0-14.023,5.793-14.89,13.252C12.906,43.353,9,47.969,9,53.5C9,59.851,14.149,65,20.5,65c0.177,0,0.352-0.012,0.526-0.022 C21.022,65.153,21,65.324,21,65.5C21,76.822,30.178,86,41.5,86c6.437,0,12.175-2.972,15.934-7.614C59.612,80.611,62.64,82,66,82 c4.65,0,8.674-2.65,10.666-6.518C77.718,75.817,78.837,76,80,76c6.075,0,11-4.925,11-11C91,61.689,89.53,58.727,87.215,56.71z"/><path fill="#fff" d="M19.405,59H9.5C9.224,59,9,58.776,9,58.5S9.224,58,9.5,58h9.905c0.276,0,0.5,0.224,0.5,0.5 S19.682,59,19.405,59z"/><path fill="#fff" d="M22.5,59h-1c-0.276,0-0.5-0.224-0.5-0.5s0.224-0.5,0.5-0.5h1c0.276,0,0.5,0.224,0.5,0.5 S22.777,59,22.5,59z"/><path fill="#fff" d="M27.491,61H18.5c-0.276,0-0.5-0.224-0.5-0.5s0.224-0.5,0.5-0.5h8.991c0.276,0,0.5,0.224,0.5,0.5 S27.767,61,27.491,61z"/><path fill="#fff" d="M16.5,61h-1c-0.276,0-0.5-0.224-0.5-0.5s0.224-0.5,0.5-0.5h1c0.276,0,0.5,0.224,0.5,0.5 S16.777,61,16.5,61z"/><path fill="#fff" d="M13.5,61h-2c-0.276,0-0.5-0.224-0.5-0.5s0.224-0.5,0.5-0.5h2c0.276,0,0.5,0.224,0.5,0.5 S13.777,61,13.5,61z"/><path fill="#fff" d="M19.5,63h-2c-0.276,0-0.5-0.224-0.5-0.5s0.224-0.5,0.5-0.5h2c0.276,0,0.5,0.224,0.5,0.5 S19.776,63,19.5,63z"/><path fill="#fff" d="M22.5,54c-0.177,0-0.823,0-1,0c-0.276,0-0.5,0.224-0.5,0.5c0,0.276,0.224,0.5,0.5,0.5 c0.177,0,0.823,0,1,0c0.276,0,0.5-0.224,0.5-0.5C23,54.224,22.776,54,22.5,54z"/><path fill="#fff" d="M22.5,56c-0.177,0-4.823,0-5,0c-0.276,0-0.5,0.224-0.5,0.5c0,0.276,0.224,0.5,0.5,0.5 c0.177,0,4.823,0,5,0c0.276,0,0.5-0.224,0.5-0.5C23,56.224,22.776,56,22.5,56z"/><path fill="#fff" d="M27.5,58c-0.177,0-2.823,0-3,0c-0.276,0-0.5,0.224-0.5,0.5c0,0.276,0.224,0.5,0.5,0.5 c0.177,0,2.823,0,3,0c0.276,0,0.5-0.224,0.5-0.5C28,58.224,27.776,58,27.5,58z"/><g><path fill="#fff" d="M74.5,24h-10c-0.276,0-0.5-0.224-0.5-0.5s0.224-0.5,0.5-0.5h10c0.276,0,0.5,0.224,0.5,0.5 S74.776,24,74.5,24z"/><path fill="#fff" d="M78.5,24h-2c-0.276,0-0.5-0.224-0.5-0.5s0.224-0.5,0.5-0.5h2c0.276,0,0.5,0.224,0.5,0.5 S78.776,24,78.5,24z"/><path fill="#fff" d="M83.5,26h-10c-0.276,0-0.5-0.224-0.5-0.5s0.224-0.5,0.5-0.5h10c0.276,0,0.5,0.224,0.5,0.5 S83.777,26,83.5,26z"/><path fill="#fff" d="M71.5,26h-1c-0.276,0-0.5-0.224-0.5-0.5s0.224-0.5,0.5-0.5h1c0.276,0,0.5,0.224,0.5,0.5 S71.776,26,71.5,26z"/><path fill="#fff" d="M68.47,26H66.5c-0.276,0-0.5-0.224-0.5-0.5s0.224-0.5,0.5-0.5h1.97c0.276,0,0.5,0.224,0.5,0.5 S68.746,26,68.47,26z"/><path fill="#fff" d="M77.5,22h-5c-0.276,0-0.5-0.224-0.5-0.5s0.224-0.5,0.5-0.5h5c0.276,0,0.5,0.224,0.5,0.5 S77.777,22,77.5,22z"/><path fill="#fff" d="M74.5,28h-2c-0.276,0-0.5-0.224-0.5-0.5s0.224-0.5,0.5-0.5h2c0.276,0,0.5,0.224,0.5,0.5 S74.776,28,74.5,28z"/></g><g><path fill="#fdfcef" d="M31.75,43.5c0,0,3.64,0,6.125,0s4.5-2.015,4.5-4.5c0-2.333-1.782-4.229-4.055-4.455 c0.022-0.181,0.055-0.358,0.055-0.545c0-2.485-2.015-4.5-4.5-4.5c-1.438,0-2.703,0.686-3.527,1.736 c-0.14-2.636-2.302-4.736-4.973-4.736c-2.761,0-5,2.239-5,5c0,0.446,0.077,0.87,0.187,1.282c-0.642-0.777-1.6-1.282-2.687-1.282 c-1.781,0-3.234,1.335-3.455,3.055c-0.181-0.022-0.358-0.055-0.545-0.055c-2.485,0-4.5,2.015-4.5,4.5s2.015,4.5,4.5,4.5 s9.5,0,9.5,0h5.375V44h3V43.5z"/><path fill="#472b29" d="M25.375,26c-3.033,0-5.5,2.467-5.5,5.5c0,0.016,0,0.031,0,0.047c-0.602-0.354-1.29-0.547-2-0.547 c-1.831,0-3.411,1.261-3.858,3.005C13.97,34.002,13.923,34,13.875,34c-2.757,0-5,2.243-5,5s2.243,5,5,5H28.75 c0.276,0,0.5-0.224,0.5-0.5s-0.224-0.5-0.5-0.5H13.875c-2.206,0-4-1.794-4-4s1.794-4,4-4c0.117,0,0.23,0.017,0.343,0.032 l0.141,0.019c0.021,0.003,0.041,0.004,0.062,0.004c0.246,0,0.462-0.185,0.495-0.437C15.107,33.125,16.379,32,17.875,32 c0.885,0,1.723,0.401,2.301,1.1c0.098,0.118,0.241,0.182,0.386,0.182c0.078,0,0.156-0.018,0.228-0.056 c0.209-0.107,0.314-0.346,0.254-0.573c-0.116-0.436-0.17-0.802-0.17-1.153c0-2.481,2.019-4.5,4.5-4.5 c2.381,0,4.347,1.872,4.474,4.263c0.011,0.208,0.15,0.387,0.349,0.45c0.05,0.016,0.101,0.024,0.152,0.024 c0.15,0,0.296-0.069,0.392-0.192C31.513,30.563,32.654,30,33.875,30c2.206,0,4,1.794,4,4c0,0.117-0.017,0.23-0.032,0.343 l-0.019,0.141c-0.016,0.134,0.022,0.268,0.106,0.373c0.084,0.105,0.207,0.172,0.34,0.185c2.055,0.205,3.604,1.906,3.604,3.958 c0,2.206-1.794,4-4,4H31.75c-0.276,0-0.5,0.224-0.5,0.5s0.224,0.5,0.5,0.5h6.125c2.757,0,5-2.243,5-5 c0-2.397-1.689-4.413-4.003-4.877c0.002-0.041,0.003-0.082,0.003-0.123c0-2.757-2.243-5-5-5c-1.176,0-2.293,0.416-3.183,1.164 C30.094,27.76,27.93,26,25.375,26L25.375,26z"/><path fill="#472b29" d="M23.875,33c-1.403,0-2.609,0.999-2.913,2.341C20.595,35.119,20.176,35,19.75,35 c-1.202,0-2.198,0.897-2.353,2.068C17.194,37.022,17.001,37,16.812,37c-1.529,0-2.811,1.2-2.918,2.732 C13.885,39.87,13.989,39.99,14.126,40c0.006,0,0.012,0,0.018,0c0.13,0,0.24-0.101,0.249-0.232 c0.089-1.271,1.151-2.268,2.419-2.268c0.229,0,0.47,0.042,0.738,0.127c0.022,0.007,0.045,0.01,0.067,0.01 c0.055,0,0.11-0.02,0.156-0.054c0.064-0.047,0.102-0.129,0.102-0.209c0-1.034,0.841-1.875,1.875-1.875 c0.447,0,0.885,0.168,1.231,0.473c0.047,0.041,0.106,0.063,0.165,0.063c0.032,0,0.063-0.006,0.093-0.019 c0.088-0.035,0.148-0.117,0.155-0.212c0.102-1.292,1.191-2.305,2.479-2.305c0.208,0,0.425,0.034,0.682,0.107 c0.023,0.007,0.047,0.01,0.07,0.01c0.109,0,0.207-0.073,0.239-0.182c0.038-0.133-0.039-0.271-0.172-0.309 C24.392,33.04,24.131,33,23.875,33L23.875,33z"/></g><g><path fill="#a1a1ca" d="M71.5,73.3c-7.778,0-10.689,0-13.286-2.793c-0.136-0.146-0.323-0.223-0.513-0.223 c-0.118,0-0.236,0.03-0.345,0.091C53.969,72.288,50.36,73.3,46.923,73.3C35.716,73.3,30.7,62.34,30.7,51.479 C30.7,40.638,35.74,29.7,47,29.7c3.153,0,6.327,0.804,9.434,2.388c0.1,0.051,0.209,0.076,0.318,0.076 c0.086,0,0.173-0.016,0.255-0.048c0.186-0.073,0.332-0.221,0.401-0.409c0.678-1.827,3.069-3.008,6.092-3.008 c2.743,0,5.8,1.705,5.8,4.152v33.482c0,2.439,0.699,3.575,2.2,3.575c0.992,0,1.8,0.761,1.8,1.696 C73.3,72.539,72.492,73.3,71.5,73.3z M50.5,35.3c-4.037,0-7.2,7.116-7.2,16.2s3.163,16.2,7.2,16.2s7.2-7.116,7.2-16.2 S54.537,35.3,50.5,35.3z"/><path fill="#472b29" d="M63.5,29.4c2.407,0,5.1,1.476,5.1,3.452V51v0.958v14.375c0,2.837,0.976,4.275,2.9,4.275 c0.607,0,1.1,0.447,1.1,0.996c0,0.549-0.493,0.996-1.1,0.996c-8.06,0-10.486-0.109-12.774-2.57 c-0.272-0.293-0.646-0.447-1.026-0.447c-0.235,0-0.472,0.059-0.688,0.181C53.729,71.62,50.24,72.6,46.923,72.6 C36.2,72.6,31.4,61.992,31.4,51.479C31.4,40.987,36.224,30.4,47,30.4c3.041,0,6.108,0.778,9.115,2.312 c0.199,0.102,0.417,0.153,0.636,0.153c0.172,0,0.345-0.032,0.509-0.096c0.372-0.145,0.665-0.442,0.804-0.817 C58.639,30.402,60.773,29.4,63.5,29.4 M50.5,68.4c4.504,0,7.9-7.265,7.9-16.9s-3.396-16.9-7.9-16.9s-7.9,7.265-7.9,16.9 S45.996,68.4,50.5,68.4 M63.5,28c-3.328,0-5.956,1.33-6.748,3.465C53.619,29.867,50.305,29,47,29c-10.769,0-17,10.042-17,22.479 C30,63.917,36.154,74,46.923,74c3.642,0,7.388-1.102,10.778-3.017C60.499,73.993,63.659,74,71.5,74c1.381,0,2.5-1.072,2.5-2.396 c0-1.323-1.119-2.396-2.5-2.396c-0.5,0-1.5,0-1.5-2.875V51.958V51V32.852C70,29.917,66.5,28,63.5,28L63.5,28z M50.5,67 c-3.59,0-6.5-6.939-6.5-15.5S46.91,36,50.5,36S57,42.939,57,51.5S54.09,67,50.5,67L50.5,67z"/><path fill="#472b29" d="M43.554,66.75c-0.09,0-0.178-0.049-0.222-0.135C40.941,62,39.875,57.339,39.875,51.5 c0-0.138,0.112-0.25,0.25-0.25s0.25,0.112,0.25,0.25c0,5.754,1.049,10.345,3.4,14.885c0.063,0.123,0.016,0.273-0.106,0.337 C43.632,66.741,43.593,66.75,43.554,66.75z"/><path fill="#472b29" d="M40.206,49.5c-0.006,0-0.012,0-0.018-0.001c-0.138-0.01-0.241-0.129-0.231-0.267 c0.197-2.813,0.737-5.644,1.563-8.185c0.042-0.131,0.186-0.203,0.314-0.161c0.132,0.043,0.203,0.184,0.16,0.315 c-0.813,2.503-1.345,5.292-1.54,8.065C40.446,49.399,40.336,49.5,40.206,49.5z"/><path fill="#472b29" d="M42.5,39.365c-0.032,0-0.065-0.006-0.097-0.02c-0.127-0.053-0.188-0.2-0.134-0.327 c0.603-1.442,1.286-2.676,2.03-3.669c0.082-0.111,0.242-0.132,0.351-0.05c0.11,0.083,0.133,0.24,0.05,0.35 c-0.72,0.96-1.383,2.158-1.97,3.562C42.69,39.308,42.598,39.365,42.5,39.365z"/><path fill="#472b29" d="M67.5,70.625c-0.069,0-0.139-0.029-0.188-0.085c-0.908-1.038-1.062-2.201-1.062-4.415v-2 c0-0.138,0.112-0.25,0.25-0.25s0.25,0.112,0.25,0.25v2c0,2.125,0.13,3.162,0.938,4.085c0.091,0.104,0.08,0.262-0.023,0.353 C67.617,70.605,67.559,70.625,67.5,70.625z"/><path fill="#472b29" d="M66.5,62.125c-0.138,0-0.25-0.112-0.25-0.25v-9.5c0-0.138,0.112-0.25,0.25-0.25 s0.25,0.112,0.25,0.25v9.5C66.75,62.013,66.638,62.125,66.5,62.125z"/><g><path fill="#472b29" d="M66.5,49.25c-0.138,0-0.25-0.112-0.25-0.25V33.5c0-0.138,0.112-0.25,0.25-0.25 s0.25,0.112,0.25,0.25V49C66.75,49.138,66.638,49.25,66.5,49.25z"/></g></g><g><path fill="#fdfcef" d="M80.5,64.5c0,0,1.567,0,3.5,0s3.5-1.567,3.5-3.5c0-1.781-1.335-3.234-3.055-3.455 C84.473,57.366,84.5,57.187,84.5,57c0-1.933-1.567-3.5-3.5-3.5c-1.032,0-1.95,0.455-2.59,1.165 c-0.384-1.808-1.987-3.165-3.91-3.165c-2.209,0-4,1.791-4,4c0,0.191,0.03,0.374,0.056,0.558C70.128,55.714,69.592,55.5,69,55.5 c-1.228,0-2.245,0.887-2.455,2.055C66.366,57.527,66.187,57.5,66,57.5c-1.933,0-3.5,1.567-3.5,3.5s1.567,3.5,3.5,3.5s7.5,0,7.5,0 V65h7V64.5z"/><path fill="#472b29" d="M82.25,60C82.112,60,82,59.888,82,59.75c0-1.223,0.995-2.218,2.218-2.218 c0.034,0.009,0.737-0.001,1.244,0.136c0.133,0.036,0.212,0.173,0.176,0.306c-0.036,0.134-0.173,0.213-0.306,0.176 c-0.444-0.12-1.1-0.12-1.113-0.118c-0.948,0-1.719,0.771-1.719,1.718C82.5,59.888,82.388,60,82.25,60z"/><circle cx="75.5" cy="64.5" r=".5" fill="#472b29"/><path fill="#472b29" d="M84,65h-3.5c-0.276,0-0.5-0.224-0.5-0.5s0.224-0.5,0.5-0.5H84c1.654,0,3-1.346,3-3 c0-1.496-1.125-2.768-2.618-2.959c-0.134-0.018-0.255-0.088-0.336-0.196s-0.115-0.244-0.094-0.377C83.975,57.314,84,57.16,84,57 c0-1.654-1.346-3-3-3c-0.85,0-1.638,0.355-2.219,1c-0.125,0.139-0.321,0.198-0.5,0.148c-0.182-0.049-0.321-0.195-0.36-0.379 C77.58,53.165,76.141,52,74.5,52c-1.93,0-3.5,1.57-3.5,3.5c0,0.143,0.021,0.28,0.041,0.418c0.029,0.203-0.063,0.438-0.242,0.54 c-0.179,0.102-0.396,0.118-0.556-0.01C69.878,56.155,69.449,56,69,56c-0.966,0-1.792,0.691-1.963,1.644 c-0.048,0.267-0.296,0.446-0.569,0.405C66.314,58.025,66.16,58,66,58c-1.654,0-3,1.346-3,3s1.346,3,3,3h7.5 c0.276,0,0.5,0.224,0.5,0.5S73.776,65,73.5,65H66c-2.206,0-4-1.794-4-4s1.794-4,4-4c0.059,0,0.116,0.002,0.174,0.006 C66.588,55.82,67.711,55,69,55c0.349,0,0.689,0.061,1.011,0.18C70.176,52.847,72.126,51,74.5,51c1.831,0,3.466,1.127,4.153,2.774 C79.333,53.276,80.155,53,81,53c2.206,0,4,1.794,4,4c0,0.048-0.001,0.095-0.004,0.142C86.739,57.59,88,59.169,88,61 C88,63.206,86.206,65,84,65z"/><path fill="#472b29" d="M78.5,64c-0.159,0-0.841,0-1,0c-0.276,0-0.5,0.224-0.5,0.5c0,0.276,0.224,0.5,0.5,0.5 c0.159,0,0.841,0,1,0c0.276,0,0.5-0.224,0.5-0.5C79,64.224,78.776,64,78.5,64z"/></g></svg>