<svg xmlns="http://www.w3.org/2000/svg" width="128" height="128" viewBox="0 0 64 64"><radialGradient id="a" cx="24.872" cy="35.255" r="27.717" gradientTransform="matrix(1 0 0 -1 0 66)" gradientUnits="userSpaceOnUse"><stop offset="0" stop-color="#afeeff"/><stop offset=".193" stop-color="#bbf1ff"/><stop offset=".703" stop-color="#d7f8ff"/><stop offset="1" stop-color="#e1faff"/></radialGradient><path fill="url(#a)" d="M59.5,23h-9.393c-0.996,0-1.92-0.681-2.08-1.664C47.824,20.083,48.785,19,50,19h8.5	c2.631,0,4.735-2.258,4.479-4.942C62.756,11.718,60.657,10,58.306,10H53.5C52.672,10,52,9.328,52,8.5S52.672,7,53.5,7h2.33	c1.625,0,3.081-1.216,3.166-2.839C59.086,2.431,57.71,1,56,1H9.17C7.545,1,6.089,2.216,6.004,3.839C5.914,5.569,7.29,7,9,7h2.893	c0.996,0,1.92,0.681,2.08,1.664C14.176,9.917,13.215,11,12,11H5.698c-1.895,0-3.594,1.419-3.693,3.312C1.899,16.33,3.505,18,5.5,18	h11c0.828,0,1.5,0.672,1.5,1.5S17.328,21,16.5,21H6.172c-2.089,0-3.955,1.527-4.153,3.607C1.791,26.993,3.661,29,6,29h14.5	c0.828,0,1.5,0.672,1.5,1.5S21.328,33,20.5,33H9.17c-1.625,0-3.081,1.216-3.166,2.839C5.914,37.569,7.29,39,9,39h5	c1.105,0,2,0.896,2,2s-0.895,2-2,2H6.643c-1.308,0-2.499,0.941-2.63,2.242C3.863,46.739,5.034,48,6.5,48h31H39h19.5	c1.381,0,2.5-1.119,2.5-2.5S59.881,43,58.5,43H48h-3.5c-0.828,0-1.5-0.672-1.5-1.5s0.672-1.5,1.5-1.5h10c1.933,0,3.5-1.567,3.5-3.5	V36c0-1.657-1.343-3-3-3H44.643c-1.308,0-2.499-0.941-2.63-2.242C41.863,29.261,43.034,28,44.5,28h14.857	c1.308,0,2.499-0.941,2.63-2.242C62.137,24.261,60.966,23,59.5,23z"/><linearGradient id="b" x1="32.036" x2="32.036" y1="6519.204" y2="6542.979" gradientTransform="translate(0 -6474)" gradientUnits="userSpaceOnUse"><stop offset="0" stop-color="#e9ce8e"/><stop offset="0" stop-color="#e9ce8e"/><stop offset=".241" stop-color="#f1dca9"/><stop offset=".521" stop-color="#f9e8c0"/><stop offset=".782" stop-color="#fdefcf"/><stop offset="1" stop-color="#fff2d4"/></linearGradient><path fill="url(#b)" d="M34.5,64h4h23.428c0.911,0,1.762-0.577,1.999-1.456C64.285,61.214,63.277,60,62,60h-1.5	c-0.828,0-1.5-0.672-1.5-1.5s0.672-1.5,1.5-1.5H62c0.911,0,1.762-0.577,1.999-1.456c0.358-1.33-0.65-2.544-1.927-2.544h-60	c-0.911,0-1.762,0.577-1.999,1.456C-0.285,55.786,0.723,57,2,57h1.5C4.328,57,5,57.672,5,58.5S4.328,60,3.5,60H2.072	c-0.911,0-1.762,0.577-1.999,1.456C-0.285,62.786,0.723,64,2,64h22.5h4H34.5z"/><linearGradient id="c" x1="32" x2="32" y1="56.45" y2="6.969" gradientTransform="matrix(1 0 0 -1 0 66)" gradientUnits="userSpaceOnUse"><stop offset="0" stop-color="#b0bbbb"/><stop offset="1" stop-color="#98a8ac"/></linearGradient><path fill="url(#c)" d="M51.11,21.83l-2.77,31.38H15.66L15.64,53l-2.21-25l-0.54-6.17c-0.13-1.46,0.39-2.9,1.43-3.94	l6.82-6.82c0.93-0.92,2.19-1.45,3.5-1.45h14.72c1.31,0,2.57,0.53,3.5,1.45l6.82,6.82C50.72,18.93,51.24,20.37,51.11,21.83z"/><linearGradient id="d" x1="24.155" x2="24.155" y1="53.128" y2="14.011" gradientTransform="matrix(1 0 0 -1 0 66)" gradientUnits="userSpaceOnUse"><stop offset="0" stop-color="#c4cacb"/><stop offset="1" stop-color="#a0b4b9"/></linearGradient><path fill="url(#d)" d="M34,50.5c0,1.38-1.12,2.5-2.5,2.5H15.64l-1.33-15H26.5c1.38,0,2.5,1.12,2.5,2.5	S27.88,43,26.5,43S24,44.12,24,45.5s1.12,2.5,2.5,2.5h5C32.88,48,34,49.12,34,50.5z"/><linearGradient id="e" x1="32" x2="32" y1="68.447" y2="8.978" gradientTransform="matrix(1 0 0 -1 0 66)" gradientUnits="userSpaceOnUse"><stop offset="0" stop-color="#a4a4a4"/><stop offset=".619" stop-color="gray"/><stop offset="1" stop-color="#6f6f6f"/></linearGradient><path fill="url(#e)" d="M50.054,56.238H13.947l-2.921-35.185c-0.177-2.005,0.542-3.982,1.973-5.412l6.82-6.82	c1.288-1.288,3-1.997,4.822-1.997h14.718c1.822,0,3.534,0.709,4.822,1.997l6.82,6.82c1.43,1.43,2.149,3.406,1.972,5.422	L50.054,56.238z M17,54h30l2.253-33.255c0.081-0.922-0.244-1.817-0.892-2.464l-6.82-6.82c-0.582-0.582-1.357-0.903-2.182-0.903	H24.641c-0.825,0-1.6,0.321-2.182,0.903l-6.82,6.82c-0.647,0.647-0.973,1.542-0.892,2.454L17,54z"/><linearGradient id="f" x1="32" x2="32" y1="45.647" y2="3.962" gradientTransform="matrix(1 0 0 -1 0 66)" gradientUnits="userSpaceOnUse"><stop offset="0" stop-color="#a4a4a4"/><stop offset=".63" stop-color="#7f7f7f"/><stop offset="1" stop-color="#6f6f6f"/></linearGradient><path fill="url(#f)" d="M51.652,60H12.348C10.499,60,9,58.501,9,56.652v-0.305C9,54.499,10.499,53,12.348,53h39.305	C53.501,53,55,54.499,55,56.348v0.305C55,58.501,53.501,60,51.652,60z"/><path fill="#737373" d="M29,25.124c0-2.146-1.581-3.349-4.123-3.349h-3.621c-0.812,0-1.256,0.435-1.256,1.232v8.437	c0,0.768,0.636,1.392,1.419,1.392c0.784,0,1.419-0.624,1.419-1.392v-2.465h1.492l1.656,3.132c0.222,0.435,0.695,0.725,1.212,0.725	c0.769,0,1.375-0.595,1.375-1.334c0-0.231-0.06-0.449-0.163-0.623l-1.389-2.624v-0.029C28.246,27.632,29,26.573,29,25.124z M24.601,26.776h-1.406v-2.957h1.406c0.942,0,1.783,0.261,1.783,1.493C26.384,26.516,25.543,26.776,24.601,26.776z"/><path fill="#737373" d="M32.5,21.659c-0.827,0-1.5,0.624-1.5,1.392v8.394c0,0.768,0.673,1.392,1.5,1.392	c0.828,0,1.5-0.624,1.5-1.392v-8.394C34,22.283,33.328,21.659,32.5,21.659z"/><path fill="#737373" d="M40.612,21.775h-3.343c-0.82,0-1.269,0.435-1.269,1.232v8.437c0,0.768,0.642,1.392,1.433,1.392	s1.433-0.624,1.433-1.392v-2.073h1.731c2.672,0,4.403-1.464,4.403-3.813C45,23.138,43.194,21.775,40.612,21.775z M39.921,27.24	h-1.29v-3.334h1.305c1.116,0,1.914,0.493,1.914,1.696S41.037,27.24,39.921,27.24z"/></svg>