<?xml version="1.0" encoding="UTF-8"?>
<svg width="78px" height="78px" viewBox="0 0 78 78" version="1.1" xmlns="http://www.w3.org/2000/svg" xmlns:xlink="http://www.w3.org/1999/xlink">
    <!-- Generator: Sketch 56.3 (81716) - https://sketch.com -->
    <title>icons8-image</title>
    <desc>Created with Sketch.</desc>
    <g id="Page-1" stroke="none" stroke-width="1" fill="none" fill-rule="evenodd">
        <g id="icons8-image" fill-rule="nonzero">
            <path d="M2,16 C0.8954305,16 0,16.8954305 0,18 C0,19.1045695 0.8954305,20 2,20 C3.1045695,20 4,19.1045695 4,18 C4,16.8954305 3.1045695,16 2,16 Z" id="Path" fill="#EE3E54"></path>
            <path d="M66,1 C65.4477153,1 65,1.44771525 65,2 C65,2.55228475 65.4477153,3 66,3 C66.5522847,3 67,2.55228475 67,2 C67,1.44771525 66.5522847,1 66,1 Z" id="Path" fill="#F1BC19"></path>
            <path d="M39,2 C18.5654643,2 2,18.5654643 2,39 C2,59.4345357 18.5654643,76 39,76 C59.4345357,76 76,59.4345357 76,39 C76,18.5654643 59.4345357,2 39,2 Z" id="Path" fill="#FCE0A2"></path>
            <path d="M72,0 C69.790861,0 68,1.790861 68,4 C68,6.209139 69.790861,8 72,8 C74.209139,8 76,6.209139 76,4 C76,1.790861 74.209139,0 72,0 Z" id="Path" fill="#F1BC19"></path>
            <path d="M76,11 C74.8954305,11 74,11.8954305 74,13 C74,14.1045695 74.8954305,15 76,15 C77.1045695,15 78,14.1045695 78,13 C78,11.8954305 77.1045695,11 76,11 Z" id="Path" fill="#EE3E54"></path>
            <path d="M70,63 C68.8954305,63 68,63.8954305 68,65 C68,66.1045695 68.8954305,67 70,67 C71.1045695,67 72,66.1045695 72,65 C72,63.8954305 71.1045695,63 70,63 Z M4,48 C1.790861,48 0,49.790861 0,52 C0,54.209139 1.790861,56 4,56 C6.209139,56 8,54.209139 8,52 C8,49.790861 6.209139,48 4,48 Z" id="Shape" fill="#FBCD59"></path>
            <path d="M14,74 C12.8954305,74 12,74.8954305 12,76 C12,77.1045695 12.8954305,78 14,78 C15.1045695,78 16,77.1045695 16,76 C16,74.8954305 15.1045695,74 14,74 Z" id="Path" fill="#EE3E54"></path>
            <path d="M7.5,40 C6.11928813,40 5,41.1192881 5,42.5 C5,43.8807119 6.11928813,45 7.5,45 C8.88071187,45 10,43.8807119 10,42.5 C10,41.1192881 8.88071187,40 7.5,40 Z" id="Path" fill="#FFFFFF"></path>
            <path d="M10,55 C9.44771525,55 9,55.4477153 9,56 C9,56.5522847 9.44771525,57 10,57 C10.5522847,57 11,56.5522847 11,56 C11,55.4477153 10.5522847,55 10,55 Z" id="Path" fill="#F1BC19"></path>
            <path d="M69,22 C68.4477153,22 68,22.4477153 68,23 C68,23.5522847 68.4477153,24 69,24 C69.5522847,24 70,23.5522847 70,23 C70,22.4477153 69.5522847,22 69,22 Z" id="Path" fill="#FFFFFF"></path>
            <path d="M65.0487525,49.2998186 L40.9424871,63.4578037 C39.7160383,64.1807321 38.1868374,64.1807321 36.9603885,63.4578037 L12.9512475,49.2998186 C12.3615347,48.9542378 12,48.327191 12,47.6499721 C12,46.9727531 12.3615347,46.3457063 12.9512475,46.0001255 L38.0287564,31.2570204 C38.629764,30.9143265 39.370236,30.9143265 39.9712436,31.2570204 L65.0487525,46.0001255 C65.6384653,46.3457063 66,46.9727531 66,47.6499721 C66,48.327191 65.6384653,48.9542378 65.0487525,49.2998186 Z" id="Path" fill="#ACB7D0"></path>
            <path d="M65.0487525,40.2998186 L40.9424871,54.4578037 C39.7160383,55.1807321 38.1868374,55.1807321 36.9603885,54.4578037 L12.9512475,40.2998186 C12.3615347,39.9542378 12,39.327191 12,38.6499721 C12,37.9727531 12.3615347,37.3457063 12.9512475,37.0001255 L38.0287564,22.2570204 C38.629764,21.9143265 39.370236,21.9143265 39.9712436,22.2570204 L65.0487525,37.0001255 C65.6384653,37.3457063 66,37.9727531 66,38.6499721 C66,39.327191 65.6384653,39.9542378 65.0487525,40.2998186 Z" id="Path" fill="#ED7899"></path>
            <path d="M65.0487525,30.9998745 L39.9712436,45.7429796 C39.370236,46.0856735 38.629764,46.0856735 38.0287564,45.7429796 L12.9512475,30.9998745 C12.3615347,30.6542937 12,30.0272469 12,29.3500279 C12,28.672809 12.3615347,28.0457622 12.9512475,27.7001814 L37.0575129,13.5421963 C38.2839617,12.8192679 39.8131626,12.8192679 41.0396115,13.5421963 L65.0487525,27.7001814 C65.6384653,28.0457622 66,28.672809 66,29.3500279 C66,30.0272469 65.6384653,30.6542937 65.0487525,30.9998745 Z" id="Path" fill="#85CBF8"></path>
            <path d="M64.0397174,29 L13.9602826,29 C13.5277447,29 13.1486516,28.7077463 13.0342741,28.2864272 C12.9198966,27.865108 13.0984551,27.4185469 13.4704378,27.1956148 L38.5101551,12.1299687 C38.8073287,11.9566771 39.1734617,11.9566771 39.4706353,12.1299687 L64.5295622,27.1956148 C64.9015449,27.4185469 65.0801034,27.865108 64.9657259,28.2864272 C64.8513484,28.7077463 64.4722553,29 64.0397174,29 Z" id="Path" fill="#ACE3FF"></path>
            <path d="M66.9992973,39 C67.0011579,37.9822206 66.461736,37.0386005 65.5793954,36.5161412 L61.6211759,34.1863202 L65.5793954,31.8564992 C66.4605159,31.3350924 67,30.3936584 67,29.3774541 C67,28.3612497 66.4605159,27.4198158 65.5793954,26.898409 L41.4896909,12.6787989 C39.9558017,11.7737337 38.0441983,11.7737337 36.5103091,12.6787989 L12.4206046,26.8887816 C11.5394841,27.4101884 11,28.3516224 11,29.3678267 C11,30.3840311 11.5394841,31.325465 12.4206046,31.8468718 L16.3788241,34.1863202 L12.4206046,36.5161412 C11.5394841,37.037548 11,37.978982 11,38.9951863 C11,40.0113907 11.5394841,40.9528246 12.4206046,41.4742314 L16.3788241,43.8136798 L12.4206046,46.1435008 C11.5394841,46.6649076 11,47.6063416 11,48.6225459 C11,49.6387503 11.5394841,50.5801842 12.4206046,51.101591 L36.5103091,65.3212011 C38.0441983,66.2262663 39.9558017,66.2262663 41.4896909,65.3212011 L65.5793954,51.1112184 C66.4605159,50.5898116 67,49.6483776 67,48.6321733 C67,47.6159689 66.4605159,46.674535 65.5793954,46.1531282 L61.6211759,43.8136798 L65.5793954,41.4838588 C66.461736,40.9613995 67.0011579,40.0177794 66.9992973,39 Z M12.9457737,29.3726404 C12.9457737,29.0327298 13.1269576,28.7180419 13.4223161,28.5446875 L37.5022953,14.3347047 C38.422144,13.7924304 39.5681306,13.7924304 40.4879793,14.3347047 L64.5776839,28.5446875 C64.8729325,28.7181125 65.0539403,29.0327873 65.0539403,29.3726404 C65.0539403,29.7124935 64.8729325,30.0271683 64.5776839,30.2005933 L39.4959931,44.997845 C39.1950896,45.1698212 38.8243611,45.1698212 38.5234576,44.997845 L13.4223161,30.2005933 C13.1269576,30.0272389 12.9457737,29.712551 12.9457737,29.3726404 Z M64.5776839,47.7994067 C64.8729325,47.9728317 65.0539403,48.2875065 65.0539403,48.6273596 C65.0539403,48.9672127 64.8729325,49.2818875 64.5776839,49.4553125 L40.4977047,63.6652953 C39.577856,64.2075696 38.4318694,64.2075696 37.5120207,63.6652953 L13.4223161,49.4553125 C13.1270675,49.2818875 12.9460597,48.9672127 12.9460597,48.6273596 C12.9460597,48.2875065 13.1270675,47.9728317 13.4223161,47.7994067 L18.2849937,44.9111988 L36.5103091,55.6938415 C38.0441983,56.5989067 39.9558017,56.5989067 41.4896909,55.6938415 L59.7247317,44.9304535 L64.5776839,47.7994067 Z M64.5776839,39.8279529 L40.4977047,54.0379357 C39.577856,54.58021 38.4318694,54.58021 37.5120207,54.0379357 L13.4223161,39.8279529 C13.1270675,39.6545279 12.9460597,39.3398531 12.9460597,39 C12.9460597,38.6601469 13.1270675,38.3454721 13.4223161,38.1720471 L18.2849937,35.2838392 L37.5022953,46.6537509 C38.422144,47.1960252 39.5681306,47.1960252 40.4879793,46.6537509 L59.7247317,35.3030939 L64.5874092,38.1913018 C64.8826579,38.3647268 65.0636657,38.6794016 65.0636657,39.0192547 C65.0636657,39.3591078 64.8826579,39.6737826 64.5874092,39.8472076 L64.5776839,39.8279529 Z" id="Shape" fill="#8D6C9F"></path>
            <path d="M24.8571429,27 C24.3180077,27 23.8809524,27.4477153 23.8809524,28 L23.8809524,30 C23.8809524,30.5522847 24.3180077,31 24.8571429,31 C25.396278,31 25.8333333,30.5522847 25.8333333,30 L25.8333333,28 C25.8333333,27.4477153 25.396278,27 24.8571429,27 Z M19.9761905,27 C19.4370554,27 19,27.4477153 19,28 L19,30 C19,30.5522847 19.4370554,31 19.9761905,31 C20.5153256,31 20.952381,30.5522847 20.952381,30 L20.952381,28 C20.952381,27.4477153 20.5153256,27 19.9761905,27 Z M34.6190476,27 C34.0799125,27 33.6428571,27.4477153 33.6428571,28 L33.6428571,30 C33.6428571,30.5522847 34.0799125,31 34.6190476,31 C35.1581827,31 35.5952381,30.5522847 35.5952381,30 L35.5952381,28 C35.5952381,27.4477153 35.1581827,27 34.6190476,27 Z M40.4761905,30 L40.4761905,28 C40.4761905,27.4477153 40.0391351,27 39.5,27 C38.9608649,27 38.5238095,27.4477153 38.5238095,28 L38.5238095,30 C38.5238095,30.5522847 38.9608649,31 39.5,31 C40.0391351,31 40.4761905,30.5522847 40.4761905,30 Z M29.7380952,27 C29.1989601,27 28.7619048,27.4477153 28.7619048,28 L28.7619048,30 C28.7619048,30.5522847 29.1989601,31 29.7380952,31 C30.2772304,31 30.7142857,30.5522847 30.7142857,30 L30.7142857,28 C30.7142857,27.4477153 30.2772304,27 29.7380952,27 Z M54.1428571,31 C54.6819923,31 55.1190476,30.5522847 55.1190476,30 L55.1190476,28 C55.1190476,27.4477153 54.6819923,27 54.1428571,27 C53.603722,27 53.1666667,27.4477153 53.1666667,28 L53.1666667,30 C53.1666667,30.5522847 53.603722,31 54.1428571,31 Z M59.0238095,31 C59.5629446,31 60,30.5522847 60,30 L60,28 C60,27.4477153 59.5629446,27 59.0238095,27 C58.4846744,27 58.047619,27.4477153 58.047619,28 L58.047619,30 C58.047619,30.5522847 58.4846744,31 59.0238095,31 Z M44.3809524,31 C44.9200875,31 45.3571429,30.5522847 45.3571429,30 L45.3571429,28 C45.3571429,27.4477153 44.9200875,27 44.3809524,27 C43.8418173,27 43.4047619,27.4477153 43.4047619,28 L43.4047619,30 C43.4047619,30.5522847 43.8418173,31 44.3809524,31 Z M49.2619048,31 C49.8010399,31 50.2380952,30.5522847 50.2380952,30 L50.2380952,28 C50.2380952,27.4477153 49.8010399,27 49.2619048,27 C48.7227696,27 48.2857143,27.4477153 48.2857143,28 L48.2857143,30 C48.2857143,30.5522847 48.7227696,31 49.2619048,31 Z" id="Shape" fill="#8D6C9F"></path>
        </g>
    </g>
</svg>