<svg xmlns="http://www.w3.org/2000/svg" width="100" height="100" viewBox="0 0 100 100"><path fill="#c7ede6" d="M87.215,56.71C88.35,54.555,89,52.105,89,49.5c0-6.621-4.159-12.257-10.001-14.478 C78.999,35.015,79,35.008,79,35c0-11.598-9.402-21-21-21c-9.784,0-17.981,6.701-20.313,15.757C36.211,29.272,34.638,29,33,29 c-7.692,0-14.023,5.793-14.89,13.252C12.906,43.353,9,47.969,9,53.5C9,59.851,14.149,65,20.5,65c0.177,0,0.352-0.012,0.526-0.022 C21.022,65.153,21,65.324,21,65.5C21,76.822,30.178,86,41.5,86c6.437,0,12.175-2.972,15.934-7.614C59.612,80.611,62.64,82,66,82 c4.65,0,8.674-2.65,10.666-6.518C77.718,75.817,78.837,76,80,76c6.075,0,11-4.925,11-11C91,61.689,89.53,58.727,87.215,56.71z"/><path fill="#fdfcef" d="M69.5,43.5V44h-3v-0.5c0,0-4.242,0-5.5,0c-2.485,0-4.5-2.015-4.5-4.5 c0-2.333,1.782-4.229,4.055-4.455C60.533,34.364,60.5,34.187,60.5,34c0-2.485,2.015-4.5,4.5-4.5c1.438,0,2.703,0.686,3.527,1.736 C68.667,28.6,70.829,26.5,73.5,26.5c2.761,0,5,2.239,5,5c0,0.446-0.077,0.87-0.187,1.282c0.642-0.777,1.6-1.282,2.687-1.282 c1.781,0,3.234,1.335,3.455,3.055C84.636,34.533,84.813,34.5,85,34.5c2.485,0,4.5,2.015,4.5,4.5s-2.015,4.5-4.5,4.5s-9.5,0-9.5,0 H69.5z"/><path fill="#472b29" d="M73.5,26c3.033,0,5.5,2.467,5.5,5.5c0,0.016,0,0.031,0,0.047C79.602,31.192,80.29,31,81,31 c1.831,0,3.411,1.261,3.858,3.005C84.905,34.002,84.952,34,85,34c2.757,0,5,2.243,5,5s-2.243,5-5,5H69.5 c-0.276,0-0.5-0.224-0.5-0.5s0.224-0.5,0.5-0.5H85c2.206,0,4-1.794,4-4s-1.794-4-4-4c-0.117,0-0.23,0.017-0.343,0.032 l-0.141,0.019c-0.021,0.003-0.041,0.004-0.062,0.004c-0.246,0-0.462-0.185-0.495-0.437C83.768,33.125,82.496,32,81,32 c-0.885,0-1.723,0.401-2.301,1.1c-0.098,0.118-0.241,0.182-0.386,0.182c-0.078,0-0.156-0.018-0.228-0.056 c-0.209-0.107-0.314-0.346-0.254-0.573C77.946,32.218,78,31.852,78,31.5c0-2.481-2.019-4.5-4.5-4.5 c-2.381,0-4.347,1.872-4.474,4.263c-0.011,0.208-0.15,0.387-0.349,0.45c-0.05,0.016-0.101,0.024-0.152,0.024 c-0.15,0-0.296-0.069-0.392-0.192C67.362,30.563,66.221,30,65,30c-2.206,0-4,1.794-4,4c0,0.117,0.017,0.23,0.032,0.343 l0.019,0.141c0.016,0.134-0.022,0.268-0.106,0.373c-0.084,0.105-0.207,0.172-0.34,0.185C58.549,35.247,57,36.949,57,39 c0,2.206,1.794,4,4,4h5.5c0.276,0,0.5,0.224,0.5,0.5S66.776,44,66.5,44H61c-2.757,0-5-2.243-5-5c0-2.397,1.689-4.413,4.003-4.877 C60.001,34.082,60,34.041,60,34c0-2.757,2.243-5,5-5c1.176,0,2.293,0.416,3.183,1.164C68.781,27.76,70.945,26,73.5,26L73.5,26z"/><path fill="#472b29" d="M75 33c1.403 0 2.609.999 2.913 2.341C78.28 35.119 78.699 35 79.125 35c1.202 0 2.198.897 2.353 2.068C81.681 37.022 81.874 37 82.063 37c1.529 0 2.811 1.2 2.918 2.732C84.99 39.87 84.886 39.99 84.749 40c-.006 0-.012 0-.018 0-.13 0-.24-.101-.249-.232-.089-1.271-1.151-2.268-2.419-2.268-.229 0-.47.042-.738.127-.022.007-.045.01-.067.01-.055 0-.11-.02-.156-.054C81.038 37.537 81 37.455 81 37.375c0-1.034-.841-1.875-1.875-1.875-.447 0-.885.168-1.231.473-.047.041-.106.063-.165.063-.032 0-.063-.006-.093-.019-.088-.035-.148-.117-.155-.212C77.377 34.512 76.288 33.5 75 33.5c-.208 0-.425.034-.682.107-.023.007-.047.01-.07.01-.109 0-.207-.073-.239-.182-.038-.133.039-.271.172-.309C74.483 33.04 74.744 33 75 33L75 33zM61.117 34.5c1.326 0 2.508.897 2.874 2.182.038.133-.039.271-.172.309C63.795 36.997 63.772 37 63.75 37c-.109 0-.209-.072-.24-.182C63.205 35.748 62.221 35 61.117 35c-.117 0-.23.014-.342.029-.012.002-.023.003-.035.003-.121 0-.229-.092-.246-.217-.019-.137.077-.263.214-.281C60.842 34.516 60.978 34.5 61.117 34.5L61.117 34.5z"/><path fill="#fff" d="M15.5 51h-10C5.224 51 5 50.776 5 50.5S5.224 50 5.5 50h10c.276 0 .5.224.5.5S15.777 51 15.5 51zM18.5 51h-1c-.276 0-.5-.224-.5-.5s.224-.5.5-.5h1c.276 0 .5.224.5.5S18.777 51 18.5 51zM23.491 53H14.5c-.276 0-.5-.224-.5-.5s.224-.5.5-.5h8.991c.276 0 .5.224.5.5S23.767 53 23.491 53zM12.5 53h-1c-.276 0-.5-.224-.5-.5s.224-.5.5-.5h1c.276 0 .5.224.5.5S12.777 53 12.5 53zM9.5 53h-2C7.224 53 7 52.776 7 52.5S7.224 52 7.5 52h2c.276 0 .5.224.5.5S9.777 53 9.5 53zM15.5 55h-2c-.276 0-.5-.224-.5-.5s.224-.5.5-.5h2c.276 0 .5.224.5.5S15.776 55 15.5 55zM18.5 46c-.177 0-.823 0-1 0-.276 0-.5.224-.5.5 0 .276.224.5.5.5.177 0 .823 0 1 0 .276 0 .5-.224.5-.5C19 46.224 18.776 46 18.5 46zM18.5 48c-.177 0-4.823 0-5 0-.276 0-.5.224-.5.5 0 .276.224.5.5.5.177 0 4.823 0 5 0 .276 0 .5-.224.5-.5C19 48.224 18.776 48 18.5 48zM23.5 50c-.177 0-2.823 0-3 0-.276 0-.5.224-.5.5 0 .276.224.5.5.5.177 0 2.823 0 3 0 .276 0 .5-.224.5-.5C24 50.224 23.776 50 23.5 50zM86.5 68h-10c-.276 0-.5-.224-.5-.5s.224-.5.5-.5h10c.276 0 .5.224.5.5S86.776 68 86.5 68zM90.5 68h-2c-.276 0-.5-.224-.5-.5s.224-.5.5-.5h2c.276 0 .5.224.5.5S90.776 68 90.5 68zM95.5 70h-10c-.276 0-.5-.224-.5-.5s.224-.5.5-.5h10c.276 0 .5.224.5.5S95.777 70 95.5 70zM83.5 70h-1c-.276 0-.5-.224-.5-.5s.224-.5.5-.5h1c.276 0 .5.224.5.5S83.776 70 83.5 70zM80.47 70H78.5c-.276 0-.5-.224-.5-.5s.224-.5.5-.5h1.97c.276 0 .5.224.5.5S80.746 70 80.47 70zM89.5 66h-5c-.276 0-.5-.224-.5-.5s.224-.5.5-.5h5c.276 0 .5.224.5.5S89.777 66 89.5 66zM86.5 72h-2c-.276 0-.5-.224-.5-.5s.224-.5.5-.5h2c.276 0 .5.224.5.5S86.776 72 86.5 72z"/><path fill="#fcba7f" d="M28.886,70.3c-0.654,0-1.186-0.545-1.186-1.215v-34.17c0-0.67,0.531-1.215,1.186-1.215h42.229 c0.654,0,1.186,0.545,1.186,1.215v34.17c0,0.67-0.532,1.215-1.187,1.215H28.886z"/><path fill="#472b29" d="M71.114,34.4c0.268,0,0.486,0.231,0.486,0.515v34.17c0,0.284-0.218,0.515-0.487,0.515H28.886 c-0.268,0-0.486-0.231-0.486-0.515v-34.17c0-0.284,0.218-0.515,0.486-0.515H71.114 M71.114,33H28.886 C27.844,33,27,33.857,27,34.915v34.17C27,70.143,27.844,71,28.886,71h42.227C72.156,71,73,70.143,73,69.085v-34.17 C73,33.857,72.156,33,71.114,33L71.114,33z"/><path fill="#c7dff1" d="M31.217 37.46H68.86V66.9H31.217z"/><path fill="#472b29" d="M68.132,37.96h-2.377c-0.276,0-0.5-0.224-0.5-0.5s0.224-0.5,0.5-0.5h2.377 c0.276,0,0.5,0.224,0.5,0.5S68.408,37.96,68.132,37.96z"/><path fill="#472b29" d="M62.075,37.96h-5.463c-0.276,0-0.5-0.224-0.5-0.5s0.224-0.5,0.5-0.5h5.463 c0.276,0,0.5,0.224,0.5,0.5S62.352,37.96,62.075,37.96z"/><path fill="#472b29" d="M69,67H31V37h22.5c0.276,0,0.5,0.224,0.5,0.5S53.776,38,53.5,38H32v28h36V40.5 c0-0.276,0.224-0.5,0.5-0.5s0.5,0.224,0.5,0.5V67z"/><path fill="#f9e65c" d="M42.18 40.68A3.22 3.22 0 1 0 42.18 47.12A3.22 3.22 0 1 0 42.18 40.68Z"/><path fill="#472b29" d="M42.18,47.37c-1.913,0-3.47-1.557-3.47-3.47c0-1.914,1.557-3.471,3.47-3.471 c1.914,0,3.471,1.557,3.471,3.471C45.65,45.813,44.094,47.37,42.18,47.37z M42.18,40.93c-1.638,0-2.97,1.333-2.97,2.971 s1.332,2.97,2.97,2.97s2.971-1.332,2.971-2.97S43.817,40.93,42.18,40.93z"/><path fill="#00a7a7" d="M39.203,66.558l14.1-20.876c0.283-0.418,0.911-0.423,1.201-0.01l13.859,19.691v1.195L39.203,66.558z"/><path fill="#472b29" d="M68.863,67.059H38.262l14.627-21.656c0.226-0.333,0.604-0.533,1.01-0.537 c0.424,0.035,0.786,0.191,1.015,0.52l13.95,19.82V67.059z M40.145,66.059h27.719v-0.537L54.095,45.96 c-0.059-0.085-0.149-0.095-0.188-0.095h-0.001c-0.037,0.001-0.131,0.011-0.189,0.098L40.145,66.059z"/><path fill="#00a7a7" d="M31.712,58.173l6.319-6.961c0.411-0.452,1.146-0.418,1.51,0.071l5.125,6.89l-5.464,8.385h-7.566 L31.712,58.173z"/><path fill="#472b29" d="M39.473,67.059h-8.342l0.084-9.081l6.446-7.102c0.299-0.328,0.73-0.513,1.171-0.48 c0.443,0.021,0.849,0.236,1.11,0.59l5.333,7.169L39.473,67.059z M32.141,66.059h6.791l5.125-7.867l-4.917-6.609 c-0.083-0.112-0.214-0.181-0.357-0.188c-0.162-0.015-0.286,0.049-0.381,0.153l-6.19,6.82L32.141,66.059z"/><g><path fill="#00a7a7" d="M58.56,51.144l4.756-5.594c0.32-0.376,0.908-0.347,1.19,0.057l3.857,5.537l-0.039,14.069 L58.56,51.144z"/><path fill="#472b29" d="M68.818,66.804L57.93,51.113l5.005-5.887c0.255-0.299,0.646-0.454,1.015-0.439 c0.391,0.02,0.743,0.214,0.967,0.535l3.946,5.666L68.818,66.804z M59.189,51.176l8.639,12.446l0.034-12.321l-3.767-5.406 c-0.062-0.089-0.148-0.106-0.194-0.108c-0.048,0.002-0.135,0.007-0.205,0.089L59.189,51.176z"/></g><g><path fill="#42210b" d="M50 26A2 2 0 1 0 50 30A2 2 0 1 0 50 26Z"/></g><g><path fill="#472b29" d="M58.28,34.395c-0.104,0-0.207-0.031-0.297-0.098L50,28.421l-7.983,5.876 c-0.223,0.165-0.535,0.117-0.699-0.105s-0.116-0.536,0.105-0.699L50,27.179l8.577,6.313c0.222,0.163,0.27,0.477,0.105,0.699 C58.585,34.324,58.434,34.395,58.28,34.395z"/></g><g><path fill="#fdfcef" d="M36.5,74.5c0,0,1.567,0,3.5,0s3.5-1.567,3.5-3.5c0-1.781-1.335-3.234-3.055-3.455 C40.473,67.366,40.5,67.187,40.5,67c0-1.933-1.567-3.5-3.5-3.5c-1.032,0-1.95,0.455-2.59,1.165 c-0.384-1.808-1.987-3.165-3.91-3.165c-2.209,0-4,1.791-4,4c0,0.191,0.03,0.374,0.056,0.558C26.128,65.714,25.592,65.5,25,65.5 c-1.228,0-2.245,0.887-2.455,2.055C22.366,67.527,22.187,67.5,22,67.5c-1.933,0-3.5,1.567-3.5,3.5s1.567,3.5,3.5,3.5s7.5,0,7.5,0 V75h7V74.5z"/><path fill="#472b29" d="M38.25 70C38.112 70 38 69.888 38 69.75c0-1.223.995-2.218 2.218-2.218.034.009.737-.001 1.244.136.133.036.212.173.176.306-.036.134-.173.213-.306.176-.444-.12-1.1-.12-1.113-.118-.948 0-1.719.771-1.719 1.718C38.5 69.888 38.388 70 38.25 70zM31.5 74A.5.5 0 1 0 31.5 75 .5.5 0 1 0 31.5 74z"/><path fill="#472b29" d="M40,75h-3.5c-0.276,0-0.5-0.224-0.5-0.5s0.224-0.5,0.5-0.5H40c1.654,0,3-1.346,3-3 c0-1.496-1.125-2.768-2.618-2.959c-0.134-0.018-0.255-0.088-0.336-0.196s-0.115-0.244-0.094-0.377C39.975,67.314,40,67.16,40,67 c0-1.654-1.346-3-3-3c-0.85,0-1.638,0.355-2.219,1c-0.125,0.139-0.321,0.198-0.5,0.148c-0.182-0.049-0.321-0.195-0.36-0.379 C33.58,63.165,32.141,62,30.5,62c-1.93,0-3.5,1.57-3.5,3.5c0,0.143,0.021,0.28,0.041,0.418c0.029,0.203-0.063,0.438-0.242,0.54 c-0.179,0.102-0.396,0.118-0.556-0.01C25.878,66.155,25.449,66,25,66c-0.966,0-1.792,0.691-1.963,1.644 c-0.048,0.267-0.296,0.446-0.569,0.405C22.314,68.025,22.16,68,22,68c-1.654,0-3,1.346-3,3s1.346,3,3,3h7.5 c0.276,0,0.5,0.224,0.5,0.5S29.776,75,29.5,75H22c-2.206,0-4-1.794-4-4s1.794-4,4-4c0.059,0,0.116,0.002,0.174,0.006 C22.588,65.82,23.711,65,25,65c0.349,0,0.689,0.061,1.011,0.18C26.176,62.847,28.126,61,30.5,61c1.831,0,3.466,1.127,4.153,2.774 C35.333,63.276,36.155,63,37,63c2.206,0,4,1.794,4,4c0,0.048-0.001,0.095-0.004,0.142C42.739,67.59,44,69.169,44,71 C44,73.206,42.206,75,40,75z"/><path fill="#472b29" d="M34.5,74c-0.159,0-0.841,0-1,0c-0.276,0-0.5,0.224-0.5,0.5c0,0.276,0.224,0.5,0.5,0.5 c0.159,0,0.841,0,1,0c0.276,0,0.5-0.224,0.5-0.5C35,74.224,34.776,74,34.5,74z"/></g></svg>