<?xml version="1.0" encoding="UTF-8"?>
<svg width="1014px" height="782px" viewBox="0 0 1014 782" version="1.1" xmlns="http://www.w3.org/2000/svg" xmlns:xlink="http://www.w3.org/1999/xlink">
    <!-- Generator: Sketch 56.3 (81716) - https://sketch.com -->
    <title>coding</title>
    <desc>Created with Sketch.</desc>
    <g id="Page-1" stroke="none" stroke-width="1" fill="none" fill-rule="evenodd">
        <g id="coding">
            <path d="M252.1,98.7 C228.2,109.1 204.5,121.9 187.8,141.9 C171.1,161.9 162.7,190.6 172.8,214.7 C186.2,246.8 228.6,265.5 228.8,300.3 C228.9,325.2 205.9,344.2 182.7,353.3 C159.5,362.4 133.8,365.6 112.7,378.9 C80.8,398.9 65.9,437.6 59.8,474.7 C53.5,513.2 56,557.1 83.3,585.1 C117.2,619.8 173.2,615.9 221.2,608.5 C285.2,598.6 348.9,587 412.7,575.4 C552.4,549.9 692.1,524.5 831.7,499 C846.7,496.3 862.3,493.3 874.4,484.1 C898.6,465.9 900.6,428.4 886.6,401.7 C872.6,374.9 846.6,356.7 820.8,341 C795,325.3 767.7,310.4 748.4,287.1 C729.1,263.8 719.5,229.4 734.1,203 C746.5,180.6 773.1,168.6 784.7,145.8 C800,115.7 782.4,77.3 754.6,58.1 C726.7,38.7 378.2,43.5 252.1,98.7 Z" id="Path" fill="#F7F7F7" fill-rule="nonzero"></path>
            <path d="M180.7,248.2 C249.017624,248.2 304.4,192.817624 304.4,124.5 C304.4,56.1823764 249.017624,0.8 180.7,0.8 C112.382376,0.8 57,56.1823764 57,124.5 C57,192.817624 112.382376,248.2 180.7,248.2 Z" id="Oval" stroke="#D3D3D3" stroke-dasharray="12.1401,12.1401"></path>
            <path d="M978.5,782 L13.5,782 C6.3,782 0.5,776.1 0.5,769 L0.5,691.5 C0.5,684.3 6.4,678.5 13.5,678.5 L978.5,678.5 C985.7,678.5 991.5,684.4 991.5,691.5 L991.5,769 C991.5,776.1 985.6,782 978.5,782 Z" id="Path" fill="#F2F2F2" fill-rule="nonzero"></path>
            <path d="M856,136 L856,487 C856,493.6 850.6,499 844,499 L148,499 C141.4,499 136,493.6 136,487 L136,136 C136,129.4 141.4,124 148,124 L844,124 C850.6,124 856,129.4 856,136 Z" id="Path" fill="#DCF2FF" fill-rule="nonzero"></path>
            <path d="M856,136 L856,161 L136,161 L136,136 C136,129.4 141.4,124 148,124 L844,124 C850.6,124 856,129.4 856,136 Z" id="Path" fill="#2A94F4" fill-rule="nonzero"></path>
            <rect id="Rectangle" fill="#FFFFFF" fill-rule="nonzero" x="158" y="185" width="252" height="19"></rect>
            <rect id="Rectangle" fill="#FFFFFF" fill-rule="nonzero" x="470" y="253" width="252" height="19"></rect>
            <rect id="Rectangle" fill="#FFFFFF" fill-rule="nonzero" x="158" y="287" width="454" height="19"></rect>
            <rect id="Rectangle" fill="#FFFFFF" fill-rule="nonzero" x="158" y="219" width="413" height="19"></rect>
            <rect id="Rectangle" fill="#FFBE55" fill-rule="nonzero" x="424" y="185" width="105" height="19"></rect>
            <rect id="Rectangle" fill="#FFFFFF" fill-rule="nonzero" x="158" y="355" width="252" height="19"></rect>
            <rect id="Rectangle" fill="#FFBE55" fill-rule="nonzero" x="424" y="355" width="105" height="19"></rect>
            <rect id="Rectangle" fill="#FFBE55" fill-rule="nonzero" x="581" y="219" width="152" height="19"></rect>
            <rect id="Rectangle" fill="#FFBE55" fill-rule="nonzero" x="159" y="321" width="182" height="19"></rect>
            <rect id="Rectangle" fill="#FFBE55" fill-rule="nonzero" x="158" y="253" width="298" height="19"></rect>
            <g id="Group" transform="translate(338.000000, 352.000000)">
                <rect id="Rectangle" fill="#072C3D" fill-rule="nonzero" x="85.7" y="325.4" width="152.6" height="35"></rect>
                <g transform="translate(0.000000, 301.000000)" fill-rule="nonzero" id="Path">
                    <g>
                        <path d="M48.8,65.9 C74.8,72.4 170.7,83.1 218.4,88.1 C229,89.2 237.2,90.1 241.8,90.5 C244.3,90.8 245.7,90.9 245.7,90.9 C245.7,90.9 258.2,90.1 273.4,89.3 C287.4,88.5 319.7,88.7 330.9,88.3 C335.1,88.2 336.5,82.5 332.9,80.4 C326.3,76.6 298.6,65.3 285,63.6 C276.6,62.6 267.4,55 260.1,50.8 C254.5,47.5 248.1,53.2 243,55.1 C240.5,56 238.7,61.6 235.9,61.8 C235.2,61.9 234.5,61.9 233.8,62 C230.3,62.2 226.6,62 223.1,61.6 C222.1,61.5 221.2,61.3 220.2,61.2 C209.1,59.5 199.9,55.9 199.9,55.9 C165.9,38.3 91.1,-8.8 32.9,3.6 C32.4,3.7 31.9,3.8 31.5,3.9 C31,4 30.5,4.1 30.1,4.2 C-28.5,19.1 13.8,57.1 48.8,65.9 Z" fill="#FCD2B1"></path>
                        <path d="M48.8,65.9 C74.8,72.4 170.7,83.1 218.4,88.1 L227.1,37.8 C225.4,37.5 223.6,37.4 221.8,37.4 C203.4,37.2 185.2,33.4 168.2,26.2 C129.6,9.7 75,-6.9 30,4.3 C-28.5,19.1 13.8,57.1 48.8,65.9 Z" fill="#2A94F4"></path>
                    </g>
                    <path d="M257.1,52 C257.1,47 263.1,44 263.1,44 L309.7,61.2 L335.1,75 L340.1,82 L334.1,86.5 L282.1,79 L265.1,69 L257.1,52 Z" fill="#0E538C"></path>
                    <path d="M233.7,62 L241.8,90.5 C244.3,90.8 245.7,90.9 245.7,90.9 C245.7,90.9 258.2,90.1 273.4,89.3 C287.4,88.5 319.7,88.7 330.9,88.3 C335.1,88.2 336.5,82.5 332.9,80.4 C326.3,76.6 298.6,65.3 285,63.6 C276.6,62.6 267.4,55 260.1,50.8 C254.5,47.5 248.1,53.2 243,55.1 C240.5,56 238.7,61.6 235.9,61.8 C235.1,62 234.4,62 233.7,62 Z" fill="#0E538C"></path>
                </g>
                <path d="M268.3,194.3 L262,147.7 C258.8,124.3 240.3,106.9 218.4,106.9 L176,106.9 C169.9,106.9 159.9,106.9 153.8,106.9 L111.4,106.9 C89.5,106.9 71,124.3 67.8,147.7 L61.5,194.3 C56.6,230.9 77.1,265.9 109.9,276.6 L153.7,290.9 C159.8,290.9 164.8,285.5 164.8,278.9 C164.8,285.5 169.8,290.9 175.9,290.9 L219.7,276.6 C252.6,265.9 273.2,230.9 268.3,194.3 Z" id="Path" fill="#2A94F4" fill-rule="nonzero"></path>
                <ellipse id="Oval" fill="#FFE3CA" fill-rule="nonzero" transform="translate(203.463250, 62.996550) rotate(-69.089193) translate(-203.463250, -62.996550) " cx="203.46325" cy="62.99655" rx="8.99964188" ry="7.49970157"></ellipse>
                <polygon id="Path" fill="#2A94F4" fill-rule="nonzero" points="249.4 319.7 82.7 314.1 72.2 169.4 262.1 169.4"></polygon>
                <path d="M146.4,92.3 L151.9,125.7 L152.3,126.5 C157.3,137.1 172.5,136.6 176.8,125.7 L176.8,125.7 L181.3,91.8 L146.4,92.3 Z" id="Path" fill="#FCD2B1" fill-rule="nonzero"></path>
                <path d="M203.3,49.5 C203.3,92 186.3,100.4 165.4,100.4 C144.5,100.4 127.5,92.1 127.5,49.5 C127.5,26.4 144.5,7.6996029 165.4,7.6996029 C186.3,7.6 203.3,26.4 203.3,49.5 Z" id="Path" fill="#FFE3CA" fill-rule="nonzero"></path>
                <path d="M142.8,38.9 C159.8,48.2 178.3,54.8 197.4,58.4 C204.9,59.8 222.3,50.9 227,45 C232.1,38.7 213,39 209,32 C203.3,22.1 197.6,9.1 188,3 C178.4,-3.1 164.2,2.8 153,5 C143,7 140,3.6 132,10 C125.4,15.3 121.3,25.7 119,33.8 C116.7,41.9 119.7,59.1 128,61 C130,49 134.8,45.9 137,40 L142.8,38.9 Z" id="Path" fill="#0E538C" fill-rule="nonzero"></path>
                <ellipse id="Oval" fill="#FFE3CA" fill-rule="nonzero" transform="translate(128.466350, 63.006650) rotate(-20.910807) translate(-128.466350, -63.006650) " cx="128.46635" cy="63.00665" rx="7.49970157" ry="8.99964188"></ellipse>
                <g transform="translate(131.000000, 59.000000)" id="Path" stroke="#0E538C" stroke-width="2">
                    <path d="M24.9,17 L5.9,17 C2.8,17 0.3,14.5 0.3,11.4 L0.3,5.7 C0.3,2.6 2.8,0.1 5.9,0.1 L24.9,0.1 C28,0.1 30.5,2.6 30.5,5.7 L30.5,11.4 C30.5,14.5 28,17 24.9,17 Z"></path>
                    <path d="M62.9,17 L43.9,17 C40.8,17 38.3,14.5 38.3,11.4 L38.3,5.7 C38.3,2.6 40.8,0.1 43.9,0.1 L62.9,0.1 C66,0.1 68.5,2.6 68.5,5.7 L68.5,11.4 C68.5,14.5 66,17 62.9,17 Z"></path>
                    <path d="M30.5,8.5 C33.3,7 35.3,6 38.3,8.5"></path>
                </g>
                <path d="M244.4,337.8 L83.7,337.8 C78.8,337.8 74.7,333.8 74.7,328.8 L70.2,220.1 C70.2,215.2 74.2,211.1 79.2,211.1 L248.9,211.1 C253.8,211.1 257.9,215.1 257.9,220.1 L253.4,328.8 C253.3,333.8 249.3,337.8 244.4,337.8 Z" id="Path" fill="#FFBE55" fill-rule="nonzero"></path>
                <circle id="Oval" fill="#FFFFFF" fill-rule="nonzero" cx="163.7" cy="274.5" r="17"></circle>
                <g transform="translate(1.000000, 301.000000)" fill-rule="nonzero" id="Path">
                    <g transform="translate(5.000000, 0.000000)">
                        <path d="M286.3,65.9 C260.3,72.4 164.4,83.1 116.7,88.1 C106.1,89.2 97.9,90.1 93.3,90.5 C90.8,90.8 89.4,90.9 89.4,90.9 C89.4,90.9 76.9,90.1 61.7,89.3 C47.7,88.5 15.4,88.7 4.2,88.3 C0,88.2 -1.4,82.5 2.2,80.4 C8.8,76.6 36.5,65.3 50.1,63.6 C58.5,62.6 67.7,55 75,50.8 C80.6,47.5 87,53.2 92.1,55.1 C94.6,56 96.4,61.6 99.2,61.8 C99.9,61.9 100.6,61.9 101.3,62 C104.8,62.2 108.5,62 112,61.6 C113,61.5 113.9,61.3 114.9,61.2 C126,59.5 135.2,55.9 135.2,55.9 C169.2,38.3 244,-8.8 302.2,3.6 C302.7,3.7 303.2,3.8 303.6,3.9 C304.1,4 304.6,4.1 305,4.2 C363.6,19.1 321.3,57.1 286.3,65.9 Z" fill="#FCD2B1"></path>
                        <path d="M286.3,65.9 C260.3,72.4 164.4,83.1 116.7,88.1 L108,37.8 C109.7,37.5 111.5,37.4 113.3,37.4 C131.7,37.2 149.9,33.4 166.9,26.2 C205.5,9.7 260.1,-6.9 305.1,4.3 C363.6,19.1 321.3,57.1 286.3,65.9 Z" fill="#2A94F4"></path>
                    </g>
                    <path d="M83,52 C83,47 77,44 77,44 L30.4,61.2 L5,75 L0,82 L6,86.5 L58,79 L75,69 L83,52 Z" fill="#0E538C"></path>
                    <path d="M106.4,62 L98.3,90.5 C95.8,90.8 94.4,90.9 94.4,90.9 C94.4,90.9 81.9,90.1 66.7,89.3 C52.7,88.5 20.4,88.7 9.2,88.3 C5,88.2 3.6,82.5 7.2,80.4 C13.8,76.6 41.5,65.3 55.1,63.6 C63.5,62.6 72.7,55 80,50.8 C85.6,47.5 92,53.2 97.1,55.1 C99.6,56 101.4,61.6 104.2,61.8 C105.1,62 105.8,62 106.4,62 Z" fill="#0E538C"></path>
                </g>
            </g>
            <path d="M893,53 L695,53 C671.4,53 652,74.4 652,100.5 L652,100.5 C652,124.4 668.1,144.3 688.9,147.5 L689.5,168.4 L710.2,148 L893,148 C916.6,148 936,126.6 936,100.5 L936,100.5 C936,74.4 916.7,53 893,53 Z" id="Path" fill="#FFBE55" fill-rule="nonzero"></path>
            <g id="Group" transform="translate(728.000000, 87.000000)" fill="#FFFFFF" fill-rule="nonzero">
                <circle id="Oval" cx="15" cy="15" r="15"></circle>
                <circle id="Oval" cx="66" cy="15" r="15"></circle>
                <circle id="Oval" cx="117" cy="15" r="15"></circle>
            </g>
            <g id="Group" transform="translate(96.000000, 418.000000)" fill-rule="nonzero">
                <circle id="Oval" fill="#FFBE55" cx="80.5" cy="80.5" r="80.5"></circle>
                <g transform="translate(24.000000, 53.000000)" fill="#FFFFFF" id="Path">
                    <path d="M0.8,32.5 L0.8,28.1 C0.8,25.9 2.1,24 4.1,23.2 L26.3,14.4 C29.8,13 33.5,15.6 33.5,19.3 L33.5,19.3 C33.5,21.6 32.1,23.6 29.9,24.3 L12,30.3 L29.9,36.3 C32.1,37 33.5,39 33.5,41.3 L33.5,41.4 C33.5,45.1 29.7,47.7 26.3,46.3 L4.1,37.5 C2.2,36.6 0.8,34.7 0.8,32.5 Z"></path>
                    <path d="M68.4,0.9 L68.4,0.9 C71.8,0.9 74,4.4 72.5,7.5 L47.7,59.4 C46.9,61 45.3,62 43.6,62 L43.6,62 C40.2,62 38,58.5 39.5,55.4 L64.3,3.5 C65.1,1.9 66.7,0.9 68.4,0.9 Z"></path>
                    <path d="M83,36.4 L100.9,30.4 L83,24.4 C80.9,23.7 79.4,21.7 79.4,19.4 L79.4,19.3 C79.4,15.6 83.2,13 86.6,14.4 L108.8,23.2 C110.8,24 112.1,25.9 112.1,28.1 L112.1,32.5 C112.1,34.7 110.8,36.6 108.8,37.4 L86.6,46.2 C83.1,47.6 79.4,45 79.4,41.3 L79.4,41.3 C79.4,39.1 80.9,37.1 83,36.4 Z"></path>
                </g>
            </g>
            <g id="Group" transform="translate(2.000000, 489.000000)" fill-rule="nonzero">
                <g transform="translate(860.000000, 0.000000)" id="Path">
                    <g>
                        <path d="M68.7,146.1 C60.5,107.6 35,73.2 0.7,54 C19.1,88.7 41,121.4 66.2,151.6 L68.7,146.1 Z" fill="#1A87D8"></path>
                        <path d="M77.9,160.5 C45.2,114.8 28.8,57.6 32.3,1.5 C53.5,53.3 69.5,107.2 80,162.1 L77.9,160.5 Z" fill="#2A94F4"></path>
                        <path d="M68.5,162.1 C67.5,134 66.5,105.6 70.9,77.8 C75.3,50 85.5,22.5 104.4,1.6 C107.3,59.2 93.3,117.5 64.8,167.6 L68.5,162.1 Z" fill="#1A87D8"></path>
                        <path d="M69.9,164.6 C51.5,111.4 54.5,51.2 78.1,0.1 C92.9,53.5 79.8,110.1 66.7,163.9 L69.9,164.6 Z" fill="#B0E1FF"></path>
                        <path d="M72.3,144.9 C77.4,98.2 108.5,55.3 151.3,36 C134,82.5 104.3,124.4 66.2,156.3 L72.3,144.9 Z" fill="#2A94F4"></path>
                    </g>
                    <path d="M116.4,136.7 L111.1,227.3 C111.1,231.7 107.5,235.2 103.2,235.2 L40.4,235.2 C36,235.2 32.5,231.6 32.5,227.3 L31.3,206.8 L27.2,136.7 C27.2,132.3 30.8,128.8 35.1,128.8 L108.5,128.8 C111.4,128.8 113.9,130.3 115.3,132.6 L115.3,132.6 C115.9,133.8 116.4,135.2 116.4,136.7 Z" fill="#CCE9FF"></path>
                    <path d="M116.4,136.7 L111.1,227.3 C111.1,231.7 107.5,235.2 103.2,235.2 L40.4,235.2 C36,235.2 32.5,231.6 32.5,227.3 L31.3,206.8 C60.6,198.4 90.8,162.2 115.3,132.6 C115.9,133.8 116.4,135.2 116.4,136.7 Z" fill="#CCE9FF"></path>
                </g>
                <g transform="translate(0.000000, 81.000000)" id="Path">
                    <g>
                        <path d="M45.2,95.9 C39.8,70.7 23.2,48.2 0.7,35.6 C12.7,58.3 27.1,79.7 43.6,99.5 L45.2,95.9 Z" fill="#1A87D8"></path>
                        <path d="M51.2,105.3 C29.8,75.4 19.1,38 21.4,1.3 C35.3,35.2 45.8,70.5 52.6,106.5 L51.2,105.3 Z" fill="#2A94F4"></path>
                        <path d="M45.1,106.4 C44.4,88 43.8,69.4 46.7,51.2 C49.6,33 56.3,15 68.7,1.3 C70.6,39 61.5,77.2 42.7,110 L45.1,106.4 Z" fill="#1A87D8"></path>
                        <path d="M46,108 C33.9,73.2 35.9,33.7 51.4,0.3 C61.1,35.2 52.5,72.3 43.9,107.5 L46,108 Z" fill="#B0E1FF"></path>
                        <path d="M47.6,95.1 C50.9,64.6 71.3,36.4 99.3,23.8 C87.9,54.3 68.5,81.7 43.6,102.6 L47.6,95.1 Z" fill="#2A94F4"></path>
                    </g>
                    <path d="M76.4,89.7 L72.9,149 C72.9,151.9 70.6,154.2 67.7,154.2 L26.6,154.2 C23.7,154.2 21.4,151.9 21.4,149 L20.6,135.6 L18,89.7 C18,86.8 20.3,84.5 23.2,84.5 L71.3,84.5 C73.2,84.5 74.8,85.5 75.7,87 L75.7,87 C76.2,87.8 76.4,88.8 76.4,89.7 Z" fill="#CCE9FF"></path>
                    <path d="M76.4,89.7 L72.9,149 C72.9,151.9 70.6,154.2 67.7,154.2 L26.6,154.2 C23.7,154.2 21.4,151.9 21.4,149 L20.6,135.6 C39.8,130.1 59.6,106.4 75.6,87 C76.2,87.8 76.4,88.8 76.4,89.7 Z" fill="#CCE9FF"></path>
                </g>
            </g>
        </g>
    </g>
</svg>