<?xml version="1.0" encoding="UTF-8"?>
<svg width="671px" height="414px" viewBox="0 0 671 414" version="1.1" xmlns="http://www.w3.org/2000/svg" xmlns:xlink="http://www.w3.org/1999/xlink">
    <!-- Generator: Sketch 56.3 (81716) - https://sketch.com -->
    <title>stripe</title>
    <desc>Created with Sketch.</desc>
    <g id="Page-1" stroke="none" stroke-width="1" fill="none" fill-rule="evenodd">
        <g id="stripe">
            <g id="Group" opacity="0.55" transform="translate(155.000000, 0.000000)" fill="#2A94F4" fill-rule="nonzero">
                <path d="M14.32,67.63 C19.692,74.592 26.573,81.169 34.906,85.157 L45.907,89.199 L47.358,80.189 C46.246,69.622 45.306,60.111 43.242,51.206 C42.363,54.641 41.251,58.256 39.964,60.87 C39.964,60.87 41.535,54.353 42.396,47.836 C40.292,40.065 37.17,32.725 32.129,25.503 C31.969,29.972 31.476,38.028 29.961,43.038 C29.961,43.038 30.991,29.889 29.725,22.255 C26.613,18.284 27.387,18.881 22.868,14.899 C22.915,19.489 22.761,25.813 21.77,30.075 C21.77,30.075 21.907,20.693 20.915,13.214 C17.746,10.546 9.706,3.314 5.776,0.594 C5.776,0.594 0.702,5.666 0.276,21.573 C3.052,24.813 5.802,29.443 11.121,33.747 C11.121,33.747 8.658,32.334 0.248,24.31 C0.307,30.702 -0.565,38.169 1.756,44.949 C4.412,46.554 7.326,47.15 15.42,52.087 C15.42,52.087 7.24,47.918 3.288,48.925 C5.209,53.374 8.07,58.812 11.833,64.232 L20.916,70.114 L14.32,67.63 Z" id="Path"></path>
            </g>
            <g id="Group" opacity="0.55" transform="translate(139.000000, 45.000000)" fill="#2A94F4" fill-rule="nonzero">
                <path d="M38.33,56.312 C46.237,60.16 55.325,62.992 64.562,62.859 L76.213,61.588 L73.507,52.872 C67.813,43.901 62.742,35.8 56.934,28.741 C57.674,32.209 58.285,35.941 58.295,38.855 C58.295,38.855 56.805,32.319 54.679,26.099 C49.339,20.074 43.28,14.887 35.553,10.659 C37.396,14.733 40.536,22.168 41.407,27.33 C41.407,27.33 36.483,15.094 31.956,8.819 C27.403,6.646 28.361,6.836 22.544,5.279 C24.627,9.37 27.3,15.103 28.308,19.361 C28.308,19.361 24.26,10.896 20.046,4.639 C16.021,3.658 5.604,0.754 0.875,0.066 C0.875,0.066 -1.415,6.864 5.276,21.303 C9.203,22.971 13.725,25.895 20.403,27.386 C20.403,27.386 17.569,27.216 6.469,23.767 C9.364,29.466 11.903,36.542 16.996,41.583 C20.089,41.84 22.963,41.078 32.409,41.902 C32.409,41.902 23.229,41.804 20.136,44.464 C23.835,47.594 28.815,51.194 34.595,54.376 L45.345,55.606 L38.33,56.312 Z" id="Path"></path>
            </g>
            <g id="Group" transform="translate(265.000000, 134.000000)" fill="#CCE9FF" fill-rule="nonzero">
                <path d="M252.336,166.405 C250.732,174.736 245.776,179.705 237.427,181.273 C235.131,179.897 232.591,180.44 230.154,180.439 C161.057,180.411 91.959,180.411 22.862,180.44 C20.427,180.441 17.884,179.887 15.596,181.291 C6.512,179.399 1.307,174.023 0.606,164.601 C2.762,152.329 1.214,139.959 1.522,127.639 C1.81,116.119 1.593,116.114 13.734,117.874 C17.699,129.015 14.978,140.514 15.38,151.83 C15.899,166.439 15.509,166.472 30.345,166.474 C95.248,166.482 160.151,166.482 225.054,166.474 C237.483,166.472 237.507,166.448 237.51,154.1 C237.521,112.177 237.317,70.252 237.679,28.332 C237.752,19.857 235.346,16.821 226.599,17.047 C205.496,17.592 184.37,17.276 163.253,17.169 C159.975,17.152 156.357,18.356 153.514,15.501 C150.456,4.98 151.932,2.382 162.621,2.453 C186.686,2.614 210.773,1.24 234.817,3.25 C236.362,3.379 237.905,3.294 239.29,2.439 C246.126,5.204 251.215,9.506 252.353,17.284 C251.027,19.243 251.47,21.47 251.469,23.599 C251.447,69.093 251.447,114.587 251.469,160.081 C251.473,162.212 251.041,164.436 252.336,166.405 Z" id="Path"></path>
                <path d="M193.012,88.167 C186.18,88.166 179.345,88.036 172.518,88.206 C166.992,88.344 164.597,85.921 164.723,80.394 C164.9,72.635 164.949,64.863 164.708,57.107 C164.53,51.38 167.64,49.158 172.635,49.106 C186.607,48.958 200.583,48.956 214.555,49.096 C219.785,49.149 222.453,52.247 222.499,57.435 C222.568,65.198 222.408,72.964 222.566,80.724 C222.684,86.478 219.72,88.328 214.439,88.208 C207.3,88.048 200.155,88.169 193.012,88.167 Z" id="Path"></path>
                <path d="M15.597,181.29 C18.386,178.336 22.013,179.568 25.268,179.565 C92.762,179.494 160.256,179.494 227.75,179.565 C231.007,179.568 234.63,178.337 237.427,181.273 C163.484,181.279 89.541,181.284 15.597,181.29 Z" id="Path"></path>
                <path d="M239.293,2.438 C236.481,5.358 232.857,4.115 229.593,4.131 C207.891,4.24 186.173,4.664 164.493,3.964 C155.218,3.664 152.168,6.873 153.517,15.498 C148.178,8.766 149.082,4.255 156.441,1.814 C158.732,1.054 161.249,0.526 163.642,0.596 C188.857,1.33 214.158,-1.419 239.293,2.438 Z" id="Path"></path>
                <path d="M252.336,166.405 C249.787,164.253 250.581,161.293 250.579,158.607 C250.54,114.095 250.54,69.583 250.579,25.071 C250.581,22.385 249.791,19.424 252.357,17.284 C252.349,66.991 252.343,116.698 252.336,166.405 Z" id="Path"></path>
                <path d="M205.66,146.321 C200.84,144.474 191.873,149.396 191.804,141.593 C191.725,132.728 200.951,137.062 205.941,136.905 C210.756,136.753 219.665,133.326 219.75,140.994 C219.849,149.907 210.493,144.251 205.66,146.321 Z" id="Path"></path>
                <path d="M126.638,145.959 C123.535,145.959 120.432,145.954 117.328,145.96 C114.4,145.966 112.666,144.77 112.564,141.599 C112.448,137.999 114.258,136.582 117.66,136.608 C123.246,136.651 128.833,136.587 134.418,136.649 C138.044,136.689 140.445,138.291 140.265,142.235 C140.077,146.352 136.826,145.905 134.086,145.991 C131.606,146.069 129.121,146.007 126.638,146.007 C126.638,145.991 126.638,145.975 126.638,145.959 Z" id="Path"></path>
                <path d="M166.565,136.237 C170.581,138.84 179.523,132.135 179.235,141.636 C178.998,149.446 170.966,145.883 166.623,145.717 C161.635,145.527 152.445,149.8 152.575,140.963 C152.687,133.233 161.604,138.127 166.565,136.237 Z" id="Path"></path>
                <path d="M85.414,145.974 C82.095,144.085 73.937,149.869 73.738,141.465 C73.535,132.883 81.558,137.679 85.901,136.715 C88.831,136.065 92.026,136.584 95.102,136.624 C98.162,136.664 100.821,137.653 100.941,141.12 C101.06,144.562 98.589,145.874 95.46,145.956 C92.385,146.037 89.307,145.974 85.414,145.974 Z" id="Path"></path>
                <path d="M47.348,136.23 C51.28,138.91 60.315,132.037 59.869,141.717 C59.515,149.387 51.534,145.898 47.175,145.717 C42.225,145.512 33.012,149.838 33.264,140.866 C33.479,133.212 42.357,138.129 47.348,136.23 Z" id="Path"></path>
                <path d="M13.736,117.873 C4.136,116.605 2.02,121.063 2.181,130.155 C2.384,141.592 4.683,153.304 0.607,164.6 C0.586,151.862 0.539,139.124 0.552,126.387 C0.564,114.932 2.347,113.8 13.736,117.873 Z" id="Path"></path>
            </g>
            <path d="M571.465,413.191 L11.53,413.191 C5.575,413.191 0.748,408.364 0.748,402.409 L0.748,394.634 C0.748,388.679 5.575,383.852 11.53,383.852 L571.465,383.852 C577.42,383.852 582.247,388.679 582.247,394.634 L582.247,402.409 C582.247,408.364 577.419,413.191 571.465,413.191 Z" id="Path" fill="#E8E8E8" fill-rule="nonzero"></path>
            <g id="Group" transform="translate(169.000000, 64.000000)" fill-rule="nonzero">
                <path d="M198.443,174.169 L35.494,174.169 C16.026,174.169 0.243,158.387 0.243,138.918 L0.243,35.648 C0.243,16.18 16.025,0.397 35.494,0.397 L198.443,0.397 C217.912,0.397 233.694,16.179 233.694,35.648 L233.694,138.918 C233.694,158.387 217.912,174.169 198.443,174.169 Z" id="Path" fill="#F2F2F2"></path>
                <path d="M0.243,24.159 C0.243,11.036 10.881,0.397 24.005,0.397 L209.933,0.397 C223.056,0.397 233.695,11.035 233.695,24.159 L233.695,51.286 L0.243,51.286 L0.243,24.159 Z" id="Path" fill="#2A94F4"></path>
                <g transform="translate(17.000000, 62.000000)">
                    <path d="M108.053,0.578 C108.086,4.05 108.106,7.522 108.163,10.993 C108.175,11.734 107.883,12.049 107.17,12.196 C103.187,13.016 99.207,13.851 95.238,14.734 C94.413,14.918 94.324,14.566 94.325,13.925 C94.334,10.81 94.354,7.695 94.314,4.581 C94.302,3.679 94.792,3.525 95.51,3.376 C99.257,2.598 102.995,1.777 106.737,0.971 C107.079,0.897 107.466,0.935 107.692,0.578 C107.813,0.578 107.933,0.578 108.053,0.578 Z" id="Path" fill="#0B4870"></path>
                    <path d="M127.215,65.242 C127.215,69.761 127.102,74.054 127.267,78.338 C127.339,80.22 126.779,80.925 124.931,81.221 C121.685,81.741 118.481,82.53 115.27,83.256 C113.99,83.545 113.358,83.462 113.361981,81.815 C113.416,61.434 113.412,41.054 113.365,20.673 C113.361981,19.258 113.841,18.961 115.124,19.007 C117.578,19.096 120.038,19.033 122.496,19.033 C125.582,19.033 125.582,19.033 126.245,22.021 C126.575,22.237 126.799,22.022 127.027,21.829 C133.893,16.001 144.904,16.904 151.24,25.853 C153.823,29.501 155.261,33.619 155.71,38.031 C156.479,45.598 156.014,52.994 152.087,59.8 C146.913,68.767 135.507,71.082 128.207,65.729 C127.987,65.566 127.711,65.482 127.215,65.242 Z M127.189,43.238 C127.215,43.238 127.242,43.238 127.268,43.238 C127.268,46.235 127.314,49.233 127.246,52.228 C127.218,53.463 127.719,54.224 128.704,54.884 C132.661,57.532 137.406,56.596 140.013,52.605 C143.181,47.756 143.142,38.882 139.933,34.075 C137.214,30.003 132.226,29.203 128.316,32.177 C127.54,32.767 127.141,33.399 127.165,34.428 C127.233,37.363 127.189,40.301 127.189,43.238 Z" id="Shape" fill="#0B4870"></path>
                    <path d="M196.892,53.889 C196.892,57.448 196.884,60.847 196.899,64.246 C196.902,64.819 196.603,65.113 196.148,65.347 C188.582,69.253 174.873,70.512 166.754,63.886 C162.236,60.198 159.983,55.309 159.049,49.699 C157.868,42.601 158.45,35.703 161.78,29.232 C166.726,19.62 177.759,15.521 187.465,19.706 C193.842,22.455 196.965,27.859 198.681,34.247 C199.812,38.455 199.893,42.764 199.742,47.095 C199.697,48.386 199.05,48.493 198.023,48.49 C190.109,48.465 182.195,48.519 174.283,48.44 C172.676,48.424 172.365,48.813 172.786,50.338 C173.806,54.031 176.857,56.45 181.183,56.732 C186.285,57.066 191.227,56.421 195.9,54.219 C196.156,54.099 196.44,54.038 196.892,53.889 Z M179.484,38.312 C181.395,38.312 183.309,38.255 185.218,38.333 C186.369,38.38 186.617,37.933 186.564,36.863 C186.364,32.769 183.406,29.506 179.735,29.437 C175.918,29.366 172.687,32.677 172.431,36.841 C172.367,37.887 172.561,38.387 173.751,38.334 C175.658,38.25 177.573,38.312 179.484,38.312 Z" id="Shape" fill="#0B4870"></path>
                    <path d="M0.758,58.873 C0.758,57.194 0.811,55.512 0.741,53.836 C0.689,52.602 0.893,52.222 2.181,52.874 C6.17,54.893 10.389,56.181 14.868,56.576 C16.269,56.7 17.633,56.575 18.946,56.141 C21.469,55.307 22.006,52.693 20.027,50.922 C18.61,49.654 16.808,49.094 15.071,48.446 C12.658,47.545 10.219,46.72 7.91,45.557 C3.224,43.196 0.223,39.673 0.141,34.201 C0.053,28.333 2.369,23.717 7.57,20.788 C12.436,18.047 17.758,17.882 23.134,18.37 C26.002,18.63 28.795,19.321 31.53,20.253 C32.414,20.554 32.752,20.991 32.74,21.931 C32.694,25.469 32.703,29.007 32.735,32.545 C32.744,33.482 32.54,33.724 31.626,33.272 C28.039,31.498 24.216,30.581 20.24,30.219 C18.965,30.103 17.725,30.191 16.494,30.475 C15.288,30.753 14.424,31.447 14.204,32.718 C13.994,33.928 14.615,34.794 15.543,35.466 C16.722,36.32 18.081,36.807 19.437,37.286 C21.978,38.183 24.558,38.97 26.996,40.141 C32.79,42.923 35.745,47.441 35.32,53.939 C34.91,60.202 31.614,64.475 25.859,66.748 C18.661,69.591 11.395,68.877 4.185,66.688 C0.743,65.643 0.76,65.588 0.76,61.932 C0.757,60.912 0.757,59.893 0.758,58.873 Z" id="Path" fill="#0B4870"></path>
                    <path d="M38.159,32.851 C38.159,25.779 38.199,18.707 38.124,11.636 C38.109,10.256 38.572,9.794 39.872,9.555 C43.402,8.907 46.914,8.152 50.41,7.338 C51.471,7.091 51.632,7.433 51.625,8.35 C51.601,11.406 51.674,14.464 51.614,17.519 C51.591,18.681 51.923,19.1 53.132,19.059 C55.646,18.973 58.166,19.072 60.682,19.015 C61.787,18.99 62.314,19.245 62.28,20.501 C62.201,23.495 62.209,26.494 62.278,29.489 C62.304,30.629 61.876,30.914 60.814,30.889 C58.238,30.828 55.66,30.906 53.084,30.851 C52.019,30.828 51.608,31.144 51.616,32.274 C51.662,38.327 51.576,44.381 51.659,50.433 C51.722,54.995 54.436,57.04 59.085,56.221 C62.255,55.663 62.255,55.663 62.255,58.906 C62.255,61.123 62.218,63.342 62.274,65.558 C62.295,66.417 61.997,66.912 61.199,67.168 C56.046,68.821 50.84,69.487 45.796,67.028 C40.325,64.36 38.032,59.623 37.999,53.7 C37.96,46.751 37.99,39.801 37.99,32.851 C38.046,32.851 38.103,32.851 38.159,32.851 Z" id="Path" fill="#0B4870"></path>
                    <path d="M79.435,23 C81.906,19.184 85.263,18.148 89.258,18.651 C90.47,18.804 91.134,19.245 91.072,20.708 C90.939,23.819 90.983,26.94 91.055,30.054 C91.084,31.306 90.773,31.721 89.443,31.54 C86.7,31.166 84.07,31.496 81.787,33.308 C80.827,34.07 80.361,34.915 80.367,36.203 C80.416,46.031 80.362,55.859 80.429,65.686 C80.439,67.177 80.057,67.626 78.547,67.577 C75.015,67.464 71.476,67.513 67.941,67.558 C66.958,67.571 66.579,67.306 66.581,66.256 C66.609,50.975 66.611,35.693 66.5779929,20.412 C66.576,19.267 66.995,18.993 68.048,19.013 C70.923,19.067 73.805,19.125 76.675,18.994 C78.206,18.924 78.889,19.413 78.956,20.927 C78.983,21.512 79.216,22.087 79.435,23 Z" id="Path" fill="#0B4870"></path>
                    <path d="M94.33,43.182 C94.33,35.694 94.363,28.207 94.299,20.72 C94.288,19.376 94.648,18.965 96.005,19.002 C99.477,19.095 102.954,19.083 106.426,19.007 C107.71,18.979 108.189,19.272 108.184039,20.681 C108.133,35.776 108.137,50.87 108.179,65.965 C108.182,67.237 107.799,67.593 106.554,67.566 C103.022,67.49 99.484,67.467 95.953,67.575 C94.527,67.619 94.293,67.098 94.302,65.824 C94.358,58.277 94.33,50.73 94.33,43.182 Z" id="Path" fill="#0B4870"></path>
                    <path d="M127.189,43.238 C127.189,40.301 127.233,37.363 127.165,34.427 C127.141,33.398 127.54,32.766 128.316,32.176 C132.226,29.202 137.214,30.002 139.933,34.074 C143.143,38.88 143.181,47.755 140.013,52.604 C137.405,56.596 132.661,57.532 128.704,54.883 C127.719,54.224 127.218,53.463 127.246,52.227 C127.314,49.232 127.268,46.234 127.268,43.237 C127.242,43.238 127.215,43.238 127.189,43.238 Z" id="Path" fill="#FDFDFE"></path>
                    <path d="M179.484,38.312 C177.573,38.312 175.658,38.25 173.751,38.335 C172.561,38.388 172.367,37.887 172.431,36.842 C172.687,32.679 175.918,29.367 179.735,29.438 C183.406,29.506 186.364,32.769 186.564,36.864 C186.616,37.934 186.368,38.381 185.218,38.334 C183.309,38.255 181.396,38.312 179.484,38.312 Z" id="Path" fill="#FDFDFE"></path>
                </g>
            </g>
            <g id="Group" transform="translate(15.000000, 109.000000)" fill-rule="nonzero">
                <g transform="translate(51.000000, 24.000000)" id="Path">
                    <g transform="translate(0.000000, 6.000000)">
                        <path d="M74.221,13.376 L102.566,7.538 L105.413,1.342 C105.413,1.342 105.074,1.175 103.763,2.21 C103.391,2.502 102.73,4.523 102.233,4.674 C101.569,4.873 100.066,6.548 99.162,6.287 C92.627,4.417 83.252,0.369 75.567,0.746 C63.2,1.35 73.79,13.657 74.221,13.376 Z" fill="#B97A59"></path>
                        <path d="M0.396,23.782 C0.396,23.782 7.149,14.283 37.196,6.392 C67.893,-1.669 67.75,0.421 67.75,0.421 L74.953,0.341 L78.054,13.03 L29.393,28.294 L0.396,23.782 Z" fill="#FFBE55"></path>
                        <path d="M16.072,32.657 L49.552,21.389 L61.322,16.133 L55.502,16.802 C55.502,16.802 51.927,17.492 34.006,21.918 C23.909,24.405 20.055,26.105 14.905,28.44 L16.072,32.657 Z" fill="#FFBE55"></path>
                        <polygon fill="#FFBE55" points="69.758 4.094 71.213 12.249 71.847 14.255 77.747 12.976 74.12 4.258"></polygon>
                    </g>
                    <path d="M102.588,3.276 C104.398,1.95 107.417,-0.806 107.586,0.656 L102.374,5.798 L100.993,9.113 L101.986,11.831 L99.604,12.262 C99.036,12.993 98.536,13.482 97.37,12.503 L96.377,12.721 C96.985,10.044 97.163,8.897 97.632,8.202 L99.814,5.488 C100.41,4.669 102.588,3.276 102.588,3.276 Z" fill="#B97A59"></path>
                </g>
                <path d="M46.033,135.766 C46.033,135.766 60.64,187.478 72.342,205.991 C84.045,224.507 88.126,200.422 88.126,200.422 C88.126,200.422 87.069,167.815 85.271,157.138 C83.442,146.278 73.596,114.426 73.596,114.426 L39.5999991,114.213 C39.599,114.213 40.459,115.975 46.033,135.766 Z" id="Path" fill="#0B4870"></path>
                <path d="M62.172,114.419 C62.172,114.419 52.386,199.252 50.984,203.514 C46.248,217.934 35.419,208.623 33.749,203.817 C32.076,199.012 29.29,163.444 29.847,137.489 C30.401,111.533 30.401,113.235 30.401,113.235 L62.172,114.419 Z" id="Path" fill="#0B4870"></path>
                <path d="M32.354,280.983 C31.849,281.592 32.219,283.2 32.219,283.2 C32.219,283.2 41.02,284.178 43.852,283.513 C44.587,283.341 45.831,282.709 47.002,282.038 C47.199,281.924 47.549,281.248 47.74,281.134 C48.094,280.923 48.28,281.276 48.581,281.085 C49.367,280.59 49.917,280.207 49.926,280.157 C50.7,276.121 49.67,274.497 49.67,274.497 C49.67,274.497 42.175,272.005 40.772,273.741 C37.466,277.826 33.454,279.647 32.354,280.983 Z" id="Path" fill="#0B4870"></path>
                <path d="M87.085,277.361 L88.339,283.916 L95.027,283.916 C95.027,283.916 95.398,282.989 95.964,282.989 C96.44,282.989 97.057,283.916 97.706,283.916 C99.113,283.916 100.672,283.916 101.297,283.916 C102.551,283.916 114.718,283.916 114.718,283.916 C114.718,283.916 115.022,282.538 114.652,282.062 C114.462,281.819 113.344,281.394 112.597,281.184 C109.144,280.214 99.256,277.186 97.537,273.886 C95.446,269.869 87.085,277.361 87.085,277.361 Z" id="Path" fill="#0B4870"></path>
                <path d="M45.299,22.033 C45.824,24.136 45.088,26.129 43.657,26.485 L43.657,26.485 C42.226,26.841 40.642,25.425 40.119,23.321 L39.459,20.676 C38.934,18.573 39.672,16.579 41.101,16.224 L41.101,16.224 C42.533,15.868 44.116,17.284 44.64,19.387 L45.299,22.033 Z" id="Path" fill="#FFFFFF"></path>
                <path d="M55.714,39.061 C55.464,42.041 54.551,41.048 52.864,41.17 C51.266,41.17 49.667,41.17 48.067,41.17 C46.381,41.048 46.592,42.431 46.342,39.452 C45.949,34.539 43.743,25.656 43.349,20.742 C43.088,17.794 44.24,11.878 46.793,10.13 C49.127,8.575 51.805,8.575 54.139,10.13 C56.691,11.877 57.844,17.794 57.582,20.742 C57.289,25.407 56.242,33.808 55.714,39.061 Z" id="Path" fill="#B97A59"></path>
                <path d="M12.939,102.141 L34.675,124.386 C34.675,124.386 8.465,118.374 7.3,107.529 C6.134,96.683 12.939,102.141 12.939,102.141 Z" id="Path" fill="#B97A59"></path>
                <path d="M80.4,38.808 L60.633,43.295 L51.12,46.135 L39.359,44.792 L26.4,50.407 C26.4,50.407 20.549,56.027 25.983,74.084 C31.419,92.142 29.328,120.431 29.328,120.431 L75.451,122.487 C75.451,122.487 77.137,96.167 79.381,70.18 C81.14,49.805 78.357,43.27 80.4,38.808 Z" id="Path" fill="#FFBE55"></path>
                <path d="M34.764,51.211 C34.764,51.211 27.578,45.586 20.551,56.026 C9.769,72.047 2.577,89.731 1.323,93.343 C0.07,96.954 -1.603,107.79 3.415,110.999 C8.43,114.212 8.43,114.212 8.43,114.212 L18.879,107.79 L17.209,104.58 L16.371,102.573 C16.371,102.573 22.223,89.732 28.491,78.094 C34.764,66.46 34.764,51.211 34.764,51.211 Z" id="Path" fill="#FFBE55"></path>
                <path d="M58.899,27.898 C58.13,30.678 56.984,31.341 54.953,31.645 C53.021,31.837 52.55,32.028 50.618,32.221 C48.572,32.321 46.483,29.609 46.007,27.132 C45.244,23.045 43.02,19.689 42.258,15.604 C41.766,13.156 42.815,10.961 45.798,9.187 C48.529,7.6 51.766,4.354 54.677,5.382 C57.866,6.546 59.606,11.384 59.459,13.895 C60.504,18.058 59.84,23.755 58.899,27.898 Z" id="Path" fill="#B97A59"></path>
                <polygon id="Path" fill="#FFBE55" points="50.985 46.206 47.116 52.546 39.493 44.105 42.861 40.48"></polygon>
                <polygon id="Path" fill="#FFBE55" points="59.005 40.376 54.39 45.043 57.485 50.536 61.266 43.295"></polygon>
                <path d="M53.461,167.32 C53.461,167.32 51.293,199.494 51.603,216.508 C51.834,229.336 51.621,253.536 49.669,274.496 C49.55,275.776 41.905,273.197 41.905,273.197 C41.905,273.197 32.291,195 31.176,181.861 C30.062,168.723 45.102,157.933 53.461,167.32 Z" id="Path" fill="#0B4870"></path>
                <path d="M84.51,202.934 C84.51,202.934 81.553,203.581 72.248,204.387 C68.008,204.753 87.085,277.361 87.085,277.361 L93.567,273.126 L87.904,198.522 L84.51,202.934 Z" id="Path" fill="#0B4870"></path>
                <path d="M40.769,12.411 L42.259,15.603 C42.259,15.603 45.42,12.042 47.65,9.123 C48.353,8.201 55.572,8.119 57.363,8.44 C58.667,8.674 58.82,10.344 59.118,11.316 C60.19,14.785 58.661,5.471 58.661,5.471 C58.661,5.471 56.214,1.087 51.626,0.721 C49.091,0.518 47.91,1.991 46.949,3.903 C46.723,4.35 49.741,3.176 49.218,3.11 C49.085,3.095 46.117,5.699 46.026,5.898 C45.575,6.888 45.089,7.887 44.44,8.759 C41.992,12.045 40.769,12.411 40.769,12.411 Z" id="Path" fill="#0B4870"></path>
                <polygon id="Path" fill="#FFBE55" points="8.197 112.176 17.208 104.58 20.732 109.391 11.91 116.585"></polygon>
                <g transform="translate(26.000000, 115.000000)" fill="#B97A59" id="Path">
                    <path d="M2.223,0.892 C3.671,1.325 3.591,1.236 3.591,1.236 C3.591,1.236 3.512,3.171 4.659,4.588 C5.229,5.293 7.344,7.268 7.344,7.268 L10.449,10.238 L11.996,11.496 C11.996,11.496 12.927,12.144 13.019,12.489 C13.285,13.483 12.434,13.314 12.434,13.314 L6.008,8.939 L10.861,14.595 C10.861,14.595 11.363,15.424 11.055,15.825 C10.768,16.199 10.552,15.978 10.552,15.978 L3.581,10.873 L5.76,14.073 C5.76,14.073 6.232,14.895 5.953,15.302 C5.646,15.748 5.576,15.879 5.576,15.879 L0.257998552,9.983 C0.257,9.981 0.774,0.461 2.223,0.892 Z"></path>
                    <path d="M5.324,10.154 L8.51,14.332 C8.51,14.332 9.324,15.19 9.457,15.822 C9.611,16.548 8.991,16.702 8.991,16.702 L3.58,10.871 L5.324,10.154 Z"></path>
                </g>
                <path d="M50.668,121.224 L55.542,121.224 C60.64,95.972 60.399,69.917 54.789,44.752 C53.318,45.34 51.848,45.931 50.379,46.52 C55.83,71.118 55.918,96.599 50.668,121.224 Z" id="Path" fill="#FFBE55"></path>
            </g>
            <path d="M71.567,140.449 C71.567,140.449 63.877,142.094 60.404,135.204 C60.404,135.204 60.514,143.481 71.293,142.966 L71.567,140.449 Z" id="Path" fill="#AD6D51" fill-rule="nonzero"></path>
            <path d="M75.576,129.844 C75.576,129.844 75.214,123.651 72.626,121.418 C70.038,119.185 61.981,121.153 61.157,126.372 C60.333,131.591 60.425,134.383 60.425,134.383 L59.647,132.277 C59.647,132.277 59.189,138.64 59.647,140.426 C60.105,142.212 56.763,136.947 55.664,133.01 C54.565,129.073 52.414,125.14 55.984,118.202 C59.554,111.264 69.809,110.44 69.809,110.44 L66.97,112.271 C66.97,112.271 72.648,109.433 76.127,111.172 L72.227,112.82 L79.056,114.468 L74.267,114.651 L80.063,117.398 L76.401,117.398 L75.576,129.844 Z" id="Path" fill="#0B4870" fill-rule="nonzero"></path>
            <path d="M69.39,149.376 L74.005,149.376 C74.005,149.376 70.375,155.173 65.985,155.207 C61.595,155.24 57.861,149.48 57.861,149.48 L61.624,149.376 L69.39,149.376 L69.39,149.376 Z" id="Path" fill="#B97A59" fill-rule="nonzero"></path>
            <g id="Group" transform="translate(186.000000, 252.000000)">
                <path d="M43.516,130.556 C43.516,132.822 41.679,134.66 39.412,134.66 L23.583,134.66 C21.317,134.66 19.479,132.823 19.479,130.556 L19.479,93.622 C19.479,91.356 21.316,89.518 23.583,89.518 L39.412,89.518 C41.678,89.518 43.516,91.355 43.516,93.622 L43.516,130.556 Z" id="Path" fill="#2A94F4" fill-rule="nonzero"></path>
                <path d="M33.396,47.003 C33.396,47.003 20.438,73.343 39.53,77.829 C58.623,82.315 59.173,62.446 57.217,54.258 C55.261,46.07 85.557,24.056 60.57,4.581 C35.583,-14.894 16.109,36.956 33.396,47.003 Z" id="Path" fill="#2A94F4" fill-rule="nonzero" opacity="0.4"></path>
                <path d="M9.268,61.302 C9.268,61.302 8.658,78.635 20.034,76.433 C31.41,74.23 26.899,63.388 23.863,59.448 C20.827,55.508 31.829,36.311 13.648,31.861 C-4.533,27.41 -2.482,60.07 9.268,61.302 Z" id="Path" fill="#2A94F4" fill-rule="nonzero" opacity="0.4"></path>
                <path d="M11.208,44.963 L25.278,89.518" id="Path" stroke="#4D4D4D"></path>
                <polyline id="Path" stroke="#4D4D4D" points="19.416 54.035 16.436 61.517 9.645 57.776"></polyline>
                <path d="M48.657,19.754 L36.587,89.518" id="Path" stroke="#4D4D4D"></path>
                <polyline id="Path" stroke="#4D4D4D" points="55.738 30.306 45.739 36.622 39.323 27.961"></polyline>
                <polyline id="Path" stroke="#4D4D4D" points="53.002 44.936 43.003 51.252 36.587 42.591"></polyline>
            </g>
            <path d="M545.171,368.623 C545.171,368.623 607.823,311.556 670.475,354.308 C670.475,354.308 639.731,314.981 595.551,320.845 C551.37,326.708 545.171,368.623 545.171,368.623 Z" id="Path" fill="#2A94F4" fill-rule="nonzero" opacity="0.4"></path>
            <path d="M547.088,370.919 C547.088,370.919 555.237,286.565 630.377,276.214 C630.377,276.214 581.192,267.691 552.374,301.687 C523.555,335.685 547.088,370.919 547.088,370.919 Z" id="Path" fill="#2A94F4" fill-rule="nonzero" opacity="0.4"></path>
            <path d="M546.539,370.556 C546.539,370.556 575.897,291.057 651.195,300.178 C651.195,300.178 605.801,279.413 569.277,304.952 C532.753,330.491 546.539,370.556 546.539,370.556 Z" id="Path" fill="#0B4870" fill-rule="nonzero"></path>
            <path d="M519.496,370.383 C519.496,379.231 526.669,386.403 535.516,386.403 L560.153,386.403 C569.001,386.403 576.173,379.23 576.173,370.383 L576.173,370.383 C576.173,361.535 569,354.363 560.153,354.363 L535.516,354.363 C526.669,354.362 519.496,361.535 519.496,370.383 L519.496,370.383 Z" id="Path" fill="#2A94F4" fill-rule="nonzero"></path>
            <rect id="Rectangle" fill="#2A94F4" fill-rule="nonzero" opacity="0.41" transform="translate(107.874309, 105.257253) rotate(25.506701) translate(-107.874309, -105.257253) " x="95.8127762" y="93.1957193" width="24.1230665" height="24.1230665"></rect>
            <circle id="Oval" fill="#2A94F4" fill-rule="nonzero" opacity="0.22" cx="152.127" cy="118.337" r="9.863"></circle>
            <rect id="Rectangle" fill="#0E538C" fill-rule="nonzero" opacity="0.41" transform="translate(479.897647, 101.826243) rotate(25.506701) translate(-479.897647, -101.826243) " x="467.836113" y="89.7647097" width="24.1230665" height="24.1230665"></rect>
            <circle id="Oval" fill="#0E538C" fill-rule="nonzero" opacity="0.22" cx="524.162" cy="114.917" r="9.863"></circle>
        </g>
    </g>
</svg>