<svg xmlns="http://www.w3.org/2000/svg" xmlns:xlink="http://www.w3.org/1999/xlink" version="1.1" id="Layer_1" x="0px" y="0px" viewBox="0 0 1080 1080" enable-background="new 0 0 1080 1080" xml:space="preserve">
<path opacity="0.25" fill="#41B4E6" d="M233.576,443.312c0,0,8.723-281.066,165.723-227.959s183.553,187.915,295.894,83.745  s267.574,102.16,106.213,260.442s185.872,256.324,12.255,331.898S536.936,685.14,411.809,815.863s-268.106-57.574-217.042-171.766  S233.576,443.312,233.576,443.312z"/>
<path opacity="0.1" fill="#41B4E6" d="M486.691,844.985c0,0-275.735,55.175-259.575-109.774s141.448-221.351,14.537-307.173  s38.889-283.761,229.61-162.451s207.554-239.107,320.494-87.123S653.51,494.728,809.181,586.989s4.658,274.178-118.133,250.31  C568.257,813.432,486.691,844.985,486.691,844.985z"/>
<g>
	<path fill="#FFFFFF" d="M609.161,484.247c0-1.817-1.473-3.29-3.29-3.29c-1.817,0-3.29,1.473-3.29,3.29   c0,1.817,1.473,3.29,3.29,3.29C607.689,487.537,609.161,486.064,609.161,484.247z"/>
	<path fill="#FFFFFF" d="M568.062,915.988c0-1.375-1.115-2.49-2.49-2.49c-1.375,0-2.489,1.115-2.489,2.49   c0,1.375,1.115,2.489,2.489,2.489C566.947,918.477,568.062,917.363,568.062,915.988z"/>
	<path fill="#FFFFFF" d="M446.016,595.287c0-3.25-2.634-5.885-5.884-5.885c-3.25,0-5.884,2.635-5.884,5.885   c0,3.25,2.634,5.884,5.884,5.884C443.382,601.171,446.016,598.537,446.016,595.287z"/>
	<path fill="#FFFFFF" d="M825.568,869.84c0-2.2-1.783-3.983-3.983-3.983c-2.2,0-3.983,1.783-3.983,3.983   c0,2.199,1.783,3.983,3.983,3.983C823.785,873.823,825.568,872.039,825.568,869.84z"/>
	<path opacity="0.5" fill="#FFFFFF" d="M765.029,481.038c0-2.605-2.111-4.716-4.716-4.716c-2.604,0-4.716,2.111-4.716,4.716   s2.112,4.716,4.716,4.716C762.918,485.754,765.029,483.642,765.029,481.038z"/>
	<path fill="#FFFFFF" d="M345.498,516.426c0-2.2-1.783-3.983-3.983-3.983c-2.199,0-3.983,1.783-3.983,3.983   c0,2.2,1.783,3.983,3.983,3.983C343.715,520.409,345.498,518.625,345.498,516.426z"/>
	<path fill="#FFFFFF" d="M446.832,681.468c0-0.797-0.646-1.443-1.443-1.443c-0.797,0-1.442,0.646-1.442,1.443   c0,0.797,0.646,1.442,1.442,1.442C446.186,682.91,446.832,682.264,446.832,681.468z"/>
	<circle fill="#FFFFFF" cx="828.863" cy="792.81" r="1.893"/>
	<circle fill="#FFFFFF" cx="632.903" cy="351.553" r="1.893"/>
	<path fill="#FFFFFF" d="M275.09,726.412c0-0.797-0.646-1.442-1.443-1.442c-0.796,0-1.442,0.646-1.442,1.442   c0,0.797,0.646,1.442,1.442,1.442C274.444,727.854,275.09,727.208,275.09,726.412z"/>
	<path fill="#FFFFFF" d="M295.311,638.954c0-0.797-0.646-1.442-1.443-1.442c-0.796,0-1.442,0.646-1.442,1.442   c0,0.797,0.646,1.442,1.442,1.442C294.665,640.396,295.311,639.75,295.311,638.954z"/>
	<path fill="#FFFFFF" d="M549.807,467.363c-0.012-0.796-0.667-1.432-1.464-1.421c-0.796,0.012-1.432,0.668-1.42,1.464   c0.012,0.796,0.667,1.432,1.464,1.42C549.183,468.815,549.819,468.159,549.807,467.363z"/>
	<path fill="#FFFFFF" d="M299.646,419.708c-0.012-0.797-0.667-1.432-1.464-1.421c-0.797,0.012-1.432,0.668-1.42,1.464   c0.012,0.797,0.667,1.432,1.464,1.42C299.022,421.16,299.658,420.505,299.646,419.708z"/>
	<path opacity="0.5" fill="#FFFFFF" d="M494.458,344.684c0-0.797-0.646-1.443-1.442-1.443c-0.797,0-1.442,0.646-1.442,1.443   c0,0.797,0.646,1.442,1.442,1.442C493.812,346.126,494.458,345.481,494.458,344.684z"/>
	<path opacity="0.5" fill="#FFFFFF" d="M604.128,548.749c-0.145-0.783-0.897-1.301-1.681-1.156   c-0.783,0.145-1.301,0.897-1.156,1.681c0.145,0.784,0.897,1.301,1.681,1.156C603.755,550.284,604.273,549.532,604.128,548.749z"/>
	<path fill="#FFFFFF" d="M654.383,513.582c0-0.797-0.646-1.442-1.443-1.442c-0.796,0-1.442,0.646-1.442,1.442   c0,0.796,0.646,1.442,1.442,1.442C653.737,515.024,654.383,514.378,654.383,513.582z"/>
	<path opacity="0.5" fill="#FFFFFF" d="M835.569,400.763c0-0.796-0.646-1.442-1.442-1.442c-0.797,0-1.442,0.646-1.442,1.442   c0,0.797,0.646,1.442,1.442,1.442C834.923,402.205,835.569,401.56,835.569,400.763z"/>
	<path opacity="0.5" fill="#FFFFFF" d="M602.128,362.969c0-0.797-0.646-1.442-1.442-1.442c-0.797,0-1.443,0.646-1.443,1.442   s0.646,1.442,1.443,1.442C601.482,364.411,602.128,363.765,602.128,362.969z"/>
	<path opacity="0.5" fill="#FFFFFF" d="M567.497,534.454c0-0.797-0.646-1.442-1.442-1.442c-0.797,0-1.443,0.646-1.443,1.442   c0,0.797,0.646,1.442,1.443,1.442C566.852,535.896,567.497,535.25,567.497,534.454z"/>
	<path opacity="0.5" fill="#FFFFFF" d="M734.88,476.507c0-0.797-0.646-1.442-1.442-1.442c-0.797,0-1.443,0.646-1.443,1.442   c0,0.797,0.646,1.442,1.443,1.442C734.234,477.949,734.88,477.304,734.88,476.507z"/>
	<path fill="#FFFFFF" d="M489.071,295.971c0-1.394-1.13-2.524-2.524-2.524s-2.524,1.13-2.524,2.524c0,1.394,1.13,2.524,2.524,2.524   S489.071,297.365,489.071,295.971z"/>
	<path fill="#FFFFFF" d="M322.716,607.554c0-1.394-1.13-2.524-2.525-2.524s-2.524,1.13-2.524,2.524c0,1.394,1.13,2.524,2.524,2.524   S322.716,608.948,322.716,607.554z"/>
	<path fill="#FFFFFF" d="M728.037,617.91c0-0.797-0.646-1.442-1.443-1.442c-0.797,0-1.442,0.646-1.442,1.442   s0.646,1.442,1.442,1.442C727.391,619.352,728.037,618.706,728.037,617.91z"/>
	<path opacity="0.5" fill="#FFFFFF" d="M659.914,442.408c0-0.797-0.646-1.442-1.442-1.442c-0.797,0-1.443,0.646-1.443,1.442   s0.646,1.442,1.443,1.442C659.268,443.85,659.914,443.204,659.914,442.408z"/>
	<path fill="#FFFFFF" d="M410.34,521.683c0-0.797-0.646-1.442-1.442-1.442c-0.797,0-1.442,0.646-1.442,1.442   c0,0.797,0.646,1.442,1.442,1.442C409.694,523.125,410.34,522.48,410.34,521.683z"/>
	<path fill="#FFFFFF" d="M371.475,348.499c0-0.797-0.646-1.442-1.442-1.442c-0.797,0-1.442,0.646-1.442,1.442   c0,0.796,0.646,1.442,1.442,1.442C370.829,349.941,371.475,349.296,371.475,348.499z"/>
	<path opacity="0.5" fill="#FFFFFF" d="M287.667,455.089c0-0.797-0.646-1.443-1.442-1.443c-0.797,0-1.442,0.646-1.442,1.443   c0,0.796,0.646,1.442,1.442,1.442C287.021,456.532,287.667,455.886,287.667,455.089z"/>
	<circle fill="#FFFFFF" cx="531.26" cy="753.95" r="0.811"/>
	<path fill="#FFFFFF" d="M503.22,691.672c0-1.552-1.259-2.811-2.811-2.811c-1.552,0-2.811,1.258-2.811,2.811   c0,1.552,1.258,2.811,2.811,2.811C501.962,694.483,503.22,693.225,503.22,691.672z"/>
	<path fill="#FFFFFF" d="M447.428,460.713c0-1.553-1.258-2.811-2.81-2.811c-1.552,0-2.811,1.258-2.811,2.811   c0,1.552,1.258,2.81,2.811,2.81C446.169,463.523,447.428,462.265,447.428,460.713z"/>
	<path fill="#FFFFFF" d="M278.205,306.712c0-1.164-0.944-2.108-2.108-2.108c-1.164,0-2.108,0.944-2.108,2.108   c0,1.164,0.944,2.108,2.108,2.108C277.261,308.82,278.205,307.876,278.205,306.712z"/>
	<path fill="#FFFFFF" d="M749.154,674.266c0-0.814-0.66-1.473-1.473-1.473c-0.814,0-1.474,0.66-1.474,1.473   c0,0.814,0.66,1.474,1.474,1.474C748.494,675.739,749.154,675.08,749.154,674.266z"/>
	<path fill="#FFFFFF" d="M295.265,815.172c0-0.797-0.646-1.442-1.442-1.442c-0.797,0-1.442,0.646-1.442,1.442   c0,0.797,0.646,1.443,1.442,1.443C294.619,816.614,295.265,815.968,295.265,815.172z"/>
	<polygon fill="#FFFFFF" points="791.85,607.096 790.625,612.811 789.4,607.096 785.075,605.73 789.4,604.365 790.625,598.649    791.85,604.365 796.175,605.73  "/>
	<polygon fill="#FFFFFF" points="403.33,421.859 400.156,436.673 396.981,421.859 385.771,418.321 396.981,414.783 400.156,399.969    403.33,414.783 414.54,418.321  "/>
	<polygon fill="#FFFFFF" points="557.547,292.11 554.373,306.924 551.198,292.11 539.988,288.572 551.198,285.034 554.373,270.22    557.547,285.034 568.757,288.572  "/>
	<polygon opacity="0.5" fill="#FFFFFF" points="448.894,360.456 446.903,369.745 444.913,360.456 437.884,358.238 444.913,356.02    446.903,346.731 448.894,356.02 455.922,358.238  "/>
	<polygon fill="#FFFFFF" points="290.558,273.885 288.568,283.174 286.577,273.885 279.549,271.667 286.577,269.448 288.568,260.16    290.558,269.448 297.586,271.667  "/>
	<polygon fill="#FFFFFF" points="704.179,402.507 702.189,411.795 700.198,402.507 693.17,400.288 700.198,398.07 702.189,388.782    704.179,398.07 711.208,400.288  "/>
	<polygon fill="#FFFFFF" points="319.947,471.882 318.703,477.688 317.459,471.882 313.066,470.496 317.459,469.109    318.703,463.304 319.947,469.109 324.339,470.496  "/>
	<polygon fill="#FFFFFF" points="354.261,649.613 352.27,658.901 350.28,649.613 343.251,647.395 350.28,645.177 352.27,635.888    354.261,645.177 361.289,647.395  "/>
	<polygon fill="#FFFFFF" points="427.889,864.244 424.371,880.656 420.854,864.244 408.435,860.324 420.854,856.404    424.371,839.991 427.889,856.404 440.307,860.324  "/>
	<polygon opacity="0.5" fill="#FFFFFF" points="695.216,658.576 693.225,667.864 691.235,658.576 684.206,656.358 691.235,654.139    693.225,644.851 695.216,654.139 702.244,656.358  "/>
	<polygon fill="#FFFFFF" points="316.793,886.302 315.364,892.967 313.936,886.302 308.893,884.71 313.936,883.118 315.364,876.453    316.793,883.118 321.836,884.71  "/>
	<path fill="#FFFFFF" d="M468.908,900.953c0-1.375-1.114-2.489-2.489-2.489c-1.375,0-2.489,1.114-2.489,2.489   c0,1.375,1.115,2.489,2.489,2.489C467.794,903.442,468.908,902.328,468.908,900.953z"/>
	<path fill="#FFFFFF" d="M779.679,906.21c0-1.375-1.115-2.489-2.49-2.489c-1.375,0-2.489,1.115-2.489,2.489   c0,1.375,1.115,2.489,2.489,2.489C778.564,908.7,779.679,907.585,779.679,906.21z"/>
	<path opacity="0.5" fill="#FFFFFF" d="M310.264,771.706c0-2.2-1.783-3.983-3.983-3.983s-3.983,1.783-3.983,3.983   c0,2.2,1.783,3.983,3.983,3.983S310.264,773.905,310.264,771.706z"/>
	<path opacity="0.5" fill="#FFFFFF" d="M431.542,264.592c0.793-2.052-0.227-4.358-2.279-5.151c-2.051-0.793-4.358,0.227-5.151,2.278   c-0.793,2.052,0.227,4.358,2.278,5.152C428.443,267.664,430.749,266.644,431.542,264.592z"/>
	<path opacity="0.5" fill="#FFFFFF" d="M352.198,908.978c0-0.797-0.646-1.442-1.442-1.442c-0.797,0-1.442,0.646-1.442,1.442   c0,0.797,0.646,1.442,1.442,1.442C351.552,910.421,352.198,909.775,352.198,908.978z"/>
	<path opacity="0.5" fill="#FFFFFF" d="M373.538,816.098c0-0.796-0.646-1.442-1.442-1.442c-0.796,0-1.442,0.646-1.442,1.442   c0,0.797,0.646,1.443,1.442,1.443C372.892,817.54,373.538,816.894,373.538,816.098z"/>
	<path opacity="0.5" fill="#FFFFFF" d="M706.506,838.88c0-1.494-1.211-2.705-2.704-2.705c-1.494,0-2.704,1.211-2.704,2.705   c0,1.493,1.211,2.704,2.704,2.704C705.296,841.584,706.506,840.373,706.506,838.88z"/>
	<path fill="#FFFFFF" d="M735.988,825.17c0-0.797-0.646-1.442-1.442-1.442c-0.797,0-1.442,0.646-1.442,1.442   c0,0.796,0.646,1.442,1.442,1.442C735.343,826.612,735.988,825.966,735.988,825.17z"/>
	<path fill="#FFFFFF" d="M593.699,440.13c0-0.797-0.646-1.442-1.442-1.442c-0.797,0-1.442,0.646-1.442,1.442   c0,0.797,0.646,1.442,1.442,1.442C593.053,441.572,593.699,440.926,593.699,440.13z"/>
	<path fill="#FFFFFF" d="M466.452,501.724c0-0.988-0.8-1.788-1.788-1.788c-0.987,0-1.787,0.8-1.787,1.788   c0,0.987,0.8,1.787,1.787,1.787C465.652,503.511,466.452,502.711,466.452,501.724z"/>
	<circle fill="#FFFFFF" cx="349.908" cy="264.592" r="1.442"/>
	<path fill="#FFFFFF" d="M477.744,692.614c0-0.448-0.363-0.811-0.811-0.811c-0.448,0-0.811,0.363-0.811,0.811   c0,0.448,0.363,0.811,0.811,0.811C477.381,693.425,477.744,693.062,477.744,692.614z"/>
	<path fill="#FFFFFF" d="M532.883,868.672c0-0.448-0.363-0.811-0.811-0.811c-0.448,0-0.811,0.363-0.811,0.811   c0,0.448,0.363,0.811,0.811,0.811C532.519,869.483,532.883,869.12,532.883,868.672z"/>
	<path fill="#FFFFFF" d="M794.13,269.328c0-0.448-0.363-0.811-0.811-0.811c-0.448,0-0.811,0.363-0.811,0.811   c0,0.448,0.363,0.811,0.811,0.811C793.767,270.139,794.13,269.776,794.13,269.328z"/>
	<path fill="#FFFFFF" d="M779.033,507.948c0-0.448-0.363-0.811-0.811-0.811c-0.448,0-0.812,0.363-0.812,0.811   c0,0.448,0.363,0.811,0.812,0.811C778.67,508.76,779.033,508.397,779.033,507.948z"/>
	<path fill="#FFFFFF" d="M377.043,709.197c0-0.448-0.363-0.811-0.812-0.811c-0.448,0-0.811,0.363-0.811,0.811   c0,0.448,0.363,0.811,0.811,0.811C376.679,710.008,377.043,709.645,377.043,709.197z"/>
	<path fill="#FFFFFF" d="M827.427,922.414c0-0.797-0.646-1.443-1.442-1.443c-0.797,0-1.442,0.646-1.442,1.443   c0,0.796,0.646,1.442,1.442,1.442C826.781,923.856,827.427,923.21,827.427,922.414z"/>
	<path fill="#FFFFFF" d="M645.185,610.546c0-1.494-1.211-2.704-2.705-2.704c-1.494,0-2.704,1.211-2.704,2.704   c0,1.494,1.211,2.705,2.704,2.705C643.975,613.251,645.185,612.04,645.185,610.546z"/>
	<polygon fill="#FFFFFF" points="579.509,719.325 578.284,725.04 577.059,719.325 572.734,717.959 577.059,716.594 578.284,710.878    579.509,716.594 583.834,717.959  "/>
	<polygon fill="#FFFFFF" points="496.044,624.697 494.819,630.413 493.594,624.697 489.269,623.332 493.594,621.967    494.819,616.251 496.044,621.967 500.369,623.332  "/>
	<polygon opacity="0.5" fill="#FFFFFF" points="554.518,838.059 552.528,847.348 550.537,838.059 543.508,835.841 550.537,833.622    552.528,824.334 554.518,833.622 561.546,835.841  "/>
	<polygon fill="#FFFFFF" points="703.496,900.223 700.669,913.417 697.841,900.223 687.858,897.072 697.841,893.921    700.669,880.727 703.496,893.921 713.48,897.072  "/>
	<polygon opacity="0.5" fill="#FFFFFF" points="823.922,746.744 822.801,751.975 821.68,746.744 817.723,745.496 821.68,744.246    822.801,739.016 823.922,744.246 827.879,745.496  "/>
	<path fill="#FFFFFF" d="M736.298,374.476c0-1.394-1.13-2.524-2.524-2.524c-1.394,0-2.524,1.13-2.524,2.524   c0,1.394,1.13,2.524,2.524,2.524C735.168,377,736.298,375.87,736.298,374.476z"/>
	<g>
		<path fill="#FFFFFF" d="M665.007,624.933c0.618,3.722-1.898,7.239-5.62,7.857c-3.722,0.618-7.239-1.898-7.857-5.62    c-0.618-3.722,1.898-7.239,5.62-7.857C660.871,618.695,664.389,621.211,665.007,624.933z"/>
		<path fill="#FFFFFF" d="M678.576,613.921c0.309,1.861-0.949,3.62-2.81,3.929c-1.861,0.309-3.62-0.949-3.929-2.81    c-0.309-1.861,0.949-3.62,2.81-3.929C676.508,610.802,678.267,612.06,678.576,613.921z"/>
		<path fill="#FFFFFF" d="M693.641,604.969c0.412,2.481-1.266,4.826-3.747,5.238c-2.481,0.412-4.826-1.265-5.238-3.747    c-0.412-2.481,1.265-4.826,3.747-5.238C690.883,600.81,693.229,602.488,693.641,604.969z"/>
	</g>
</g>
<rect x="0" fill="none" width="1080" height="1080"/>
<g>
	<g>
		<g>
			<g>
				<path fill="#F2F2F2" d="M522.556,464.656c27.16-7.431,57.652-1.452,79.995,15.686c4.841,3.714,9.755,9.504,7.661,15.235      c-2.268,6.208-10.595,6.994-17.197,6.67c-11.952-0.587-24.049-1.318-35.446-4.964c-11.398-3.646-22.195-10.561-28.13-20.952"/>
			</g>
			<path fill="#F2F2F2" d="M466.02,463.476c-36.498,22.002-36.429,86.989-12.207,127.169c0.41,0.68,0.842,1.329,1.264,1.992     l-0.079-0.026c0,0,22.532,37.613,53.409,63.806c25.482,21.617,48.925,31.517,60.535,32.861c9.22,1.068,20.253-2.169,7.799-18.946     c-9.91-13.35-31.211-43.347-15.502-50.951c15.709-7.604,28.032,27.183,32.467,38.7c10.121,26.279,20.06,6.121,20.06,6.121     c16.979-65.277-20.199-126.648-31.741-143.6c-2.034-4.183-5.938-10.114-9.102-13.716     C544.991,475.089,502.518,441.474,466.02,463.476z"/>
			<polygon fill="#D3D3D3" points="481.538,524.056 527.374,497.053 555.056,516.425 495.564,556.605    "/>
			<path fill="#F2F2F2" d="M522.77,394.456c-22.167-36.772-76.237-53.464-116.054-29.462     c-39.817,24.003-50.302,79.611-28.134,116.383c22.167,36.772,69.548,42.367,109.364,18.365     C527.762,475.739,544.937,431.228,522.77,394.456z"/>
			<path fill="#D3D3D3" d="M514.705,404.372c-16.11-26.723-57.408-39.61-87.744-21.323c-30.336,18.288-38.223,60.825-22.114,87.548     c16.11,26.723,51.027,29.026,81.363,10.738C516.547,463.048,530.815,431.095,514.705,404.372z"/>
			<path fill="#F2F2F2" d="M442.852,407.469c-4.279-7.098-15.249-10.521-23.307-5.664c-8.058,4.858-10.153,16.157-5.874,23.255     c4.279,7.098,13.554,7.71,21.612,2.852C443.342,423.055,447.131,414.567,442.852,407.469z"/>
			<path fill="#F2F2F2" d="M423.945,442.102c-2.014-3.34-7.176-4.951-10.968-2.665c-3.792,2.286-4.778,7.603-2.764,10.944     c2.014,3.341,6.378,3.628,10.17,1.342C424.175,449.437,425.958,445.443,423.945,442.102z"/>
			<g>
				<path fill="#F2F2F2" d="M472.465,566.844c-1.972-3.764-7.616-2.436-11.44-0.582c-1,0.485-2.003,0.977-3.003,1.476      c-0.018-3.254-0.194-6.628-0.55-10.085c-2.455-23.824-12.328-42.325-22.052-41.323c-9.724,1.002-15.617,21.127-13.162,44.951      c2.268,22.007,10.866,39.435,19.829,41.181l0.068,0.188c11.86,2.939,28.426-16.842,30.669-31.115      C473.071,569.958,473.206,568.258,472.465,566.844z"/>
			</g>
			<path fill="#D3D3D3" d="M558.285,660.147c5.738,5.793,7.706,13.148,4.394,16.427c-3.311,3.28-10.647,1.243-16.385-4.55     c-5.738-5.793-7.706-13.148-4.394-16.427C545.211,652.317,552.547,654.354,558.285,660.147z"/>
			<path fill="#D3D3D3" d="M441.286,584.557c4.331-3.33,9.385-4.022,11.288-1.546c1.903,2.476-0.065,7.182-4.396,10.511     c-4.331,3.33-9.385,4.022-11.288,1.546C434.987,592.593,436.955,587.887,441.286,584.557z"/>
			<path fill="#D3D3D3" d="M597.302,483.35c4.701,2.638,7.198,7.117,5.578,10.005c-1.621,2.888-6.745,3.09-11.446,0.452     c-4.701-2.638-7.198-7.117-5.578-10.005C587.477,480.915,592.601,480.712,597.302,483.35z"/>
			
				<ellipse transform="matrix(0.9817 -0.1905 0.1905 0.9817 -109.8039 126.7596)" fill="#D3D3D3" cx="604.523" cy="634.598" rx="8.439" ry="14.763"/>
		</g>
		<g>
			<defs>
				<path id="SVGID_1_" d="M515.534,404.933c-16.11-26.723-57.408-39.61-87.744-21.323c-30.336,18.288-38.223,60.825-22.114,87.548      c16.11,26.723,51.027,29.026,81.363,10.738C517.376,463.609,531.644,431.656,515.534,404.933z"/>
			</defs>
			<clipPath id="SVGID_2_">
				<use xlink:href="#SVGID_1_" overflow="visible"/>
			</clipPath>
			<g clip-path="url(#SVGID_2_)">
				<path fill="#FFBE55" d="M414.51,497.728c1.42-1.314,2.232-3.08,3.265-4.651c0.604,1.506,0.779,3.311,1.175,4.758      c0.512,1.872,1.123,3.729,1.802,5.547c1.518,4.064,3.533,8.043,6.04,11.587c0.872,1.233,3.031,1.331,3.91,0.031      c1.81-2.68,2.643-5.648,3.99-8.549c1.145-2.463,2.739-4.732,4.469-6.871c0.199,0.915,0.34,1.848,0.524,2.756      c0.354,1.747,2.406,2.869,3.94,1.639c0.742-0.595,6.566-4.987,8.637-6.867c0.13,0.097,0.248,0.182,0.317,0.235      c0.773,0.603,1.61,1.142,2.579,1.353c3.588,0.781,7.182-2.104,9.678-4.805c0.72,0.366,1.417,0.645,2.462,0.473      c1.812-0.298,2.313-1.624,3.572-2.633c2.845-2.28,7.294,2.067,10.41-0.6c1.314-1.124,1.299-3.063,2.419-4.37      c2.313-2.698,3.601-0.614,6.259-1.38c2.181-0.628,2.953-2.561,3.475-4.602c4.063-2.013,13.769-6.101,12.771-10.859      c0.329-0.13,0.658-0.259,0.986-0.389c0.896-0.374,1.854-0.583,2.746-0.977c1.167-0.516,2.368-1.194,3.16-2.227      c1.614-2.106,1.629-4.506,4.448-5.725c2.067-0.894,4.374-1.27,6.502-2.015c1.731-0.607,2.032-3.168,0.578-4.225      c-1.35-0.98-2.853-1.81-4.25-2.765c4.98-2.037,9.922-3.591,15.381-4.306c3.031-0.397,7.746-1.282,6.767-5.38      c-0.79-3.305-4.152-6.407-6.351-8.852c-3.158-3.513-6.888-6.149-10.856-8.509c3.071-0.79,6.273-1.18,9.26-2.34      c1.487-0.578,1.966-2.531,1.021-3.774c-1.865-2.454-4.48-4.121-6.916-5.957c-1.623-1.224-3.267-2.417-5.028-3.437      c-0.121-0.07-0.246-0.134-0.37-0.2c0.791-0.208,1.583-0.418,2.366-0.672c1.703-0.553,2.072-3.235,0.578-4.224      c-6.678-4.422-14.99-6.768-22.267-10.108c-5.913-2.714-12.233-5.13-18.808-4.769c-0.073-2.661-0.109-5.325-0.112-7.995      c-0.005-4.674-0.13-9.349-0.518-14.009c-0.33-3.966-1.238-7.932-1.351-11.902c-0.028-0.994-0.527-1.609-1.197-1.89      c-0.96-0.992-2.573-1.274-3.53,0.2c-0.628,0.967-1.255,1.95-1.884,2.942c-1.121-1.002-3.201-1.076-4.048,0.702      c-0.362,0.758-0.76,1.509-1.18,2.254c-0.853-0.299-1.823-0.116-2.492,0.881c-3.193,4.757-6.632,10.23-8.89,15.747      c-0.765-0.917-2.115-1.394-3.384-0.54c-2.656,1.789-5.659,2.981-8.326,4.728c-0.974-0.724-2.435-0.864-3.462,0.3      c-0.894,1.014-1.597,2.138-2.235,3.301c-1.157-0.596-2.738-0.418-3.414,1.114c-0.465,1.056-0.809,2.147-1.113,3.25      c-4.201,1.954-8.415,3.84-12.318,6.392c-1.732,1.132-1.067,3.176,0.335,4c-2.322,1.556-4.649,3.106-6.993,4.629      c-1.048,0.681-1.214,1.697-0.879,2.578c-4.952,0.209-9.888,1.42-14.696,2.469c-5.267,1.147-11.086,1.111-16.063,3.294      c-1.253,0.55-1.613,1.709-1.388,2.749c-1.967,0.521-3.947,0.985-5.965,1.305c-1.439,0.228-2.073,1.383-2.043,2.517      c-0.051,0.012-0.102,0.026-0.153,0.037c-1.221,0.277-2.411,1.386-2.12,2.775c1.073,5.127,7.998,9.763,12.008,12.445      c3.977,2.659,8.02,5.271,11.861,8.126c1.128,0.838,2.306,1.633,3.483,2.433c-1.939,4.947-2.526,10.335-2.35,15.642      c0.196,5.913,0.912,12.901,3.296,18.353c0.58,1.327,2.576,2.147,3.774,1.021c0.061-0.058,0.122-0.124,0.182-0.192      c-0.012,0.172-0.026,0.347-0.03,0.508c-0.042,1.857-0.05,3.717,0.113,5.567c0.357,4.058,1.342,8.061,2.668,11.904      C411.222,498.113,413.376,498.778,414.51,497.728z"/>
				<path fill="#F2F2F2" d="M378.953,422.588c-0.166-1.027,0.664-2.189,1.731-2.265c5.385-0.385,10.861,1.676,16.021,2.989      c2.541,0.646,4.994,1.498,7.492,2.284c2.372,0.746,4.584,1.497,6.345,3.313c0.91,0.938,0.539,2.017-0.28,2.621      c0.086,0.399,0.06,0.82-0.111,1.198c-0.921,2.028-2.959,6.547-5.521,6.924c-1.269,0.187-2.381-0.626-3.401-1.247      c-1.749-1.066-3.421-2.228-5.221-3.213c-3.521-1.926-7.21-3.547-10.492-5.884C383.31,427.736,379.424,425.5,378.953,422.588z"/>
				<path fill="#F2F2F2" d="M472.294,384.733c2.154-7.278,1.816-15.19,4.534-22.323c0.621-1.63,2.333-3.479,3.807-2.71      c0.857,0.241,1.559,1.004,1.388,1.984c0.297,1.117,0.147,2.363,0.116,3.488c-0.055,2.064-0.019,4.104-0.243,6.157      c0.089,0.987,0.188,1.973,0.311,2.958c0.241,1.929,0.431,3.843,0.487,5.788c0.059,2.047,0.483,4.259,0.212,6.294      c-0.45,3.383-3.658,3.654-6.469,3.457c-1.238-0.087-2.702-0.014-3.627-0.989C471.723,387.691,471.882,386.127,472.294,384.733z"/>
				<path fill="#F2F2F2" d="M459.399,435.873c8.439-5.907,18.446-10.669,28.054-9.576c9.609,1.093,17.769,8.766,16.866,18.178      c-0.58,6.048-4.548,11.732-8.967,16.585c-5.774,6.342-12.695,11.951-20.598,15.345c-7.903,3.394-16.856,4.409-24.277,1.768      C443.718,475.767,426.519,458.89,459.399,435.873z"/>
				<path d="M476.095,457.971c-3.793-4.002-7.02-8.506-9.588-13.385l-1.23,0.647c2.628,4.991,5.928,9.599,9.809,13.693      L476.095,457.971z"/>
				<g>
					<path fill="#F2F2F2" d="M470.896,446.185c0.861-0.987,2.397,0.349,1.535,1.338       C471.569,448.511,470.033,447.174,470.896,446.185z"/>
					<path fill="#F2F2F2" d="M474.539,451.181c0.861-0.987,2.397,0.35,1.534,1.338C475.212,453.507,473.677,452.17,474.539,451.181z       "/>
					<path fill="#F2F2F2" d="M479.413,445.97c0.861-0.988,2.397,0.349,1.534,1.338C480.087,448.296,478.551,446.959,479.413,445.97z       "/>
					<path fill="#F2F2F2" d="M465.008,450.047c0.861-0.987,2.397,0.349,1.534,1.338       C465.681,452.372,464.145,451.036,465.008,450.047z"/>
					<path fill="#F2F2F2" d="M468.553,455.256c0.861-0.988,2.397,0.349,1.534,1.338       C469.227,457.581,467.691,456.244,468.553,455.256z"/>
					<path fill="#F2F2F2" d="M463.065,456.845c0.861-0.987,2.397,0.349,1.534,1.338       C463.738,459.171,462.202,457.835,463.065,456.845z"/>
				</g>
				<path fill="#FF5EB3" d="M458.746,443.58c-0.152-1.486,1.063-2.255,2.103-3.015c0.822-0.601,1.558-1.311,2.379-1.916      c1.867-1.374,5.36-2.852,6.536,0.205c0.271,0.705,0.219,1.499-0.012,2.265c0.104,1.152-0.212,2.352-0.649,3.411      c-0.553,1.341-1.408,2.945-2.998,3.159c-1.402,0.188-3.065-0.491-4.335-1.032C460.47,446.103,458.905,445.143,458.746,443.58z"/>
				<g>
					<path fill="#FF9843" d="M509.337,413.115c-2.447-0.128-4.779-0.191-6.916-0.244c-2.152-0.035-4.092-0.066-5.729-0.092       c-3.302-0.082-5.489-0.325-5.707-1.209c-0.211-0.84,1.647-2.182,5.026-3.293c0.844-0.274,1.779-0.543,2.797-0.756       c1.015-0.243,2.114-0.408,3.275-0.573c2.324-0.285,4.908-0.404,7.612-0.262c2.703,0.159,5.258,0.564,7.536,1.105       c1.136,0.293,2.209,0.579,3.191,0.933c0.988,0.325,1.887,0.696,2.695,1.062c3.235,1.479,4.932,3.019,4.63,3.83       c-0.315,0.854-2.516,0.853-5.806,0.568c-1.629-0.155-3.561-0.339-5.704-0.543C514.107,413.454,511.782,413.259,509.337,413.115       z"/>
					<path fill="#FF9843" d="M501.207,417.319c2.323-0.705,5.659-1.07,9.301-0.705c3.641,0.37,6.837,1.396,8.972,2.552       c2.145,1.156,3.242,2.391,2.967,3.224c-0.281,0.854-1.842,1.166-4.097,1.186c-2.262,0.016-5.23-0.223-8.49-0.556       c-3.26-0.326-6.216-0.686-8.429-1.154c-2.205-0.471-3.672-1.089-3.777-1.982C497.552,419.013,498.875,418.023,501.207,417.319z       "/>
					<path fill="#FF9843" d="M512.303,433.089c-2.622-0.834-4.323-1.629-4.311-2.534c0.01-0.871,1.786-1.692,4.75-1.998       c1.479-0.158,3.245-0.156,5.192,0.025c1.943,0.198,4.066,0.585,6.235,1.208c2.166,0.636,4.166,1.446,5.913,2.32       c1.741,0.89,3.233,1.834,4.398,2.76c2.339,1.846,3.4,3.491,2.941,4.232c-0.475,0.771-2.337,0.531-4.998-0.17       c-1.33-0.357-2.877-0.805-4.567-1.323c-1.687-0.503-3.539-1.056-5.482-1.635c-1.952-0.551-3.811-1.076-5.506-1.555       C515.163,433.951,513.617,433.501,512.303,433.089z"/>
					<path fill="#FF9843" d="M518.845,438.896c4.04,1.09,6.94,3.364,6.477,5.081c-0.463,1.717-4.113,2.225-8.154,1.136       c-4.04-1.089-6.94-3.364-6.477-5.082C511.154,438.315,514.805,437.807,518.845,438.896z"/>
					<path fill="#FF9843" d="M429.617,498.482c0.285-1.955,0.777-4.083,1.521-6.242c0.758-2.155,1.694-4.128,2.684-5.837       c1.009-1.702,2.061-3.145,3.076-4.253c2.026-2.228,3.764-3.163,4.463-2.648c0.732,0.536,0.335,2.379-0.558,4.989       c-0.454,1.305-1.006,2.821-1.631,4.478c-0.608,1.665-1.279,3.475-1.953,5.388c-0.66,1.917-1.258,3.752-1.816,5.435       c-0.539,1.687-1.048,3.219-1.502,4.523c-0.921,2.6-1.754,4.292-2.661,4.257c-0.869-0.03-1.65-1.843-1.854-4.847       C429.279,502.226,429.35,500.442,429.617,498.482z"/>
					<path fill="#FF9843" d="M430.731,484.082c-1.434,2.379-2.829,4.491-4.071,5.993c-1.241,1.494-2.361,2.37-3.214,2.086       c-0.834-0.277-1.231-1.704-0.997-3.818c0.228-2.105,1.133-4.878,2.771-7.593c1.643-2.713,3.678-4.802,5.436-5.982       c1.763-1.189,3.211-1.5,3.844-0.89c0.647,0.623,0.393,2.022-0.354,3.815C433.393,479.491,432.171,481.707,430.731,484.082z"/>
					<path fill="#FF9843" d="M413.63,482.59c0.157-0.762,0.365-1.59,0.671-2.449c0.274-0.875,0.666-1.766,1.089-2.705       c0.891-1.851,2.073-3.798,3.557-5.658c1.498-1.847,3.147-3.42,4.764-4.687c0.827-0.614,1.614-1.189,2.409-1.644       c0.774-0.482,1.538-0.863,2.249-1.18c2.857-1.26,4.889-1.329,5.279-0.563c0.419,0.812-0.788,2.285-2.68,4.301       c-0.474,0.507-0.998,1.039-1.538,1.631c-0.561,0.564-1.118,1.207-1.729,1.845c-1.186,1.316-2.461,2.761-3.737,4.332       c-1.261,1.584-2.399,3.138-3.43,4.578c-0.493,0.733-1,1.415-1.432,2.084c-0.463,0.654-0.869,1.28-1.264,1.851       c-1.563,2.281-2.743,3.776-3.627,3.54C413.379,487.651,413.011,485.651,413.63,482.59z"/>
					<path fill="#FF9843" d="M421.842,463.485c-1.343,1.401-2.595,2.759-3.752,4.002c-1.14,1.255-2.194,2.39-3.109,3.35       c-1.839,1.908-3.25,3.067-4.067,2.673c-0.784-0.374-0.804-2.294,0.18-5.044c0.486-1.375,1.25-2.929,2.264-4.557       c1.03-1.616,2.319-3.298,3.853-4.896c1.544-1.589,3.18-2.936,4.759-4.021c1.592-1.07,3.119-1.888,4.475-2.422       c2.715-1.08,4.634-1.127,5.035-0.357c0.422,0.803-0.687,2.253-2.529,4.158c-0.928,0.948-2.025,2.041-3.239,3.224       C424.508,460.795,423.195,462.095,421.842,463.485z"/>
				</g>
				<g>
					<path d="M475.049,413.958c0.793,1.277,1.393,3.809,0.937,5.241c-0.514,1.616-2.376,2.534-4.065,2.369       c-1.688-0.165-3.182-1.198-4.341-2.436c-1.092-1.165-1.976-2.578-2.254-4.151c-0.278-1.573,0.012-3.442,1.275-4.42       C470.139,407.818,473.47,411.414,475.049,413.958z"/>
					<path fill="#F2F2F2" d="M473.879,416.624c-0.505,0.449-1.334,0.432-1.87,0.02c-1.027-0.789-0.757-2.822,0.725-2.751       C473.999,413.954,474.917,415.702,473.879,416.624z"/>
				</g>
				<g>
					<path d="M437.588,439.458c0.793,1.277,1.393,3.809,0.937,5.241c-0.514,1.616-2.376,2.534-4.065,2.369       c-1.688-0.165-3.182-1.198-4.341-2.436c-1.092-1.165-1.976-2.578-2.254-4.151c-0.278-1.573,0.012-3.442,1.275-4.421       C432.678,433.319,436.008,436.915,437.588,439.458z"/>
					<path fill="#F2F2F2" d="M436.418,442.125c-0.505,0.449-1.334,0.432-1.87,0.02c-1.027-0.789-0.757-2.822,0.725-2.751       C436.537,439.455,437.456,441.202,436.418,442.125z"/>
				</g>
				<g>
					<path fill="#F2F2F2" d="M514.07,441.544c-3.531-0.713-7.459-1.276-11.612-1.494c-4.155-0.177-8.118,0.012-11.701,0.387       c-1.785,0.242-3.489,0.433-5.058,0.764c-0.787,0.154-1.554,0.268-2.279,0.438c-0.724,0.173-1.419,0.339-2.083,0.498       c-1.337,0.284-2.509,0.677-3.555,0.967c-0.521,0.154-1.011,0.282-1.454,0.422c-0.44,0.15-0.842,0.286-1.205,0.409       c-1.452,0.485-2.272,0.722-2.3,0.654c-0.029-0.068,0.738-0.436,2.154-1.045c0.356-0.151,0.751-0.318,1.182-0.501       c0.437-0.171,0.921-0.328,1.437-0.51c1.038-0.348,2.207-0.796,3.546-1.13c0.666-0.182,1.364-0.373,2.091-0.571       c0.729-0.193,1.501-0.329,2.294-0.504c1.583-0.373,3.305-0.601,5.112-0.873c3.627-0.436,7.652-0.657,11.87-0.477       c4.216,0.221,8.202,0.823,11.772,1.6c1.773,0.442,3.466,0.832,5.006,1.353c0.773,0.249,1.529,0.458,2.236,0.719       c0.704,0.267,1.381,0.522,2.027,0.767c1.301,0.46,2.423,1.016,3.423,1.461c0.497,0.23,0.964,0.433,1.383,0.644       c0.412,0.223,0.789,0.427,1.129,0.611c1.352,0.74,2.08,1.179,2.046,1.245c-0.035,0.065-0.829-0.248-2.228-0.869       c-0.35-0.157-0.737-0.332-1.161-0.522c-0.428-0.182-0.904-0.356-1.407-0.558c-1.014-0.389-2.144-0.89-3.448-1.3       c-0.646-0.221-1.322-0.452-2.026-0.693c-0.705-0.238-1.459-0.424-2.227-0.652C517.502,442.305,515.824,441.954,514.07,441.544z       "/>
					<path fill="#F2F2F2" d="M477.766,447.818c0.515,0.02,1.072,0.065,1.672,0.102c1.199,0.089,2.57,0.15,4.072,0.351       c0.753,0.089,1.541,0.182,2.362,0.279c0.821,0.101,1.667,0.261,2.548,0.397c1.765,0.256,3.626,0.668,5.589,1.076       c3.907,0.903,8.157,2.105,12.509,3.688c4.34,1.615,8.356,3.455,11.916,5.299c1.76,0.961,3.443,1.853,4.954,2.803       c0.759,0.466,1.507,0.894,2.198,1.348c0.688,0.459,1.349,0.899,1.98,1.319c1.274,0.821,2.358,1.663,3.329,2.372       c0.482,0.36,0.935,0.688,1.34,1.006c0.397,0.327,0.76,0.626,1.088,0.896c1.302,1.082,1.998,1.706,1.952,1.764       c-0.047,0.058-0.83-0.456-2.205-1.432c-0.343-0.246-0.723-0.518-1.139-0.816c-0.426-0.286-0.888-0.596-1.384-0.929       c-0.998-0.659-2.105-1.451-3.396-2.225c-0.638-0.398-1.306-0.816-2.002-1.251c-0.697-0.432-1.449-0.839-2.211-1.284       c-1.517-0.909-3.201-1.763-4.957-2.692c-3.551-1.779-7.537-3.572-11.833-5.171c-4.308-1.567-8.505-2.784-12.362-3.732       c-1.939-0.431-3.775-0.872-5.519-1.163c-0.87-0.155-1.706-0.333-2.517-0.455c-0.811-0.12-1.591-0.235-2.335-0.345       c-1.485-0.248-2.841-0.361-4.028-0.506c-0.593-0.068-1.147-0.132-1.656-0.19c-0.51-0.043-0.976-0.081-1.397-0.116       c-1.679-0.148-2.609-0.265-2.607-0.339c0.002-0.074,0.937-0.098,2.63-0.078C476.781,447.801,477.251,447.809,477.766,447.818z"/>
					<path fill="#F2F2F2" d="M482.886,445.053c-6.225,0.397-9.998,1.391-10.039,1.191c-0.016-0.064,0.908-0.371,2.62-0.78       c1.711-0.412,4.223-0.872,7.362-1.168c3.137-0.3,6.909-0.376,11.07-0.008c4.158,0.364,8.699,1.217,13.3,2.67       c4.592,1.482,8.786,3.416,12.387,5.528c3.605,2.109,6.635,4.357,9.019,6.419c2.387,2.06,4.168,3.89,5.324,5.217       c1.158,1.325,1.733,2.11,1.684,2.153c-0.149,0.139-2.648-2.857-7.493-6.786c-4.809-3.93-12.188-8.621-21.247-11.508       C497.814,445.087,489.082,444.637,482.886,445.053z"/>
					<path fill="#F2F2F2" d="M469.507,502.859c-0.309-0.892-0.686-1.901-1.013-3.044c-0.171-0.57-0.35-1.167-0.537-1.788       c-0.183-0.623-0.338-1.281-0.516-1.958c-0.37-1.35-0.669-2.816-0.999-4.355c-0.602-3.09-1.114-6.518-1.413-10.142       c-0.276-3.625-0.311-7.092-0.204-10.238c0.084-1.572,0.148-3.067,0.3-4.458c0.069-0.696,0.119-1.37,0.201-2.014       c0.086-0.643,0.169-1.261,0.248-1.851c0.143-1.181,0.356-2.237,0.52-3.166c0.159-0.931,0.336-1.725,0.497-2.37       c0.31-1.293,0.515-1.998,0.587-1.983c0.175,0.035-0.368,2.917-0.851,7.611c-0.056,0.587-0.116,1.202-0.178,1.842       c-0.06,0.64-0.088,1.31-0.138,2.001c-0.112,1.382-0.143,2.862-0.199,4.419c-0.051,3.115,0.013,6.54,0.285,10.123       c0.296,3.582,0.773,6.974,1.315,10.042c0.301,1.528,0.564,2.985,0.893,4.332c0.158,0.674,0.291,1.331,0.452,1.954       c0.162,0.623,0.317,1.22,0.466,1.791c1.217,4.559,2.208,7.319,2.04,7.382c-0.069,0.026-0.383-0.638-0.893-1.866       C470.111,504.509,469.811,503.753,469.507,502.859z"/>
					<path fill="#F2F2F2" d="M455.014,499.99c-0.664-5.144-1.467-12.345-0.891-20.32c0.31-3.981,0.976-7.747,1.924-11.08       c0.947-3.334,2.143-6.235,3.381-8.544c1.233-2.312,2.441-4.062,3.364-5.195c0.919-1.136,1.498-1.701,1.547-1.66       c0.167,0.125-1.985,2.559-4.233,7.198c-1.13,2.309-2.228,5.179-3.105,8.463c-0.878,3.284-1.503,6.984-1.808,10.9       c-0.567,7.85,0.105,15.001,0.575,20.154c0.245,2.573,0.443,4.659,0.581,6.117c0.124,1.447,0.159,2.252,0.086,2.262       c-0.073,0.01-0.249-0.777-0.5-2.208C455.684,504.644,455.356,502.568,455.014,499.99z"/>
					<path fill="#F2F2F2" d="M431.792,494.327c0.212-0.645,0.49-1.427,0.853-2.319c0.358-0.894,0.746-1.923,1.252-3.025       c0.487-1.112,1.03-2.325,1.674-3.6c0.611-1.292,1.344-2.63,2.102-4.045c1.566-2.804,3.411-5.821,5.531-8.863       c2.138-3.03,4.346-5.793,6.448-8.22c1.073-1.196,2.081-2.341,3.087-3.355c0.979-1.039,1.935-1.963,2.814-2.8       c0.864-0.852,1.699-1.566,2.418-2.208c0.715-0.645,1.356-1.173,1.89-1.592c1.06-0.846,1.668-1.286,1.716-1.23       c0.115,0.134-2.125,2.119-5.49,5.569c-0.839,0.865-1.756,1.812-2.699,2.869c-0.97,1.032-1.944,2.189-2.987,3.391       c-2.042,2.44-4.203,5.192-6.319,8.192c-2.099,3.012-3.951,5.981-5.549,8.733c-0.775,1.389-1.53,2.7-2.17,3.963       c-0.672,1.246-1.25,2.432-1.778,3.515c-2.097,4.339-3.2,7.121-3.365,7.059C431.151,496.334,431.358,495.613,431.792,494.327z"/>
				</g>
			</g>
		</g>
	</g>
	<circle cx="477.749" cy="460.814" r="4.485"/>
</g>
</svg>