<?xml version="1.0" encoding="UTF-8"?>
<svg width="1040px" height="904px" viewBox="0 0 1040 904" version="1.1" xmlns="http://www.w3.org/2000/svg" xmlns:xlink="http://www.w3.org/1999/xlink">
    <!-- Generator: Sketch 63.1 (92452) - https://sketch.com -->
    <title>launch</title>
    <desc>Created with Sketch.</desc>
    <g id="Page-1" stroke="none" stroke-width="1" fill="none" fill-rule="evenodd">
        <g id="launch" fill-rule="nonzero">
            <g id="Group" transform="translate(2.000000, 265.000000)" fill="#F2F2F2">
                <path d="M980,353 C970.2,353 961.1,356 953.4,361.1 C951.7,334.8 929.8,314 903,314 C894.5,314 886.5,316.1 879.5,319.8 C879.5,319.4 879.5,318.9 879.5,318.5 C879.5,264.7 835.8,221 782,221 C755.5,221 731.6,231.5 714,248.6 C711.6,237.1 700.8,228.7 688.3,230.1 C677.1,231.3 668.2,240.7 667.5,251.9 C666.6,265.6 677.5,276.9 691,276.9 C692,276.9 692.9,276.8 693.8,276.7 C687.8,289.3 684.5,303.5 684.5,318.4 C684.5,318.8 684.5,319.2 684.5,319.6 L515.5,277 L515.5,277 L515.3,277.1 L515,277 L515,277.1 L346,319.7 C346,319.3 346,318.9 346,318.5 C346,303.6 342.6,289.5 336.7,276.8 C337.6,276.9 338.6,277 339.5,277 C353,277 363.8,265.7 363,252 C362.3,240.7 353.4,231.4 342.2,230.2 C329.7,228.8 319,237.2 316.5,248.7 C298.9,231.6 274.9,221.1 248.5,221.1 C194.7,221.1 151,264.8 151,318.6 C151,319 151,319.5 151,319.9 C144,316.2 136,314.1 127.5,314.1 C100.7,314.1 78.9,334.9 77.1,361.2 C69.4,356.1 60.2,353.1 50.5,353.1 C22.6,353 0,377.2 0,407 L0,409.2 C0,499.1 72.9,572 162.8,572 L515,572 L515.5,572 L882.1,572 C964.1,572 1030.5,505.6 1030.5,423.6 L1030.5,407 C1030.5,377.2 1007.9,353 980,353 Z" id="Path"></path>
                <path d="M528.9,0 L515.9,0 L515.9,0 L515.4,0 L514.9,0 L514.9,0 L501.9,0 C490.9,71 366.9,317 177.9,317 C223.3,317 496.4,317 514.9,317 C515.6,317 515.9,317 515.9,317 C534.4,317 807.5,317 852.9,317 C663.9,317 539.9,71 528.9,0 Z" id="Path"></path>
            </g>
            <path d="M1029.6,903.3 L10.4,903.3 C4.7,903.3 0,898.6 0,892.9 L0,831.4 C0,825.7 4.7,821 10.4,821 L1029.6,821 C1035.3,821 1040,825.7 1040,831.4 L1040,892.9 C1040,898.7 1035.3,903.3 1029.6,903.3 Z" id="Path" fill="#F7F7F7"></path>
            <g id="Group" transform="translate(272.000000, 436.000000)">
                <path d="M281.8,52.5 C282.6,43 285,30.3 281.8,22.4 C278.6,14.5 272.3,8.9 265.9,6.5 C259.6,4.1 250.8,-0.6 242.9,0.2 C235,1 223.1,8.9 219.1,12.9 C215.1,16.9 209.6,31.1 209.6,36.7 C209.6,42.2 214.4,49.4 215.9,54.1 C217.4,58.8 215.9,70.7 226.2,75.5 C236.5,80.3 238.1,84.2 251.6,81 C265.1,77.8 277.8,70.7 278.6,67.5 C279.4,64.3 281.8,52.5 281.8,52.5 Z" id="Path" fill="#0E538C"></path>
                <path d="M248,70.2 L248,70.2 C289.5,70.2 323.5,104.2 323.5,145.7 L323.5,271.1 C323.5,276.3 319.2,280.6 314,280.6 L182,280.6 C176.8,280.6 172.5,276.3 172.5,271.1 L172.5,145.7 C172.5,104.1 206.5,70.2 248,70.2 Z" id="Path" fill="#E2E2E2"></path>
                <rect id="Rectangle" fill="#DCF2FF" x="0" y="221.7" width="496" height="14"></rect>
                <rect id="Rectangle" fill="#B6E7FF" x="35.7" y="235.7" width="424.7" height="194.1"></rect>
                <path d="M333.4,177.7 L321.3,113.5 C318.8,94.9 256.4,79.4 256.4,79.4 C251.6,79.4 243.6,79.4 238.8,79.4 C238.8,79.4 176.1,96 173.6,114.6 L158,178.5 C154.1,207.5 178.2,205.4 204.2,213.9 L238.9,225.3 C243.7,225.3 251.7,225.3 256.5,225.3 L291.2,213.9 C317.1,205.4 337.4,206.7 333.4,177.7 Z" id="Path" fill="#FFBE55"></path>
                <path d="M317.4,128.6 L317.4,129.1 L315.1,227.1 C313.9,228.1 312.3,228.7 310.6,228.7 L183.2,228.7 C182.8,228.7 182.4,228.7 182.1,228.6 L179.5,128.6 L317.4,128.6 Z" id="Path" fill="#2A94F4"></path>
                <polygon id="Path" fill="#FCD2B1" points="229.9 67.8 235.2 94.3 248.3 117.2 259.2 94.3 263.5 67.4"></polygon>
                <path d="M278,42.5 C278,71.3 273,82.6 255,89.2 C250.4,90.9 245.5,90.7 240.8,89.3 C223.1,84.1 218,71 218,42.5 C218,24.2 228.7,18.3 245.3,18.3 C261.9,18.3 278,24.2 278,42.5 Z" id="Path" fill="#FFE3CA"></path>
                <ellipse id="Oval" fill="#FFE3CA" transform="translate(218.692640, 53.671540) rotate(-5.883344) translate(-218.692640, -53.671540) " cx="218.69264" cy="53.67154" rx="5.99980302" ry="10.6996487"></ellipse>
                <ellipse id="Oval" fill="#FFE3CA" transform="translate(278.159490, 53.746510) rotate(-84.116656) translate(-278.159490, -53.746510) " cx="278.15949" cy="53.74651" rx="10.6996487" ry="5.99980302"></ellipse>
                <path d="M321.3,135.4 L317.7,221.6 C317.7,223.8 316.7,225.8 315.1,227.1 C313.9,228.1 312.3,228.7 310.6,228.7 L183.2,228.7 C182.8,228.7 182.4,228.7 182.1,228.6 C178.7,228.1 176.1,225.1 176.1,221.6 L172.5,135.4 C172.5,131.5 175.7,128.3 179.6,128.3 L314.2,128.3 C314.8,128.3 315.4,128.4 316,128.5 C316.5,128.6 317,128.8 317.4,129 C319.7,130.3 321.3,132.7 321.3,135.4 Z" id="Path" fill="#2A94F4"></path>
                <circle id="Oval" fill="#FFFFFF" cx="246.7" cy="178.5" r="13.4"></circle>
                <g transform="translate(80.000000, 167.000000)" fill="#FFBE55" id="Path">
                    <path d="M19.8,58.3 L10,58.3 C5,58.3 0.9,54.2 0.9,49.2 L0.9,19.9 L28.9,19.9 L28.9,49.2 C28.9,54.2 24.8,58.3 19.8,58.3 Z"></path>
                    <path d="M16,16.5 C15.5,16.5 15.1,16.3 14.7,16.1 C14.3,15.8 14,15.4 13.7,15 C13.2,14.2 12.9,13.2 12.9,12.1 C12.9,11 13.5,9.8 14.2,9.1 C14.9,8.3 15.5,7.8 15.8,7.4 C16.2,7 16.3,6.8 16.5,6.3 C16.6,5.9 16.7,5.3 16.7,4.7 C16.7,3.5 16.2,2 15.8,0.3 C16.6,0.6 17.4,1.1 18.1,1.7 C18.8,2.3 19.4,3.1 19.7,4 C20.1,4.9 20.3,5.9 20.2,7 C20.2,7.6 20,8.1 19.7,8.7 C19.4,9.2 19.1,9.7 18.7,10.1 C18,10.9 17.3,11.3 16.9,11.7 C16.5,12.1 16.2,12.3 16,12.7 C15.8,13.1 15.6,13.8 15.6,14.4 C15.5,15.1 15.5,15.8 16,16.5 Z" opacity="0.59"></path>
                    <path d="M25.6,42.9 L25.6,40.5 C29.2,40.5 31.7,39.4 32.7,37.3 C33.5,35.7 33.3,33.8 32.1,32.3 C30.7,30.5 28.4,29.7 25.8,30.2 L25.4,27.9 C28.9,27.3 32.2,28.4 34.1,30.9 C35.8,33.1 36.1,36 34.9,38.4 C34,40.1 31.7,42.9 25.6,42.9 Z"></path>
                </g>
                <g transform="translate(375.000000, 145.000000)" id="Path">
                    <polygon fill="#2A94F4" points="13.1 36.6 7.4 37.7 1.8 7 3.6 0.7 7.5 6"></polygon>
                    <polygon fill="#DCF2FF" points="31.9 43.1 26.3 41.7 33.7 11.5 38 6.4 39.4 12.9"></polygon>
                    <polygon fill="#80D5FF" points="29.6 39.7 23.8 39 27.4 8 31 2.5 33.2 8.7"></polygon>
                    <polygon fill="#FFBE55" points="38.4 20.1 38 30.3 37 54.1 36 80.3 3.3 80.3 2 54.1 0.7 30.3 0.2 20.1"></polygon>
                    <polygon fill="#2A94F4" points="38 30.3 37 54.1 2 54.1 0.7 30.3"></polygon>
                </g>
                <path d="M215.1,38.2 C213.2,36.9 215.3,31.6 214.8,29.2 C214.2,26.6 215.6,24 217.2,22 C222.2,16.2 229.6,13.9 236.8,13.4 C244,12.9 251.2,13.8 258.3,13.1 C265.5,12.4 272.9,9.7 277.5,3.5 C277.9,3 280.5,2.9 281.1,3.7 C283.3,6.7 285.5,9.8 286.9,13.4 C288.3,17 288.6,21.2 287.1,24.8 C285.1,29.4 279.2,32.8 274.9,34.4 C274.9,34.2 235.5,51.7 215.1,38.2 Z" id="Path" fill="#0E538C"></path>
                <polygon id="Path" fill="#0E538C" points="268.3 31.9 277 50.1 281.8 28.7"></polygon>
                <path d="M224.7,35.8 C223.1,37.4 220.7,54 220.7,54 L214.3,34.5 L224.7,35.8 Z" id="Path" fill="#0E538C"></path>
                <rect id="Rectangle" fill="#80D5FF" x="35.9" y="236" width="424.3" height="6.8"></rect>
            </g>
            <g id="Group" transform="translate(456.000000, 0.000000)">
                <polygon id="Path" fill="#FFBE55" points="26.6 206.3 0.7 239.6 41.9 292.9 42 255.8"></polygon>
                <polygon id="Path" fill="#FFBE55" points="96.2 206.4 122 239.7 80.7 293 80.7 255.8"></polygon>
                <polygon id="Path" fill="#0E538C" points="76 249.7 74.5 265 47.8 265 46.7 249.7"></polygon>
                <path d="M61.6,0 C61.6,0 94.4,47.1 105.3,101.2 C105.5,102.2 105.7,103.2 105.9,104.2 C106.1,105.2 106.3,106.2 106.4,107.2 C107.9,116.1 108.8,125.2 108.8,134.3 C108.8,178 95.2,227.3 81.4,255.8 L42,255.8 C28.2,227.2 14.1,177.9 14.1,134.2 C14.1,125.2 15,116.1 16.5,107.1 C16.7,106.1 16.9,105.1 17,104.1 C17.2,103.1 17.4,102.1 17.6,101.1 C28.7,47.1 61.6,0 61.6,0 Z" id="Path" fill="#CCE9FF"></path>
                <g transform="translate(16.000000, 0.000000)" fill="#FFBE55" id="Path">
                    <path d="M45.6,0 C45.6,0 78.4,47.1 89.3,101.2 C89.5,102.2 89.7,103.2 89.9,104.2 C76.3,113.7 60.9,118.8 45.5,118.7 C30.1,118.7 14.8,113.6 1.1,104.1 C1.3,103.1 1.5,102.1 1.7,101.1 C12.7,47.1 45.6,0 45.6,0 Z"></path>
                    <path d="M1.7,101.1 C1.5,102.1 1.3,103.1 1.1,104.1 C0.9,105.1 0.7,106.1 0.6,107.1 C7,111.5 13.8,114.9 20.8,117.3 C28.8,120.1 37.2,121.5 45.5,121.5 C53.9,121.5 62.2,120.1 70.2,117.4 C77.2,115 84,111.6 90.4,107.2 C90.2,106.2 90.1,105.2 89.9,104.2 C89.7,103.2 89.5,102.2 89.3,101.2 C76.2,110.6 61.3,116 45.5,116 C29.7,115.9 14.8,110.6 1.7,101.1 Z"></path>
                </g>
                <path d="M23.7,90.1 C27.9,74.4 50.3,23.2 58.3,12 C55.2,22.5 28.9,85.2 33.1,90.1 C27.6,90.8 23.7,90.1 23.7,90.1 Z" id="Path" fill="#FFFFFF"></path>
                <polygon id="Path" fill="#FFBE55" points="66.6 206.4 66.5 275.8 61.3 292.9 56.1 275.8 56.2 206.4"></polygon>
            </g>
            <circle id="Oval" fill="#F2F2F2" cx="988" cy="539" r="36"></circle>
            <circle id="Oval" fill="#F2F2F2" cx="886.5" cy="514.5" r="8.5"></circle>
            <circle id="Oval" fill="#F2F2F2" cx="915.5" cy="450.5" r="20.5"></circle>
            <circle id="Oval" fill="#F2F2F2" cx="80.5" cy="488.5" r="34.5"></circle>
            <circle id="Oval" fill="#F2F2F2" cx="153.5" cy="514.5" r="8.5"></circle>
            <circle id="Oval" fill="#F2F2F2" cx="156.5" cy="415.5" r="20.5"></circle>
            <g id="Group" transform="translate(776.000000, 640.000000)">
                <path d="M100.7,208.5 C84.4,208.5 77.5,195.4 74.7,181.6 C71.6,166 73.9,149.3 73.9,149.3 L127.5,149.3 C127.5,149.3 127.6,149.9 127.7,151.1 C128.6,161 131.9,208.5 100.7,208.5 Z" id="Path" fill="#B6E7FF"></path>
                <path d="M127.5,149.4 C127.5,150.6 115.5,151.5 100.7,151.5 C85.9,151.5 73.9,150.6 73.9,149.4 C73.9,148.2 85.9,147.3 100.7,147.3 C115.5,147.3 127.5,148.2 127.5,149.4 Z" id="Path" fill="#85DDFF"></path>
                <path d="M34,0.9 C34,0.9 62.2,43.9 79.2,70.1 C96.1,96.3 100.6,101.8 102.6,110.3 C104.6,118.8 106.4,150 106.4,150 L108.6,150 C108.6,150 110,123.6 107.4,114.9 C104.8,106.2 105.8,102.8 107,93.7 C108.2,84.6 109.8,70.1 100.6,60 C91.4,49.9 93.8,40 90.6,33.4 C87.4,26.7 62.4,18.7 59.1,11.8 C56,4.9 41.9,0.7 34,0.9 Z" id="Path" fill="#FFBE55"></path>
                <path d="M34,0.9 C34,0.9 42.9,11 48.9,14.4 C55,17.8 57.8,14.8 62.4,23.1 C67,31.4 67.2,35 71.5,39.2 C75.7,43.4 80.8,43.6 81.2,52.9 C81.6,62.2 79.2,70.1 79.2,70.1 C79.2,70.1 35.8,3.1 34,0.9 Z" id="Path" fill="#FFFFFF" opacity="0.26"></path>
                <path d="M99.8,150 L97.8,150 C97.8,150 97.2,136.3 91.7,129.6 C88.2,125.3 73.3,120.4 58.5,114.6 C50.4,111.4 42.3,107.9 36.2,104 C19,93.1 2.7,58 1.3,51.7 C0.8,49.5 0.6,48.2 0.6,47.3 L0.6,47.3 C0.6,45.6 1.5,45.4 2.9,43.7 C3.6,42.9 5.7,43.2 8.2,43.9 C15.6,46.2 21.8,51.2 25.7,57.9 C29.3,64.1 35,71.8 42,73.7 C54.1,76.9 53.1,78.9 57.6,91.3 C62.1,103.6 73.3,105.6 87.4,120.1 C101.6,134.7 99.8,150 99.8,150 Z" id="Path" fill="#FFBE55"></path>
                <path d="M58.5,114.6 C50.4,111.4 42.3,107.9 36.2,104 C19,93.1 2.7,58 1.3,51.7 C0.8,49.5 0.6,48.2 0.6,47.3 C0.6,47.7 1.4,53.3 10.4,57 C19.7,60.8 21.5,60.8 22.7,66.7 C23.9,72.5 24.9,78.8 29.8,80 C34.6,81.2 37.7,75.8 41.5,84.6 C45.3,93.5 47.2,96.5 50.7,97.7 C54.2,98.9 56.9,97.1 57.7,104 C58.1,108.2 58.4,112.1 58.5,114.6 Z" id="Path" fill="#FFFFFF" opacity="0.26"></path>
                <path d="M100.7,208.5 C84.4,208.5 77.5,195.4 74.7,181.6 C90.7,175.5 110.9,165.8 127.6,151.1 C128.6,161 131.9,208.5 100.7,208.5 Z" id="Path" fill="#CCE9FF"></path>
            </g>
            <g id="Group" transform="translate(88.000000, 599.000000)">
                <path d="M87.1,249.5 C106.7,249.5 115,233.8 118.2,217.2 C121.9,198.5 119.2,178.5 119.2,178.5 L55,178.5 C55,178.5 54.9,179.3 54.8,180.6 C53.5,192.5 49.6,249.5 87.1,249.5 Z" id="Path" fill="#B6E7FF"></path>
                <path d="M54.9,178.6 C54.9,180 69.3,181.1 87,181.1 C104.7,181.1 119.1,180 119.1,178.6 C119.1,177.2 104.7,176.1 87,176.1 C69.3,176.1 54.9,177.2 54.9,178.6 Z" id="Path" fill="#85DDFF"></path>
                <path d="M0.1,0.6 C0.1,0.6 34,52.1 54.3,83.6 C74.6,115.1 79.9,121.6 82.4,131.7 C84.8,141.9 87,179.4 87,179.4 L88.5,179.4 C88.5,179.4 88,147.6 86.1,136.9 C84.3,126.5 86.2,122.8 87.7,111.9 C89.2,101 91.1,83.6 80.1,71.5 C69.1,59.4 72,47.6 68.1,39.6 C64.2,31.6 34.2,21.9 30.4,13.7 C26.5,5.4 9.5,0.3 0.1,0.6 Z" id="Path" fill="#FFBE55"></path>
                <path d="M0.1,0.6 C0.1,0.6 10.7,12.7 18,16.8 C25.3,20.9 28.6,17.3 34.2,27.2 C39.8,37.1 40,41.5 45.1,46.6 C50.2,51.7 56.2,51.9 56.7,63 C57.2,74.1 54.3,83.6 54.3,83.6 C54.3,83.6 2.3,3.2 0.1,0.6 Z" id="Path" fill="#FFFFFF" opacity="0.26"></path>
                <path d="M84.3,179.3 L82.8,179.3 C82.8,179.3 82.3,169 78.3,164 C75.7,160.8 64.5,157.1 53.4,152.7 C47.3,150.3 41.2,147.6 36.7,144.7 C23.8,136.5 11.5,110.1 10.5,105.4 C10.1,103.8 10,102.8 10,102.1 L10,102.1 C10,100.8 10.7,100.6 11.7,99.4 C12.2,98.8 13.8,99 15.7,99.6 C21.3,101.3 25.9,105.1 28.8,110.1 C31.5,114.8 35.8,120.6 41,122 C50.1,124.4 49.3,125.9 52.7,135.2 C56,144.4 64.5,146 75.1,156.9 C85.6,167.8 84.3,179.3 84.3,179.3 Z" id="Path" fill="#FFBE55"></path>
                <path d="M53.3,152.8 C47.2,150.4 41.1,147.7 36.6,144.8 C23.7,136.6 11.4,110.2 10.4,105.5 C10,103.9 9.9,102.9 9.9,102.2 C9.9,102.5 10.5,106.7 17.2,109.5 C24.2,112.4 25.5,112.4 26.4,116.8 C27.3,121.2 28.1,125.9 31.7,126.8 C35.3,127.7 37.6,123.6 40.5,130.3 C43.4,137 44.8,139.2 47.4,140.1 C50,141 52.1,139.6 52.6,144.8 C53,147.9 53.2,150.9 53.3,152.8 Z" id="Path" fill="#FFFFFF" opacity="0.26"></path>
                <path d="M95.4,179.3 L97.2,179.3 C97.2,179.3 100.7,115.5 105.6,109.6 C108.7,105.8 119,98.9 132.2,93.7 C139.4,90.8 146.6,87.7 152,84.3 C167.3,74.6 181.8,43.4 183,37.8 C183.4,35.9 183.6,34.7 183.6,33.9 L183.6,33.9 C183.6,32.4 182.8,32.2 181.5,30.7 C180.9,30 179,30.2 176.8,30.9 C170.2,32.9 164.7,37.4 161.2,43.4 C158,48.9 152.9,55.8 146.7,57.5 C135.9,60.4 136.8,62.2 132.9,73.1 C128.9,84.1 118.9,85.8 106.4,98.8 C93.8,111.6 95.4,179.3 95.4,179.3 Z" id="Path" fill="#FFBE55"></path>
                <path d="M132.1,93.8 C139.3,90.9 146.5,87.8 151.9,84.4 C167.2,74.7 181.7,43.5 182.9,37.9 C183.3,36 183.5,34.8 183.5,34 C183.5,34.4 182.7,39.3 174.8,42.6 C166.6,46 164.9,46 163.9,51.2 C162.8,56.4 161.9,62 157.6,63 C153.3,64.1 150.6,59.2 147.2,67.1 C143.8,75 142.2,77.7 139,78.8 C135.9,79.9 133.5,78.3 132.8,84.4 C132.5,88 132.2,91.6 132.1,93.8 Z" id="Path" fill="#FFFFFF" opacity="0.26"></path>
                <path d="M87.1,249.5 C106.7,249.5 115,233.8 118.2,217.2 C99,209.9 74.8,198.2 54.7,180.6 C53.5,192.5 49.6,249.5 87.1,249.5 Z" id="Path" fill="#CCE9FF"></path>
            </g>
        </g>
    </g>
</svg>