<?xml version="1.0" encoding="UTF-8"?>
<svg width="770px" height="694px" viewBox="0 0 770 694" version="1.1" xmlns="http://www.w3.org/2000/svg" xmlns:xlink="http://www.w3.org/1999/xlink">
    <!-- Generator: Sketch 63.1 (92452) - https://sketch.com -->
    <title>software-engineer</title>
    <desc>Created with Sketch.</desc>
    <g id="Page-1" stroke="none" stroke-width="1" fill="none" fill-rule="evenodd">
        <g id="software-engineer" fill-rule="nonzero">
            <path d="M530.1,35.9 C443,-21.5 320.6,-9.9 243.6,75.3 C201.5,121.9 184.4,186 140.7,231.6 C91.5,283 32.7,332.9 10.4,402.9 C-13.3,477.3 7.5,562.6 60.5,619.5 C125,688.7 219.8,667.9 309.4,666.8 C676.3,662.2 949,417.3 602,115.4 C573,90 558.9,54.8 530.1,35.9 Z" id="Path" fill="#CCE9FF" opacity="0.63"></path>
            <path d="M694.5,75.6 L75.5,75.6 C63.1,75.6 53,85.6 53,98 L53,524.3 L717,524.3 L717,98 C717,85.6 706.9,75.6 694.5,75.6 Z" id="Path" fill="#0B4870"></path>
            <path d="M693.7,85 L76.3,85 C68.6,85 62.4,91.2 62.4,98.9 L62.4,518 L707.6,518 L707.6,98.9 C707.6,91.2 701.4,85 693.7,85 Z" id="Path" fill="#0E538C"></path>
            <rect id="Rectangle" fill="#0B4870" x="85.6" y="116" width="598.8" height="387.1"></rect>
            <path d="M388.4,102.4 C388.4,104.3 386.9,105.8 385,105.8 C383.1,105.8 381.6,104.3 381.6,102.4 C381.6,100.5 383.1,99 385,99 C386.9,99.1 388.4,100.6 388.4,102.4 Z" id="Path" fill="#F6F6F6"></path>
            <rect id="Rectangle" fill="#FFBE55" x="160.7" y="137.4" width="60" height="10.6"></rect>
            <rect id="Rectangle" fill="#CCE9FF" x="106.5" y="137.4" width="24.7" height="10.6"></rect>
            <rect id="Rectangle" fill="#CCE9FF" x="106.5" y="156.8" width="24.7" height="10.6"></rect>
            <rect id="Rectangle" fill="#CCE9FF" x="106.5" y="179.8" width="24.7" height="10.6"></rect>
            <rect id="Rectangle" fill="#CCE9FF" x="106.5" y="202.7" width="24.7" height="10.6"></rect>
            <rect id="Rectangle" fill="#CCE9FF" x="106.5" y="225.7" width="24.7" height="10.6"></rect>
            <rect id="Rectangle" fill="#CCE9FF" x="106.5" y="248.6" width="24.7" height="10.6"></rect>
            <rect id="Rectangle" fill="#CCE9FF" x="233.1" y="137.4" width="201.3" height="10.6"></rect>
            <rect id="Rectangle" fill="#FFBE55" x="181.9" y="156.8" width="60" height="10.6"></rect>
            <rect id="Rectangle" fill="#CCE9FF" x="254.3" y="156.8" width="201.3" height="10.6"></rect>
            <rect id="Rectangle" fill="#FFBE55" x="217.3" y="179.8" width="60" height="10.6"></rect>
            <rect id="Rectangle" fill="#CCE9FF" x="289.7" y="179.8" width="201.3" height="10.6"></rect>
            <rect id="Rectangle" fill="#FFBE55" x="252.6" y="202.7" width="60" height="10.6"></rect>
            <rect id="Rectangle" fill="#CCE9FF" x="325" y="202.7" width="201.3" height="10.6"></rect>
            <rect id="Rectangle" fill="#FFBE55" x="217.3" y="225.7" width="60" height="10.6"></rect>
            <rect id="Rectangle" fill="#CCE9FF" x="289.7" y="225.7" width="307.3" height="10.6"></rect>
            <rect id="Rectangle" fill="#FFBE55" x="181.9" y="248.6" width="60" height="10.6"></rect>
            <rect id="Rectangle" fill="#CCE9FF" x="254.3" y="248.6" width="130.7" height="10.6"></rect>
            <rect id="Rectangle" fill="#FFBE55" opacity="0.4" x="160.7" y="278.7" width="60" height="10.6"></rect>
            <rect id="Rectangle" fill="#CCE9FF" opacity="0.4" x="106.5" y="278.7" width="24.7" height="10.6"></rect>
            <rect id="Rectangle" fill="#CCE9FF" opacity="0.4" x="106.5" y="298.1" width="24.7" height="10.6"></rect>
            <rect id="Rectangle" fill="#CCE9FF" opacity="0.4" x="106.5" y="321.1" width="24.7" height="10.6"></rect>
            <rect id="Rectangle" fill="#CCE9FF" opacity="0.4" x="106.5" y="344" width="24.7" height="10.6"></rect>
            <rect id="Rectangle" fill="#CCE9FF" opacity="0.4" x="106.5" y="367" width="24.7" height="10.6"></rect>
            <rect id="Rectangle" fill="#CCE9FF" opacity="0.4" x="106.5" y="389.9" width="24.7" height="10.6"></rect>
            <rect id="Rectangle" fill="#CCE9FF" opacity="0.4" x="233.1" y="278.7" width="201.3" height="10.6"></rect>
            <rect id="Rectangle" fill="#FFBE55" opacity="0.4" x="181.9" y="298.1" width="60" height="10.6"></rect>
            <rect id="Rectangle" fill="#CCE9FF" opacity="0.4" x="254.3" y="298.1" width="201.3" height="10.6"></rect>
            <rect id="Rectangle" fill="#FFBE55" opacity="0.4" x="217.3" y="321.1" width="60" height="10.6"></rect>
            <rect id="Rectangle" fill="#CCE9FF" opacity="0.4" x="289.7" y="321.1" width="201.3" height="10.6"></rect>
            <rect id="Rectangle" fill="#FFBE55" opacity="0.4" x="160.7" y="419.9" width="60" height="10.6"></rect>
            <rect id="Rectangle" fill="#CCE9FF" opacity="0.4" x="106.5" y="419.9" width="24.7" height="10.6"></rect>
            <rect id="Rectangle" fill="#CCE9FF" opacity="0.4" x="106.5" y="439.4" width="24.7" height="10.6"></rect>
            <rect id="Rectangle" fill="#CCE9FF" opacity="0.4" x="106.5" y="462.3" width="24.7" height="10.6"></rect>
            <rect id="Rectangle" fill="#CCE9FF" opacity="0.4" x="233.1" y="419.9" width="201.3" height="10.6"></rect>
            <rect id="Rectangle" fill="#FFBE55" opacity="0.4" x="181.9" y="439.4" width="60" height="10.6"></rect>
            <rect id="Rectangle" fill="#CCE9FF" opacity="0.4" x="254.3" y="439.4" width="201.3" height="10.6"></rect>
            <rect id="Rectangle" fill="#FFBE55" opacity="0.4" x="217.3" y="462.3" width="60" height="10.6"></rect>
            <rect id="Rectangle" fill="#CCE9FF" opacity="0.4" x="289.7" y="462.3" width="201.3" height="10.6"></rect>
            <rect id="Rectangle" fill="#FFBE55" opacity="0.4" x="252.6" y="344" width="60" height="10.6"></rect>
            <rect id="Rectangle" fill="#CCE9FF" opacity="0.4" x="325" y="344" width="307.3" height="10.6"></rect>
            <rect id="Rectangle" fill="#FFBE55" opacity="0.4" x="217.3" y="367" width="60" height="10.6"></rect>
            <rect id="Rectangle" fill="#CCE9FF" opacity="0.4" x="289.7" y="367" width="201.3" height="10.6"></rect>
            <rect id="Rectangle" fill="#FFBE55" opacity="0.4" x="181.9" y="389.9" width="60" height="10.6"></rect>
            <rect id="Rectangle" fill="#CCE9FF" opacity="0.4" x="254.3" y="389.9" width="201.3" height="10.6"></rect>
            <path d="M761.1,516.7 L8.9,516.7 C4.6,516.7 1,520.2 1,524.6 L1,534.8 C1,539.1 4.5,542.7 8.9,542.7 L761.2,542.7 C765.5,542.7 769.1,539.2 769.1,534.8 L769.1,524.6 C769,520.2 765.5,516.7 761.1,516.7 Z" id="Path" fill="#D3D3D3"></path>
            <path d="M449.5,528 L320.5,528 C318.8,528 317.4,529.4 317.4,531.1 C317.4,532.8 318.8,534.2 320.5,534.2 L449.6,534.2 C451.3,534.2 452.7,532.8 452.7,531.1 C452.6,529.4 451.2,528 449.5,528 Z" id="Path" fill="#F7F7F7"></path>
            <path d="M555.6,629 L555.5,645.1 C555.5,645.1 557.5,655.4 559.2,666.4 C560.8,677.4 562.1,689.1 560.4,691.8 C557.1,697.2 550.6,691.8 549.5,686.4 C548.4,681 546.8,647.3 546.8,647.3 L545.7,625.6 L555.6,629 Z" id="Path" fill="#0B4870"></path>
            <path d="M572,626.8 L569.5,641.3 C569.5,641.3 564.6,680.9 567.3,686.9 C570,692.9 578.7,690.2 578.2,682 C577.7,673.9 579.8,645.1 579.8,645.1 L584.7,627.7 L572,626.8 Z" id="Path" fill="#0B4870"></path>
            <path d="M565.3,450.3 L564.1,468.1 L610.1,490.3 C618.4,494.8 622.4,504.5 619.7,513.5 L587.9,631.8 L572.1,626.8 L586,518 C587,511.3 582.4,505.1 575.7,504 L559.3,501.4 L541.9,483.6 L562.1,501.7 C567,506.1 569.4,512.6 568.5,519.1 L555.6,629 L541.3,632.6 L534.9,524.5 C534.4,517.6 529.8,511.8 523.3,509.7 L495,500.7 C490.5,498 487.7,493.1 487.5,487.8 L488.7,449.7 L565.3,450.3 Z" id="Path" fill="#0B4870"></path>
            <path d="M485.7,490.2 L493.3,342.4 C493.3,342.4 524.7,340.5 534.1,340.5 C539.2,340.5 547.9,342.9 554.8,345.1 C561.3,347.2 566.6,347 569.8,353 L621.3,451.8 L589.6,454.8 L579,442.8 L584.4,434.7 L565.1,389.3 L568.9,471.8 L485.7,490.2 Z" id="Path" fill="#FFBE55"></path>
            <path d="M565.8,371.3 L600,433 L589.4,445.5 C589.4,445.5 585.1,446.4 581,445 L579.1,442.8 L584.5,434.7 L565.2,389.3 L565.8,371.3 Z" id="Path" fill="#0F0F0F" opacity="0.08"></path>
            <path d="M535.4,385.2 C525,385.2 506,358.1 506,347.7 C506,345.6 506.4,343.6 507,341.7 C516.7,341.2 528.8,340.6 534.1,340.6 C536.4,340.6 539.4,341.1 542.7,341.8 C543.3,343.7 543.7,345.6 543.7,347.7 C543.6,358.1 545.8,385.2 535.4,385.2 Z" id="Path" fill="#FFFFFF"></path>
            <polygon id="Path" fill="#0F0F0F" opacity="0.08" points="489.5 368 485.7 491.1 536.5 478.9"></polygon>
            <path d="M537.2,325.4 C536.3,327.2 530.1,351.4 530.1,351.4 C530.1,351.4 527.9,355.4 522.6,354.9 C517.3,354.5 515.1,347 515.1,347 L524.4,316.6 L537.2,325.4 Z" id="Path" fill="#FCD2B1"></path>
            <path d="M504.6,310.5 C504.6,327.2 522.3,345.7 539,345.7 C555.7,345.7 565,327.2 565,310.5 C565,293.8 551.5,280.299452 534.8,280.299452 C518.1,280.2 504.6,293.8 504.6,310.5 Z" id="Path" fill="#FFBCC6"></path>
            <circle id="Oval" fill="#FFE3CA" transform="translate(535.504510, 312.931550) rotate(-9.258869) translate(-535.504510, -312.931550) " cx="535.50451" cy="312.93155" r="34.0009828"></circle>
            <path d="M529.1,476 C530.4,475.6 541.6,470.1 549.5,470.1 C557.4,470.1 567.1,478.5 567.1,478.5 C567.1,478.5 568.4,482.9 563.1,482 C557.8,481.1 563.8,485.3 563.8,485.3 C563.8,485.3 563.5,485.5 557.3,486.4 C551.1,487.3 527.1,486 527.1,486 L529.1,476 Z" id="Path" fill="#FFE3CA"></path>
            <path d="M493.3,342.5 L489,439.7 L529,475.9 L527.1,486.1 L470.8,456 C465.4,453.1 462.3,447.1 463.1,441 L473.4,366.6 C474.2,357.3 479.9,349.1 488.2,345 L493.3,342.5 Z" id="Path" fill="#FFBE55"></path>
            <path d="M525,494.4 L626.8,494.4 L626.8,486.9 L525,486.9 C522.9,486.9 521.3,488.6 521.3,490.6 L521.3,490.6 C521.2,492.7 522.9,494.4 525,494.4 Z" id="Path" fill="#FFBE55"></path>
            <path d="M552.9,494.4 L651.1,494.4 C655.4,494.4 659.2,491.5 660.4,487.3 L677.7,422 C679.3,415.9 674.7,410 668.4,410 L582.7,410 C578.4,410 574.6,412.9 573.4,417.1 L552.9,494.4 Z" id="Path" fill="#FFBE55"></path>
            <path d="M552.9,494.4 L651.1,494.4 C655.4,494.4 659.2,491.5 660.4,487.3 L677.7,422 C679.3,415.9 674.7,410 668.4,410 L582.7,410 C578.4,410 574.6,412.9 573.4,417.1 L552.9,494.4 Z" id="Path" fill="#FFFFFF" opacity="0.22"></path>
            <path d="M610.7,458 C609.6,462.3 612.3,465.7 616.7,465.7 C621.1,465.7 625.5,462.2 626.6,458 C627.7,453.7 625,450.3 620.6,450.3 C616.2,450.2 611.8,453.7 610.7,458 Z" id="Path" fill="#FFFFFF"></path>
            <path d="M535.5,278.9 C553,278.9 567.3,292.1 569.3,309 C563.4,313.4 555.7,315.3 548.4,314.1 C539.8,312.6 532.1,306.7 528.5,298.8 C528.8,302.6 529,306.4 528.4,310.1 C527.8,313.8 526.2,317.5 523.2,319.9 C523,317.3 522.7,314.5 521.4,312.2 C520,309.9 517.1,308.3 514.7,309.3 C512.9,310 511.8,311.8 511.5,313.7 C511.2,315.6 511.7,317.5 512.4,319.3 C513.5,322.1 515.1,324.7 517.1,326.8 C513.1,327.4 508.8,327.9 504.8,327.5 C502.7,323 501.4,318.1 501.4,312.8 C501.4,294.1 516.7,278.9 535.5,278.9 Z" id="Path" fill="#2A94F4"></path>
            <path d="M506.2,318.5 C506.2,324.2 510.8,328.8 516.5,328.8 C522.2,328.8 526.8,324.2 526.8,318.5 C526.8,312.8 522.2,308.2 516.5,308.2 C510.9,308.2 506.2,312.8 506.2,318.5 Z" id="Path" fill="#FFE3CA"></path>
            <polygon id="Path" fill="#FFE3CA" points="572 626.8 570.2 637.7 581 641.1 584 630.4"></polygon>
            <polygon id="Path" fill="#FFE3CA" points="555.5 641.1 546.5 642.8 546 631.4 555.6 629"></polygon>
            <circle id="Oval" fill="#2A94F4" cx="516.5" cy="279.4" r="15.2"></circle>
        </g>
    </g>
</svg>