<?xml version="1.0" encoding="UTF-8"?>
<svg width="998px" height="908px" viewBox="0 0 998 908" version="1.1" xmlns="http://www.w3.org/2000/svg" xmlns:xlink="http://www.w3.org/1999/xlink">
    <!-- Generator: Sketch 63.1 (92452) - https://sketch.com -->
    <title>success</title>
    <desc>Created with Sketch.</desc>
    <defs>
        <path d="M28.772,668.856 C124.53,889.502 416.983,940.001 613.84,890.364 C652.49,880.618 927.022,806.392 987.032,546.064 C1029.159,363.314 945.537,175.746 804.048,76.565 C606.016,-62.251 348.014,9.502 199.718,134.35 C65.517,247.33 -57.518,470.027 28.772,668.856 Z" id="path-1"></path>
        <path d="M28.772,668.856 C124.53,889.502 416.983,940.001 613.84,890.364 C652.49,880.618 927.022,806.392 987.032,546.064 C1029.159,363.314 945.537,175.746 804.048,76.565 C606.016,-62.251 348.014,9.502 199.718,134.35 C65.517,247.33 -57.518,470.027 28.772,668.856 Z" id="path-3"></path>
        <path d="M28.772,668.856 C124.53,889.502 416.983,940.001 613.84,890.364 C652.49,880.618 927.022,806.392 987.032,546.064 C1029.159,363.314 945.537,175.746 804.048,76.565 C606.016,-62.251 348.014,9.502 199.718,134.35 C65.517,247.33 -57.518,470.027 28.772,668.856 Z" id="path-5"></path>
        <path d="M28.772,668.856 C124.53,889.502 416.983,940.001 613.84,890.364 C652.49,880.618 927.022,806.392 987.032,546.064 C1029.159,363.314 945.537,175.746 804.048,76.565 C606.016,-62.251 348.014,9.502 199.718,134.35 C65.517,247.33 -57.518,470.027 28.772,668.856 Z" id="path-7"></path>
        <path d="M28.772,668.856 C124.53,889.502 416.983,940.001 613.84,890.364 C652.49,880.618 927.022,806.392 987.032,546.064 C1029.159,363.314 945.537,175.746 804.048,76.565 C606.016,-62.251 348.014,9.502 199.718,134.35 C65.517,247.33 -57.518,470.027 28.772,668.856 Z" id="path-9"></path>
        <path d="M28.772,668.856 C124.53,889.502 416.983,940.001 613.84,890.364 C652.49,880.618 927.022,806.392 987.032,546.064 C1029.159,363.314 945.537,175.746 804.048,76.565 C606.016,-62.251 348.014,9.502 199.718,134.35 C65.517,247.33 -57.518,470.027 28.772,668.856 Z" id="path-11"></path>
        <path d="M28.772,668.856 C124.53,889.502 416.983,940.001 613.84,890.364 C652.49,880.618 927.022,806.392 987.032,546.064 C1029.159,363.314 945.537,175.746 804.048,76.565 C606.016,-62.251 348.014,9.502 199.718,134.35 C65.517,247.33 -57.518,470.027 28.772,668.856 Z" id="path-13"></path>
        <path d="M28.772,668.856 C124.53,889.502 416.983,940.001 613.84,890.364 C652.49,880.618 927.022,806.392 987.032,546.064 C1029.159,363.314 945.537,175.746 804.048,76.565 C606.016,-62.251 348.014,9.502 199.718,134.35 C65.517,247.33 -57.518,470.027 28.772,668.856 Z" id="path-15"></path>
        <path d="M28.772,668.856 C124.53,889.502 416.983,940.001 613.84,890.364 C652.49,880.618 927.022,806.392 987.032,546.064 C1029.159,363.314 945.537,175.746 804.048,76.565 C606.016,-62.251 348.014,9.502 199.718,134.35 C65.517,247.33 -57.518,470.027 28.772,668.856 Z" id="path-17"></path>
        <path d="M28.772,668.856 C124.53,889.502 416.983,940.001 613.84,890.364 C652.49,880.618 927.022,806.392 987.032,546.064 C1029.159,363.314 945.537,175.746 804.048,76.565 C606.016,-62.251 348.014,9.502 199.718,134.35 C65.517,247.33 -57.518,470.027 28.772,668.856 Z" id="path-19"></path>
        <path d="M28.772,668.856 C124.53,889.502 416.983,940.001 613.84,890.364 C652.49,880.618 927.022,806.392 987.032,546.064 C1029.159,363.314 945.537,175.746 804.048,76.565 C606.016,-62.251 348.014,9.502 199.718,134.35 C65.517,247.33 -57.518,470.027 28.772,668.856 Z" id="path-21"></path>
        <path d="M28.772,668.856 C124.53,889.502 416.983,940.001 613.84,890.364 C652.49,880.618 927.022,806.392 987.032,546.064 C1029.159,363.314 945.537,175.746 804.048,76.565 C606.016,-62.251 348.014,9.502 199.718,134.35 C65.517,247.33 -57.518,470.027 28.772,668.856 Z" id="path-23"></path>
        <path d="M28.772,668.856 C124.53,889.502 416.983,940.001 613.84,890.364 C652.49,880.618 927.022,806.392 987.032,546.064 C1029.159,363.314 945.537,175.746 804.048,76.565 C606.016,-62.251 348.014,9.502 199.718,134.35 C65.517,247.33 -57.518,470.027 28.772,668.856 Z" id="path-25"></path>
        <path d="M28.772,668.856 C124.53,889.502 416.983,940.001 613.84,890.364 C652.49,880.618 927.022,806.392 987.032,546.064 C1029.159,363.314 945.537,175.746 804.048,76.565 C606.016,-62.251 348.014,9.502 199.718,134.35 C65.517,247.33 -57.518,470.027 28.772,668.856 Z" id="path-27"></path>
    </defs>
    <g id="Page-1" stroke="none" stroke-width="1" fill="none" fill-rule="evenodd">
        <g id="success">
            <path d="M28.772,668.856 C124.53,889.502 416.983,940.001 613.84,890.364 C652.49,880.618 927.022,806.392 987.032,546.064 C1029.159,363.314 945.537,175.746 804.048,76.565 C606.016,-62.251 348.014,9.502 199.718,134.35 C65.517,247.33 -57.518,470.027 28.772,668.856 Z" id="Path" fill="#C2E5FF" fill-rule="nonzero"></path>
            <g id="Group">
                <g id="Clipped">
                    <mask id="mask-2" fill="white">
                        <use xlink:href="#path-1"></use>
                    </mask>
                    <g id="SVGID_1_"></g>
                    <path d="M428.454,214.163 C427.387,214.163 426.332,214.215 425.272,214.244 C413.023,162.441 366.513,123.881 310.967,123.881 C272.516,123.881 238.382,142.356 216.949,170.91 C199.556,163.878 180.551,159.997 160.637,159.997 C77.612,159.997 10.307,227.302 10.307,310.327 C10.307,393.352 77.612,460.657 160.637,460.657 C181.905,460.657 202.137,456.231 220.475,448.265 C239.206,468.657 266.085,481.447 295.957,481.447 C330.386,481.447 360.827,464.45 379.409,438.409 C394.34,445.28 410.942,449.14 428.456,449.14 C493.343,449.14 545.944,396.539 545.944,331.652 C545.944,266.765 493.341,214.163 428.454,214.163 Z" id="Path" fill="#FFFFFF" fill-rule="nonzero" mask="url(#mask-2)"></path>
                </g>
                <g id="Clipped">
                    <mask id="mask-4" fill="white">
                        <use xlink:href="#path-3"></use>
                    </mask>
                    <g id="SVGID_1_"></g>
                    <path d="M675.769,394.272 C676.613,394.272 677.446,394.231 678.284,394.208 C687.964,435.148 724.721,465.621 768.618,465.621 C799.006,465.621 825.981,451.021 842.92,428.455 C856.666,434.013 871.685,437.08 887.423,437.08 C953.037,437.08 1006.227,383.89 1006.227,318.276 C1006.227,252.662 953.037,199.472 887.423,199.472 C870.615,199.472 854.626,202.97 840.134,209.266 C825.331,193.15 804.089,183.043 780.482,183.043 C753.273,183.043 729.216,196.475 714.531,217.055 C702.732,211.625 689.611,208.574 675.77,208.574 C624.491,208.574 582.921,250.144 582.921,301.423 C582.921,352.702 624.49,394.272 675.769,394.272 Z" id="Path" fill="#FFFFFF" fill-rule="nonzero" mask="url(#mask-4)"></path>
                </g>
                <g id="Clipped">
                    <mask id="mask-6" fill="white">
                        <use xlink:href="#path-5"></use>
                    </mask>
                    <g id="SVGID_1_"></g>
                    <path d="M42.698,859.065 C42.698,859.065 233.094,373.83 330.937,347.684 C418.165,324.374 652.58,669.327 652.58,669.327 C652.58,669.327 752.286,518.53 821.17,456.415 C837.722,441.49 863.565,444.275 876.633,462.329 C919.748,521.896 1018.237,667.506 1100.193,859.065 L42.698,859.065 L42.698,859.065 Z" id="Path" fill="#FFBE55" fill-rule="nonzero" mask="url(#mask-6)"></path>
                </g>
                <g id="Clipped">
                    <mask id="mask-8" fill="white">
                        <use xlink:href="#path-7"></use>
                    </mask>
                    <g id="SVGID_1_"></g>
                    <path d="M42.698,859.065 C42.698,859.065 233.094,373.83 330.937,347.684 C418.165,324.374 652.58,669.327 652.58,669.327 C652.58,669.327 752.286,518.53 821.17,456.415 C837.722,441.49 863.565,444.275 876.633,462.329 C919.748,521.896 1018.237,667.506 1100.193,859.065 L42.698,859.065 L42.698,859.065 Z" id="Path" fill="#282828" fill-rule="nonzero" opacity="0.25" mask="url(#mask-8)"></path>
                </g>
                <g id="Clipped">
                    <mask id="mask-10" fill="white">
                        <use xlink:href="#path-9"></use>
                    </mask>
                    <g id="SVGID_1_"></g>
                    <polygon id="Path" fill="#FFBE55" fill-rule="nonzero" mask="url(#mask-10)" points="257.85 685.778 186.476 916.946 271.949 916.946"></polygon>
                </g>
                <g id="Clipped">
                    <mask id="mask-12" fill="white">
                        <use xlink:href="#path-11"></use>
                    </mask>
                    <g id="SVGID_1_"></g>
                    <path d="M1053.907,916.946 C998.875,873.955 951.971,838.771 917.215,813.109 C792.144,720.763 616.868,598.505 480.965,588.446 C462.179,587.056 446.65,587.995 443.272,588.213 C408.777,590.439 326.916,595.721 276.764,656.818 C195.013,756.41 268.809,910.33 271.949,916.946 L1053.907,916.946 Z" id="Path" fill="#FFBE55" fill-rule="nonzero" mask="url(#mask-12)"></path>
                </g>
                <g id="Clipped">
                    <mask id="mask-14" fill="white">
                        <use xlink:href="#path-13"></use>
                    </mask>
                    <g id="SVGID_1_"></g>
                    <path d="M1053.907,916.946 C998.875,873.955 951.971,838.771 917.215,813.109 C792.144,720.763 616.868,598.505 480.965,588.446 C462.179,587.056 446.65,587.995 443.272,588.213 C408.777,590.439 326.916,595.721 276.764,656.818 C195.013,756.41 268.809,910.33 271.949,916.946 L1053.907,916.946 Z" id="Path" fill="#FFFFFF" fill-rule="nonzero" opacity="0.5" mask="url(#mask-14)"></path>
                </g>
                <g id="Clipped">
                    <mask id="mask-16" fill="white">
                        <use xlink:href="#path-15"></use>
                    </mask>
                    <g id="SVGID_1_"></g>
                    <polygon id="Path" fill="#0B4870" fill-rule="nonzero" opacity="0.5" mask="url(#mask-16)" points="360.016 737.092 531.813 916.946 631.497 916.946 406.841 737.092"></polygon>
                </g>
                <g id="Clipped">
                    <mask id="mask-18" fill="white">
                        <use xlink:href="#path-17"></use>
                    </mask>
                    <g id="SVGID_1_"></g>
                    <polygon id="Path" fill="#0B4870" fill-rule="nonzero" opacity="0.5" mask="url(#mask-18)" points="489.754 737.092 725.088 916.946 824.771 916.946 536.579 737.092"></polygon>
                </g>
                <g id="Clipped">
                    <mask id="mask-20" fill="white">
                        <use xlink:href="#path-19"></use>
                    </mask>
                    <g id="SVGID_1_"></g>
                    <path d="M531.813,636.986 L833.743,859.064 C833.743,859.064 914.114,839.802 978.663,859.064 L544.486,636.986 L531.813,636.986 Z" id="Path" fill="#0B4870" fill-rule="nonzero" opacity="0.5" mask="url(#mask-20)"></path>
                </g>
                <g id="Clipped">
                    <mask id="mask-22" fill="white">
                        <use xlink:href="#path-21"></use>
                    </mask>
                    <g id="SVGID_1_"></g>
                    <path d="M531.813,636.986 L531.813,191.532 L544.485,191.532 L544.485,636.986 C544.371,637.151 541.857,640.671 537.596,640.366 C534.008,640.108 532.056,637.342 531.813,636.986 Z" id="Path" fill="#0B4870" fill-rule="nonzero" mask="url(#mask-22)"></path>
                </g>
                <g id="Clipped">
                    <mask id="mask-24" fill="white">
                        <use xlink:href="#path-23"></use>
                    </mask>
                    <g id="SVGID_1_"></g>
                    <g id="Group" mask="url(#mask-24)">
                        <g transform="translate(360.000000, 297.000000)">
                            <path d="M99.431,61.581 C101.044,59.318 103.442,55.721 105.853,51.033 C110.338,42.312 117.248,28.875 111.83,20.652 C110.986,19.371 109.375,17.506 106.117,16.028 C105.883,16.758 105.52,17.886 105.072,19.261 C98.339,39.925 95.762,44.46 96.496,51.725 C96.736,54.093 97.405,57.525 99.431,61.581 Z" id="Path" fill="#0B4870" fill-rule="nonzero"></path>
                            <path d="M98.249,52.407 C93.903,67.982 72.931,68.756 72.931,68.756" id="Path" fill="#EFB68F" fill-rule="nonzero"></path>
                            <path d="M75.303,75.944 C75.303,75.944 49.526,84.743 44.208,88.127 C44.208,88.127 79.355,125.182 130.741,86.828 C126.651,84.3 125.921,84.201 120.376,81.777 C113.221,78.649 103.119,74.431 97.437,73.075 L75.303,75.944 Z" id="Path" fill="#EFB68F" fill-rule="nonzero"></path>
                            <polygon id="Path" fill="#EFB68F" fill-rule="nonzero" points="74.188 68.66 75.824 79.347 98.249 78.463 101.79 50.684 96.416 50.684"></polygon>
                            <path d="M107.445,44.211 C106.555,46.974 104.528,49.294 101.789,50.683 C94.017,54.543 92.211,44.673 95.567,40.182 C99.561,34.83 109.816,36.791 107.445,44.211 Z" id="Path" fill="#EFB68F" fill-rule="nonzero"></path>
                            <path d="M70.987,77.929 C70.987,77.929 84.662,94.915 105.096,75.523 C108.474,75.8 112.109,77.687 116.569,78.942 C122.438,80.593 127.194,82.853 130.741,84.878 L128.041,207.983 L51.684,207.983 L43.476,88.551 C46.574,86.826 50.205,83.923 54.357,82.344 C60.557,79.987 66.251,78.674 70.987,77.929 Z" id="Path" fill="#FFBE55" fill-rule="nonzero"></path>
                            <path d="M132.842,247.165 C127.265,255.407 121.603,257.998 118.054,258.959 C116.959,259.256 113.462,259.343 106.475,259.646 C101.092,259.879 95.49,260.002 89.595,259.989 C86.186,259.981 82.84,259.928 79.559,259.835 C69.175,259.54 63.982,259.449 61.963,258.93 C58.243,257.974 51.708,255.104 45.422,244.542 C47.443,232.356 49.464,220.169 51.484,207.983 L127.991,207.983 C129.608,221.044 131.225,234.104 132.842,247.165 Z" id="Path" fill="#0B4870" fill-rule="nonzero"></path>
                            <polygon id="Path" fill="#FFBE55" fill-rule="nonzero" points="150.776 426.359 144.716 388.778 129.754 390.814 135.781 428.352"></polygon>
                            <g id="Group" stroke-width="1" fill="none" fill-rule="evenodd" transform="translate(130.000000, 421.000000)">
                                <path d="M3.401,4.215 L0.741,15.999 L47.566,15.999 L47.566,15.655 C47.566,12.941 46.005,10.469 43.555,9.302 L21.824,0.631 C21.042,0.259 20.038,0.275 19.442,0.903 C16.634,3.867 13.549,8.695 4.976,3.457 C4.354,3.078 3.539,3.5 3.401,4.215 Z" id="Path" fill="#0B4870" fill-rule="nonzero"></path>
                                <rect id="Rectangle" fill="#FFBE55" fill-rule="nonzero" x="0.741" y="15.999" width="46.825" height="3.092"></rect>
                            </g>
                            <path d="M110.193,320.445 L140.656,316.419 L132.272,242.113 C131.099,231.721 121.626,224.315 111.257,225.685 L111.257,225.685 C108.358,226.665 103.32,228.791 98.488,233.366 C93.056,238.51 90.633,244.148 89.594,247.109 C96.461,271.554 103.327,295.999 110.193,320.445 Z" id="Path" fill="#0B4870" fill-rule="nonzero"></path>
                            <path d="M126.533,411.641 L152.165,408.253 L137.909,290.879 C136.797,281.762 128.459,275.304 119.353,276.508 L119.353,276.508 C110.116,277.729 103.717,286.345 105.219,295.541 L126.533,411.641 Z" id="Path" fill="#0B4870" fill-rule="nonzero"></path>
                            <polygon id="Path" fill="#FFBE55" fill-rule="nonzero" points="27.845 426.359 33.904 388.778 48.866 390.814 42.839 428.352"></polygon>
                            <path d="M67.753,320.445 L37.965,316.419 L45.674,242.113 C46.847,231.721 56.32,224.315 66.688,225.685 L66.688,225.685 C67.266,225.761 69.303,226.061 71.773,227.151 C71.773,227.151 76.476,229.253 79.456,233.366 C82.753,237.917 82.875,243.494 82.546,247.943 C81.744,258.783 76.589,285.467 67.753,320.445 Z" id="Path" fill="#0B4870" fill-rule="nonzero"></path>
                            <path d="M52.088,411.641 L26.456,408.253 L40.712,290.879 C41.824,281.762 50.162,275.304 59.268,276.508 L59.268,276.508 C68.505,277.729 74.904,286.345 73.402,295.541 L52.088,411.641 Z" id="Path" fill="#0B4870" fill-rule="nonzero"></path>
                            <g id="Group" stroke-width="1" fill="none" fill-rule="evenodd" transform="translate(113.000000, 145.000000)">
                                <path d="M10.279,56.124 C12.384,55.424 13.574,55.888 13.574,55.888 L13.574,55.888 C14.772,54.205 16.988,53.991 18.427,55.42 L19.446,56.432 C20.777,57.754 20.952,60.007 19.845,61.565 L19.781,61.655 C19.781,61.655 17.819,66.934 13.378,71.697 C7.64,77.85 2.402,77.729 0.829,75.595 C-0.657,73.579 5.772,65.945 8.128,63.079 L4.489,64.251 C4.027,64.4 3.532,64.196 3.267,63.748 C2.982,63.266 3.035,62.627 3.396,62.213 L6.252,58.93 C7.372,57.643 8.741,56.636 10.279,56.124 Z" id="Path" fill="#EFB68F" fill-rule="nonzero"></path>
                                <path d="M15.21,54.642 L44.968,4.471 C47.571,0.149 52.986,-0.614 56.467,2.85 L56.467,2.85 C59.611,5.979 59.922,11.352 57.163,14.907 L20.543,59.71 L15.21,54.642 Z" id="Path" fill="#EFB68F" fill-rule="nonzero"></path>
                            </g>
                            <path d="M137.069,93.089 C144.491,103.102 154.575,113.605 169.335,141.19 C170.898,144.112 173.77,149.647 172.299,155.14 C171.617,157.689 170.206,159.455 169.119,160.546 C167.604,160.325 165.222,159.757 162.636,158.139 C159.338,156.075 157.367,153.339 156.405,151.793 C143.029,135.662 129.653,119.53 116.277,103.399 C112.586,98.597 113.123,91.362 117.45,87.592 C121.478,84.084 133.704,88.55 137.069,93.089 Z" id="Path" fill="#EFB68F" fill-rule="nonzero"></path>
                            <path d="M107.511,77.103 C112.487,77.717 118.501,79.048 124.884,81.865 C144.325,90.443 153.796,106.879 157.144,113.52 C151.261,120.976 145.377,128.432 139.494,135.889 C136.654,133.439 132.613,129.744 128.153,124.872 C120.818,116.859 114.451,109.903 110.633,99.533 C108.974,95.025 106.883,87.392 107.511,77.103 Z" id="Path" fill="#FFBE55" fill-rule="nonzero"></path>
                            <g id="Group" stroke-width="1" fill="none" fill-rule="evenodd" transform="translate(7.000000, 145.000000)">
                                <path d="M48.623,56.124 C46.53,55.424 45.347,55.888 45.347,55.888 L45.347,55.888 C44.156,54.205 41.952,53.991 40.522,55.42 L39.509,56.432 C38.186,57.754 38.012,60.007 39.112,61.565 L39.175,61.655 C39.175,61.655 41.126,66.934 45.541,71.697 C51.246,77.85 56.454,77.729 58.017,75.595 C59.494,73.579 53.102,65.945 50.761,63.079 L54.379,64.251 C54.838,64.4 55.33,64.196 55.594,63.748 C55.877,63.266 55.824,62.627 55.466,62.213 L52.626,58.93 C51.514,57.643 50.153,56.636 48.623,56.124 Z" id="Path" fill="#EFB68F" fill-rule="nonzero"></path>
                                <path d="M43.721,54.642 L14.136,4.471 C11.549,0.149 6.164,-0.614 2.703,2.85 L2.703,2.85 C-0.423,5.979 -0.732,11.352 2.011,14.907 L38.419,59.71 L43.721,54.642 Z" id="Path" fill="#EFB68F" fill-rule="nonzero"></path>
                            </g>
                            <path d="M41.914,93.089 C34.535,103.102 24.509,113.605 9.835,141.19 C8.281,144.112 5.426,149.647 6.888,155.14 C7.567,157.689 8.969,159.455 10.05,160.546 C11.556,160.325 13.925,159.757 16.495,158.139 C19.774,156.075 21.733,153.339 22.69,151.793 C35.988,135.662 49.287,119.53 62.586,103.399 C66.256,98.597 65.722,91.362 61.419,87.592 C57.414,84.083 45.259,88.55 41.914,93.089 Z" id="Path" fill="#EFB68F" fill-rule="nonzero"></path>
                            <path d="M71.336,77.103 C66.389,77.706 60.366,79.029 53.963,81.865 C35.019,90.256 25.718,106.146 22.393,112.644 C28.377,121.149 34.36,129.653 40.344,138.158 C42.834,135.869 46.429,132.377 50.389,127.789 C56.817,120.341 64.084,111.92 68.215,99.533 C69.788,94.81 71.693,87.154 71.336,77.103 Z" id="Path" fill="#FFBE55" fill-rule="nonzero"></path>
                            <g id="Group" stroke-width="1" fill="none" fill-rule="evenodd" transform="translate(0.000000, 421.000000)">
                                <path d="M44.181,4.215 L46.841,15.999 L0.016,15.999 L0.016,15.655 C0.016,12.941 1.577,10.469 4.027,9.302 L25.758,0.631 C26.54,0.259 27.544,0.275 28.14,0.903 C30.948,3.867 34.032,8.695 42.606,3.457 C43.228,3.078 44.043,3.5 44.181,4.215 Z" id="Path" fill="#0B4870" fill-rule="nonzero"></path>
                                <rect id="Rectangle" fill="#FFBE55" fill-rule="nonzero" transform="translate(23.429000, 17.545900) rotate(-180.000000) translate(-23.429000, -17.545900) " x="0.0165000389" y="15.9999" width="46.825" height="3.092"></rect>
                            </g>
                            <path d="M74.188,68.66 C75.05,69.909 76.31,71.224 78.079,71.698 C83.637,73.189 89.977,65.256 92.525,62.067 C95.231,58.681 97.03,55.3 98.248,52.407 C97.035,54.371 95.438,56.529 74.188,68.66 Z" id="Path" fill="#E0A882" fill-rule="nonzero"></path>
                            <path d="M101.509,16.015 C93.12,5.748 74.45,3.901 65.182,11.994 C60.976,15.666 59.84,20.396 58.164,27.373 C57.652,29.506 54.048,45.487 62.015,60.207 C65.098,65.904 67.777,67.462 69.646,68.115 C73.414,69.43 77.009,68.096 80.327,66.945 C87.051,64.612 91.165,60.363 92.671,58.772 C99.868,51.17 112.542,29.519 101.509,16.015 Z" id="Path" fill="#EFB68F" fill-rule="nonzero"></path>
                            <path d="M90.227,22.03 C90.227,22.03 102.61,26.842 96.955,42.667 L101.169,43.239 C101.169,43.239 102.073,36.974 107.576,37.915 C107.576,37.915 112.031,15.908 100.804,10.556 L90.227,22.03 Z" id="Path" fill="#0B4870" fill-rule="nonzero"></path>
                            <path d="M90.227,22.03 C90.227,22.03 75.731,12.231 63.755,18.158 C62.447,17.843 59.443,16.916 57.224,14.149 C54.269,10.465 53.917,5.028 56.26,0.212 C56.26,0.212 58.498,1.098 61.415,1.785 C65.533,2.755 68.782,2.312 70.642,2.163 C74.674,1.84 82.191,1.239 87.495,2.368 C90.988,3.112 95.719,5.074 100.804,10.556 C103.907,13.461 104.148,18.313 101.469,21.422 C98.665,24.676 93.527,25.019 90.227,22.03 Z" id="Path" fill="#0B4870" fill-rule="nonzero"></path>
                            <path d="M63.755,18.159 C63.755,18.159 59.749,23.388 57.406,34.51 C57.406,34.51 58.458,17.146 62.412,16.268 C66.365,15.39 63.755,18.159 63.755,18.159 Z" id="Path" fill="#0B4870" fill-rule="nonzero"></path>
                        </g>
                    </g>
                </g>
                <g id="Clipped">
                    <mask id="mask-26" fill="white">
                        <use xlink:href="#path-25"></use>
                    </mask>
                    <g id="SVGID_1_"></g>
                    <path d="M753.754,296.973 C738.847,294.218 716.05,291.453 688.746,294.327 C649.47,298.461 633.947,310.78 600.489,312.02 C583.583,312.646 558.953,310.56 528.469,296.974 C528.469,254.559 528.469,212.145 528.469,169.73 C548.853,180.683 575.316,190.196 605.313,187.647 C631.069,185.459 642.603,175.808 672.494,169.73 C692.71,165.62 719.879,163.437 753.754,169.73 C753.754,212.144 753.754,254.559 753.754,296.973 Z" id="Path" fill="#FFBE55" fill-rule="nonzero" mask="url(#mask-26)"></path>
                </g>
                <g id="Clipped">
                    <mask id="mask-28" fill="white">
                        <use xlink:href="#path-27"></use>
                    </mask>
                    <g id="SVGID_1_"></g>
                    <polygon id="Path" fill="#FFFFFF" fill-rule="nonzero" mask="url(#mask-28)" points="642.803 202.126 654.768 226.371 681.524 230.258 662.163 249.13 666.734 275.777 642.803 263.196 618.873 275.777 623.443 249.13 604.083 230.258 630.838 226.371"></polygon>
                </g>
            </g>
        </g>
    </g>
</svg>