<svg xmlns="http://www.w3.org/2000/svg" viewBox="0 0 100 100"><path fill="#c7ede6" d="M87.215,56.71C88.35,54.555,89,52.105,89,49.5c0-6.621-4.159-12.257-10.001-14.478 C78.999,35.015,79,35.008,79,35c0-11.598-9.402-21-21-21c-9.784,0-17.981,6.701-20.313,15.757C36.211,29.272,34.638,29,33,29 c-7.692,0-14.023,5.793-14.89,13.252C12.906,43.353,9,47.969,9,53.5C9,59.851,14.149,65,20.5,65c0.177,0,0.352-0.012,0.526-0.022 C21.022,65.153,21,65.324,21,65.5C21,76.822,30.178,86,41.5,86c6.437,0,12.175-2.972,15.934-7.614C59.612,80.611,62.64,82,66,82 c4.65,0,8.674-2.65,10.666-6.518C77.718,75.817,78.837,76,80,76c6.075,0,11-4.925,11-11C91,61.689,89.53,58.727,87.215,56.71z"/><path fill="#fdfcef" d="M70.125,75.5c0,0-3.64,0-6.125,0s-4.5-2.015-4.5-4.5c0-2.333,1.782-4.229,4.055-4.455 C63.533,66.364,63.5,66.187,63.5,66c0-2.485,2.015-4.5,4.5-4.5c1.438,0,2.703,0.686,3.527,1.736 C71.667,60.6,73.829,58.5,76.5,58.5c2.761,0,5,2.239,5,5c0,0.446-0.077,0.87-0.187,1.282c0.642-0.777,1.6-1.282,2.687-1.282 c1.781,0,3.234,1.335,3.455,3.055C87.636,66.533,87.813,66.5,88,66.5c2.485,0,4.5,2.015,4.5,4.5s-2.015,4.5-4.5,4.5s-9.5,0-9.5,0 h-5.375V76h-3V75.5z"/><path fill="#472b29" d="M76.5,58c3.033,0,5.5,2.467,5.5,5.5c0,0.016,0,0.031,0,0.047C82.602,63.192,83.29,63,84,63 c1.831,0,3.411,1.261,3.858,3.005C87.905,66.002,87.952,66,88,66c2.757,0,5,2.243,5,5c0,2.757-2.243,5-5,5H73.125 c-0.276,0-0.5-0.224-0.5-0.5c0-0.276,0.224-0.5,0.5-0.5H88c2.206,0,4-1.794,4-4c0-2.206-1.794-4-4-4 c-0.117,0-0.23,0.017-0.343,0.032l-0.141,0.019c-0.021,0.003-0.041,0.004-0.062,0.004c-0.246,0-0.462-0.185-0.495-0.437 C86.768,65.125,85.496,64,84,64c-0.885,0-1.723,0.401-2.301,1.1c-0.098,0.118-0.241,0.182-0.386,0.182 c-0.078,0-0.156-0.018-0.228-0.056c-0.209-0.107-0.314-0.346-0.254-0.573C80.946,64.218,81,63.852,81,63.5 c0-2.481-2.019-4.5-4.5-4.5c-2.381,0-4.347,1.872-4.474,4.263c-0.011,0.208-0.15,0.387-0.349,0.45 c-0.05,0.016-0.101,0.024-0.152,0.024c-0.15,0-0.296-0.069-0.392-0.192C70.362,62.563,69.221,62,68,62c-2.206,0-4,1.794-4,4 c0,0.117,0.017,0.23,0.032,0.343l0.019,0.141c0.016,0.134-0.022,0.268-0.106,0.373c-0.084,0.105-0.207,0.172-0.34,0.185 C61.549,67.247,60,68.949,60,71c0,2.206,1.794,4,4,4h6.125c0.276,0,0.5,0.224,0.5,0.5c0,0.276-0.224,0.5-0.5,0.5H64 c-2.757,0-5-2.243-5-5c0-2.397,1.689-4.413,4.003-4.877C63.001,66.082,63,66.041,63,66c0-2.757,2.243-5,5-5 c1.176,0,2.293,0.416,3.183,1.164C71.781,59.76,73.945,58,76.5,58L76.5,58z"/><path fill="#472b29" d="M78,65c1.403,0,2.609,0.999,2.913,2.341C81.28,67.119,81.699,67,82.125,67 c1.202,0,2.198,0.897,2.353,2.068C84.681,69.022,84.874,69,85.063,69c1.529,0,2.811,1.2,2.918,2.732 C87.99,71.87,87.886,71.99,87.749,72c-0.006,0-0.012,0-0.018,0c-0.13,0-0.24-0.101-0.249-0.232 c-0.089-1.271-1.151-2.268-2.419-2.268c-0.229,0-0.47,0.042-0.738,0.127c-0.022,0.007-0.045,0.01-0.067,0.01 c-0.055,0-0.11-0.02-0.156-0.054C84.038,69.537,84,69.455,84,69.375c0-1.034-0.841-1.875-1.875-1.875 c-0.447,0-0.885,0.168-1.231,0.473c-0.047,0.041-0.106,0.063-0.165,0.063c-0.032,0-0.063-0.006-0.093-0.019 c-0.088-0.035-0.148-0.117-0.155-0.212C80.377,66.512,79.288,65.5,78,65.5c-0.208,0-0.425,0.034-0.682,0.107 c-0.023,0.007-0.047,0.01-0.07,0.01c-0.109,0-0.207-0.073-0.239-0.182c-0.038-0.133,0.039-0.271,0.172-0.309 C77.483,65.04,77.744,65,78,65L78,65z"/><path fill="#472b29" d="M64.117,66.5c1.326,0,2.508,0.897,2.874,2.182c0.038,0.133-0.039,0.271-0.172,0.309 C66.795,68.997,66.772,69,66.75,69c-0.109,0-0.209-0.072-0.24-0.182C66.205,67.748,65.221,67,64.117,67 c-0.117,0-0.23,0.014-0.342,0.029c-0.012,0.002-0.023,0.003-0.035,0.003c-0.121,0-0.229-0.092-0.246-0.217 c-0.019-0.137,0.077-0.263,0.214-0.281C63.842,66.516,63.978,66.5,64.117,66.5L64.117,66.5z"/><path fill="#fff" d="M46.405,24H36.5c-0.276,0-0.5-0.224-0.5-0.5s0.224-0.5,0.5-0.5h9.905c0.276,0,0.5,0.224,0.5,0.5 S46.682,24,46.405,24z"/><path fill="#fff" d="M49.5,24h-1c-0.276,0-0.5-0.224-0.5-0.5s0.224-0.5,0.5-0.5h1c0.276,0,0.5,0.224,0.5,0.5 S49.777,24,49.5,24z"/><path fill="#fff" d="M54.491,26H45.5c-0.276,0-0.5-0.224-0.5-0.5s0.224-0.5,0.5-0.5h8.991c0.276,0,0.5,0.224,0.5,0.5 S54.767,26,54.491,26z"/><path fill="#fff" d="M43.5,26h-1c-0.276,0-0.5-0.224-0.5-0.5s0.224-0.5,0.5-0.5h1c0.276,0,0.5,0.224,0.5,0.5 S43.777,26,43.5,26z"/><path fill="#fff" d="M40.5,26h-2c-0.276,0-0.5-0.224-0.5-0.5s0.224-0.5,0.5-0.5h2c0.276,0,0.5,0.224,0.5,0.5 S40.777,26,40.5,26z"/><path fill="#fff" d="M46.5,28h-2c-0.276,0-0.5-0.224-0.5-0.5s0.224-0.5,0.5-0.5h2c0.276,0,0.5,0.224,0.5,0.5 S46.776,28,46.5,28z"/><path fill="#fff" d="M49.5,19c-0.177,0-0.823,0-1,0c-0.276,0-0.5,0.224-0.5,0.5c0,0.276,0.224,0.5,0.5,0.5 c0.177,0,0.823,0,1,0c0.276,0,0.5-0.224,0.5-0.5C50,19.224,49.776,19,49.5,19z"/><path fill="#fff" d="M49.5,21c-0.177,0-4.823,0-5,0c-0.276,0-0.5,0.224-0.5,0.5c0,0.276,0.224,0.5,0.5,0.5 c0.177,0,4.823,0,5,0c0.276,0,0.5-0.224,0.5-0.5C50,21.224,49.776,21,49.5,21z"/><path fill="#fff" d="M54.5,23c-0.177,0-2.823,0-3,0c-0.276,0-0.5,0.224-0.5,0.5c0,0.276,0.224,0.5,0.5,0.5 c0.177,0,2.823,0,3,0c0.276,0,0.5-0.224,0.5-0.5C55,23.224,54.776,23,54.5,23z"/><g><path fill="#fefdef" d="M24,52.319c-0.005,6.134,3.789,11.936,10.312,15.77l0,0c0,3.318-0.97,6.992-2.182,9.327 c-0.431,0.83,0.247,1.783,1.177,1.681c6.02-0.66,11.724-3.626,14.755-6.593H51.5c15.188,0,27.5-9.037,27.5-20.185 S66.688,32.133,51.5,32.133S24,41.171,24,52.319"/><path fill="#472b29" d="M33.173,79.804c-0.618,0-1.198-0.3-1.55-0.813c-0.392-0.571-0.434-1.28-0.114-1.896 c1.203-2.318,2.028-5.728,2.099-8.61c-6.562-3.982-10.313-9.855-10.308-16.166c0-11.516,12.651-20.885,28.2-20.885 s28.2,9.369,28.2,20.886S67.049,73.204,51.5,73.204h-3.156c-2.998,2.821-8.705,5.903-14.96,6.589 C33.313,79.8,33.243,79.804,33.173,79.804z M51.5,32.833c-14.777,0-26.8,8.741-26.8,19.485c0,0,0,0,0,0.001 c-0.005,5.912,3.627,11.439,9.967,15.166c0.214,0.126,0.346,0.355,0.346,0.604c0,3.215-0.888,7.002-2.261,9.649 c-0.109,0.209-0.031,0.378,0.025,0.46c0.049,0.07,0.194,0.225,0.453,0.203c6.072-0.665,11.579-3.692,14.342-6.397 c0.131-0.128,0.307-0.2,0.49-0.2H51.5c14.777,0,26.8-8.741,26.8-19.485S66.277,32.833,51.5,32.833z"/></g><g><path fill="#472b29" d="M34.712,64.912c-0.049,0-0.099-0.015-0.143-0.045c-4.722-3.271-7.322-7.657-7.322-12.351 c0-7.171,6.341-13.666,15.78-16.162c0.135-0.034,0.27,0.045,0.306,0.178c0.035,0.133-0.044,0.27-0.178,0.305 c-9.216,2.438-15.408,8.739-15.408,15.68c0,4.524,2.524,8.766,7.107,11.94c0.113,0.078,0.142,0.234,0.063,0.348 C34.869,64.875,34.792,64.912,34.712,64.912z"/></g><g><path fill="#472b29" d="M51.483,69.756c-0.138,0-0.25-0.112-0.25-0.25s0.112-0.25,0.25-0.25 c6.856,0,13.377-2.094,17.892-5.744c0.107-0.087,0.265-0.07,0.352,0.037c0.087,0.107,0.07,0.265-0.037,0.352 C65.087,67.622,58.451,69.756,51.483,69.756z"/></g><g><path fill="#472b29" d="M72.101,61.453c-0.057,0-0.114-0.02-0.161-0.059c-0.105-0.089-0.119-0.247-0.03-0.353 c2.165-2.572,3.309-5.521,3.309-8.525c0-3.841-1.797-7.454-5.197-10.45c-0.104-0.091-0.113-0.249-0.022-0.353 c0.091-0.104,0.249-0.114,0.353-0.022c3.46,3.05,5.366,6.894,5.366,10.825c0,3.124-1.185,6.184-3.426,8.848 C72.242,61.423,72.172,61.453,72.101,61.453z"/></g><g><path fill="#472b29" d="M66.74,39.656c-0.043,0-0.086-0.011-0.126-0.034c-0.914-0.534-1.888-1.021-2.896-1.449 c-0.127-0.055-0.187-0.201-0.132-0.328c0.054-0.128,0.202-0.182,0.328-0.133c1.027,0.437,2.021,0.934,2.952,1.479 c0.119,0.069,0.16,0.223,0.09,0.342C66.91,39.612,66.826,39.656,66.74,39.656z"/></g><g><path fill="#472b29" d="M62.081,37.521c-0.027,0-0.055-0.005-0.083-0.014c-3.287-1.148-6.825-1.73-10.516-1.73 c-1.037,0-2.08,0.048-3.101,0.143c-0.133,0.017-0.259-0.089-0.272-0.226c-0.013-0.138,0.088-0.26,0.226-0.272 c1.036-0.096,2.095-0.145,3.147-0.145c3.747,0,7.34,0.592,10.681,1.758c0.13,0.046,0.199,0.188,0.153,0.318 C62.281,37.456,62.185,37.521,62.081,37.521z"/></g><g><path fill="#fdfcef" d="M28.5,53.5c0,0,1.567,0,3.5,0s3.5-1.567,3.5-3.5c0-1.781-1.335-3.234-3.055-3.455 C32.473,46.366,32.5,46.187,32.5,46c0-1.933-1.567-3.5-3.5-3.5c-1.032,0-1.95,0.455-2.59,1.165 c-0.384-1.808-1.987-3.165-3.91-3.165c-2.209,0-4,1.791-4,4c0,0.191,0.03,0.374,0.056,0.558C18.128,44.714,17.592,44.5,17,44.5 c-1.228,0-2.245,0.887-2.455,2.055C14.366,46.527,14.187,46.5,14,46.5c-1.933,0-3.5,1.567-3.5,3.5s1.567,3.5,3.5,3.5s7.5,0,7.5,0 V54h7V53.5z"/><path fill="#472b29" d="M30.25,49C30.112,49,30,48.888,30,48.75c0-1.223,0.995-2.218,2.218-2.218 c0.034,0.009,0.737-0.001,1.244,0.136c0.133,0.036,0.212,0.173,0.176,0.306c-0.036,0.134-0.173,0.213-0.306,0.176 c-0.444-0.12-1.1-0.12-1.113-0.118c-0.948,0-1.719,0.771-1.719,1.718C30.5,48.888,30.388,49,30.25,49z"/><circle cx="23.5" cy="53.5" r=".5" fill="#472b29"/><path fill="#472b29" d="M32,54h-3.5c-0.276,0-0.5-0.224-0.5-0.5s0.224-0.5,0.5-0.5H32c1.654,0,3-1.346,3-3 c0-1.496-1.125-2.768-2.618-2.959c-0.134-0.018-0.255-0.088-0.336-0.196s-0.115-0.244-0.094-0.377C31.975,46.314,32,46.16,32,46 c0-1.654-1.346-3-3-3c-0.85,0-1.638,0.355-2.219,1c-0.125,0.139-0.321,0.198-0.5,0.148c-0.182-0.049-0.321-0.195-0.36-0.379 C25.58,42.165,24.141,41,22.5,41c-1.93,0-3.5,1.57-3.5,3.5c0,0.143,0.021,0.28,0.041,0.418c0.029,0.203-0.063,0.438-0.242,0.54 c-0.179,0.102-0.396,0.118-0.556-0.01C17.878,45.155,17.449,45,17,45c-0.966,0-1.792,0.691-1.963,1.644 c-0.048,0.267-0.296,0.446-0.569,0.405C14.314,47.025,14.16,47,14,47c-1.654,0-3,1.346-3,3s1.346,3,3,3h7.5 c0.276,0,0.5,0.224,0.5,0.5S21.776,54,21.5,54H14c-2.206,0-4-1.794-4-4s1.794-4,4-4c0.059,0,0.116,0.002,0.174,0.006 C14.588,44.82,15.711,44,17,44c0.349,0,0.689,0.061,1.011,0.18C18.176,41.847,20.126,40,22.5,40c1.831,0,3.466,1.127,4.153,2.774 C27.333,42.276,28.155,42,29,42c2.206,0,4,1.794,4,4c0,0.048-0.001,0.095-0.004,0.142C34.739,46.59,36,48.169,36,50 C36,52.206,34.206,54,32,54z"/><path fill="#472b29" d="M26.5,53c-0.159,0-0.841,0-1,0c-0.276,0-0.5,0.224-0.5,0.5c0,0.276,0.224,0.5,0.5,0.5 c0.159,0,0.841,0,1,0c0.276,0,0.5-0.224,0.5-0.5C27,53.224,26.776,53,26.5,53z"/></g><g><path fill="#472b29" d="M36.208,75.708c-0.068,0-0.134-0.027-0.182-0.079c-0.068-0.072-0.087-0.178-0.048-0.269 c1.215-2.869,1.272-5.05,1.358-8.35L37.587,67l0.25,0.007c-0.083,3.171-0.138,5.32-1.185,8.022 c3.289-1.254,5.766-3.145,7.976-6.073c0.057-0.076,0.149-0.113,0.248-0.095c1.045,0.203,1.356,0.243,2.482,0.354 c0.137,0.014,0.237,0.137,0.224,0.273c-0.014,0.138-0.126,0.24-0.273,0.225c-1.088-0.108-1.429-0.15-2.375-0.332 c-2.366,3.094-5.037,5.044-8.642,6.312C36.264,75.703,36.236,75.708,36.208,75.708z"/></g><g><path fill="#1f212b" d="M66.194,52H52.5c-0.445,0-0.806-0.447-0.806-1s0.36-1,0.806-1h13.694C66.64,50,67,50.447,67,51 S66.64,52,66.194,52z"/><path fill="#1f212b" d="M63.16,65.139c-0.123,0-0.25-0.027-0.368-0.087c-6.66-3.295-9.47-8.591-9.585-8.815 c-0.214-0.413-0.056-0.923,0.352-1.14s0.915-0.059,1.131,0.353c0.026,0.051,2.694,5.042,8.841,8.084 c0.415,0.205,0.586,0.711,0.383,1.13C63.768,64.966,63.47,65.139,63.16,65.139z"/><path fill="#1f212b" d="M51.526,65.139c-0.348,0-0.673-0.236-0.788-0.609c-0.146-0.466,0.089-0.971,0.526-1.126 c9.605-3.435,11.028-12.276,11.083-12.651c0.073-0.485,0.498-0.822,0.951-0.74c0.453,0.076,0.763,0.53,0.693,1.015 c-0.061,0.419-1.607,10.277-12.2,14.065C51.702,65.124,51.612,65.139,51.526,65.139z"/><path fill="#1f212b" d="M59,52c-0.553,0-1-0.372-1-0.833v-3.333C58,47.372,58.447,47,59,47s1,0.372,1,0.833v3.333 C60,51.628,59.553,52,59,52z"/><path fill="#1f212b" d="M46.264,52h-6.042c-0.445,0-0.806-0.447-0.806-1s0.36-1,0.806-1h6.042c0.445,0,0.806,0.447,0.806,1 S46.709,52,46.264,52z"/><path fill="#1f212b" d="M49.134,56.999c-0.354,0-0.688-0.215-0.815-0.561L43.5,43.352l-4.819,13.087 c-0.162,0.442-0.66,0.671-1.109,0.511c-0.451-0.16-0.683-0.647-0.521-1.088l5.634-15.3C42.809,40.224,43.136,40,43.5,40 c0.364,0,0.692,0.224,0.815,0.561l5.634,15.3c0.163,0.442-0.07,0.929-0.521,1.088C49.332,56.983,49.231,56.999,49.134,56.999z"/></g></svg>