<?xml version="1.0" encoding="UTF-8"?>
<svg width="112px" height="112px" viewBox="0 0 112 112" version="1.1" xmlns="http://www.w3.org/2000/svg" xmlns:xlink="http://www.w3.org/1999/xlink">
    <!-- Generator: Sketch 54.1 (76490) - https://sketchapp.com -->
    <title>Artboard</title>
    <desc>Created with Sketch.</desc>
    <defs>
        <linearGradient x1="50%" y1="100%" x2="50%" y2="0%" id="linearGradient-1">
            <stop stop-color="#3CB5EA" offset="0%"></stop>
            <stop stop-color="#7DDEFB" offset="100%"></stop>
        </linearGradient>
        <linearGradient x1="50%" y1="367.65%" x2="50%" y2="-71.2%" id="linearGradient-2">
            <stop stop-color="#155CDE" offset="0%"></stop>
            <stop stop-color="#1F7FE5" offset="27.8%"></stop>
            <stop stop-color="#279CEB" offset="56.9%"></stop>
            <stop stop-color="#2CAFEF" offset="82%"></stop>
            <stop stop-color="#2EB5F0" offset="100%"></stop>
        </linearGradient>
        <linearGradient x1="50.001109%" y1="100.001072%" x2="50.001109%" y2="0%" id="linearGradient-3">
            <stop stop-color="#75D0F3" offset="0%"></stop>
            <stop stop-color="#96E5FC" offset="100%"></stop>
        </linearGradient>
        <linearGradient x1="50.0017563%" y1="125.342172%" x2="50.0017563%" y2="-78.0162598%" id="linearGradient-4">
            <stop stop-color="#155CDE" offset="0%"></stop>
            <stop stop-color="#1F7FE5" offset="27.8%"></stop>
            <stop stop-color="#279CEB" offset="56.9%"></stop>
            <stop stop-color="#2CAFEF" offset="82%"></stop>
            <stop stop-color="#2EB5F0" offset="100%"></stop>
        </linearGradient>
        <linearGradient x1="50%" y1="149.546748%" x2="50%" y2="-58.9016549%" id="linearGradient-5">
            <stop stop-color="#155CDE" offset="0%"></stop>
            <stop stop-color="#1F7FE5" offset="27.8%"></stop>
            <stop stop-color="#279CEB" offset="56.9%"></stop>
            <stop stop-color="#2CAFEF" offset="82%"></stop>
            <stop stop-color="#2EB5F0" offset="100%"></stop>
        </linearGradient>
        <linearGradient x1="50%" y1="185.738938%" x2="50%" y2="-26.1040649%" id="linearGradient-6">
            <stop stop-color="#155CDE" offset="0%"></stop>
            <stop stop-color="#1F7FE5" offset="27.8%"></stop>
            <stop stop-color="#279CEB" offset="56.9%"></stop>
            <stop stop-color="#2CAFEF" offset="82%"></stop>
            <stop stop-color="#2EB5F0" offset="100%"></stop>
        </linearGradient>
        <linearGradient x1="50%" y1="162.485%" x2="50%" y2="-77.21%" id="linearGradient-7">
            <stop stop-color="#155CDE" offset="0%"></stop>
            <stop stop-color="#1F7FE5" offset="27.8%"></stop>
            <stop stop-color="#279CEB" offset="56.9%"></stop>
            <stop stop-color="#2CAFEF" offset="82%"></stop>
            <stop stop-color="#2EB5F0" offset="100%"></stop>
        </linearGradient>
        <linearGradient x1="50%" y1="100%" x2="50%" y2="0%" id="linearGradient-8">
            <stop stop-color="#F2FBFE" offset="0%"></stop>
            <stop stop-color="#F4FCFE" offset="100%"></stop>
        </linearGradient>
    </defs>
    <g id="Artboard" stroke="none" stroke-width="1" fill="none" fill-rule="evenodd">
        <g id="icons8-edit-image" transform="translate(6.000000, 20.000000)" fill-rule="nonzero">
            <path d="M89.2857143,0 L10.7142857,0 C4.79642857,0 0,4.8348 0,10.8 L0,61.2 C0,67.1652 4.79642857,72 10.7142857,72 L89.2857143,72 C95.2035714,72 100,67.1652 100,61.2 L100,10.8 C100,4.8348 95.2035714,0 89.2857143,0 Z" id="Path" fill="url(#linearGradient-1)"></path>
            <path d="M0,47 L0,61.2857143 C0,67.2035714 4.79642857,72 10.7142857,72 L89.2857143,72 C95.2035714,72 100,67.2035714 100,61.2857143 L100,47 L48.2142857,47 L46.4285714,50.5714286 L42.8571429,47 L0,47 Z" id="Path" fill="url(#linearGradient-2)"></path>
            <path d="M7.12280503,21.8114526 C8.27106579,22.9536982 8.9707872,24.5492159 8.9707872,26.2897807 C8.9707872,29.7709103 6.15396002,32.6355899 2.69123616,32.6355899 L0,32.6355899 L0,47.1402965 L43.9568573,47.1402965 C44.9203198,47.1402965 45.8317518,49.3450119 46.6480934,48.9533848 C47.281431,48.648786 47.8555614,45.816742 48.3507488,45.3272081 C49.515157,44.1758971 50.2364083,42.5695008 50.2364083,40.7944873 L50.2364083,40.7944873 C50.2364083,37.2897876 47.4249636,34.4486782 43.9568573,34.4486782 L42.1626998,34.4486782 C40.4403087,34.4486782 38.8614501,33.7415737 37.7311309,32.5811972 C36.6349008,31.4915311 35.9477385,29.9884809 35.8867371,28.3403836 C35.7539694,24.7214593 38.9314223,21.7570599 42.5143547,21.7570599 L55.3874343,21.7570599 C57.7054857,21.7570599 59.896152,20.3809259 60.6766104,18.1762105 C61.4391274,16.0240746 60.786054,13.8538079 59.4207002,12.4740477 C58.4536494,11.49498 57.0900897,10.87853 55.6188806,10.87853 L50.2364083,10.87853 C48.2628351,10.87853 46.4686777,10.0626402 45.1768843,8.73908573 C43.8671494,7.43366214 43.0597785,5.62057381 43.0597785,3.62617665 C43.0597785,2.30262217 43.41861,1.06972211 44.0465651,0 L10.7649446,0 C4.81910688,0 0,4.86995524 0,10.87853 L0,19.9439716 L2.69123616,19.9439716 C4.4136273,19.9439716 5.99248585,20.651076 7.12280503,21.8114526 Z" id="Path" fill="url(#linearGradient-3)"></path>
            <path d="M39.7408058,40.7789701 C37.0321753,36.9655917 31.3641154,37.0980131 28.8489585,41.0456024 C22.5825635,50.8555231 12.4986477,66.6190384 9,71.9373683 C9.37799009,71.9767368 9.75956303,72 10.1465102,72 L53.6511996,72 C56.1376936,72 58.4020514,70.9656815 60,69.3104139 L39.7408058,40.7789701 Z" id="Path" fill="url(#linearGradient-4)"></path>
            <path d="M20.484375,66.1404027 C21.2956731,65.334036 22.4314904,64.8322968 23.6754808,64.8322968 L34.2944712,64.8322968 C35.71875,62.6640666 37.2872596,60.2270475 38.9459135,57.6645937 L30.8870192,57.6645937 C28.3990385,57.6645937 26.3798077,55.6576368 26.3798077,53.1847792 C26.3798077,51.9483504 26.8846154,50.8194371 27.6959135,50.0130705 C28.5072115,49.2067039 29.6430288,48.7049647 30.8870192,48.7049647 L33.5913462,48.7049647 C35.0697115,48.7049647 36.4399038,48.0957099 37.4134615,47.12807 C38.3870192,46.1604301 39,44.7985665 39,43.3291873 C39,40.5319911 36.8167067,38.2293665 34.0655048,38 C32.093149,38.1415621 30.1766827,39.1289132 28.9759615,41.0014757 C22.6694712,50.8248129 12.5210337,66.6098872 9,71.9354907 C9.38040865,71.976705 9.76442308,72 10.1538462,72 L20.0697115,72 C19.5108173,71.2653104 19.1682692,70.3155898 19.1682692,69.3121113 C19.1682692,68.0756825 19.6730769,66.9467693 20.484375,66.1404027 Z" id="Path" fill="url(#linearGradient-5)"></path>
            <path d="M92,68.7556595 C90.0585677,70.7521767 87.3082053,72 84.2881995,72 L30,72 C34.2064366,65.6539273 46.5201508,46.5444049 54.1600464,34.6722576 C57.2160046,29.9127031 64.1008988,29.7522687 67.390548,34.3513888 L92,68.7556595 Z" id="Path" fill="url(#linearGradient-6)"></path>
            <path d="M88.4310504,64.8 L83.3564322,57.6 L78.2638825,50.4 L73.1713327,43.2 L68.078783,36 L67.379454,36 C66.3932207,36 65.4966451,36.396 64.8511106,37.062 C64.1876446,37.71 63.7931513,38.61 63.7931513,39.6 C63.7931513,41.58 65.4069875,43.2 67.379454,43.2 C68.3656872,43.2 69.2622628,43.596 69.9077973,44.262 C70.5712633,44.91 70.9657566,45.81 70.9657566,46.8 C70.9657566,48.78 69.3519204,50.4 67.379454,50.4 L65.5863026,50.4 C64.6000694,50.4 63.7034938,50.796 63.0579593,51.462 C62.3944933,52.11 62,53.01 62,54 C62,55.98 63.6138362,57.6 65.5863026,57.6 L70.9657566,57.6 C71.9519898,57.6 72.8485655,57.996 73.4941,58.662 C74.1575659,59.31 74.5520592,60.21 74.5520592,61.2 C74.5520592,63.18 72.938223,64.8 70.9657566,64.8 L67.379454,64.8 C66.3932207,64.8 65.4966451,65.196 64.8511106,65.862 C64.1876446,66.51 63.7931513,67.41 63.7931513,68.4 C63.7931513,70.38 65.4069875,72 67.379454,72 L83.5178158,72 L88.8972698,72 C90.3515155,72 91.7358283,71.7066 93,71.1828 L88.4310504,64.8 Z" id="Path" fill="url(#linearGradient-7)"></path>
            <path d="M22,11 C17.581722,11 14,14.581722 14,19 C14,23.418278 17.581722,27 22,27 C26.418278,27 30,23.418278 30,19 C30,14.581722 26.418278,11 22,11 Z" id="Path" fill="url(#linearGradient-8)"></path>
        </g>
    </g>
</svg>