<svg xmlns="http://www.w3.org/2000/svg" viewBox="0 0 100 100" width="100" height="100"><path fill="#c7ede6" d="M88.346,56.672c0.3-0.616,0.566-1.264,0.796-1.943c2.633-7.77-1.349-17.078-9.733-19.325c-0.906-11.384-8.906-19.193-17.941-20.526c-10.341-1.525-19.814,5.044-22.966,15.485c-3.799-1.346-7.501-1.182-10.99,0.857c-1.583,0.732-3.031,1.812-4.33,3.233c-1.907,2.086-3.147,4.719-3.652,7.495c-0.748,0.118-1.483,0.236-2.176,0.484c-4.04,1.449-6.589,4.431-7.288,8.923c-0.435,2.797,0.443,5.587,0.933,6.714c1.935,4.455,6.422,6.98,10.981,6.312c0.227-0.033,0.557,0.069,0.752,0.233c0.241,7.12,3.698,13.417,8.884,17.014c8.321,5.772,19.027,3.994,25.781-3.921c2.894,2.96,6.338,4.398,10.384,3.876c4.023-0.519,7.147-2.739,9.426-6.349c1.053,0.283,2.051,0.691,3.083,0.804c4.042,0.442,7.324-1.165,9.732-4.8c0.922-1.391,1.794-3.194,1.794-6.354C91.816,61.629,90.522,58.662,88.346,56.672z"/><path fill="#fdfcef" d="M75.705,56.381c0,0,10.616,0,10.681,0c2.452,0,4.439-1.987,4.439-4.439c0-2.139-1.513-3.924-3.527-4.344c0.023-0.187,0.039-0.377,0.039-0.57c0-2.539-2.058-4.598-4.597-4.598c-1.499,0-2.827,0.721-3.666,1.831c-0.215-2.826-2.739-5.007-5.693-4.646c-2.16,0.264-3.947,1.934-4.344,4.073c-0.127,0.686-0.114,1.352,0.013,1.977c-0.579-0.624-1.403-1.016-2.322-1.016c-1.68,0-3.052,1.308-3.16,2.961c-0.763-0.169-1.593-0.158-2.467,0.17c-1.671,0.627-2.861,2.2-2.93,3.983c-0.099,2.533,1.925,4.617,4.435,4.617c0.191,0,0.861,0,1.015,0h9.218"/><path fill="#472b29" d="M86.386,56.881H75.706c-0.276,0-0.5-0.224-0.5-0.5s0.224-0.5,0.5-0.5h10.681c2.172,0,3.938-1.768,3.938-3.939c0-1.855-1.315-3.477-3.129-3.855c-0.254-0.053-0.425-0.291-0.394-0.549c0.02-0.167,0.035-0.337,0.035-0.511c0-2.26-1.838-4.098-4.098-4.098c-1.292,0-2.482,0.596-3.267,1.634c-0.126,0.165-0.342,0.237-0.54,0.178c-0.2-0.059-0.342-0.234-0.358-0.441c-0.094-1.239-0.7-2.402-1.663-3.191c-0.973-0.797-2.208-1.149-3.471-0.997c-1.946,0.238-3.556,1.747-3.913,3.669c-0.111,0.599-0.107,1.2,0.012,1.786c0.044,0.22-0.062,0.442-0.262,0.544c-0.197,0.105-0.442,0.06-0.595-0.104c-0.513-0.552-1.207-0.856-1.955-0.856c-1.4,0-2.569,1.096-2.661,2.494c-0.01,0.145-0.082,0.279-0.198,0.366c-0.118,0.088-0.271,0.119-0.408,0.089c-0.755-0.166-1.471-0.115-2.184,0.15c-1.498,0.562-2.546,1.983-2.606,3.535c-0.043,1.084,0.347,2.109,1.097,2.889s1.758,1.209,2.839,1.209H72.84c0.276,0,0.5,0.224,0.5,0.5s-0.224,0.5-0.5,0.5H62.606c-1.355,0-2.62-0.538-3.56-1.516c-0.94-0.978-1.429-2.263-1.376-3.621c0.077-1.949,1.385-3.73,3.255-4.432c0.72-0.27,1.463-0.365,2.221-0.279c0.362-1.655,1.842-2.885,3.582-2.885c0.603,0,1.193,0.151,1.72,0.432c0.004-0.327,0.036-0.656,0.098-0.984c0.436-2.346,2.398-4.187,4.774-4.478c1.533-0.191,3.039,0.243,4.226,1.216c0.899,0.737,1.544,1.742,1.847,2.852c0.92-0.808,2.096-1.257,3.348-1.257c2.811,0,5.098,2.287,5.098,5.098c0,0.064-0.002,0.129-0.005,0.192c2.048,0.628,3.492,2.547,3.492,4.723C91.325,54.665,89.109,56.881,86.386,56.881z"/><path fill="#fdfcef" d="M73.133,46.602c-1.642-0.108-3.055,1.026-3.157,2.533c-0.013,0.187-0.004,0.371,0.023,0.55c-0.317-0.358-0.786-0.6-1.324-0.636c-0.985-0.065-1.836,0.586-1.959,1.471c-0.179-0.049-0.366-0.082-0.56-0.095c-1.437-0.094-2.674,0.898-2.762,2.216"/><path fill="#472b29" d="M63.394,52.892c-0.006,0-0.011,0-0.017-0.001c-0.138-0.009-0.242-0.128-0.232-0.266c0.099-1.454,1.434-2.564,3.027-2.448c0.117,0.007,0.235,0.022,0.354,0.044c0.259-0.88,1.17-1.492,2.166-1.42c0.376,0.024,0.729,0.138,1.034,0.329c0-0.004,0-0.008,0.001-0.012c0.11-1.642,1.646-2.899,3.422-2.766c0.138,0.009,0.242,0.128,0.232,0.266c-0.008,0.132-0.118,0.233-0.249,0.233c-0.005,0-0.011,0-0.017-0.001c-1.506-0.105-2.798,0.934-2.891,2.301c-0.011,0.164-0.004,0.331,0.021,0.496c0.017,0.11-0.041,0.218-0.141,0.265c-0.102,0.045-0.221,0.021-0.294-0.061c-0.289-0.326-0.698-0.522-1.153-0.553c-0.83-0.032-1.589,0.495-1.694,1.256c-0.011,0.071-0.051,0.135-0.11,0.175c-0.059,0.039-0.132,0.052-0.203,0.032c-0.171-0.046-0.343-0.075-0.512-0.087c-1.305-0.062-2.416,0.805-2.496,1.983C63.634,52.79,63.525,52.892,63.394,52.892z"/><path fill="#fdfcef" d="M88.183,48.118c-1.543-0.727-3.327-0.213-3.985,1.15c-0.082,0.169-0.142,0.344-0.182,0.521"/><path fill="#472b29" d="M84.015,50.039c-0.019,0-0.037-0.002-0.057-0.007c-0.135-0.031-0.218-0.165-0.187-0.3c0.047-0.201,0.114-0.395,0.201-0.573c0.715-1.482,2.649-2.053,4.316-1.268c0.125,0.06,0.179,0.208,0.12,0.333c-0.06,0.126-0.211,0.176-0.333,0.12c-1.418-0.669-3.056-0.205-3.653,1.032c-0.071,0.146-0.126,0.304-0.165,0.469C84.232,49.96,84.13,50.039,84.015,50.039z"/><path fill="#fff" d="M18.01 48.708H7.98c-.276 0-.5-.224-.5-.5s.224-.5.5-.5h10.03c.276 0 .5.224.5.5S18.287 48.708 18.01 48.708zM20.891 48.708h-1.445c-.276 0-.5-.224-.5-.5s.224-.5.5-.5h1.445c.276 0 .5.224.5.5S21.168 48.708 20.891 48.708zM24.946 48.708H22.4c-.276 0-.5-.224-.5-.5s.224-.5.5-.5h2.546c.276 0 .5.224.5.5S25.222 48.708 24.946 48.708zM24.946 50.573H15.33c-.276 0-.5-.224-.5-.5s.224-.5.5-.5h9.616c.276 0 .5.224.5.5S25.222 50.573 24.946 50.573zM13.598 50.573h-.58c-.276 0-.5-.224-.5-.5s.224-.5.5-.5h.58c.276 0 .5.224.5.5S13.875 50.573 13.598 50.573zM11.221 50.573H9.765c-.276 0-.5-.224-.5-.5s.224-.5.5-.5h1.456c.276 0 .5.224.5.5S11.498 50.573 11.221 50.573zM20.357 46.843H15.33c-.276 0-.5-.224-.5-.5s.224-.5.5-.5h5.027c.276 0 .5.224.5.5S20.633 46.843 20.357 46.843zM20.357 44.978H19.1c-.276 0-.5-.224-.5-.5s.224-.5.5-.5h1.257c.276 0 .5.224.5.5S20.633 44.978 20.357 44.978zM17.089 52.438H15.33c-.276 0-.5-.224-.5-.5s.224-.5.5-.5h1.759c.276 0 .5.224.5.5S17.365 52.438 17.089 52.438z"/><path fill="#78a0cf" d="M51.695,65.904c6.811,0,12.957,2.835,17.335,7.383c4.164-4.326,6.729-10.202,6.729-16.681c0-13.29-10.774-24.064-24.064-24.064S27.631,43.315,27.631,56.606c0,6.479,2.565,12.355,6.729,16.681C38.738,68.738,44.884,65.904,51.695,65.904z"/><path fill="#472b29" d="M69.03,73.987c-0.19,0-0.372-0.078-0.504-0.215c-4.449-4.622-10.427-7.168-16.831-7.168c-6.403,0-12.381,2.546-16.831,7.168c-0.132,0.137-0.313,0.215-0.504,0.215l0,0c-0.19,0-0.372-0.078-0.504-0.215c-4.466-4.64-6.925-10.736-6.925-17.166c0-13.655,11.109-24.765,24.764-24.765c13.655,0,24.765,11.109,24.765,24.765c0,6.43-2.46,12.526-6.926,17.166C69.402,73.909,69.22,73.987,69.03,73.987z M51.695,65.204c6.543,0,12.664,2.506,17.32,7.073c3.903-4.308,6.044-9.844,6.044-15.671c0-12.883-10.481-23.364-23.364-23.364S28.332,43.723,28.332,56.606c0,5.827,2.141,11.363,6.043,15.671C39.032,67.709,45.153,65.204,51.695,65.204z"/><path fill="#fdfcef" d="M51.695,36.898c-10.658,0-19.298,8.64-19.298,19.298c0,5.49,2.303,10.432,5.983,13.947c3.813-2.542,8.388-4.031,13.315-4.031c4.927,0,9.502,1.489,13.315,4.031c3.68-3.514,5.983-8.457,5.983-13.946C70.994,45.538,62.353,36.898,51.695,36.898z"/><path fill="#472b29" d="M65.01,70.643c-0.097,0-0.192-0.027-0.277-0.084c-3.873-2.583-8.382-3.948-13.038-3.948c-4.655,0-9.164,1.365-13.037,3.948c-0.194,0.131-0.452,0.108-0.623-0.055c-3.958-3.78-6.138-8.862-6.138-14.309c0-10.917,8.881-19.798,19.798-19.798s19.799,8.881,19.799,19.798c0,5.446-2.18,10.528-6.138,14.309C65.26,70.596,65.135,70.643,65.01,70.643z M51.695,65.611c4.719,0,9.293,1.345,13.254,3.895c3.579-3.56,5.545-8.271,5.545-13.31c0-10.365-8.434-18.798-18.799-18.798s-18.798,8.433-18.798,18.798c0,5.039,1.966,9.75,5.545,13.31C42.403,66.956,46.976,65.611,51.695,65.611z"/><path fill="#ef8f70" d="M46.315,51.045l-5.726-5.726c-0.096-0.096-0.229-0.148-0.364-0.143c-0.135,0.005-0.263,0.066-0.351,0.168c-1.129,1.301-2.039,2.762-2.703,4.343c-0.684,1.628-1.094,3.352-1.217,5.121c-0.009,0.134,0.038,0.268,0.13,0.366c0.092,0.099,0.223,0.156,0.359,0.156h8.097c0.241,0,0.45-0.181,0.485-0.42c0.17-1.165,0.633-2.281,1.338-3.228C46.506,51.49,46.486,51.216,46.315,51.045z"/><path fill="#472b29" d="M44.54,55.581h-8.098c-0.204,0-0.4-0.085-0.54-0.234c-0.141-0.15-0.212-0.353-0.197-0.557c0.124-1.794,0.541-3.544,1.236-5.199c0.675-1.607,1.598-3.091,2.744-4.41c0.133-0.153,0.327-0.246,0.531-0.254c0.201,0.007,0.405,0.072,0.55,0.217l5.726,5.726c0.258,0.258,0.288,0.673,0.07,0.964c-0.681,0.913-1.127,1.99-1.291,3.114C45.218,55.308,44.904,55.581,44.54,55.581z M40.243,45.426c-0.003,0-0.006,0-0.009,0c-0.065,0.002-0.129,0.032-0.172,0.082c-1.11,1.279-2.006,2.718-2.66,4.275c-0.675,1.605-1.078,3.302-1.199,5.042c-0.005,0.065,0.019,0.131,0.063,0.18c0.045,0.047,0.109,0.075,0.176,0.075h8.098c0.118,0,0.22-0.089,0.237-0.206c0.176-1.206,0.654-2.361,1.385-3.341c0.07-0.094,0.061-0.228-0.023-0.312l-5.726-5.726C40.368,45.452,40.306,45.426,40.243,45.426z"/><path fill="#78a0cf" d="M67.437,54.808c-0.124-1.77-0.533-3.493-1.217-5.121c-0.664-1.581-1.574-3.043-2.703-4.343c-0.088-0.102-0.216-0.163-0.351-0.168c-0.136-0.005-0.268,0.047-0.364,0.143l-5.726,5.726c-0.171,0.171-0.191,0.445-0.047,0.638c0.705,0.947,1.168,2.063,1.338,3.228c0.035,0.24,0.243,0.42,0.485,0.42h8.097c0.135,0,0.266-0.057,0.359-0.156C67.399,55.076,67.447,54.943,67.437,54.808z"/><path fill="#472b29" d="M66.949,55.581h-8.098c-0.364,0-0.679-0.272-0.731-0.634c-0.164-1.124-0.61-2.201-1.291-3.114c-0.219-0.292-0.188-0.707,0.071-0.965l5.725-5.725c0.145-0.145,0.345-0.211,0.55-0.217c0.205,0.008,0.399,0.101,0.531,0.255c1.146,1.317,2.069,2.802,2.744,4.409c0.694,1.652,1.11,3.402,1.236,5.199l0,0c0.015,0.204-0.057,0.406-0.196,0.556C67.349,55.496,67.153,55.581,66.949,55.581z M63.148,45.426c-0.063,0-0.125,0.025-0.17,0.07l-5.726,5.726c-0.084,0.084-0.094,0.217-0.023,0.312c0.73,0.979,1.209,2.135,1.385,3.341c0.018,0.117,0.119,0.206,0.237,0.206h8.098c0.066,0,0.131-0.028,0.177-0.076c0.044-0.048,0.067-0.113,0.062-0.178c0-0.001,0-0.001,0-0.001c-0.122-1.743-0.526-3.439-1.199-5.042c-0.654-1.559-1.55-2.997-2.661-4.275c-0.043-0.051-0.105-0.08-0.171-0.082C63.154,45.426,63.151,45.426,63.148,45.426z"/><path fill="#00a5a5" d="M67.198,56.542c-0.092-0.099-0.223-0.156-0.359-0.156h-8.097c-0.241,0-0.45,0.181-0.485,0.42c-0.17,1.165-0.633,2.281-1.338,3.228c-0.144,0.193-0.124,0.467,0.047,0.638l5.726,5.726c0.092,0.092,0.217,0.144,0.347,0.144c0.006,0,0.011,0,0.017,0c0.135-0.005,0.263-0.066,0.351-0.168c1.129-1.301,2.039-2.762,2.703-4.343c0.684-1.628,1.094-3.352,1.218-5.121C67.337,56.774,67.29,56.641,67.198,56.542z"/><path fill="#472b29" d="M63.06,66.79c-0.219,0-0.408-0.079-0.545-0.216l-5.726-5.727c-0.259-0.258-0.289-0.672-0.07-0.964c0.681-0.913,1.127-1.991,1.291-3.114c0.053-0.361,0.367-0.634,0.731-0.634h8.098c0.204,0,0.401,0.086,0.541,0.236l0,0c0.14,0.149,0.211,0.352,0.196,0.555c-0.126,1.798-0.542,3.548-1.236,5.199c-0.674,1.606-1.598,3.09-2.745,4.411c-0.132,0.153-0.325,0.245-0.53,0.253C63.065,66.79,63.062,66.79,63.06,66.79z M58.742,56.636c-0.118,0-0.22,0.089-0.237,0.206c-0.176,1.205-0.654,2.36-1.385,3.342c-0.069,0.093-0.06,0.229,0.023,0.31l5.726,5.728c0.045,0.045,0.106,0.07,0.17,0.07c0.074-0.003,0.137-0.032,0.179-0.082c1.113-1.28,2.009-2.72,2.662-4.276c0.673-1.602,1.076-3.298,1.199-5.042c0.004-0.064-0.02-0.131-0.063-0.179c-0.046-0.048-0.109-0.076-0.176-0.076H58.742z"/><path fill="#f1bc19" d="M46.472,60.034c-0.705-0.947-1.168-2.063-1.338-3.228c-0.035-0.24-0.243-0.42-0.485-0.42h-8.097c-0.135,0-0.266,0.057-0.359,0.156c-0.092,0.099-0.139,0.232-0.13,0.366c0.124,1.77,0.533,3.493,1.218,5.121c0.664,1.581,1.574,3.043,2.703,4.343c0.088,0.102,0.216,0.163,0.351,0.168c0.006,0,0.011,0,0.017,0c0.129,0,0.255-0.052,0.347-0.144l5.726-5.726C46.595,60.501,46.615,60.227,46.472,60.034z"/><path fill="#472b29" d="M40.352,66.791c-0.23-0.009-0.424-0.101-0.558-0.253c-1.147-1.322-2.07-2.806-2.745-4.412c-0.695-1.655-1.111-3.405-1.235-5.2c-0.015-0.202,0.057-0.404,0.196-0.554c0.138-0.15,0.335-0.236,0.541-0.236h8.098c0.364,0,0.679,0.272,0.731,0.634c0.164,1.123,0.61,2.201,1.291,3.115c0.218,0.292,0.188,0.706-0.07,0.964l-5.726,5.726C40.738,66.712,40.548,66.791,40.352,66.791z M36.551,56.636c-0.066,0-0.13,0.027-0.175,0.075c-0.045,0.049-0.068,0.115-0.064,0.179c0.121,1.742,0.524,3.438,1.198,5.043c0.654,1.557,1.55,2.996,2.661,4.276c0.043,0.049,0.105,0.079,0.172,0.081c0.081,0.005,0.134-0.024,0.179-0.069l5.726-5.727c0.082-0.082,0.092-0.218,0.023-0.311l0,0c-0.73-0.981-1.209-2.137-1.385-3.342c-0.018-0.117-0.119-0.206-0.237-0.206H36.551L36.551,56.636z"/><path fill="#a1a1ca" d="M62.21,43.607c-1.301-1.129-2.762-2.039-4.343-2.703c-1.628-0.684-3.352-1.094-5.121-1.217c-0.135-0.009-0.268,0.038-0.366,0.13c-0.099,0.092-0.156,0.223-0.156,0.359v8.097c0,0.241,0.181,0.45,0.42,0.485c1.165,0.17,2.281,0.633,3.228,1.338c0.086,0.064,0.188,0.096,0.291,0.096c0.127,0,0.253-0.048,0.347-0.143l5.726-5.726c0.096-0.096,0.148-0.228,0.143-0.364C62.372,43.824,62.311,43.695,62.21,43.607z"/><path fill="#472b29" d="M56.161,50.441c-0.158,0-0.314-0.052-0.44-0.146c-0.914-0.681-1.99-1.127-3.113-1.291c-0.362-0.053-0.635-0.367-0.635-0.731v-8.098c0-0.204,0.086-0.402,0.236-0.541c0.146-0.139,0.33-0.222,0.555-0.196c1.794,0.124,3.544,0.54,5.199,1.235c1.606,0.675,3.09,1.599,4.411,2.745c0,0,0,0,0.001,0c0.153,0.135,0.245,0.328,0.253,0.531c0.006,0.206-0.073,0.406-0.217,0.55l-5.726,5.726C56.547,50.365,56.36,50.441,56.161,50.441z M52.711,39.936c-0.061,0-0.117,0.022-0.161,0.062c-0.049,0.046-0.077,0.111-0.077,0.177v8.098c0,0.118,0.089,0.22,0.207,0.237c1.204,0.176,2.359,0.654,3.341,1.385c0.143,0.107,0.242,0.046,0.312-0.023l5.726-5.726c0.047-0.047,0.072-0.112,0.07-0.181c-0.002-0.063-0.032-0.126-0.082-0.17c-1.281-1.111-2.72-2.007-4.276-2.661c-1.604-0.674-3.301-1.077-5.042-1.198C52.721,39.936,52.716,39.936,52.711,39.936z"/><path fill="#ee3e54" d="M51.012,39.817c-0.099-0.092-0.233-0.139-0.366-0.13c-1.77,0.124-3.493,0.533-5.121,1.217c-1.581,0.664-3.043,1.574-4.343,2.703c-0.102,0.088-0.163,0.216-0.168,0.351c-0.005,0.135,0.047,0.268,0.143,0.364l5.726,5.726c0.094,0.094,0.221,0.143,0.347,0.143c0.102,0,0.204-0.031,0.291-0.096c0.947-0.705,2.063-1.168,3.228-1.338c0.24-0.035,0.42-0.243,0.42-0.485v-8.097C51.168,40.04,51.111,39.909,51.012,39.817z"/><path fill="#472b29" d="M47.23,50.441c-0.199,0-0.386-0.076-0.524-0.216l-5.726-5.726c-0.146-0.145-0.224-0.346-0.217-0.55c0.008-0.203,0.1-0.396,0.253-0.531c1.321-1.146,2.805-2.069,4.411-2.745c1.656-0.695,3.406-1.111,5.201-1.235c0.201-0.023,0.404,0.056,0.554,0.196c0.149,0.139,0.235,0.336,0.235,0.541v8.098c0,0.364-0.272,0.679-0.634,0.731c-1.124,0.164-2.201,0.61-3.114,1.291C47.545,50.389,47.388,50.441,47.23,50.441z M50.681,39.936c-0.006,0-0.012,0-0.017,0c-1.741,0.121-3.438,0.524-5.044,1.198c-1.557,0.655-2.995,1.551-4.275,2.661c-0.05,0.044-0.08,0.106-0.082,0.172c-0.003,0.066,0.023,0.132,0.07,0.179l5.726,5.726c0.069,0.069,0.171,0.131,0.311,0.023c0.98-0.73,2.136-1.209,3.342-1.385c0.117-0.018,0.206-0.119,0.206-0.237v-8.098c0-0.066-0.027-0.131-0.075-0.176c-0.001,0-0.001,0-0.001-0.001C50.798,39.958,50.74,39.936,50.681,39.936z"/><path fill="#7e7f99" d="M51.695 51.632A3.777 3.777 0 1 0 51.695 59.186A3.777 3.777 0 1 0 51.695 51.632Z"/><path fill="#472b29" d="M51.695,59.435c-2.22,0-4.026-1.807-4.026-4.026s1.807-4.026,4.026-4.026c2.221,0,4.027,1.807,4.027,4.026S53.916,59.435,51.695,59.435z M51.695,51.882c-1.944,0-3.526,1.582-3.526,3.526s1.582,3.526,3.526,3.526c1.945,0,3.527-1.582,3.527-3.526S53.64,51.882,51.695,51.882z"/><path fill="#e1e0d8" d="M52.26,56.804L52.26,56.804c-1.05,0.513-2.028-0.249-2.101-0.847l-3.301-12.369c-0.175-0.535,0.049-1.094,0.499-1.241l0,0c0.45-0.147,0.961,0.171,1.136,0.706l4.644,11.93C53.311,55.519,53.201,56.45,52.26,56.804z"/><path fill="#472b29" d="M51.55 57.171c-.284 0-.566-.069-.824-.21-.42-.228-.721-.612-.766-.979L46.665 43.64c-.206-.631.075-1.301.63-1.483.552-.177 1.178.192 1.389.835l4.64 11.92c.193.592.093 1.666-.984 2.076C52.085 57.111 51.817 57.171 51.55 57.171zM47.585 42.511c-.056 0-.111.009-.166.026-.345.113-.512.557-.37.988l3.304 12.38c.034.263.264.541.564.704.227.123.693.288 1.255.015.006-.003.012-.005.018-.008.824-.31.901-1.128.757-1.57l-4.64-11.92C48.184 42.754 47.883 42.511 47.585 42.511zM37.827 63.323c-.044 0-.086-.023-.109-.064-.033-.06-.012-.136.049-.17l1.323-.74c.059-.033.135-.011.17.049.033.06.012.136-.049.17l-1.323.74C37.869 63.318 37.847 63.323 37.827 63.323zM36.883 60.325c-.058 0-.109-.04-.122-.099-.015-.068.028-.134.096-.148l1.23-.262c.068-.014.134.028.148.096.015.068-.028.134-.096.148l-1.23.262C36.901 60.324 36.892 60.325 36.883 60.325zM38.058 51.566c-.007 0-.014-.001-.021-.002l-1.388-.23c-.068-.011-.114-.075-.103-.144.011-.068.073-.113.144-.103l1.388.23c.068.011.114.075.103.144C38.172 51.523 38.119 51.566 38.058 51.566zM38.971 48.989c-.019 0-.038-.004-.056-.014l-1.167-.584c-.062-.03-.087-.105-.056-.167.03-.062.106-.088.167-.056l1.167.584c.062.03.087.105.056.167C39.061 48.963 39.017 48.989 38.971 48.989zM44.915 43.022c-.038 0-.075-.018-.1-.05l-.774-1.027c-.042-.055-.031-.134.024-.175.055-.042.134-.03.175.024l.774 1.027c.042.055.031.134-.024.175C44.967 43.014 44.941 43.022 44.915 43.022zM47.426 41.884c-.051 0-.1-.031-.117-.083l-.445-1.231c-.023-.065.01-.137.075-.16.063-.028.137.009.159.075l.445 1.231c.023.065-.01.137-.075.16C47.455 41.882 47.44 41.884 47.426 41.884zM65.388 63.352c-.021 0-.042-.005-.061-.016l-1.323-.74c-.061-.034-.082-.11-.049-.17.034-.061.111-.082.17-.049l1.323.74c.061.034.082.11.049.17C65.474 63.329 65.432 63.352 65.388 63.352zM66.332 60.355c-.011 0-.022-.001-.033-.005l-1.128-.311c-.066-.018-.105-.087-.087-.153.018-.067.09-.111.153-.087l1.128.311c.066.018.105.087.087.153C66.437 60.319 66.386 60.355 66.332 60.355zM65.129 51.6c-.061 0-.113-.043-.123-.104-.012-.068.034-.133.103-.144l1.416-.234c.066-.014.133.034.144.103.012.068-.034.133-.103.144l-1.416.234C65.142 51.599 65.135 51.6 65.129 51.6zM64.311 48.985c-.046 0-.09-.025-.111-.069-.031-.062-.006-.137.056-.167l1.1-.55c.062-.033.137-.006.167.056.031.062.006.137-.056.167l-1.1.55C64.349 48.981 64.33 48.985 64.311 48.985zM58.372 43.019c-.025 0-.05-.008-.072-.023-.057-.039-.069-.117-.03-.174l.703-.994c.04-.057.117-.07.175-.029.057.039.069.117.03.174l-.703.994C58.45 43 58.411 43.019 58.372 43.019zM55.672 41.9c-.018 0-.035-.004-.053-.012-.062-.028-.09-.103-.061-.166l.562-1.218c.028-.061.103-.089.166-.061.062.028.09.104.061.166l-.562 1.218C55.764 41.873 55.718 41.9 55.672 41.9z"/><path fill="#fff" d="M68.036 22.387h-10.03c-.276 0-.5-.224-.5-.5s.224-.5.5-.5h10.03c.276 0 .5.224.5.5S68.312 22.387 68.036 22.387zM70.918 22.387h-1.446c-.276 0-.5-.224-.5-.5s.224-.5.5-.5h1.446c.276 0 .5.224.5.5S71.194 22.387 70.918 22.387zM74.971 22.387h-2.546c-.276 0-.5-.224-.5-.5s.224-.5.5-.5h2.546c.276 0 .5.224.5.5S75.248 22.387 74.971 22.387zM74.971 24.252h-9.616c-.276 0-.5-.224-.5-.5s.224-.5.5-.5h9.616c.276 0 .5.224.5.5S75.248 24.252 74.971 24.252zM63.624 24.252h-.58c-.276 0-.5-.224-.5-.5s.224-.5.5-.5h.58c.276 0 .5.224.5.5S63.9 24.252 63.624 24.252zM61.247 24.252h-1.456c-.276 0-.5-.224-.5-.5s.224-.5.5-.5h1.456c.276 0 .5.224.5.5S61.523 24.252 61.247 24.252zM70.382 20.522h-5.027c-.276 0-.5-.224-.5-.5s.224-.5.5-.5h5.027c.276 0 .5.224.5.5S70.659 20.522 70.382 20.522zM70.382 18.658h-1.257c-.276 0-.5-.224-.5-.5s.224-.5.5-.5h1.257c.276 0 .5.224.5.5S70.659 18.658 70.382 18.658zM67.114 26.117h-1.759c-.276 0-.5-.224-.5-.5s.224-.5.5-.5h1.759c.276 0 .5.224.5.5S67.39 26.117 67.114 26.117z"/><path fill="#fdfcef" d="M41.534,74.482c1.71,0,3.194,0,3.215,0c1.916,0,3.469-1.52,3.469-3.396c0-1.636-1.182-3.001-2.756-3.323c0.018-0.143,0.031-0.288,0.031-0.436c0-1.942-1.609-3.517-3.593-3.517c-1.172,0-2.209,0.551-2.865,1.401c-0.168-2.162-2.141-3.83-4.45-3.554c-1.688,0.202-3.084,1.479-3.395,3.116c-0.1,0.525-0.089,1.034,0.01,1.512c-0.453-0.477-1.097-0.777-1.814-0.777c-1.313,0-2.385,1.001-2.47,2.265c-0.596-0.129-1.245-0.121-1.928,0.13c-1.306,0.48-2.236,1.683-2.29,3.047c-0.077,1.937,1.504,3.532,3.467,3.532c0.149,0,0.673,0,0.794,0h7.204 M35.652,74.482h0.327"/><path fill="#472b29" d="M44.749,74.983h-3.215c-0.276,0-0.5-0.224-0.5-0.5s0.224-0.5,0.5-0.5h3.215c1.638,0,2.97-1.3,2.97-2.896c0-1.362-0.991-2.554-2.356-2.832c-0.257-0.053-0.43-0.295-0.396-0.555c0.016-0.122,0.026-0.246,0.026-0.372c0-1.663-1.388-3.017-3.093-3.017c-0.978,0-1.878,0.439-2.47,1.206c-0.126,0.164-0.343,0.23-0.538,0.174c-0.198-0.06-0.34-0.234-0.355-0.44c-0.071-0.913-0.507-1.742-1.228-2.333c-0.742-0.608-1.686-0.877-2.664-0.764c-1.476,0.177-2.694,1.293-2.964,2.713c-0.084,0.442-0.081,0.886,0.008,1.317c0.046,0.219-0.06,0.441-0.258,0.545c-0.197,0.103-0.44,0.063-0.594-0.1c-0.381-0.4-0.896-0.621-1.452-0.621c-1.037,0-1.903,0.79-1.971,1.799c-0.01,0.146-0.082,0.279-0.198,0.366c-0.116,0.089-0.265,0.12-0.407,0.089c-0.57-0.124-1.11-0.087-1.648,0.111c-1.129,0.414-1.918,1.458-1.963,2.598c-0.031,0.782,0.253,1.526,0.8,2.096c0.567,0.591,1.337,0.916,2.167,0.916h7.997c0.276,0,0.5,0.224,0.5,0.5s-0.224,0.5-0.5,0.5h-7.997c-1.089,0-2.142-0.445-2.888-1.223c-0.738-0.768-1.121-1.772-1.079-2.829c0.062-1.539,1.114-2.944,2.618-3.497c0.547-0.201,1.112-0.277,1.688-0.228c0.332-1.269,1.507-2.198,2.882-2.198c0.431,0,0.854,0.094,1.241,0.269c0.011-0.198,0.034-0.397,0.072-0.597c0.35-1.844,1.924-3.291,3.827-3.519c1.252-0.156,2.462,0.2,3.417,0.983c0.669,0.548,1.147,1.255,1.399,2.048c0.718-0.568,1.61-0.882,2.558-0.882c2.257,0,4.093,1.802,4.093,4.017c0,0.02,0,0.04-0.001,0.06c1.604,0.519,2.728,2.011,2.728,3.699C48.718,73.235,46.937,74.983,44.749,74.983z M35.978,74.983h-0.326c-0.276,0-0.5-0.224-0.5-0.5s0.224-0.5,0.5-0.5h0.326c0.276,0,0.5,0.224,0.5,0.5S36.255,74.983,35.978,74.983z"/><path fill="#472b29" d="M43.198 69.69c-.018 0-.036-.002-.055-.006-.135-.03-.22-.164-.189-.299.034-.152.087-.3.155-.44.557-1.124 2.088-1.538 3.41-.924.126.058.181.206.122.331-.058.126-.208.18-.331.122-1.084-.501-2.316-.189-2.753.692-.051.104-.09.215-.115.328C43.416 69.611 43.312 69.69 43.198 69.69zM38.513 74.983h-1.005c-.276 0-.5-.224-.5-.5s.224-.5.5-.5h1.005c.276 0 .5.224.5.5S38.79 74.983 38.513 74.983z"/></svg>