<svg height='100px' width='100px'  fill="#000000" xmlns="http://www.w3.org/2000/svg" xmlns:xlink="http://www.w3.org/1999/xlink" version="1.1" viewBox="0 0 96 96" x="0px" y="0px"><path d="M75.044 69.020c-11.308 0-19.384-8.876-27.044-17.992-7.732 9.196-15.784 17.992-27.044 17.992-11.588 0-21.020-9.424-21.020-21.020s9.428-21.020 21.020-21.020c11.384 0 19.432 8.76 27.044 17.816 7.608-9.052 15.66-17.816 27.044-17.816 11.588 0 21.020 9.424 21.020 21.020s-9.432 21.020-21.020 21.020zM50.608 47.912c7.568 9.028 14.752 17.108 24.432 17.108 9.388 0 17.020-7.636 17.020-17.020s-7.632-17.020-17.020-17.020c-9.784 0-17.276 8.4-24.432 16.932zM20.96 30.98c-9.384 0-17.020 7.636-17.020 17.020s7.636 17.020 17.020 17.020c9.728 0 16.94-8.16 24.436-17.108-7.156-8.532-14.644-16.932-24.436-16.932z" fill="#000000"></path></svg>