<svg fill="#000000" xmlns="http://www.w3.org/2000/svg" viewBox="0 0 24 24" width="96px" height="96px"><path d="M 3.9882812 1 C 2.3499049 1 1 2.3499048 1 3.9882812 L 1 12 L 1 20.011719 C 1 21.650095 2.3499048 23 3.9882812 23 L 12 23 L 20.011719 23 C 21.650095 23 23 21.650095 23 20.011719 L 23 12 L 23 3.9882812 C 23 2.3499049 21.650095 1 20.011719 1 L 12 1 L 3.9882812 1 z M 3.9882812 3 L 12 3 L 20.011719 3 C 20.569342 3 21 3.4306577 21 3.9882812 L 21 12 L 21 20.011719 C 21 20.569342 20.569342 21 20.011719 21 L 12 21 L 3.9882812 21 C 3.4306577 21 3 20.569342 3 20.011719 L 3 12 L 3 3.9882812 C 3 3.4306577 3.4306577 3 3.9882812 3 z M 11.859375 6.0078125 C 8.9868281 6.149 7.99775 8.1124531 8 9.9394531 C 8.003 12.179453 10.669297 12.990969 11.154297 13.167969 C 11.639297 13.344969 12.84375 13.68025 12.84375 14.40625 C 12.84375 15.01525 12.244359 15.174922 11.193359 15.169922 C 9.9653594 15.162922 8 14.138672 8 14.138672 L 8 17.142578 C 8 17.142578 9.1823125 18.058047 11.695312 17.998047 C 14.431313 17.934047 15.818328 16.6445 15.986328 14.5625 C 16.154328 12.4805 14.773641 11.43975 13.431641 10.96875 C 12.087641 10.49675 11.230703 10.227578 11.220703 9.5175781 C 11.209703 8.6045781 12.677719 8.8145625 13.511719 8.9765625 C 14.393719 9.1465625 15.392578 9.7480469 15.392578 9.7480469 L 15.392578 6.546875 C 13.983578 6.116375 12.816891 5.96075 11.859375 6.0078125 z"/></svg>