<svg xmlns="http://www.w3.org/2000/svg" width="100" height="100" viewBox="0 0 100 100"><path fill="#fae8e6" d="M73,80H27c-6.075,0-11-4.925-11-11V31c0-6.075,4.925-11,11-11h46c6.075,0,11,4.925,11,11v38 C84,75.075,79.075,80,73,80z"/><path fill="#f69272" d="M57.94,68.73C57.85,68.9,57.69,69,57.5,69h-31c-0.19,0-0.35-0.1-0.44-0.27 c-0.09-0.16-0.08-0.36,0.03-0.51l15.5-23c0.18-0.27,0.64-0.27,0.82,0l15.5,23C58.02,68.37,58.03,68.57,57.94,68.73z"/><path fill="#fff" d="M64 31.5A6.5 6.5 0 1 0 64 44.5A6.5 6.5 0 1 0 64 31.5Z"/><path fill="#fcba7f" d="M57 51.5L44.5 68.5 69.5 68.5z"/><path fill="#1f212b" d="M73,19H27c-6.617,0-12,5.383-12,12v38c0,6.617,5.383,12,12,12h46c6.617,0,12-5.383,12-12V31 C85,24.383,79.617,19,73,19z M83,69c0,5.514-4.486,10-10,10H27c-5.514,0-10-4.486-10-10V31c0-5.514,4.486-10,10-10h46 c5.514,0,10,4.486,10,10V69z"/><path fill="#1f212b" d="M79.5 52.5c-.276 0-.5.224-.5.5v16c0 3.309-2.691 6-6 6H27c-3.309 0-6-2.691-6-6V31c0-3.309 2.691-6 6-6h41.5c.276 0 .5-.224.5-.5S68.776 24 68.5 24H27c-3.86 0-7 3.141-7 7v38c0 3.859 3.14 7 7 7h46c3.86 0 7-3.141 7-7V53C80 52.724 79.776 52.5 79.5 52.5zM79.5 45c-.276 0-.5.224-.5.5v4c0 .276.224.5.5.5s.5-.224.5-.5v-4C80 45.224 79.776 45 79.5 45zM79.5 41c-.276 0-.5.224-.5.5v2c0 .276.224.5.5.5s.5-.224.5-.5v-2C80 41.224 79.776 41 79.5 41z"/><path fill="#1f212b" d="M68.846,43.051c0.4-0.384,0.754-0.815,1.053-1.281c0.149-0.232,0.082-0.542-0.151-0.69 c-0.233-0.15-0.542-0.082-0.69,0.151c-0.256,0.399-0.56,0.77-0.903,1.1c-0.199,0.191-0.206,0.508-0.015,0.707 c0.099,0.102,0.229,0.153,0.361,0.153C68.625,43.19,68.75,43.145,68.846,43.051z"/><path fill="#1f212b" d="M70.211 39.986c.271.065.538-.103.602-.371C70.937 39.089 71 38.546 71 38c0-3.859-3.14-7-7-7s-7 3.141-7 7 3.14 7 7 7c.931 0 1.837-.181 2.692-.536.255-.106.375-.399.269-.654-.105-.255-.398-.372-.654-.27C65.575 43.846 64.799 44 64 44c-3.309 0-6-2.691-6-6s2.691-6 6-6 6 2.691 6 6c0 .469-.054.935-.161 1.385C69.776 39.653 69.942 39.923 70.211 39.986zM44.281 49.779c.155.229.465.29.694.136.229-.154.29-.466.135-.694l-2.696-4c-.186-.275-.644-.275-.829 0l-15.5 23c-.104.153-.114.351-.027.514C26.146 68.898 26.315 69 26.5 69h18 1 24c.188 0 .361-.106.446-.274.085-.168.068-.37-.043-.521l-12.5-17c-.188-.258-.617-.258-.806 0L44.247 68H27.44L42 46.395 44.281 49.779zM57 52.344L68.512 68H45.5h-.012L57 52.344z"/><path fill="#1f212b" d="M47.392 54c.096 0 .193-.027.279-.085.229-.154.29-.466.135-.694l-1.348-2c-.155-.229-.465-.29-.694-.136-.229.154-.29.466-.135.694l1.348 2C47.073 53.923 47.231 54 47.392 54zM49.5 57.129c.096 0 .193-.027.279-.085.229-.154.29-.466.135-.694l-.761-1.129c-.154-.229-.466-.29-.694-.136-.229.154-.29.466-.135.694l.761 1.129C49.182 57.052 49.34 57.129 49.5 57.129z"/></svg>