<svg xmlns="http://www.w3.org/2000/svg" xmlns:xlink="http://www.w3.org/1999/xlink" width="873.74" height="509.56" data-name="Layer 1" viewBox="0 0 873.74 509.56"><defs><linearGradient id="a" x1="367.4" x2="367.4" y1="509.56" gradientUnits="userSpaceOnUse"><stop offset="0" stop-color="gray" stop-opacity=".25"/><stop offset=".54" stop-color="gray" stop-opacity=".12"/><stop offset="1" stop-color="gray" stop-opacity=".1"/></linearGradient><linearGradient id="b" x1="367.14" x2="367.14" y1="369.23" y2="343.1" xlink:href="#a"/><linearGradient id="c" x1="725.74" x2="725.74" y1="400.02" y2="150.02" xlink:href="#a"/><linearGradient id="d" x1="832.87" x2="946.87" y1="462.75" y2="462.75" xlink:href="#a"/><linearGradient id="e" x1="833.74" x2="833.74" y1="257.02" y2="177.02" xlink:href="#a"/></defs><title>add user</title><polygon fill="url(#a)" points="0 0 0 25.71 0 509.56 734.81 509.56 734.81 25.71 734.81 0 0 0" opacity=".5"/><rect width="716.12" height="468.79" x="10.9" y="31.71" fill="#fff"/><rect width="716.12" height="34.49" x="10.9" y="9.41" fill="#f5f5f5"/><circle cx="38.15" cy="26.13" r="8.36" fill="#ff5252"/><circle cx="61.15" cy="26.13" r="8.36" fill="#ff0"/><circle cx="84.14" cy="26.13" r="8.36" fill="#69f0ae"/><rect width="131.7" height="14.11" x="301.81" y="157.05" fill="#6c63ff" opacity=".5"/><rect width="144.24" height="14.11" x="206.7" y="217.67" fill="#e0e0e0"/><rect width="144.24" height="14.11" x="547.52" y="412.89" fill="#3ad29f" transform="translate(1076.15 644.68) rotate(-180)"/><rect width="321.93" height="14.11" x="206.17" y="247.98" fill="#e0e0e0"/><rect width="321.93" height="14.11" x="206.17" y="278.3" fill="#e0e0e0"/><rect width="133.79" height="26.13" x="300.25" y="343.1" fill="url(#b)"/><rect width="131.7" height="21.38" x="301.29" y="345.48" fill="#6c63ff"/><circle cx="725.74" cy="275.02" r="125" fill="url(#c)" opacity=".5"/><circle cx="725.74" cy="275.02" r="117" fill="#f5f5f5"/><path fill="url(#d)" d="M905.18,442.17l-2.25-.8-.12.2-.13,0v-6.1a14.06,14.06,0,0,0-.17-2.2,23.33,23.33,0,0,0,8-10.56,27.51,27.51,0,1,0-43.57,0,23.33,23.33,0,0,0,8,10.56,14.06,14.06,0,0,0-.17,2.2v6.68h0a57,57,0,0,0-41.86,55v50h114v-50A57,57,0,0,0,905.18,442.17Z" opacity=".5" transform="translate(-163.13 -195.22)"/><path fill="#6c63ff" d="M726.74,245.71h0a54.88,54.88,0,0,1,54.88,54.88v48.16a0,0,0,0,1,0,0H671.86a0,0,0,0,1,0,0V300.59A54.88,54.88,0,0,1,726.74,245.71Z"/><rect width="26.88" height="33.6" x="712.18" y="227.8" fill="#fda57d" rx="13.44" ry="13.44"/><polygon points="702.86 251.66 711.87 270.98 720.83 262.02 711.87 248.3 702.86 251.66" opacity=".05"/><path fill="#fff" d="M866.3,445.94l9,19.32,9-9-9-13.72-4.12,1.26a10.33,10.33,0,0,0-1.18.44Z" transform="translate(-163.13 -195.22)"/><polygon points="748.42 250.72 739.37 270.98 730.41 262.02 739.62 247.57 748.42 250.72" opacity=".05"/><path fill="#fff" d="M911.24,445l-9,20.27-9-9,9.21-14.45,1.69.48a44.93,44.93,0,0,1,5.35,1.91Z" transform="translate(-163.13 -195.22)"/><polygon fill="#fda57d" points="720.47 260.37 725.48 267.68 730.77 260.37 720.47 260.37"/><path d="M855.62,482.07s-5.34,53.1-1.89,56.56" opacity=".1" transform="translate(-163.13 -195.22)"/><path d="M921.6,482.07s5.34,53.1,1.89,56.56" opacity=".1" transform="translate(-163.13 -195.22)"/><path d="M888.75,439.32A22.29,22.29,0,0,0,902,435a13.44,13.44,0,0,0-13.27-11.32h0A13.44,13.44,0,0,0,875.48,435,22.29,22.29,0,0,0,888.75,439.32Z" opacity=".05" transform="translate(-163.13 -195.22)"/><circle cx="725.62" cy="212.78" r="26.48"/><circle cx="725.62" cy="221.08" r="22.4" fill="#fda57d"/><path d="M870.7,394.09l5.66,6.91s24.82,2.2,27.65-3.46-16.34-9.74-16.34-9.74Z" opacity=".05" transform="translate(-163.13 -195.22)"/><path d="M870.7,393.46l5.66,6.91s24.82,2.2,27.65-3.46-16.34-9.74-16.34-9.74Z" transform="translate(-163.13 -195.22)"/><ellipse cx="703.17" cy="219.61" fill="#fda57d" rx="1.57" ry="2.83"/><ellipse cx="748.1" cy="219.61" fill="#fda57d" rx="1.57" ry="2.83"/><polygon fill="url(#e)" points="873.74 208.09 842.67 208.09 842.67 177.03 824.81 177.03 824.81 208.09 793.74 208.09 793.74 225.96 824.81 225.96 824.81 257.02 842.67 257.02 842.67 225.96 873.74 225.96 873.74 208.09" opacity=".5"/><rect width="15.18" height="68" x="826.15" y="183.02" fill="#3ad29f"/><rect width="15.18" height="68" x="989.28" y="378.25" fill="#3ad29f" transform="translate(1245.99 -779.84) rotate(90)"/></svg>