<svg xmlns="http://www.w3.org/2000/svg" width="1079.944" height="779.709" data-name="Layer 1" viewBox="0 0 1079.944 779.709"><title>begin chat</title><path fill="#f2f2f2" d="M581.64981,78.4088c-105.4864,0-191,56.81583-191,126.9017,0,31.29389,17.05887,59.9363,45.322,82.06248V379.4766l60.5461-60.54614a271.67266,271.67266,0,0,0,85.13187,13.28173c105.48639,0,191-56.81583,191-126.90169S687.1362,78.4088,581.64981,78.4088Z" transform="translate(-60.02816 -59.9088)"/><g opacity=".3"><path fill="#57b894" d="M902.58471,710.05937a20.81252,20.81252,0,1,0,8.3387-39.13277l-.98562,10.67947-3.7314-9.80018a20.73405,20.73405,0,0,0-12.22123,10.10949,20.4084,20.4084,0,0,0-1.97438,5.40651A20.80854,20.80854,0,0,0,902.58471,710.05937Z" transform="translate(-60.02816 -59.9088)"/><path fill="none" stroke="#3f3d56" stroke-miterlimit="10" d="M910.00074,836.5912c-.49451-9.27109,8.31332-16.18134,16.63109-20.306s17.89981-7.97772,21.73547-16.43263c5.51252-12.15118-3.91862-25.32906-11.121-36.56135a125.3002,125.3002,0,0,1-12.91856-26.63091c-1.29809-3.75147-2.42859-7.64108-2.34816-11.61.11584-5.71565,2.71274-11.052,5.29035-16.15471q12.88016-25.49811,26.95418-50.36938" transform="translate(-60.02816 -59.9088)"/><path fill="none" stroke="#3f3d56" stroke-miterlimit="10" d="M903.81992,707.44879a20.81252,20.81252,0,1,0,8.33869-39.13278l-.98561,10.67948-3.7314-9.80018a20.734,20.734,0,0,0-12.22123,10.10949,20.40859,20.40859,0,0,0-1.97439,5.4065A20.80855,20.80855,0,0,0,903.81992,707.44879Z" transform="translate(-60.02816 -59.9088)"/><path fill="#57b894" d="M933.58025,651.86777A20.78824,20.78824,0,0,1,950.26208,640.9l.26936,10.32343,4.64475-10.1448a20.81,20.81,0,1,1-21.59594,10.78916Z" transform="translate(-60.02816 -59.9088)"/><path fill="none" stroke="#3f3d56" stroke-miterlimit="10" d="M935.2272,648.387A20.7882,20.7882,0,0,1,951.909,637.4192l.26936,10.32344,4.64475-10.14481A20.81,20.81,0,1,1,935.2272,648.387Z" transform="translate(-60.02816 -59.9088)"/><path fill="#57b894" d="M933.6,762.98355a20.81,20.81,0,0,0,23.42627-34.07564l-3.56911,7.796-.2698-10.44473a.36282.36282,0,0,0-.04963-.02732A20.81113,20.81113,0,1,0,933.6,762.98355Z" transform="translate(-60.02816 -59.9088)"/><path fill="none" stroke="#3f3d56" stroke-miterlimit="10" d="M935.1025,759.43443a20.81,20.81,0,0,0,23.42627-34.07565l-3.56912,7.796L954.68986,722.71a.36409.36409,0,0,0-.04964-.02732,20.81113,20.81113,0,1,0-19.53772,36.75173Z" transform="translate(-60.02816 -59.9088)"/><path fill="#57b894" d="M907.30272,794.16821a20.80131,20.80131,0,1,0,6.25521-15.57438l7.225,15.11843-11.50663-9.11037A20.61639,20.61639,0,0,0,907.30272,794.16821Z" transform="translate(-60.02816 -59.9088)"/><path fill="none" stroke="#3f3d56" stroke-miterlimit="10" d="M908.53792,791.55763a20.80131,20.80131,0,1,0,6.25521-15.57438l7.225,15.11842-11.50663-9.11037A20.61655,20.61655,0,0,0,908.53792,791.55763Z" transform="translate(-60.02816 -59.9088)"/></g><g opacity=".3"><path fill="#ff6584" d="M352.359,713.05937a20.81252,20.81252,0,1,1-8.3387-39.13277l.98562,10.67947,3.7314-9.80018a20.73405,20.73405,0,0,1,12.22123,10.10949,20.40878,20.40878,0,0,1,1.97439,5.40651A20.80855,20.80855,0,0,1,352.359,713.05937Z" transform="translate(-60.02816 -59.9088)"/><path fill="none" stroke="#3f3d56" stroke-miterlimit="10" d="M344.94294,839.5912c.49451-9.27109-8.31332-16.18134-16.63109-20.306s-17.89981-7.97772-21.73547-16.43263c-5.51252-12.15118,3.91862-25.32906,11.121-36.56135A125.3002,125.3002,0,0,0,330.616,739.66034c1.29809-3.75147,2.42859-7.64108,2.34816-11.61-.11584-5.71565-2.71274-11.052-5.29035-16.15471q-12.88016-25.49811-26.95418-50.36938" transform="translate(-60.02816 -59.9088)"/><path fill="none" stroke="#3f3d56" stroke-miterlimit="10" d="M351.12376,710.44879a20.81252,20.81252,0,1,1-8.33869-39.13278l.98561,10.67948,3.7314-9.80018a20.734,20.734,0,0,1,12.22124,10.10949,20.40891,20.40891,0,0,1,1.97438,5.4065A20.80855,20.80855,0,0,1,351.12376,710.44879Z" transform="translate(-60.02816 -59.9088)"/><path fill="#ff6584" d="M321.36343,654.86777A20.78824,20.78824,0,0,0,304.6816,643.9l-.26935,10.32343-4.64476-10.1448a20.81,20.81,0,1,0,21.59594,10.78916Z" transform="translate(-60.02816 -59.9088)"/><path fill="none" stroke="#3f3d56" stroke-miterlimit="10" d="M319.71649,651.387a20.78823,20.78823,0,0,0-16.68183-10.9678l-.26936,10.32344-4.64475-10.14481A20.81,20.81,0,1,0,319.71649,651.387Z" transform="translate(-60.02816 -59.9088)"/><path fill="#ff6584" d="M321.34367,765.98355a20.81,20.81,0,0,1-23.42627-34.07564l3.56911,7.796.2698-10.44473a.36282.36282,0,0,1,.04963-.02732,20.81113,20.81113,0,1,1,19.53773,36.75172Z" transform="translate(-60.02816 -59.9088)"/><path fill="none" stroke="#3f3d56" stroke-miterlimit="10" d="M319.84118,762.43443a20.81,20.81,0,0,1-23.42627-34.07565l3.56912,7.796.26979-10.44474a.36409.36409,0,0,1,.04964-.02732,20.81113,20.81113,0,1,1,19.53772,36.75173Z" transform="translate(-60.02816 -59.9088)"/><path fill="#ff6584" d="M347.641,797.16821a20.80131,20.80131,0,1,1-6.25521-15.57438l-7.225,15.11843,11.50663-9.11037A20.61639,20.61639,0,0,1,347.641,797.16821Z" transform="translate(-60.02816 -59.9088)"/><path fill="none" stroke="#3f3d56" stroke-miterlimit="10" d="M346.40576,794.55763a20.80131,20.80131,0,1,1-6.25521-15.57438l-7.225,15.11842,11.50663-9.11037A20.61655,20.61655,0,0,1,346.40576,794.55763Z" transform="translate(-60.02816 -59.9088)"/></g><g opacity=".3"><path fill="#ff6584" d="M872.359,712.05937a20.81252,20.81252,0,1,1-8.3387-39.13277l.98562,10.67947,3.7314-9.80018a20.73405,20.73405,0,0,1,12.22123,10.10949,20.40878,20.40878,0,0,1,1.97439,5.40651A20.80855,20.80855,0,0,1,872.359,712.05937Z" transform="translate(-60.02816 -59.9088)"/><path fill="none" stroke="#3f3d56" stroke-miterlimit="10" d="M864.94294,838.5912c.49451-9.27109-8.31332-16.18134-16.63109-20.306s-17.89981-7.97772-21.73547-16.43263c-5.51252-12.15118,3.91862-25.32906,11.121-36.56135A125.3002,125.3002,0,0,0,850.616,738.66034c1.29809-3.75147,2.42859-7.64108,2.34816-11.61-.11584-5.71565-2.71274-11.052-5.29035-16.15471q-12.88015-25.49811-26.95418-50.36938" transform="translate(-60.02816 -59.9088)"/><path fill="none" stroke="#3f3d56" stroke-miterlimit="10" d="M871.12376,709.44879a20.81252,20.81252,0,1,1-8.33869-39.13278l.98561,10.67948,3.7314-9.80018a20.734,20.734,0,0,1,12.22124,10.10949,20.40891,20.40891,0,0,1,1.97438,5.4065A20.80855,20.80855,0,0,1,871.12376,709.44879Z" transform="translate(-60.02816 -59.9088)"/><path fill="#ff6584" d="M841.36343,653.86777A20.78824,20.78824,0,0,0,824.6816,642.9l-.26935,10.32343-4.64476-10.1448a20.81,20.81,0,1,0,21.59594,10.78916Z" transform="translate(-60.02816 -59.9088)"/><path fill="none" stroke="#3f3d56" stroke-miterlimit="10" d="M839.71649,650.387a20.78823,20.78823,0,0,0-16.68183-10.9678l-.26936,10.32344-4.64475-10.14481A20.81,20.81,0,1,0,839.71649,650.387Z" transform="translate(-60.02816 -59.9088)"/><path fill="#ff6584" d="M841.34367,764.98355a20.81,20.81,0,0,1-23.42627-34.07564l3.56911,7.796.2698-10.44473a.36282.36282,0,0,1,.04963-.02732,20.81113,20.81113,0,1,1,19.53773,36.75172Z" transform="translate(-60.02816 -59.9088)"/><path fill="none" stroke="#3f3d56" stroke-miterlimit="10" d="M839.84118,761.43443a20.81,20.81,0,0,1-23.42627-34.07565l3.56912,7.796.26979-10.44474a.36409.36409,0,0,1,.04964-.02732,20.81113,20.81113,0,1,1,19.53772,36.75173Z" transform="translate(-60.02816 -59.9088)"/><path fill="#ff6584" d="M867.641,796.16821a20.80131,20.80131,0,1,1-6.25521-15.57438l-7.225,15.11843,11.50663-9.11037A20.61639,20.61639,0,0,1,867.641,796.16821Z" transform="translate(-60.02816 -59.9088)"/><path fill="none" stroke="#3f3d56" stroke-miterlimit="10" d="M866.40576,793.55763a20.80131,20.80131,0,1,1-6.25521-15.57438l-7.225,15.11842,11.50663-9.11037A20.61655,20.61655,0,0,1,866.40576,793.55763Z" transform="translate(-60.02816 -59.9088)"/></g><g opacity=".3"><path fill="#ff6584" d="M132.359,711.05937a20.81252,20.81252,0,1,1-8.3387-39.13277l.98562,10.67947,3.7314-9.80018a20.73405,20.73405,0,0,1,12.22123,10.10949,20.40878,20.40878,0,0,1,1.97439,5.40651A20.80855,20.80855,0,0,1,132.359,711.05937Z" transform="translate(-60.02816 -59.9088)"/><path fill="none" stroke="#3f3d56" stroke-miterlimit="10" d="M124.94294,837.5912c.49451-9.27109-8.31332-16.18134-16.63109-20.306S90.412,809.30751,86.57638,800.8526c-5.51252-12.15118,3.91862-25.32906,11.121-36.56135A125.3002,125.3002,0,0,0,110.616,737.66034c1.29809-3.75147,2.42859-7.64108,2.34816-11.61-.11584-5.71565-2.71274-11.052-5.29035-16.15471Q94.79363,684.39755,80.7196,659.52628" transform="translate(-60.02816 -59.9088)"/><path fill="none" stroke="#3f3d56" stroke-miterlimit="10" d="M131.12376,708.44879a20.81252,20.81252,0,1,1-8.33869-39.13278l.98561,10.67948,3.7314-9.80018a20.734,20.734,0,0,1,12.22124,10.10949,20.40891,20.40891,0,0,1,1.97438,5.4065A20.80855,20.80855,0,0,1,131.12376,708.44879Z" transform="translate(-60.02816 -59.9088)"/><path fill="#ff6584" d="M101.36343,652.86777A20.78824,20.78824,0,0,0,84.6816,641.9l-.26935,10.32343-4.64476-10.1448a20.81,20.81,0,1,0,21.59594,10.78916Z" transform="translate(-60.02816 -59.9088)"/><path fill="none" stroke="#3f3d56" stroke-miterlimit="10" d="M99.71649,649.387a20.78823,20.78823,0,0,0-16.68183-10.9678l-.26936,10.32344-4.64475-10.14481A20.81,20.81,0,1,0,99.71649,649.387Z" transform="translate(-60.02816 -59.9088)"/><path fill="#ff6584" d="M101.34367,763.98355A20.81,20.81,0,0,1,77.9174,729.90791l3.56911,7.796.2698-10.44473a.36282.36282,0,0,1,.04963-.02732,20.81113,20.81113,0,1,1,19.53773,36.75172Z" transform="translate(-60.02816 -59.9088)"/><path fill="none" stroke="#3f3d56" stroke-miterlimit="10" d="M99.84118,760.43443a20.81,20.81,0,0,1-23.42627-34.07565l3.56912,7.796L80.25382,723.71a.36409.36409,0,0,1,.04964-.02732,20.81113,20.81113,0,1,1,19.53772,36.75173Z" transform="translate(-60.02816 -59.9088)"/><path fill="#ff6584" d="M127.641,795.16821a20.80131,20.80131,0,1,1-6.25521-15.57438l-7.225,15.11843,11.50663-9.11037A20.61639,20.61639,0,0,1,127.641,795.16821Z" transform="translate(-60.02816 -59.9088)"/><path fill="none" stroke="#3f3d56" stroke-miterlimit="10" d="M126.40576,792.55763a20.80131,20.80131,0,1,1-6.25521-15.57438l-7.225,15.11842,11.50663-9.11037A20.61655,20.61655,0,0,1,126.40576,792.55763Z" transform="translate(-60.02816 -59.9088)"/></g><g opacity=".3"><path fill="#57b894" d="M126.76815,618.71937a35.75043,35.75043,0,1,0,14.32368-67.2198l-1.693,18.34453L132.98924,553.01a35.61557,35.61557,0,0,0-20.99286,17.36543,35.05685,35.05685,0,0,0-3.39147,9.287A35.74361,35.74361,0,0,0,126.76815,618.71937Z" transform="translate(-60.02816 -59.9088)"/><path fill="none" stroke="#3f3d56" stroke-miterlimit="10" d="M139.50694,836.0677c-.84945-15.92529,14.28009-27.79528,28.56782-34.8803s30.74716-13.70362,37.33581-28.22692c9.46906-20.87254-6.73116-43.50865-19.103-62.80278a215.23227,215.23227,0,0,1-22.19068-45.74488c-2.22978-6.444-4.17168-13.12536-4.03352-19.94287.199-9.818,4.65977-18.98436,9.08742-27.74952q22.12471-43.799,46.30019-86.52133" transform="translate(-60.02816 -59.9088)"/><path fill="none" stroke="#3f3d56" stroke-miterlimit="10" d="M128.8899,614.23507a35.75043,35.75043,0,1,0,14.32369-67.21979l-1.693,18.34452L135.111,548.52568a35.61559,35.61559,0,0,0-20.99286,17.36544,35.05651,35.05651,0,0,0-3.39147,9.287A35.74359,35.74359,0,0,0,128.8899,614.23507Z" transform="translate(-60.02816 -59.9088)"/><path fill="#57b894" d="M180.01032,518.76154a35.70865,35.70865,0,0,1,28.655-18.83978l.46268,17.73294,7.97847-17.4261a35.746,35.746,0,1,1-37.09613,18.53294Z" transform="translate(-60.02816 -59.9088)"/><path fill="none" stroke="#3f3d56" stroke-miterlimit="10" d="M182.83933,512.78248a35.70867,35.70867,0,0,1,28.655-18.83978l.46268,17.73294,7.97847-17.4261a35.746,35.746,0,1,1-37.09613,18.53294Z" transform="translate(-60.02816 -59.9088)"/><path fill="#57b894" d="M180.04426,709.62916a35.74611,35.74611,0,0,0,40.24015-58.533l-6.13079,13.39143-.46344-17.9413a.62351.62351,0,0,0-.08526-.04693,35.748,35.748,0,1,0-33.56066,63.12977Z" transform="translate(-60.02816 -59.9088)"/><path fill="none" stroke="#3f3d56" stroke-miterlimit="10" d="M182.62514,703.5327a35.74611,35.74611,0,0,0,40.24015-58.533l-6.1308,13.39142-.46344-17.94129a.62243.62243,0,0,0-.08526-.04693,35.748,35.748,0,1,0-33.56065,63.12977Z" transform="translate(-60.02816 -59.9088)"/><path fill="#57b894" d="M134.87244,763.19619a35.73117,35.73117,0,1,0,10.7448-26.75268L158.0279,762.413l-19.76535-15.64921A35.41352,35.41352,0,0,0,134.87244,763.19619Z" transform="translate(-60.02816 -59.9088)"/><path fill="none" stroke="#3f3d56" stroke-miterlimit="10" d="M136.9942,758.7119a35.73116,35.73116,0,1,0,10.7448-26.75269l12.41066,25.96947L140.3843,742.27947A35.41353,35.41353,0,0,0,136.9942,758.7119Z" transform="translate(-60.02816 -59.9088)"/></g><g opacity=".3"><path fill="none" stroke="#3f3d56" stroke-miterlimit="10" d="M982.69177,838.18123c-1.09964-20.61569,18.48592-35.98168,36.98174-45.1534s39.803-17.73968,48.33212-36.54044c12.25792-27.02-8.71366-56.323-24.72931-81.29973A278.6237,278.6237,0,0,1,1014.55,615.9698c-2.8865-8.34195-5.40034-16.9911-5.22149-25.81653.25758-12.7096,6.03219-24.57572,11.76389-35.92244q28.641-56.69892,59.93672-112.004" transform="translate(-60.02816 -59.9088)"/><path fill="#ff6584" d="M1105.10722,400.18977l-20.13538,5.75293,1.39819-9.32147c-1.7727-.11408-3.57177-.17853-5.39819-.17853-26.23352,0-47.5,12.08832-47.5,27s21.26648,27,47.5,27,47.5-12.08832,47.5-27C1128.47184,413.54091,1119.089,404.889,1105.10722,400.18977Z" transform="translate(-60.02816 -59.9088)"/><path fill="none" stroke="#3f3d56" stroke-miterlimit="10" d="M1105.10722,397.18977l-20.13538,5.75293,1.39819-9.32147c-1.7727-.11408-3.57177-.17853-5.39819-.17853-26.23352,0-47.5,12.08832-47.5,27s21.26648,27,47.5,27,47.5-12.08832,47.5-27C1128.47184,410.54091,1119.089,401.889,1105.10722,397.18977Z" transform="translate(-60.02816 -59.9088)"/><path fill="#ff6584" d="M1046.10722,743.18977l-20.13538,5.75293,1.39819-9.32147c-1.7727-.11408-3.57177-.17853-5.39819-.17853-26.23352,0-47.5,12.08832-47.5,27s21.26648,27,47.5,27,47.5-12.08832,47.5-27C1069.47184,756.54091,1060.089,747.889,1046.10722,743.18977Z" transform="translate(-60.02816 -59.9088)"/><path fill="none" stroke="#3f3d56" stroke-miterlimit="10" d="M1046.10722,740.18977l-20.13538,5.75293,1.39819-9.32147c-1.7727-.11408-3.57177-.17853-5.39819-.17853-26.23352,0-47.5,12.08832-47.5,27s21.26648,27,47.5,27,47.5-12.08832,47.5-27C1069.47184,753.54091,1060.089,744.889,1046.10722,740.18977Z" transform="translate(-60.02816 -59.9088)"/><path fill="#ff6584" d="M1116.10722,671.18977l-20.13538,5.75293,1.39819-9.32147c-1.7727-.11408-3.57177-.17853-5.39819-.17853-26.23352,0-47.5,12.08832-47.5,27s21.26648,27,47.5,27,47.5-12.08832,47.5-27C1139.47184,684.54091,1130.089,675.889,1116.10722,671.18977Z" transform="translate(-60.02816 -59.9088)"/><path fill="none" stroke="#3f3d56" stroke-miterlimit="10" d="M1116.10722,668.18977l-20.13538,5.75293,1.39819-9.32147c-1.7727-.11408-3.57177-.17853-5.39819-.17853-26.23352,0-47.5,12.08832-47.5,27s21.26648,27,47.5,27,47.5-12.08832,47.5-27C1139.47184,681.54091,1130.089,672.889,1116.10722,668.18977Z" transform="translate(-60.02816 -59.9088)"/><path fill="#ff6584" d="M1033.33668,487.46017l-20.55989-3.97753,5.46353-7.68079c-1.52937-.90362-3.1047-1.77491-4.73357-2.60109-23.39613-11.86672-47.83058-10.70574-54.57587,2.59311s6.75288,33.69958,30.149,45.56629,47.83059,10.70574,54.57588-2.5931C1048.13483,509.93623,1043.68054,497.97579,1033.33668,487.46017Z" transform="translate(-60.02816 -59.9088)"/><path fill="none" stroke="#3f3d56" stroke-miterlimit="10" d="M1034.69373,484.78465l-20.55989-3.97753,5.46353-7.6808c-1.52937-.90361-3.1047-1.77491-4.73357-2.60108-23.39613-11.86672-47.83059-10.70574-54.57587,2.5931s6.75288,33.69958,30.149,45.5663,47.83058,10.70574,54.57587-2.59311C1049.49187,507.26071,1045.03759,495.30027,1034.69373,484.78465Z" transform="translate(-60.02816 -59.9088)"/><path fill="#ff6584" d="M1078.33668,592.46017l-20.55989-3.97753,5.46353-7.68079c-1.52937-.90362-3.1047-1.77491-4.73357-2.60109-23.39613-11.86672-47.83058-10.70574-54.57587,2.59311s6.75288,33.69958,30.149,45.56629,47.83059,10.70574,54.57588-2.5931C1093.13483,614.93623,1088.68054,602.97579,1078.33668,592.46017Z" transform="translate(-60.02816 -59.9088)"/><path fill="none" stroke="#3f3d56" stroke-miterlimit="10" d="M1079.69373,589.78465l-20.55989-3.97753,5.46353-7.6808c-1.52937-.90361-3.1047-1.77491-4.73357-2.60108-23.39613-11.86672-47.83059-10.70574-54.57587,2.5931s6.75288,33.69958,30.149,45.5663,47.83058,10.70574,54.57587-2.59311C1094.49187,612.26071,1090.03759,600.30027,1079.69373,589.78465Z" transform="translate(-60.02816 -59.9088)"/></g><line x1="8.944" x2="1060.944" y1="778.034" y2="778.034" fill="none" stroke="#3f3d56" stroke-miterlimit="10"/><path fill="none" stroke="#3f3d56" stroke-miterlimit="10" d="M595.14981,60.4088c-105.4864,0-191,56.81583-191,126.9017,0,31.29389,17.05887,59.9363,45.322,82.06248V361.4766l60.5461-60.54614a271.67266,271.67266,0,0,0,85.13187,13.28173c105.48639,0,191-56.81583,191-126.90169S700.6362,60.4088,595.14981,60.4088Z" transform="translate(-60.02816 -59.9088)"/><path fill="#a0616a" d="M512.15993,388.77323s-3.84207-51.7406-2.03317-61.2037,3.508-36.40025-6.43762-27.54543-6.41234,28.945-6.41234,28.945-9.43783,54.68156-.7088,62.10017S512.15993,388.77323,512.15993,388.77323Z" transform="translate(-60.02816 -59.9088)"/><path fill="#6c63ff" d="M519.32289,439.94013s-29.60358-26.4032-28.00339-48.80591c0,0,17.60213-13.60164,21.60261-6.40077s33.07874,35.293,28.14077,44.84978S519.32289,439.94013,519.32289,439.94013Z" transform="translate(-60.02816 -59.9088)"/><path fill="#a0616a" d="M624.13557,392.73442s17.60213-48.80591,18.40223-58.40707,6.40078-36.00436,13.60165-24.803-1.6002,29.60359-1.6002,29.60359-5.60067,55.20668-16.00193,60.00726S624.13557,392.73442,624.13557,392.73442Z" transform="translate(-60.02816 -59.9088)"/><path fill="#a0616a" d="M576.12976,637.564h47.20572l2.40029,24.0029-11.20136,2.40029s-26.40319-8.001-41.605-5.60068S576.12976,637.564,576.12976,637.564Z" transform="translate(-60.02816 -59.9088)"/><path fill="#2f2e41" d="M607.33354,634.36366s22.40271-15.20184,26.4032-2.40029,18.40222,59.20716,13.60164,64.00774-10.40126-4.00048-10.40126-4.00048-9.60116-20.00242-16.802-20.80252-11.20136-7.20087-11.20136-7.20087S629.73625,647.9653,607.33354,634.36366Z" transform="translate(-60.02816 -59.9088)"/><path fill="#a0616a" d="M564.12831,758.37867s8.80107,36.00435,7.20087,41.605,25.6031,2.40029,25.6031,2.40029l1.6002-10.40126s-16.00194-25.60309-16.00194-36.80445S564.12831,758.37867,564.12831,758.37867Z" transform="translate(-60.02816 -59.9088)"/><path fill="#2f2e41" d="M596.93228,784.78186s21.60262,16.00194,10.40126,24.00291-52.80639,28.80348-52.80639,28.80348-15.20184,2.40029-4.00048-11.20135,14.40174-16.00194,15.20184-23.20281a35.12235,35.12235,0,0,1,4.93378-13.50807S581.73044,811.98516,596.93228,784.78186Z" transform="translate(-60.02816 -59.9088)"/><path fill="#2f2e41" d="M531.32434,592.75862s-8.80106,83.21007,4.80058,109.61327,29.60359,62.40755,28.80349,64.00775,23.20281-2.40029,23.20281-9.60117-26.4032-79.20958-26.4032-79.20958,11.20136-93.61133,20.00242-100.01211S531.32434,592.75862,531.32434,592.75862Z" transform="translate(-60.02816 -59.9088)"/><path d="M531.32434,592.75862s-8.80106,83.21007,4.80058,109.61327,29.60359,62.40755,28.80349,64.00775,23.20281-2.40029,23.20281-9.60117-26.4032-79.20958-26.4032-79.20958,11.20136-93.61133,20.00242-100.01211S531.32434,592.75862,531.32434,592.75862Z" opacity=".1" transform="translate(-60.02816 -59.9088)"/><path fill="#2f2e41" d="M549.408,357.9302c-5.71909,1.03547-11.38512,4.17742-14.22925,9.54354-2.653,5.00556-2.82174,11.69636-7.04249,15.29089-2.51961,2.14579-5.94042,2.642-8.75359,4.32764a13.48165,13.48165,0,0,0-6.20118,12.00756c.22526,4.41433,2.55341,8.52613,2.504,12.94662-.06423,5.747-4.03814,10.492-7.77574,14.65147l12.39544,2.30022a12.33926,12.33926,0,0,0,5.73441.15205c2.141-.63381,3.88-2.3967,6.04427-2.93423,3.10353-.7708,6.17451,1.117,8.94366,2.792,7.88245,4.76774,16.33437,8.36624,24.7557,11.94919,2.4775,1.05409,5.2865,2.10927,7.73121.97222,1.97439-.91831,3.20232-3.06489,5.05944-4.22647,3.32564-2.08013,7.50159-.51438,11.23869.51252a37.15163,37.15163,0,0,0,25.38312-2.16146c-1.71207-1.99985-3.956-3.39847-5.80095-5.26048s-3.33756-4.49874-2.85015-7.15065c.49706-2.70439,2.82217-4.50972,4.40694-6.69233a15.724,15.724,0,0,0,2.39236-11.92405,21.75365,21.75365,0,0,0-5.70746-10.80127,57.05128,57.05128,0,0,1-4.66873-4.923c-2.9161-3.93793-3.638-9.15131-4.57086-14.06082s-2.40574-10.13442-6.19237-13.12385c-6.0326-4.76258-15.829-3.13919-22.88141-3.61191C562.59921,358.05486,556.11633,357.9302,549.408,357.9302Z" transform="translate(-60.02816 -59.9088)"/><path fill="#2f2e41" d="M509.72173,535.95175l15.20184,37.60455s-69.60843,76.0092-30.40368,86.41046,52.80639-8.001,77.60939,6.40077c0,0,12.00145-18.40223,10.40126-29.60358,0,0-34.40416-6.40078-52.80639-5.60068,0,0,49.606-43.20523,54.40658-44.80542s20.80252-27.20329-4.00048-48.00581S561.728,506.34817,561.728,506.34817Z" transform="translate(-60.02816 -59.9088)"/><path fill="#a0616a" d="M545.72608,405.536s2.4003,24.803-8.001,28.00339,40.80493,2.40029,40.80493,2.40029-12.00145-7.20087-6.40077-22.40271S545.72608,405.536,545.72608,405.536Z" transform="translate(-60.02816 -59.9088)"/><path d="M545.72608,405.536s2.4003,24.803-8.001,28.00339,40.80493,2.40029,40.80493,2.40029-12.00145-7.20087-6.40077-22.40271S545.72608,405.536,545.72608,405.536Z" opacity=".1" transform="translate(-60.02816 -59.9088)"/><path fill="#6c63ff" d="M600.13267,448.74119s-4.80058-24.803-14.40174-23.2028-28.80349,3.20038-31.20378,4.80058-15.20184,4.87942-15.20184,4.87942,4.80058-5.67952,0-6.47962-20.00242,3.20039-21.60261,6.40078-8.001,9.60116-8.001,20.80251-4.80058,30.40368-3.20039,38.40465-.8001,26.4032-5.60068,36.80446-.80009,20.80251,7.20087,10.40126,4.00049,0,10.40126.80009S553.72705,513.549,561.728,520.74991s16.00194,12.00145,17.60213,8.001-6.40077-11.20136-6.40077-14.40175-12.80155,10.40126.80009-17.60213S574.52957,460.74265,600.13267,448.74119Z" transform="translate(-60.02816 -59.9088)"/><path fill="#6c63ff" d="M593.73189,447.141l6.40078,1.60019s23.20281-16.802,29.60358-28.80348,11.20136-21.60262,11.20136-21.60262-10.40126-12.80155-16.802-8.001-35.20426,37.60456-35.20426,37.60456Z" transform="translate(-60.02816 -59.9088)"/><circle cx="504.1" cy="337.626" r="24.803" fill="#a0616a"/><path fill="#2f2e41" d="M542.18677,390.34991a21.7837,21.7837,0,0,1,15.14908-4.98222c9.50754.58506,17.87685,7.35994,27.4,7.57163a9.81952,9.81952,0,0,1,.81893-6.07049c.7385-1.51341,1.904-2.97985,1.74722-4.6565a5.67954,5.67954,0,0,0-2.05426-3.36417c-5.50468-5.21967-13.11558-7.90984-20.69427-8.24123-5.08113-.22219-14.77917-.10179-18.71994,3.74566C542.462,377.6443,542.854,386.083,542.18677,390.34991Z" transform="translate(-60.02816 -59.9088)"/><circle cx="535.122" cy="151.034" r="52" fill="#6c63ff"/><ellipse cx="522.416" cy="131.441" fill="#444053" rx="4.987" ry="6.531"/><ellipse cx="548.184" cy="131.441" fill="#444053" rx="4.987" ry="6.531"/><path fill="#3f3d56" d="M626.32048,211.89266c0,9.37813-15.66245,25.174-31.46754,25.174s-30.87381-16.15215-30.87381-25.53027,14.74217-.80153,30.54726-.80153S626.32048,202.51454,626.32048,211.89266Z" transform="translate(-60.02816 -59.9088)"/><path fill="#f6f8fb" d="M568.96,213.49573s28.40984,6.32319,52.27768.17811c0,0,2.92086,0,.92546,3.377a5.37878,5.37878,0,0,1-2.18872,2.04678c-4.60034,2.35056-21.62977,9.29771-48.86055.43734a5.35606,5.35606,0,0,1-3.53441-3.62139C567.25876,214.75413,567.397,213.656,568.96,213.49573Z" transform="translate(-60.02816 -59.9088)"/></svg>