<svg xmlns="http://www.w3.org/2000/svg" width="1036" height="569.971" data-name="Layer 1" viewBox="0 0 1036 569.971"><title>Books</title><path fill="#3f3d56" d="M275.03638,460.85116c0,105.97579-85.91829,191.89415-191.89415,191.89415V268.957C189.11809,268.957,275.03638,354.87529,275.03638,460.85116Z" transform="translate(-82 -165.01433)"/><path fill="#3f3d56" d="M924.96362,460.85116c0,105.97579,85.91829,191.89415,191.89415,191.89415V268.957C1010.88191,268.957,924.96362,354.87529,924.96362,460.85116Z" transform="translate(-82 -165.01433)"/><path fill="#3f3d56" d="M269.23657,245.89659a13.70673,13.70673,0,1,1,13.70672-13.70673A13.72244,13.72244,0,0,1,269.23657,245.89659Zm0-25.129a11.42227,11.42227,0,1,0,11.42227,11.42227A11.435,11.435,0,0,0,269.23657,220.76759Z" transform="translate(-82 -165.01433)"/><path fill="#3f3d56" d="M878.989,601.46031H856.4401V578.91144H878.989Zm-20.81434-1.73453h19.07982V580.646H858.17463Z" transform="translate(-82 -165.01433)"/><path fill="#3f3d56" d="M341.73544,580.99169l-15.38019-16.48943,16.48943-15.3802,15.38019,16.48944Zm-12.92868-16.40411,13.014,13.9526,13.95259-13.014-13.014-13.9526Z" transform="translate(-82 -165.01433)"/><path fill="#3f3d56" d="M82,165.01433V734.98567H1118V165.01433ZM1115.71555,732.70121H84.28445V167.29879h1031.4311Z" transform="translate(-82 -165.01433)"/><path fill="#3f3d56" d="M856.89787,734.41455q-37.04832-5.79987-71.24294-9.86652l8.77843-17.55692c-3.047-1.01568-16.25092,9.14115-16.25092,9.14115L789.355,665.34811c-15.23525,2.03136-22.345,53.8312-22.345,53.8312L749.74331,701.9127l8.49959,19.549c-69.7584-7.32985-129.95337-9.61731-180.55371-9.09267l7.51347-15.02689c-3.047-1.01568-16.25092,9.14115-16.25092,9.14115l11.17251-50.78415c-15.23525,2.03137-22.345,53.8312-22.345,53.8312l-17.26661-17.26661,9.00241,20.70557a1013.49859,1013.49859,0,0,0-103.6226,8.34474c7.49729-23.35644,33.67921-45.80908,33.67921-45.80908-20.1314,6.26309-30.6047,16.46666-36.02556,25.9249a407.85873,407.85873,0,0,1,21.806-141.20492s-40.62732,91.41147-34.53322,152.35245l.77323,10.82523c-35.34514,5.51391-53.08091,11.01195-53.08091,11.01195Z" transform="translate(-82 -165.01433)"/><circle cx="524.425" cy="287.859" r="158.77" fill="#6c63ff" opacity=".3"/><polygon fill="#6c63ff" points="459.223 85.873 353.51 214.137 509.965 398.782 614.268 276.156 459.223 85.873"/><polygon points="459.223 85.873 353.51 214.137 509.965 398.782 614.268 276.156 459.223 85.873" opacity=".1"/><path fill="#f2f2f2" d="M439.73866,380.56133h0a53.13136,53.13136,0,0,1,8.61915-11.50844l97.09359-98.43281s33.82807-5.638,40.87559,11.276L462.29072,383.38033Z" transform="translate(-82 -165.01433)"/><path fill="#6c63ff" d="M434.8054,378.44707l143.76933,219.8825s14.095,9.86653,28.19007,4.22851l147.29308-99.37L597.603,266.39156,456.6527,376.33282Z" transform="translate(-82 -165.01433)"/><rect width="111.092" height="2.284" x="480.039" y="332.905" fill="#3f3d56" transform="translate(-176.28508 210.29789) rotate(-35.7003)"/><rect width="2.284" height="214.62" x="545.719" y="372.621" fill="#3f3d56" transform="translate(-256.01839 216.30687) rotate(-33.48132)"/><rect width="118.967" height="2.285" x="608.595" y="538.693" fill="#3f3d56" transform="translate(-271.96473 335.92317) rotate(-36.34406)"/><rect width="2.284" height="214.661" x="656.366" y="285.212" fill="#3f3d56" transform="translate(-188.39818 280.94637) rotate(-34.83794)"/><rect width="151.386" height="1.409" x="428.269" y="320.219" fill="#3f3d56" transform="translate(-166.32865 260.23205) rotate(-42.54484)"/><rect width="155.492" height="1.41" x="432.981" y="321.377" fill="#3f3d56" transform="translate(-167.30716 253.62067) rotate(-41.43847)"/><rect width="157.533" height="1.41" x="437.017" y="322.42" fill="#3f3d56" transform="translate(-169.30193 240.15132) rotate(-39.81273)"/><path fill="#fff" d="M1080.3065,460.85116c-6.48742-2.40493-14.53662-6.512-19.52606-10.86231l3.51655,9.72008h-62.80416v2.28445h62.80423l-3.51662,9.72232C1065.76988,467.36542,1073.81908,463.25831,1080.3065,460.85116Z" transform="translate(-82 -165.01433)"/><path fill="#fff" d="M199.64939,459.70893H136.84517l3.51661-9.72232c-4.98943,4.35028-13.03863,8.45739-19.52606,10.86455,6.48743,2.40492,14.53663,6.512,19.52606,10.86231l-3.51654-9.72009h62.80415Z" transform="translate(-82 -165.01433)"/></svg>