<svg xmlns="http://www.w3.org/2000/svg" xmlns:xlink="http://www.w3.org/1999/xlink" width="788.342" height="651.413" data-name="Layer 1" viewBox="0 0 788.342 651.413"><defs><linearGradient id="a" x1="569.547" x2="569.547" y1="675.394" y2="211.365" gradientTransform="matrix(0.95081, -0.30978, 0.30978, 0.95081, -284.7082, 80.56906)" gradientUnits="userSpaceOnUse"><stop offset="0" stop-color="gray" stop-opacity=".25"/><stop offset=".535" stop-color="gray" stop-opacity=".12"/><stop offset="1" stop-color="gray" stop-opacity=".1"/></linearGradient><linearGradient id="b" x1="361.532" x2="361.532" y1="303.194" y2="284.791" gradientTransform="translate(-5.45241 78.23636) rotate(0.02701)" xlink:href="#a"/><linearGradient id="c" x1="278.365" x2="278.365" y1="499.966" y2="452.658" gradientTransform="translate(55.20266 95.07048) rotate(0.02701)" xlink:href="#a"/><linearGradient id="d" x1="278.326" x2="278.326" y1="583.861" y2="536.552" gradientTransform="translate(81.23268 90.95594) rotate(0.02701)" xlink:href="#a"/></defs><title>Browser stats</title><polygon fill="url(#a)" points="0 210.447 8.716 237.242 143.438 651.413 788.342 440.966 653.619 26.795 644.904 0 0 210.447"/><rect width="656.268" height="26.694" x="206.997" y="235.997" fill="#f5f5f5" transform="matrix(0.95066, -0.31022, 0.31022, 0.95066, -256.78017, 54.01895)"/><rect width="656.268" height="412.609" x="274.941" y="251.918" fill="#fff" transform="translate(-317.99265 84.728) rotate(-18.01873)"/><ellipse cx="237.56" cy="346.047" fill="#ff5252" rx="7.629" ry="7.62" transform="translate(-352.03779 391.76806) rotate(-79.42443)"/><ellipse cx="257.849" cy="339.426" fill="#ff0" rx="7.629" ry="7.62" transform="translate(-328.96404 406.30684) rotate(-79.42443)"/><ellipse cx="278.139" cy="332.805" fill="#69f0ae" rx="7.629" ry="7.62" transform="translate(-305.89029 420.84563) rotate(-79.42443)"/><rect width="210.372" height="18.304" x="250.756" y="363.247" fill="url(#b)" transform="translate(-303.79559 4.50114) rotate(-18.07273)"/><rect width="208.847" height="15.254" x="251.282" y="364.047" fill="#6c63ff" transform="translate(-303.58223 4.39218) rotate(-18.07273)"/><rect width="208.847" height="15.254" x="646.919" y="234.941" fill="#6c63ff" transform="translate(-244.0111 120.7588) rotate(-18.07273)"/><rect width="208.847" height="15.254" x="646.919" y="234.941" opacity=".2" transform="translate(-244.0111 120.7588) rotate(-18.07273)"/><rect width="9.147" height="9.152" x="286.877" y="492.36" fill="#6c63ff" opacity=".2" transform="translate(-345.61145 -9.36122) rotate(-18.07273)"/><rect width="9.147" height="9.152" x="876.711" y="299.883" fill="#6c63ff" opacity=".5" transform="translate(-256.80028 164.12309) rotate(-18.07273)"/><ellipse cx="327.681" cy="485.113" fill="#6c63ff" opacity=".2" rx="16.783" ry="16.764" transform="translate(-415.16046 593.90082) rotate(-79.42443)"/><ellipse cx="846.503" cy="315.809" fill="#6c63ff" opacity=".5" rx="16.783" ry="16.764" transform="translate(174.86832 965.67825) rotate(-79.42443)"/><rect width="94.515" height="9.152" x="354.334" y="456.418" fill="#6c63ff" opacity=".5" transform="translate(-329.02755 23.03389) rotate(-18.07273)"/><rect width="94.515" height="9.152" x="380.285" y="536.198" fill="#6c63ff" opacity=".8" transform="translate(-352.4969 35.02056) rotate(-18.07273)"/><rect width="94.515" height="9.152" x="749.837" y="415.605" fill="#6c63ff" opacity=".2" transform="translate(-296.85354 143.71466) rotate(-18.07273)"/><rect width="94.515" height="9.152" x="529.42" y="575.78" fill="#6c63ff" opacity=".7" transform="translate(-357.41847 83.2386) rotate(-18.07273)"/><rect width="94.515" height="9.152" x="652.604" y="535.582" fill="#6c63ff" opacity=".5" transform="translate(-338.87068 119.46997) rotate(-18.07273)"/><rect width="94.515" height="9.152" x="477.518" y="416.22" fill="#6c63ff" opacity=".2" transform="translate(-310.47976 59.26525) rotate(-18.07273)"/><rect width="94.515" height="9.152" x="600.702" y="376.022" fill="#64ffda" transform="translate(-291.93197 95.49662) rotate(-18.07273)"/><rect width="94.515" height="9.152" x="723.886" y="335.825" fill="#6c63ff" opacity=".2" transform="translate(-273.38418 131.72799) rotate(-18.07273)"/><rect width="47.257" height="47.286" x="309.714" y="547.871" fill="url(#c)" transform="translate(-366.68051 7.31422) rotate(-18.07273)"/><rect width="47.257" height="47.286" x="335.665" y="627.651" fill="url(#d)" transform="translate(-390.14986 19.3009) rotate(-18.07273)"/><rect width="42.684" height="42.71" x="312.001" y="550.159" fill="#6c63ff" transform="translate(-366.68051 7.31422) rotate(-18.07273)"/><rect width="42.684" height="42.71" x="337.952" y="629.939" fill="#6c63ff" transform="translate(-390.14986 19.3009) rotate(-18.07273)"/><rect width="259.153" height="6.101" x="233.341" y="336.586" fill="#6c63ff" opacity=".1" transform="translate(-293.2877 5.04906) rotate(-18.07273)"/><rect width="7.622" height="158.637" x="903.862" y="345.693" fill="#6c63ff" opacity=".1" transform="translate(-292.89655 178.25721) rotate(-18.07273)"/></svg>