<svg xmlns="http://www.w3.org/2000/svg" width="987.91" height="646.459" data-name="Layer 1" viewBox="0 0 987.91 646.459"><title>chore_list</title><circle cx="293.91" cy="495.228" r="145" fill="#f2f2f2"/><rect width="963.51" height="2.241" x="24.4" y="640.359" fill="#2f2e41"/><path fill="#3f3d56" d="M393.815,622.91866c0,108.36-64.42,146.2-143.88,146.2-1.85,0-3.69-.02-5.52-.07-3.68-.08-7.33-.24-10.93-.5-71.72-5.07-127.44-44.86-127.44-145.63,0-104.28,133.24-235.87,143.29-245.64a.031.031,0,0,1,.02-.01c.38-.37994.58-.56994.58-.56994S393.815,514.54866,393.815,622.91866Z" transform="translate(-106.04501 -126.7707)"/><path fill="#f2f2f2" d="M244.685,752.53865l52.63-73.53-52.76,81.6-.13995,8.44c-3.68-.08-7.33-.24-10.93-.5l5.67-108.41-.04-.84.1-.16.53-10.24-52.88995-81.81,53.05,74.13.13,2.17,4.29-81.91-45.28-84.53,45.83,70.14,4.46-169.81.02-.57995v.56994l-.74,133.91,45.07-53.09-45.26,64.62-1.18994,73.34,42.09-70.38-42.27,81.18-.66,40.77,61.1-97.97-61.32995,112.2Z" transform="translate(-106.04501 -126.7707)"/><path fill="#a0616a" d="M909.455,328.49868l-20-21s-22-33-38-24,23,30,23,30l20,33Z" transform="translate(-106.04501 -126.7707)"/><path fill="#2f2e41" d="M972.455,735.49868s15,29,4,31-65,5-66,2-9-13-3-17,30-7,30-7l8-8Z" transform="translate(-106.04501 -126.7707)"/><path fill="#2f2e41" d="M980.455,452.49868s32,40,6,81l-6,69s11,95-3,127l-2,11h-35l9-84s-1-10-4-12-52-110-52-110,8-15,5-18,3-63,6-65S980.455,452.49868,980.455,452.49868Z" transform="translate(-106.04501 -126.7707)"/><polygon fill="#a0616a" points="817.41 599.728 813.41 622.728 852.41 620.728 847.41 595.728 817.41 599.728"/><circle cx="824.41" cy="161.728" r="30" fill="#a0616a"/><path fill="#a0616a" d="M957.455,293.49868l3,36-32,15s5.5-33.5,1.5-42.5Z" transform="translate(-106.04501 -126.7707)"/><path fill="#575a89" d="M924.455,342.49868l3-12,41-15s4,0,3,7-1,6-1,6,14,6,15,16,17,13,16,28-6,23-6,23,5,12-3,19c0,0-8,14-4,24s9,27-2,24-87-8-87-8-11-41,1-56c0,0,0-9,9-27S924.455,342.49868,924.455,342.49868Z" transform="translate(-106.04501 -126.7707)"/><path fill="#a0616a" d="M977.455,455.49868s-13,55-29,61c0,0-3,40-20,38s0-38,0-38l19-69Z" transform="translate(-106.04501 -126.7707)"/><path fill="#575a89" d="M926.455,345.49868s-15-24-19-20-24,16-23,24,10,8,10,8l21,16Z" transform="translate(-106.04501 -126.7707)"/><path fill="#2f2e41" d="M905.455,524.49868l-12,8.626-8,85.374s29,116,37,117,41,1,40-2-6-15-6-18-10.42947-26.9916-10.42947-26.9916L932.455,632.49868l3-44Z" transform="translate(-106.04501 -126.7707)"/><path fill="#2f2e41" d="M920.455,741.49868s42-13,44-10,15.34029,33.23622-3.32986,36.61811-85.67014,9.38189-85.67014.38189,2-15,8-15,33-13,35-16S920.455,741.49868,920.455,741.49868Z" transform="translate(-106.04501 -126.7707)"/><path fill="#2f2e41" d="M958.90126,290.47059a2.96116,2.96116,0,0,0-4.00626-3.95925l-.05282.03039a5.18949,5.18949,0,0,0-2.44,5.18855c-3.60617-3.59816-.94848-10.81406-4.84485-14.09577-1.80348-1.519-4.731-1.85316-5.65752-4.02144-.53938-1.26231-.17266-2.75854-.64811-4.04629-.706-1.91216-2.96144-2.71065-4.97748-3.01129-6.33994-.94544-12.75166.66337-18.95976,2.25967-2.28275.587-4.68306,1.23922-6.34578,2.9098-1.75129,1.75955-2.36066,4.31619-3.43452,6.55446s-8.11694,2.036-10.57919,1.71926c-.856-2.43148,5.46588-2.6148,5.98194-5.14037,1.41054-6.903-3.50152-14.24353-1.09178-20.86431,1.452-3.98948,5.24519-6.63037,9.06408-8.48522a48.10819,48.10819,0,0,1,34.039-2.90465,7.55783,7.55783,0,0,1,3.14377,1.52008c1.45333,1.35677,1.72276,3.53518,2.69065,5.27189,2.20532,3.95705,7.43556,4.89751,10.9623,7.74071,5.34123,4.306,5.9434,12.08108,6.11634,18.93969.0871,3.454.14856,7.043-1.26617,10.19524s-4.76725,5.72073-8.1587,5.06048C958.597,291.07141,958.751,290.77985,958.90126,290.47059Z" transform="translate(-106.04501 -126.7707)"/><path fill="#575a89" d="M953.68372,355.24335a21.30655,21.30655,0,0,1,26.00812,1.3217c6.89193,5.85666,14.306,14.24779,13.76315,22.93363-1,16-7,82-15,83s-37-7-37-12,7-11,7-11l-8.49925-50.9955a33.70886,33.70886,0,0,1,13.2793-32.94071Q953.45777,355.40214,953.68372,355.24335Z" transform="translate(-106.04501 -126.7707)"/><path fill="#3f3d56" d="M842.1927,126.77181H601.57721a51.15011,51.15011,0,0,0-49.89774,39.90061L430.10122,705.93972A41.34031,41.34031,0,0,0,468.395,756.322l247.35439,12.18713a54.6149,54.6149,0,0,0,56.43046-44.82745l68.9666-381.268,5.13081,1.466,13.19613-72.26456-5.28146-1.32036,19.251-106.42558A31.49278,31.49278,0,0,0,842.1927,126.77181Z" transform="translate(-106.04501 -126.7707)"/><path fill="#6c63ff" d="M633.25386,138.397H605.16678a35.34864,35.34864,0,0,0-34.53619,27.81348L453.93222,701.078a21.90325,21.90325,0,0,0,19.96738,26.52542l246.55417,16.15894a28.36685,28.36685,0,0,0,29.77274-23.27749L849.806,167.64717A24.84574,24.84574,0,0,0,825.35373,138.397h-26.645a11.72583,11.72583,0,0,0-11.32265,8.67742v0a10.35184,10.35184,0,0,1-9.9959,7.66063H650.897a17.69522,17.69522,0,0,1-17.6431-16.33806Z" transform="translate(-106.04501 -126.7707)"/><rect width="255.125" height="1.257" x="448.66" y="149.872" fill="#2f2e41"/><rect width="257.639" height="1.257" x="438.606" y="190.717" fill="#2f2e41"/><polygon fill="#2f2e41" points="687.675 147.881 681.877 140.152 682.883 139.399 687.893 146.078 707.199 130.283 707.994 131.256 687.675 147.881"/><polygon fill="#2f2e41" points="654.37 330.114 648.573 322.385 649.578 321.631 654.589 328.311 673.894 312.515 674.69 313.489 654.37 330.114"/><rect width="1.257" height="267.125" x="649.278" y="326.883" fill="#2f2e41" transform="translate(69.75913 973.68689) rotate(-88.78686)"/><rect width="1.257" height="272.164" x="643.622" y="361.752" fill="#2f2e41" transform="translate(25.62892 1003.64855) rotate(-88.67701)"/><path d="M675.04163,601.20436a59.69681,59.69681,0,0,1-119.39362,0c0-.74775.01258-1.48928.044-2.23081a59.69562,59.69562,0,0,1,119.34959,2.23081Z" opacity=".1" transform="translate(-106.04501 -126.7707)"/><path d="M669.38614,624.4547c0,.74774-.01258,1.48927-.044,2.2308A59.7041,59.7041,0,0,1,555.648,601.20436c0-.74775.01258-1.48928.044-2.23081a59.7041,59.7041,0,0,1,113.6941,25.48115Z" opacity=".1" transform="translate(-106.04501 -126.7707)"/><polygon fill="#f2f2f2" points="497.217 490.858 475.995 462.562 481.022 458.791 498.311 481.843 566.379 426.152 570.358 431.016 497.217 490.858"/></svg>