<svg xmlns="http://www.w3.org/2000/svg" width="1080" height="651.388" data-name="Layer 1" viewBox="0 0 1080 651.388"><title>detailed_information</title><rect width="994" height="549" x="43" y="32.5" fill="#6c63ff"/><path fill="#f2f2f2" d="M345.46712,470.94186l-1.15273-.25962A262.3933,262.3933,0,0,1,822.36774,388.899,260.29031,260.29031,0,0,1,856,469.98471l-1.15158.26194c-27.208-119.46279-131.908-202.89727-254.612-202.89727C479.14027,267.34938,371.99434,352.9722,345.46712,470.94186Z" transform="translate(-60 -124.30615)"/><path fill="#3f3d56" d="M1140,738.30566H60V124.30615H1140Zm-1078-2H1138V126.30615H62Z" transform="translate(-60 -124.30615)"/><circle cx="74" cy="46" r="9" fill="#f2f2f2"/><circle cx="101" cy="46" r="9" fill="#f2f2f2"/><circle cx="128" cy="46" r="9" fill="#f2f2f2"/><path fill="#f2f2f2" d="M103,544.03613v2.05c75.6,17.52,133.7,81.26,142.76,159.72h2.02C238.68,626.24615,179.71,561.60613,103,544.03613Z" transform="translate(-60 -124.30615)"/><path d="M209.33,705.80615H103v-113.23A138.10907,138.10907,0,0,1,209.33,705.80615Z" opacity=".1" transform="translate(-60 -124.30615)"/><path d="M1097,596.97613v106.33H983.77A138.109,138.109,0,0,1,1097,596.97613Z" opacity=".1" transform="translate(-60 -124.30615)"/><path fill="#f2f2f2" d="M971.82,307.40612l-.64-.77-239.39,198.53-.77.64,165.87,200h2.6l-165.65-199.74,237.08-196.61,126.08,152.03v-3.14Z" transform="translate(-60 -124.30615)"/><path fill="#3f3d56" d="M496.53,490.40612q.06,7.71-.56006,15.52c-.25,3.36-.61,6.72-1.06,10.09q-.375,2.925-.86,5.85-.84,5.085-1.94,10.06c-.11.52-.23,1.03-.36,1.55a184.79961,184.79961,0,0,1-45.89,85.81,60.059,60.059,0,1,1-96.23,54.27,185.49512,185.49512,0,0,1-69.28,1.64c-101.35-16.68-169.99-112.35-153.31995-213.7s112.35-170,213.7-153.32a185.95741,185.95741,0,0,1,147.44,128.28c.16.52.31,1.03.47,1.55q2.49,8.205,4.21,16.69c.68,3.34,1.26,6.7,1.76,10.09.74,5.12,1.28,10.3,1.59,15.52Q496.515,485.33111,496.53,490.40612Z" transform="translate(-60 -124.30615)"/><circle cx="734.534" cy="189.815" r="61.692" fill="#a0616a"/><path fill="#a0616a" d="M818.63244,361.35433s-7.71149,36.62957-7.71149,40.48532-36.62958,21.2066-36.62958,21.2066l-32.77383-5.78362-11.56723-34.7017S749.229,353.64284,749.229,342.07561Z" transform="translate(-60 -124.30615)"/><path fill="#d0cde1" d="M893.82,448.10613l-39.03,113.16v.01l-18.81,54.56s-1.92,63.62-3.85,69.4,1.93,7.71,3.85,9.64c1.93,1.93-1.92,7.71-3.85,7.71-.4,0-.97,1.25-1.61,3.22H643.62l15-159.38-.92-7.43-16.43-133.3,95.09-33.43v.01c-.01.72-.25,27.77,28.29,37.27,28.92,9.64,48.81995-22.78,48.81995-22.78Z" transform="translate(-60 -124.30615)"/><path fill="#a0616a" d="M501.49743,717.04678s-52.05255,32.77383-46.26894,53.98043,65.54766-36.62957,65.54766-38.55745S501.49743,717.04678,501.49743,717.04678Z" transform="translate(-60 -124.30615)"/><path fill="#2f2e41" d="M848.03309,264.41834s-19.587-42.4384-57.12861-32.64492-58.76086,24.48369-60.39311,39.17391.81612,36.72553.81612,36.72553,4.08062-30.19655,30.19656-23.66756,66.92209,1.63224,66.92209,1.63224l6.529,58.76086s7.34511-10.6096,15.50634-4.08061S874.149,277.47631,848.03309,264.41834Z" transform="translate(-60 -124.30615)"/><path fill="#d0cde1" d="M930.45,623.54614s0,44.05-16.19,82.26H858.63l.49-1.29v-9.64s5.78-7.71,5.78-9.64-7.71-1.93-1.93005-5.78c5.79-3.86,11.57-42.42,11.57-42.42s-1.93-7.71-3.86-9.64c-1.92-1.92,1.93-7.71,1.93-7.71l-3.85-5.78-13.97-52.63v-.01l-11.1-41.83,21.21-71.33h28.92s25.06,21.21,23.13,61.69Z" transform="translate(-60 -124.30615)"/><path fill="#d0cde1" d="M674.042,399.91178l-32.77383,5.78361s-19.27873,19.27873-26.99022,42.4132L598.855,517.512l-25.06234,50.12468s-28.91808,28.91809-50.12468,94.46575l-30.846,57.83617,32.77383,19.27873s90.61-106.033,102.17724-142.66256l50.12468-96.39362Z" transform="translate(-60 -124.30615)"/><circle cx="415" cy="622" r="15" fill="#3f3d56"/><path fill="#f2f2f2" d="M157.44,531.92614v-93.92h331.2c-.16-.52-.31-1.03-.47-1.55H155.88v97.02H491.75c.13-.52.25-1.03.36-1.55Z" transform="translate(-60 -124.30615)"/><rect width="40.362" height="40.362" x="112.183" y="350.572" opacity=".1"/><path fill="#f2f2f2" d="M171.41,453.91613v62.1H233.5v-62.1Zm60.54,60.55H172.96v-58.99h58.99Z" transform="translate(-60 -124.30615)"/><path fill="#ff6584" d="M356,605.30615H320v-36h36Zm-34-2h32v-32H322Z" transform="translate(-60 -124.30615)"/><polygon fill="#f2f2f2" points="217.185 469.525 204.324 457.737 205.676 456.263 216.815 466.475 242.168 428.445 243.832 429.555 217.185 469.525"/><polygon fill="#f2f2f2" points="230 454 230 479 198 479 198 447 223 447 223 445 196 445 196 481 232 481 232 454 230 454"/><path fill="#f2f2f2" d="M1040.38684,246.3446a33.3764,33.3764,0,1,1,33.3764-33.3764A33.41452,33.41452,0,0,1,1040.38684,246.3446Zm0-65.20041a31.824,31.824,0,1,0,31.824,31.824A31.86011,31.86011,0,0,0,1040.38684,181.14419Z" transform="translate(-60 -124.30615)"/><polygon fill="#f2f2f2" points="1001.893 69.806 1000.795 68.708 980.387 89.117 959.978 68.708 958.881 69.806 979.289 90.214 961.597 107.906 962.695 109.004 980.387 91.312 998.079 109.004 999.176 107.906 981.484 90.214 1001.893 69.806"/><rect width="192" height="2" x="214" y="344.694" fill="#f2f2f2"/><rect width="192" height="2" x="214" y="360.694" fill="#f2f2f2"/><rect width="192" height="2" x="214" y="376.694" fill="#f2f2f2"/></svg>