<svg xmlns="http://www.w3.org/2000/svg" width="991.463" height="622.821" data-name="Layer 1" viewBox="0 0 991.463 622.821"><title>domain names</title><rect width="752.734" height="527.173" x="131" y="22.97" fill="#f2f2f2" rx="30.995"/><rect width="520.259" height="43.211" x="260.633" y="134.454" fill="#fff" rx="12.89"/><rect width="752.734" height="527.173" x="154.334" y=".5" fill="none" stroke="#3f3d56" stroke-miterlimit="10" rx="30.995"/><line x1="154.766" x2="907.5" y1="41.118" y2="41.118" fill="none" stroke="#3f3d56" stroke-miterlimit="10"/><circle cx="180.26" cy="24.266" r="10.371" fill="#6c63ff"/><circle cx="209.644" cy="24.698" r="10.371" fill="#6c63ff"/><circle cx="239.027" cy="25.13" r="10.371" fill="#6c63ff"/><circle cx="182.853" cy="20.809" r="10.371" fill="none" stroke="#3f3d56" stroke-miterlimit="10"/><circle cx="212.237" cy="21.241" r="10.371" fill="none" stroke="#3f3d56" stroke-miterlimit="10"/><circle cx="241.62" cy="21.673" r="10.371" fill="none" stroke="#3f3d56" stroke-miterlimit="10"/><rect width="520.259" height="43.211" x="270.139" y="125.812" fill="none" stroke="#3f3d56" stroke-miterlimit="10" rx="12.89"/><circle cx="759.399" cy="141.045" r="6.914" fill="none" stroke="#3f3d56" stroke-miterlimit="10"/><line x1="764.502" x2="776.508" y1="146.329" y2="158.763" fill="none" stroke="#3f3d56" stroke-miterlimit="10"/><rect width="93.336" height="15.556" x="283.102" y="144.824" fill="#6c63ff" rx="7.778"/><rect width="93.336" height="15.556" x="285.695" y="140.503" fill="none" stroke="#3f3d56" stroke-miterlimit="10" rx="7.778"/><rect width="93.336" height="15.556" x="249.398" y="237.296" fill="#6c63ff" rx="7.778"/><rect width="93.336" height="15.556" x="249.398" y="286.556" fill="#fff" rx="7.778"/><rect width="93.336" height="15.556" x="249.398" y="335.817" fill="#fff" rx="7.778"/><rect width="93.336" height="15.556" x="249.398" y="385.077" fill="#fff" rx="7.778"/><rect width="93.336" height="15.556" x="249.398" y="434.338" fill="#fff" rx="7.778"/><rect width="93.336" height="15.556" x="253.719" y="232.11" fill="none" stroke="#3f3d56" stroke-miterlimit="10" rx="7.778"/><rect width="93.336" height="15.556" x="253.719" y="281.371" fill="none" stroke="#3f3d56" stroke-miterlimit="10" rx="7.778"/><rect width="93.336" height="15.556" x="253.719" y="330.631" fill="none" stroke="#3f3d56" stroke-miterlimit="10" rx="7.778"/><rect width="93.336" height="15.556" x="253.719" y="379.892" fill="none" stroke="#3f3d56" stroke-miterlimit="10" rx="7.778"/><rect width="93.336" height="15.556" x="253.719" y="429.152" fill="none" stroke="#3f3d56" stroke-miterlimit="10" rx="7.778"/><rect width="48.396" height="15.556" x="754.101" y="237.296" fill="#57b894" rx="4.012"/><rect width="48.396" height="15.556" x="754.101" y="286.556" fill="#fff" rx="4.012"/><rect width="48.396" height="15.556" x="754.101" y="335.817" fill="#fff" rx="4.012"/><rect width="48.396" height="15.556" x="754.101" y="385.077" fill="#fff" rx="4.012"/><rect width="48.396" height="15.556" x="754.101" y="434.338" fill="#fff" rx="4.012"/><rect width="48.396" height="15.556" x="758.422" y="232.11" fill="none" stroke="#3f3d56" stroke-miterlimit="10" rx="4.012"/><rect width="48.396" height="15.556" x="758.422" y="281.371" fill="none" stroke="#3f3d56" stroke-miterlimit="10" rx="4.012"/><rect width="48.396" height="15.556" x="758.422" y="330.631" fill="none" stroke="#3f3d56" stroke-miterlimit="10" rx="4.012"/><rect width="48.396" height="15.556" x="758.422" y="379.892" fill="none" stroke="#3f3d56" stroke-miterlimit="10" rx="4.012"/><rect width="48.396" height="15.556" x="758.422" y="429.152" fill="none" stroke="#3f3d56" stroke-miterlimit="10" rx="4.012"/><rect width="47.491" height="62.293" x="154.923" y="317.928" fill="#2f2e41"/><path fill="#575a89" d="M221.72287,723.56176s13.26044,0,17.2694,4.31735,2.46706,14.494,6.78441,16.03588,14.18559,13.8772,5.55088,15.41911c-6.02576,1.076-18.05883,1.55133-24.7802,1.74031a12.8425,12.8425,0,0,1-8.16629-2.64537,54.40042,54.40042,0,0,0-4.98452-3.41229c-4.62574-2.77544,0-21.27838,0-21.27838Z" transform="translate(-104.2684 -138.42053)"/><path d="M221.72287,723.56176s13.26044,0,17.2694,4.31735,2.46706,14.494,6.78441,16.03588,14.18559,13.8772,5.55088,15.41911c-6.02576,1.076-18.05883,1.55133-24.7802,1.74031a12.8425,12.8425,0,0,1-8.16629-2.64537,54.40042,54.40042,0,0,0-4.98452-3.41229c-4.62574-2.77544,0-21.27838,0-21.27838Z" opacity=".1" transform="translate(-104.2684 -138.42053)"/><path fill="#3f3d56" d="M272.91432,603.29268c0,3.39221-2.77544,19.73647-2.77544,19.73647L241.45933,732.81322s-20.97-5.24249-22.82028-4.93411c-.38857.06475-.27447-1.73311.14493-4.635.87892-6.07511,3.10543-16.97954,4.91559-25.74991,1.45868-7.0681,2.649-12.7516,2.649-13.40537,0-.75861.67534-13.49172,1.471-28.254,1.141-21.24137,2.538-46.68291,2.538-46.68291l-4.62573-67.22732,1.23353-26.52088,7.40117-31.76337,49.03278,13.26044,2.31595,15.63805.15111,1.01459s-4.63092,71.52977-7.098,73.68845S272.91432,599.90048,272.91432,603.29268Z" transform="translate(-104.2684 -138.42053)"/><path fill="#575a89" d="M213.08817,709.06779s-18.50294-.30838-20.35323,1.8503c-1.263,1.47352-8.27365,16.16655-12.5967,25.34511a16.92578,16.92578,0,0,0,5.98007,21.45734,17.27883,17.27883,0,0,0,11.24236,2.5387c16.65264-1.54191,15.7275-12.0269,15.7275-12.0269l4.93411-16.03588-1.23353-20.97Z" transform="translate(-104.2684 -138.42053)"/><path d="M218.784,723.24411c.87892-6.07511,3.10543-16.97954,4.91559-25.74991-.70925,10.40481-3.33664,26.598-4.13538,26.06756A5.31836,5.31836,0,0,0,218.784,723.24411Z" opacity=".1" transform="translate(-104.2684 -138.42053)"/><path d="M241.76772,587.25681c.30838,1.85029-3.08383,7.40117-5.2425,14.18558s-8.01794,49.34116-8.01794,49.34116-.27447,1.95822-.68769,5.0513c1.141-21.24137,2.538-46.68291,2.538-46.68291l-4.62573-67.22732,1.23353-26.52088,7.40117-31.76337,49.03278,13.26044,2.31595,15.63805-47.33976-18.10511s-.92515,16.65264-.92515,20.04485S241.45933,585.40651,241.76772,587.25681Z" opacity=".1" transform="translate(-104.2684 -138.42053)"/><path fill="#3f3d56" d="M189.65112,450.95185s-14.80235,19.73647-10.485,41.32322,9.86823,75.862,13.8772,81.10453,0,15.11073,0,15.11073-7.09279,93.13144-6.476,96.21526,1.8503,17.57779,3.39221,20.04485.61676,10.485.61676,10.485,25.28735,7.70955,26.21249,8.32632,4.31735-21.27838,4.31735-30.52984,4.62574-42.24837,4.62574-42.24837,5.85926-42.55675,8.01794-49.34116,5.55088-12.33529,5.24249-14.18558-4.31735-69.386-4.31735-72.77821.92515-20.04485.92515-20.04485l50.13517,19.17172s11.15241-52.00533,5.48758-57.17528S189.65112,450.95185,189.65112,450.95185Z" transform="translate(-104.2684 -138.42053)"/><ellipse cx="127.477" cy="120.101" fill="#2f2e41" rx="38.239" ry="14.957"/><path fill="#3f3d56" d="M209.661,211.40624a31.66477,31.66477,0,0,0-9.76776,15.17726c-.64542,2.2695-.94731,4.917.58089,6.77037a8.85709,8.85709,0,0,1,1.4967,1.8127,6.43667,6.43667,0,0,1,.03806,3.00939,11.82743,11.82743,0,0,0,1.47767,5.43147l5.07122,11.18035c.56129-.97531.5683-2.17276,1.14723-3.1388,1.12339-1.87455,3.81107-2.1474,6.089-2.2008l7.10515-.16656a12.98261,12.98261,0,0,0,5.59963-.96632c2.06588-1.04907,3.30769-3.09156,4.96758-4.65777a12.9514,12.9514,0,0,1,7.82158-3.41487,18.48226,18.48226,0,0,1-3.67616,4.07123,16.11387,16.11387,0,0,0,10.36268-5.281l.01116,3.30081c1.18151.4432,2.194-1.31505,3.45613-1.17307,1.49778.16849,1.219,2.2498,1.14485,3.67433a5.118,5.118,0,0,0,4.89373,5.04075c1.55382-6.64306,3.1173-13.41125,2.4969-20.18952S256.2,215.99341,250.152,212.30787a25.04756,25.04756,0,0,0-7.94258-2.94321c-5.729-1.19579-11.65857-1.1129-17.52471-1.02429a40.77617,40.77617,0,0,0-9.9938.9771c-3.23088.86957-6.32332,2.662-7.96179,5.43494" transform="translate(-104.2684 -138.42053)"/><path fill="#fbbebe" d="M215.24684,254.204s-1.54191,12.64367-3.70058,12.64367,9.25146,20.66161,9.25146,20.66161l30.83823,2.46706,18.50293-11.71852-8.94308-15.11073s-14.494-2.46706-12.64368-10.79338S215.24684,254.204,215.24684,254.204Z" transform="translate(-104.2684 -138.42053)"/><path d="M215.24684,254.204s-1.54191,12.64367-3.70058,12.64367,9.25146,20.66161,9.25146,20.66161l30.83823,2.46706,18.50293-11.71852-8.94308-15.11073s-14.494-2.46706-12.64368-10.79338S215.24684,254.204,215.24684,254.204Z" opacity=".1" transform="translate(-104.2684 -138.42053)"/><circle cx="127.631" cy="101.598" r="26.829" fill="#fbbebe"/><path fill="#575a89" d="M234.36654,281.34162s18.50294.92515,24.3622-19.73646c0,0,18.19455,3.70058,19.73646,12.33529S302.519,450.33509,295.11784,457.73626s-82.64644,0-99.29908,0-26.21249,3.39221-26.21249,3.39221l22.5119-105.15835,2.46706-71.85306,4.31735-19.1197s12.71575-3.82031,14.22162-.36825S218.94743,284.73382,234.36654,281.34162Z" transform="translate(-104.2684 -138.42053)"/><path fill="#2f2e41" d="M213.97035,261.60516s-7.66659-3.08383-13.21747,0-21.58676,1.85029-23.74544,5.24249-20.97,22.51191-20.35322,24.979,15.11073,54.58365,17.88617,56.43395-3.70059,110.40084-12.02691,123.35289-9.86823,51.49984-5.85926,57.05072.61676-3.39221,8.94308-6.78441,16.34426-23.74543,16.34426-23.74543,5.2425-59.20939,8.6347-72.16145,32.38014-58.901,30.22146-88.19732-17.57779-58.59263-14.18558-62.6016S216.70283,266.23089,213.97035,261.60516Z" transform="translate(-104.2684 -138.42053)"/><path fill="#2f2e41" d="M253.94881,260.8342s12.48948-6.01345,20.199.771,38.2394,17.57778,37.931,24.36219-21.89514,57.97586-21.89514,57.97586.92514,42.24837,5.2425,54.27528S327.498,509.85286,317.32136,516.94565s-22.5119,10.79338-30.83822,12.33529.61677-16.34426,1.54191-25.28734,12.33529-41.01484-3.08382-60.13454S241.76772,366.7635,243.618,335.00013s5.2425-41.6316,5.2425-41.6316S258.88293,262.99288,253.94881,260.8342Z" transform="translate(-104.2684 -138.42053)"/><path fill="#2f2e41" d="M162.82186,289.97632H157.391s-4.74571,21.27838-9.98821,24.3622-8.01794,7.40117-8.01794,9.86823-3.70059,5.85926-7.09279,9.25147-10.485,11.10176-9.55985,15.72749-.61677,30.52984,7.40117,30.52984,24.67058-2.46705,27.13764-6.16764,19.1197-30.22146,19.1197-30.22146Z" transform="translate(-104.2684 -138.42053)"/><path fill="#3f3d56" d="M209.9731,200.30448a31.91159,31.91159,0,0,0-9.23621,15.17726c-.6103,2.2695-.89576,4.917.54928,6.77037a8.7699,8.7699,0,0,1,1.41525,1.8127,6.79692,6.79692,0,0,1,.036,3.00938,12.35583,12.35583,0,0,0,1.39725,5.43148l4.79526,11.18035c.53075-.97531.53737-2.17276,1.0848-3.1388,1.06226-1.87456,3.60367-2.1474,5.75762-2.2008l6.71849-.16656a11.6839,11.6839,0,0,0,5.29491-.96632c1.95346-1.04907,3.12769-3.09156,4.69726-4.65777a11.93723,11.93723,0,0,1,7.39594-3.41487,18.16757,18.16757,0,0,1-3.47612,4.07123,14.97275,14.97275,0,0,0,9.79877-5.281l.01055,3.30081c1.11721.4432,2.07456-1.315,3.268-1.17307,1.41627.16849,1.15265,2.2498,1.08255,3.67433a4.998,4.998,0,0,0,4.62742,5.04075c1.46926-6.64307,2.94766-13.41125,2.361-20.18952s-3.57165-13.69275-9.29056-17.37829a22.8924,22.8924,0,0,0-7.51035-2.94321c-5.41722-1.19579-11.02413-1.1129-16.571-1.02429a36.53668,36.53668,0,0,0-9.45.9771,12.30686,12.30686,0,0,0-7.52852,5.43494" transform="translate(-104.2684 -138.42053)"/><rect width="93.336" height="15.556" x="66.102" y="136.824" fill="#6c63ff" rx="7.778"/><rect width="93.336" height="15.556" x="68.695" y="132.503" fill="none" stroke="#f2f2f2" stroke-miterlimit="10" rx="7.778"/><path fill="#fbbebe" d="M150.795,321.43131s12.64368-14.494,10.79338-19.1197,4.009-38.85616,14.80235-35.464,6.16764,37.62264,6.16764,37.62264l-16.65264,28.37116-8.6347-3.08382Z" transform="translate(-104.2684 -138.42053)"/><path fill="#2f2e41" d="M154.49554,312.17984l-23.74543,28.98793s-11.41015,30.52985,4.009,30.52985,27.446-20.04485,27.446-20.04485l12.64367-30.52984s-8.94309,12.64367-15.7275,5.85926A16.11822,16.11822,0,0,1,154.49554,312.17984Z" transform="translate(-104.2684 -138.42053)"/><rect width="48.396" height="15.556" x="128.101" y="329.296" fill="#57b894" rx="4.012"/><rect width="48.396" height="15.556" x="132.422" y="324.11" fill="none" stroke="#f2f2f2" stroke-miterlimit="10" rx="4.012"/><path fill="#fbbebe" d="M274.74413,448.2464s-22.49142,31.69338-8.61422,38.16941,31.455-22.5119,31.455-22.5119Z" transform="translate(-104.2684 -138.42053)"/><path fill="#2f2e41" d="M299.74358,281.34162l12.33529,4.62573s7.40117,36.69749,9.86823,45.33219,5.85926,82.02968-2.46706,96.832-24.3622,44.71542-24.3622,44.71542-14.80234-21.89514-24.979-20.35323c0,0,14.18558-12.33529,16.34426-18.81131s8.6347-24.979,8.94309-35.464-1.00036-51.31825-8.36393-58.50183S299.74358,281.34162,299.74358,281.34162Z" transform="translate(-104.2684 -138.42053)"/><line x2="253" y1="622.321" y2="622.321" fill="none" stroke="#3f3d56" stroke-miterlimit="10"/><path fill="#46455b" d="M906.36209,598.77361c0,58.96027,36.98857,106.67017,82.69934,106.67017" transform="translate(-104.2684 -138.42053)"/><path fill="#6c63ff" d="M989.06143,705.44378c0-59.62274,41.27711-107.86871,92.28767-107.86871" transform="translate(-104.2684 -138.42053)"/><path fill="#6c63ff" d="M936.32562,604.11846c0,56.006,23.58692,101.32532,52.73581,101.32532" transform="translate(-104.2684 -138.42053)"/><path fill="#46455b" d="M989.06143,705.44378c0-76.18462,47.7099-137.83224,106.67017-137.83224" transform="translate(-104.2684 -138.42053)"/><path fill="#a8a8a8" d="M971.66362,706.19582s11.72813-.36122,15.26269-2.87813,18.04082-5.52225,18.91766-1.48567,17.62519,20.07611,4.3842,20.18291-30.76619-2.06249-34.29395-4.21139S971.66362,706.19582,971.66362,706.19582Z" transform="translate(-104.2684 -138.42053)"/><path d="M1010.46446,720.60978c-13.241.10683-30.76618-2.06247-34.29394-4.21138-2.68658-1.6365-3.75715-7.50866-4.11536-10.21785-.24807.01066-.39153.01526-.39153.01526s.74283,9.45882,4.27059,11.60772,21.053,4.31821,34.29395,4.21138c3.82215-.03082,5.14239-1.39069,5.0699-3.40477C1014.76708,719.827,1013.30935,720.58684,1010.46446,720.60978Z" opacity=".2" transform="translate(-104.2684 -138.42053)"/><line x1="801.5" x2="977.5" y1="583.821" y2="583.821" fill="none" stroke="#3f3d56" stroke-miterlimit="10"/></svg>