<svg xmlns="http://www.w3.org/2000/svg" xmlns:xlink="http://www.w3.org/1999/xlink" width="954" height="549.86" data-name="Layer 1" viewBox="0 0 954 549.86"><defs><linearGradient id="a" x1="569.11" x2="569.11" y1="596.37" y2="230.62" gradientUnits="userSpaceOnUse"><stop offset="0" stop-color="gray" stop-opacity=".25"/><stop offset=".54" stop-color="gray" stop-opacity=".12"/><stop offset="1" stop-color="gray" stop-opacity=".1"/></linearGradient><linearGradient id="b" x1="878.33" x2="878.33" y1="643.77" y2="175.07" xlink:href="#a"/></defs><title>finance</title><path fill="#6c63ff" d="M359.74,535.18c-57.68-19.93-123.63-36.8-177.52-8.16-6.83,3.63-13.56,8.2-17.24,15-9.72,17.89,5.73,41.09-1.8,60s-35.87,28.43-33.55,48.63c.61,5.28,3.47,10.06,6.84,14.18,21.11,25.79,59.81,28.4,92.52,22s64.7-19.67,98-18c32,1.65,61.44,17,90.76,29.92,49.43,21.84,107.16,37.51,156.55,15.56,22.63-10.06,41.34-27.19,63-39.15A155.06,155.06,0,0,1,733,657.6c22,3.1,43,10.9,64.53,16.28,48.9,12.21,99.94,11.81,150.33,11.33,9.38-.09,18.91-.2,27.9-2.88,13.31-4,24.29-13.21,34.86-22.22,13.89-11.83,28.52-24.83,33-42.52,5.29-21-5.66-43.32-21.9-57.59s-37-22.07-57.26-29.59c-5-1.84-10.34-3.71-15.46-2.32-3.36.92-6.19,3.16-8.7,5.57-14.38,13.84-26.53,37.25-46.14,33.49-7-1.34-12.73-6.21-18.27-10.71-29.58-24-69.37-42.53-105.07-29.27-26.11,9.7-44.54,34.61-71,43.4-18.82,6.26-39.27,3.55-59.07,4.77-28.8,1.76-56.83,11.94-85.67,11.32-73.54-1.58-134.81-71.9-208.05-65.2-5.74.52-12,1.84-15.52,6.38" opacity=".5" transform="translate(-123 -175.07)"/><path fill="#6c63ff" d="M267,468.29S205.89,505.18,318.58,562c0,0,24.83-46.1-2.62-83.69a37,37,0,0,0-48-10.52Z" transform="translate(-123 -175.07)"/><path fill="none" stroke="#535461" stroke-miterlimit="10" d="M267.73,467.52s52.32,40,50.86,94.45" transform="translate(-123 -175.07)"/><path fill="#6c63ff" d="M1040.15,437.56c12.38,45.27-40.43,174.24-40.43,174.24S888.6,527.67,876.21,482.4a85,85,0,1,1,163.93-44.85Z" transform="translate(-123 -175.07)"/><path d="M1040.15,437.56c12.38,45.27-40.43,174.24-40.43,174.24S888.6,527.67,876.21,482.4a85,85,0,1,1,163.93-44.85Z" opacity=".1" transform="translate(-123 -175.07)"/><path fill="none" stroke="#535461" stroke-miterlimit="10" d="M936.21,378.27s69.17,104.42,64,233.78" transform="translate(-123 -175.07)"/><path fill="#6c63ff" d="M1057.8,520.3s-62.72-34.12-54.78,91.83c0,0,52.32-1.87,70.89-44.55a37,37,0,0,0-15.19-46.75Z" transform="translate(-123 -175.07)"/><path fill="none" stroke="#535461" stroke-miterlimit="10" d="M1058.83,520.52s-8.1,65.38-55.81,91.61" transform="translate(-123 -175.07)"/><path fill="#6c63ff" d="M139.56,506.26s-61.14,36.88,51.56,93.67c0,0,24.83-46.1-2.62-83.69a37,37,0,0,0-48-10.52Z" transform="translate(-123 -175.07)"/><path fill="none" stroke="#535461" stroke-miterlimit="10" d="M140.26,505.49s52.32,40,50.86,94.45" transform="translate(-123 -175.07)"/><path fill="url(#a)" d="M902.43,554.27H838.18a21.42,21.42,0,0,0,2.24-9.57V252.14a21.51,21.51,0,0,0-21.51-21.51H321.58a21.51,21.51,0,0,0-21.51,21.51V544.71a21.42,21.42,0,0,0,2.24,9.57H235.79A5.69,5.69,0,0,0,230.1,560v4.59a31.82,31.82,0,0,0,31.82,31.82H876.3a31.82,31.82,0,0,0,31.82-31.82V560A5.69,5.69,0,0,0,902.43,554.27Zm-395.89,18.2L501,566.22H637.78l-6.1,6.26Z" transform="translate(-123 -175.07)"/><rect width="528.12" height="327.99" x="183.16" y="59.7" fill="#535461" rx="23.26" ry="23.26"/><rect width="504.77" height="267.95" x="194.28" y="107.51" fill="#fff"/><circle cx="446.67" cy="84.16" r="4.45" fill="#fff"/><path fill="#535461" d="M647.6,551.08l-17.34,17.79H508l-15.67-17.79H243.34a5.56,5.56,0,0,0-5.56,5.56v4.48a31.1,31.1,0,0,0,31.1,31.1H869.34a31.1,31.1,0,0,0,31.1-31.1v-4.48a5.56,5.56,0,0,0-5.56-5.56Z" transform="translate(-123 -175.07)"/><polyline fill="none" stroke="#535461" stroke-miterlimit="10" stroke-width="2" points="258.77 124.19 258.77 352.11 635.67 352.11"/><rect width="38.91" height="60.04" x="292.12" y="283.18" fill="#6c63ff" opacity=".5"/><rect width="38.91" height="113.41" x="358.83" y="229.81" fill="#6c63ff" opacity=".7"/><rect width="38.91" height="81.16" x="425.54" y="262.05" fill="#6c63ff" opacity=".5"/><rect width="38.91" height="131.2" x="492.25" y="212.02" fill="#6c63ff" opacity=".8"/><rect width="38.91" height="177.89" x="558.96" y="165.32" fill="#6c63ff"/><polyline fill="none" stroke="#535461" stroke-miterlimit="10" stroke-width="2" points="311.02 246.49 378.84 185.34 445.55 243.15 511.15 173.11 577.86 145.31"/><circle cx="311.02" cy="246.49" r="7.78" fill="#6c63ff"/><circle cx="444.44" cy="242.04" r="7.78" fill="#6c63ff"/><circle cx="512.26" cy="173.11" r="7.78" fill="#6c63ff"/><circle cx="378.84" cy="184.22" r="7.78" fill="#6c63ff"/><circle cx="577.86" cy="145.31" r="7.78" fill="#6c63ff"/><path fill="url(#b)" d="M990.31,560.82c-4.1-1.35-10.18-2.91-15-2.36-4.59-1.67-15.38-6-22.75-12.52a164.07,164.07,0,0,0-.49-19.22c-3.77-42.87,4.71-71.13,4.71-71.13s6.66-21.56,5.93-39.45c.43.81.67,1.29.67,1.29.58-15.43,5.84-31.4,9.78-41.35a3.32,3.32,0,0,0,.44-.16L978,365.48a9.06,9.06,0,0,0,.83-1.93l.71-1.65-.21-.09c.07-.27.14-.56.21-.85h0c2.81-11.89,5-40.09,5-40.09,7.54-29.68-10.36-48-10.36-48l-30.38-26.14a3.85,3.85,0,0,1,.3,1.07l-.25-.22c-.43-1.23-.9-2.7-1.36-4.38a23.1,23.1,0,0,0,3-2.57,23.33,23.33,0,0,0,6.81-12.15,46.07,46.07,0,0,0,.45-11l-.5-12.61a40,40,0,0,0-.75-7.35c-2.29-10-12.54-17-22.83-17.46a83.45,83.45,0,0,0-9.8.52,65.93,65.93,0,0,1-8,.17,1.44,1.44,0,0,1-.86-.23,1.26,1.26,0,0,1-.37-.87,4.34,4.34,0,0,1,1.06-3.25,4,4,0,0,1,1.38-.79l-.73.17a4,4,0,0,1,1.2-.65,23.29,23.29,0,0,0-7.58,2.75,9.79,9.79,0,0,0-1.77,1.49,7.73,7.73,0,0,0-2.56,4.76,8.86,8.86,0,0,1-2.7-4,4,4,0,0,1,0-1.94q-.27.33-.52.68c0-.07,0-.14,0-.21a20.22,20.22,0,0,0-4,8.14,3.17,3.17,0,0,1-.72-2.34c-.15.47-.29.94-.42,1.41a3.26,3.26,0,0,1,0-.94,32.21,32.21,0,0,0-1.57,11.18c0,3.78,1.68,9.67,5.73,11,.21.07.42.12.64.17a25.43,25.43,0,0,0,17.15,38.84q.1.69.19,1.45l.16,0c.11,1,.2,2.1.26,3.22a21.67,21.67,0,0,1-3.34,2.68,27.54,27.54,0,0,1-11.12,3.68,33.1,33.1,0,0,0-13.37,4c-4.85,2.71-10.2,6.66-11.88,11.46-2.8,8-18.22,20.45-28.56,22l-3.68-.21-.27-.08v.07l-.9-.05-.05,0h-.24v.05l-.93-.05s-.09.43-.22,1.19c-5.2-1.79-16.25-6.75-30.63-19.8-16-14.53-37.65-11.67-46-9.84a1.43,1.43,0,0,0-.38,2.65c3.37,1.85,8.59,4.54,11,4.84,0,0-5,5.23.32,8a3.86,3.86,0,0,0,4-.39c2.58-1.89,9.75,2.39,20.14,4.62,0,0,29.32,30.34,43.88,35a20.93,20.93,0,0,0,1.11,1.93l.9-.07,0,.07H845l.11,1s22.64-1.19,30-9.41a11.79,11.79,0,0,0,1.43-1.53l-7.87,99h.07l-.07.94h5.79A218.25,218.25,0,0,1,872.89,449v64.54s-.3,5.68,11.5,14a441.06,441.06,0,0,1,35.72,27.69l1.43,1.24c-2.17,19.75-6.71,56.56-10.5,57.93l2.34.41c-4,5.07-15.36,19-18.82,19.37-4.24.47-7.07,7.07,0,8.48a79.21,79.21,0,0,0,42-4.14,6.41,6.41,0,0,0,4-6.82l-1.37-10.4a1.46,1.46,0,0,1,.6.63c.94,2.83,0-3.77,0-3.77a294.73,294.73,0,0,0,9.11-38l14,12.1s.28-.35.77-1c3.43,7.78,9.55,23.7,8.18,35.36-1.88,16,16,1.88,14.13-7.54-1.52-7.62,5.28-39.92,7.93-52A5.37,5.37,0,0,0,990.31,560.82Z" transform="translate(-123 -175.07)"/><path fill="#fec3be" d="M844,299.49s-13.34-2.3-33.12-20.24c-15.65-14.19-36.76-11.4-44.9-9.61a1.39,1.39,0,0,0-.37,2.58c3.29,1.8,8.39,4.43,10.78,4.73,0,0-4.93,5.1.31,7.83a3.77,3.77,0,0,0,3.94-.38c2.52-1.84,9.52,2.34,19.67,4.51,0,0,39.56,40.94,48.76,34Z" transform="translate(-123 -175.07)"/><path fill="#fec3be" d="M912.11,243.83s3.68,15.64,0,26.68l16.56,2.3,14.72-7.36v-9.66s-6.9-14.72-5.06-31.74Z" transform="translate(-123 -175.07)"/><path fill="#8b416f" d="M959,582.83s12,23.46,10.12,39.1,15.64,1.84,13.8-7.36c-1.49-7.44,5.15-39,7.74-50.74a5.24,5.24,0,0,0-3.48-6.11c-5.53-1.82-14.79-4.05-19.44-.64C960.87,562.13,959,582.83,959,582.83Z" transform="translate(-123 -175.07)"/><path fill="#8b416f" d="M913.49,608.59s-15.64,20.24-19.78,20.7-6.9,6.9,0,8.28a77.34,77.34,0,0,0,41-4,6.26,6.26,0,0,0,3.93-6.66L936,607.21Z" transform="translate(-123 -175.07)"/><path fill="#4d4981" d="M887.73,393.78l-15,2a219.53,219.53,0,0,1-.18,52.73v63s-.29,5.55,11.23,13.62a430.67,430.67,0,0,1,34.88,27l41.74,36.16s16.56-20.24,14.26-32.2c0,0-27.6-8.74-31.28-23-2.11-8.16-12.81-15-21.57-19.3a26.82,26.82,0,0,1-14.35-30.44,23.47,23.47,0,0,1,2.35-5.91c7.36-12.88,17.94-41.86,17.94-41.86L907.51,397Z" transform="translate(-123 -175.07)"/><path d="M887.73,393.78l-15,2a219.53,219.53,0,0,1-.18,52.73v63s-.29,5.55,11.23,13.62a430.67,430.67,0,0,1,34.88,27l41.74,36.16s16.56-20.24,14.26-32.2c0,0-27.6-8.74-31.28-23-2.11-8.16-12.81-15-21.57-19.3a26.82,26.82,0,0,1-14.35-30.44,23.47,23.47,0,0,1,2.35-5.91c7.36-12.88,17.94-41.86,17.94-41.86L907.51,397Z" opacity=".05" transform="translate(-123 -175.07)"/><path fill="#4d4981" d="M909.81,610s27.14,4.6,28.06,7.36,0-3.68,0-3.68,15.64-47.38,12-89.23,4.6-69.46,4.6-69.46,9.66-31.28,4.14-49.22-63.48-10.12-63.48-10.12,20.24,47.38,19.78,69.92c0,0,2.3,68.08,6.44,75.9C921.31,541.43,914.87,608.13,909.81,610Z" transform="translate(-123 -175.07)"/><path fill="#fff" d="M913,255.79s2.76,17,30.36,9.66L925,405.28s-53.36,1.84-52.9-4.6l11-84.63Z" transform="translate(-123 -175.07)"/><path d="M913.72,254.87a22.42,22.42,0,0,1-13.29,6.31,32.33,32.33,0,0,0-13.06,3.88c-4.73,2.65-10,6.5-11.6,11.19-3.22,9.2-23.46,24.38-32.66,21.16l3.22,27.6s26.22-1.38,30.82-11.5L869.34,412h6.9s3.68-26.68,6.44-32.2,8.28-35.88,8.74-43.24,7.36-49.68,13.34-57l9-21.85Z" opacity=".1" transform="translate(-123 -175.07)"/><path d="M913.72,256.25a28.47,28.47,0,0,1-14.21,5.85A32.33,32.33,0,0,0,886.46,266c-4.73,2.65-10,6.5-11.6,11.19-3.22,9.2-23.46,24.38-32.66,21.16l3.22,27.6s26.22-1.38,30.82-11.5l-7.82,98.43h6.9s3.68-26.68,6.44-32.2,8.28-35.88,8.74-43.24,7.36-49.68,13.34-57L913.72,259Z" opacity=".1" transform="translate(-123 -175.07)"/><path fill="#fd6f8d" d="M913.72,255.33a28.47,28.47,0,0,1-14.21,5.85,32.33,32.33,0,0,0-13.06,3.88c-4.73,2.65-10,6.5-11.6,11.19-3.22,9.2-23.46,24.38-32.66,21.16l3.22,27.6s26.22-1.38,30.82-11.5L868.42,412h6.9s3.68-26.68,6.44-32.2,8.28-35.88,8.74-43.24,7.36-49.68,13.34-57l9.89-21.39Z" transform="translate(-123 -175.07)"/><path d="M937.18,237.62c-.6-4.36.6-7.08,1.15-12.19l-26.22,19.78s.63,2.67,1.11,6.58a25,25,0,0,0,4,.32C926.32,252.11,932.87,245,937.18,237.62Z" opacity=".1" transform="translate(-123 -175.07)"/><circle cx="794.17" cy="50.83" r="24.84" fill="#fec3be"/><path d="M890.06,201.55a31.44,31.44,0,0,1,2-12.29,3.07,3.07,0,0,0,.52,4,19.68,19.68,0,0,1,6.24-11.06c-1.77.29-2.68,2.48-2.24,4.22a9.6,9.6,0,0,0,3.07,4.32c-.15-2.63,1.59-5.09,3.79-6.53a22.74,22.74,0,0,1,7.4-2.68,4.29,4.29,0,0,0-2.84,4.4,1.23,1.23,0,0,0,.37.85,1.41,1.41,0,0,0,.84.22,64.38,64.38,0,0,0,7.77-.17,81.49,81.49,0,0,1,9.57-.51c10,.42,20.05,7.25,22.29,17a39.09,39.09,0,0,1,.73,7.18l.49,12.31a45,45,0,0,1-.44,10.76,22.8,22.8,0,0,1-11.71,15.48c-3.61-5.23-3.93-11.95-5.18-18.18a9.2,9.2,0,0,0-1.56-4,3.51,3.51,0,0,0-3.85-1.3c-1.35.54-1.93,2.6-.81,3.52-1,1.18-2.87.3-4-.75a21.48,21.48,0,0,1-6.23-11.13c-.45-2.14-.9-4.78-3-5.51a5.58,5.58,0,0,0-2.22-.15c-4.38.3-11.23,2.11-15.47.72C891.7,211,890.06,205.24,890.06,201.55Z" opacity=".1" transform="translate(-123 -175.07)"/><path fill="#784f69" d="M890.52,201.09a31.44,31.44,0,0,1,2-12.29,3.07,3.07,0,0,0,.52,4,19.68,19.68,0,0,1,6.24-11.06c-1.77.29-2.68,2.48-2.24,4.22a9.6,9.6,0,0,0,3.07,4.32c-.15-2.63,1.59-5.09,3.79-6.53a22.74,22.74,0,0,1,7.4-2.68,4.29,4.29,0,0,0-2.84,4.4,1.23,1.23,0,0,0,.37.85,1.41,1.41,0,0,0,.84.22,64.38,64.38,0,0,0,7.77-.17,81.49,81.49,0,0,1,9.57-.51c10,.42,20.05,7.25,22.29,17a39.09,39.09,0,0,1,.73,7.18l.49,12.31a45,45,0,0,1-.44,10.76,22.8,22.8,0,0,1-11.71,15.48c-3.61-5.23-3.93-11.95-5.18-18.18a9.2,9.2,0,0,0-1.56-4,3.51,3.51,0,0,0-3.85-1.3c-1.35.54-1.93,2.6-.81,3.52-1,1.18-2.87.3-4-.75a21.48,21.48,0,0,1-6.23-11.13c-.45-2.14-.9-4.78-3-5.51a5.58,5.58,0,0,0-2.22-.15c-4.38.3-11.23,2.11-15.47.72C892.16,210.53,890.52,204.78,890.52,201.09Z" transform="translate(-123 -175.07)"/><path d="M841,297.42s-3.68,17,3.22,27.6l3.91-.32-2.13-27Z" opacity=".1" transform="translate(-123 -175.07)"/><path fill="#fd6f8d" d="M842,297.42s-3.68,17,3.22,27.6l3.91-.32-2.13-27Z" transform="translate(-123 -175.07)"/><path d="M940.86,251l29.67,25.53s17.48,17.94,10.12,46.92c0,0-3.22,42.32-6.9,44.16,0,0-12.88,25.76-13.8,50.14,0,0-17.25-34.73-25.07-13.57s-26,24.15-26,24.15L919,303.17S944.54,258.78,940.86,251Z" opacity=".1" transform="translate(-123 -175.07)"/><path fill="#fd6f8d" d="M941.78,251l29.67,25.53s17.48,17.94,10.12,46.92c0,0-3.22,42.32-6.9,44.16,0,0-12.88,25.76-13.8,50.14,0,0-18.17-36.57-26-15.41s-25.07,26-25.07,26l10.12-125.11S945.46,258.78,941.78,251Z" transform="translate(-123 -175.07)"/><path fill="#fec3be" d="M955.35,358.83s7.36-5.06,19.32,8.74l-29.44,53.36L935.34,406S956.27,364.81,955.35,358.83Z" transform="translate(-123 -175.07)"/><path d="M948.22,361.82s16.28,18.28,22.63,15.35l5.88-13.69L954.66,354Z" opacity=".1" transform="translate(-123 -175.07)"/><path fill="#fd6f8d" d="M948.22,360.9s16.28,18.28,22.63,15.35l5.88-13.69-22.07-9.48Z" transform="translate(-123 -175.07)"/><path d="M936.34,402.51s7.75,15.88,11.88,16.8l-6,6.9-8.74-16.56Z" opacity=".1" transform="translate(-123 -175.07)"/><path fill="#4d4981" d="M935.88,403s7.75,15.88,11.88,16.8l-6,6.9L933,410.11Z" transform="translate(-123 -175.07)"/><path d="M950.52,304.78s.92,33.12-2.76,45.54" opacity=".1" transform="translate(-123 -175.07)"/><path d="M876,311.22s5.52-1.84,5.52-6.44" opacity=".1" transform="translate(-123 -175.07)"/><path fill="none" stroke="#535461" stroke-miterlimit="10" stroke-width="2" d="M205.69,316.76s-26.22,54.24-9,118.43,11.75,141-5.42,160" transform="translate(-123 -175.07)"/><circle cx="82.69" cy="141.7" r="7.23" fill="#6c63ff"/><path fill="none" stroke="#535461" stroke-miterlimit="10" stroke-width="2" d="M194.79,351.65s27.18,4.9,34.41-5" transform="translate(-123 -175.07)"/><path fill="none" stroke="#535461" stroke-miterlimit="10" stroke-width="2" d="M192.21,367.4s-16.35-18.09-15.45-28.94" transform="translate(-123 -175.07)"/><path fill="none" stroke="#535461" stroke-miterlimit="10" stroke-width="2" d="M190.82,400.54s14.87,3.92,28.44-25" transform="translate(-123 -175.07)"/><path fill="none" stroke="#535461" stroke-miterlimit="10" stroke-width="2" d="M194.79,424.64s-37-23.81-32.49-39.17" transform="translate(-123 -175.07)"/><path fill="none" stroke="#535461" stroke-miterlimit="10" stroke-width="2" d="M200.57,451.89s25.92-23,23.21-45.63" transform="translate(-123 -175.07)"/><path fill="none" stroke="#535461" stroke-miterlimit="10" stroke-width="2" d="M203.39,467.91s-33-9.22-32-23.68" transform="translate(-123 -175.07)"/><path fill="none" stroke="#535461" stroke-miterlimit="10" stroke-width="2" d="M205.69,487s20.79-19.26,23.5-31" transform="translate(-123 -175.07)"/><path fill="none" stroke="#535461" stroke-miterlimit="10" stroke-width="2" d="M207.14,519.75s-21.33-24.9-22.24-37.55" transform="translate(-123 -175.07)"/><path fill="none" stroke="#535461" stroke-miterlimit="10" stroke-width="2" d="M207.14,540.36s23.87-26.52,25.67-39.17" transform="translate(-123 -175.07)"/><circle cx="53.76" cy="165.2" r="7.23" fill="#6c63ff"/><circle cx="45.63" cy="269.16" r="7.23" fill="#6c63ff"/><circle cx="39.3" cy="210.4" r="7.23" fill="#6c63ff"/><circle cx="106.2" cy="171.53" r="7.23" fill="#6c63ff"/><circle cx="106.2" cy="282.72" r="7.23" fill="#6c63ff"/><circle cx="94.45" cy="200.46" r="7.23" fill="#6c63ff"/><circle cx="108.91" cy="330.64" r="7.23" fill="#6c63ff"/><circle cx="60.09" cy="311.65" r="7.23" fill="#6c63ff"/><circle cx="101.68" cy="231.19" r="7.23" fill="#6c63ff"/></svg>