<svg xmlns="http://www.w3.org/2000/svg" xmlns:xlink="http://www.w3.org/1999/xlink" width="864" height="711.452" data-name="Layer 1" viewBox="0 0 864 711.452"><defs><linearGradient id="a" x1="132.793" x2="132.793" y1="581.522" y2="535.49" gradientUnits="userSpaceOnUse"><stop offset="0" stop-color="gray" stop-opacity=".25"/><stop offset=".535" stop-color="gray" stop-opacity=".12"/><stop offset="1" stop-color="gray" stop-opacity=".1"/></linearGradient><linearGradient id="b" x1="226.069" x2="226.069" y1="494.303" y2="448.271" xlink:href="#a"/><linearGradient id="c" x1="314.17" x2="314.17" y1="438.58" y2="392.548" xlink:href="#a"/><linearGradient id="d" x1="405.906" x2="405.906" y1="354.996" y2="308.964" xlink:href="#a"/><linearGradient id="e" x1="499.838" x2="499.838" y1="317.444" y2="271.412" xlink:href="#a"/><linearGradient id="f" x1="588.964" x2="588.964" y1="317.444" y2="271.412" xlink:href="#a"/><linearGradient id="g" x1="682.177" x2="682.177" y1="196.307" y2="150.275" xlink:href="#a"/><linearGradient id="h" x1="772.147" x2="772.147" y1="89.706" y2="43.674" xlink:href="#a"/><linearGradient id="i" x1="1136.239" x2="1136.239" y1="225.444" y2="88.248" gradientTransform="translate(-360.39355 200.13206) rotate(-2.32401)" xlink:href="#a"/><linearGradient id="j" x1="274.119" x2="274.119" y1="785.987" y2="634.59" xlink:href="#a"/><linearGradient id="k" x1="417.515" x2="417.515" y1="546.785" y2="416.574" xlink:href="#a"/></defs><title>Growing</title><polygon fill="#f2f2f2" points="130.535 660.405 130.535 573.187 215.738 485.968 292.09 430.245 371.761 346.661 465.816 309.108 586.429 309.108 686.018 187.972 772.328 81.371 772.328 660.405 130.535 660.405" opacity=".2"/><g opacity=".2"><line x1="132.793" x2="132.793" y1="558.506" y2="645.724" fill="#6c63ff"/><line x1="132.793" x2="132.793" y1="558.506" y2="564.506" fill="none" stroke="#00f" stroke-miterlimit="10"/><line x1="132.793" x2="132.793" y1="575.251" y2="634.352" fill="none" stroke="#00f" stroke-dasharray="10.745 10.745" stroke-miterlimit="10"/><line x1="132.793" x2="132.793" y1="639.724" y2="645.724" fill="none" stroke="#00f" stroke-miterlimit="10"/><line x1="226.069" x2="226.069" y1="471.287" y2="645.724" fill="#6c63ff"/><line x1="226.069" x2="226.069" y1="471.287" y2="477.287" fill="none" stroke="#00f" stroke-miterlimit="10"/><line x1="226.069" x2="226.069" y1="489.783" y2="633.477" fill="none" stroke="#00f" stroke-dasharray="12.495 12.495" stroke-miterlimit="10"/><line x1="226.069" x2="226.069" y1="639.724" y2="645.724" fill="none" stroke="#00f" stroke-miterlimit="10"/><line x1="314.17" x2="314.17" y1="415.564" y2="645.724" fill="#6c63ff"/><line x1="314.17" x2="314.17" y1="415.564" y2="421.564" fill="none" stroke="#00f" stroke-miterlimit="10"/><line x1="314.17" x2="314.17" y1="433.047" y2="633.983" fill="none" stroke="#00f" stroke-dasharray="11.482 11.482" stroke-miterlimit="10"/><line x1="314.17" x2="314.17" y1="639.724" y2="645.724" fill="none" stroke="#00f" stroke-miterlimit="10"/><line x1="405.906" x2="405.906" y1="331.98" y2="645.724" fill="#6c63ff"/><line x1="405.906" x2="405.906" y1="331.98" y2="337.98" fill="none" stroke="#00f" stroke-miterlimit="10"/><line x1="405.906" x2="405.906" y1="350.05" y2="633.69" fill="none" stroke="#00f" stroke-dasharray="12.07 12.07" stroke-miterlimit="10"/><line x1="405.906" x2="405.906" y1="639.724" y2="645.724" fill="none" stroke="#00f" stroke-miterlimit="10"/><line x1="499.838" x2="499.838" y1="294.428" y2="645.724" fill="#6c63ff"/><line x1="499.838" x2="499.838" y1="294.428" y2="300.428" fill="none" stroke="#00f" stroke-miterlimit="10"/><line x1="499.838" x2="499.838" y1="312.127" y2="633.875" fill="none" stroke="#00f" stroke-dasharray="11.7 11.7" stroke-miterlimit="10"/><line x1="499.838" x2="499.838" y1="639.724" y2="645.724" fill="none" stroke="#00f" stroke-miterlimit="10"/><line x1="588.964" x2="588.964" y1="294.428" y2="645.724" fill="#6c63ff"/><line x1="588.964" x2="588.964" y1="294.428" y2="300.428" fill="none" stroke="#00f" stroke-miterlimit="10"/><line x1="588.964" x2="588.964" y1="312.127" y2="633.875" fill="none" stroke="#00f" stroke-dasharray="11.7 11.7" stroke-miterlimit="10"/><line x1="588.964" x2="588.964" y1="639.724" y2="645.724" fill="none" stroke="#00f" stroke-miterlimit="10"/><line x1="682.177" x2="682.177" y1="173.291" y2="645.724" fill="#6c63ff"/><line x1="682.177" x2="682.177" y1="173.291" y2="179.291" fill="none" stroke="#00f" stroke-miterlimit="10"/><line x1="682.177" x2="682.177" y1="191.097" y2="633.821" fill="none" stroke="#00f" stroke-dasharray="11.806 11.806" stroke-miterlimit="10"/><line x1="682.177" x2="682.177" y1="639.724" y2="645.724" fill="none" stroke="#00f" stroke-miterlimit="10"/><line x1="772.147" x2="772.147" y1="66.69" y2="645.724" fill="#6c63ff"/><line x1="772.147" x2="772.147" y1="66.69" y2="72.69" fill="none" stroke="#00f" stroke-miterlimit="10"/><line x1="772.147" x2="772.147" y1="84.755" y2="633.692" fill="none" stroke="#00f" stroke-dasharray="12.065 12.065" stroke-miterlimit="10"/><line x1="772.147" x2="772.147" y1="639.724" y2="645.724" fill="none" stroke="#00f" stroke-miterlimit="10"/></g><circle cx="132.793" cy="558.506" r="23.016" fill="url(#a)"/><circle cx="226.069" cy="471.287" r="23.016" fill="url(#b)"/><circle cx="314.17" cy="415.564" r="23.016" fill="url(#c)"/><circle cx="405.906" cy="331.98" r="23.016" fill="url(#d)"/><circle cx="499.838" cy="294.428" r="23.016" fill="url(#e)"/><circle cx="588.964" cy="294.428" r="23.016" fill="url(#f)"/><circle cx="682.177" cy="173.291" r="23.016" fill="url(#g)"/><circle cx="772.147" cy="66.69" r="23.016" fill="url(#h)"/><circle cx="132.793" cy="558.506" r="18.171" fill="#6c63ff"/><circle cx="226.069" cy="471.287" r="18.171" fill="#6c63ff"/><circle cx="314.17" cy="415.564" r="18.171" fill="#6c63ff"/><circle cx="405.906" cy="331.98" r="18.171" fill="#6c63ff"/><circle cx="499.838" cy="294.428" r="18.171" fill="#6c63ff"/><circle cx="588.964" cy="294.428" r="18.171" fill="#6c63ff"/><circle cx="682.177" cy="173.291" r="18.171" fill="#6c63ff"/><circle cx="772.147" cy="66.69" r="18.171" fill="#6c63ff"/><path fill="url(#i)" d="M827.91561,268.54189c-3.72458-2.27043-21.51317,6.927-27.50807,8.38115-4.39423,1.06578-14.17453-2.846-19.095-5.01473l.08879-.87332s-2.76753-2.54367-6.10879-2.30414c2.76846-3.03122,4.74007-8.78623,4.79034-14.43783l6.04669-1.00642s-10.27032-18.604-20.91949-6.83711a5.03468,5.03468,0,0,0-2.322-2.41894c-1.93888-.78381-4.05.58486-5.56614,2.02537s-3.1353,3.14515-5.22648,3.17292a.72194.72194,0,0,1-.43917-.09846.83388.83388,0,0,1-.23677-.64,12.0912,12.0912,0,0,0-1.584-5.09484c-2.949,2.02687-3.63354,6.03178-3.90814,9.59956a1.29159,1.29159,0,0,0,.06006.6423,1.2684,1.2684,0,0,0,.62024.52628c1.86745.96694,4.10165,1.67018,6.04412.86432,2.32883-.96607,3.45314-3.76733,5.7386-4.8319a4.60887,4.60887,0,0,1,3.99863.13215c-5.11349,8.72594.519,13.5325,4.37376,15.633a11.44626,11.44626,0,0,0,.69,1.83407c-4.22014-1.49272-10.96732-1.411-17.28388,9.35045l1.91869.39777-18.2444,29.92911s-3.47917,3.77364-2.17231,6.14219,7.25282-.29435,7.05659-5.12956c-.08726-2.15015,3.96429-8.53832,8.4897-14.97031l-2.25837,4.4257a45.1748,45.1748,0,0,0,4.61348,2.9538c-2.99193,4.55059-5.66142,12.3344,4.15129,19.09015l2.61383,4.737s1.24666-.61231,3.06537-1.37646l.62226.87723c1.74922,2.73563.66065.93143.66065.93143l12.102,17.062s-15.678,13.409-14.81426,23.00089l-2.86573.1163a3.89458,3.89458,0,0,0-3.57892,4.98843s13.83641,12.75714,17.31559,8.98362-2.6629-5.946-2.6629-5.946l-.14717-3.62635-.25677-.15648c1.83141-4.42536,12.67278-23.62507,14.312-26.44593,2.25483-3.88015-1.078-10.10712-4.82848-18.501l13.57018-.48825s2.69733,21.37023,11.61893,25.31224l.16136-.07637-1.584,2.764a3.89466,3.89466,0,0,0,2.32019,5.68427s18.16279-4.92993,16.81828-9.88337-6.45135-.90819-6.45135-.90819l-3.149-1.80446-.4227.21071c-1.83536-2.683-14.50573-24.25845-14.53978-26.90073-.03272-2.539-13.73009-5.874-23.525-6.83494l-1.17609-5.63595a19.41546,19.41546,0,0,0,4.20251-.7945s-6.53453-11.84263-5.42391-14.30929,9.71949.81628,6.86036-9.96478l5.9949-1.45415.02429-.23905,16.29691,6.02711a13.02881,13.02881,0,0,0,12.00338-1.55506l10.8878-7.64049C829.56588,279.372,831.64008,270.81232,827.91561,268.54189Z" transform="translate(-168 -94.27375)"/><line x1="37.16" x2="37.16" y2="711.452" fill="none" stroke="#47e6b1" stroke-miterlimit="10" stroke-width="2"/><line x2="864" y1="673.345" y2="673.345" fill="none" stroke="#47e6b1" stroke-miterlimit="10" stroke-width="2"/><path fill="url(#j)" d="M290.26547,772.02589l-3.297-5.07334,3.6041-27.252a60.36447,60.36447,0,0,0-6.47185-8.25247,60.66229,60.66229,0,0,1-.95946-10.21144,138.44607,138.44607,0,0,0-4.4878-19.20421l5.66513,1.54508,8.2409-20.01366v-4.70912l3.53179-2.35452s-4.709-7.06364-9.41817,0c0,0,1.17727,4.70912,0,7.06364s-4.70911,10.5955-4.70911,10.5955h-2.99671l.64218-3.53186h-6.15823c-.29586-.41648-.596-.81628-.90541-1.17726l4.70912-10.5955-2.20738-1.65555,8.09369-10.1172,1.17733-21.19092c4.67958-1.55988,5.74226-6.21991,5.92656-9.18786a2.00669,2.00669,0,0,0-2.51244-2.049c-10.1635,2.60445-8.12324,7.70511-8.12324,7.70511l-3.53185,20.01365-4.86826,7.65012a10.59319,10.59319,0,0,0-6.03079-7.85922l2.65815-3.32275a21.37932,21.37932,0,0,0-11.71755.56757c-10.54806,4.0095-10.52743,19.35041.00675,23.39621a10.556,10.556,0,0,0,4.64716.759v-1.17726c.14951,0,.29485-.01624.44285-.02235-.17891,1.09524-.34646,2.33274-.4384,3.55334l-.00445.00079c-2.35452,0-2.35452,12.95,1.17726,15.30462l-1.17726,12.95v7.06364c2.35452,5.88638,7.06364,5.88638,7.06364,5.88638l3.53185,16.4818a6.1153,6.1153,0,0,0,4.136.12472l.573,4.5844s-10.59542,8.2409-10.59542,20.01366l-.38586.77164-.79141-.77164-7.06364,5.88638,9.41817,11.77268h9.41816c2.35459-5.8863-7.06364-7.06364-7.06364-7.06364l-.04766-6.05041h0L279.43241,760.444a20.35779,20.35779,0,0,0,2.15319,4.55357l.09021.858-1.08238-.22434-2.78437,8.763,5.35726,1.821a19.59587,19.59587,0,0,0,16.85444-2.03868C298.83652,767.94839,290.26547,772.02589,290.26547,772.02589Z" transform="translate(-168 -94.27375)"/><path fill="url(#k)" d="M453.57275,494.67785s-1.42033.65466-2.40239-1.47584l-2.84067,1.30932-1.473-3.19578,1.77545-.81836-6.5966-23.652s.16645-5.243-3.65621-6.06418c0,0-2.07506-.76567-10.21429,2.12486-3.413,1.21206-6.13428,2.25795-8.15518,3.06771-1.76593-1.59568-5.65876-5.77684-5.74023-11.73133a8.986,8.986,0,0,0-1.15746-4.15549l5.01073-1.49531-.10911-.2367,14.63992-5.59987c.65466,1.42033,7.37356-.81554,8.8494-3.21793.67645-1.101-.42572-1.74414-1.81812-2.11767a10.00337,10.00337,0,0,0-5.95824.30455l-17.68843,6.34488-.20673-.4485a5.21815,5.21815,0,0,1-2.27558.8757l-.99934-.68943L419.25,433.12616c1.37752.7405,5.39865-5.08818,5.13184-7.895-.12223-1.28647-1.38945-1.13687-2.72641-.59746a10.004,10.004,0,0,0-4.57564,3.82844l-8.341,12.7105-1.67311-1.15422-1.188,3.19853a23.72429,23.72429,0,0,0-5.5048-2.31176l-2.37721-5.1573a8.59066,8.59066,0,0,0,.75446-13.44915,26.98323,26.98323,0,0,1,4.85895-1.45955s-13.9758-11.64028-20.75586,3.53955c0,0-.00846.15791-.01311.428-.27613.12837-.5385.2561-.75982.34038q-2.87277,1.09392-5.74552,2.18791a8.27961,8.27961,0,0,0-1.22179.54224,7.78553,7.78553,0,0,0-1.61768,1.36849,4.306,4.306,0,0,0-.90257,1.18328,3.02665,3.02665,0,0,0,.50852,2.96389,8.91878,8.91878,0,0,0,2.41629,2.0015q1.216.78552,2.43194,1.57105a3.08078,3.08078,0,0,1,1.60188,1.81c.21808-1.793-.541-3.54188-1.23293-5.21034a3.81367,3.81367,0,0,1-.40421-2.50022,3.58722,3.58722,0,0,1,1.98492-1.903,21.45605,21.45605,0,0,1,3.092-1.2998c.43179,3.89947,2.03352,9.7864,7.69278,10.70343l1.796,3.89636c-1.08059,1.66126-1.29395,4.59538,1.91058,9.74943l7.85613,17.04415s.24524.04239.67272.10142c-.51092,2.56722-1.13871,9.64837,6.61811,12.17137l-3.57432,29.78581s-14.16617,18.46864-11.60861,22.305h.84l-.90921,2.91254-3.25764-.69176-1.46194,6.88429,19.12308,4.06091s1.902-5.192-6.6746-6.2139c0,0-1.52987-.32487-1.04251-2.61963l-2.07675-.441,1.21473-3.89142h.02264s12.22462-13.35359,14.78218-24.86254c1.95615-8.80292,6.15389-25.07575,8.021-32.24661l10.90528-5.02653s7.09045,19.11914,8.39977,21.95981l.35512-.1637,1.473,3.19585-2.13057.982,2.946,6.39157,17.75431-8.18345S461.05733,490.36692,453.57275,494.67785Z" transform="translate(-168 -94.27375)"/></svg>