<svg xmlns="http://www.w3.org/2000/svg" xmlns:xlink="http://www.w3.org/1999/xlink" width="1162" height="709.96" data-name="Layer 1" viewBox="0 0 1162 709.96"><defs><linearGradient id="a" x1="669.51" x2="669.51" y1="506.42" y2="104.12" gradientUnits="userSpaceOnUse"><stop offset="0" stop-color="gray" stop-opacity=".25"/><stop offset=".54" stop-color="gray" stop-opacity=".12"/><stop offset="1" stop-color="gray" stop-opacity=".1"/></linearGradient><linearGradient id="b" x1="193.62" x2="415.84" y1="549.09" y2="549.09" xlink:href="#a"/></defs><title>happy 2019</title><g fill="#6c63ff" opacity=".6"><path d="M777.46,291.2a2,2,0,0,0-3.25,2.32c.37.57.78,1.11,1.17,1.63,4.69,6.34,7.12,14,9.22,21.64.51,1.86,1,3.86.42,5.7a35.55,35.55,0,0,0-1-14.89,92.39,92.39,0,0,0-5.27-14.07A12.87,12.87,0,0,0,777.46,291.2Z" opacity=".5" transform="translate(-19 -95.02)"/><path d="M747,304.53c-3.17-.1-3.57,4.71-.42,5,.83.07,1.66.08,2.46.11,9.7.26,18.86,3.78,27.67,7.56,2.17.93,4.44,2,5.7,3.95a41.68,41.68,0,0,0-14.76-10.46A110.26,110.26,0,0,0,750.24,305,15.55,15.55,0,0,0,747,304.53Z" transform="translate(-19 -95.02)"/><path d="M747.88,316.34c-2,.07-1.55,2.91.47,2.93.52,0,1,0,1.55,0,6.12-.25,12.38,1.44,18.46,3.3a9.48,9.48,0,0,1,4.15,2.08,33.28,33.28,0,0,0-10.79-5.53A82.36,82.36,0,0,0,750,316.49,10.5,10.5,0,0,0,747.88,316.34Z" opacity=".2" transform="translate(-19 -95.02)"/><path d="M788.8,369.17c.57,1.92,3.21.77,2.73-1.18-.13-.51-.28-1-.43-1.5-1.75-5.86-1.67-12.35-1.38-18.69a9.47,9.47,0,0,1,1-4.54A33.43,33.43,0,0,0,788,355.08a82.81,82.81,0,0,0,.41,12A11.34,11.34,0,0,0,788.8,369.17Z" opacity=".5" transform="translate(-19 -95.02)"/><path d="M751.53,288.54c-1.21-.21-1.3,1.54-.1,1.81.32.07.63.12.93.17,3.69.63,7.21,2.44,10.61,4.32a5.75,5.75,0,0,1,2.21,1.77,20.25,20.25,0,0,0-5.74-4.67,49.49,49.49,0,0,0-6.68-3A6.66,6.66,0,0,0,751.53,288.54Z" opacity=".2" transform="translate(-19 -95.02)"/><path d="M732.94,335c-3.05,1.57-.47,5.89,2.67,4.45.82-.37,1.62-.79,2.38-1.19,9.34-4.84,20.18-6.62,30.84-8,2.62-.34,5.41-.64,7.83.4a53.19,53.19,0,0,0-20.42-1.23,134.67,134.67,0,0,0-19.93,4.29A17.15,17.15,0,0,0,732.94,335Z" transform="translate(-19 -95.02)"/><path d="M741.67,351.81c-2.2,2,1.23,4.46,3.53,2.49.6-.51,1.18-1.05,1.72-1.57,6.69-6.28,15.53-10.75,24.33-14.86,2.16-1,11-2.05,13.43-2-6.2.55-18.87,2.49-24.5,5.05a137.24,137.24,0,0,0-16,9A17.1,17.1,0,0,0,741.67,351.81Z" opacity=".5" transform="translate(-19 -95.02)"/><path d="M757.32,378.62c-.64,2.93,3.55,3,4.33,0,.2-.76.37-1.54.53-2.27,1.93-9,6.66-17.67,11.56-26.06,1.2-2.06,7.93-8,9.92-9.27-4.79,4-14.11,12.78-17.28,18.08a135.26,135.26,0,0,0-8,16.46A17.85,17.85,0,0,0,757.32,378.62Z" transform="translate(-19 -95.02)"/><path d="M788.84,275.69c-1.5-3.05-5.77-.54-4.41,2.58.35.82.75,1.62,1.13,2.38,4.6,9.32,6.19,20.08,7.37,30.67.29,2.6.54,5.37-.52,7.76a53,53,0,0,0,1.52-20.22A133.58,133.58,0,0,0,790,279,17.59,17.59,0,0,0,788.84,275.69Z" transform="translate(-19 -95.02)"/><path d="M765,280.87a.46.46,0,0,0,.25.08.46.46,0,0,0,.35-.32c.38-.81.16-1.86.74-2.54a8.88,8.88,0,0,1,1.39,2.33l2.2-.67a3.27,3.27,0,0,1-.42,2.51,3.4,3.4,0,0,1,1,.7,1.14,1.14,0,0,1,.26,1.16,5.71,5.71,0,0,1-1.55.16,10,10,0,0,1-.16,2.88.51.51,0,0,1-.19.36c-.16.11-.37,0-.53-.08a5.13,5.13,0,0,1-1.81-1.92l-.81,2a.88.88,0,0,1-.37.49.59.59,0,0,1-.68-.24,1.7,1.7,0,0,1-.24-.74l-.31-1.85a.38.38,0,0,0-.1-.26.46.46,0,0,0-.32-.1c-.78,0-1.55,0-2.32,0-.14-.41.27-.79.67-1s.86-.3,1.06-.69c.41-.78-.64-1.87-.19-2.55S764.35,280.54,765,280.87Z" transform="translate(-19 -95.02)"/><path d="M807.36,291.2a2,2,0,0,1,3.26,2.32c-.38.57-.78,1.11-1.17,1.63-4.69,6.34-7.13,14-9.22,21.64-.52,1.86-1,3.86-.43,5.7a35.55,35.55,0,0,1,1-14.89,91.35,91.35,0,0,1,5.27-14.07A12.82,12.82,0,0,1,807.36,291.2Z" opacity=".5" transform="translate(-19 -95.02)"/><path d="M837.82,304.53c3.16-.1,3.57,4.71.41,5-.82.07-1.66.08-2.45.11-9.7.26-18.87,3.78-27.68,7.56-2.16.93-4.43,2-5.69,3.95a41.68,41.68,0,0,1,14.76-10.46A110.48,110.48,0,0,1,834.58,305,15.75,15.75,0,0,1,837.82,304.53Z" transform="translate(-19 -95.02)"/><path d="M837,316.34c2,.07,1.54,2.91-.47,2.93-.53,0-1.05,0-1.55,0-6.12-.25-12.38,1.44-18.46,3.3a9.43,9.43,0,0,0-4.15,2.08,33.18,33.18,0,0,1,10.79-5.53,82.36,82.36,0,0,1,11.74-2.59A10.5,10.5,0,0,1,837,316.34Z" opacity=".5" transform="translate(-19 -95.02)"/><path d="M833.3,288.54c1.21-.21,1.3,1.54.1,1.81-.32.07-.63.12-.94.17-3.68.63-7.21,2.44-10.6,4.32a5.75,5.75,0,0,0-2.21,1.77,20.21,20.21,0,0,1,5.73-4.67,50.18,50.18,0,0,1,6.69-3A6.44,6.44,0,0,1,833.3,288.54Z" opacity=".2" transform="translate(-19 -95.02)"/><path d="M802,372.8c-.27,1.2-1.92.6-1.7-.61,0-.31.13-.63.2-.92.84-3.65.53-7.6.11-11.45a5.82,5.82,0,0,0-.79-2.73,20.29,20.29,0,0,1,2.1,7.1,51.5,51.5,0,0,1,.23,7.34A6,6,0,0,1,802,372.8Z" opacity=".2" transform="translate(-19 -95.02)"/><path d="M832.53,364.88c.94,1.59-1.37,1.49-2.38-.11-.27-.42-.51-.83-.75-1.23-2.86-4.88-7.22-9.69-11.61-14.35a16,16,0,0,0-3.59-3.1,56.88,56.88,0,0,1,9.43,8.06c2.82,3,5.3,6,7.74,9.08A15.94,15.94,0,0,1,832.53,364.88Z" opacity=".5" transform="translate(-19 -95.02)"/><path d="M748.89,364.88c-.94,1.59,1.37,1.49,2.39-.11.26-.42.51-.83.74-1.23,2.86-4.88,7.22-9.69,11.61-14.35a16.07,16.07,0,0,1,3.6-3.1,57,57,0,0,0-9.44,8.06c-2.81,3-5.3,6-7.74,9.08A15.94,15.94,0,0,0,748.89,364.88Z" opacity=".2" transform="translate(-19 -95.02)"/><path d="M779.48,372.8c.27,1.2,1.92.6,1.71-.61-.06-.31-.13-.63-.2-.92-.84-3.65-.54-7.6-.11-11.45a5.69,5.69,0,0,1,.78-2.73,20.29,20.29,0,0,0-2.1,7.1,50.06,50.06,0,0,0-.22,7.34A6.77,6.77,0,0,0,779.48,372.8Z" opacity=".2" transform="translate(-19 -95.02)"/><path d="M823.67,300.5c1.2-.2,1.29,1.55.09,1.81l-.93.18c-3.69.63-7.21,2.43-10.61,4.31a5.76,5.76,0,0,0-2.21,1.78,20.28,20.28,0,0,1,5.74-4.68,49.43,49.43,0,0,1,6.68-3A6.56,6.56,0,0,1,823.67,300.5Z" opacity=".2" transform="translate(-19 -95.02)"/><path d="M812.42,277c1-.64,1.78.95.77,1.65l-.8.51c-3.18,2-5.78,4.95-8.23,8a5.69,5.69,0,0,0-1.38,2.47,20.37,20.37,0,0,1,3.57-6.48,50.85,50.85,0,0,1,5.06-5.31A7.1,7.1,0,0,1,812.42,277Z" opacity=".2" transform="translate(-19 -95.02)"/><path d="M851.89,335c3.05,1.57.47,5.89-2.67,4.45-.82-.37-1.62-.79-2.39-1.19-9.33-4.84-20.17-6.62-30.83-8-2.62-.34-5.41-.64-7.83.4a53.15,53.15,0,0,1,20.41-1.23,134.52,134.52,0,0,1,19.94,4.29A17.64,17.64,0,0,1,851.89,335Z" transform="translate(-19 -95.02)"/><path d="M843.16,351.81c2.2,2-1.23,4.46-3.53,2.49-.6-.51-1.18-1.05-1.73-1.57-6.69-6.28-15.52-10.75-24.33-14.86-2.15-1-11.05-2.05-13.42-2,6.2.55,18.86,2.49,24.49,5.05a136.55,136.55,0,0,1,16,9A17.1,17.1,0,0,1,843.16,351.81Z" opacity=".5" transform="translate(-19 -95.02)"/><path d="M817.3,382c.27,3-3.9,2.51-4.3-.5-.1-.78-.17-1.57-.24-2.32-.79-9.14-4.4-18.36-8.21-27.3-.93-2.19-6.87-8.89-8.67-10.44,4.25,4.55,12.39,14.44,14.88,20.11a136.24,136.24,0,0,1,5.92,17.33A16.73,16.73,0,0,1,817.3,382Z" transform="translate(-19 -95.02)"/><path d="M819.8,280.87a.5.5,0,0,1-.26.08c-.16,0-.28-.17-.35-.32-.37-.81-.16-1.86-.73-2.54a8.92,8.92,0,0,0-1.4,2.33l-2.19-.67a3.23,3.23,0,0,0,.42,2.51,3.4,3.4,0,0,0-1,.7,1.15,1.15,0,0,0-.27,1.16,5.8,5.8,0,0,0,1.55.16,10.32,10.32,0,0,0,.17,2.88.51.51,0,0,0,.19.36c.16.11.37,0,.53-.08a5.13,5.13,0,0,0,1.81-1.92l.81,2a.91.91,0,0,0,.36.49.6.6,0,0,0,.69-.24,1.7,1.7,0,0,0,.24-.74l.31-1.85a.38.38,0,0,1,.1-.26.46.46,0,0,1,.32-.1c.77,0,1.55,0,2.32,0,.14-.41-.28-.79-.67-1s-.87-.3-1.07-.69c-.4-.78.65-1.87.2-2.55S820.48,280.54,819.8,280.87Z" transform="translate(-19 -95.02)"/><path d="M826.42,371.21a.48.48,0,0,1-.26.07c-.17,0-.28-.17-.35-.32-.37-.81-.16-1.86-.73-2.54a8.56,8.56,0,0,0-1.4,2.34l-2.19-.68a3.26,3.26,0,0,0,.41,2.51,3.48,3.48,0,0,0-1,.7,1.15,1.15,0,0,0-.27,1.16,5.42,5.42,0,0,0,1.55.16,10.32,10.32,0,0,0,.16,2.88.56.56,0,0,0,.19.37c.16.1.37,0,.54-.09a5.18,5.18,0,0,0,1.8-1.92l.82,1.95a.86.86,0,0,0,.36.49.57.57,0,0,0,.68-.24,1.71,1.71,0,0,0,.25-.74l.3-1.85a.55.55,0,0,1,.1-.26.52.52,0,0,1,.33-.1c.77,0,1.55,0,2.32,0,.13-.41-.28-.79-.67-1s-.87-.3-1.07-.68c-.4-.79.64-1.88.2-2.55S827.1,370.87,826.42,371.21Z" opacity=".2" transform="translate(-19 -95.02)"/><path d="M845,310.66a.51.51,0,0,1-.26.07c-.17,0-.28-.17-.35-.32-.38-.81-.16-1.86-.74-2.54a8.78,8.78,0,0,0-1.39,2.34l-2.2-.68a3.27,3.27,0,0,0,.42,2.51,3.35,3.35,0,0,0-1,.7,1.15,1.15,0,0,0-.27,1.16,5.38,5.38,0,0,0,1.55.16,10.32,10.32,0,0,0,.16,2.88.56.56,0,0,0,.19.37.52.52,0,0,0,.53-.09,5.13,5.13,0,0,0,1.81-1.92l.82,1.95a.86.86,0,0,0,.36.49.57.57,0,0,0,.68-.24,1.58,1.58,0,0,0,.24-.74l.31-1.85a.38.38,0,0,1,.1-.26.51.51,0,0,1,.32-.1c.78,0,1.55,0,2.33,0,.13-.41-.28-.79-.68-1s-.86-.3-1.06-.68c-.41-.79.64-1.88.2-2.55S845.68,310.32,845,310.66Z" transform="translate(-19 -95.02)"/><path d="M770.69,380.27a.75.75,0,0,1-.36.1c-.23,0-.39-.23-.49-.44-.52-1.13-.22-2.6-1-3.55a12.24,12.24,0,0,0-1.94,3.26l-3.06-.95a4.54,4.54,0,0,0,.58,3.5,5,5,0,0,0-1.44,1,1.61,1.61,0,0,0-.38,1.62,8.3,8.3,0,0,0,2.16.22,14.58,14.58,0,0,0,.23,4,.57.57,0,0,0,1,.39,7.18,7.18,0,0,0,2.52-2.67l1.13,2.72a1.25,1.25,0,0,0,.51.68.83.83,0,0,0,1-.33,2.33,2.33,0,0,0,.34-1l.42-2.59a.65.65,0,0,1,.15-.36.59.59,0,0,1,.45-.13c1.08,0,2.15,0,3.23,0,.19-.58-.39-1.11-.94-1.35s-1.2-.43-1.48-1c-.56-1.09.89-2.61.27-3.55C772.81,378.71,771.64,379.8,770.69,380.27Z" transform="translate(-19 -95.02)"/><path d="M739.77,312.46a.66.66,0,0,1-.36.11c-.23,0-.39-.23-.49-.44-.52-1.13-.22-2.6-1-3.55a12.08,12.08,0,0,0-1.94,3.26l-3.06-.95a4.54,4.54,0,0,0,.58,3.5,4.77,4.77,0,0,0-1.44,1,1.59,1.59,0,0,0-.37,1.62,7.78,7.78,0,0,0,2.15.21,14.65,14.65,0,0,0,.23,4,.76.76,0,0,0,.27.51.73.73,0,0,0,.74-.12,7.18,7.18,0,0,0,2.52-2.67l1.13,2.71a1.23,1.23,0,0,0,.51.68.8.8,0,0,0,.95-.33,2.29,2.29,0,0,0,.34-1l.42-2.58a.71.71,0,0,1,.15-.37.63.63,0,0,1,.45-.12c1.08,0,2.15,0,3.23,0,.19-.57-.38-1.1-.94-1.35s-1.2-.42-1.48-.95c-.56-1.1.89-2.62.28-3.56S740.72,312,739.77,312.46Z" transform="translate(-19 -95.02)"/><path d="M833.59,354.45a.42.42,0,0,1-.19.06c-.12,0-.21-.13-.26-.24-.27-.6-.11-1.38-.54-1.88a6.45,6.45,0,0,0-1,1.73l-1.63-.5a2.44,2.44,0,0,0,.31,1.86,2.24,2.24,0,0,0-.76.52.83.83,0,0,0-.2.85,4,4,0,0,0,1.14.12,7.26,7.26,0,0,0,.13,2.13.38.38,0,0,0,.14.27c.11.08.27,0,.39-.06a3.8,3.8,0,0,0,1.34-1.42l.6,1.44a.62.62,0,0,0,.27.36.42.42,0,0,0,.51-.17A1.49,1.49,0,0,0,834,359l.22-1.37a.27.27,0,0,1,.32-.26c.57,0,1.14,0,1.71,0,.1-.3-.2-.59-.49-.72s-.65-.22-.79-.51c-.3-.58.47-1.38.14-1.88S834.1,354.2,833.59,354.45Z" opacity=".2" transform="translate(-19 -95.02)"/><path d="M791.59,378.7a.42.42,0,0,1-.19.06c-.12,0-.21-.13-.26-.24-.27-.6-.11-1.38-.54-1.88a6.29,6.29,0,0,0-1,1.73l-1.63-.51a2.43,2.43,0,0,0,.31,1.86,2.56,2.56,0,0,0-.76.52.85.85,0,0,0-.2.86,4.38,4.38,0,0,0,1.14.12,7.26,7.26,0,0,0,.13,2.13.41.41,0,0,0,.13.27c.12.08.28,0,.4-.06a3.8,3.8,0,0,0,1.34-1.42l.6,1.44a.62.62,0,0,0,.27.36.43.43,0,0,0,.51-.17,1.31,1.31,0,0,0,.17-.55l.23-1.37a.36.36,0,0,1,.08-.2.32.32,0,0,1,.24-.06c.57,0,1.14,0,1.71,0,.1-.31-.2-.59-.49-.72s-.65-.22-.79-.51c-.3-.58.47-1.38.14-1.88S792.09,378.45,791.59,378.7Z" opacity=".2" transform="translate(-19 -95.02)"/><path d="M751,293.83a.34.34,0,0,1-.19.05c-.13,0-.21-.12-.26-.23-.28-.6-.12-1.38-.55-1.89a6.6,6.6,0,0,0-1,1.73l-1.62-.5a2.38,2.38,0,0,0,.3,1.86,2.51,2.51,0,0,0-.76.52.84.84,0,0,0-.2.86,4,4,0,0,0,1.15.11,7.66,7.66,0,0,0,.12,2.14.4.4,0,0,0,.14.27.38.38,0,0,0,.39-.07,3.78,3.78,0,0,0,1.34-1.41l.6,1.44a.66.66,0,0,0,.27.36.44.44,0,0,0,.51-.18,1.24,1.24,0,0,0,.18-.54l.22-1.38a.36.36,0,0,1,.08-.19.33.33,0,0,1,.24-.07l1.72,0c.09-.3-.21-.58-.5-.71s-.64-.23-.79-.51c-.3-.58.47-1.39.15-1.89S751.45,293.58,751,293.83Z" opacity=".5" transform="translate(-19 -95.02)"/><path d="M772.58,341.65a.33.33,0,0,1-.19.06.35.35,0,0,1-.26-.23c-.28-.6-.12-1.38-.54-1.89a6.38,6.38,0,0,0-1,1.73l-1.62-.5a2.39,2.39,0,0,0,.31,1.86,2.55,2.55,0,0,0-.77.52.86.86,0,0,0-.2.86,4,4,0,0,0,1.15.11,7.68,7.68,0,0,0,.12,2.14.3.3,0,0,0,.54.2,3.75,3.75,0,0,0,1.33-1.41l.61,1.44a.66.66,0,0,0,.27.36.43.43,0,0,0,.5-.18,1.12,1.12,0,0,0,.18-.54l.23-1.38a.32.32,0,0,1,.07-.19.34.34,0,0,1,.24-.07c.57,0,1.15,0,1.72,0,.1-.3-.21-.58-.5-.71s-.64-.23-.79-.51c-.29-.58.48-1.39.15-1.89S773.08,341.41,772.58,341.65Z" opacity=".5" transform="translate(-19 -95.02)"/><path d="M756.88,323a.42.42,0,0,1-.19.06c-.12,0-.21-.13-.26-.24-.28-.6-.12-1.38-.54-1.88a6.09,6.09,0,0,0-1,1.73l-1.62-.51a2.39,2.39,0,0,0,.31,1.86,2.75,2.75,0,0,0-.77.52.87.87,0,0,0-.2.86,4.45,4.45,0,0,0,1.15.12,7.61,7.61,0,0,0,.12,2.13.38.38,0,0,0,.14.27c.12.08.28,0,.4-.06a3.78,3.78,0,0,0,1.33-1.42l.61,1.44a.62.62,0,0,0,.27.36.41.41,0,0,0,.5-.17,1.32,1.32,0,0,0,.18-.55l.23-1.37a.35.35,0,0,1,.07-.2.34.34,0,0,1,.24-.06c.57,0,1.15,0,1.72,0,.1-.31-.21-.59-.5-.72s-.64-.22-.79-.51c-.3-.58.48-1.38.15-1.88S757.38,322.76,756.88,323Z" opacity=".5" transform="translate(-19 -95.02)"/><path d="M824.32,327.4a.47.47,0,0,1-.19.06c-.13,0-.21-.13-.26-.24-.28-.6-.12-1.38-.55-1.88a6.29,6.29,0,0,0-1,1.73l-1.62-.51a2.38,2.38,0,0,0,.3,1.86,2.7,2.7,0,0,0-.76.52.85.85,0,0,0-.2.86,4.41,4.41,0,0,0,1.15.12,7.61,7.61,0,0,0,.12,2.13.38.38,0,0,0,.14.27c.12.08.27,0,.39-.06a3.8,3.8,0,0,0,1.34-1.42l.6,1.44a.62.62,0,0,0,.27.36.42.42,0,0,0,.51-.17,1.32,1.32,0,0,0,.18-.55l.22-1.37a.36.36,0,0,1,.08-.2.32.32,0,0,1,.24-.06c.57,0,1.14,0,1.72,0,.09-.31-.21-.59-.5-.72s-.64-.22-.79-.51c-.3-.58.47-1.38.15-1.88S824.82,327.15,824.32,327.4Z" opacity=".5" transform="translate(-19 -95.02)"/><path d="M791.59,323.73a.42.42,0,0,1-.19.06c-.12,0-.21-.13-.26-.24-.27-.6-.11-1.38-.54-1.88a6.45,6.45,0,0,0-1,1.73l-1.63-.5a2.44,2.44,0,0,0,.31,1.86,2.24,2.24,0,0,0-.76.52.83.83,0,0,0-.2.85,4,4,0,0,0,1.14.12,7.26,7.26,0,0,0,.13,2.13.41.41,0,0,0,.13.27c.12.08.28,0,.4-.06a3.8,3.8,0,0,0,1.34-1.42l.6,1.44a.59.59,0,0,0,.27.36.43.43,0,0,0,.51-.17,1.31,1.31,0,0,0,.17-.55l.23-1.37a.27.27,0,0,1,.32-.26c.57,0,1.14,0,1.71,0,.1-.3-.2-.59-.49-.72s-.65-.22-.79-.51c-.3-.58.47-1.38.14-1.88S792.09,323.48,791.59,323.73Z" opacity=".2" transform="translate(-19 -95.02)"/><path d="M781.33,328.2a.51.51,0,0,1-.2.06c-.12,0-.2-.13-.26-.24-.27-.6-.11-1.38-.54-1.89a6.5,6.5,0,0,0-1,1.74l-1.63-.51a2.43,2.43,0,0,0,.31,1.86,2.51,2.51,0,0,0-.76.52.84.84,0,0,0-.2.86,4.38,4.38,0,0,0,1.14.12,7.62,7.62,0,0,0,.13,2.13.4.4,0,0,0,.14.27c.12.08.27,0,.39-.06a3.8,3.8,0,0,0,1.34-1.42l.6,1.44a.62.62,0,0,0,.27.36.45.45,0,0,0,.51-.17,1.49,1.49,0,0,0,.18-.55l.22-1.37a.36.36,0,0,1,.08-.2.38.38,0,0,1,.24-.07c.57,0,1.14,0,1.72,0,.09-.31-.21-.59-.5-.72s-.64-.22-.79-.51c-.3-.58.47-1.39.14-1.89S781.83,328,781.33,328.2Z" opacity=".3" transform="translate(-19 -95.02)"/><path d="M771.75,301.16a.42.42,0,0,1-.19.06.35.35,0,0,1-.26-.24c-.27-.6-.11-1.37-.54-1.88a6.45,6.45,0,0,0-1,1.73l-1.63-.5a2.44,2.44,0,0,0,.31,1.86,2.39,2.39,0,0,0-.76.52.84.84,0,0,0-.2.86,4,4,0,0,0,1.14.11,7.26,7.26,0,0,0,.13,2.13.43.43,0,0,0,.13.28c.12.07.28,0,.4-.07a3.73,3.73,0,0,0,1.34-1.42l.6,1.45a.66.66,0,0,0,.27.36.45.45,0,0,0,.51-.18,1.23,1.23,0,0,0,.17-.54l.23-1.38a.27.27,0,0,1,.32-.26c.57,0,1.14,0,1.71,0,.1-.3-.2-.59-.49-.71s-.65-.23-.79-.51c-.3-.58.47-1.39.14-1.89S772.25,300.92,771.75,301.16Z" opacity=".2" transform="translate(-19 -95.02)"/><path d="M790.61,336.44a.47.47,0,0,1-.19.06c-.13,0-.21-.13-.26-.24-.28-.6-.12-1.38-.55-1.88a6.45,6.45,0,0,0-1,1.73l-1.62-.5a2.44,2.44,0,0,0,.3,1.86,2.45,2.45,0,0,0-.76.52.84.84,0,0,0-.2.86,4,4,0,0,0,1.15.11,7.61,7.61,0,0,0,.12,2.13.36.36,0,0,0,.14.27c.12.08.27,0,.39-.06a3.8,3.8,0,0,0,1.34-1.42l.6,1.44a.59.59,0,0,0,.27.36.42.42,0,0,0,.51-.17A1.32,1.32,0,0,0,791,341l.22-1.37a.41.41,0,0,1,.08-.19.33.33,0,0,1,.24-.07c.57,0,1.15,0,1.72,0,.1-.3-.21-.59-.5-.72s-.64-.22-.79-.5c-.3-.59.48-1.39.15-1.89S791.11,336.19,790.61,336.44Z" opacity=".3" transform="translate(-19 -95.02)"/></g><ellipse cx="581" cy="686.97" fill="#3f3d56" rx="581" ry="22.99"/><ellipse cx="581" cy="686.97" opacity=".1" rx="581" ry="22.99"/><ellipse cx="581" cy="675.48" fill="#3f3d56" rx="581" ry="22.99"/><path fill="#6c63ff" d="M99.75,536.13l61.19,9.34s0-68.08,53.85-53.4c26.92,7.34,31.82,26.92,30,44.67a74.19,74.19,0,0,1-22.11,45C186.92,616.91,82.25,725.16,92.41,776H305.35V717.24H181.75S400.84,533.59,261.51,452c-24.52-14.35-53.22-20.55-81.18-15.41C147,442.72,107.33,465.22,99.75,536.13Z" transform="translate(-19 -95.02)"/><path d="M99.75,536.13l61.19,9.34s0-68.08,53.85-53.4c26.92,7.34,31.82,26.92,30,44.67a74.19,74.19,0,0,1-22.11,45C186.92,616.91,82.25,725.16,92.41,776H305.35V717.24H181.75S400.84,533.59,261.51,452c-24.52-14.35-53.22-20.55-81.18-15.41C147,442.72,107.33,465.22,99.75,536.13Z" opacity=".1" transform="translate(-19 -95.02)"/><path fill="#6c63ff" d="M84.75,536.13l61.19,7.34s0-66.08,53.85-51.4c26.92,7.34,31.82,26.92,30,44.67a74.19,74.19,0,0,1-22.11,45C171.92,616.91,67.25,725.16,77.41,776H290.35V717.24H166.75S385.84,533.59,246.51,452c-24.52-14.35-53.22-20.55-81.18-15.41C132,442.72,92.33,465.22,84.75,536.13Z" transform="translate(-19 -95.02)"/><path fill="#6c63ff" d="M504.82,434.55c-37.85,0-105.24,17.14-105.24,171.33,0,151.75,67.39,171.33,105.24,171.33S612.51,765,612.51,610.78C612.51,446.79,542.67,434.55,504.82,434.55Zm.41,285.55c-25.23,0-39.57-13.05-39.57-114.22,0-102.79,14.34-114.22,39.57-114.22s43.65,9.79,43.65,119.12C548.88,713.57,530.46,720.1,505.23,720.1Z" transform="translate(-19 -95.02)"/><path d="M504.82,434.55c-37.85,0-105.24,17.14-105.24,171.33,0,151.75,67.39,171.33,105.24,171.33S612.51,765,612.51,610.78C612.51,446.79,542.67,434.55,504.82,434.55Zm.41,285.55c-25.23,0-39.57-13.05-39.57-114.22,0-102.79,14.34-114.22,39.57-114.22s43.65,9.79,43.65,119.12C548.88,713.57,530.46,720.1,505.23,720.1Z" opacity=".1" transform="translate(-19 -95.02)"/><path fill="#6c63ff" d="M489.82,434.55c-37.85,0-105.24,17.14-105.24,171.33,0,151.75,67.39,171.33,105.24,171.33S597.51,765,597.51,610.78C597.51,446.79,527.67,434.55,489.82,434.55Zm.41,285.55c-25.23,0-39.57-13.05-39.57-114.22,0-102.79,14.34-114.22,39.57-114.22s43.65,9.79,43.65,119.12C533.88,713.57,515.46,720.1,490.23,720.1Z" transform="translate(-19 -95.02)"/><path fill="#6c63ff" d="M698.52,521.44s73.43-19.58,97.9-85.66h51.4V778.43H781.74V531.23s-49.27,46.5-98.22,48.95Z" transform="translate(-19 -95.02)"/><path d="M698.52,521.44s73.43-19.58,97.9-85.66h51.4V778.43H781.74V531.23s-49.27,46.5-98.22,48.95Z" opacity=".1" transform="translate(-19 -95.02)"/><path fill="#6c63ff" d="M683.52,521.44s73.43-19.58,97.9-85.66h51.4V778.43H766.74V531.23s-34.27,46.5-83.22,48.95Z" transform="translate(-19 -95.02)"/><path fill="#6c63ff" d="M1152,654.83V547.14c0-62.18-43.06-112.59-105.24-112.59S944,485,944,547.14s40.62,112.59,102.8,112.59A103.7,103.7,0,0,0,1092,649.66c-3,26.23-12.73,70.28-45.23,73.7,0,0-34.27,2.9-36.71-38.71l-61.19,6.9S963.53,791.89,1059,774.76,1152,654.83,1152,654.83Zm-104.68-46.76c-33.65,0-42.17-27.28-42.17-60.93s.62-56.29,34.27-56.29,48.95,22.64,48.95,56.29S1081,608.07,1047.31,608.07Z" transform="translate(-19 -95.02)"/><path d="M1152,654.83V547.14c0-62.18-43.06-112.59-105.24-112.59S944,485,944,547.14s40.62,112.59,102.8,112.59A103.7,103.7,0,0,0,1092,649.66c-3,26.23-12.73,70.28-45.23,73.7,0,0-34.27,2.9-36.71-38.71l-61.19,6.9S963.53,791.89,1059,774.76,1152,654.83,1152,654.83Zm-104.68-46.76c-33.65,0-42.17-27.28-42.17-60.93s.62-56.29,34.27-56.29,48.95,22.64,48.95,56.29S1081,608.07,1047.31,608.07Z" opacity=".1" transform="translate(-19 -95.02)"/><path fill="#6c63ff" d="M1137,654.83V547.14c0-62.18-43.06-112.59-105.24-112.59S929,485,929,547.14s40.62,112.59,102.8,112.59A103.7,103.7,0,0,0,1077,649.66c-3,26.23-12.73,70.28-45.23,73.7,0,0-34.27,4.9-36.71-36.71l-61.19,4.9S948.53,791.89,1044,774.76,1137,654.83,1137,654.83Zm-104.68-46.76c-33.65,0-42.17-27.28-42.17-60.93s.62-56.29,34.27-56.29,48.95,22.64,48.95,56.29S1066,608.07,1032.31,608.07Z" transform="translate(-19 -95.02)"/><path fill="url(#a)" d="M795.28,321.44a11,11,0,0,0-4.88-2.15c-1.87-.43-3.78-.7-5.68-1l-24.62-3.55a29,29,0,0,0-7.54-.4,9.57,9.57,0,0,0-6.55,3.38,5.12,5.12,0,0,0-1.14,3.21,8.45,8.45,0,0,0,1.12,3.31,11.82,11.82,0,0,1,.61,1.48c.35,1.1.42,2.28.88,3.35a3,3,0,0,0,.42.65,1.21,1.21,0,0,1,0,.18c-.27,1.37.6,2.81.21,4.15-.34,1.13-1.45,1.82-2.15,2.77a4.19,4.19,0,0,0-.1,4.62c.75,1.16,2.11,1.94,2.5,3.27.51,1.76-.87,3.44-2.1,4.79a75.25,75.25,0,0,0-6.26,7.89,5,5,0,0,0-1,2.35c-.11,1.74,1.56,3.28,1.27,5-.23,1.36-1.56,2.2-2.71,3-4.25,2.81-7.66,7.31-8,12.39a43.33,43.33,0,0,0-9.68-22c-1.43-1.73-3-3.45-3.59-5.64-.22-.87-.26-1.79-.56-2.63-1-2.66-4.18-3.79-5.57-6.24-1-1.71-1-3.93-2.24-5.43s-3.19-1.86-4.26-3.32a20.71,20.71,0,0,1-1.36-3.08,6.69,6.69,0,0,0-1.85-2.21,5.48,5.48,0,0,0-.46-.34,1.59,1.59,0,0,0,.53-1.18c0-1.17-1.16-1.94-2.17-2.51q-1.95-1.12-3.81-2.37a8.94,8.94,0,0,0,3.41-2.8,9.15,9.15,0,0,0,1.3-6.05,7.57,7.57,0,0,0-1.79-4.59c-.63-.66-1.42-1.15-2.08-1.78-1.71-1.66-2.29-4.14-3-6.42-.94-3-2.41-6.14-5.15-7.74-1.32-.76-2.86-1.12-4.15-1.93s-2.37-2.35-1.92-3.82c.3-1,1.23-1.68,1.86-2.53a5.06,5.06,0,0,0-1.27-7c-.74-.47-1.65-.88-1.8-1.75a3.16,3.16,0,0,1-2.32-2.46,9.48,9.48,0,0,1,0-3.56c.26-1.85.52-3.71.77-5.56a3.58,3.58,0,0,0,2.78,0,25.4,25.4,0,0,0,3,3.92,39.12,39.12,0,0,1,7,12.14c.57,1.61,1.15,3.4,2.63,4.24.51.29,1.09.44,1.59.75a5.94,5.94,0,0,1,1.56,1.6l3.59,4.76.06.25a1.46,1.46,0,0,0,.16.39,1.33,1.33,0,0,0,.86.44c3.68.85,7.81,1.63,11-.37,2.88-1.81,4.14-5.36,6.58-7.75,1.73-1.69,4.18-3,4.67-5.37a17.77,17.77,0,0,1-1.72-.64c.5-.5,1-1.07,1.68-1.74a21.1,21.1,0,0,0,2.66-3.16,20.85,20.85,0,0,0,2-4.48q2.89-8.25,5.8-16.49c.92-2.61,1.84-5.22,3-7.75,1.2-2.74,2.62-5.38,3.93-8.07A106.92,106.92,0,0,0,749,216.06a8.11,8.11,0,0,0,.31-3.2c-.28-1.73-1.59-3.08-2.84-4.32a20.84,20.84,0,0,0-4.26-3.53,7,7,0,0,0-5.34-.86c-2.56.76-4.17,3.38-4.76,6s-.37,5.34-.62,8c-.36,3.85-1.68,7.56-2,11.42-.17,2.24,0,4.5-.27,6.72a24.5,24.5,0,0,1-3,8.29,53.56,53.56,0,0,1-12.93,15.93c-.61.52-1.24,1-1.84,1.56,0-.44.07-.87.13-1.3a7.85,7.85,0,0,0-1.27.44,3.74,3.74,0,0,0-.15-1.49c-.8-2.39-4.36-3-5-5.44a11,11,0,0,1-.17-1.82c-.21-2.13-1.66-3.93-2.16-6s-.11-4-1-5.78a16.45,16.45,0,0,0-2.66-3,11.77,11.77,0,0,1-2.53-4.77c-.13-.49-.25-1-.39-1.49a6.77,6.77,0,0,0-.36-3.28c-.91-2.27-3.26-3.72-4.11-6-.66-1.77-.37-4-1.62-5.38a5.73,5.73,0,0,0-2.37-1.42A52,52,0,0,0,673.52,212c-2.74-.25-5.76-.4-7.72-2.32-2.29-2.24-2.4-6.27-5.08-8-2.36-1.53-5.7-.39-7.53,1.75a9.53,9.53,0,0,0-.76,1,10.66,10.66,0,0,1-.21-4.09c0-.35.07-.7.1-1a20,20,0,0,0,10.84-8.52l0,.05.12.31c.29.73.75,1.44,1.43,1.51h0a1.92,1.92,0,0,0,1.24-.45,9.8,9.8,0,0,0,1.66-1.44c.25-.27.49-.56.72-.86a12.06,12.06,0,0,0,2.22-5.31c.18-1.16.2-2.36.4-3.51a21.76,21.76,0,0,1,.73-2.66c.1-.29.2-.58.29-.87s.22-.68.32-1a23.11,23.11,0,0,0,1-6.34q0-.54,0-1.08a10.57,10.57,0,0,0-3.36-7.45c-1.72-1.4-4-2-5.26-3.9-.82-1.29-1-2.94-1.48-4.43a10,10,0,0,0-7.86-7.08,8.71,8.71,0,0,0-6.22,1.72h0l-.14.1h0a10,10,0,0,0-2.48,2.76,8.25,8.25,0,0,1-3.52-2c-1-.93-1.77-2.1-2.78-3a7.15,7.15,0,0,0-7.12-1.5,8.51,8.51,0,0,0-5.09,5.83c-.55,2.07-.45,4.43-1.6,6.16-.89,1.33-2.35,2-3.37,3.22a6,6,0,0,0-1.26,2.67h0a7.09,7.09,0,0,0-.17,1.66v0c0,.24,0,.49.06.74,0,0,0,.08,0,.11a5.68,5.68,0,0,0,.17.82h0a7,7,0,0,0,1.49,2.74,6.67,6.67,0,0,0,2.41,1.73,9.76,9.76,0,0,0,1.16.37l1.19.27.42.1a20,20,0,0,0-.56,17.62c0,.27-.07.55-.1.83a69.33,69.33,0,0,0,.52,11.8c.14,1.54.22,3.26-.73,4.48a8.58,8.58,0,0,1-1.45,1.3c.54-.7,1.09-1.4,1.65-2.09-1.41-1.42-3.64-1.6-5.64-1.45a25.85,25.85,0,0,0-11,3.36c-2.24,1.28-4.54,3-7.1,2.69-1.51-.16-3-1-4.47-.6a9.06,9.06,0,0,0-2.29,1.36,3.17,3.17,0,0,1-1.88.59c-1.57-1.94-4-3.25-5.88-4.82a45.74,45.74,0,0,1-5.85-6.27c-3.24-3.9-6.47-7.82-9.65-11.77-2.68-3.32-5.43-6.92-5.9-11.17a10.64,10.64,0,0,1-.07-1.26,32.41,32.41,0,0,1,.76-6,2.93,2.93,0,0,0,0-1.44c-.3-1-1.45-1.38-2.44-1.6h0a23,23,0,0,0,.27-2.31c.56-8.6-.05-17.34,1.77-25.76.69-3.23,1.82-6.52,4.15-8.87,3.65-3.68,9.76-4.57,12.56-9,2.34-3.64,1.41-8.79-1.53-12s-7.47-4.52-11.78-4.36a6.17,6.17,0,0,0-3.43.93,7.26,7.26,0,0,0-2.08,3.15L562,118.52a63.08,63.08,0,0,0-3.14,8.38c-1.2,4.39-1.47,9-2.42,13.42,0,3.4-2.19,7.64-3.39,10.77-1.34,3.53-2.79,7-4,10.59-.3.91-1.35,3.58-2,6a3.6,3.6,0,0,0-.68.5,18.09,18.09,0,0,0-1.42,2.11c-.91,1.21-2.39,1.85-3.39,3s-1.21,3.29.18,3.87a4.08,4.08,0,0,0,.87.19,3.38,3.38,0,0,1,.54.09c1.5.42,2.09,2.32,1.87,3.87s-1,3-1.13,4.56c-.27,2.77,1.35,5.33,2.91,7.65a66.06,66.06,0,0,0,5.34,7.2c1.41,1.57,3,3,4.42,4.52,5.41,5.55,9.71,12.06,14.57,18.09a40.2,40.2,0,0,0,5.93,6.23,46.28,46.28,0,0,0,4.49,3.08c2.78,1.78,5.57,3.54,8.36,5.31a9.14,9.14,0,0,0,3.16,1.48,3.83,3.83,0,0,0,1.12,0c.05.24.09.49.15.73.65,2.62,2.08,5,2.24,7.67s-.08,5.41.11,8.1c.18,2.5.73,5,.87,7.46.28,4.71-.88,9.38-2,14-1.69,6.75-2.71,13.66-6,19.78-.92,1.69-2,3.42-2,5.34,0,.24,0,.47.06.7h0l-1.5.84c-.44.26-.88.51-1.28.77-1.9,1.23-3.93,2.6-4.71,4.74-.63,1.73-.34,3.72-1.1,5.39a1.55,1.55,0,0,1-.12.22c-.8,1.56-2.39,2.72-2.75,4.43v0c-.27,1.32.25,2.7,0,4,0,0,0,0,0,.05a14.84,14.84,0,0,0-.54,2,2.39,2.39,0,0,0,.06.66,3.77,3.77,0,0,0,1.2,1.95,8,8,0,0,0,1.17.93c.43.28.87.54,1.32.79l.26.14c.38.2.76.38,1.15.56l.26.12c.45.19.91.37,1.37.53l.32.1c.36.12.73.23,1.1.33l.25.07.23.05,1,.21.37.07q.66.12,1.35.18c.13,0,.27,0,.4,0,.34,0,.67.05,1,.06h.47c.35,0,.69,0,1,0l.36,0c.47,0,.94-.07,1.41-.13l.15,0c.42-.06.84-.13,1.26-.22l.32-.07c.39-.08.78-.18,1.17-.29l.21-.06c.47-.14.94-.3,1.4-.47a38.15,38.15,0,0,0,4.62-2.29c1-.56,2-1.12,3-1.63a23.22,23.22,0,0,1,2.28-1,12.75,12.75,0,0,1,6-1,23.54,23.54,0,0,1,3,.62,3.06,3.06,0,0,1,0,.32q1.22,7.22,2.41,14.41a28.4,28.4,0,0,1,4.14-2.49,9.14,9.14,0,0,0-.53,2.24,9,9,0,0,0,0,1.8c.09.94.29,2-.28,2.74-.35.47-1,.73-1.19,1.25a4.18,4.18,0,0,0-.1,1.62,2.61,2.61,0,0,1-2.38,2.43,3.81,3.81,0,0,1-1.51,4.46,5.62,5.62,0,0,0-1.16.75,3.46,3.46,0,0,0-.67,1.51,26.67,26.67,0,0,1-7.83,12.87,25.64,25.64,0,0,0-3.87,3.78,17.76,17.76,0,0,0-1.75,3.45q-4,9.79-8.12,19.58c-1.52,3.65-3,7.36-3.48,11.29-1.2,10.77-10.8,19.91-9,30.61a15.07,15.07,0,0,0,3.12,7.32c2,2.4,5,3.79,8,4.91,7.71,3,15.84,4.63,23.94,6.28l12.72,2.61a55.6,55.6,0,0,0,7.58,1.2c3.07.21,6.22-.08,9.21.7,1.85.49,3.62,1.38,5.53,1.48,1.64.09,3.66-.26,4.63,1.07s.22,3.12,1.14,4.3c1.48,1.9,5.09,0,6.7,1.79a8.22,8.22,0,0,1,1,2.2,4,4,0,0,0,1,1.26,8.54,8.54,0,0,1,.12,1.72,29.52,29.52,0,0,1-1.44,6.81q-1.8,6.09-3.59,12.19a27.25,27.25,0,0,0-1,4.4,10.59,10.59,0,0,0,0,2.18c.21,2.21,1.48,4.49,3.59,5.21a6.58,6.58,0,0,0,4.86-.6,21,21,0,0,0,4-2.7,27.31,27.31,0,0,0,5.77-5.94c5-7.48,3.38-17.59,6.89-25.86,2.33-5.53,6.87-10,8.38-15.83a6.32,6.32,0,0,0,.12-3.42c-.63-2-2.76-3.14-4.75-3.86l-.09,0a39.25,39.25,0,0,0-5-1.42c-.42-.09-.85-.17-1.28-.23a8,8,0,0,1-2.21-2.89,6.63,6.63,0,0,0-.47-1.72,1.81,1.81,0,0,0-1.44-.81c-1-.1-2.34.27-3.43.19-2.23-.17-3.71-2.36-5.71-3.36s-4.17-.76-6.3-.61a5.83,5.83,0,0,1-2.28-.14,8.83,8.83,0,0,1-2.4-1.66,10.06,10.06,0,0,0-8.81-1.76,9.58,9.58,0,0,1-3,.67c-1.95-.1-3.33-1.85-4.77-3.17-3.94-3.61-9.55-4.56-14.33-6.93a3.27,3.27,0,0,1-1.72-1.48c-.55-1.35.69-2.72,1.81-3.65l8.22-6.82c9-7.48,20.25-13.12,24.43-24.08a13.7,13.7,0,0,1,2-4.11,5.58,5.58,0,0,1,1.11-1,8.36,8.36,0,0,1,6.15-1.21,21,21,0,0,1,7.24,3.16c3.58,2.18,7.06,4.49,10.45,7A89.94,89.94,0,0,1,695,399.7c5.25,5,9.62,10.92,14.51,16.31s10.48,10.42,17.27,13,15,2.46,20.83-1.87c6.73-5,8.89-13.93,10.59-22.13,3.75-3.63,4.88-9.13,6.71-14,1.15-3.08,2.62-6,3.86-9.08,1.48-3.62,2.64-7.35,3.8-11.08a53.33,53.33,0,0,0,2.66-11.57c.48-6.24-1.19-12.86.56-18.72,2.31-.51,4.41-1.81,6.68-2.56,3.38-1.12,7-.94,10.58-.91h.23a5.47,5.47,0,0,0,3.52-.84c1.2-1,1.39-2.7,1.45-4.26C798.39,328.21,798.15,323.91,795.28,321.44ZM650.39,150.85a7.43,7.43,0,0,1-2.53.18Z" transform="translate(-19 -95.02)"/><path fill="#be6f72" d="M654.33,214.12a11,11,0,0,1-4.16,2.21l-7.09,2.54c-3.85,1.38-7.87,2.77-11.93,2.27-2.27-.28-12-1.71-13.47-3.48-2.24-2.74,5.61-6.77,8.29-9.08a11.34,11.34,0,0,0,1.68-1.48c1-1.22.87-2.93.73-4.47a69,69,0,0,1-.52-11.77,23.72,23.72,0,0,1,.4-2.79c1-4.6,5.28-2.92,8.66-1.7a67.71,67.71,0,0,1,11.75,5.09,8.43,8.43,0,0,1,2.9,2.46c1.48,2.24.89,5.18.65,8-.21,2.19-.2,4.29,1.17,5.88a15.14,15.14,0,0,1,1.89,2A3.75,3.75,0,0,1,654.33,214.12Z" transform="translate(-19 -95.02)"/><path fill="#be6f72" d="M556.39,142.05c1-4.44,1.22-9,2.42-13.39A62.82,62.82,0,0,1,562,120.3L566.36,110a7.23,7.23,0,0,1,2.08-3.14,6.17,6.17,0,0,1,3.43-.93c4.31-.16,8.84,1.19,11.78,4.35s3.87,8.31,1.53,11.94c-2.8,4.36-8.91,5.25-12.56,8.93-2.33,2.34-3.46,5.61-4.15,8.84-1.82,8.4-1.21,17.12-1.77,25.7-.18,2.66-.7,5.71-3,7.1a8.85,8.85,0,0,1-4.48.87l-6.56.1c-1.1,0-5.09.69-5.82-.13-1.28-1.46,1.64-8.67,2.17-10.28,1.18-3.58,2.63-7.05,4-10.57C554.2,149.67,556.39,145.44,556.39,142.05Z" transform="translate(-19 -95.02)"/><path fill="#3f3d56" d="M691.84,456.21c-1.51,5.78-6.05,10.28-8.38,15.79-3.51,8.25-1.93,18.34-6.89,25.8a27.26,27.26,0,0,1-5.77,5.93,21.43,21.43,0,0,1-4,2.69,6.58,6.58,0,0,1-4.86.6c-2.11-.72-3.38-3-3.59-5.2a10.49,10.49,0,0,1,0-2.17,26.89,26.89,0,0,1,1-4.39q1.8-6.08,3.59-12.16a29.44,29.44,0,0,0,1.44-6.8c.13-2.52-1.47-5.8-.79-8.15.31-1.06,1.47-2,2-2.89a16.73,16.73,0,0,0,1.72-4.09c.82-2.79,1.38-5.77,3.1-8.12a19.06,19.06,0,0,1,3.9-3.65,10.34,10.34,0,0,1,3.72-2.09,9.11,9.11,0,0,1,4,.19,39.25,39.25,0,0,1,5,1.42l.09,0c2,.72,4.12,1.83,4.75,3.85A6.29,6.29,0,0,1,691.84,456.21Z" transform="translate(-19 -95.02)"/><path fill="#3f3d56" d="M798.24,333.27c-.06,1.55-.25,3.28-1.45,4.25a5.46,5.46,0,0,1-3.52.83H793c-3.57,0-7.2-.2-10.58.91-2.57.85-4.93,2.41-7.61,2.72-3.69.42-7.16-1.6-10.43-3.36a103.75,103.75,0,0,0-9.47-4.5c-2.12-.87-6.45-1.43-7.47-3.75a34.14,34.14,0,0,1-.88-3.34,11.1,11.1,0,0,0-.61-1.47,8.45,8.45,0,0,1-1.12-3.31,5.11,5.11,0,0,1,1.14-3.2,9.59,9.59,0,0,1,6.55-3.37,29,29,0,0,1,7.54.4l24.62,3.54c1.9.27,3.81.54,5.68,1a11.14,11.14,0,0,1,4.88,2.14C798.15,325.2,798.39,329.49,798.24,333.27Z" transform="translate(-19 -95.02)"/><path fill="#65617d" d="M776.6,339.67c-3,6.33-.84,13.82-1.38,20.82A53.07,53.07,0,0,1,772.56,372c-1.16,3.72-2.32,7.45-3.8,11.06-1.24,3-2.71,6-3.86,9.06-1.83,4.88-3,10.37-6.71,14-1.7,8.18-3.86,17.12-10.59,22.08-5.85,4.32-14,4.47-20.83,1.86s-12.38-7.61-17.27-13S700.24,405.82,695,400.8a91,91,0,0,0-9.57-7.83Q680.34,389.28,675,386a20.93,20.93,0,0,0-7.24-3.15,8.4,8.4,0,0,0-6.15,1.2,5.58,5.58,0,0,0-1.11,1,13.76,13.76,0,0,0-2,4.1c-4.18,10.94-15.41,16.56-24.43,24L625.8,420c-1.12.93-2.36,2.29-1.81,3.64a3.27,3.27,0,0,0,1.72,1.48c4.78,2.36,10.39,3.31,14.33,6.91,1.44,1.32,2.82,3.06,4.77,3.16a9.58,9.58,0,0,0,3-.67,10.09,10.09,0,0,1,8.81,1.76A8.57,8.57,0,0,0,659,438a5.83,5.83,0,0,0,2.28.14c2.13-.15,4.39-.34,6.3.61s3.48,3.19,5.71,3.35c1.09.08,2.39-.28,3.43-.18a1.8,1.8,0,0,1,1.44.8,6.63,6.63,0,0,1,.47,1.72c.41,1.41,1.79,2.27,2.69,3.43,1.38,1.78,1.58,4.2,1.44,6.45A27.52,27.52,0,0,1,674,472.69a10.84,10.84,0,0,1-5.39,3,5,5,0,0,1-5.34-2.37,8.22,8.22,0,0,0-1-2.2c-1.61-1.77-5.22.11-6.7-1.78-.92-1.18-.26-3.07-1.14-4.29s-3-1-4.63-1.07c-1.91-.1-3.68-1-5.53-1.47-3-.78-6.14-.49-9.21-.7a55.6,55.6,0,0,1-7.58-1.2L614.73,458c-8.1-1.65-16.23-3.32-23.94-6.27-2.95-1.12-5.92-2.5-8-4.9a15,15,0,0,1-3.12-7.3c-1.81-10.67,7.79-19.79,9-30.54.43-3.92,2-7.62,3.48-11.26q4.07-9.76,8.12-19.53a17.4,17.4,0,0,1,1.75-3.44,25.11,25.11,0,0,1,3.87-3.77,26.63,26.63,0,0,0,7.83-12.84,3.46,3.46,0,0,1,.67-1.51,5.62,5.62,0,0,1,1.16-.75,3.8,3.8,0,0,0,1.51-4.45,2.6,2.6,0,0,0,2.38-2.42,4.18,4.18,0,0,1,.1-1.62c.24-.52.84-.78,1.19-1.24.57-.75.37-1.8.28-2.74a8.92,8.92,0,0,1,0-1.79,9.19,9.19,0,0,1,2.68-5.59c2.39-2.35,5.79-1.74,9.09-2.3a52.07,52.07,0,0,0,9.6-3.07,94.31,94.31,0,0,1,27.11-6.27,59.19,59.19,0,0,1,27.33,4.37,15.57,15.57,0,0,1,3.53,2,6.69,6.69,0,0,1,1.85,2.21,20.6,20.6,0,0,0,1.36,3.07c1.07,1.46,3.09,1.93,4.26,3.31s1.27,3.71,2.24,5.42c1.39,2.44,4.61,3.57,5.57,6.22.3.84.34,1.76.56,2.63.54,2.18,2.16,3.9,3.59,5.62a43.21,43.21,0,0,1,9.68,22c.32-5.07,3.73-9.56,8-12.36,1.15-.75,2.48-1.58,2.71-2.94.29-1.72-1.38-3.25-1.27-5a4.9,4.9,0,0,1,1-2.34,74,74,0,0,1,6.26-7.87c1.23-1.35,2.61-3,2.1-4.78-.39-1.33-1.75-2.11-2.5-3.27a4.16,4.16,0,0,1,.1-4.6c.7-.95,1.81-1.64,2.15-2.77.39-1.33-.48-2.77-.21-4.14a5.12,5.12,0,0,1,2.06-2.67,17.13,17.13,0,0,1,4.47-2.94c2.64-1,5.58-.63,8.38-.24,4.68.65,9.93,1.65,12.57,5.57C777,333.33,777.86,337.05,776.6,339.67Z" transform="translate(-19 -95.02)"/><path d="M798.24,333.27c-.06,1.55-.25,3.28-1.45,4.25a5.46,5.46,0,0,1-3.52.83H793c.41-2.08,2.94-3.27,3.38-5.38a4.76,4.76,0,0,0-1.1-3.63c-2.14-2.89-5.58-4.49-9-5.66a59.62,59.62,0,0,0-30.06-2.25,30.27,30.27,0,0,0-7.9,2.43,25.74,25.74,0,0,0-2.4,1.7,8.45,8.45,0,0,1-1.12-3.31,5.11,5.11,0,0,1,1.14-3.2,9.59,9.59,0,0,1,6.55-3.37,29,29,0,0,1,7.54.4l24.62,3.54c1.9.27,3.81.54,5.68,1a11.14,11.14,0,0,1,4.88,2.14C798.15,325.2,798.39,329.49,798.24,333.27Z" opacity=".1" transform="translate(-19 -95.02)"/><path d="M691.84,456.21c-1.51,5.78-6.05,10.28-8.38,15.79-3.51,8.25-1.93,18.34-6.89,25.8a27.26,27.26,0,0,1-5.77,5.93,21.43,21.43,0,0,1-4,2.69,6.58,6.58,0,0,1-4.86.6c-2.11-.72-3.38-3-3.59-5.2a10.49,10.49,0,0,1,0-2.17l.06.16c.87,2.1,2.29,4.3,4.53,4.67a6.13,6.13,0,0,0,4.62-1.63c3.3-2.65,5.22-6.6,7.05-10.41a43.3,43.3,0,0,0,3.38-8.63c.4-1.7.59-3.44,1-5.14,1.9-8.26,8.37-15,9.8-23.37a5.72,5.72,0,0,0,.08-1.75,8.84,8.84,0,0,0-.86-2.18,10.8,10.8,0,0,1-.76-2.42c2,.72,4.12,1.83,4.75,3.85A6.29,6.29,0,0,1,691.84,456.21Z" opacity=".1" transform="translate(-19 -95.02)"/><path d="M676.74,441.87a14.49,14.49,0,0,1-4.51,6.16,22,22,0,0,1-9.71,4.2,9.66,9.66,0,0,1-5-.06c-2.22-.77-3.82-2.85-6.09-3.45-1.62-.44-3.36-.05-5-.29-2.95-.41-5.24-2.66-7.62-4.46-7.29-5.48-16.86-7.25-24.15-12.73a2.24,2.24,0,0,1-.78-.81,2.41,2.41,0,0,1-.15-1.13,23,23,0,0,1,2.19-9.61,33.53,33.53,0,0,1,4.12-5.87c6.53-8,13.09-16.06,20.91-22.81,3.28-2.83,6.86-5.47,11-6.75,2.3-.71,6.84-1.38,9.64-.18a5.58,5.58,0,0,0-1.11,1,13.76,13.76,0,0,0-2,4.1c-4.18,10.94-15.41,16.56-24.43,24L625.8,420c-1.12.93-2.36,2.29-1.81,3.64a3.27,3.27,0,0,0,1.72,1.48c4.78,2.36,10.39,3.31,14.33,6.91,1.44,1.32,2.82,3.06,4.77,3.16a9.58,9.58,0,0,0,3-.67,10.09,10.09,0,0,1,8.81,1.76A8.57,8.57,0,0,0,659,438a5.83,5.83,0,0,0,2.28.14c2.13-.15,4.39-.34,6.3.61s3.48,3.19,5.71,3.35C674.4,442.13,675.7,441.77,676.74,441.87Z" opacity=".1" transform="translate(-19 -95.02)"/><path fill="#3f3d56" d="M584.77,306.14c-1.9,1.23-3.92,2.6-4.7,4.73-.64,1.72-.34,3.71-1.11,5.38s-2.5,2.85-2.88,4.65c-.27,1.31.26,2.69,0,4a16.62,16.62,0,0,0-.55,2.07c-.1,1.5,1.18,2.71,2.43,3.53a20.3,20.3,0,0,0,18.17,1.95c2.67-1,5.08-2.62,7.64-3.91a15.2,15.2,0,0,1,8.23-2c1.65.18,3.23.79,4.88,1a5.08,5.08,0,0,0,4.57-1.35,5.8,5.8,0,0,0,1-2.38c1.39-5.49.76-11.31-.56-16.82s-3.32-10.84-4.73-16.33c-1-4.06-1.77-8.24-3.44-12.09s-4.48-7.43-8.41-8.9a1.5,1.5,0,0,0-1-.12,1.6,1.6,0,0,0-.65.48,30.64,30.64,0,0,0-6.86,11.53c-1.57,4.79-2,9.87-3.44,14.69-.62,2-1.42,4.68-3,6.2S586.56,305,584.77,306.14Z" transform="translate(-19 -95.02)"/><path d="M622.48,323.85a5.83,5.83,0,0,1-1.05,2.37,5.07,5.07,0,0,1-4.57,1.35c-1.64-.2-3.22-.81-4.87-1a15.08,15.08,0,0,0-8.23,2c-2.56,1.28-5,2.87-7.65,3.9a20.19,20.19,0,0,1-12.13.69,19.57,19.57,0,0,1-6-2.64c-1.26-.82-2.53-2-2.43-3.53a17.09,17.09,0,0,1,.55-2.07c.26-1.31-.26-2.69,0-4,.38-1.8,2.12-3,2.88-4.66s.47-3.65,1.1-5.38c.78-2.13,2.81-3.5,4.71-4.73s4.16-2.17,5.68-3.66a5.64,5.64,0,0,0,.59-.69,18,18,0,0,0,2.38-5.51c1.47-4.82,1.87-9.89,3.43-14.69a30.81,30.81,0,0,1,6.87-11.53,1.51,1.51,0,0,1,.64-.48,1.6,1.6,0,0,1,1,.12c3.92,1.48,6.73,5.06,8.41,8.91s2.39,8,3.44,12.08c1.4,5.49,3.41,10.82,4.73,16.33S623.87,318.35,622.48,323.85Z" opacity=".1" transform="translate(-19 -95.02)"/><path d="M652.22,201.89a20,20,0,0,1-24.36-11,23.72,23.72,0,0,1,.4-2.79c1-4.6,5.28-2.92,8.66-1.7a67.71,67.71,0,0,1,11.75,5.09,8.43,8.43,0,0,1,2.9,2.46C653.05,196.16,652.46,199.1,652.22,201.89Z" opacity=".1" transform="translate(-19 -95.02)"/><circle cx="627.18" cy="86.8" r="20" fill="#be6f72"/><path d="M700.45,331.29c0,1.66-2.25,2.19-3.92,2.1-6-.35-11.87-2-17.81-1.5-7.51.68-14.41,4.83-21.94,5.21-2.9.15-5.85-.28-8.71.25-3.7.69-7,2.94-10.77,3.26-3.27.28-6.5-.95-9.77-.82a15.7,15.7,0,0,0-6.49,1.86,9.19,9.19,0,0,1,2.68-5.59c2.39-2.35,5.79-1.74,9.09-2.3a52.07,52.07,0,0,0,9.6-3.07,94.31,94.31,0,0,1,27.11-6.27,59.19,59.19,0,0,1,27.33,4.37,15.57,15.57,0,0,1,3.53,2A1.57,1.57,0,0,1,700.45,331.29Z" opacity=".1" transform="translate(-19 -95.02)"/><path fill="#e3e8f4" d="M636.93,218.34l-8.1-3-3.42-1.25a16.55,16.55,0,0,0-4.36-1.17c-3.92-.3-7.61,2.31-9.7,5.64s-2.88,7.3-3.55,11.18q-1.38,7.94-2.34,15.94a104.1,104.1,0,0,0-1.05,14.53c.23,12.39,2.85,24.6,5.73,36.65a128.73,128.73,0,0,1,3.19,16.24c.24,2.26.35,4.54.59,6.8.26,2.55.68,5.08,1.1,7.6l2.41,14.37c3-2.13,6.41-4,10.1-4.11,3.27-.12,6.51,1.1,9.77.83,3.75-.32,7.07-2.57,10.77-3.26,2.86-.53,5.81-.11,8.72-.25,7.52-.38,14.43-4.53,21.93-5.21,5.95-.53,11.86,1.15,17.82,1.49,1.66.1,3.91-.43,3.91-2.1,0-1.16-1.16-1.93-2.17-2.5a109,109,0,0,1-13.55-9.67c-3.94-3.12-7.94-6.32-10.65-10.54-6.53-10.15-4.29-23.89-9.86-34.59-4.53-8.71,0-20.11,0-29.91,0-4.89,0-9.84-1.15-14.6a61.89,61.89,0,0,0-2.68-7.8l-3.89-9.85a1.61,1.61,0,0,0-.46-.75,1.53,1.53,0,0,0-.89-.26,9.38,9.38,0,0,0-6.46,2.06c-1.83,1.49-3,3.63-4.8,5.19C641.92,217.78,639.38,219.24,636.93,218.34Z" transform="translate(-19 -95.02)"/><path fill="#3f3d56" d="M650,212.67c.64-2.74,1.33-5.6,3.16-7.74s5.17-3.27,7.53-1.74c2.68,1.74,2.79,5.76,5.08,8,2,1.92,5,2.06,7.72,2.31a52.35,52.35,0,0,1,14.27,3.36,5.83,5.83,0,0,1,2.37,1.42c1.25,1.42,1,3.6,1.62,5.37.85,2.28,3.2,3.73,4.11,6,1,2.52,0,5.34-.84,7.93-1.51,4.66-2.46,9.49-3.93,14.16s-3.56,9.27-7,12.78c-1.52,1.57-3.78,3-5.78,2.08l-.77,5.54a9.43,9.43,0,0,0,0,3.55,3.16,3.16,0,0,0,2.32,2.46c.15.86,1.06,1.27,1.8,1.74a5,5,0,0,1,1.27,7c-.63.85-1.56,1.52-1.86,2.53-.45,1.47.62,3,1.92,3.81s2.83,1.16,4.15,1.93c2.74,1.59,4.21,4.69,5.15,7.72.7,2.28,1.28,4.74,3,6.4.66.64,1.45,1.12,2.08,1.78a7.54,7.54,0,0,1,1.79,4.58,9.11,9.11,0,0,1-1.3,6c-2,2.87-5.73,3.71-9,5-5.31,2.18-9.68,6.08-14.36,9.4a15.32,15.32,0,0,1-6.55,3.08c-3.24.44-6.43-1-9.69-1.12a23.56,23.56,0,0,0-5.78.75l-6,1.3c.32-4.65-2.24-9.3-3.67-13.73-2.7-8.34-3.2-17.27-2.56-26s2.42-17.36,4.18-25.95c1.23-6,1.11-12.27,3-18.1,1.77-5.61,4.3-11,5.23-16.83C654.18,230,647.86,222,650,212.67Z" transform="translate(-19 -95.02)"/><path fill="#3f3d56" d="M695.49,231.15a11,11,0,0,1,1.15,3.25,11.73,11.73,0,0,0,2.53,4.76,16.73,16.73,0,0,1,2.66,3c.92,1.74.57,3.86,1,5.77.5,2.07,1.95,3.87,2.16,6a11,11,0,0,0,.17,1.82c.65,2.43,4.21,3,5,5.42.53,1.58-.38,3.28-.21,4.93a4.34,4.34,0,0,1,.09,1.56,3.12,3.12,0,0,1-1.14,1.46,23.11,23.11,0,0,0-6.58,11.72,66.52,66.52,0,0,0-1.51,13.52l-3.91-5.17a6.09,6.09,0,0,0-1.56-1.6c-.5-.3-1.08-.45-1.59-.74-1.48-.84-2.06-2.63-2.63-4.23a39.14,39.14,0,0,0-7-12.12c-1.59-1.86-3.44-3.75-3.79-6.18a11.31,11.31,0,0,1,.18-3.33c1-6.56,2.07-13.26,5.26-19.08,1.49-2.72,3.42-5.18,4.85-7.94C691.58,232.13,692.93,227.37,695.49,231.15Z" transform="translate(-19 -95.02)"/><path fill="#3f3d56" d="M596.84,237.45a4.57,4.57,0,0,1-.62,2.4,3.16,3.16,0,0,1-3.16,1.05,9.14,9.14,0,0,1-3.16-1.48q-4.18-2.64-8.36-5.29a46.28,46.28,0,0,1-4.49-3.08,40.07,40.07,0,0,1-5.93-6.21c-4.86-6-9.16-12.51-14.57-18.05-1.47-1.5-3-2.94-4.42-4.51a65.82,65.82,0,0,1-5.34-7.18c-1.56-2.31-3.18-4.87-2.91-7.63.16-1.56.91-3,1.13-4.55s-.37-3.44-1.87-3.86a3.38,3.38,0,0,0-.54-.09,4.08,4.08,0,0,1-.87-.19c-1.39-.58-1.18-2.73-.18-3.86s2.48-1.76,3.39-3a18.09,18.09,0,0,1,1.42-2.11,5.41,5.41,0,0,1,2.33-1.17,36.06,36.06,0,0,1,17.75-.67c1,.22,2.14.62,2.44,1.59a2.93,2.93,0,0,1,0,1.44,32.2,32.2,0,0,0-.76,6,10.64,10.64,0,0,0,.07,1.26c.47,4.24,3.22,7.83,5.9,11.14,3.18,3.94,6.41,7.85,9.65,11.75a46.17,46.17,0,0,0,5.85,6.25c2,1.66,4.59,3,6.15,5.13,1.27,1.72.86,4.07,1,6.14A136.28,136.28,0,0,1,596.84,237.45Z" transform="translate(-19 -95.02)"/><path fill="#be6f72" d="M723.84,279.17A21.62,21.62,0,0,0,726.5,276a20.56,20.56,0,0,0,2-4.47l5.8-16.45c.92-2.6,1.84-5.21,3-7.73,1.2-2.74,2.62-5.36,3.93-8.05A106.49,106.49,0,0,0,749,217.6a8,8,0,0,0,.31-3.19c-.28-1.72-1.59-3.07-2.84-4.3a20.84,20.84,0,0,0-4.26-3.53,7.09,7.09,0,0,0-5.34-.86c-2.56.76-4.17,3.37-4.76,6s-.37,5.32-.62,8c-.36,3.84-1.68,7.54-2,11.39-.17,2.23,0,4.49-.27,6.71a24.42,24.42,0,0,1-3,8.26A53.44,53.44,0,0,1,713.33,262a20.79,20.79,0,0,0-3.88,3.73,12.23,12.23,0,0,0-1.87,4.66,10.75,10.75,0,0,0,.81,7.58c1.63,2.77,4.76,4,7.75,4.62C720.14,283.42,721.07,282,723.84,279.17Z" transform="translate(-19 -95.02)"/><path fill="#3f3d56" d="M646.3,152.84a9.35,9.35,0,0,1,9.06-4.91,10,10,0,0,1,7.86,7.06c.47,1.49.66,3.14,1.48,4.42,1.24,1.93,3.54,2.49,5.26,3.89a10.55,10.55,0,0,1,3.36,7.44,22.59,22.59,0,0,1-1.33,8.42,26.74,26.74,0,0,0-1,3.52c-.2,1.15-.22,2.34-.4,3.5a11.38,11.38,0,0,1-4.6,7.59,1.92,1.92,0,0,1-1.24.45c-.78-.08-1.26-1-1.55-1.81-1.59-4.59-1.21-10.21-4.14-13.86A14.85,14.85,0,0,0,654.3,175a6,6,0,0,0-2.42-.91,6.29,6.29,0,0,0-3.5,1.28,22.24,22.24,0,0,1-6.92,3.06,8.56,8.56,0,0,1-7.15-1.54c-1.38-1.15-2.39-2.86-3.92-3.75s-3.13-.83-4.64-1.45a6.86,6.86,0,0,1-2.72-10.5c1-1.21,2.48-1.88,3.37-3.21,1.15-1.73,1.05-4.09,1.6-6.15a8.5,8.5,0,0,1,5.09-5.81,7.17,7.17,0,0,1,7.12,1.49c1,.9,1.8,2.07,2.78,3a8,8,0,0,0,7.4,2" transform="translate(-19 -95.02)"/><path d="M662.74,300a3.88,3.88,0,0,0-1.06,4.24c.22.47,10.54-1.51,11.63-1.67,2.72-.39,7.49-.2,9.32-2.68,3.26-4.41-6.84-3.44-8.69-3.28C670.42,297,665.42,297.43,662.74,300Z" opacity=".1" transform="translate(-19 -95.02)"/><path fill="#3f3d56" d="M568.86,171a32.2,32.2,0,0,0-.76,6c-3,.61-6.12-.39-9-1.39l-8.27-2.82a2.35,2.35,0,0,0-3.16.59c-1.33,1.38-3.16,4-5,5.55a4.08,4.08,0,0,1-.87-.19c-1.39-.58-1.18-2.73-.18-3.86s2.48-1.76,3.39-3a18.09,18.09,0,0,1,1.42-2.11,5.41,5.41,0,0,1,2.33-1.17,36.06,36.06,0,0,1,17.75-.67c1,.22,2.14.62,2.44,1.59A2.93,2.93,0,0,1,568.86,171Z" transform="translate(-19 -95.02)"/><path d="M568.86,171a32.2,32.2,0,0,0-.76,6c-3,.61-6.12-.39-9-1.39l-8.27-2.82a2.35,2.35,0,0,0-3.16.59c-1.33,1.38-3.16,4-5,5.55a4.08,4.08,0,0,1-.87-.19c-1.39-.58-1.18-2.73-.18-3.86s2.48-1.76,3.39-3a18.09,18.09,0,0,1,1.42-2.11,5.41,5.41,0,0,1,2.33-1.17,36.06,36.06,0,0,1,17.75-.67c1,.22,2.14.62,2.44,1.59A2.93,2.93,0,0,1,568.86,171Z" opacity=".1" transform="translate(-19 -95.02)"/><path d="M644.51,360.89c1.44.47,3,1.17,3.49,2.62l-11.58-2.95-6-1.52c-1.06-.27-4.86-.59-5.56-1.42-1-1.22,2.55-.37,3.19-.28,1.94.28,3.88.58,5.81.93C637.5,358.93,641,360,644.51,360.89Z" opacity=".1" transform="translate(-19 -95.02)"/><path d="M649,371.13c-1-.67-3.87-.58-5.1-.88-1.8-.43-3.57-1-5.34-1.55-3.59-1.17-7.15-2.5-10.84-3.35-.68-.16-3-.19-2.89-1.06s2.32-1.16,2.87-1.2c3.27-.24,7.35,1.3,10.39,2.39A46.12,46.12,0,0,1,649,371.13Z" opacity=".1" transform="translate(-19 -95.02)"/><path d="M641.66,351.71c-3.67-1-7-3.27-10.78-3.71a4.51,4.51,0,0,1-2.75-.84,3.27,3.27,0,0,1-.89-1.61c2.53-.13,5.47.95,7.77,1.95a26.45,26.45,0,0,1,3.64,1.94C639.49,350,640.75,351.46,641.66,351.71Z" opacity=".1" transform="translate(-19 -95.02)"/><path fill="#3f3d56" d="M711.62,262.2a17.49,17.49,0,0,0,12.26,19.33c-.49,2.37-2.94,3.68-4.67,5.37-2.44,2.38-3.7,5.92-6.58,7.72-3.21,2-7.34,1.22-11,.38a1.33,1.33,0,0,1-.86-.44,1.46,1.46,0,0,1-.16-.39c-1.21-4.44-2-9.17-.76-13.6,1-3.79,3.4-7,5.32-10.35S707.27,263.3,711.62,262.2Z" transform="translate(-19 -95.02)"/><path fill="#3f3d56" d="M622.21,204.86a26.11,26.11,0,0,0-11,3.35c-2.24,1.29-4.54,3-7.1,2.69-1.51-.16-3-1-4.47-.6a9.06,9.06,0,0,0-2.29,1.36,2.59,2.59,0,0,1-2.52.4l-1,13.84c-.38,5.27-.75,10.64.51,15.77.65,2.61,2.08,5,2.24,7.65s-.08,5.39.11,8.08c.18,2.49.73,4.94.87,7.44.28,4.7-.88,9.35-2,13.92-1.69,6.74-2.71,13.63-6,19.74-.92,1.68-2,3.41-2,5.33,0,.23,0,.47.06.7-1,.55-1.93,1.06-2.78,1.61-1.9,1.23-3.93,2.6-4.71,4.73-.63,1.73-.34,3.71-1.1,5.38s-2.5,2.86-2.88,4.66c-.27,1.31.25,2.69,0,4a17.09,17.09,0,0,0-.55,2.07c-.1,1.5,1.17,2.71,2.43,3.53a19.57,19.57,0,0,0,6,2.64l6.06-23.7h0A191.56,191.56,0,0,0,603.58,278a67.15,67.15,0,0,1,3.91-10.35,49.56,49.56,0,0,0,3-5.89c.91-2.52,1-5.25,1.44-7.9a55.75,55.75,0,0,1,2.35-9.14c1.08-3.2,2.33-6.41,2.55-9.78.33-4.82-1.42-9.9.44-14.37a19.11,19.11,0,0,1,3.05-4.59c2.58-3.16,4.93-6.46,7.51-9.63C626.44,204.89,624.21,204.72,622.21,204.86Z" transform="translate(-19 -95.02)"/><g opacity=".1"><path d="M650.39,149.55l-1.25.09-.15.11A6.66,6.66,0,0,0,650.39,149.55Z" transform="translate(-19 -95.02)"/><path d="M673.27,170.32a27.07,27.07,0,0,1-1.28,5.84,26.74,26.74,0,0,0-1,3.52c-.2,1.15-.22,2.34-.4,3.5a11.38,11.38,0,0,1-4.6,7.59,1.92,1.92,0,0,1-1.24.45c-.78-.08-1.26-1-1.55-1.81-1.59-4.59-1.21-10.21-4.14-13.86A14.85,14.85,0,0,0,654.3,172a6,6,0,0,0-2.42-.91,6.29,6.29,0,0,0-3.5,1.28,22.24,22.24,0,0,1-6.92,3.06,8.56,8.56,0,0,1-7.15-1.54c-1.38-1.15-2.39-2.86-3.92-3.75s-3.13-.83-4.64-1.45a6.81,6.81,0,0,1-3.9-4.46,2.33,2.33,0,0,1-.08-.38,7,7,0,0,0,.08,3.38,6.81,6.81,0,0,0,3.9,4.46c1.51.62,3.21.62,4.64,1.45s2.54,2.6,3.92,3.75a8.56,8.56,0,0,0,7.15,1.54,22.24,22.24,0,0,0,6.92-3.06,6.29,6.29,0,0,1,3.5-1.28,6,6,0,0,1,2.42.91,14.85,14.85,0,0,1,4.74,3.53c2.93,3.65,2.55,9.27,4.14,13.86.29.82.77,1.73,1.55,1.81a1.92,1.92,0,0,0,1.24-.45,11.38,11.38,0,0,0,4.6-7.59c.18-1.16.2-2.35.4-3.5a26.74,26.74,0,0,1,1-3.52,22.59,22.59,0,0,0,1.33-8.42C673.31,170.6,673.29,170.46,673.27,170.32Z" transform="translate(-19 -95.02)"/></g><path fill="url(#b)" d="M414.82,480.1c-2.31-.76-15.91-11.53-16.94-16.4s7.19-50.23,7.19-50.23-.76,0-2-.15l0-.73L404.81,353s6.93-40-6.16-37.67S393.77,353,393.77,353s-1.49,17.95-2.54,23.33c-1,5.18-5.58,26.32-2.46,32.89a6.1,6.1,0,0,0,.38.68h0s.52,22.55-5.13,25.63c-5.39,2.94-7.63,17.68-7.82,19l-.29-.13h0a15.8,15.8,0,0,1-4.17-3.8c-.12-.16-.21-.32-.32-.48a22,22,0,0,0-.59-29.86,22.21,22.21,0,0,0-6.19-4.53,14.24,14.24,0,0,0-1.33-5.52c-2.6-5.56-17-12.83-27.23-13-4.72-.15-8.59,1.2-10,4.89-.72,1.87-.5,3.95-.8,5.93-.6,4-3.17,7.14-6.47,9.62a39.41,39.41,0,0,0-4.31-4.14c-3.34-2.56-10-11-10-11S283.68,380.92,282.14,375s-22.33-41.27-26.95-35.12S271.1,373,271.1,373s3.85,9.74,6.93,13.07S304,422.7,304,422.7l1.1,2.27c-4.86,2.56-9.3,5.82-10.87,10.9-2.3,7.48,2.73,15,6.21,22,6.78,13.65,7.75,31.07-1,43.56-7.78,11.1-21.35,16.3-34.11,20.91a33.69,33.69,0,0,0,21.6,7.18c-2.94,8.51-13.36,11.34-22.24,12.91,4.66,4.48,11.33,6.11,17.73,7.1a52.21,52.21,0,0,0,9.49.75l.78,0,.78-.05a25.26,25.26,0,0,0,3.23-.42c4.62-.94,9.11-3.46,11.47-7.54,2-3.49,2.7-8.24,6.33-10a8.08,8.08,0,0,1,3-.7h-.11c.68,0,1.38,0,2.06,0l15.13.16c.63,0,1.28,0,1.93,0,4.27-.09,8.83-.83,11-4.36a12.15,12.15,0,0,0,1.37-5.55c.32-4.8,0-9.72.13-14.56,1.29,8.79,2.64,22.5-.57,27.55A47,47,0,0,1,339,544.94a18,18,0,0,0-2.48,2.54c-.49.35-.78.54-.78.54l-.31.94a17.42,17.42,0,0,0-2.44,5.66,3.87,3.87,0,0,0-.19,1.6c.35.72-2.5,3.65-1.67,4.88-7.12,8.34-8.47,21-8.47,21l-13,19.73c-6.68,17.56-16.68,19.35-16.68,19.35s-23.49-15.76-24.13-16.53-9.62-4.61-9.62-4.61a10.17,10.17,0,0,0-4.62-4.23c-3.08-1.28-3.34-6-3.34-6-.38-11.14-6.93-12-6.93-12-5.28-.45-9.31.49-12.41,2.21l-.94.08c-4.54.36-10,.77-16,1.17-16.69,1.1-20.66,11.92-20.66,11.92s-2.05,2.3.64,4.8,19.91,0,20.64-.06a10.72,10.72,0,0,1-3.92-.27c2.71-.1,6.44-.2,9.62-.2h.77a41.62,41.62,0,0,0-.29,5.08c0,3.21,8.85,5.26,8.85,5.26l26.95,24s16.94,7.56,27.72,18.45,20.27,1.54,20.27,1.54c11.41-2.82,44.24-42.5,44.27-42.54v0c0,1.16.69,39.75,2,47.5h0a5.15,5.15,0,0,0,.29,1.15c1.54,3.33-.52,12.43-1.41,16.28a45.09,45.09,0,0,0-.65,9.73s-12.31,47-11.29,51.13-6.67,23.33-6.67,23.33v16l1.34-.06a8.8,8.8,0,0,0-.48.79l-.09.17s8.21,1.79,13.73,1.28,15,4.26,15,4.26,3.21,1.51,13.09,2.15,9.88-4.36,9.88-4.36c-1.13-6.81-16.74-9.09-17.22-9.15-1.26-.79-2.44-1.66-3.41-2.4l-.2-.16a3.61,3.61,0,0,0,.17-.46c1.67-6.79-7.57-9.74-7.57-9.74V755c6-3.07,7.19-24.22,7.19-24.22s9-26.14,10.26-30.49,0-10.9,0-10.9l.9-5.63s1.93-3.85,1.93-4.62a11.43,11.43,0,0,1,2.18-5.38c1.41-1.67-1.54-5.64-1.54-5.64l2.57-6.66v-7.3l6-26.53s6.29-30.89,4.11-41,2.57-15.25,2.57-15.25a12.64,12.64,0,0,1-1.32.6,38.21,38.21,0,0,0,1.55-4.26l13.5,1.68v.19h4.87s-1.54-19-1.54-26.65,5.14-35.12,5.14-35.12S417.13,480.87,414.82,480.1Zm-59.93-22.17c0,.75-.07,1.53-.12,2.32l-.27.42-.5-.43-.61.95-.18.1c-1.32-.68-2-4.57-2.95-3.74l-.13.11c-.21-.23-.42-.31-.64-.11l-.2.18c0-.3,0-.6,0-.9a22,22,0,0,0,5.6.72C354.9,457.67,354.89,457.8,354.89,457.93Zm44.9,88.48h.29l-.48,1.25C399.66,547.25,399.72,546.83,399.79,546.41ZM350.5,773.18l-1.84-.47,1-.16.93.61.11.07Zm18.8-2.69c-.61-.33-1.23-.69-1.83-1.07A21.17,21.17,0,0,1,369.3,770.49Z" transform="translate(-19 -95.02)"/><polygon fill="#f86d70" points="387.43 432.49 375.32 464.05 378.26 464.05 366.87 473.13 387.43 475.69 387.43 432.49"/><polygon points="387.43 432.49 375.32 464.05 372.27 463.23 366.87 473.13 387.43 475.69 387.43 432.49" opacity=".1"/><polygon fill="#f86d70" points="368.44 452.68 387.43 452.68 394.4 395.33 368.44 395.33 368.44 452.68"/><polygon points="368.44 452.68 387.43 452.68 394.4 395.33 368.44 395.33 368.44 452.68" opacity=".1"/><path fill="#fbbebe" d="M350.35,503.93l4.1-.69,9.42-1.6s28.29-6.37,34.15-6.88a36.14,36.14,0,0,0,10.24-2.92c1.53-.66,2.5-1.16,2.5-1.16l-10.19-18.61-15.81-11.72s-10-2.13-14.23-8a9.35,9.35,0,0,1-1.31-8.87c2.58-8-15.41,7.64-15.41,7.64s.17,3.75,0,8.53c0,.94-.09,1.93-.16,2.93,0,.66-.09,1.32-.16,2-.44,4.74-1.34,9.63-3.12,12.55C346,484.31,350.35,503.93,350.35,503.93Z" transform="translate(-19 -95.02)"/><path d="M353.79,460.09h.4c.72,0,1.3-1.52,2-1.6,5.63-.54,10.77-1.72,14.34-5.7a9.4,9.4,0,0,1-1.31-8.88c2.58-8-15.41,7.65-15.41,7.65S354,455.3,353.79,460.09Z" opacity=".1" transform="translate(-19 -95.02)"/><path fill="#fbbebe" d="M331.89,437.41a21.91,21.91,0,0,0,21.92,21.92c.72,0,1.43,0,2.14-.11a21.92,21.92,0,1,0-24.06-21.81Z" transform="translate(-19 -95.02)"/><path fill="#3f3d56" d="M325.16,404.14c-.72,1.86-.5,3.93-.79,5.9-1.07,7.11-8.3,11.37-14.84,14.36s-13.92,6.5-16,13.37c-2.28,7.44,2.7,14.88,6.16,21.85,6.74,13.59,7.7,30.91-1,43.33-7.73,11-21.2,16.21-33.88,20.8a33.45,33.45,0,0,0,21.45,7.13c-2.91,8.47-13.26,11.28-22.08,12.85,4.63,4.45,11.26,6.08,17.61,7.06,4.63.71,9.38,1.18,14,.25s9-3.44,11.38-7.5c2-3.47,2.68-8.2,6.29-9.95a11.37,11.37,0,0,1,5.13-.74l15,.15c4.67,0,10.2-.36,12.61-4.35a12,12,0,0,0,1.36-5.52c.65-9.84-1.24-20.23,2.81-29.22,1.22-2.7-6.61-7-5.79-9.86,2.82-9.87,3.53-17.65,3.5-27.92,0-7.94,5.17-14.79,9.44-21.5s7.84-15.18,4.47-22.38C358.19,404.21,329.65,392.55,325.16,404.14Z" transform="translate(-19 -95.02)"/><path fill="#fbbebe" d="M345.13,770.29l3.82,2.53.59.39.11.08,4.53,3,10.58,1.79,9.3-.64s2.68-5.61-1.53-5.48a8.87,8.87,0,0,1-3.84-1.1c-.19-.09-.39-.19-.58-.3h0c-.61-.32-1.22-.68-1.82-1.06h0l0,0c-1.25-.79-2.43-1.64-3.38-2.38-1.4-1.07-2.33-1.9-2.33-1.9Z" transform="translate(-19 -95.02)"/><path d="M349,772.82l.59.39.11.08,4.53,3,10.58,1.79,9.3-.64s2.68-5.61-1.53-5.48a8.87,8.87,0,0,1-3.84-1.1c.74.58,1.36,1.2,1.42,1.74.17,1.42-6.88,4-6.88,4L353.29,774s-1.69-.48-4-1.08l-.22-.06Z" opacity=".1" transform="translate(-19 -95.02)"/><path fill="#3f3d56" d="M332,775.26s8.15,1.79,13.63,1.28,14.91,4.23,14.91,4.23,3.19,1.5,13,2.14,9.81-4.33,9.81-4.33c-1.12-6.78-16.62-9-17.1-9.11h0l0,0h0c.19.1,1,.52,1.82,1.06h0c1.1.72,2.29,1.66,2.38,2.42.17,1.43-6.88,4-6.88,4l-9.94-2.62s-1.69-.48-4-1.08l-.22-.06A85.26,85.26,0,0,0,339,771.06c-4.28-.46-6.47,3.19-6.92,4A1.19,1.19,0,0,0,332,775.26Z" transform="translate(-19 -95.02)"/><path fill="#fbbebe" d="M203.54,595.44l4.33,3.31,3.14-.12.6,0c2.69-.09,6.4-.19,9.55-.2a31.13,31.13,0,0,1,6.09.34c2.16.77,6-12.36,6-12.36l-4.34-1-1.44-.33-1-.24-3.53-.83-10.7,1.21L204.69,590Z" transform="translate(-19 -95.02)"/><path d="M203.54,595.44l4.33,3.31,3.14-.12a3.79,3.79,0,0,1-2-1.79c-2.8-7.77,11.09-11.09,11.09-11.09l6.47-.28,1.26-.05,1,0-1.44-.33-1-.24-3.53-.83-10.7,1.21L204.69,590Z" opacity=".1" transform="translate(-19 -95.02)"/><path fill="#3f3d56" d="M195,598.94c2.62,2.43,19.78,0,20.5-.06a10.57,10.57,0,0,1-3.89-.27,4.29,4.29,0,0,1-3-2.15c-2.8-7.77,11.09-11.09,11.09-11.09l6.47-.28,1.25-.05,15.73-.69.76-4.33s-5.11.49-13.13,1.13c-4.51.36-10,.77-15.93,1.16-16.57,1.1-20.51,11.86-20.51,11.86S192.33,596.46,195,598.94Z" transform="translate(-19 -95.02)"/><path fill="#fbbebe" d="M387.45,411.25a4.32,4.32,0,0,0,.38.67l3.82,5.61,9.94,1,.11-3.94,1.67-59.28s6.88-39.76-6.12-37.46-4.84,37.46-4.84,37.46-1.48,17.85-2.52,23.2C388.88,383.69,384.35,404.71,387.45,411.25Z" transform="translate(-19 -95.02)"/><path fill="#fbbebe" d="M365.14,558.48l2.83,4.85,6.33,10.83s11.48,4.2,14.42,1c1.61-1.75,3.35-7.85,4.57-13,1-4.16,1.67-7.67,1.67-7.67Z" transform="translate(-19 -95.02)"/><path d="M365.14,558.48l2.83,4.85a4,4,0,0,0,.48-.52c3.2-4.08,17.29-.86,24.84-.61,1-4.16,1.67-7.67,1.67-7.67Z" opacity=".1" transform="translate(-19 -95.02)"/><path d="M221.16,598.41a31.13,31.13,0,0,1,6.09.34c2.16.77,6-12.36,6-12.36L227.45,585l15.73-.69.76-4.33s-5.11.49-13.13,1.13a16.13,16.13,0,0,0-4.37,3.65l-.24.29C222.87,589.2,221.63,594.5,221.16,598.41Z" opacity=".1" transform="translate(-19 -95.02)"/><path d="M345.13,770.29l4.41,2.92c6.58-1.18,12.59-3.05,13.3-6a.83.83,0,0,0,0-.15c-1.4-1.07-2.33-1.9-2.33-1.9Z" opacity=".1" transform="translate(-19 -95.02)"/><path d="M332.09,775.09a148,148,0,0,0,17.34-1.86A85.26,85.26,0,0,0,339,771.06C334.73,770.6,332.54,774.25,332.09,775.09Z" opacity=".1" transform="translate(-19 -95.02)"/><path fill="#3f3d56" d="M221.64,603.47c0,3.19,8.79,5.22,8.79,5.22l26.77,23.83S274,640,284.72,650.88s20.14,1.53,20.14,1.53c11.34-2.81,44-42.31,44-42.31s.76,45.11,2.29,48.42-.51,12.37-1.4,16.19a45.13,45.13,0,0,0-.64,9.69s-12.23,46.77-11.21,50.85-6.63,23.19-6.63,23.19v15.93s29.95-1.15,31.6-7.9-7.51-9.69-7.51-9.69v-1.65c6-3.06,7.13-24.09,7.13-24.09s8.93-26,10.2-30.33,0-10.84,0-10.84l.89-5.6s1.91-3.82,1.91-4.59a11.38,11.38,0,0,1,2.17-5.35c1.4-1.66-1.53-5.61-1.53-5.61l2.55-6.63v-7.26l6-26.38s6.25-30.72,4.08-40.78,2.55-15.17,2.55-15.17c-10.23,5.37-15.39-6.56-17.08-11.69-.43-1.33-.64-2.2-.64-2.2s-14.05-5.18-27.13-4a31.69,31.69,0,0,0-7.79,1.65c-14.53,5.23-16.82,26.89-16.82,26.89l-12.87,19.63c-6.63,17.46-16.57,19.25-16.57,19.25s-23.32-15.68-24-16.44-9.56-4.59-9.56-4.59a10.09,10.09,0,0,0-4.59-4.21c-3.06-1.27-3.31-6-3.31-6-.38-11.09-6.88-12-6.88-12C221.51,577,221.64,600.28,221.64,603.47Z" transform="translate(-19 -95.02)"/><rect width="13.76" height="42.69" x="351.38" y="498.45" fill="#f86d70" transform="translate(697.52 944.58) rotate(-180)"/><rect width="13.76" height="42.69" x="351.38" y="498.45" opacity=".1" transform="translate(697.52 944.58) rotate(-180)"/><path d="M387.44,411.15a.67.67,0,0,0,0,.1,4.32,4.32,0,0,0,.38.67l3.82,5.61,9.94,1,.11-3.94C398.59,414.34,391.53,413.49,387.44,411.15Z" opacity=".1" transform="translate(-19 -95.02)"/><path fill="#f86d70" d="M387.83,411.92s.51,22.43-5.1,25.49-7.79,19-7.79,19,17,11.18,20.79,16.09,12.49,16.64,10.7,19.45,4.34,15.54,4.34,15.54-11.22,22.94-8.67,31.61,2.8,31.61,2.8,31.61h4.85s-1.53-18.87-1.53-26.51,5.09-34.92,5.09-34.92,2.3-26.77,0-27.53-15.8-11.47-16.82-16.31,7.14-50,7.14-50S393.18,415,387.83,411.92Z" transform="translate(-19 -95.02)"/><path d="M351.12,494.5a21.82,21.82,0,0,0,3.33,8.74l9.42-1.6s28.29-6.37,34.15-6.88a36.14,36.14,0,0,0,10.24-2.92,45.08,45.08,0,0,0-12.65-20.74l-3.6-3.33a61.09,61.09,0,0,0-8.53-6.6,59.92,59.92,0,0,0-9.57-5c.42.35,30.1,25.7,23.6,30.67s-24-7.14-24-7.14l-19.9-17.09-.72-.63-1.15,1.79a18.71,18.71,0,0,1,1.71.83,29.21,29.21,0,0,1,14,17.4C371.53,495.76,351.12,494.5,351.12,494.5Z" opacity=".1" transform="translate(-19 -95.02)"/><path fill="#444053" d="M345,558.23s18.86,10.45,23.44,4.58c1-1.29,3.11-1.85,5.74-2-.43-1.33-.64-2.2-.64-2.2s-14.05-5.18-27.13-4C345.55,556.83,345,558.23,345,558.23Z" transform="translate(-19 -95.02)"/><path fill="#e8e8f0" d="M353.68,462l20.62,17.71s17.43,12.14,24,7.14-23.61-30.67-23.61-30.67h0a60.57,60.57,0,0,1,18.11,11.58l3.59,3.33c9.44,8.74,11.57,8.74,11.89,21.61.08,3.16-1,7.72-1.83,8.54-3.06,3-5.2,24.78-4.73,27.33S396,553.13,398,559.25s-25-3.06-29.57,2.8S345,557.46,345,557.46s10.45-26.76,13-28.55,5.61-15.54,0-21.92-6.11-12.49-6.11-12.49,20.4,1.27,16.31-12.49a28.86,28.86,0,0,0-15.68-18.22Z" transform="translate(-19 -95.02)"/><path d="M381.2,507.12s-7.91,14.91-18.14,18.79c-.33.12-.65.23-1,.33C351.38,529.49,382,511.71,381.2,507.12Z" opacity=".1" transform="translate(-19 -95.02)"/><path fill="#fbbebe" d="M270.58,375.22s3.82,9.68,6.88,13,25.74,36.46,25.74,36.46l1.92,4,1.65,3.42,14.53-1.53,1-5.86s-.2-.26-.56-.68c-1.46-1.76-5.44-6.45-8.11-8.5-3.31-2.55-9.94-11-9.94-11s-20.64-21.41-22.17-27.27-22.18-41-26.76-34.93S270.58,375.22,270.58,375.22Z" transform="translate(-19 -95.02)"/><g opacity=".1"><path d="M312.74,532.84a11.39,11.39,0,0,0-5.13.74c-3.6,1.76-4.28,6.48-6.28,10-2.34,4.05-6.8,6.56-11.39,7.49a25.46,25.46,0,0,1-2.76.39,31.34,31.34,0,0,0,8.76-.39c4.59-.93,9.05-3.44,11.39-7.49,2-3.48,2.68-8.2,6.28-10a8,8,0,0,1,3-.7Z" transform="translate(-19 -95.02)"/><path d="M348.26,456.13c0-7.95,5.17-14.8,9.43-21.51s7.84-15.18,4.47-22.38c-2.88-6.15-20.24-14.4-30.26-12.76,9.81,1.26,21.9,7.72,24.26,12.76,3.37,7.2-.21,15.67-4.47,22.38s-9.45,13.56-9.43,21.51c0,10.26-.69,18-3.51,27.91-.81,2.85,7,7.16,5.8,9.86-4.06,9-2.16,19.39-2.81,29.23a12.11,12.11,0,0,1-1.37,5.51c-2,3.3-6.1,4.15-10.09,4.32l3.49,0c4.66,0,10.19-.35,12.6-4.35a12.11,12.11,0,0,0,1.37-5.51c.65-9.84-1.25-20.24,2.81-29.23,1.22-2.7-6.61-7-5.8-9.86C347.57,474.17,348.28,466.39,348.26,456.13Z" transform="translate(-19 -95.02)"/></g><path d="M305.12,428.64l1.65,3.42,14.53-1.53,1-5.86s-.2-.26-.56-.68C320.19,424.76,308.58,430.33,305.12,428.64Z" opacity=".1" transform="translate(-19 -95.02)"/><path d="M358.77,467s-3.57-5.61-5.61-4.08-2.83-4.59-4-3.57-4.58,3.86-6-.12c-1.11-3.16-13.19-23.14-18.09-31.19l-2.05-3.36s-13.76,6.89-17.07,4.59v4.85l2.8.25,15,28s4.72,7.5,4.4,10.12,6.05,14.09,7.07,14.86,12,13.51,12,13.51,5.61,27.52.76,35.17-13.25,13.25-13.25,13.25-2.53,7.4-2.16,8.16-2.94,4.08-1.41,5.1,3.57,8.16,3.57,8.16,7.14-11.47,11-13.26,8.8-25.23,8.8-25.23,1.41-13.83,1.52-22.75S355.71,467,358.77,467Z" opacity=".1" transform="translate(-19 -95.02)"/><path fill="#f86d70" d="M358,467s-3.56-5.61-5.6-4.08-2.84-4.59-4-3.57-4.57,3.86-6-.12c-1.12-3.16-13.2-23.14-18.09-31.19-1.27-2.07-2.05-3.36-2.05-3.36s-13.76,6.89-17.08,4.59v4.85l2.81.25,15,28s4.73,7.5,4.4,10.12,6,14.09,7.07,14.86,12,13.51,12,13.51,5.61,27.52.77,35.17A46.42,46.42,0,0,1,338,546.24a17.84,17.84,0,0,0-6,9.62,3.8,3.8,0,0,0-.18,1.6c.37.77-2.94,4.08-1.41,5.1s3.56,8.16,3.56,8.16,7.14-11.47,11-13.26,8.81-25.23,8.81-25.23,1.4-13.83,1.52-22.75S355,467,358,467Z" transform="translate(-19 -95.02)"/><path d="M323.08,583s10.71,2,15,5.1-16.31-4.84-16.31-4.84Z" opacity=".1" transform="translate(-19 -95.02)"/><path d="M348.83,610.1S360,619.4,358,627.81s-7.16,29.57-7.16,29.57Z" opacity=".1" transform="translate(-19 -95.02)"/><path d="M251.14,592.19s-15.74,1.72-14.72,3.76,14.72-1.88,14.72-1.88Z" opacity=".1" transform="translate(-19 -95.02)"/><path d="M372,669.61s1,1.28-4.84,0-1.53-5.19-1.53-5.19Z" opacity=".1" transform="translate(-19 -95.02)"/><path d="M370,687.2s-8,1.27-12.29,0S370,687.2,370,687.2Z" opacity=".1" transform="translate(-19 -95.02)"/><path d="M353.54,756s-1.4-1.53-8.41,1.27-9.81,2.93-11.85,2S353.54,756,353.54,756Z" opacity=".1" transform="translate(-19 -95.02)"/><path d="M361.32,590l-9.94,13.83S356.73,591.74,361.32,590Z" opacity=".1" transform="translate(-19 -95.02)"/><path d="M342,462.9s-.43,4.59-6.84,6.37-7.63,3.24-7.63,3.24" opacity=".1" transform="translate(-19 -95.02)"/><path d="M325.34,429.62s-8.46,6-17.29,4.73" opacity=".1" transform="translate(-19 -95.02)"/><path d="M331.78,558.1s2.47,1.55,8.4-5.24" opacity=".1" transform="translate(-19 -95.02)"/><path d="M393.37,486.2c.24-1.24-.62-2.39-1.43-3.36l-1.66-2a7.7,7.7,0,0,0-1.09-1.12c-1-.77-2.28-1-3.32-1.69" opacity=".1" transform="translate(-19 -95.02)"/><g fill="#6c63ff" opacity=".8"><path d="M926.62,121.92c-2.43-3.31-7.45.27-5.18,3.69.59.89,1.24,1.76,1.86,2.59,7.47,10.08,11.34,22.33,14.67,34.44.82,3,1.61,6.14.68,9.08,1.34-7.87.47-16-1.55-23.71s-5.15-15.1-8.39-22.39A20.26,20.26,0,0,0,926.62,121.92Z" opacity=".5" transform="translate(-19 -95.02)"/><path d="M878.14,143.13c-5-.15-5.68,7.49-.66,7.89,1.32.11,2.64.14,3.91.17,15.43.42,30,6,44.05,12,3.44,1.47,7,3.13,9.07,6.29-6.32-7.33-14.65-12.7-23.5-16.64s-18.29-6.54-27.72-9A24.16,24.16,0,0,0,878.14,143.13Z" transform="translate(-19 -95.02)"/><path d="M879.53,161.92c-3.18.12-2.46,4.64.74,4.67.84,0,1.68,0,2.48-.06,9.73-.4,19.7,2.29,29.37,5.24,2.38.73,4.88,1.55,6.61,3.33a53.13,53.13,0,0,0-17.17-8.82,131.8,131.8,0,0,0-18.68-4.11A17.07,17.07,0,0,0,879.53,161.92Z" opacity=".2" transform="translate(-19 -95.02)"/><path d="M944.67,246c.9,3.06,5.1,1.24,4.33-1.87-.2-.82-.44-1.62-.67-2.38-2.8-9.34-2.67-19.66-2.21-29.76.12-2.48.29-5.11,1.58-7.23a53,53,0,0,0-4.27,18.82,131,131,0,0,0,.65,19.12A16.79,16.79,0,0,0,944.67,246Z" opacity=".5" transform="translate(-19 -95.02)"/><path d="M885.33,117.68c-1.91-.34-2.06,2.45-.15,2.88.5.11,1,.19,1.49.27,5.86,1,11.47,3.88,16.87,6.87a9.25,9.25,0,0,1,3.53,2.82,32.56,32.56,0,0,0-9.14-7.44,80.5,80.5,0,0,0-10.63-4.83A10.33,10.33,0,0,0,885.33,117.68Z" opacity=".2" transform="translate(-19 -95.02)"/><path d="M855.75,191.64c-4.86,2.5-.75,9.37,4.24,7.09,1.31-.59,2.58-1.26,3.8-1.89,14.86-7.71,32.11-10.55,49.09-12.73,4.16-.54,8.6-1,12.46.64-10.51-3-21.69-3.2-32.5-1.95s-21.32,4-31.73,6.83A27.52,27.52,0,0,0,855.75,191.64Z" transform="translate(-19 -95.02)"/><path d="M869.64,218.38c-3.5,3.25,2,7.1,5.62,4,1-.82,1.87-1.68,2.75-2.5,10.64-10,24.71-17.11,38.72-23.66,3.44-1.61,17.59-3.25,21.37-3.16-9.87.88-30,4-39,8a214.88,214.88,0,0,0-25.42,14.27A26.28,26.28,0,0,0,869.64,218.38Z" opacity=".5" transform="translate(-19 -95.02)"/><path d="M894.56,261.05c-1,4.67,5.65,4.73,6.89.07.32-1.21.58-2.44.83-3.61,3.08-14.28,10.61-28.13,18.41-41.49,1.92-3.27,12.63-12.67,15.79-14.74-7.62,6.33-22.45,20.33-27.51,28.77a217.09,217.09,0,0,0-12.81,26.2A26.52,26.52,0,0,0,894.56,261.05Z" transform="translate(-19 -95.02)"/><path d="M944.72,97.22c-2.38-4.85-9.18-.86-7,4.11.57,1.31,1.2,2.58,1.81,3.79,7.32,14.83,9.84,32,11.73,48.82.46,4.13.85,8.54-.83,12.34,3.07-10.37,3.48-21.45,2.42-32.18s-3.57-21.19-6.21-31.55A28,28,0,0,0,944.72,97.22Z" transform="translate(-19 -95.02)"/><path d="M906.82,105.48a.88.88,0,0,0,.41.12c.26,0,.45-.27.56-.51.59-1.29.25-3,1.17-4a13.75,13.75,0,0,1,2.22,3.72l3.49-1.08a5.21,5.21,0,0,1-.66,4,5.31,5.31,0,0,1,1.64,1.12,1.79,1.79,0,0,1,.43,1.84,8.87,8.87,0,0,1-2.46.25,16.08,16.08,0,0,1-.27,4.59.83.83,0,0,1-.3.58c-.25.16-.59,0-.85-.14a8.09,8.09,0,0,1-2.87-3L908,116a1.37,1.37,0,0,1-.58.78.94.94,0,0,1-1.09-.38,2.74,2.74,0,0,1-.38-1.17l-.49-3a.7.7,0,0,0-.16-.42.75.75,0,0,0-.51-.15c-1.24,0-2.47-.05-3.7,0-.21-.65.44-1.26,1.07-1.54s1.38-.48,1.7-1.09c.64-1.25-1-3-.32-4.06C904.4,103.7,905.74,104.94,906.82,105.48Z" transform="translate(-19 -95.02)"/><path d="M974.21,121.92c2.43-3.31,7.44.27,5.18,3.69-.6.89-1.24,1.76-1.86,2.59-7.47,10.08-11.34,22.33-14.68,34.44-.82,3-1.61,6.14-.67,9.08-1.34-7.87-.47-16,1.55-23.71a146.49,146.49,0,0,1,8.38-22.39A20.92,20.92,0,0,1,974.21,121.92Z" opacity=".5" transform="translate(-19 -95.02)"/><path d="M1022.68,143.13c5-.15,5.68,7.49.66,7.89-1.31.11-2.64.14-3.9.17-15.44.42-30,6-44.05,12-3.44,1.47-7.06,3.13-9.07,6.29,6.32-7.33,14.64-12.7,23.5-16.64s18.28-6.54,27.72-9A24.17,24.17,0,0,1,1022.68,143.13Z" transform="translate(-19 -95.02)"/><path d="M1021.29,161.92c3.19.12,2.47,4.64-.73,4.67-.84,0-1.68,0-2.48-.06-9.74-.4-19.7,2.29-29.37,5.24-2.38.73-4.89,1.55-6.61,3.33a53.13,53.13,0,0,1,17.17-8.82,131.8,131.8,0,0,1,18.68-4.11A17,17,0,0,1,1021.29,161.92Z" opacity=".5" transform="translate(-19 -95.02)"/><path d="M1015.5,117.68c1.91-.34,2.06,2.45.15,2.88-.5.11-1,.19-1.49.27-5.86,1-11.48,3.88-16.88,6.87a9.22,9.22,0,0,0-3.52,2.82,32.51,32.51,0,0,1,9.13-7.44,81.21,81.21,0,0,1,10.64-4.83A10.33,10.33,0,0,1,1015.5,117.68Z" opacity=".2" transform="translate(-19 -95.02)"/><path d="M965.61,251.8c-.43,1.9-3.06.95-2.71-1,.09-.5.21-1,.32-1.48,1.33-5.8.85-12.08.17-18.22a9.27,9.27,0,0,0-1.25-4.34,32.37,32.37,0,0,1,3.35,11.3,80.08,80.08,0,0,1,.35,11.68A10,10,0,0,1,965.61,251.8Z" opacity=".2" transform="translate(-19 -95.02)"/><path d="M1014.27,239.19c1.5,2.54-2.18,2.36-3.8-.17-.42-.67-.81-1.34-1.18-2-4.56-7.76-11.49-15.42-18.48-22.83a25.38,25.38,0,0,0-5.73-4.94,90,90,0,0,1,15,12.83c4.48,4.69,8.44,9.58,12.32,14.45A24.65,24.65,0,0,1,1014.27,239.19Z" opacity=".5" transform="translate(-19 -95.02)"/><path d="M881.14,239.19c-1.5,2.54,2.18,2.36,3.79-.17.43-.67.82-1.34,1.19-2,4.56-7.76,11.49-15.42,18.48-22.83a25.17,25.17,0,0,1,5.73-4.94,89.64,89.64,0,0,0-15,12.83c-4.48,4.69-8.45,9.58-12.32,14.45A24.65,24.65,0,0,0,881.14,239.19Z" opacity=".2" transform="translate(-19 -95.02)"/><path d="M929.83,251.8c.43,1.9,3.06.95,2.71-1-.09-.5-.21-1-.32-1.48-1.33-5.8-.85-12.08-.17-18.22a9.27,9.27,0,0,1,1.25-4.34,32.37,32.37,0,0,0-3.35,11.3,80.08,80.08,0,0,0-.35,11.68A10,10,0,0,0,929.83,251.8Z" opacity=".2" transform="translate(-19 -95.02)"/><path d="M1000.16,136.72c1.91-.33,2.06,2.46.15,2.88-.5.11-1,.2-1.49.28-5.86,1-11.47,3.87-16.88,6.86a9.32,9.32,0,0,0-3.52,2.83,32.21,32.21,0,0,1,9.14-7.44,79.22,79.22,0,0,1,10.63-4.83A10.36,10.36,0,0,1,1000.16,136.72Z" opacity=".2" transform="translate(-19 -95.02)"/><path d="M982.27,99.33c1.65-1,2.83,1.51,1.21,2.62-.42.28-.86.55-1.27.81-5.07,3.12-9.2,7.88-13.09,12.67a9.07,9.07,0,0,0-2.21,3.94,32.3,32.3,0,0,1,5.69-10.32,78.61,78.61,0,0,1,8.06-8.45A10.47,10.47,0,0,1,982.27,99.33Z" opacity=".2" transform="translate(-19 -95.02)"/><path d="M1045.08,191.64c4.86,2.5.75,9.37-4.24,7.09-1.31-.59-2.59-1.26-3.8-1.89-14.86-7.71-32.12-10.55-49.09-12.73-4.16-.54-8.6-1-12.46.64,10.5-3,21.69-3.2,32.5-1.95s21.32,4,31.73,6.83A27.77,27.77,0,0,1,1045.08,191.64Z" transform="translate(-19 -95.02)"/><path d="M1031.19,218.38c3.49,3.25-2,7.1-5.63,4-1-.82-1.87-1.68-2.74-2.5-10.65-10-24.72-17.11-38.72-23.66-3.44-1.61-17.6-3.25-21.37-3.16,9.87.88,30,4,39,8a215,215,0,0,1,25.43,14.27A26.28,26.28,0,0,1,1031.19,218.38Z" opacity=".5" transform="translate(-19 -95.02)"/><path d="M990,266.38c.43,4.75-6.21,4-6.85-.79-.17-1.25-.27-2.51-.37-3.7-1.27-14.55-7-29.23-13.07-43.46-1.49-3.49-10.94-14.15-13.82-16.61,6.77,7.24,19.73,23,23.69,32A215.34,215.34,0,0,1,989,261.41,27.17,27.17,0,0,1,990,266.38Z" transform="translate(-19 -95.02)"/><path d="M994,105.48a.88.88,0,0,1-.41.12c-.27,0-.45-.27-.56-.51-.6-1.29-.25-3-1.17-4a13.75,13.75,0,0,0-2.22,3.72l-3.49-1.08a5.17,5.17,0,0,0,.66,4,5.36,5.36,0,0,0-1.65,1.12,1.81,1.81,0,0,0-.42,1.84,8.83,8.83,0,0,0,2.46.25,16.45,16.45,0,0,0,.26,4.59.65.65,0,0,0,1.16.44,8.09,8.09,0,0,0,2.87-3l1.3,3.1a1.33,1.33,0,0,0,.58.78.92.92,0,0,0,1.08-.38,2.62,2.62,0,0,0,.39-1.17l.48-3a.78.78,0,0,1,.17-.42.75.75,0,0,1,.51-.15c1.23,0,2.47-.05,3.7,0,.21-.65-.45-1.26-1.08-1.54s-1.37-.48-1.69-1.09c-.64-1.25,1-3,.31-4.06C996.43,103.7,995.09,104.94,994,105.48Z" transform="translate(-19 -95.02)"/><path d="M1004.54,249.26a.88.88,0,0,1-.41.12c-.27,0-.45-.27-.56-.51-.59-1.29-.25-3-1.17-4.05a13.75,13.75,0,0,0-2.22,3.72l-3.49-1.08a5.21,5.21,0,0,0,.66,4,5.31,5.31,0,0,0-1.64,1.12,1.81,1.81,0,0,0-.43,1.85,9.26,9.26,0,0,0,2.46.24,16.08,16.08,0,0,0,.27,4.59.83.83,0,0,0,.3.58c.25.17.59,0,.85-.14a8.09,8.09,0,0,0,2.87-3.05l1.3,3.11a1.38,1.38,0,0,0,.58.77.94.94,0,0,0,1.09-.37,2.83,2.83,0,0,0,.38-1.18l.49-3a.7.7,0,0,1,.16-.42.75.75,0,0,1,.51-.15c1.23,0,2.47,0,3.7,0,.21-.66-.44-1.27-1.07-1.54s-1.38-.49-1.7-1.1c-.64-1.25,1-3,.32-4.06C1007,247.48,1005.62,248.72,1004.54,249.26Z" opacity=".2" transform="translate(-19 -95.02)"/><path d="M1034.13,152.88a.89.89,0,0,1-.42.12c-.26,0-.44-.27-.55-.51-.6-1.29-.26-3-1.17-4.05a13.9,13.9,0,0,0-2.22,3.72l-3.49-1.08a5.17,5.17,0,0,0,.66,4,5.41,5.41,0,0,0-1.65,1.12,1.85,1.85,0,0,0-.43,1.85,8.94,8.94,0,0,0,2.47.24,16.45,16.45,0,0,0,.26,4.59.87.87,0,0,0,.3.58c.26.17.59,0,.85-.14a8.08,8.08,0,0,0,2.88-3l1.29,3.1a1.38,1.38,0,0,0,.58.77.92.92,0,0,0,1.09-.37,2.71,2.71,0,0,0,.39-1.18l.48-2.95a.86.86,0,0,1,.16-.42.78.78,0,0,1,.52-.15q1.84,0,3.69,0c.22-.66-.44-1.27-1.07-1.54s-1.38-.49-1.69-1.1c-.64-1.25,1-3,.31-4.06C1036.55,151.1,1035.2,152.34,1034.13,152.88Z" transform="translate(-19 -95.02)"/><path d="M915.84,263.68a1.18,1.18,0,0,1-.57.17c-.37,0-.63-.37-.78-.71-.83-1.8-.35-4.13-1.63-5.65a19.49,19.49,0,0,0-3.09,5.19l-4.87-1.51a7.3,7.3,0,0,0,.92,5.58,7.39,7.39,0,0,0-2.29,1.56,2.55,2.55,0,0,0-.6,2.57,12.49,12.49,0,0,0,3.44.34,22.43,22.43,0,0,0,.37,6.39.9.9,0,0,0,1.6.62,11.23,11.23,0,0,0,4-4.24l1.81,4.32a1.94,1.94,0,0,0,.81,1.08,1.3,1.3,0,0,0,1.52-.52,3.92,3.92,0,0,0,.53-1.64l.68-4.12a1,1,0,0,1,.22-.58,1.06,1.06,0,0,1,.72-.21c1.72,0,3.44-.06,5.15-.05.3-.91-.62-1.76-1.49-2.14s-1.92-.68-2.36-1.53c-.9-1.74,1.42-4.16.43-5.65C919.21,261.2,917.34,262.93,915.84,263.68Z" transform="translate(-19 -95.02)"/><path d="M866.63,155.75a1.12,1.12,0,0,1-.58.17c-.36,0-.62-.37-.78-.7-.82-1.8-.35-4.13-1.62-5.65a19.37,19.37,0,0,0-3.1,5.19l-4.86-1.51a7.21,7.21,0,0,0,.92,5.58,7.41,7.41,0,0,0-2.29,1.55,2.55,2.55,0,0,0-.6,2.58,12.42,12.42,0,0,0,3.44.34,22.84,22.84,0,0,0,.36,6.39,1.13,1.13,0,0,0,.42.81c.36.23.82,0,1.19-.19a11.26,11.26,0,0,0,4-4.25l1.81,4.32a2,2,0,0,0,.8,1.09,1.32,1.32,0,0,0,1.52-.53,3.84,3.84,0,0,0,.54-1.64l.67-4.11a1.07,1.07,0,0,1,.23-.58,1,1,0,0,1,.72-.21c1.71-.05,3.43-.06,5.15-.05.29-.91-.62-1.76-1.5-2.15s-1.92-.67-2.36-1.52c-.89-1.74,1.42-4.16.44-5.66C870,153.28,868.13,155,866.63,155.75Z" transform="translate(-19 -95.02)"/><path d="M1016,222.59a.65.65,0,0,1-.3.09c-.2,0-.33-.2-.42-.38-.44-1-.18-2.19-.86-3a10.28,10.28,0,0,0-1.64,2.76l-2.59-.8a3.81,3.81,0,0,0,.49,3,3.94,3.94,0,0,0-1.22.83,1.36,1.36,0,0,0-.31,1.36,6.55,6.55,0,0,0,1.82.19,11.69,11.69,0,0,0,.2,3.39.62.62,0,0,0,.22.43.62.62,0,0,0,.63-.1,6,6,0,0,0,2.12-2.26l1,2.3a1,1,0,0,0,.43.57.68.68,0,0,0,.81-.27,2,2,0,0,0,.28-.87l.36-2.19a.56.56,0,0,1,.12-.31.63.63,0,0,1,.38-.11l2.74,0c.16-.48-.33-.93-.79-1.14s-1-.35-1.26-.81c-.47-.92.76-2.2.23-3S1016.76,222.19,1016,222.59Z" opacity=".2" transform="translate(-19 -95.02)"/><path d="M949.11,261.19a.85.85,0,0,1-.31.09.58.58,0,0,1-.41-.38c-.44-.95-.19-2.19-.86-3a10.32,10.32,0,0,0-1.65,2.76l-2.58-.8a3.82,3.82,0,0,0,.49,3,3.91,3.91,0,0,0-1.22.82,1.36,1.36,0,0,0-.32,1.37,6.26,6.26,0,0,0,1.83.18,12.12,12.12,0,0,0,.19,3.4.67.67,0,0,0,.22.43c.19.12.44,0,.63-.1a6,6,0,0,0,2.13-2.26l1,2.3a1,1,0,0,0,.43.57.7.7,0,0,0,.81-.28,2,2,0,0,0,.28-.87l.36-2.18a.56.56,0,0,1,.12-.31.52.52,0,0,1,.38-.11c.91,0,1.82,0,2.74,0,.15-.48-.33-.93-.8-1.14s-1-.36-1.25-.81c-.48-.92.75-2.21.23-3S949.91,260.79,949.11,261.19Z" opacity=".2" transform="translate(-19 -95.02)"/><path d="M884.41,126.09a.58.58,0,0,1-.3.09c-.2,0-.34-.2-.42-.37-.44-1-.19-2.2-.86-3a10.11,10.11,0,0,0-1.65,2.75l-2.58-.8a3.8,3.8,0,0,0,.49,3,4.12,4.12,0,0,0-1.22.83,1.35,1.35,0,0,0-.32,1.37,7.07,7.07,0,0,0,1.83.18,12,12,0,0,0,.19,3.39.64.64,0,0,0,.23.44c.19.12.43,0,.63-.11a6,6,0,0,0,2.12-2.25l1,2.29a1.07,1.07,0,0,0,.43.58.7.7,0,0,0,.81-.28,2,2,0,0,0,.28-.87l.36-2.19a.56.56,0,0,1,.12-.31.63.63,0,0,1,.38-.11c.91,0,1.83,0,2.74,0,.15-.49-.33-.94-.8-1.14s-1-.36-1.25-.81c-.48-.93.76-2.21.23-3S885.21,125.7,884.41,126.09Z" opacity=".5" transform="translate(-19 -95.02)"/><path d="M918.84,202.22a.53.53,0,0,1-.3.09c-.2,0-.33-.2-.41-.37-.44-1-.19-2.2-.87-3a10.55,10.55,0,0,0-1.64,2.76l-2.59-.8a3.89,3.89,0,0,0,.49,3,4,4,0,0,0-1.21.83,1.35,1.35,0,0,0-.32,1.37,7,7,0,0,0,1.82.18,12,12,0,0,0,.2,3.39.63.63,0,0,0,.22.44c.19.12.44,0,.63-.11A6.05,6.05,0,0,0,917,207.7l1,2.29a1,1,0,0,0,.43.58.68.68,0,0,0,.8-.28,2,2,0,0,0,.29-.87l.36-2.19a.5.5,0,0,1,.12-.31.59.59,0,0,1,.38-.11c.91,0,1.82,0,2.73,0,.16-.49-.32-.94-.79-1.14s-1-.36-1.25-.81c-.48-.93.75-2.21.23-3S919.64,201.83,918.84,202.22Z" opacity=".5" transform="translate(-19 -95.02)"/><path d="M893.85,172.54a.53.53,0,0,1-.3.09c-.2,0-.33-.19-.41-.37-.44-1-.19-2.2-.87-3a10.23,10.23,0,0,0-1.64,2.75l-2.59-.8a3.89,3.89,0,0,0,.49,3,4.12,4.12,0,0,0-1.22.83,1.37,1.37,0,0,0-.31,1.37,6.55,6.55,0,0,0,1.82.18,12.14,12.14,0,0,0,.2,3.4.62.62,0,0,0,.22.43c.19.12.44,0,.63-.11A6,6,0,0,0,892,178l1,2.29a1,1,0,0,0,.42.58.7.7,0,0,0,.81-.28,2,2,0,0,0,.29-.87l.35-2.19a.51.51,0,0,1,.12-.3.53.53,0,0,1,.39-.11q1.36,0,2.73,0c.16-.49-.33-.94-.79-1.14s-1-.36-1.26-.81c-.47-.93.76-2.21.24-3S894.65,172.15,893.85,172.54Z" opacity=".5" transform="translate(-19 -95.02)"/><path d="M1001.19,179.53a.53.53,0,0,1-.3.09c-.2,0-.33-.2-.41-.37-.44-1-.19-2.2-.87-3A10.28,10.28,0,0,0,998,179l-2.59-.8a3.89,3.89,0,0,0,.49,3,4.12,4.12,0,0,0-1.22.83,1.37,1.37,0,0,0-.31,1.37,7,7,0,0,0,1.82.18,12,12,0,0,0,.2,3.39.63.63,0,0,0,.22.44c.19.12.44,0,.63-.11a6.05,6.05,0,0,0,2.13-2.25l1,2.29a1,1,0,0,0,.43.58.69.69,0,0,0,.8-.28,2,2,0,0,0,.29-.87l.36-2.19a.55.55,0,0,1,.11-.31.64.64,0,0,1,.39-.11c.91,0,1.82,0,2.73,0,.16-.49-.33-.94-.79-1.14s-1-.36-1.26-.81c-.47-.93.76-2.21.24-3S1002,179.14,1001.19,179.53Z" opacity=".5" transform="translate(-19 -95.02)"/><path d="M949.11,173.69a.59.59,0,0,1-.31.09c-.19,0-.33-.2-.41-.37-.44-1-.19-2.2-.86-3a10.11,10.11,0,0,0-1.65,2.75l-2.58-.8a3.8,3.8,0,0,0,.49,3,4.12,4.12,0,0,0-1.22.83,1.35,1.35,0,0,0-.32,1.37,7,7,0,0,0,1.83.18,12,12,0,0,0,.19,3.39.67.67,0,0,0,.22.44c.19.12.44,0,.63-.11a6,6,0,0,0,2.13-2.25l1,2.29a1.07,1.07,0,0,0,.43.58.7.7,0,0,0,.81-.28,2,2,0,0,0,.28-.87l.36-2.19a.56.56,0,0,1,.12-.31.63.63,0,0,1,.38-.11c.91,0,1.82,0,2.74,0,.15-.49-.33-.94-.8-1.14s-1-.36-1.25-.81c-.48-.93.75-2.21.23-3S949.91,173.3,949.11,173.69Z" opacity=".2" transform="translate(-19 -95.02)"/><path d="M932.76,180.8a.53.53,0,0,1-.3.09c-.2,0-.33-.2-.41-.37-.44-1-.19-2.2-.87-3a10.08,10.08,0,0,0-1.64,2.75l-2.59-.8a3.89,3.89,0,0,0,.49,3,4.12,4.12,0,0,0-1.22.83,1.37,1.37,0,0,0-.31,1.37,7,7,0,0,0,1.82.18,12,12,0,0,0,.2,3.39.63.63,0,0,0,.22.44c.19.12.44,0,.63-.11a6.05,6.05,0,0,0,2.13-2.25l1,2.29a1,1,0,0,0,.43.58.69.69,0,0,0,.8-.28,2,2,0,0,0,.29-.87l.36-2.19a.55.55,0,0,1,.11-.31.57.57,0,0,1,.39-.1q1.37,0,2.73,0c.16-.49-.33-.94-.79-1.14s-1-.36-1.26-.81c-.47-.93.76-2.21.24-3S933.56,180.41,932.76,180.8Z" opacity=".3" transform="translate(-19 -95.02)"/><path d="M917.53,137.77a.59.59,0,0,1-.31.09c-.19,0-.33-.2-.41-.37-.44-1-.19-2.2-.86-3a10.32,10.32,0,0,0-1.65,2.76l-2.58-.8a3.8,3.8,0,0,0,.49,3,4.12,4.12,0,0,0-1.22.83,1.35,1.35,0,0,0-.32,1.37,7.07,7.07,0,0,0,1.83.18,12,12,0,0,0,.19,3.39.67.67,0,0,0,.22.44c.19.12.44,0,.63-.11a6,6,0,0,0,2.13-2.25l1,2.29a1.07,1.07,0,0,0,.43.58.7.7,0,0,0,.81-.28,2,2,0,0,0,.28-.87l.36-2.19a.56.56,0,0,1,.12-.31.63.63,0,0,1,.38-.11c.91,0,1.83,0,2.74,0,.15-.49-.33-.94-.8-1.14s-1-.36-1.25-.81c-.48-.93.75-2.21.23-3S918.33,137.37,917.53,137.77Z" opacity=".2" transform="translate(-19 -95.02)"/><path d="M947.54,193.92a.59.59,0,0,1-.31.09c-.19,0-.33-.19-.41-.37-.44-1-.19-2.2-.86-3a10.26,10.26,0,0,0-1.65,2.75l-2.58-.8a3.8,3.8,0,0,0,.49,3,4.12,4.12,0,0,0-1.22.83,1.35,1.35,0,0,0-.32,1.37,6.66,6.66,0,0,0,1.83.18,12.14,12.14,0,0,0,.19,3.4.67.67,0,0,0,.22.43c.19.12.44,0,.64-.11a6,6,0,0,0,2.12-2.25l1,2.29a1.07,1.07,0,0,0,.43.58.7.7,0,0,0,.81-.28,2,2,0,0,0,.28-.87l.36-2.19a.51.51,0,0,1,.12-.3.52.52,0,0,1,.38-.11c.91,0,1.83,0,2.74,0,.15-.49-.33-.94-.8-1.14s-1-.36-1.25-.81c-.48-.93.75-2.21.23-3S948.34,193.53,947.54,193.92Z" opacity=".3" transform="translate(-19 -95.02)"/></g><path fill="#6c63ff" d="M303.68,158.09c-2.42-3.3-7.42.27-5.16,3.68.59.89,1.24,1.76,1.85,2.58,7.45,10.06,11.31,22.28,14.64,34.35.81,3,1.6,6.13.67,9.06,1.33-7.85.47-15.95-1.54-23.65s-5.14-15.06-8.37-22.33A19.86,19.86,0,0,0,303.68,158.09Z" opacity=".5" transform="translate(-19 -95.02)"/><path fill="#6c63ff" d="M255.33,179.25c-5-.16-5.66,7.47-.66,7.87,1.31.1,2.64.13,3.9.17,15.39.42,29.95,6,43.94,12,3.43,1.47,7,3.13,9,6.28-6.31-7.31-14.61-12.67-23.44-16.6s-18.24-6.52-27.64-8.93A23.55,23.55,0,0,0,255.33,179.25Z" transform="translate(-19 -95.02)"/><path fill="#6c63ff" d="M256.72,198c-3.18.12-2.46,4.63.74,4.65.83,0,1.67,0,2.46-.06,9.71-.39,19.66,2.29,29.3,5.23,2.37.72,4.87,1.55,6.59,3.32a52.82,52.82,0,0,0-17.12-8.79,129.87,129.87,0,0,0-18.64-4.1A16.87,16.87,0,0,0,256.72,198Z" opacity=".2" transform="translate(-19 -95.02)"/><path fill="#6c63ff" d="M321.68,281.86c.9,3,5.1,1.23,4.33-1.87-.2-.81-.45-1.61-.68-2.38-2.79-9.31-2.66-19.6-2.2-29.68.12-2.47.29-5.1,1.58-7.2a52.71,52.71,0,0,0-4.26,18.77,130.32,130.32,0,0,0,.65,19.07A16.81,16.81,0,0,0,321.68,281.86Z" opacity=".5" transform="translate(-19 -95.02)"/><path fill="#6c63ff" d="M262.5,153.86c-1.91-.33-2.05,2.45-.15,2.87.5.11,1,.2,1.48.28,5.85,1,11.45,3.86,16.84,6.85a9.17,9.17,0,0,1,3.51,2.81,32.19,32.19,0,0,0-9.11-7.42,80.19,80.19,0,0,0-10.61-4.82A10.77,10.77,0,0,0,262.5,153.86Z" opacity=".2" transform="translate(-19 -95.02)"/><path fill="#6c63ff" d="M233,227.63c-4.85,2.49-.75,9.35,4.23,7.07,1.3-.59,2.57-1.26,3.79-1.89,14.81-7.68,32-10.51,49-12.69,4.15-.54,8.58-1,12.42.64-10.47-3-21.63-3.2-32.41-1.95s-21.27,4-31.65,6.81A28,28,0,0,0,233,227.63Z" transform="translate(-19 -95.02)"/><path fill="#6c63ff" d="M246.85,254.3c-3.48,3.24,2,7.08,5.61,4,1-.82,1.87-1.68,2.74-2.49,10.62-10,24.65-17.07,38.62-23.6,3.43-1.61,17.55-3.25,21.31-3.16-9.84.88-29.94,4-38.88,8a215.25,215.25,0,0,0-25.36,14.23A27.37,27.37,0,0,0,246.85,254.3Z" opacity=".5" transform="translate(-19 -95.02)"/><path fill="#6c63ff" d="M271.71,296.86c-1,4.65,5.63,4.72,6.87.07.32-1.22.58-2.44.83-3.61,3.07-14.23,10.58-28.05,18.36-41.37,1.91-3.27,12.59-12.64,15.74-14.71-7.6,6.32-22.39,20.28-27.43,28.7a215.24,215.24,0,0,0-12.78,26.13A27.18,27.18,0,0,0,271.71,296.86Z" transform="translate(-19 -95.02)"/><path fill="#6c63ff" d="M321.74,133.46c-2.38-4.84-9.16-.86-7,4.1.56,1.3,1.19,2.57,1.79,3.78,7.31,14.78,9.82,31.88,11.7,48.69.46,4.12.86,8.52-.82,12.31,3.06-10.35,3.47-21.4,2.41-32.1s-3.55-21.14-6.19-31.47A28.48,28.48,0,0,0,321.74,133.46Z" transform="translate(-19 -95.02)"/><path fill="#6c63ff" d="M283.93,141.69a.88.88,0,0,0,.41.12c.27,0,.45-.26.56-.5.59-1.29.25-3,1.17-4.05a14,14,0,0,1,2.21,3.72l3.48-1.08a5.15,5.15,0,0,1-.66,4,5.17,5.17,0,0,1,1.64,1.11,1.81,1.81,0,0,1,.43,1.85,9.22,9.22,0,0,1-2.46.24,16.28,16.28,0,0,1-.26,4.57.85.85,0,0,1-.3.59c-.25.16-.59,0-.85-.14a8,8,0,0,1-2.86-3l-1.3,3.09a1.47,1.47,0,0,1-.57.78.94.94,0,0,1-1.09-.38,2.65,2.65,0,0,1-.38-1.17l-.49-2.95a.65.65,0,0,0-.16-.41.7.7,0,0,0-.51-.15c-1.23,0-2.46,0-3.69,0-.21-.65.44-1.26,1.07-1.53s1.37-.49,1.69-1.1c.64-1.24-1-3-.31-4C281.52,139.92,282.86,141.16,283.93,141.69Z" transform="translate(-19 -95.02)"/><path fill="#6c63ff" d="M351.15,158.09c2.42-3.3,7.42.27,5.16,3.68-.59.89-1.24,1.76-1.85,2.58-7.45,10.06-11.32,22.28-14.64,34.35-.82,3-1.61,6.13-.68,9.06-1.33-7.85-.46-15.95,1.55-23.65s5.14-15.06,8.37-22.33A19.86,19.86,0,0,1,351.15,158.09Z" opacity=".5" transform="translate(-19 -95.02)"/><path fill="#6c63ff" d="M399.49,179.25c5-.16,5.67,7.47.66,7.87-1.31.1-2.63.13-3.89.17-15.4.42-29.95,6-43.94,12-3.43,1.47-7,3.13-9,6.28,6.3-7.31,14.6-12.67,23.44-16.6S385,182.45,394.36,180A23.55,23.55,0,0,1,399.49,179.25Z" transform="translate(-19 -95.02)"/><path fill="#6c63ff" d="M398.11,198c3.17.12,2.46,4.63-.74,4.65-.83,0-1.67,0-2.47-.06-9.71-.39-19.65,2.29-29.29,5.23-2.37.72-4.87,1.55-6.59,3.32a52.82,52.82,0,0,1,17.12-8.79,129.57,129.57,0,0,1,18.64-4.1A16.87,16.87,0,0,1,398.11,198Z" opacity=".5" transform="translate(-19 -95.02)"/><path fill="#6c63ff" d="M392.32,153.86c1.92-.33,2.06,2.45.16,2.87-.5.11-1,.2-1.49.28-5.85,1-11.44,3.86-16.83,6.85a9.17,9.17,0,0,0-3.51,2.81,32.05,32.05,0,0,1,9.11-7.42,80.07,80.07,0,0,1,10.6-4.82A11.26,11.26,0,0,1,392.32,153.86Z" opacity=".2" transform="translate(-19 -95.02)"/><path fill="#6c63ff" d="M342.58,287.63c-.43,1.89-3.06.95-2.71-1,.09-.5.2-1,.31-1.47,1.34-5.78.85-12.05.18-18.17a9.16,9.16,0,0,0-1.25-4.33A32.2,32.2,0,0,1,342.45,274a79.53,79.53,0,0,1,.35,11.64A10.69,10.69,0,0,1,342.58,287.63Z" opacity=".2" transform="translate(-19 -95.02)"/><path fill="#6c63ff" d="M391.1,275.06c1.49,2.52-2.17,2.35-3.78-.18-.43-.66-.81-1.33-1.19-2-4.54-7.74-11.46-15.38-18.42-22.77a25.54,25.54,0,0,0-5.72-4.93A89.65,89.65,0,0,1,377,258c4.47,4.68,8.42,9.55,12.29,14.41A24.53,24.53,0,0,1,391.1,275.06Z" opacity=".5" transform="translate(-19 -95.02)"/><path fill="#6c63ff" d="M258.32,275.06c-1.49,2.52,2.18,2.35,3.79-.18.42-.66.81-1.33,1.18-2,4.54-7.74,11.46-15.38,18.43-22.77a25.49,25.49,0,0,1,5.71-4.93,90.46,90.46,0,0,0-15,12.8c-4.47,4.68-8.42,9.55-12.28,14.41A24.65,24.65,0,0,0,258.32,275.06Z" opacity=".2" transform="translate(-19 -95.02)"/><path fill="#6c63ff" d="M306.88,287.63c.43,1.89,3.05.95,2.71-1-.09-.5-.21-1-.32-1.47-1.33-5.78-.85-12.05-.17-18.17a9.27,9.27,0,0,1,1.24-4.33A32.18,32.18,0,0,0,307,274a79.54,79.54,0,0,0-.36,11.64A10.7,10.7,0,0,0,306.88,287.63Z" opacity=".2" transform="translate(-19 -95.02)"/><path fill="#6c63ff" d="M377,172.85c1.91-.33,2.05,2.46.15,2.88-.5.11-1,.19-1.48.27-5.85,1-11.45,3.87-16.84,6.85a9.1,9.1,0,0,0-3.51,2.82,32.22,32.22,0,0,1,9.11-7.43,78.86,78.86,0,0,1,10.61-4.81A10.06,10.06,0,0,1,377,172.85Z" opacity=".2" transform="translate(-19 -95.02)"/><path fill="#6c63ff" d="M359.18,135.56c1.65-1,2.82,1.51,1.22,2.61-.43.29-.86.55-1.28.81-5.05,3.11-9.17,7.86-13.05,12.64a9.18,9.18,0,0,0-2.21,3.93,32.32,32.32,0,0,1,5.68-10.29,80.24,80.24,0,0,1,8-8.44A10.82,10.82,0,0,1,359.18,135.56Z" opacity=".2" transform="translate(-19 -95.02)"/><path fill="#6c63ff" d="M421.83,227.63c4.85,2.49.75,9.35-4.23,7.07-1.3-.59-2.58-1.26-3.79-1.89-14.82-7.68-32-10.51-49-12.69-4.15-.54-8.58-1-12.42.64,10.47-3,21.62-3.2,32.41-1.95s21.26,4,31.65,6.81A28.26,28.26,0,0,1,421.83,227.63Z" transform="translate(-19 -95.02)"/><path fill="#6c63ff" d="M408,254.3c3.48,3.24-2,7.08-5.61,4-1-.82-1.87-1.68-2.74-2.49C389,245.8,375,238.7,361,232.17c-3.43-1.61-17.55-3.25-21.32-3.16,9.85.88,29.95,4,38.89,8a215.25,215.25,0,0,1,25.36,14.23A27.37,27.37,0,0,1,408,254.3Z" opacity=".5" transform="translate(-19 -95.02)"/><path fill="#6c63ff" d="M366.92,302.17c.43,4.74-6.18,4-6.82-.79-.17-1.25-.27-2.5-.38-3.68-1.26-14.51-7-29.16-13-43.35-1.49-3.48-10.91-14.12-13.78-16.57,6.75,7.23,19.67,22.93,23.62,31.91a216.35,216.35,0,0,1,9.41,27.52A27.21,27.21,0,0,1,366.92,302.17Z" transform="translate(-19 -95.02)"/><path fill="#6c63ff" d="M370.89,141.69a.85.85,0,0,1-.41.12c-.26,0-.44-.26-.55-.5-.6-1.29-.26-3-1.17-4.05a14,14,0,0,0-2.21,3.72l-3.49-1.08a5.19,5.19,0,0,0,.66,4,5.28,5.28,0,0,0-1.64,1.11,1.82,1.82,0,0,0-.42,1.85,9.22,9.22,0,0,0,2.46.24,15.92,15.92,0,0,0,.26,4.57.85.85,0,0,0,.3.59c.25.16.59,0,.85-.14a8.19,8.19,0,0,0,2.86-3l1.3,3.09a1.37,1.37,0,0,0,.57.78.94.94,0,0,0,1.09-.38,2.79,2.79,0,0,0,.38-1.17l.49-2.95a.65.65,0,0,1,.16-.41.7.7,0,0,1,.51-.15c1.23,0,2.46,0,3.69,0,.21-.65-.44-1.26-1.07-1.53s-1.38-.49-1.69-1.1c-.64-1.24,1-3,.31-4C373.31,139.92,372,141.16,370.89,141.69Z" transform="translate(-19 -95.02)"/><path fill="#6c63ff" d="M381.4,285.09a.9.9,0,0,1-.41.13c-.27,0-.45-.27-.56-.51-.59-1.29-.25-3-1.16-4a13.85,13.85,0,0,0-2.22,3.71l-3.48-1.08a5.14,5.14,0,0,0,.66,4,5.2,5.2,0,0,0-1.64,1.12,1.81,1.81,0,0,0-.43,1.84,8.83,8.83,0,0,0,2.46.25,16.31,16.31,0,0,0,.26,4.57.87.87,0,0,0,.3.58.84.84,0,0,0,.85-.14,8,8,0,0,0,2.86-3l1.3,3.1a1.38,1.38,0,0,0,.58.77.93.93,0,0,0,1.08-.37,2.84,2.84,0,0,0,.39-1.18l.48-2.94a.7.7,0,0,1,.16-.42.76.76,0,0,1,.52-.15c1.22,0,2.45,0,3.68,0,.21-.66-.44-1.26-1.07-1.54s-1.37-.48-1.69-1.09c-.64-1.25,1-3,.31-4.05C383.81,283.32,382.47,284.56,381.4,285.09Z" opacity=".2" transform="translate(-19 -95.02)"/><path fill="#6c63ff" d="M410.91,189a.88.88,0,0,1-.41.12c-.27,0-.45-.27-.56-.51-.59-1.28-.25-3-1.17-4a14.08,14.08,0,0,0-2.21,3.71l-3.48-1.07a5.15,5.15,0,0,0,.66,4,5.17,5.17,0,0,0-1.64,1.11,1.79,1.79,0,0,0-.43,1.84,8.83,8.83,0,0,0,2.46.25,16.28,16.28,0,0,0,.26,4.57.85.85,0,0,0,.3.59c.25.16.59,0,.85-.15a7.93,7.93,0,0,0,2.86-3l1.3,3.09a1.41,1.41,0,0,0,.57.77.92.92,0,0,0,1.09-.37,2.65,2.65,0,0,0,.38-1.17l.49-2.95a.65.65,0,0,1,.16-.41.7.7,0,0,1,.51-.15c1.23,0,2.46,0,3.69,0,.21-.65-.44-1.26-1.07-1.54s-1.37-.48-1.69-1.09c-.64-1.24,1-3,.31-4C413.32,187.19,412,188.44,410.91,189Z" transform="translate(-19 -95.02)"/><path fill="#6c63ff" d="M292.93,299.48a1.18,1.18,0,0,1-.57.17c-.37,0-.62-.37-.78-.71-.82-1.79-.35-4.12-1.62-5.63a19.35,19.35,0,0,0-3.08,5.17L282,297a7.25,7.25,0,0,0,.92,5.56,7.53,7.53,0,0,0-2.29,1.55,2.55,2.55,0,0,0-.59,2.57,12.38,12.38,0,0,0,3.43.34,22.77,22.77,0,0,0,.36,6.38,1.17,1.17,0,0,0,.42.81c.35.22.82,0,1.18-.2a11.26,11.26,0,0,0,4-4.23l1.81,4.31a2,2,0,0,0,.8,1.08,1.3,1.3,0,0,0,1.51-.53,3.67,3.67,0,0,0,.54-1.63l.67-4.1a1.07,1.07,0,0,1,.23-.58,1,1,0,0,1,.72-.21c1.71-.05,3.42-.06,5.13-.05.3-.91-.61-1.76-1.49-2.14s-1.91-.67-2.35-1.52c-.9-1.74,1.41-4.15.43-5.64C296.3,297,294.43,298.73,292.93,299.48Z" transform="translate(-19 -95.02)"/><path fill="#6c63ff" d="M243.85,191.84a1.19,1.19,0,0,1-.58.17c-.36,0-.62-.37-.77-.71-.83-1.79-.35-4.12-1.62-5.63a19.38,19.38,0,0,0-3.09,5.17l-4.85-1.5a7.21,7.21,0,0,0,.91,5.56,7.49,7.49,0,0,0-2.28,1.55A2.55,2.55,0,0,0,231,199a12.38,12.38,0,0,0,3.43.34,22.41,22.41,0,0,0,.37,6.38,1.2,1.2,0,0,0,.41.81c.36.23.83,0,1.19-.2a11.26,11.26,0,0,0,4-4.23l1.8,4.31a1.94,1.94,0,0,0,.81,1.08,1.31,1.31,0,0,0,1.51-.52,3.74,3.74,0,0,0,.53-1.64l.68-4.1a1,1,0,0,1,.22-.58,1.06,1.06,0,0,1,.72-.21c1.71-.05,3.42-.06,5.14-.05.29-.91-.62-1.76-1.49-2.14s-1.92-.67-2.36-1.52c-.89-1.74,1.42-4.15.44-5.64C247.21,189.37,245.34,191.09,243.85,191.84Z" transform="translate(-19 -95.02)"/><path fill="#6c63ff" d="M392.79,258.5a.86.86,0,0,1-.3.09.59.59,0,0,1-.42-.38c-.44-.95-.18-2.19-.86-3a10.33,10.33,0,0,0-1.64,2.75l-2.58-.8a3.87,3.87,0,0,0,.49,2.95,4,4,0,0,0-1.21.83,1.34,1.34,0,0,0-.32,1.36,6.22,6.22,0,0,0,1.82.18,12,12,0,0,0,.2,3.39.62.62,0,0,0,.22.43c.19.12.43,0,.63-.1a6.11,6.11,0,0,0,2.12-2.25l1,2.29a1,1,0,0,0,.42.57.7.7,0,0,0,.81-.28,2,2,0,0,0,.28-.87l.36-2.18a.53.53,0,0,1,.12-.3.49.49,0,0,1,.38-.11q1.37,0,2.73,0c.15-.48-.33-.93-.8-1.14s-1-.35-1.25-.81c-.47-.92.76-2.2.24-3S393.58,258.1,392.79,258.5Z" opacity=".2" transform="translate(-19 -95.02)"/><path fill="#6c63ff" d="M326.11,297a.55.55,0,0,1-.3.09c-.2,0-.33-.19-.41-.37-.44-1-.19-2.19-.87-3a10.66,10.66,0,0,0-1.64,2.75l-2.57-.8a3.84,3.84,0,0,0,.48,3,4.17,4.17,0,0,0-1.21.82,1.35,1.35,0,0,0-.32,1.37,7,7,0,0,0,1.82.18,12.07,12.07,0,0,0,.2,3.39.62.62,0,0,0,.22.43c.19.12.44,0,.63-.11a6,6,0,0,0,2.12-2.25l1,2.29a1,1,0,0,0,.42.58.7.7,0,0,0,.81-.28,2,2,0,0,0,.28-.87l.36-2.18a.56.56,0,0,1,.12-.31.63.63,0,0,1,.38-.11c.91,0,1.82,0,2.73,0,.15-.49-.33-.94-.79-1.14s-1-.36-1.25-.81c-.48-.92.75-2.2.23-3S326.91,296.6,326.11,297Z" opacity=".2" transform="translate(-19 -95.02)"/><path fill="#6c63ff" d="M261.58,162.25a.53.53,0,0,1-.3.09c-.2,0-.33-.2-.41-.37-.44-1-.19-2.19-.86-3a10.13,10.13,0,0,0-1.64,2.75l-2.58-.8a3.81,3.81,0,0,0,.49,3,3.91,3.91,0,0,0-1.22.82,1.35,1.35,0,0,0-.31,1.37,6.91,6.91,0,0,0,1.82.18,12.07,12.07,0,0,0,.19,3.39.62.62,0,0,0,.22.43c.19.12.44,0,.63-.11a5.88,5.88,0,0,0,2.12-2.25l1,2.29a1,1,0,0,0,.43.58.69.69,0,0,0,.8-.28,2,2,0,0,0,.28-.87l.36-2.18a.56.56,0,0,1,.12-.31.63.63,0,0,1,.38-.11c.91,0,1.82,0,2.73,0,.16-.49-.33-.94-.79-1.14s-1-.36-1.25-.81c-.48-.92.75-2.2.23-3S262.38,161.86,261.58,162.25Z" opacity=".5" transform="translate(-19 -95.02)"/><path fill="#6c63ff" d="M295.93,238.18a.59.59,0,0,1-.31.09c-.19,0-.33-.2-.41-.37-.44-1-.19-2.19-.86-3a10.39,10.39,0,0,0-1.64,2.75l-2.58-.8a3.9,3.9,0,0,0,.49,3,3.75,3.75,0,0,0-1.21.82,1.35,1.35,0,0,0-.32,1.37,7,7,0,0,0,1.82.18,12,12,0,0,0,.19,3.38.67.67,0,0,0,.22.44c.19.12.44,0,.63-.11a6,6,0,0,0,2.12-2.25l1,2.29a1.07,1.07,0,0,0,.43.58.68.68,0,0,0,.8-.28,2,2,0,0,0,.29-.87l.36-2.18a.5.5,0,0,1,.12-.31.59.59,0,0,1,.38-.11c.91,0,1.82,0,2.72,0,.16-.49-.32-.94-.79-1.14s-1-.36-1.25-.81c-.47-.92.76-2.2.23-3S296.72,237.79,295.93,238.18Z" opacity=".5" transform="translate(-19 -95.02)"/><path fill="#6c63ff" d="M271,208.58a.55.55,0,0,1-.3.09c-.2,0-.33-.2-.41-.37-.44-1-.19-2.19-.87-3a10.66,10.66,0,0,0-1.64,2.75l-2.57-.8a3.85,3.85,0,0,0,.48,3,4,4,0,0,0-1.21.82,1.35,1.35,0,0,0-.32,1.37,7,7,0,0,0,1.82.18,12,12,0,0,0,.2,3.38.63.63,0,0,0,.22.44c.19.12.44,0,.63-.11a6,6,0,0,0,2.12-2.25l1,2.29a1,1,0,0,0,.42.57.68.68,0,0,0,.81-.27,2,2,0,0,0,.28-.87l.36-2.18a.56.56,0,0,1,.12-.31.63.63,0,0,1,.38-.11c.91,0,1.82,0,2.73,0,.15-.49-.33-.94-.79-1.14s-1-.36-1.25-.81c-.48-.92.75-2.2.23-3S271.8,208.19,271,208.58Z" opacity=".5" transform="translate(-19 -95.02)"/><path fill="#6c63ff" d="M378.06,215.55a.58.58,0,0,1-.3.09c-.2,0-.33-.2-.42-.37-.43-1-.18-2.19-.86-3a10.66,10.66,0,0,0-1.64,2.75l-2.57-.8a3.85,3.85,0,0,0,.48,3,3.75,3.75,0,0,0-1.21.82,1.35,1.35,0,0,0-.32,1.37,7,7,0,0,0,1.82.18,12,12,0,0,0,.2,3.38.63.63,0,0,0,.22.44c.19.12.44,0,.63-.11a6.11,6.11,0,0,0,2.12-2.25l1,2.29a1,1,0,0,0,.42.57.68.68,0,0,0,.81-.27,2,2,0,0,0,.28-.87l.36-2.18a.56.56,0,0,1,.12-.31.59.59,0,0,1,.38-.11l2.73,0c.15-.48-.33-.93-.79-1.13s-1-.36-1.25-.81c-.48-.92.75-2.2.23-3S378.86,215.16,378.06,215.55Z" opacity=".5" transform="translate(-19 -95.02)"/><path fill="#6c63ff" d="M326.11,209.73a.8.8,0,0,1-.3.09c-.2,0-.33-.2-.41-.38-.44-.95-.19-2.19-.87-3a10.33,10.33,0,0,0-1.64,2.75l-2.57-.8a3.82,3.82,0,0,0,.48,2.95,4.2,4.2,0,0,0-1.21.83,1.34,1.34,0,0,0-.32,1.36,6.22,6.22,0,0,0,1.82.18,12,12,0,0,0,.2,3.39.62.62,0,0,0,.22.43c.19.12.44,0,.63-.1a6,6,0,0,0,2.12-2.25l1,2.29a1,1,0,0,0,.42.57.7.7,0,0,0,.81-.28,2,2,0,0,0,.28-.86l.36-2.18a.54.54,0,0,1,.12-.31.52.52,0,0,1,.38-.11q1.37,0,2.73,0c.15-.48-.33-.93-.79-1.14s-1-.35-1.25-.8c-.48-.93.75-2.21.23-3S326.91,209.33,326.11,209.73Z" opacity=".2" transform="translate(-19 -95.02)"/><path fill="#6c63ff" d="M309.81,216.82a.69.69,0,0,1-.3.09c-.2,0-.33-.2-.42-.38-.44-.95-.18-2.18-.86-3a10.49,10.49,0,0,0-1.64,2.75l-2.58-.8a3.9,3.9,0,0,0,.49,3,3.75,3.75,0,0,0-1.21.82,1.34,1.34,0,0,0-.32,1.36,6.59,6.59,0,0,0,1.82.19,12,12,0,0,0,.2,3.38.6.6,0,0,0,.22.43.62.62,0,0,0,.63-.1,6.11,6.11,0,0,0,2.12-2.25l1,2.29a1,1,0,0,0,.42.57.71.71,0,0,0,.81-.27,2,2,0,0,0,.28-.87l.36-2.18a.56.56,0,0,1,.12-.31.49.49,0,0,1,.38-.11c.91,0,1.82,0,2.73,0,.15-.48-.33-.93-.79-1.13s-1-.36-1.25-.81c-.48-.92.75-2.2.23-3S310.61,216.42,309.81,216.82Z" opacity=".3" transform="translate(-19 -95.02)"/><path fill="#6c63ff" d="M294.62,173.9a.59.59,0,0,1-.31.09c-.19,0-.33-.2-.41-.37-.44-1-.19-2.19-.86-3a10.39,10.39,0,0,0-1.64,2.75l-2.58-.8a3.81,3.81,0,0,0,.49,3,3.91,3.91,0,0,0-1.22.82,1.37,1.37,0,0,0-.31,1.37,7,7,0,0,0,1.82.18,12,12,0,0,0,.19,3.38.58.58,0,0,0,.22.43.62.62,0,0,0,.63-.1,6,6,0,0,0,2.12-2.25l1,2.29a1,1,0,0,0,.43.57.68.68,0,0,0,.8-.27,2,2,0,0,0,.29-.87l.35-2.18a.56.56,0,0,1,.12-.31.52.52,0,0,1,.38-.11l2.73,0c.16-.48-.32-.93-.79-1.13s-1-.36-1.25-.81c-.47-.92.75-2.2.23-3S295.41,173.51,294.62,173.9Z" opacity=".2" transform="translate(-19 -95.02)"/><path fill="#6c63ff" d="M324.55,229.91a.85.85,0,0,1-.31.09.58.58,0,0,1-.41-.38c-.44-1-.19-2.19-.86-3a10.08,10.08,0,0,0-1.64,2.75l-2.58-.8a3.79,3.79,0,0,0,.49,2.95,4.12,4.12,0,0,0-1.22.83,1.36,1.36,0,0,0-.31,1.36,6.19,6.19,0,0,0,1.82.18,12,12,0,0,0,.19,3.39.67.67,0,0,0,.22.43c.19.12.44,0,.63-.1a6,6,0,0,0,2.12-2.25l1,2.29a1.08,1.08,0,0,0,.43.57.68.68,0,0,0,.8-.28,2,2,0,0,0,.29-.87l.36-2.18a.45.45,0,0,1,.12-.3.49.49,0,0,1,.38-.11c.91,0,1.81,0,2.72,0,.16-.48-.32-.93-.79-1.14s-1-.35-1.25-.81c-.47-.92.75-2.2.23-3S325.34,229.51,324.55,229.91Z" opacity=".3" transform="translate(-19 -95.02)"/></svg>