<svg xmlns="http://www.w3.org/2000/svg" width="1039" height="564.4" data-name="Layer 1" viewBox="0 0 1039 564.4"><title>portfolio update</title><rect width="667" height="432.625" x="186" y="130.132" fill="#3f3d56"/><circle cx="875.352" cy="206.263" r="14.756" fill="none" stroke="#3f3d56" stroke-miterlimit="10" stroke-width="2"/><circle cx="134.352" cy="145.263" r="14.756" fill="none" stroke="#3f3d56" stroke-miterlimit="10" stroke-width="2"/><rect width="85.577" height="85.577" x="394.909" y="216.548" fill="#6c63ff" opacity=".3"/><rect width="85.577" height="85.577" x="535.021" y="216.548" fill="#6c63ff"/><rect width="85.577" height="85.577" x="675.133" y="216.548" fill="#6c63ff"/><rect width="85.577" height="85.577" x="254.797" y="337.363" fill="#6c63ff" opacity=".3"/><rect width="85.577" height="85.577" x="394.909" y="337.363" fill="#6c63ff"/><rect width="85.577" height="85.577" x="535.021" y="337.363" fill="#6c63ff" opacity=".3"/><rect width="85.577" height="85.577" x="675.133" y="337.363" fill="#6c63ff" opacity=".3"/><rect width="85.577" height="85.577" x="266.543" y="206.48" fill="none" stroke="#f2f2f2" stroke-miterlimit="10" stroke-width="2"/><rect width="85.577" height="85.577" x="406.655" y="206.48" fill="none" stroke="#3f3d56" stroke-miterlimit="10" stroke-width="2"/><rect width="85.577" height="85.577" x="546.767" y="206.48" fill="none" stroke="#3f3d56" stroke-miterlimit="10" stroke-width="2"/><rect width="85.577" height="85.577" x="686.879" y="206.48" fill="none" stroke="#3f3d56" stroke-miterlimit="10" stroke-width="2"/><rect width="85.577" height="85.577" x="266.543" y="327.295" fill="none" stroke="#3f3d56" stroke-miterlimit="10" stroke-width="2"/><rect width="85.577" height="85.577" x="406.655" y="327.295" fill="none" stroke="#3f3d56" stroke-miterlimit="10" stroke-width="2"/><rect width="85.577" height="85.577" x="546.767" y="327.295" fill="none" stroke="#3f3d56" stroke-miterlimit="10" stroke-width="2"/><rect width="85.577" height="85.577" x="686.879" y="327.295" fill="none" stroke="#3f3d56" stroke-miterlimit="10" stroke-width="2"/><circle cx="201.941" cy="141.458" r="4.195" fill="#6c63ff"/><circle cx="214.526" cy="141.458" r="4.195" fill="#6c63ff"/><circle cx="227.111" cy="141.458" r="4.195" fill="#6c63ff"/><circle cx="201.941" cy="141.458" r="4.195" fill="none" stroke="#3f3d56" stroke-miterlimit="10" stroke-width="2"/><circle cx="214.526" cy="141.458" r="4.195" fill="none" stroke="#3f3d56" stroke-miterlimit="10" stroke-width="2"/><circle cx="227.111" cy="141.458" r="4.195" fill="none" stroke="#3f3d56" stroke-miterlimit="10" stroke-width="2"/><polygon fill="#f2f2f2" points="178.441 0 134.517 99.757 405 99.757 178.441 0"/><circle cx="239.619" cy="27.263" r="14.756" fill="none" stroke="#3f3d56" stroke-miterlimit="10" stroke-width="2"/><circle cx="855" cy="465.757" r="42" fill="#6c63ff"/><path fill="#9f616a" d="M277.66875,529.93105l1.78965,10.14136,25.05512-11.931s22.66893-14.31721,18.49307-4.17585-16.70341,12.52756-16.70341,12.52756-26.84478,23.862-32.81028,20.28272-9.54481-23.26547-9.54481-23.26547Z" transform="translate(-80.5 -167.79997)"/><path d="M277.66875,529.93105l1.78965,10.14136,25.05512-11.931s22.66893-14.31721,18.49307-4.17585-16.70341,12.52756-16.70341,12.52756-26.84478,23.862-32.81028,20.28272-9.54481-23.26547-9.54481-23.26547Z" opacity=".1" transform="translate(-80.5 -167.79997)"/><path fill="#9f616a" d="M307.49628,618.22053l-.59655,30.42408-16.10687,59.0585-13.12411-1.78965s3.5793-15.51031,1.78965-23.26547,8.94826-27.44132,8.94826-27.44132l-9.54481-44.14474Z" transform="translate(-80.5 -167.79997)"/><path fill="#2f2e41" d="M290.19631,705.91346s2.3862.59655,2.3862,2.3862,1.78966,9.54481,7.75516,11.33447,17.89652,11.931,8.94826,12.52756-22.66892-5.96551-25.05512-5.96551-7.15861-.59655-8.35171-2.3862-1.78965-17.89652,0-18.49307S290.19631,705.91346,290.19631,705.91346Z" transform="translate(-80.5 -167.79997)"/><path fill="#9f616a" d="M291.986,620.60674l-19.08961,34.00338-47.724,47.12749-6.562-11.931S233.524,667.73423,234.12056,665.348,250.824,652.22391,250.824,652.22391s13.12411-22.07237,10.73791-31.61717,29.231-11.33447,29.231-11.33447Z" transform="translate(-80.5 -167.79997)"/><path fill="#2f2e41" d="M225.76885,698.75486v4.7724c0,.59655-13.12411,14.91376-11.931,17.3s5.96551,8.94825.59655,9.5448-9.54481-4.17585-9.54481-10.14135-1.1931-26.24823.59655-26.84478,11.931-1.78965,13.12412-5.369S225.76885,698.75486,225.76885,698.75486Z" transform="translate(-80.5 -167.79997)"/><circle cx="177.781" cy="314.109" r="14.317" fill="#9f616a"/><path fill="#9f616a" d="M268.12394,488.76906s-.59655,14.91377,1.1931,16.70342-17.3.59655-17.3.59655,1.78965-11.33446-1.78965-16.10686S268.12394,488.76906,268.12394,488.76906Z" transform="translate(-80.5 -167.79997)"/><rect width="85.577" height="85.577" x="307.125" y="465.348" fill="#6c63ff" transform="translate(619.32767 848.47305) rotate(-180)"/><path fill="#2f2e41" d="M251.42053,498.31387s14.31721,2.98276,20.87927,8.35171,10.73791,8.35171,12.52756,8.94826,5.9655,3.5793,7.1586,15.51031.59655,20.87927,11.931,28.63443,47.1275,52.49645,38.77579,61.44471-13.12411,11.931-16.70342,7.75515-4.17585-10.14136-11.931-3.5793-13.72066,14.31721-17.3,8.35171-23.862-7.15861-59.05851-2.38621-26.84477-12.52756-21.47582-20.87926,41.162-41.75854,46.531-45.9344-4.77241-24.45857-10.14136-28.03787S242.47227,506.069,251.42053,498.31387Z" transform="translate(-80.5 -167.79997)"/><path fill="#9f616a" d="M269.317,537.08966l1.78965,10.14136L296.16182,535.3s22.66892-14.31722,18.49306-4.17586-16.70341,12.52756-16.70341,12.52756-26.84478,23.862-32.81028,20.28272-9.54481-23.26547-9.54481-23.26547Z" transform="translate(-80.5 -167.79997)"/><path fill="#2f2e41" d="M258.57913,508.45523s14.91377,7.15861,14.31722,16.10687S274.686,535.3,272.2998,537.08966s-15.51032,10.73791-17.3,5.9655S243.06882,513.82419,258.57913,508.45523Z" transform="translate(-80.5 -167.79997)"/><circle cx="155.338" cy="287.287" r="12.464" fill="#2f2e41"/><path fill="#2f2e41" d="M225.08734,465.40794a12.46439,12.46439,0,0,0,19.24728-6.54449,12.4644,12.4644,0,1,1-24.31335-5.11128A12.45981,12.45981,0,0,0,225.08734,465.40794Z" transform="translate(-80.5 -167.79997)"/><circle cx="169.429" cy="305.757" r="18.493" fill="#2f2e41"/><ellipse cx="184.045" cy="315.004" fill="#9f616a" rx="2.088" ry="3.878"/><line x1="186" x2="853" y1="152.877" y2="152.877" fill="none" stroke="#f2f2f2" stroke-miterlimit="10" stroke-width="2"/><line x2="1039" y1="562.757" y2="562.757" fill="none" stroke="#3f3d56" stroke-miterlimit="10" stroke-width="2"/></svg>