<svg xmlns="http://www.w3.org/2000/svg" xmlns:xlink="http://www.w3.org/1999/xlink" width="928.766" height="735.639" data-name="Layer 1" viewBox="0 0 928.766 735.639"><defs><linearGradient id="a" x1="345.271" x2="345.271" y1="402.374" gradientUnits="userSpaceOnUse"><stop offset="0" stop-color="gray" stop-opacity=".25"/><stop offset=".535" stop-color="gray" stop-opacity=".12"/><stop offset="1" stop-color="gray" stop-opacity=".1"/></linearGradient><linearGradient id="b" x1="24.7" x2="24.7" y1="22.443" y2="10.757" xlink:href="#a"/><linearGradient id="c" x1="37.98" x2="37.98" y1="22.443" y2="10.757" xlink:href="#a"/><linearGradient id="d" x1="51.259" x2="51.259" y1="22.443" y2="10.757" xlink:href="#a"/><linearGradient id="e" x1="352.54" x2="352.54" y1="251.946" y2="55.933" xlink:href="#a"/><linearGradient id="f" x1="234.932" x2="234.932" y1="165.287" y2="144.654" xlink:href="#a"/><linearGradient id="g" x1="286.514" x2="286.514" y1="132.275" y2="111.642" xlink:href="#a"/><linearGradient id="h" x1="349.246" x2="349.246" y1="103.142" y2="82.509" xlink:href="#a"/><linearGradient id="i" x1="406.186" x2="406.186" y1="165.287" y2="144.654" xlink:href="#a"/><linearGradient id="j" x1="466.021" x2="466.021" y1="136.401" y2="115.768" xlink:href="#a"/><linearGradient id="k" x1="352.54" x2="352.54" y1="287.505" y2="274.784" xlink:href="#a"/><linearGradient id="l" x1="352.54" x2="352.54" y1="305.677" y2="292.956" xlink:href="#a"/><linearGradient id="m" x1="352.54" x2="352.54" y1="323.849" y2="311.128" xlink:href="#a"/><linearGradient id="n" x1="352.54" x2="352.54" y1="342.021" y2="329.301" xlink:href="#a"/></defs><title>Presentation</title><rect width="690.542" height="402.374" fill="url(#a)"/><rect width="673.279" height="20.583" x="9.296" y="6.64" fill="#f5f5f5"/><rect width="673.279" height="364.527" x="9.296" y="27.223" fill="#fff"/><circle cx="24.7" cy="16.6" r="5.843" fill="url(#b)"/><circle cx="37.98" cy="16.6" r="5.843" fill="url(#c)"/><circle cx="51.259" cy="16.6" r="5.843" fill="url(#d)"/><circle cx="24.7" cy="16.6" r="4.781" fill="#ff5252"/><circle cx="37.847" cy="16.6" r="4.781" fill="#ff0"/><circle cx="50.994" cy="16.6" r="4.781" fill="#69f0ae"/><rect width="396.153" height="196.013" x="154.463" y="55.933" fill="url(#e)"/><rect width="387.9" height="185.697" x="158.59" y="60.059" fill="#6c63ff"/><line x1="179.223" x2="179.223" y1="84.819" y2="218.933" fill="none" stroke="#fff" stroke-dasharray="0 4" stroke-linecap="round" stroke-linejoin="round"/><line x1="178.191" x2="520.699" y1="228.218" y2="228.218" fill="none" stroke="#fff" stroke-linecap="round" stroke-linejoin="round"/><line x1="217.394" x2="483.559" y1="92.04" y2="92.04" fill="none" stroke="#fff" stroke-linecap="round" stroke-linejoin="round" opacity=".3"/><line x1="217.394" x2="483.559" y1="122.99" y2="122.99" fill="none" stroke="#fff" stroke-linecap="round" stroke-linejoin="round" opacity=".3"/><line x1="217.394" x2="483.559" y1="153.939" y2="153.939" fill="none" stroke="#fff" stroke-linecap="round" stroke-linejoin="round" opacity=".3"/><line x1="217.394" x2="483.559" y1="184.889" y2="184.889" fill="none" stroke="#fff" stroke-linecap="round" stroke-linejoin="round" opacity=".3"/><path fill="#fff" d="M381.932,335.52261v-74.2787s-6.18989-31.98111,56.74068-30.94946c57.23284-8.12069,57.23284-31.7445,57.23284-31.7445s52.63665-5.72579,55.30639,50.27814a30.50367,30.50367,0,0,0,12.63166,23.48842c21.68706,15.294,40.51925-15.18077,49.17773-42.02206V335.52261Z" opacity=".2" transform="translate(-147 -107.30474)"/><circle cx="286.514" cy="121.958" r="8.253" fill="#6c63ff"/><circle cx="286.514" cy="121.958" r="8.253" fill="#fff" opacity=".5"/><circle cx="234.932" cy="154.971" r="10.316" fill="url(#f)"/><circle cx="286.514" cy="121.958" r="10.316" fill="url(#g)"/><circle cx="349.246" cy="92.826" r="10.316" fill="url(#h)"/><circle cx="406.186" cy="154.971" r="10.316" fill="url(#i)"/><circle cx="466.021" cy="126.085" r="10.316" fill="url(#j)"/><circle cx="234.932" cy="154.971" r="8.253" fill="#6c63ff"/><circle cx="234.932" cy="154.971" r="8.253" opacity=".2"/><circle cx="349.246" cy="92.826" r="8.253" fill="#6c63ff"/><circle cx="349.246" cy="92.826" r="8.253" opacity=".2"/><circle cx="406.186" cy="154.971" r="8.253" fill="#6c63ff"/><circle cx="406.186" cy="154.971" r="8.253" fill="#fff" opacity=".5"/><circle cx="466.021" cy="126.085" r="8.253" fill="#6c63ff"/><circle cx="466.021" cy="126.085" r="8.253" opacity=".2"/><rect width="392.519" height="12.721" x="156.281" y="274.784" fill="url(#k)"/><rect width="392.519" height="12.721" x="156.281" y="292.956" fill="url(#l)"/><rect width="392.519" height="12.721" x="156.281" y="311.128" fill="url(#m)"/><rect width="392.519" height="12.721" x="156.281" y="329.301" fill="url(#n)"/><rect width="388.884" height="9.086" x="158.098" y="276.601" fill="#e0e0e0"/><rect width="388.884" height="9.086" x="158.098" y="294.773" fill="#e0e0e0"/><rect width="388.884" height="9.086" x="158.098" y="312.946" fill="#e0e0e0"/><rect width="388.884" height="9.086" x="158.098" y="331.118" fill="#e0e0e0"/><path fill="#2f2e41" d="M905.15282,150.62032s1.97526,6.5842-9.21789,12.51-14.48524,28.31208-1.31684,34.89628S911.737,213.17025,905.15282,219.096s-18.43577,21.72787-2.63368,25.6784,17.77735,11.85156,13.1684,15.14366,10.53473-5.92578,10.53473-5.92578,2.63368,15.80209,16.46051,11.85157,52.67362-79.01044,32.921-89.54517S905.15282,150.62032,905.15282,150.62032Z" transform="translate(-147 -107.30474)"/><polygon fill="#9f616a" points="809.169 601.511 804.889 641.464 823.438 652.879 840.561 650.025 832 601.511 809.169 601.511"/><circle cx="794.901" cy="82.122" r="39.953" fill="#9f616a"/><path fill="#9f616a" d="M928.34508,208.68981s-3.56724,60.643-7.84792,60.643,49.94126-2.85378,49.94126-2.85378-22.83029-39.953-11.41514-52.795S928.34508,208.68981,928.34508,208.68981Z" transform="translate(-147 -107.30474)"/><polygon fill="#2f2e41" points="840.561 421.723 822.012 493.067 836.28 614.353 803.462 611.499 790.62 421.723 840.561 421.723"/><polygon points="840.561 421.723 822.012 493.067 836.28 614.353 803.462 611.499 790.62 421.723 840.561 421.723" opacity=".2"/><path fill="#2f2e41" d="M959.02328,741.63439s-1.42689-8.56136-15.69583,0-74.19844,35.67233-42.80679,41.3799,95.60184-7.13446,95.60184-11.41514,1.42689-31.39165-4.28068-28.53786S967.58464,764.46468,959.02328,741.63439Z" transform="translate(-147 -107.30474)"/><path fill="#9f616a" d="M977.57289,731.64614s22.83029,35.67233,24.25718,45.66058,22.83029-22.83029,22.83029-22.83029l-19.9765-37.09922Z" transform="translate(-147 -107.30474)"/><path fill="#2f2e41" d="M901.94755,534.73489l25.68408,85.61359s45.66058,121.28591,48.51437,119.859,37.09922-9.98825,38.52611-14.26893-42.80679-119.859-42.80679-119.859l-5.70758-74.19845Z" transform="translate(-147 -107.30474)"/><path fill="#2f2e41" d="M1028.941,748.76886a18.732,18.732,0,0,0-18.54961,11.41514c-5.70757,12.842-12.842,14.26894-14.26893,15.69583s4.28068,31.39165,0,34.24543-8.56136,32.81855,5.70757,32.81855,37.09922-15.69583,35.67233-18.54961-1.42689-22.83029,2.85379-31.39165,11.41514-22.83029,0-31.39165S1028.941,748.76886,1028.941,748.76886Z" transform="translate(-147 -107.30474)"/><path fill="#6c63ff" d="M893.38619,402.03383l-2.85378,25.68407s-21.4034,21.4034-28.53786,47.08748-65.63709,68.49087-48.51437,74.19844,37.09922,8.56136,87.04048,0S1028.941,558.99207,1028.941,511.9046c0,0,9.98825-12.842,17.12272,5.70757a372.95,372.95,0,0,0,17.12272,37.09922s17.12272-29.96475,11.41514-42.80679,0-11.41515-7.13446-25.68408-42.8068-67.064-57.07573-69.91776-41.3799-39.953-39.953-44.23369S893.38619,402.03383,893.38619,402.03383Z" transform="translate(-147 -107.30474)"/><path fill="#575a88" d="M970.43842,242.2218s-58.50261,12.842-61.3564,21.40339c-1.60526,4.81577-9.07972,13.69483-15.31263,20.54225a80.19812,80.19812,0,0,0-20.13937,40.865c-1.488,9.10321,4.76806,17.28861,7.62758,27.77353,8.56136,31.39165,14.98238,23.54374,6.421,46.374s42.8068,31.39165,62.7833,21.4034,42.09335-69.20432,42.09335-76.33879,19.26306-87.75392,3.56723-93.4615S970.43842,242.2218,970.43842,242.2218Z" transform="translate(-147 -107.30474)"/><path fill="#9f616a" d="M889.10552,310.71267,871.9828,386.338l-56.36228,24.97063s-42.8068-9.98825-44.23369,5.70757c-.93156,10.24722,48.51437,14.26894,48.51437,14.26894L901.94755,399.18l18.54961-69.91776Z" transform="translate(-147 -107.30474)"/><path fill="#575a88" d="M909.082,282.1748s-35.67233,21.4034-27.111,32.81855,29.96476,29.96475,35.67233,29.96475,9.98825-34.24543,9.98825-44.23369S909.082,282.1748,909.082,282.1748Z" transform="translate(-147 -107.30474)"/><path fill="#2f2e41" d="M944.775,137.54579s2.18819,7.294-10.21158,13.85856-16.04675,31.36412-1.45879,38.6581,18.96435,16.77615,11.67037,23.34073-20.42315,24.07014-2.9176,28.44653,19.69375,13.12916,14.588,16.77615,11.67036-6.56458,11.67036-6.56458,2.9176,17.50555,18.235,13.12917,30.60033-83.92894,13.52581-104.41835C984.00017,141.72057,944.775,137.54579,944.775,137.54579Z" transform="translate(-147 -107.30474)"/><path fill="#2f2e41" d="M940.11565,130.038c.00333-10.68606,31.97356-3.00762,45.6807,11.91249,9.49186,10.332,23.909,25.8761,11.82788,36.83315s20.70807,25.32061,29.50187,29.6755,26.15658,17.67229,10.47926,26.60643-15.42456,17.95275-9.52456,20.08807-13.00812-3.17493-13.00812-3.17493,1.91028,17.64391-14.01979,17.55944-61.63218-87.6315-50.71431-111.96574C960.49026,134.94584,940.11565,130.038,940.11565,130.038Z" transform="translate(-147 -107.30474)"/><path fill="#2f2e41" d="M947.04049,127.69616c-42.75256-2.57441-47.04328,29.60705-47.04328,29.60705.29555,18.62345,29.87039,9.54908,38.08458,12.32535,9.91-7.1289,29.01209-20.6176,42.67337-30.24379A64.61221,64.61221,0,0,0,947.04049,127.69616Z" transform="translate(-147 -107.30474)"/></svg>