<svg xmlns="http://www.w3.org/2000/svg" xmlns:xlink="http://www.w3.org/1999/xlink" width="895.68" height="517.48" data-name="Layer 1" viewBox="0 0 895.68 517.48"><defs><linearGradient id="a" x1="790.94" x2="790.94" y1="640.76" y2="264.76" gradientTransform="translate(1229.99 -336.2) rotate(90)" gradientUnits="userSpaceOnUse"><stop offset="0" stop-color="gray" stop-opacity=".25"/><stop offset=".54" stop-color="gray" stop-opacity=".12"/><stop offset="1" stop-color="gray" stop-opacity=".1"/></linearGradient><linearGradient id="b" x1="785.97" x2="785.97" y1="446.14" y2="321.91" gradientTransform="translate(1166.67 -399.94) rotate(90)" xlink:href="#a"/><linearGradient id="c" x1="660.92" x2="660.92" y1="518.19" y2="494.17" gradientTransform="translate(1146.84 -172.9) rotate(90)" xlink:href="#a"/><linearGradient id="d" x1="433.66" x2="433.66" y1="605.23" y2="235.23" gradientTransform="translate(13.58 8.51)" xlink:href="#a"/><linearGradient id="e" x1="428.36" x2="428.36" y1="413.71" y2="291.46" gradientTransform="translate(-1.05 11.3)" xlink:href="#a"/><linearGradient id="f" x1="295.22" x2="295.22" y1="484.61" y2="460.98" gradientTransform="translate(28.38 37.45)" xlink:href="#a"/><linearGradient id="g" x1="455.07" x2="455.07" y1="464.48" y2="10.48" gradientTransform="matrix(1, 0, 0, 1, 0, 0)" xlink:href="#a"/><linearGradient id="h" x1="449.07" x2="449.07" y1="229.48" y2="79.48" gradientTransform="matrix(1, 0, 0, 1, 0, 0)" xlink:href="#a"/><linearGradient id="i" x1="298.07" x2="298.07" y1="316.48" y2="287.48" gradientTransform="matrix(1, 0, 0, 1, 0, 0)" xlink:href="#a"/><linearGradient id="j" x1="457.07" x2="457.07" y1="517.48" y2="364.48" gradientTransform="matrix(1, 0, 0, 1, 0, 0)" xlink:href="#a"/><linearGradient id="k" x1="611.23" x2="611.23" y1="564.74" y2="464.74" gradientTransform="matrix(1, 0, 0, 1, 0, 0)" xlink:href="#a"/><linearGradient id="l" x1="611.23" x2="611.23" y1="660.74" y2="602.74" gradientTransform="matrix(1, 0, 0, 1, 0, 0)" xlink:href="#a"/></defs><title>safe</title><rect width="19.88" height="470.41" x="792.23" y="49.92" fill="#f5f5f5" transform="translate(247.6 844.09) rotate(-81.36)"/><rect width="376" height="490.29" x="589.23" y="209.59" fill="url(#a)" transform="translate(58.72 963.57) rotate(-81.36)"/><rect width="342.87" height="470.41" x="603.48" y="229.23" fill="#f5f5f5" transform="translate(47.16 969.52) rotate(-81.36)"/><circle cx="580.99" cy="251.51" r="4.86" fill="#ff5252" transform="translate(92.88 596.86) rotate(-81.36)"/><circle cx="594.2" cy="253.52" r="4.86" fill="#ff0" transform="translate(102.12 611.62) rotate(-81.36)"/><circle cx="607.41" cy="255.53" r="4.86" fill="#69f0ae" transform="translate(111.36 626.39) rotate(-81.36)"/><rect width="124.23" height="422.38" x="720.53" y="174.84" fill="url(#b)" transform="translate(131.25 910.54) rotate(-81.36)"/><rect width="413.27" height="115.12" x="576.36" y="328.95" fill="#6c63ff" transform="translate(-85.2 -304.51) rotate(8.64)"/><rect width="24.02" height="28.16" x="628.65" y="473.94" fill="url(#c)" transform="translate(-90.24 856.82) rotate(-81.36)"/><rect width="26.5" height="19.88" x="627.88" y="477.73" fill="#6c63ff" transform="translate(-71.61 -282.05) rotate(8.64)"/><rect width="26.5" height="19.88" x="622.77" y="511.3" fill="#ff5252" transform="translate(-66.63 -280.9) rotate(8.64)"/><rect width="26.5" height="19.88" x="617.67" y="544.87" fill="#ff9800" transform="translate(-61.64 -279.75) rotate(8.64)"/><rect width="213.67" height="11.59" x="696.41" y="506.51" fill="#6c63ff" opacity=".4" transform="translate(-66.07 -306.13) rotate(8.64)"/><rect width="213.67" height="11.59" x="691.31" y="540.08" fill="#6c63ff" opacity=".4" transform="translate(-61.09 -304.98) rotate(8.64)"/><rect width="213.67" height="11.59" x="686.21" y="573.65" fill="#6c63ff" opacity=".4" transform="translate(-56.1 -303.83) rotate(8.64)"/><rect width="500.84" height="19.56" x="159.15" y="254.51" fill="#f5f5f5" transform="translate(-199.95 -95.55) rotate(-12.6)"/><rect width="522" height="370" x="186.23" y="243.74" fill="url(#d)" transform="translate(-234.92 -83.38) rotate(-12.6)"/><rect width="500.84" height="337.4" x="198.08" y="269.78" fill="#f5f5f5" transform="translate(-237.01 -82.86) rotate(-12.6)"/><ellipse cx="177.11" cy="316.25" fill="#ff5252" rx="5.17" ry="4.78" transform="translate(-216.88 -145.01) rotate(-12.6)"/><ellipse cx="191" cy="313.15" fill="#ff0" rx="5.17" ry="4.78" transform="translate(-215.87 -142.05) rotate(-12.6)"/><ellipse cx="204.88" cy="310.05" fill="#69f0ae" rx="5.17" ry="4.78" transform="translate(-214.86 -139.1) rotate(-12.6)"/><rect width="449.7" height="122.25" x="202.46" y="302.76" fill="url(#e)" transform="translate(-221.25 -89.28) rotate(-12.6)"/><rect width="440" height="113.28" x="207.83" y="307.54" fill="#6c63ff" transform="translate(-221.3 -89.16) rotate(-12.6)"/><rect width="29.98" height="23.63" x="308.61" y="498.42" fill="url(#f)" transform="translate(-255.67 -108.38) rotate(-12.6)"/><rect width="28.22" height="19.56" x="309.83" y="499.96" fill="#6c63ff" transform="matrix(0.98, -0.22, 0.22, 0.98, -255.56, -108.32)"/><rect width="28.22" height="19.56" x="317.12" y="532.57" fill="#ff5252" transform="translate(-262.49 -105.94) rotate(-12.6)"/><rect width="28.22" height="19.56" x="324.41" y="565.18" fill="#ff9800" transform="matrix(0.98, -0.22, 0.22, 0.98, -269.43, -103.57)"/><rect width="227.49" height="11.41" x="380.57" y="465.95" fill="#6c63ff" opacity=".4" transform="translate(-243.14 -72.07) rotate(-12.6)"/><rect width="227.49" height="11.41" x="387.86" y="498.56" fill="#6c63ff" opacity=".4" transform="translate(-250.08 -69.69) rotate(-12.6)"/><rect width="227.49" height="11.41" x="395.15" y="531.17" fill="#6c63ff" opacity=".4" transform="translate(-257.02 -67.32) rotate(-12.6)"/><rect width="568" height="24" x="170.07" y="18.48" fill="#f5f5f5"/><rect width="592" height="454" x="159.07" y="10.48" fill="url(#g)"/><rect width="568" height="414" x="170.07" y="42.48" fill="#fff"/><circle cx="183.94" cy="30.48" r="5.87" fill="#ff5252"/><circle cx="200.07" cy="30.48" r="5.87" fill="#ff0"/><circle cx="216.2" cy="30.48" r="5.87" fill="#69f0ae"/><rect width="510" height="150" x="194.07" y="79.48" fill="url(#h)"/><rect width="499" height="139" x="200.07" y="85.48" fill="#6c63ff"/><rect width="34" height="29" x="281.07" y="287.48" fill="url(#i)"/><rect width="32" height="24" x="282.57" y="289.48" fill="#6c63ff"/><rect width="32" height="24" x="282.57" y="330.48" fill="#ff5252"/><rect width="32" height="24" x="282.57" y="371.48" fill="#ff9800"/><rect width="258" height="14" x="367.57" y="294.48" fill="#6c63ff" opacity=".4"/><rect width="258" height="14" x="367.57" y="335.48" fill="#6c63ff" opacity=".4"/><rect width="258" height="14" x="367.57" y="376.48" fill="#6c63ff" opacity=".4"/><rect width="186" height="153" x="364.07" y="364.48" fill="url(#j)"/><path fill="url(#k)" d="M559.15,531.41a52.08,52.08,0,0,1,104.17,0v33.33H677.9V531.41a66.67,66.67,0,1,0-133.33,0v33.33h14.58Z" transform="translate(-152.16 -191.26)"/><path fill="#fff" d="M561.23,530.74a50,50,0,0,1,100,0v32h14v-32a64,64,0,0,0-128,0v32h14Z" transform="translate(-152.16 -191.26)"/><rect width="174" height="142" x="372.07" y="369.48" fill="#6c63ff"/><rect width="174" height="142" x="372.07" y="369.48" fill="#fff"/><rect width="174" height="86" x="372.07" y="397.48" fill="#6c63ff"/><path fill="url(#l)" d="M624,615.5a12.76,12.76,0,1,0-22,8.74v27.22a9.28,9.28,0,0,0,18.56,0V624.24A12.7,12.7,0,0,0,624,615.5Z" transform="translate(-152.16 -191.26)"/><path d="M622.23,617.74a11,11,0,1,0-19,7.53v23.47a8,8,0,1,0,16,0V625.27A11,11,0,0,0,622.23,617.74Z" opacity=".2" transform="translate(-152.16 -191.26)"/></svg>