<svg xmlns="http://www.w3.org/2000/svg" xmlns:xlink="http://www.w3.org/1999/xlink" width="866" height="720.37" data-name="Layer 1" viewBox="0 0 866 720.37"><defs><linearGradient id="a" x1="660.5" x2="660.5" y1="458.72" gradientUnits="userSpaceOnUse"><stop offset="0" stop-color="gray" stop-opacity=".25"/><stop offset=".54" stop-color="gray" stop-opacity=".12"/><stop offset="1" stop-color="gray" stop-opacity=".1"/></linearGradient><linearGradient id="b" x1="802.94" x2="802.94" y1="120.14" y2="40.02" xlink:href="#a"/><linearGradient id="c" x1="802.94" x2="802.94" y1="269.14" y2="189.02" xlink:href="#a"/><linearGradient id="d" x1="802.94" x2="802.94" y1="417.14" y2="337.02" xlink:href="#a"/><linearGradient id="e" x1="475.1" x2="475.1" y1="785.18" y2="418.21" xlink:href="#a"/><linearGradient id="f" x1="475.5" x2="475.5" y1="810.19" y2="750.5" xlink:href="#a"/><linearGradient id="g" x1="459.55" x2="459.55" y1="723.31" y2="473.18" xlink:href="#a"/></defs><title>secure server</title><rect width="411" height="458.72" x="455" fill="url(#a)" opacity=".8"/><rect width="397.41" height="142.46" x="461.79" y="306.27" fill="#fff"/><rect width="15.4" height="73" x="494.41" y="340.06" fill="#64ffda"/><rect width="15.4" height="73" x="524.81" y="340.06" fill="#64ffda" opacity=".7"/><rect width="15.4" height="73" x="555.22" y="340.06" fill="#64ffda" opacity=".6"/><rect width="15.4" height="73" x="585.62" y="340.06" fill="#64ffda" opacity=".5"/><rect width="15.4" height="73" x="616.02" y="340.06" fill="#64ffda" opacity=".5"/><rect width="15.4" height="73" x="646.42" y="340.06" fill="#64ffda" opacity=".4"/><rect width="15.4" height="73" x="676.83" y="340.06" fill="#64ffda" opacity=".3"/><circle cx="802.94" cy="376.09" r="37.16" fill="#6c63ff"/><rect width="397.41" height="142.46" x="461.79" y="158.26" fill="#fff"/><rect width="15.4" height="73" x="494.41" y="192.05" fill="#64ffda"/><rect width="15.4" height="73" x="524.81" y="192.05" fill="#64ffda" opacity=".7"/><rect width="15.4" height="73" x="555.22" y="192.05" fill="#64ffda" opacity=".6"/><rect width="15.4" height="73" x="585.62" y="192.05" fill="#64ffda" opacity=".5"/><rect width="15.4" height="73" x="616.02" y="192.05" fill="#64ffda" opacity=".5"/><rect width="15.4" height="73" x="646.42" y="192.05" fill="#64ffda" opacity=".4"/><rect width="15.4" height="73" x="676.83" y="192.05" fill="#64ffda" opacity=".3"/><circle cx="802.94" cy="228.09" r="37.16" fill="#6c63ff"/><rect width="397.41" height="142.46" x="461.79" y="10.25" fill="#fff"/><rect width="15.4" height="73" x="494.41" y="44.05" fill="#64ffda"/><rect width="15.4" height="73" x="524.81" y="44.05" fill="#64ffda" opacity=".7"/><rect width="15.4" height="73" x="555.22" y="44.05" fill="#64ffda" opacity=".6"/><rect width="15.4" height="73" x="585.62" y="44.05" fill="#64ffda" opacity=".5"/><rect width="15.4" height="73" x="616.02" y="44.05" fill="#64ffda" opacity=".5"/><rect width="15.4" height="73" x="646.42" y="44.05" fill="#64ffda" opacity=".4"/><rect width="15.4" height="73" x="676.83" y="44.05" fill="#64ffda" opacity=".3"/><circle cx="802.94" cy="80.08" r="40.06" fill="url(#b)"/><circle cx="802.94" cy="229.08" r="40.06" fill="url(#c)"/><circle cx="802.94" cy="377.08" r="40.06" fill="url(#d)"/><circle cx="802.94" cy="80.08" r="37.16" fill="#6c63ff"/><path fill="url(#e)" d="M750.13,785.18H200.07V434a15.8,15.8,0,0,1,15.8-15.8H734.32a15.8,15.8,0,0,1,15.8,15.8Z" opacity=".8" transform="translate(-167 -89.81)"/><path fill="#fff" d="M56.45,334.85h503.3a15.8,15.8,0,0,1,15.8,15.8V695.37a0,0,0,0,1,0,0H40.65a0,0,0,0,1,0,0V350.65A15.8,15.8,0,0,1,56.45,334.85Z"/><rect width="500.46" height="328.25" x="57.87" y="355.82" fill="#f5f5f5"/><rect width="498.34" height="295.32" x="59.79" y="371.76" fill="#e0e0e0" opacity=".8"/><rect width="498.34" height="15.69" x="59.79" y="356.07" fill="#f5f5f5"/><circle cx="70.47" cy="363.67" r="3.8" fill="#ff5252"/><circle cx="80.93" cy="363.67" r="3.8" fill="#ff0"/><circle cx="91.4" cy="363.67" r="3.8" fill="#69f0ae"/><path fill="url(#f)" d="M765.52,808.77c-30.62,2.32-556.46,1.39-574.84,0C166.59,797.16,167,752.12,167,752.12l241.15-1.61.81,13.71H512.2l4-12.1H783.48S788.79,793.45,765.52,808.77Z" opacity=".8" transform="translate(-167 -89.81)"/><path fill="#f5f5f5" d="M779.56,755.75H517.5a8,8,0,0,1-6.11,13.31h-100a8,8,0,0,1-6.11-13.31H170.63s-.4,39.12,23.39,49.2c18.15,1.21,537.56,2,567.8,0C784.81,791.64,779.56,755.75,779.56,755.75Z" transform="translate(-167 -89.81)"/><circle cx="58.07" cy="674.4" r="3.23" fill="#e0e0e0"/><circle cx="67.75" cy="674.4" r="3.23" fill="#e0e0e0"/><circle cx="77.43" cy="674.4" r="3.23" fill="#e0e0e0"/><path fill="url(#g)" d="M459.55,473.18l-97.06,59.73s0,123.2,97.06,190.39c97.06-67.2,97.06-190.39,97.06-190.39Z" opacity=".7" transform="translate(-167 -89.81)"/><path fill="#6c63ff" d="M459.55,480.23,368,536.6s0,116.26,91.6,179.67c91.6-63.41,91.6-179.67,91.6-179.67Z" transform="translate(-167 -89.81)"/><path d="M461.11,480.23l-1.57,1v234l1.57,1.1c91.6-63.41,91.6-179.67,91.6-179.67Z" opacity=".05" transform="translate(-167 -89.81)"/><path fill="#6c63ff" d="M459.55,493.85l-81,49.86s0,102.84,81,158.94c81-56.1,81-158.94,81-158.94Z" transform="translate(-167 -89.81)"/><path d="M459.55,494.24V703c81-56.1,81-158.94,81-158.94Z" opacity=".08" transform="translate(-167 -89.81)"/><polyline fill="none" stroke="#3ad29f" stroke-dasharray="12" stroke-miterlimit="10" stroke-width="2" points="239 306.38 239 99.38 410 99.38"/><polyline fill="none" stroke="#3ad29f" stroke-dasharray="12" stroke-miterlimit="10" stroke-width="2" points="186 243.38 186 36.38 357 36.38"/><polyline fill="none" stroke="#3ad29f" stroke-dasharray="12" stroke-miterlimit="10" stroke-width="2" points="716 477.38 716 639.38 626 639.38"/><polyline fill="none" stroke="#3ad29f" stroke-dasharray="12" stroke-miterlimit="10" stroke-width="2" points="770 513.38 770 675.38 680 675.38"/></svg>