<svg xmlns="http://www.w3.org/2000/svg" width="860" height="653" data-name="Layer 1" viewBox="0 0 860 653"><title>steps</title><path fill="#e6e6e6" d="M388.483,189.23737c6.47428,8.63511,13.45881,18.51669,20.35217,29.28623l.9842-49.676.54312.3471A96.95771,96.95771,0,0,0,386.378,156.374l.543.30179Z" transform="translate(-170 -123.5)"/><path fill="#e6e6e6" d="M385.83193,156.18311c-8.87815-3.02781-17.4924-4.03229-25.36643-2.628-.40959.07309-.81227.15715-1.21409.24247,2.00076,2.14641,13.65979,14.82283,28.09317,33.92708Z" transform="translate(-170 -123.5)"/><path fill="#e6e6e6" d="M437.7809,272.82018q1.59225,3.80153,3.02846,7.55131L459.03,226.57169l.52407.50008q-3.22755-6.07039-6.84245-11.80386l-14.68225,57.77126Z" transform="translate(-170 -123.5)"/><path fill="#e6e6e6" d="M427.1413,250.13263l9.52187-56.40484.54067.43271A152.42187,152.42187,0,0,0,410.9149,169.596l-1.0034,50.6226Q419.53361,235.40367,427.1413,250.13263Z" transform="translate(-170 -123.5)"/><path fill="#e6e6e6" d="M330.38012,210.22068l-.22262-.68834a127.26972,127.26972,0,0,0,5.02886,25.15362l87.55405,9.03078c-4.57074-8.42866-9.289-16.33638-13.86955-23.5435Z" transform="translate(-170 -123.5)"/><path fill="#e6e6e6" d="M335.62406,236.06166l-.231-.68808q1.32864,4.33219,2.97871,8.7613l-.23586-.68708,88.61274,7.87652q-1.60551-3.141-3.24735-6.19852Z" transform="translate(-170 -123.5)"/><path fill="#e6e6e6" d="M437.15386,271.35322l14.55987-57.2898.53283.4697a182.01917,182.01917,0,0,0-14.53059-19.7709l-9.65051,57.16763Q433.08253,261.78014,437.15386,271.35322Z" transform="translate(-170 -123.5)"/><path fill="#e6e6e6" d="M440.85912,283.24862l-86.23181-8.30382a176.08868,176.08868,0,0,0,15.28577,17.94333l-.21385-.76355,78.82367,16.216A218.907,218.907,0,0,0,440.85912,283.24862Z" transform="translate(-170 -123.5)"/><path fill="#e6e6e6" d="M358.54024,154.34256l.20307-.43536c-11.85412,2.69118-20.22374,10.75634-24.82892,22.43019l52.74994,11.91913C371.04319,167.591,358.71757,154.52952,358.54024,154.34256Z" transform="translate(-170 -123.5)"/><path fill="#e6e6e6" d="M442.40686,284.641a217.50952,217.50952,0,0,1,6.89379,22.64067l20.53453-51.50181.50155.503a86.2269,86.2269,0,0,0-6.55582-20.75212q-1.81692-3.88927-3.804-7.66122l-18.43813,54.441C441.8298,283.08794,442.12585,283.86713,442.40686,284.641Z" transform="translate(-170 -123.5)"/><path fill="#e6e6e6" d="M407.95353,218.73728c-6.82253-10.64245-13.72811-20.40521-20.12832-28.93874l-53.96023-12.193-.18293-.681c-3.36858,8.8711-4.60022,19.76917-3.58,31.94124Z" transform="translate(-170 -123.5)"/><path fill="#e6e6e6" d="M353.58012,273.51038l86.72459,8.35114.01741-.05152a295.42409,295.42409,0,0,0-12.86241-29.08492l-88.83084-7.896q2.26229,5.99056,5.11349,12.10943A105.86309,105.86309,0,0,0,353.58012,273.51038Z" transform="translate(-170 -123.5)"/><path fill="#e6e6e6" d="M563.17419,290.33192l.197.61373a96.95741,96.95741,0,0,0-10.29538-25.17207l.22572.57883-19.56528,26.07486c-.52112,10.78008-1.44434,22.84561-3.00416,35.53688Z" transform="translate(-170 -123.5)"/><path fill="#e6e6e6" d="M552.77692,265.27828c-4.90669-7.99458-10.90062-14.26248-17.86071-18.20313-.36213-.205-.72591-.39708-1.08983-.58763.172,2.92923,1.06639,20.12882-.00216,44.04847Z" transform="translate(-170 -123.5)"/><path fill="#e6e6e6" d="M518.39463,388.2448q-1.19844,3.94347-2.4839,7.74755l48.34769-29.8146.08463.71936q1.386-6.7339,2.25869-13.45543L518.44634,388.572Z" transform="translate(-170 -123.5)"/><path fill="#e6e6e6" d="M524.67052,363.985l43.30955-37.36926.14036.67813a152.41931,152.41931,0,0,0-4.57987-35.6868l-33.06062,38.349Q528.20557,347.78865,524.67052,363.985Z" transform="translate(-170 -123.5)"/><path fill="#e6e6e6" d="M568.13108,328.08394l-43.895,37.8747q-2.41857,10.78659-5.38876,20.75636l47.75417-34.83749.11081.70163A182.02027,182.02027,0,0,0,568.13108,328.08394Z" transform="translate(-170 -123.5)"/><path fill="#e6e6e6" d="M483.41465,455.98434q.05781-.88636.11059-1.8211a151.47489,151.47489,0,0,0,19.87039-30.464L476.885,390.66274q-.52117-1.69084-1.09069-3.37334l28.21822,35.16429A218.885,218.885,0,0,0,514.1139,398.24l-55.80955-56.06251c.17423-.44.35084-.89108.5291-1.35011L514.57166,396.818l.04631-.02855a295.45933,295.45933,0,0,0,8.64431-30.6048L467.9128,311.39529q.1743-.763.34386-1.53411L523.608,364.65233q.76678-3.44315,1.45246-6.84521L469.873,301.61254q.13829-.80432.26937-1.61468l55.23083,56.23872c1.85558-9.407,3.26518-18.5068,4.33416-26.97917l-54.1049-57.7279.26764-.67216c-1.28183,1.867-2.52741,3.82552-3.74164,5.85407a111.53989,111.53989,0,0,0-1.55738-19.14674l-20.73119,51.9947a167.38124,167.38124,0,0,1,3.593,21.76778c-.12555,1.23929-.23888,2.4856-.329,3.74466l.68125.68431c.04314.6681.0832,1.33482.11663,1.99878l-.90632-.91042c-.04271.72954-.07493,1.46447-.10657,2.19962a157.62767,157.62767,0,0,0-4.04653-29.35073l-78.24689-16.09746c3.94147,4.04606,8.07235,7.97761,12.29391,11.76966a95.65216,95.65216,0,0,0-25.28029-4.31989l.60977.11919L369.769,331.64913c8.82631,6.21109,18.5232,13.44989,28.40784,21.56133l-14.21923-46.88991q.79039.703,1.58434,1.3995l14.18242,46.76975Q413.569,365.957,425.35677,377.61322l-6.51764-44.01586q.68545.478,1.3638.94745l6.58825,44.492q7.81608,7.81714,14.647,15.663l-3.159-48.25691q.6724.42061,1.32044.82292l3.19234,48.76676-.304-.13148q2.68941,3.12324,5.21424,6.24547l.61071-49.61683q.7053.41339,1.3039.76007l-.62157,50.47544c.51709.64932,1.0395,1.29883,1.54594,1.948a217.498,217.498,0,0,1,13.55431,19.40112l.2946-4.51447q.54438,2.00757,1.08976,3.9469l-.16747,2.56707c.607,1.00944,1.19618,2.018,1.77655,3.02609q.6792,2.30635,1.34453,4.485-1.92834-3.573-4.02841-7.07524l-79.39087,8.87668c41.74354,21.95826,93.544,32.36772,96.84538,33.01686-.78308-3.46318-1.73528-6.89594-2.83094-10.29656.285-.29831.56656-.60021.84859-.90169.13475.406.27411.81249.40433,1.21812-.14734.15755-.29245.31938-.44029.47581q.24507-.11547.513-.243,1.14409,3.58623,2.05109,7.14888c.24161-1.92947.56506-4.86.84729-8.56618,14.29769-7.15748,51.32647-28.07513,70.12672-60.86937l-49.1299,26.82314A152.97744,152.97744,0,0,1,483.41465,455.98434ZM467.13605,378.514l.12152-1.8627,1.24616,1.55285-.12152,1.86273Z" transform="translate(-170 -123.5)"/><path fill="#e6e6e6" d="M532.931,246.45365l.43418-.20573c-10.84641-5.488-22.4367-4.6146-33.42929,1.4392l33.02524,42.82468C534.1107,264.63209,532.94839,246.71079,532.931,246.45365Z" transform="translate(-170 -123.5)"/><path fill="#e6e6e6" d="M514.41793,400.29958a217.49236,217.49236,0,0,1-9.131,21.83458L553.951,395.56522l.06544.70732a86.22927,86.22927,0,0,0,8.18683-20.16445q1.0812-4.15434,1.9566-8.3268L515.23573,397.951C514.96406,398.73538,514.69513,399.52435,514.41793,400.29958Z" transform="translate(-170 -123.5)"/><path fill="#e6e6e6" d="M532.87173,292.43989l-33.78279-43.80755.29353-.6412c-8.25263,4.68393-16.15219,12.2919-23.13,22.31745l53.66426,57.25776C531.45,315.01814,532.35831,303.09452,532.87173,292.43989Z" transform="translate(-170 -123.5)"/><path fill="#e6e6e6" d="M357.03068,301.033c-9.37927-.1353-17.88206,1.572-24.93649,5.34133-.367.19613-.724.40053-1.07977.6059,2.56624,1.42287,17.57265,9.87475,37.20423,23.58215Z" transform="translate(-170 -123.5)"/><path fill="#e6e6e6" d="M398.72066,354.7683l-77.72341,14.796-.42454-.58583A127.2704,127.2704,0,0,0,333.13023,391.346l86.058-18.47412C412.23606,366.26871,405.30452,360.20668,398.72066,354.7683Z" transform="translate(-170 -123.5)"/><path fill="#e6e6e6" d="M425.35166,378.86794q-2.49786-2.49085-5.00434-4.89123L333.97177,392.519l-.43238-.583q2.60247,3.70935,5.54084,7.41156l-.43662-.58055Z" transform="translate(-170 -123.5)"/><path fill="#e6e6e6" d="M463.68319,426.3618a218.91,218.91,0,0,0-15.04438-21.49435L364.063,423.62424a176.09177,176.09177,0,0,0,20.08352,12.33982l-.43943-.66Z" transform="translate(-170 -123.5)"/><path fill="#e6e6e6" d="M330.50661,307.71833l.05853-.47682c-10.44171,6.22346-15.90863,16.48073-16.68,29.00633l53.851-4.96936C346.4924,316.45338,330.733,307.84133,330.50661,307.71833Z" transform="translate(-170 -123.5)"/><path fill="#e6e6e6" d="M369.31683,332.38614l-55.08666,5.083-.38442-.59111c-.46165,9.47793,1.73556,20.223,6.46824,31.48369l77.0904-14.67557C387.62631,345.67371,378.04138,338.5235,369.31683,332.38614Z" transform="translate(-170 -123.5)"/><path fill="#e6e6e6" d="M447.68352,403.66526a295.44132,295.44132,0,0,0-21.22268-23.68491l-86.92141,19.948q4.00307,4.99793,8.606,9.93588a105.8698,105.8698,0,0,0,14.47832,12.71953l85.05914-18.86407Z" transform="translate(-170 -123.5)"/><path fill="#6c63ff" d="M388.483,189.23737c6.47428,8.63511,13.45881,18.51669,20.35217,29.28623l.9842-49.676.54312.3471A96.95771,96.95771,0,0,0,386.378,156.374l.543.30179Z" transform="translate(-170 -123.5)"/><path fill="#6c63ff" d="M385.83193,156.18311c-8.87815-3.02781-17.4924-4.03229-25.36643-2.628-.40959.07309-.81227.15715-1.21409.24247,2.00076,2.14641,13.65979,14.82283,28.09317,33.92708Z" transform="translate(-170 -123.5)"/><path fill="#6c63ff" d="M437.7809,272.82018q1.59225,3.80153,3.02846,7.55131L459.03,226.57169l.52407.50008q-3.22755-6.07039-6.84245-11.80386l-14.68225,57.77126Z" transform="translate(-170 -123.5)"/><path fill="#6c63ff" d="M427.1413,250.13263l9.52187-56.40484.54067.43271A152.42187,152.42187,0,0,0,410.9149,169.596l-1.0034,50.6226Q419.53361,235.40367,427.1413,250.13263Z" transform="translate(-170 -123.5)"/><path fill="#6c63ff" d="M330.38012,210.22068l-.22262-.68834a127.26972,127.26972,0,0,0,5.02886,25.15362l87.55405,9.03078c-4.57074-8.42866-9.289-16.33638-13.86955-23.5435Z" transform="translate(-170 -123.5)"/><path fill="#6c63ff" d="M335.62406,236.06166l-.231-.68808q1.32864,4.33219,2.97871,8.7613l-.23586-.68708,88.61274,7.87652q-1.60551-3.141-3.24735-6.19852Z" transform="translate(-170 -123.5)"/><path fill="#6c63ff" d="M437.15386,271.35322l14.55987-57.2898.53283.4697a182.01917,182.01917,0,0,0-14.53059-19.7709l-9.65051,57.16763Q433.08253,261.78014,437.15386,271.35322Z" transform="translate(-170 -123.5)"/><path fill="#6c63ff" d="M440.85912,283.24862l-86.23181-8.30382a176.08868,176.08868,0,0,0,15.28577,17.94333l-.21385-.76355,78.82367,16.216A218.907,218.907,0,0,0,440.85912,283.24862Z" transform="translate(-170 -123.5)"/><path fill="#6c63ff" d="M358.54024,154.34256l.20307-.43536c-11.85412,2.69118-20.22374,10.75634-24.82892,22.43019l52.74994,11.91913C371.04319,167.591,358.71757,154.52952,358.54024,154.34256Z" transform="translate(-170 -123.5)"/><path fill="#6c63ff" d="M442.40686,284.641a217.50952,217.50952,0,0,1,6.89379,22.64067l20.53453-51.50181.50155.503a86.2269,86.2269,0,0,0-6.55582-20.75212q-1.81692-3.88927-3.804-7.66122l-18.43813,54.441C441.8298,283.08794,442.12585,283.86713,442.40686,284.641Z" transform="translate(-170 -123.5)"/><path fill="#6c63ff" d="M407.95353,218.73728c-6.82253-10.64245-13.72811-20.40521-20.12832-28.93874l-53.96023-12.193-.18293-.681c-3.36858,8.8711-4.60022,19.76917-3.58,31.94124Z" transform="translate(-170 -123.5)"/><path fill="#6c63ff" d="M353.58012,273.51038l86.72459,8.35114.01741-.05152a295.42409,295.42409,0,0,0-12.86241-29.08492l-88.83084-7.896q2.26229,5.99056,5.11349,12.10943A105.86309,105.86309,0,0,0,353.58012,273.51038Z" transform="translate(-170 -123.5)"/><path fill="#6c63ff" d="M563.17419,290.33192l.197.61373a96.95741,96.95741,0,0,0-10.29538-25.17207l.22572.57883-19.56528,26.07486c-.52112,10.78008-1.44434,22.84561-3.00416,35.53688Z" transform="translate(-170 -123.5)"/><path fill="#6c63ff" d="M552.77692,265.27828c-4.90669-7.99458-10.90062-14.26248-17.86071-18.20313-.36213-.205-.72591-.39708-1.08983-.58763.172,2.92923,1.06639,20.12882-.00216,44.04847Z" transform="translate(-170 -123.5)"/><path fill="#6c63ff" d="M518.39463,388.2448q-1.19844,3.94347-2.4839,7.74755l48.34769-29.8146.08463.71936q1.386-6.7339,2.25869-13.45543L518.44634,388.572Z" transform="translate(-170 -123.5)"/><path fill="#6c63ff" d="M524.67052,363.985l43.30955-37.36926.14036.67813a152.41931,152.41931,0,0,0-4.57987-35.6868l-33.06062,38.349Q528.20557,347.78865,524.67052,363.985Z" transform="translate(-170 -123.5)"/><path fill="#6c63ff" d="M568.13108,328.08394l-43.895,37.8747q-2.41857,10.78659-5.38876,20.75636l47.75417-34.83749.11081.70163A182.02027,182.02027,0,0,0,568.13108,328.08394Z" transform="translate(-170 -123.5)"/><path fill="#6c63ff" d="M483.41465,455.98434q.05781-.88636.11059-1.8211a151.47489,151.47489,0,0,0,19.87039-30.464L476.885,390.66274q-.52117-1.69084-1.09069-3.37334l28.21822,35.16429A218.885,218.885,0,0,0,514.1139,398.24l-55.80955-56.06251c.17423-.44.35084-.89108.5291-1.35011L514.57166,396.818l.04631-.02855a295.45933,295.45933,0,0,0,8.64431-30.6048L467.9128,311.39529q.1743-.763.34386-1.53411L523.608,364.65233q.76678-3.44315,1.45246-6.84521L469.873,301.61254q.13829-.80432.26937-1.61468l55.23083,56.23872c1.85558-9.407,3.26518-18.5068,4.33416-26.97917l-54.1049-57.7279.26764-.67216c-1.28183,1.867-2.52741,3.82552-3.74164,5.85407a111.53989,111.53989,0,0,0-1.55738-19.14674l-20.73119,51.9947a167.38124,167.38124,0,0,1,3.593,21.76778c-.12555,1.23929-.23888,2.4856-.329,3.74466l.68125.68431c.04314.6681.0832,1.33482.11663,1.99878l-.90632-.91042c-.04271.72954-.07493,1.46447-.10657,2.19962a157.62767,157.62767,0,0,0-4.04653-29.35073l-78.24689-16.09746c3.94147,4.04606,8.07235,7.97761,12.29391,11.76966a95.65216,95.65216,0,0,0-25.28029-4.31989l.60977.11919L369.769,331.64913c8.82631,6.21109,18.5232,13.44989,28.40784,21.56133l-14.21923-46.88991q.79039.703,1.58434,1.3995l14.18242,46.76975Q413.569,365.957,425.35677,377.61322l-6.51764-44.01586q.68545.478,1.3638.94745l6.58825,44.492q7.81608,7.81714,14.647,15.663l-3.159-48.25691q.6724.42061,1.32044.82292l3.19234,48.76676-.304-.13148q2.68941,3.12324,5.21424,6.24547l.61071-49.61683q.7053.41339,1.3039.76007l-.62157,50.47544c.51709.64932,1.0395,1.29883,1.54594,1.948a217.498,217.498,0,0,1,13.55431,19.40112l.2946-4.51447q.54438,2.00757,1.08976,3.9469l-.16747,2.56707c.607,1.00944,1.19618,2.018,1.77655,3.02609q.6792,2.30635,1.34453,4.485-1.92834-3.573-4.02841-7.07524l-79.39087,8.87668c41.74354,21.95826,93.544,32.36772,96.84538,33.01686-.78308-3.46318-1.73528-6.89594-2.83094-10.29656.285-.29831.56656-.60021.84859-.90169.13475.406.27411.81249.40433,1.21812-.14734.15755-.29245.31938-.44029.47581q.24507-.11547.513-.243,1.14409,3.58623,2.05109,7.14888c.24161-1.92947.56506-4.86.84729-8.56618,14.29769-7.15748,51.32647-28.07513,70.12672-60.86937l-49.1299,26.82314A152.97744,152.97744,0,0,1,483.41465,455.98434ZM467.13605,378.514l.12152-1.8627,1.24616,1.55285-.12152,1.86273Z" transform="translate(-170 -123.5)"/><path fill="#6c63ff" d="M532.931,246.45365l.43418-.20573c-10.84641-5.488-22.4367-4.6146-33.42929,1.4392l33.02524,42.82468C534.1107,264.63209,532.94839,246.71079,532.931,246.45365Z" transform="translate(-170 -123.5)"/><path fill="#6c63ff" d="M514.41793,400.29958a217.49236,217.49236,0,0,1-9.131,21.83458L553.951,395.56522l.06544.70732a86.22927,86.22927,0,0,0,8.18683-20.16445q1.0812-4.15434,1.9566-8.3268L515.23573,397.951C514.96406,398.73538,514.69513,399.52435,514.41793,400.29958Z" transform="translate(-170 -123.5)"/><path fill="#6c63ff" d="M532.87173,292.43989l-33.78279-43.80755.29353-.6412c-8.25263,4.68393-16.15219,12.2919-23.13,22.31745l53.66426,57.25776C531.45,315.01814,532.35831,303.09452,532.87173,292.43989Z" transform="translate(-170 -123.5)"/><path fill="#6c63ff" d="M357.03068,301.033c-9.37927-.1353-17.88206,1.572-24.93649,5.34133-.367.19613-.724.40053-1.07977.6059,2.56624,1.42287,17.57265,9.87475,37.20423,23.58215Z" transform="translate(-170 -123.5)"/><path fill="#6c63ff" d="M398.72066,354.7683l-77.72341,14.796-.42454-.58583A127.2704,127.2704,0,0,0,333.13023,391.346l86.058-18.47412C412.23606,366.26871,405.30452,360.20668,398.72066,354.7683Z" transform="translate(-170 -123.5)"/><path fill="#6c63ff" d="M425.35166,378.86794q-2.49786-2.49085-5.00434-4.89123L333.97177,392.519l-.43238-.583q2.60247,3.70935,5.54084,7.41156l-.43662-.58055Z" transform="translate(-170 -123.5)"/><path fill="#6c63ff" d="M463.68319,426.3618a218.91,218.91,0,0,0-15.04438-21.49435L364.063,423.62424a176.09177,176.09177,0,0,0,20.08352,12.33982l-.43943-.66Z" transform="translate(-170 -123.5)"/><path fill="#6c63ff" d="M330.50661,307.71833l.05853-.47682c-10.44171,6.22346-15.90863,16.48073-16.68,29.00633l53.851-4.96936C346.4924,316.45338,330.733,307.84133,330.50661,307.71833Z" transform="translate(-170 -123.5)"/><path fill="#6c63ff" d="M369.31683,332.38614l-55.08666,5.083-.38442-.59111c-.46165,9.47793,1.73556,20.223,6.46824,31.48369l77.0904-14.67557C387.62631,345.67371,378.04138,338.5235,369.31683,332.38614Z" transform="translate(-170 -123.5)"/><path fill="#6c63ff" d="M447.68352,403.66526a295.44132,295.44132,0,0,0-21.22268-23.68491l-86.92141,19.948q4.00307,4.99793,8.606,9.93588a105.8698,105.8698,0,0,0,14.47832,12.71953l85.05914-18.86407Z" transform="translate(-170 -123.5)"/><path fill="#ffb8b8" d="M950.745,177.43439s-12.74219,36.26622-4.90084,41.84564-26.46455,51.14468-26.46455,51.14468l-41.16707-11.15884,22.54388-38.126s2.9405-38.126,2.9405-43.70545S950.745,177.43439,950.745,177.43439Z" transform="translate(-170 -123.5)"/><path d="M950.745,177.43439s-12.74219,36.26622-4.90084,41.84564-26.46455,51.14468-26.46455,51.14468l-41.16707-11.15884,22.54388-38.126s2.9405-38.126,2.9405-43.70545S950.745,177.43439,950.745,177.43439Z" opacity=".1" transform="translate(-170 -123.5)"/><path fill="#2f2e41" d="M972.13272,435.94749s3.71961,46.49516,0,70.67264-9.299,91.13052-9.299,91.13052,0,126.46684-20.45787,128.32664-35.33632,3.71962-37.19613-3.71961,9.299-11.15884,3.71961-14.87845-7.43922-16.73826,0-31.61671,0-165.52278,0-165.52278L873.563,605.18987s-3.71961,78.11187-7.43923,89.27071,3.71962,31.61671-9.299,33.47652-27.8971-9.299-35.33632-13.01865,11.15884-3.71961,7.43922-5.57942-14.87845-7.43922-11.15884-9.299,7.43923-91.13051,7.43923-91.13051S835.437,418.27932,848.45559,410.8401s21.38778,5.3744,21.38778,5.3744Z" transform="translate(-170 -123.5)"/><path fill="#2f2e41" d="M938.6562,719.63807v14.87845s16.73826,40.44418,0,40.44418-29.7569,4.19117-29.7569-1.38825V723.35768Z" transform="translate(-170 -123.5)"/><path fill="#2f2e41" d="M828.92762,718.61165V733.4901s-16.73825,40.44419,0,40.44419,29.75691,4.19117,29.75691-1.38825V722.33126Z" transform="translate(-170 -123.5)"/><circle cx="754.708" cy="47.425" r="33.477" fill="#ffb8b8"/><path fill="#d0cde1" d="M934.93659,233.22858s-9.299,27.8971-24.17748,22.31768l-14.87845-5.57942L869.84337,428.50826s20.45787,29.7569,50.21477,11.15884S934.93659,233.22858,934.93659,233.22858Z" transform="translate(-170 -123.5)"/><path fill="#d0cde1" d="M908.8993,227.64916,900.53017,209.981s-49.28487,23.24758-56.72409,30.68681-7.43923,18.59806-7.43923,18.59806L849.38549,305.761s-3.71961,102.28936-3.71961,106.009-13.01864,24.17749-3.71961,16.73826,11.15884-14.87845,18.59806-3.71961,24.17749,24.17748,24.17749,24.17748Z" transform="translate(-170 -123.5)"/><path fill="#ffb8b8" d="M843.80608,361.55523l5.57941,52.07458s33.47652,29.7569,26.0373,31.61671S864.264,439.6671,864.264,439.6671s-13.01865,13.01864-20.45787,5.57942-26.03729-78.11187-26.03729-78.11187Z" transform="translate(-170 -123.5)"/><path fill="#2f2e41" d="M923.99448,123.6132c7.42135-.2653,15.3633-.39654,21.62053,3.60273a31.652,31.652,0,0,1,7.47206,7.3145c6.09419,7.70407,11.35985,17.39755,9.09616,26.95619L959.554,160.4612a17.216,17.216,0,0,0,1.66063,7.37646c-.37023-1.07657-1.61013.66378-1.27819,1.75277l2.89627,9.50159c-4.761-1.74538-10.6835,1.78855-11.40836,6.80735-.331-11.03621-1.47588-23.69122-10.42842-30.15336-4.51473-3.25884-10.22855-4.25368-15.726-5.13709-5.07154-.815-10.38818-1.59215-15.24587.07746s-8.99433,6.63763-7.89308,11.6548c-2.23983-.77156-4.74489.78943-5.85181,2.88392s-1.16508,4.56528-1.19838,6.93405c-2.38756,1.68738-5.10468-1.66328-6.07772-4.42025-2.284-6.47145-4.31417-13.36017-3.08376-20.11164s6.732-13.20357,13.59463-13.22647a4.76508,4.76508,0,0,1-1.23928-3.35476l5.6564-.47793a6.25172,6.25172,0,0,1-3.73569-1.96954C902.46634,131.09753,920.322,123.74449,923.99448,123.6132Z" transform="translate(-170 -123.5)"/><path fill="#d0cde1" d="M925.63756,222.06974s15.14-14.83627,20.58864-13.92746,12.88788,13.92746,12.88788,13.92746,44.63535,14.87845,42.77554,29.75691-22.31767,87.4109-22.31767,87.4109-16.73826,87.4109-1.85981,96.70994S907.0395,469.424,905.17969,458.26516s-5.57942-122.74722,0-139.48548S925.63756,222.06974,925.63756,222.06974Z" transform="translate(-170 -123.5)"/><path fill="#d0cde1" d="M860.54433,251.82665H837.54782s-16.05942,70.67264-17.91923,78.11187-5.57942,42.77555-3.71961,42.77555,39.05593-7.43923,39.05593-1.85981Z" transform="translate(-170 -123.5)"/><circle cx="27.382" cy="149.763" r="17.97" fill="#3f3d56"/><circle cx="27.382" cy="219.074" r="17.97" fill="#6c63ff"/><circle cx="27.382" cy="288.385" r="17.97" fill="#3f3d56"/><circle cx="27.382" cy="357.696" r="17.97" fill="#3f3d56"/><circle cx="27.382" cy="427.007" r="17.97" fill="#3f3d56"/><rect width="835" height="2" x="25" y="651" fill="#3f3d56"/><polygon fill="#6c63ff" points="26.15 156.964 17.599 145.563 19.624 144.044 26.59 153.332 54.017 130.892 55.62 132.852 26.15 156.964"/><polygon fill="#3f3d56" points="137.767 215.651 75.301 216.507 137.767 241.956 137.767 652.055 759 652.055 759 215.651 137.767 215.651"/><rect width="55.62" height="1.711" y="166.877" fill="#3f3d56"/><rect width="55.62" height="1.711" y="236.188" fill="#3f3d56"/><rect width="55.62" height="1.711" y="305.499" fill="#3f3d56"/><rect width="55.62" height="1.711" y="374.81" fill="#3f3d56"/><rect width="55.62" height="1.711" y="444.121" fill="#3f3d56"/><circle cx="27.382" cy="219.074" r="8.557" fill="#f2f2f2"/><rect width="390.196" height="32.516" x="253.285" y="238.755" fill="#fff"/><rect width="115.519" height="39.362" x="614.388" y="585.311" fill="#6c63ff"/><rect width="290.08" height="236.171" x="166.86" y="320.046" fill="#fff"/><rect width="1.712" height="374.063" x="481.044" y="374.6" fill="#f2f2f2" transform="translate(-427.89203 457.24101) rotate(-50.84888)"/><rect width="374.063" height="1.712" x="294.869" y="560.776" fill="#f2f2f2" transform="translate(-416.40715 306.88315) rotate(-39.15357)"/><rect width="208.789" height="5.99" x="521.973" y="340.582" fill="#fff"/><rect width="208.789" height="5.99" x="521.973" y="359.408" fill="#fff"/><rect width="208.789" height="5.99" x="521.973" y="378.233" fill="#fff"/><rect width="208.789" height="5.99" x="521.973" y="397.058" fill="#fff"/><rect width="208.789" height="5.99" x="521.973" y="415.883" fill="#fff"/><rect width="208.789" height="5.99" x="521.973" y="434.709" fill="#fff"/><rect width="208.789" height="5.99" x="521.973" y="453.534" fill="#fff"/><rect width="208.789" height="5.99" x="521.973" y="472.359" fill="#fff"/><rect width="208.789" height="5.99" x="521.973" y="491.184" fill="#fff"/><rect width="208.789" height="5.99" x="521.973" y="510.01" fill="#fff"/><rect width="208.789" height="5.99" x="521.973" y="528.835" fill="#fff"/><rect width="208.789" height="5.99" x="521.973" y="547.66" fill="#fff"/><path fill="#ffb8b8" d="M985.15137,378.29348l-26.03729,11.15884s-50.21478,7.43923-50.21478-13.01864,50.21478-9.299,50.21478-9.299l16.73937-5.352Z" transform="translate(-170 -123.5)"/><path fill="#d0cde1" d="M979.572,240.66781l22.31767,5.57942,16.73826,98.56974s5.57942,26.03729-3.71961,27.8971S979.572,389.45232,979.572,389.45232s-3.71962-27.89709-11.15884-27.89709l18.59806-14.87845-11.15884-65.09323Z" transform="translate(-170 -123.5)"/></svg>