<svg xmlns="http://www.w3.org/2000/svg" width="1044" height="638.64" data-name="Layer 1" viewBox="0 0 1044 638.64"><defs><linearGradient id="a" x1="2829.94" x2="2829.94" y1="423.77" y2="269.56" gradientTransform="matrix(-1, 0, 0, 1, 3436, 0)" gradientUnits="userSpaceOnUse"><stop offset="0" stop-color="gray" stop-opacity=".25"/><stop offset=".54" stop-color="gray" stop-opacity=".12"/><stop offset="1" stop-color="gray" stop-opacity=".1"/></linearGradient></defs><title>update</title><path fill="#6c63ff" d="M709,346.26a28.9,28.9,0,0,0-16.77,1.83A24.71,24.71,0,0,1,672,348a28.26,28.26,0,0,0-23.68.46,14.64,14.64,0,0,1-6.82,1.71c-9.6,0-17.59-9.67-19.25-22.43a18.58,18.58,0,0,0,4.8-5.18c5.63-9.07,14.35-14.89,24.14-14.89s18.4,5.75,24,14.73a18.53,18.53,0,0,0,16,8.76h.25C699.11,331.2,705.73,337.33,709,346.26Z" opacity=".1" transform="translate(-78 -130.68)"/><path fill="#6c63ff" d="M738.2,306.21l-15.52,9.85,9.42-17.14a15.4,15.4,0,0,0-9.39-3.35h-.25a18.16,18.16,0,0,1-3.22-.23L714,298.67l2.26-4.1a18.68,18.68,0,0,1-9.2-7l-9.42,6,6-10.81c-5.51-6.61-12.93-10.67-21.09-10.67-9.79,0-18.51,5.83-24.14,14.9a18,18,0,0,1-16,8.6h-.53c-10.81,0-19.57,12.26-19.57,27.37s8.76,27.37,19.57,27.37a14.72,14.72,0,0,0,6.82-1.7,28.22,28.22,0,0,1,23.68-.47,24.71,24.71,0,0,0,20.14.05,28.29,28.29,0,0,1,23.48.45,14.65,14.65,0,0,0,6.74,1.67c10.81,0,19.57-12.25,19.57-27.37A34.76,34.76,0,0,0,738.2,306.21Z" opacity=".1" transform="translate(-78 -130.68)"/><path fill="url(#a)" d="M578.47,410.85c.61-.09,1.22-.21,1.82-.36a5.73,5.73,0,0,1-.51,1.74,7.49,7.49,0,0,1-2.84,2.5.87.87,0,0,0-1.1-.07c-1.29.76-2.32,1.88-3.69,2.54-.48.24-1,.43-1.45.69A7.94,7.94,0,0,0,568,420.7a2,2,0,0,0-.32,2,1.62,1.62,0,0,0,.55.49,3.19,3.19,0,0,0,1.9.57c.41,0,.8-.18,1.2-.25s1.08,0,1.62-.1a9.12,9.12,0,0,0,2.28-.59l2.67-.93a14.67,14.67,0,0,0,2.21-.91c.42-.22.82-.49,1.26-.7a9.89,9.89,0,0,1,1.5-.53l1.52-.45a1.63,1.63,0,0,1,.69-.09c.21,0,.39.17.6.23a1.79,1.79,0,0,0,1-.09l1.77-.51a3.33,3.33,0,0,0,1.05-.43,3.22,3.22,0,0,0,.94-2.71,20.55,20.55,0,0,0-.52-4.49,1.42,1.42,0,0,0-.57.43c-.18-.26-.39-.5-.58-.73a8.68,8.68,0,0,1-1.76-3.24,5.8,5.8,0,0,0,1.58-1.76c-.93-3.55-1.89-7.16-3.78-10.3-.62-1-1.33-2-2-3-1.84-2.92-2.22-6.61-4.32-9.34a1.62,1.62,0,0,1,0-1.91c.24-.31.63-.62.55-1s-.34-.55-.23-.81.18-.2.29-.3c.35-.33.31-.9.34-1.39a6.86,6.86,0,0,1,1.53-3.33,1.93,1.93,0,0,1,.56-.61c.19-.12.41-.17.6-.29.68-.42.63-1.41.95-2.14.42-1,1.48-1.46,2.18-2.24.88-1,1.1-2.39,2-3.26a2.48,2.48,0,0,1,.3-.25,15.91,15.91,0,0,0-.54,4.56c-.09,5.27,1.21,10.73.6,16-.48,4.15,2.06,8.3,5.65,10.37a27,27,0,0,0,4.4,1.87c2.26.81,4.5,1.64,6.71,2.56q2.34,1,4.62,2.11a59.27,59.27,0,0,1,5.45,3.05,21,21,0,0,1,5.88,4.88,4.71,4.71,0,0,0,2.6-1c.59.47,1.31.82,1.87,1.34a5.7,5.7,0,0,1,1.47,2.91h-.23l.08,1.56a.66.66,0,0,1-.06.39.77.77,0,0,1-.21.19l-1.2.81c-.87.59-1.83,1.33-1.88,2.39a1.19,1.19,0,0,0,.26.86,1.85,1.85,0,0,0,1.07.48,18.67,18.67,0,0,0,6.34.58,4.16,4.16,0,0,0,2.7-1.24,5.32,5.32,0,0,0,1-2.59c.26-1.57.48-3.15.65-4.74a10.39,10.39,0,0,1,.64-3.14.37.37,0,0,1,.17-.21c.09,0,.2,0,.29,0a.42.42,0,0,0,.19-.3,19.2,19.2,0,0,0,.56-4.71,3.3,3.3,0,0,0-.19-1.21,2.42,2.42,0,0,0-1.67-1.29,12.88,12.88,0,0,0-2.15-.25,9.76,9.76,0,0,1-1.79-.34,1.72,1.72,0,0,0-.74-.09.53.53,0,0,0-.46.52.6.6,0,0,0,.1.25l-.61-.12c-.49-.09-1.19-.31-1.91-.48l0-.38a.75.75,0,0,0-.42-.67l-10.29-5.5-1.93-1c-4.22-2.26-8.58-4.34-12.8-6.6-.29.09-.52-.24-.6-.52s-.14-.64-.41-.76-.31-.07-.41-.18a.44.44,0,0,1-.07-.34c.14-2.06,1.61-3.95,1.31-6a7.24,7.24,0,0,1-.37-2.58,10.57,10.57,0,0,1,.78-1.63c.5-1.25,0-2.76.55-4a9.4,9.4,0,0,0,.75-2.54,17.38,17.38,0,0,1,1.57-5,8.89,8.89,0,0,1,1.45-2.21c.31-.34.66-.64.95-1a8.11,8.11,0,0,0,1.48-3.87,18.59,18.59,0,0,0,.21-7.57,10.72,10.72,0,0,1-.48-2.55c0-1,.41-2.22-.09-3.05a2.67,2.67,0,0,0,1-1.67,1.92,1.92,0,0,1,.14-.68,1.76,1.76,0,0,1,.65-.59,2.71,2.71,0,0,0,1-2.68c.53.24,1.09-.3,1.34-.83s.45-1.19,1-1.41a7.67,7.67,0,0,1,1.17-.17c.62-.16,1-.76,1.44-1.23a11,11,0,0,1,3.31-2.05c3.45-1.75,6.27-4.53,9-7.27a30.55,30.55,0,0,0,3.88-4.39,14.25,14.25,0,0,0,.85-1.41l.07,0,0,.08c0,.17.09.34.14.51.12.41.27.81.41,1.21a8.85,8.85,0,0,0,1.73,3.3,4.4,4.4,0,0,0,.39.35,4,4,0,0,0,.5.34,6.16,6.16,0,0,0,2.29.69c.3,0,.61.06.92.07l.92,0,6.3.17c-2.16-3.15-2.33-7.23-2.19-11.06.36-9.82,2.27-19.73.5-29.39a7.65,7.65,0,0,0-1.21-3.28,6.78,6.78,0,0,0-4-2.17,24.12,24.12,0,0,1-4.46-1.14,18.47,18.47,0,0,0-3.51-1.67,7.76,7.76,0,0,0-2.8,0c-1.14.17-2.27.37-3.4.6l-.27.06h0l-.18,0h-.05l-.17,0-.06,0-.16,0-.07,0-.15,0-.08,0-.13,0-.09,0-.12,0-.09,0-.11.05-.1.05-.1.05-.1.05-.1.06-.09.06-.09.06-.09.07-.08.06-.09.08-.07.06-.09.09-.06.07a.48.48,0,0,0-.09.11l0,.06-.11.16v0a2.86,2.86,0,0,0-.22.47,2.17,2.17,0,0,0-.07.24,4.54,4.54,0,0,0-.09.51c0,.09,0,.17,0,.26s0,.35,0,.52,0,.61.09.87a9.5,9.5,0,0,0-.45,16.07,4.23,4.23,0,0,1,0,.47v.1a12.84,12.84,0,0,1-.17,1.64,22.36,22.36,0,0,0-4.69-.41c-.94,0-1.88.08-2.83.16-1-1.2-1.92-2.52-2.82-3.82l-2.08-3.05a30.79,30.79,0,0,1-2-3.13c-.51-1-.91-2-1.47-3-1.17-2-3.09-3.66-3.32-5.95l-.55.12c-.3-.5-.68-1-.82-1.3a25.37,25.37,0,0,1-1.73-5.08,7.86,7.86,0,0,0-.83-2.63,5.88,5.88,0,0,0-1.21-1.28,8,8,0,0,0-2.6-1.64,3.34,3.34,0,0,0-2.65.15c-.14-.05-.27-.11-.41-.15a3.22,3.22,0,0,0-2.94.34,4,4,0,0,0-1.3,2.73,6.77,6.77,0,0,0,.7,4.14c.79,1.4,2.17,2.34,3.33,3.45a13.47,13.47,0,0,1,2.09,2.6,28.4,28.4,0,0,1-.16,6.32c-.15.9-.38,1.78-.46,2.68-.29,3.27,1.41,6.54.81,9.76a2.36,2.36,0,0,0,1.1,2.52,12.52,12.52,0,0,0,2.85.78c1.88.48,3.52,1.69,5.41,2.14.88.21,1.79.25,2.66.48l.14,0a6.33,6.33,0,0,0-1.4,2.66c-.38,1.64,0,3.39-.41,5a11.39,11.39,0,0,1-1.91,3.67l-4.58,6.62a42.71,42.71,0,0,1-3.37,4.43c-2.1,2.29-5.73,4.11-6.79,6.87l-.09-.2c-1.51,1.11-2.07,3.18-3.28,4.62-.58.7-1.31,1.27-1.95,1.91A21.46,21.46,0,0,0,580.2,346a48,48,0,0,0-4.88,7.77c-.67,1.45-1.19,3-1.72,4.46-2.1,5.91-5.52,11.52-6.94,17.64-.35,1.49-1.26,2.84-1.4,4.37a8.5,8.5,0,0,0,1.37,4.63c1.18,2.2,2.47,4.34,3.52,6.6.62,1.32,1.15,2.68,1.83,4s1.66,2.7,2.43,4.09A47.11,47.11,0,0,1,578.47,410.85Zm25.78-111.69-.18-.09a6.4,6.4,0,0,1-1.9-1.25c-1.67-1.8-2.4-4.5-2.92-6.91-.06-.28-.12-.57-.17-.86A40.88,40.88,0,0,1,604.25,299.16Z" transform="translate(-78 -130.68)"/><path fill="#fbbebe" d="M596.6,275.75a7.75,7.75,0,0,0-.83-2.61,5.93,5.93,0,0,0-1.22-1.28,8,8,0,0,0-2.6-1.62,3.24,3.24,0,0,0-3,.34,3.94,3.94,0,0,0-1.3,2.71,6.69,6.69,0,0,0,.7,4.11c.8,1.39,2.18,2.32,3.33,3.43a13,13,0,0,1,2.18,2.71,7.58,7.58,0,0,0,1,1.45,1.87,1.87,0,0,0,1.57.62,2.71,2.71,0,0,0,1.28-.75c.47-.41,1.75-1.16,1.79-1.82s-1-1.74-1.21-2.24A25.32,25.32,0,0,1,596.6,275.75Z" transform="translate(-78 -130.68)"/><path fill="#f86d70" d="M623.56,301.41a22.84,22.84,0,0,0-6.31-.78c-3.55.05-7.21.91-10.59-.18a18.38,18.38,0,0,1-2.54-1.1,6.52,6.52,0,0,1-1.89-1.24c-1.68-1.79-2.41-4.47-2.93-6.86a44.8,44.8,0,0,1-.8-7.3,5.74,5.74,0,0,1-2.77.73,2,2,0,0,1-1.93-1.79,29.73,29.73,0,0,1-.13,6.8c-.15.89-.38,1.76-.46,2.66-.29,3.24,1.42,6.49.81,9.69a2.34,2.34,0,0,0,1.1,2.5,12.46,12.46,0,0,0,2.86.78c1.88.48,3.53,1.67,5.42,2.12.88.21,1.79.25,2.66.48,1.25.33,2.38,1,3.65,1.27.95.17,1.93.05,2.9.13s1.66.29,2.49.32a7.24,7.24,0,0,0,5.37-2.66A23.09,23.09,0,0,0,623.56,301.41Z" transform="translate(-78 -130.68)"/><path d="M623.56,301.41a22.84,22.84,0,0,0-6.31-.78c-3.55.05-7.21.91-10.59-.18a18.38,18.38,0,0,1-2.54-1.1,6.52,6.52,0,0,1-1.89-1.24c-1.68-1.79-2.41-4.47-2.93-6.86a44.8,44.8,0,0,1-.8-7.3,5.74,5.74,0,0,1-2.77.73,2,2,0,0,1-1.93-1.79,29.73,29.73,0,0,1-.13,6.8c-.15.89-.38,1.76-.46,2.66-.29,3.24,1.42,6.49.81,9.69a2.34,2.34,0,0,0,1.1,2.5,12.46,12.46,0,0,0,2.86.78c1.88.48,3.53,1.67,5.42,2.12.88.21,1.79.25,2.66.48,1.25.33,2.38,1,3.65,1.27.95.17,1.93.05,2.9.13s1.66.29,2.49.32a7.24,7.24,0,0,0,5.37-2.66A23.09,23.09,0,0,0,623.56,301.41Z" opacity=".1" transform="translate(-78 -130.68)"/><g opacity=".1"><path fill="#3f3d56" d="M483.66,666.79v5.15a19.3,19.3,0,0,1-38.6,0v-5.15a19.3,19.3,0,0,1,38.6,0Z" transform="translate(-78 -130.68)"/><path fill="#3f3d56" d="M445.06,584.43v-5.14a19.3,19.3,0,1,1,38.6,0v5.14a19.08,19.08,0,0,1-.83,5.58,19.29,19.29,0,0,1-37.77-5.58Z" transform="translate(-78 -130.68)"/><path fill="#3f3d56" d="M483.66,623v5.15a19.3,19.3,0,0,1-38.6,0V623a19.3,19.3,0,0,1,38.6,0Z" transform="translate(-78 -130.68)"/><path fill="#3f3d56" d="M464.36,691.24a19.36,19.36,0,0,1,19.3,19.31v5.14a19.3,19.3,0,1,1-38.6,0v-5.14A19.36,19.36,0,0,1,464.36,691.24Z" transform="translate(-78 -130.68)"/><path d="M445.06,579.78v4.65A19.29,19.29,0,0,0,482.83,590Z" opacity=".1" transform="translate(-78 -130.68)"/><path d="M445.06,623.53v4.66a19.3,19.3,0,0,0,37.77,5.58Z" opacity=".1" transform="translate(-78 -130.68)"/><path d="M445.06,667.29v4.65a19.3,19.3,0,0,0,37.77,5.58Z" opacity=".1" transform="translate(-78 -130.68)"/><path d="M445.06,711v4.65a19.29,19.29,0,0,0,37.77,5.58Z" opacity=".1" transform="translate(-78 -130.68)"/><path fill="#3f3d56" d="M404.76,628.52l1.54,1.18a7.29,7.29,0,0,0,10.38-10,7.13,7.13,0,0,0-1.47-1.54L413.67,617a7.29,7.29,0,1,0-8.91,11.55Z" transform="translate(-78 -130.68)"/><path fill="#3f3d56" d="M426.76,627.06l1.54,1.19a7.29,7.29,0,0,1-8.91,11.55l-1.54-1.19a7.29,7.29,0,0,1,8.91-11.55Z" transform="translate(-78 -130.68)"/><path fill="#3f3d56" d="M439.84,637.16l1.54,1.19a7.29,7.29,0,0,1-8.91,11.55l-1.54-1.19a7.29,7.29,0,0,1,8.91-11.55Z" transform="translate(-78 -130.68)"/><path fill="#3f3d56" d="M452.93,647.26l1.54,1.19A7.29,7.29,0,1,1,445.56,660L444,658.81a7.29,7.29,0,0,1,8.91-11.55Z" transform="translate(-78 -130.68)"/><path d="M404.9,628.63l1.4,1.07a7.29,7.29,0,0,0,10.38-10Z" opacity=".1" transform="translate(-78 -130.68)"/><path d="M418,638.73l1.4,1.07a7.29,7.29,0,0,0,10.38-10Z" opacity=".1" transform="translate(-78 -130.68)"/><path d="M431.08,648.83l1.39,1.07a7.29,7.29,0,0,0,10.39-10Z" opacity=".1" transform="translate(-78 -130.68)"/><path fill="#6c63ff" d="M411.6,388.83a21.88,21.88,0,1,0,0,43.75,21.88,21.88,0,1,0,0,43.75,21.88,21.88,0,1,0,0,43.76,21.88,21.88,0,1,0,0,43.75H517.12a21.88,21.88,0,1,0,0-43.75,21.88,21.88,0,1,0,0-43.76,21.88,21.88,0,1,0,0-43.75,21.88,21.88,0,1,0,0-43.75,21.88,21.88,0,0,0,0-43.76,21.88,21.88,0,1,0,0-43.75H512.3c-2.77-18.82-24-33.46-49.87-33.46s-47.1,14.64-49.87,33.46h-1a21.88,21.88,0,1,0,0,43.75,21.88,21.88,0,0,0,0,43.76Z" transform="translate(-78 -130.68)"/><path d="M389.72,323.19a21.94,21.94,0,0,0,21.88,21.88H517.12L412.24,301.32h-.64A21.94,21.94,0,0,0,389.72,323.19Z" opacity=".1" transform="translate(-78 -130.68)"/><path d="M538.36,367a22,22,0,0,1-21.88,21.88H411l104.89-43.76h.64A22,22,0,0,1,538.36,367Z" opacity=".1" transform="translate(-78 -130.68)"/><path d="M538.36,454.46a21.94,21.94,0,0,1-21.88,21.87H411l104.89-43.75h.64A21.94,21.94,0,0,1,538.36,454.46Z" opacity=".1" transform="translate(-78 -130.68)"/><path d="M538.36,542a21.94,21.94,0,0,1-21.88,21.87H411l104.89-43.75h.64A21.94,21.94,0,0,1,538.36,542Z" opacity=".1" transform="translate(-78 -130.68)"/><path d="M389.72,410.7a21.94,21.94,0,0,0,21.88,21.88H517.12L412.24,388.83h-.64A21.94,21.94,0,0,0,389.72,410.7Z" opacity=".1" transform="translate(-78 -130.68)"/><path d="M389.72,498.21a22,22,0,0,0,21.88,21.88H517.12L412.24,476.33h-.64A22,22,0,0,0,389.72,498.21Z" opacity=".1" transform="translate(-78 -130.68)"/><path fill="#6c63ff" d="M401.81,651.1l34.75-18.71A8.18,8.18,0,0,0,428.8,618a8.18,8.18,0,1,0-7.75-14.41l-1.59.86c-4.25-5.71-13.85-6.76-22.36-2.18s-12.91,13.17-10.49,19.86l-.31.17a8.18,8.18,0,1,0,7.75,14.41,8.18,8.18,0,0,0,7.76,14.41Z" transform="translate(-78 -130.68)"/><path d="M383,633.36a8.21,8.21,0,0,0,11.08,3.33L428.8,618l-42.29,4.19-.21.11A8.21,8.21,0,0,0,383,633.36Z" opacity=".1" transform="translate(-78 -130.68)"/><path d="M439.67,621.42a8.2,8.2,0,0,1-3.32,11.08L401.6,651.21l26.78-33,.21-.12A8.21,8.21,0,0,1,439.67,621.42Z" opacity=".1" transform="translate(-78 -130.68)"/></g><g opacity=".1"><path fill="#3f3d56" d="M296.14,713.83v1.47a5.54,5.54,0,0,1-11.07,0v-1.47a5.54,5.54,0,1,1,11.07,0Z" transform="translate(-78 -130.68)"/><path fill="#3f3d56" d="M285.07,690.22v-1.48a5.54,5.54,0,0,1,11.07,0v1.48a5.35,5.35,0,0,1-.24,1.6,5.53,5.53,0,0,1-10.83-1.6Z" transform="translate(-78 -130.68)"/><path fill="#3f3d56" d="M296.14,701.29v1.47a5.54,5.54,0,0,1-11.07,0v-1.47a5.54,5.54,0,1,1,11.07,0Z" transform="translate(-78 -130.68)"/><path fill="#3f3d56" d="M290.61,720.83a5.55,5.55,0,0,1,5.53,5.54v1.47a5.54,5.54,0,1,1-11.07,0v-1.47A5.55,5.55,0,0,1,290.61,720.83Z" transform="translate(-78 -130.68)"/><path d="M285.07,688.89v1.33a5.53,5.53,0,0,0,10.83,1.6Z" opacity=".1" transform="translate(-78 -130.68)"/><path d="M285.07,701.43v1.33a5.53,5.53,0,0,0,10.83,1.6Z" opacity=".1" transform="translate(-78 -130.68)"/><path d="M285.07,714v1.33a5.53,5.53,0,0,0,10.83,1.6Z" opacity=".1" transform="translate(-78 -130.68)"/><path d="M285.07,726.51v1.33a5.53,5.53,0,0,0,10.83,1.6Z" opacity=".1" transform="translate(-78 -130.68)"/><path fill="#3f3d56" d="M273.52,702.85l.44.35a2.09,2.09,0,0,0,3-2.87,2,2,0,0,0-.42-.45l-.44-.34a2.09,2.09,0,1,0-2.56,3.31Z" transform="translate(-78 -130.68)"/><path fill="#3f3d56" d="M279.83,702.44l.44.34a2.09,2.09,0,1,1-2.55,3.31l-.45-.34a2.09,2.09,0,0,1,2.56-3.31Z" transform="translate(-78 -130.68)"/><path fill="#3f3d56" d="M283.58,705.33l.44.34a2.11,2.11,0,0,1,.38,2.94,2.09,2.09,0,0,1-2.93.37l-.44-.34a2.09,2.09,0,0,1,2.55-3.31Z" transform="translate(-78 -130.68)"/><path fill="#3f3d56" d="M287.33,708.23l.44.34a2.09,2.09,0,1,1-2.55,3.31l-.44-.34a2.09,2.09,0,0,1,2.55-3.31Z" transform="translate(-78 -130.68)"/><path d="M273.56,702.89l.4.31a2.09,2.09,0,0,0,3-2.87Z" opacity=".1" transform="translate(-78 -130.68)"/><path d="M277.32,705.78l.4.31a2.09,2.09,0,0,0,3-2.87Z" opacity=".1" transform="translate(-78 -130.68)"/><path d="M281.07,708.68l.4.3a2.09,2.09,0,0,0,2.93-.37,2.12,2.12,0,0,0,0-2.5Z" opacity=".1" transform="translate(-78 -130.68)"/><path fill="#6c63ff" d="M275.48,634.15a6.27,6.27,0,0,0,0,12.54,6.28,6.28,0,0,0,0,12.55,6.27,6.27,0,0,0,0,12.54,6.27,6.27,0,0,0,0,12.54h30.25a6.27,6.27,0,0,0,0-12.54,6.27,6.27,0,0,0,0-12.54,6.28,6.28,0,0,0,0-12.55,6.27,6.27,0,0,0,0-12.54,6.27,6.27,0,0,0,0-12.54,6.27,6.27,0,0,0,0-12.54h-1.38c-.8-5.39-6.89-9.59-14.3-9.59s-13.5,4.2-14.29,9.59h-.28a6.27,6.27,0,0,0,0,12.54,6.27,6.27,0,0,0,0,12.54Z" transform="translate(-78 -130.68)"/><path d="M269.21,615.34a6.29,6.29,0,0,0,6.27,6.27h30.25l-30.06-12.54h-.19A6.29,6.29,0,0,0,269.21,615.34Z" opacity=".1" transform="translate(-78 -130.68)"/><path d="M311.82,627.88a6.29,6.29,0,0,1-6.27,6.27H275.3l30.06-12.54h.19A6.29,6.29,0,0,1,311.82,627.88Z" opacity=".1" transform="translate(-78 -130.68)"/><path d="M311.82,653a6.3,6.3,0,0,1-6.27,6.27H275.3l30.06-12.55h.19A6.3,6.3,0,0,1,311.82,653Z" opacity=".1" transform="translate(-78 -130.68)"/><path d="M311.82,678.05a6.29,6.29,0,0,1-6.27,6.27H275.3l30.06-12.54h.19A6.29,6.29,0,0,1,311.82,678.05Z" opacity=".1" transform="translate(-78 -130.68)"/><path d="M269.21,640.42a6.29,6.29,0,0,0,6.27,6.27h30.25l-30.06-12.54h-.19A6.29,6.29,0,0,0,269.21,640.42Z" opacity=".1" transform="translate(-78 -130.68)"/><path d="M269.21,665.51a6.29,6.29,0,0,0,6.27,6.27h30.25l-30.06-12.54h-.19A6.29,6.29,0,0,0,269.21,665.51Z" opacity=".1" transform="translate(-78 -130.68)"/><path fill="#6c63ff" d="M272.68,709.33l10-5.37a5.22,5.22,0,0,1-1.27-7.3,2.34,2.34,0,0,0-3.18-.95l-.45.24c-1.22-1.63-4-1.94-6.41-.62s-3.7,3.77-3,5.69l-.09.05a5.22,5.22,0,0,1,1.27,7.3A2.35,2.35,0,0,0,272.68,709.33Z" transform="translate(-78 -130.68)"/><path d="M267.28,704.24a2.35,2.35,0,0,0,3.18,1l10-5.36L268.29,701l-.06,0A2.35,2.35,0,0,0,267.28,704.24Z" opacity=".1" transform="translate(-78 -130.68)"/><path d="M283.53,700.82a2.36,2.36,0,0,1-.95,3.18l-10,5.36,7.67-9.46.06,0A2.36,2.36,0,0,1,283.53,700.82Z" opacity=".1" transform="translate(-78 -130.68)"/></g><g opacity=".1"><path fill="#3f3d56" d="M834.26,655v6.27a23.53,23.53,0,0,0,47.06,0V655a23.53,23.53,0,0,0-47.06,0Z" transform="translate(-78 -130.68)"/><path fill="#3f3d56" d="M881.32,554.6v-6.27a23.53,23.53,0,0,0-47.06,0v6.27a23.12,23.12,0,0,0,1,6.8,23.52,23.52,0,0,0,46-6.8Z" transform="translate(-78 -130.68)"/><path fill="#3f3d56" d="M834.26,601.66v6.28a23.53,23.53,0,0,0,47.06,0v-6.28a23.53,23.53,0,0,0-47.06,0Z" transform="translate(-78 -130.68)"/><path fill="#3f3d56" d="M857.79,684.8a23.6,23.6,0,0,0-23.53,23.53v6.27a23.53,23.53,0,0,0,47.06,0v-6.27A23.59,23.59,0,0,0,857.79,684.8Z" transform="translate(-78 -130.68)"/><path d="M881.32,548.93v5.67a23.52,23.52,0,0,1-46,6.8Z" opacity=".1" transform="translate(-78 -130.68)"/><path d="M881.32,602.27v5.67a23.52,23.52,0,0,1-46,6.8Z" opacity=".1" transform="translate(-78 -130.68)"/><path d="M881.32,655.6v5.67a23.52,23.52,0,0,1-46,6.8Z" opacity=".1" transform="translate(-78 -130.68)"/><path d="M881.32,708.93v5.67a23.52,23.52,0,0,1-46,6.8Z" opacity=".1" transform="translate(-78 -130.68)"/><path fill="#3f3d56" d="M930.45,608.34l-1.88,1.45a8.89,8.89,0,0,1-12.66-12.21,8.6,8.6,0,0,1,1.8-1.87l1.88-1.45a8.89,8.89,0,1,1,10.86,14.08Z" transform="translate(-78 -130.68)"/><path fill="#3f3d56" d="M903.63,606.57,901.76,608a8.89,8.89,0,1,0,10.86,14.07l1.87-1.44a8.89,8.89,0,1,0-10.86-14.08Z" transform="translate(-78 -130.68)"/><path fill="#3f3d56" d="M887.68,618.88l-1.88,1.45a8.89,8.89,0,1,0,10.86,14.07l1.88-1.44a8.89,8.89,0,1,0-10.86-14.08Z" transform="translate(-78 -130.68)"/><path fill="#3f3d56" d="M871.72,631.19l-1.87,1.44a8.89,8.89,0,0,0,10.86,14.08l1.87-1.45a8.89,8.89,0,1,0-10.86-14.07Z" transform="translate(-78 -130.68)"/><path d="M930.27,608.48l-1.7,1.31a8.89,8.89,0,0,1-12.66-12.21Z" opacity=".1" transform="translate(-78 -130.68)"/><path d="M914.31,620.79l-1.69,1.3A8.89,8.89,0,0,1,900,609.89Z" opacity=".1" transform="translate(-78 -130.68)"/><path d="M898.36,633.09l-1.7,1.31A8.89,8.89,0,0,1,884,622.2Z" opacity=".1" transform="translate(-78 -130.68)"/><path fill="#6c63ff" d="M922.11,316.17a26.67,26.67,0,0,1,0,53.34,26.67,26.67,0,0,1,0,53.33,26.67,26.67,0,0,1,0,53.33,26.67,26.67,0,0,1,0,53.34H793.48a26.67,26.67,0,0,1,0-53.34,26.67,26.67,0,1,1,0-53.33,26.67,26.67,0,1,1,0-53.33,26.67,26.67,0,0,1,0-53.34,26.67,26.67,0,1,1,0-53.33,26.67,26.67,0,1,1,0-53.33h5.88c3.38-22.94,29.3-40.79,60.79-40.79s57.41,17.85,60.79,40.79h1.17a26.67,26.67,0,0,1,0,53.33,26.67,26.67,0,0,1,0,53.33Z" transform="translate(-78 -130.68)"/><path d="M948.77,236.18a26.74,26.74,0,0,1-26.66,26.66H793.48l127.84-53.33h.79A26.74,26.74,0,0,1,948.77,236.18Z" opacity=".1" transform="translate(-78 -130.68)"/><path d="M767.6,289.51a26.74,26.74,0,0,0,26.67,26.66H922.89L795.05,262.84h-.78A26.75,26.75,0,0,0,767.6,289.51Z" opacity=".1" transform="translate(-78 -130.68)"/><path d="M767.6,396.17a26.75,26.75,0,0,0,26.67,26.67H922.89L795.05,369.51h-.78A26.74,26.74,0,0,0,767.6,396.17Z" opacity=".1" transform="translate(-78 -130.68)"/><path d="M767.6,502.84a26.75,26.75,0,0,0,26.67,26.67H922.89L795.05,476.17h-.78A26.75,26.75,0,0,0,767.6,502.84Z" opacity=".1" transform="translate(-78 -130.68)"/><path d="M948.77,342.84a26.74,26.74,0,0,1-26.66,26.67H793.48l127.84-53.34h.79A26.74,26.74,0,0,1,948.77,342.84Z" opacity=".1" transform="translate(-78 -130.68)"/><path d="M948.77,449.51a26.74,26.74,0,0,1-26.66,26.66H793.48l127.84-53.33h.79A26.74,26.74,0,0,1,948.77,449.51Z" opacity=".1" transform="translate(-78 -130.68)"/><path fill="#6c63ff" d="M934,635.86l-42.36-22.8a10,10,0,0,1,9.46-17.56,10,10,0,1,1,9.45-17.56l1.94,1c5.18-7,16.87-8.24,27.24-2.66s15.75,16.06,12.79,24.21l.39.21a10,10,0,1,1-9.46,17.56A10,10,0,1,1,934,635.86Z" transform="translate(-78 -130.68)"/><path d="M957,614.25a10,10,0,0,1-13.51,4l-42.35-22.8,51.55,5.1.26.14A10,10,0,0,1,957,614.25Z" opacity=".1" transform="translate(-78 -130.68)"/><path d="M887.89,599.69a10,10,0,0,0,4.05,13.51L934.3,636l-32.65-40.22-.25-.14A10,10,0,0,0,887.89,599.69Z" opacity=".1" transform="translate(-78 -130.68)"/></g><ellipse cx="522" cy="615.64" fill="#3f3d56" rx="522" ry="23"/><ellipse cx="502" cy="614.64" opacity=".1" rx="113" ry="15.07"/><path fill="#3f3d56" d="M587.83,745.38a23,23,0,0,1-27.26-25.08c2.62-23.16,10.77-60.47,33.06-116.48,25.84-64.94,16.52-80.63-11.17-127.2-8.94-15.05-19.08-32.1-30-54C524.3,366.36,535,323,548.9,296.61c14.78-28.09,35.92-42.8,38.28-44.39L609,288.32l-2,2c-.05,0,1,0,2.52,2.77a87.21,87.21,0,0,0-20.67,26.47c-12.1,24.23-10.5,52,4.75,82.47,10.21,20.42,19.89,36.71,28.43,51.08,15.34,25.8,27.45,46.18,31.46,71.91,4.15,26.63-1,55.28-17.09,95.8-21.21,53.29-28,86.64-30.07,104.54a23.05,23.05,0,0,1-18.47,20Z" transform="translate(-78 -130.68)"/><polygon fill="#6c63ff" points="409 92.55 501.55 0 595 92.55 531.49 92.55 531.49 163.32 472.51 163.32 472.51 93 409 92.55"/><ellipse cx="704" cy="606.38" opacity=".1" rx="59" ry="7.87"/><path fill="#3f3d56" d="M786.09,737.09A12,12,0,0,1,771.86,724c1.36-12.09,5.62-31.57,17.26-60.81,13.49-33.91,8.62-42.1-5.83-66.42-4.67-7.85-10-16.76-15.69-28.2-14.68-29.37-9.1-52-1.84-65.78a66.88,66.88,0,0,1,20-23.18l11.39,18.85-1.06,1s.54,0,1.32,1.45a45.48,45.48,0,0,0-10.8,13.82c-6.31,12.65-5.47,27.14,2.49,43.06,5.33,10.66,10.38,19.17,14.84,26.67,8,13.47,14.33,24.11,16.43,37.55,2.16,13.9-.51,28.86-8.93,50-11.07,27.82-14.62,45.23-15.7,54.58a12,12,0,0,1-9.64,10.45Z" transform="translate(-78 -130.68)"/><polygon fill="#6c63ff" points="655.44 333.78 703.76 285.46 752.56 333.78 719.4 333.78 719.4 370.73 688.6 370.73 688.6 334.02 655.44 333.78"/><ellipse cx="300" cy="606.38" opacity=".1" rx="59" ry="7.87"/><path fill="#3f3d56" d="M373.91,737.09A12,12,0,0,0,388.14,724c-1.36-12.09-5.62-31.57-17.26-60.81-13.49-33.91-8.62-42.1,5.83-66.42,4.67-7.85,10-16.76,15.69-28.2,14.68-29.37,9.1-52,1.84-65.78a66.88,66.88,0,0,0-20-23.18l-11.39,18.85,1.06,1s-.54,0-1.32,1.45a45.48,45.48,0,0,1,10.8,13.82c6.31,12.65,5.47,27.14-2.49,43.06-5.33,10.66-10.38,19.17-14.84,26.67-8,13.47-14.33,24.11-16.43,37.55-2.16,13.9.51,28.86,8.93,50,11.07,27.82,14.62,45.23,15.7,54.58a12,12,0,0,0,9.64,10.45Z" transform="translate(-78 -130.68)"/><polygon fill="#6c63ff" points="348.56 333.78 300.24 285.46 251.44 333.78 284.6 333.78 284.6 370.73 315.4 370.73 315.4 334.02 348.56 333.78"/><ellipse cx="579.29" cy="420.92" opacity=".1" rx="21" ry="2.5" transform="translate(-173.64 51.04) rotate(-16.49)"/><ellipse cx="588.29" cy="440.92" opacity=".1" rx="21" ry="2.5" transform="translate(-178.95 54.42) rotate(-16.49)"/><ellipse cx="598.29" cy="455.92" opacity=".1" rx="21" ry="2.5" transform="translate(-182.8 57.87) rotate(-16.49)"/><ellipse cx="606.29" cy="470.92" opacity=".1" rx="21" ry="2.5" transform="translate(-186.72 60.76) rotate(-16.49)"/><path fill="#6c63ff" d="M959.2,738.72l-42.48,0a8.81,8.81,0,0,1,0-17.62,8.81,8.81,0,1,1,0-17.61h1.94c1.11-7.58,9.66-13.48,20.06-13.49s19,5.88,20.09,13.45h.39a8.81,8.81,0,1,1,0,17.61,8.81,8.81,0,0,1,0,17.62Z" transform="translate(-78 -130.68)"/><path d="M968,712.29a8.82,8.82,0,0,1-8.8,8.81l-42.47,0,42.2-17.65h.26A8.83,8.83,0,0,1,968,712.29Z" opacity=".1" transform="translate(-78 -130.68)"/><path d="M908.17,730a8.83,8.83,0,0,0,8.81,8.8l42.48,0-42.23-17.57H917A8.84,8.84,0,0,0,908.17,730Z" opacity=".1" transform="translate(-78 -130.68)"/><path fill="#6c63ff" d="M701,728.2l-24.11,0a5,5,0,0,1,0-10,5,5,0,0,1,0-10H678c.62-4.3,5.48-7.65,11.38-7.65s10.76,3.33,11.4,7.63H701a5,5,0,1,1,0,10,5,5,0,0,1,0,10Z" transform="translate(-78 -130.68)"/><path d="M706,713.2a5,5,0,0,1-5,5l-24.11,0,24-10H701A5,5,0,0,1,706,713.2Z" opacity=".1" transform="translate(-78 -130.68)"/><path d="M672.05,723.23a5,5,0,0,0,5,5l24.1,0-24-10H677A5,5,0,0,0,672.05,723.23Z" opacity=".1" transform="translate(-78 -130.68)"/><path fill="#6c63ff" d="M249.45,756.57l-51,0a10.57,10.57,0,1,1,0-21.13,10.57,10.57,0,1,1,0-21.13h2.32c1.33-9.09,11.6-16.17,24.07-16.18s22.75,7.05,24.1,16.13h.46a10.57,10.57,0,0,1,0,21.13,10.57,10.57,0,0,1,0,21.13Z" transform="translate(-78 -130.68)"/><path d="M260,724.87a10.59,10.59,0,0,1-10.55,10.57l-51,0,50.62-21.18h.31A10.61,10.61,0,0,1,260,724.87Z" opacity=".1" transform="translate(-78 -130.68)"/><path d="M188.22,746.07a10.6,10.6,0,0,0,10.58,10.55l51,0-50.67-21.08h-.31A10.61,10.61,0,0,0,188.22,746.07Z" opacity=".1" transform="translate(-78 -130.68)"/><path fill="#6c63ff" d="M354,283.74A20.32,20.32,0,0,0,342.21,285a17.27,17.27,0,0,1-14.1,0,19.8,19.8,0,0,0-16.58.32,10.29,10.29,0,0,1-4.77,1.2c-6.72,0-12.31-6.77-13.47-15.71a12.94,12.94,0,0,0,3.36-3.62c3.94-6.35,10-10.42,16.89-10.42s12.89,4,16.83,10.31a13,13,0,0,0,11.16,6.13h.18C347.06,273.2,351.69,277.49,354,283.74Z" opacity=".1" transform="translate(-78 -130.68)"/><path fill="#6c63ff" d="M374.42,255.71l-10.86,6.89,6.59-12a10.69,10.69,0,0,0-6.57-2.35h-.17a12,12,0,0,1-2.25-.16l-3.69,2.33,1.58-2.87a13.13,13.13,0,0,1-6.44-4.89L346,246.85l4.16-7.57c-3.85-4.62-9.05-7.46-14.76-7.46-6.85,0-13,4.07-16.9,10.42a12.65,12.65,0,0,1-11.17,6H307c-7.56,0-13.7,8.58-13.7,19.16s6.14,19.16,13.7,19.16a10.17,10.17,0,0,0,4.77-1.2,19.8,19.8,0,0,1,16.58-.32,17.5,17.5,0,0,0,7.09,1.52,17.29,17.29,0,0,0,7-1.49,19.79,19.79,0,0,1,16.43.32,10.24,10.24,0,0,0,4.72,1.17c7.57,0,13.7-8.58,13.7-19.16A24.35,24.35,0,0,0,374.42,255.71Z" opacity=".1" transform="translate(-78 -130.68)"/><path fill="#6c63ff" d="M210.62,393.74A20.32,20.32,0,0,1,222.36,395a17.24,17.24,0,0,0,14.09,0,19.8,19.8,0,0,1,16.58.32,10.32,10.32,0,0,0,4.77,1.2c6.72,0,12.32-6.77,13.48-15.71a12.79,12.79,0,0,1-3.36-3.62c-3.94-6.35-10.05-10.42-16.9-10.42s-12.88,4-16.82,10.31A13,13,0,0,1,223,383.2h-.17C217.51,383.2,212.87,387.49,210.62,393.74Z" opacity=".1" transform="translate(-78 -130.68)"/><path fill="#6c63ff" d="M190.14,365.71,201,372.6l-6.6-12a10.71,10.71,0,0,1,6.57-2.35h.18a12,12,0,0,0,2.25-.16l3.68,2.33-1.58-2.87a13.15,13.15,0,0,0,6.45-4.89l6.59,4.18-4.17-7.57c3.86-4.62,9.05-7.46,14.77-7.46,6.85,0,12.95,4.07,16.9,10.42a12.64,12.64,0,0,0,11.17,6h.36c7.57,0,13.7,8.58,13.7,19.16s-6.13,19.16-13.7,19.16a10.23,10.23,0,0,1-4.77-1.2,19.8,19.8,0,0,0-16.58-.32,17.45,17.45,0,0,1-7.08,1.52,17.22,17.22,0,0,1-7-1.49,19.81,19.81,0,0,0-16.44.32,10.21,10.21,0,0,1-4.72,1.17c-7.56,0-13.7-8.58-13.7-19.16A24.35,24.35,0,0,1,190.14,365.71Z" opacity=".1" transform="translate(-78 -130.68)"/><path fill="#fbbebe" d="M629.19,401.75a5.23,5.23,0,0,1,1.82.57,4.31,4.31,0,0,1,1.59,2.13,18.8,18.8,0,0,1,1.06,6.67,14.3,14.3,0,0,1-.69,5.41,3.38,3.38,0,0,1-.9,1.41,3.12,3.12,0,0,1-1.24.6,3.31,3.31,0,0,1-2.91-.36,4.62,4.62,0,0,1-1.29-3A7.07,7.07,0,0,0,624.9,411c-.83-.77-2-1.16-2.61-2.11-.72-1.14-.34-2.62.12-3.88.39-1.1,1-3.32,2.12-3.88S628,401.53,629.19,401.75Z" transform="translate(-78 -130.68)"/><path fill="#fbbebe" d="M587,407.13a8.54,8.54,0,0,0,1.79,3.31c.51.59,1.14,1.3.87,2a1.7,1.7,0,0,1-.48.65c-3.76,3.68-9,5.47-14.25,6.12a.53.53,0,0,1-.25,0c-.15-.07-.19-.26-.21-.43a5.31,5.31,0,0,1,0-1.64,4.88,4.88,0,0,1,2.47-2.88,7.84,7.84,0,0,0,2.9-2.53c.76-1.43.44-3.29,1.34-4.63a4.85,4.85,0,0,1,3.4-1.75c.44-.07,1.4-.57,1.78-.34S586.85,406.68,587,407.13Z" transform="translate(-78 -130.68)"/><path fill="#f86d70" d="M629.7,401.62a.53.53,0,0,1,.46-.52,1.57,1.57,0,0,1,.74.1,11,11,0,0,0,1.79.33,13,13,0,0,1,2.16.25,2.44,2.44,0,0,1,1.67,1.28,3.22,3.22,0,0,1,.19,1.2,19,19,0,0,1-.56,4.68c0,.11-.08.25-.19.29s-.2,0-.29,0a.38.38,0,0,0-.17.2,10.32,10.32,0,0,0-.64,3.13c-.18,1.57-.39,3.14-.65,4.7a5.24,5.24,0,0,1-1,2.57,4.25,4.25,0,0,1-2.7,1.24,19,19,0,0,1-6.36-.58,1.85,1.85,0,0,1-1.07-.48,1.23,1.23,0,0,1-.26-.85c0-1,1-1.79,1.88-2.37L626,416a.64.64,0,0,0,.21-.19.72.72,0,0,0,.06-.39l-.08-1.54A4.4,4.4,0,0,1,630,416.3c.17.33.33.72.67.85a.89.89,0,0,0,1.05-.64,2.69,2.69,0,0,0,0-1.35c-.7-3.77-.53-7.65-1-11.46a2.54,2.54,0,0,0-.39-1.2C630.13,402.22,629.75,402,629.7,401.62Z" transform="translate(-78 -130.68)"/><path fill="#f86d70" d="M577.28,416.23c-.18.29-.46.51-.62.82a.69.69,0,0,0,.13.91.89.89,0,0,0,.56.06,18.83,18.83,0,0,0,10.15-4.59,7,7,0,0,0,1.24-1.37c.33-.5.61-1.11,1.17-1.32a20.29,20.29,0,0,1,.53,4.46,3.17,3.17,0,0,1-1,2.69,3.23,3.23,0,0,1-1,.43l-1.77.5a1.79,1.79,0,0,1-1,.09,4.44,4.44,0,0,0-.61-.22,1.44,1.44,0,0,0-.68.08l-1.52.45a8.68,8.68,0,0,0-1.51.52c-.44.21-.84.48-1.26.71a15.7,15.7,0,0,1-2.21.89l-2.68.93a9.45,9.45,0,0,1-2.28.59c-.54,0-1.08,0-1.62.09s-.79.21-1.21.25a3.25,3.25,0,0,1-1.9-.56,1.88,1.88,0,0,1-.55-.5c-.38-.59,0-1.38.33-2a7.74,7.74,0,0,1,2.71-2.8c.47-.26,1-.45,1.45-.68,1.37-.66,2.4-1.77,3.69-2.53S577.85,415.29,577.28,416.23Z" transform="translate(-78 -130.68)"/><path fill="#fbbebe" d="M614.92,308.31a11.18,11.18,0,0,0,4.74,1.85,20.06,20.06,0,0,0,2.68.14,69.45,69.45,0,0,0,11.16-.93,13.82,13.82,0,0,1-3.51-5.46,9.15,9.15,0,0,1-.17-3.42,26.82,26.82,0,0,1,1-4.31,28.64,28.64,0,0,1-4.72-.12c-.89-.09-3.08-.9-3.86-.28s-.18,2.59-.16,3.53a.38.38,0,0,1,0,.1,11.25,11.25,0,0,1-.9,4.12A7.75,7.75,0,0,1,614.92,308.31Z" transform="translate(-78 -130.68)"/><path d="M622.13,299.31a9.42,9.42,0,0,0,7.69,1.18,26.82,26.82,0,0,1,1-4.31,28.64,28.64,0,0,1-4.72-.12c-.89-.09-3.08-.9-3.86-.28S622.11,298.37,622.13,299.31Z" opacity=".1" transform="translate(-78 -130.68)"/><circle cx="549.27" cy="160.33" r="9.4" fill="#fbbebe"/><path fill="#f86d70" d="M587.4,338.55a4.39,4.39,0,0,0,2.12,3.77,8.08,8.08,0,0,0,2.3.81,45.23,45.23,0,0,0,13.12,1.62,7.32,7.32,0,0,0,2.78-.58,3,3,0,0,0,1.72-2.15,1.22,1.22,0,0,1,.78-1.26,2.66,2.66,0,0,0,1-2.66c.54.24,1.1-.3,1.35-.83s.45-1.18,1-1.4a7.5,7.5,0,0,1,1.17-.17c.62-.16,1-.76,1.44-1.22a10.82,10.82,0,0,1,3.32-2c3.46-1.75,6.27-4.51,9-7.23a30.24,30.24,0,0,0,3.88-4.35c.31-.46.6-.93.86-1.41a39.68,39.68,0,0,0,2.17-4.95,5.76,5.76,0,0,0,.55-2.84,2.38,2.38,0,0,0,0-.26,5.42,5.42,0,0,0-.85-1.72,7.2,7.2,0,0,0-3.85-3.17c-1.62-.43-3.28.09-5,.44a12.2,12.2,0,0,1-1.68.26,15.63,15.63,0,0,1-5.23-.82l-1.87-.51c-.93-.26-1.4-1.39-2.34-1.59a3.41,3.41,0,0,0-1.27.07,17.26,17.26,0,0,0-5.54,1.81,8.43,8.43,0,0,0-1.07.73,6.84,6.84,0,0,0-2.5,3.69c-.39,1.63,0,3.36-.42,5a11.06,11.06,0,0,1-1.91,3.64l-4.58,6.58a40,40,0,0,1-3.38,4.39C592,332.88,587.47,334.91,587.4,338.55Z" transform="translate(-78 -130.68)"/><path fill="#fbbebe" d="M599.66,275.75a7.75,7.75,0,0,0-.83-2.61,5.93,5.93,0,0,0-1.22-1.28,8,8,0,0,0-2.6-1.62,3.24,3.24,0,0,0-3,.34,3.94,3.94,0,0,0-1.3,2.71,6.69,6.69,0,0,0,.7,4.11c.8,1.39,2.18,2.32,3.33,3.43a13,13,0,0,1,2.18,2.71,7.58,7.58,0,0,0,1,1.45,1.87,1.87,0,0,0,1.57.62,2.71,2.71,0,0,0,1.28-.75c.47-.41,1.75-1.16,1.79-1.82s-1-1.74-1.21-2.24A25.32,25.32,0,0,1,599.66,275.75Z" transform="translate(-78 -130.68)"/><path fill="#434175" d="M566.63,384.59c1.18,2.18,2.48,4.3,3.53,6.55.61,1.31,1.15,2.66,1.83,3.93s1.66,2.69,2.44,4.06a47.18,47.18,0,0,1,4.06,11.24,22.62,22.62,0,0,0,8-2.81c.16-.1.32-.2.47-.31a5.76,5.76,0,0,0,1.62-1.78c-.93-3.53-1.89-7.11-3.79-10.22-.61-1-1.32-2-2-3-1.85-2.9-2.23-6.56-4.33-9.28a1.59,1.59,0,0,1,0-1.89c.24-.31.63-.61.55-1s-.35-.55-.23-.81.18-.2.29-.29c.35-.33.31-.9.34-1.38a6.83,6.83,0,0,1,1.53-3.32,2.14,2.14,0,0,1,.56-.6c.19-.12.42-.17.61-.29.67-.42.62-1.4.94-2.13.43-1,1.49-1.44,2.18-2.22.89-1,1.11-2.37,2-3.23a2.6,2.6,0,0,1,.31-.25,15.3,15.3,0,0,0-.55,4.53c-.09,5.23,1.22,10.65.6,15.85-.48,4.13,2.06,8.25,5.66,10.31a27.06,27.06,0,0,0,4.41,1.85c2.26.8,4.51,1.63,6.72,2.55q2.34,1,4.62,2.09a57,57,0,0,1,5.46,3,21,21,0,0,1,5.89,4.84,5.26,5.26,0,0,0,3.8-2.09,14.59,14.59,0,0,0,2.09-3.94,10.86,10.86,0,0,0,1-3.71.71.71,0,0,0-.41-.67l-10.31-5.47-1.93-1c-4.22-2.24-8.6-4.31-12.82-6.55-.28.08-.52-.24-.6-.52s-.14-.63-.41-.76-.31-.06-.41-.17a.44.44,0,0,1-.07-.34c.14-2,1.61-3.92,1.31-5.95a7.13,7.13,0,0,1-.37-2.56,12,12,0,0,1,.78-1.62c.51-1.24,0-2.74.56-4a9,9,0,0,0,.74-2.53,17.25,17.25,0,0,1,1.58-5,9,9,0,0,1,1.45-2.2c.31-.33.66-.63,1-1a8,8,0,0,0,1.48-3.84,18.36,18.36,0,0,0,.21-7.52,11.08,11.08,0,0,1-.48-2.53c0-1.14.51-2.47-.28-3.29a2.53,2.53,0,0,0-1.15-.59,36.45,36.45,0,0,0-5.59-1l-8.62-1.12a8,8,0,0,1-2.87-.74,5.73,5.73,0,0,1-2.41-3.09c-1.52,1.1-2.08,3.16-3.29,4.58-.59.7-1.31,1.26-2,1.9a23,23,0,0,0-2.16,2.66,47.13,47.13,0,0,0-4.88,7.72c-.67,1.44-1.19,2.94-1.73,4.43-2.1,5.87-5.53,11.44-7,17.51-.35,1.49-1.26,2.83-1.4,4.34A8.41,8.41,0,0,0,566.63,384.59Z" transform="translate(-78 -130.68)"/><path d="M611.74,335.83a2.57,2.57,0,0,1,.31,1.27c-.19-1-1.5-1.48-1.58-2.42,0-.43,0-.41.31-.18S611.36,335.46,611.74,335.83Z" opacity=".1" transform="translate(-78 -130.68)"/><path d="M607.76,338.71a2,2,0,0,1,.59.88,2.22,2.22,0,0,1,.12,1.54c-.19-.09-.25-.33-.31-.53a3.73,3.73,0,0,0-.41-.91c-.15-.25-.87-.83-.86-1.1S607.57,338.57,607.76,338.71Z" opacity=".1" transform="translate(-78 -130.68)"/><path d="M607.3,306.91a10,10,0,0,0,2,1.32c1.86.94,3.92,1.44,5.8,2.35.93.46,1.81,1,2.69,1.57l5.57,3.53a6.63,6.63,0,0,1,1.23.93c.66.72.66,2,1.27,2.74a3.71,3.71,0,0,0,2.71,1.25,8.9,8.9,0,0,0,3-.51,15.42,15.42,0,0,0,1.72-.63,8.17,8.17,0,0,0,1.65-.94,4.74,4.74,0,0,0,2-3.08,6.18,6.18,0,0,0-.33-2.51,9.41,9.41,0,0,0-.6-1.52,4.93,4.93,0,0,0-.47-.8c-1.28-1.81-3.53-2.66-5.71-3.09-1.15-.22-2.32-.36-3.47-.56a12.2,12.2,0,0,1-1.68.26,15.63,15.63,0,0,1-5.23-.82l-1.87-.51c-.93-.26-1.4-1.39-2.34-1.59a3.41,3.41,0,0,0-1.27.07,17.26,17.26,0,0,0-5.54,1.81A8.43,8.43,0,0,0,607.3,306.91Z" opacity=".1" transform="translate(-78 -130.68)"/><path fill="#f86d70" d="M602.76,282c.24,2.27,2.15,3.94,3.32,5.9.57,1,1,2,1.48,3a30.38,30.38,0,0,0,2,3.1l2.09,3a31.39,31.39,0,0,0,4,5.07c2.74.47,5,2.5,7.62,3.48a38.64,38.64,0,0,0,6.52,1.32c2.18.43,4.43,1.28,5.71,3.09a8.51,8.51,0,0,1,1.07,2.33,6.13,6.13,0,0,1,.33,2.51,4.74,4.74,0,0,1-2,3.07,10.39,10.39,0,0,1-3.37,1.57,8.66,8.66,0,0,1-3,.51,3.67,3.67,0,0,1-2.71-1.25c-.61-.76-.6-2-1.27-2.73a6.12,6.12,0,0,0-1.23-.93l-5.57-3.53a26.92,26.92,0,0,0-2.69-1.57c-1.88-.92-3.94-1.41-5.8-2.36s-3.6-2.49-4-4.55c-1.13-6.31-5.5-11.63-9.23-16.84.12,0,.08-.3.13-.42a5.4,5.4,0,0,1,2.73-2.76A16,16,0,0,1,602.76,282Z" transform="translate(-78 -130.68)"/><path fill="#434175" d="M622.45,282a3.37,3.37,0,0,1,.39-2,4.41,4.41,0,0,1,3.09-1.63c1.13-.24,2.26-.43,3.4-.6a7.81,7.81,0,0,1,2.81-.05,19,19,0,0,1,3.51,1.66,24.32,24.32,0,0,0,4.46,1.14,6.75,6.75,0,0,1,4,2.15A7.49,7.49,0,0,1,645.3,286c1.78,9.6-.14,19.44-.5,29.2-.14,3.79,0,7.85,2.2,11l-6.32-.16c-1.61-.05-3.35-.13-4.63-1.13a7.57,7.57,0,0,1-2.12-3.63,11.23,11.23,0,0,1-.81-3.25c-.1-2.3,1.2-4.55.78-6.8A7.58,7.58,0,0,0,631,307a26.51,26.51,0,0,1-3.83-3.41c-1.89-2.4-2.25-5.67-2-8.72a32.92,32.92,0,0,0,.31-5.42,6.84,6.84,0,0,0-1.43-3.81A5.28,5.28,0,0,1,622.45,282Z" transform="translate(-78 -130.68)"/><path d="M622.84,280a4.33,4.33,0,0,1,3-1.62,2.94,2.94,0,0,0-1.5,1.18,3.37,3.37,0,0,0-.39,2,5.24,5.24,0,0,0,1.62,3.64A6.84,6.84,0,0,1,627,289a33,33,0,0,1-.31,5.43c-.23,3,.13,6.31,2,8.71a26.51,26.51,0,0,0,3.83,3.41,7.61,7.61,0,0,1,2.86,4.15c.42,2.26-.88,4.51-.78,6.8a11.16,11.16,0,0,0,.81,3.25,7.57,7.57,0,0,0,2.12,3.63c1.28,1,3,1.09,4.63,1.13l4.48.12c.1.16.2.32.31.48l-6.32-.16c-1.61-.05-3.35-.13-4.63-1.13a7.57,7.57,0,0,1-2.12-3.63,11.23,11.23,0,0,1-.81-3.25c-.1-2.3,1.2-4.55.78-6.8A7.58,7.58,0,0,0,631,307a26.51,26.51,0,0,1-3.83-3.41c-1.89-2.4-2.25-5.67-2-8.72a32.92,32.92,0,0,0,.31-5.42,6.84,6.84,0,0,0-1.43-3.81,5.28,5.28,0,0,1-1.62-3.64A3.37,3.37,0,0,1,622.84,280Z" opacity=".1" transform="translate(-78 -130.68)"/><path d="M575.37,379,587,407.25a5.76,5.76,0,0,0,1.62-1.78c-.93-3.53-1.89-7.11-3.79-10.22-.61-1-1.32-2-2-3-1.85-2.9-2.23-6.56-4.33-9.28a1.59,1.59,0,0,1,0-1.89c.24-.31.63-.61.55-1s-.35-.55-.23-.81.18-.2.29-.29c.35-.33.31-.9.34-1.38a6.83,6.83,0,0,1,1.53-3.32,2.14,2.14,0,0,1,.56-.6c.19-.12.42-.17.61-.29.67-.42.62-1.4.94-2.13.43-1,1.49-1.44,2.18-2.22.89-1,1.11-2.37,2-3.23l.08-.2-.88-5.46Z" opacity=".1" transform="translate(-78 -130.68)"/></svg>