<svg xmlns="http://www.w3.org/2000/svg" width="80" height="80" viewBox="0 0 80 80"><path d="M 40 6 C 34.10087 6 28.631508 7.4388348 24.585938 10.570312 C 20.540366 13.701792 18 18.558702 18 25 C 18 32.997111 21.611712 38.732993 24.011719 44.177734 A 1.0001 1.0001 0 0 0 24.041016 44.28125 C 24.562974 46.055908 23.995656 47.314179 22.814453 48.337891 C 21.633248 49.361602 19.770833 50 18 50 C 15.105333 50 12 47.168771 12 44.25 C 12 41.922643 12.777354 40.99285 13.490234 40.619141 C 14.203115 40.245431 15.009178 40.490094 15.230469 40.726562 L 15.175781 40.662109 C 15.420344 40.971587 15.628376 41.092542 15.873047 41.238281 C 16.117718 41.384021 16.322066 41.51604 16.734375 41.578125 A 1.0001 1.0001 0 0 0 16.736328 41.578125 C 17.179496 41.644305 17.71067 41.490125 18.033203 41.167969 C 18.355736 40.845816 18.479648 40.448167 18.507812 40.082031 C 18.591732 38.99712 18.017682 38.297498 17.798828 37.953125 A 1.0001 1.0001 0 0 0 17.796875 37.953125 C 16.504606 35.92453 14.461259 35 12 35 C 9.8452381 35 8.0555232 36.30802 6.8652344 38.023438 C 5.6749455 39.738854 5 41.902778 5 44 C 5 47.225712 5.8654148 51.252848 8.9316406 54.474609 C 11.802865 57.491478 16.540874 59.701579 23.953125 59.970703 C 23.543692 60.677856 23.087812 61.310474 22.582031 61.826172 A 1.0001 1.0001 0 0 0 22.580078 61.828125 C 20.20563 64.25178 17.564222 66 15 66 C 12.127562 66 10.673548 64.932358 9.6933594 63.833984 C 9.2032652 63.284798 8.8512439 62.72309 8.5488281 62.246094 C 8.3976203 62.007596 8.2657453 61.792038 8.0839844 61.574219 C 7.9022235 61.356399 7.6208333 61 7 61 C 6.5616667 61 6.1277874 61.187079 5.8417969 61.441406 C 5.5558063 61.695734 5.389966 61.989307 5.2753906 62.265625 C 5.0462398 62.81826 5 63.336989 5 63.75 C 5 66.370554 5.8029545 68.760568 7.6484375 70.433594 C 9.4939205 72.106619 12.267401 73 16 73 C 24.687648 73 31.764944 68.66962 35.388672 63.820312 C 36.220897 62.707288 36.932469 61.694444 37.652344 61.021484 C 38.372219 60.348525 39.021067 60 40 60 C 40.990933 60 41.646727 60.335924 42.365234 60.986328 C 43.083741 61.636732 43.795345 62.623493 44.623047 63.730469 L 44.621094 63.730469 C 48.253448 68.591616 55.541638 73 64 73 C 67.707839 73 70.454535 72.255543 72.316406 70.712891 C 74.178278 69.170238 75 66.87076 75 64.25 C 75 63.836989 74.951296 63.237707 74.755859 62.603516 C 74.658141 62.28642 74.528907 61.95905 74.273438 61.640625 C 74.017967 61.3222 73.5425 61 73 61 C 72.379167 61 72.097777 61.356399 71.916016 61.574219 C 71.734255 61.792038 71.60238 62.007596 71.451172 62.246094 C 71.148756 62.72309 70.796735 63.284798 70.306641 63.833984 C 69.326452 64.932358 67.872438 66 65 66 C 63.340802 66 60.167596 65.194747 57.484375 61.896484 A 1.0001 1.0001 0 0 0 57.482422 61.894531 C 56.818049 61.079134 56.551782 60.704311 56.308594 59.976562 C 63.958243 59.748539 68.672162 57.523105 71.431641 54.455078 C 74.345784 51.215093 75 47.184702 75 44 C 75 41.21627 74.347589 38.78115 73.144531 36.976562 C 71.941474 35.171976 70.107143 34 68 34 C 66.920048 34 65.947307 34.364326 65.164062 34.96875 C 64.380819 35.573174 63.764135 36.381451 63.167969 37.318359 A 1.0001 1.0001 0 0 0 63.167969 37.320312 C 63.034819 37.530585 62.886087 37.798462 62.761719 38.115234 C 62.63735 38.432007 62.498634 38.777559 62.580078 39.302734 C 62.648188 39.741891 62.855248 40.103903 63.169922 40.386719 C 63.484596 40.669534 63.963195 40.882234 64.494141 40.802734 C 65.187742 40.700016 65.500983 40.292209 65.634766 40.183594 A 1.0001 1.0001 0 0 0 65.636719 40.183594 C 65.941085 39.935956 66.629157 39.720906 67.013672 39.892578 C 67.205929 39.978418 67.411543 40.13496 67.619141 40.599609 C 67.826691 41.064212 68 41.839777 68 43 C 68 46.522473 65.25889 50 62 50 C 60.208333 50 58.615529 49.435042 57.503906 48.535156 C 56.392283 47.635271 55.75 46.440476 55.75 45 A 1.0001 1.0001 0 0 0 55.748047 44.933594 C 56.352884 41.401739 57.802716 38.877746 59.207031 36.136719 C 60.640791 33.338219 62 30.290972 62 26 C 61.998445 19.198975 59.475883 14.101182 55.431641 10.804688 C 51.387399 7.5081913 45.906424 6 40 6 z M 40 8 C 45.564576 8 50.580711 9.4314642 54.167969 12.355469 C 57.755227 15.279473 59.998555 19.683025 60 26 C 60 29.878028 58.829474 32.488609 57.427734 35.224609 C 56.025995 37.96061 54.371792 40.804837 53.730469 44.835938 A 1.0001 1.0001 0 0 0 53.771484 45.347656 C 53.876094 47.260923 54.819292 48.934814 56.246094 50.089844 C 57.759471 51.314958 59.791667 52 62 52 C 66.60511 52 70 47.537527 70 43 C 70 41.648723 69.812404 40.604835 69.445312 39.783203 C 69.078222 38.961572 68.495118 38.364195 67.828125 38.066406 C 66.703856 37.56446 65.661503 37.901739 64.855469 38.396484 C 64.85594 38.395735 64.855 38.393278 64.855469 38.392578 L 64.857422 38.390625 C 65.392565 37.550013 65.895074 36.930626 66.384766 36.552734 C 66.874974 36.174449 67.329952 36 68 36 C 69.392857 36 70.558526 36.703024 71.480469 38.085938 C 72.402411 39.468851 73 41.53373 73 44 C 73 46.911298 72.404216 50.381172 69.943359 53.117188 C 67.49537 55.838896 63.112964 57.975756 55.123047 57.998047 A 1.0001 1.0001 0 0 0 54.369141 58.214844 A 1.0001 1.0001 0 0 0 54.326172 58.25 A 1.0001 1.0001 0 0 0 54.306641 58.267578 A 1.0001 1.0001 0 0 0 54.082031 59.423828 C 54.509339 61.130007 54.96439 61.968681 55.933594 63.158203 C 59.000234 66.927035 62.707437 68 65 68 C 68.403562 68 70.548016 66.567642 71.798828 65.166016 C 72.317045 64.585316 72.627408 64.073735 72.908203 63.632812 C 72.943419 63.868615 73 64.137464 73 64.25 C 73 66.47824 72.392894 68.05373 71.041016 69.173828 C 69.689137 70.293926 67.437161 71 64 71 C 56.248362 71 49.426303 66.818056 46.224609 62.533203 A 1.0001 1.0001 0 0 0 46.224609 62.53125 C 45.416312 61.450273 44.666024 60.372002 43.707031 59.503906 C 42.748038 58.63581 41.509067 58 40 58 C 38.478933 58 37.239734 58.668053 36.287109 59.558594 C 35.334485 60.449134 34.588931 61.548072 33.785156 62.623047 C 30.572884 66.92174 24.016352 71 16 71 C 12.584599 71 10.357751 70.19285 8.9902344 68.953125 C 7.6227174 67.7134 7 65.978446 7 63.75 C 7 63.69757 7.0260961 63.624135 7.0332031 63.554688 C 7.3179436 64.003818 7.6562178 64.555354 8.2011719 65.166016 C 9.4519836 66.567642 11.596438 68 15 68 C 18.435778 68 21.46226 65.826861 24.009766 63.226562 C 25.034472 62.181764 25.857857 60.867736 26.482422 59.388672 A 1.0001 1.0001 0 0 0 25.552734 57.986328 A 1.0001 1.0001 0 0 0 25.417969 57.998047 C 17.527579 57.982906 12.99286 55.840197 10.380859 53.095703 C 7.7595856 50.341464 7 46.870288 7 44 C 7 42.347222 7.5750545 40.511146 8.5097656 39.164062 C 9.4444768 37.81698 10.654762 37 12 37 C 14.038741 37 15.139599 37.501936 16.111328 39.027344 C 16.123058 39.045884 16.122896 39.063334 16.134766 39.083984 C 15.135849 38.394796 13.81177 38.192758 12.5625 38.847656 C 11.09788 39.615446 10 41.436357 10 44.25 C 10 48.475229 13.894667 52 18 52 C 20.229167 52 22.491752 51.263398 24.123047 49.849609 C 25.701738 48.481411 26.611648 46.335421 26.009766 43.955078 A 1.0001 1.0001 0 0 0 25.916016 43.533203 C 23.427061 37.836308 20 32.462816 20 25 C 20 19.072298 22.223868 14.928616 25.810547 12.152344 C 29.397225 9.3760718 34.42813 8 40 8 z M 33 26 C 30.802706 26 29 27.802706 29 30 C 29 32.197294 30.802706 34 33 34 C 35.197294 34 37 32.197294 37 30 C 37 27.802706 35.197294 26 33 26 z M 47 26 C 44.802706 26 43 27.802706 43 30 C 43 32.197294 44.802706 34 47 34 C 49.197294 34 51 32.197294 51 30 C 51 27.802706 49.197294 26 47 26 z M 33 28 C 34.116414 28 35 28.883586 35 30 C 35 31.116414 34.116414 32 33 32 C 31.883586 32 31 31.116414 31 30 C 31 28.883586 31.883586 28 33 28 z M 47 28 C 48.116414 28 49 28.883586 49 30 C 49 31.116414 48.116414 32 47 32 C 45.883586 32 45 31.116414 45 30 C 45 28.883586 45.883586 28 47 28 z M 28.996094 43.300781 L 28.195312 43.703125 L 28.037109 44.585938 L 28.650391 45.240234 L 28.996094 45.300781 L 29.798828 44.900391 L 29.955078 44.017578 L 29.34375 43.363281 L 28.996094 43.300781 z M 50.970703 43.460938 L 50.169922 43.861328 L 50.011719 44.744141 L 50.623047 45.398438 L 50.970703 45.460938 L 51.771484 45.058594 L 51.929688 44.177734 L 51.316406 43.523438 L 50.970703 43.460938 z M 28.904297 47.300781 L 28.103516 47.701172 L 27.945312 48.583984 L 28.558594 49.238281 L 28.904297 49.300781 L 29.707031 48.898438 L 29.863281 48.015625 L 29.251953 47.361328 L 28.904297 47.300781 z M 50.845703 47.458984 L 50.044922 47.859375 L 49.886719 48.742188 L 50.498047 49.396484 L 50.845703 49.458984 L 51.646484 49.056641 L 51.804688 48.175781 L 51.193359 47.521484 L 50.845703 47.458984 z M 28.371094 51.257812 L 27.570312 51.660156 L 27.412109 52.542969 L 28.023438 53.197266 L 28.371094 53.257812 L 29.171875 52.857422 L 29.330078 51.974609 L 28.716797 51.320312 L 28.371094 51.257812 z M 51.263672 51.423828 L 50.462891 51.826172 L 50.304688 52.708984 L 50.917969 53.363281 L 51.263672 53.423828 L 52.066406 53.023438 L 52.222656 52.140625 L 51.611328 51.486328 L 51.263672 51.423828 z M 27 55 L 26.199219 55.402344 L 26.041016 56.283203 L 26.652344 56.9375 L 27 57 L 27.800781 56.597656 L 27.958984 55.716797 L 27.347656 55.0625 L 27 55 z M 53 55 L 52.199219 55.402344 L 52.041016 56.283203 L 52.652344 56.9375 L 53 57 L 53.800781 56.597656 L 53.958984 55.716797 L 53.347656 55.0625 L 53 55 z"/></svg>