<?xml version="1.0" encoding="UTF-8"?>
<svg width="107px" height="156px" viewBox="0 0 107 156" version="1.1" xmlns="http://www.w3.org/2000/svg" xmlns:xlink="http://www.w3.org/1999/xlink">
    <!-- Generator: Sketch 63.1 (92452) - https://sketch.com -->
    <title>0 arrow-25</title>
    <desc>Created with Sketch.</desc>
    <g id="Page-1" stroke="none" stroke-width="1" fill="none" fill-rule="evenodd">
        <g id="0-arrow-25" transform="translate(56.500000, 76.000000) scale(-1, 1) rotate(-8.000000) translate(-56.500000, -76.000000) translate(6.000000, -4.000000)">
            <path d="M100.224,120.027429 C100.224,122.368 100.324571,124.708571 100.224,127.04 C100.041143,130.294857 99.3097143,133.44 97.088,135.963429 C96.4114286,136.731429 95.7897143,137.554286 95.0948571,138.304 C93.3886594,140.120329 91.9786779,142.19365 90.9165714,144.448 C90.6697143,144.978286 90.3588571,145.472 90.0845714,145.993143 C89.0479707,147.961398 87.1369007,149.319174 84.9371429,149.650286 C78.2262857,151.113143 71.552,152.713143 64.8777143,154.349714 C61.0669154,155.349532 57.3851129,156.788503 53.9062857,158.637714 C49.536,160.877714 49.3348571,160.384 48.6674286,155.611429 C47.6617143,148.525714 46.72,141.421714 45.568,134.354286 C43.6339623,122.959507 40.4545272,111.811555 36.0868571,101.110857 C35.5472462,99.7481474 34.9368925,98.4145246 34.2582857,97.1154286 C33.253966,95.1554326 31.8999141,93.395475 30.2628571,91.9222857 C29.6410264,91.2748115 28.7185059,91.0127318 27.8491429,91.2365714 C25.3165714,91.9222857 22.7291429,92.4708571 20.2331429,93.2754286 C15.2228571,94.8754286 10.2582857,96.6217143 5.26628571,98.2765714 C4.02285714,98.688 2.752,99.0171429 1.48114286,99.3554286 C0.903092562,99.3484588 0.389726405,98.9843693 0.192,98.4411429 C0.0685722444,97.5753088 0.0196309969,96.700484 0.0457142857,95.8262857 C0.423619048,91.3097143 0.838095238,86.7992381 1.28914286,82.2948571 C1.70057143,78.2262857 2.20342857,74.1668571 2.64228571,70.0891429 C3.34628571,63.2594286 3.94971429,56.3748571 4.69028571,49.5817143 C5.22971429,44.6445714 5.97028571,39.7257143 6.51885714,34.7885714 C7.04914286,30.2902857 7.552,25.7828571 7.936,21.2754286 C7.99967138,19.6674979 8.56561628,18.1199423 9.55428571,16.8502857 C13.2114286,12.2788571 16.8228571,7.70742857 20.4434286,3.136 C20.8091429,2.67885714 21.184,2.22171429 21.5588571,1.78285714 C23.0308571,2.87672663e-13 23.9542857,-0.457142857 26.0571429,0.731428571 C26.3131429,0.877714286 26.5965714,0.96 26.8617143,1.07885714 C43.1268571,8.72228571 59.776,15.4971429 75.9131429,23.4697143 C80.8868571,25.9291429 86.0342857,28.0411429 91.0994286,30.3085714 C93.44,31.36 94.0982857,32.5851429 91.7302857,34.944 C90.9755309,35.6340832 90.1851125,36.2841183 89.3622857,36.8914286 C85.7051429,39.8171429 82.048,42.7428571 78.3908571,45.6777143 C77.0834286,46.7291429 77.0011429,47.1862857 77.6868571,48.6674286 C80.2102857,54.0982857 82.8251429,59.4925714 85.248,64.9691429 C88.9909072,73.1953516 92.2154913,81.6476706 94.9028571,90.2765714 C97.9317414,99.9275709 99.7198258,109.924868 100.224,120.027429 Z" id="Shape" fill="#000000" fill-rule="nonzero"></path>
            <path d="M62.08,135.826286 L63.6708571,135.259429 C66.0022857,134.4 68.3062857,133.476571 70.656,132.690286 C75.2385557,131.203587 79.9030677,129.982511 84.6262857,129.033143 C87.3386667,128.46019 90.0510476,127.868952 92.7634286,127.259429 C96.4205714,126.427429 96.512,126.345143 96.5851429,122.688 C96.6269584,118.565631 96.281055,114.448462 95.552,110.390857 C94.4457987,103.89857 92.9187702,97.4850499 90.9805714,91.1908571 C86.8203352,77.9481963 81.4999005,65.0983826 75.0811429,52.7908571 C74.4137143,51.4925714 73.7097143,50.2125714 73.0971429,48.8868571 C72.2925714,47.1405714 72.5942857,45.9154286 74.112,44.6171429 C75.1085714,43.7668571 76.1874286,43.008 77.2114286,42.176 C80.2590476,39.6952381 83.3066667,37.208381 86.3542857,34.7154286 C86.6012366,34.5568498 86.7393172,34.273938 86.7123999,33.9816925 C86.6854825,33.689447 86.498048,33.4365168 86.2262857,33.3257143 C82.9257143,31.7622857 79.6708571,30.0982857 76.3062857,28.6902857 C67.9497143,25.1977143 59.7302857,21.376 51.5291429,17.5268571 C44.2575238,14.1135238 36.9767619,10.712381 29.6868571,7.32342857 C28.4982857,6.76571429 27.264,6.29942857 26.0297143,5.81485714 C25.7458142,5.73747106 25.442675,5.7783796 25.1894433,5.92825142 C24.9362116,6.07812325 24.7544845,6.32417642 24.6857143,6.61028571 C24.4754286,7.46057143 24.2925714,8.31085714 24.1554286,9.17028571 C23.2411429,14.656 22.6011429,20.1417143 21.4765714,25.6274286 C19.9954286,32.7862857 18.9531429,40.0091429 17.8194286,47.232 C16.472381,56.039619 15.1131429,64.8441905 13.7417143,73.6457143 C13.6777143,74.0754286 13.6685714,74.56 13.632,74.9531429 C13.5607546,75.2373119 13.6424969,75.5380797 13.8477792,75.7470944 C14.0530615,75.9561091 14.3523077,76.043257 14.6377143,75.9771429 C15.616,75.6662857 16.5668571,75.3005714 17.5451429,74.9988571 C23.9451429,72.9874286 30.3451429,71.0034286 36.7451429,68.9828571 C37.5674507,68.6156361 38.5304665,68.785793 39.1771429,69.4125714 C41.6091429,71.936 44.2514286,74.3314286 45.7965714,77.5314286 C48.6582857,83.4468571 51.4011429,89.4171429 53.056,95.8171429 C54.1165714,99.9131429 55.1954286,104.045714 56.1462857,108.141714 C58.112,116.681143 60.2331429,125.193143 60.992,133.961143 C61.0267607,134.393809 61.1349754,134.817392 61.312,135.213714 C61.5231172,135.46858 61.7845727,135.677122 62.08,135.826286 L62.08,135.826286 Z" id="Path" fill="#FFFFFF"></path>
        </g>
    </g>
</svg>