<?xml version="1.0" encoding="UTF-8"?>
<svg width="64px" height="129px" viewBox="0 0 64 129" version="1.1" xmlns="http://www.w3.org/2000/svg" xmlns:xlink="http://www.w3.org/1999/xlink">
    <!-- Generator: Sketch 63.1 (92452) - https://sketch.com -->
    <title>0 arrow-23</title>
    <desc>Created with Sketch.</desc>
    <g id="Page-1" stroke="none" stroke-width="1" fill="none" fill-rule="evenodd">
        <g id="0-arrow-23" transform="translate(20.500000, 60.500000) rotate(-38.000000) translate(-20.500000, -60.500000) translate(-19.000000, 3.000000)" fill="#000000" fill-rule="nonzero">
            <path d="M65.16,53.54 C64.6549009,58.9042477 64.4645747,64.2934847 64.59,69.68 C64.59,73.83 64.44,77.99 64.26,82.14 C64.1348341,86.3001568 63.5581178,90.4344075 62.54,94.47 C61.0204603,100.577676 57.3852201,105.949044 52.28,109.63 C49.8281552,111.442696 46.9853855,112.655154 43.98,113.17 C40.6802602,113.780734 37.3353359,114.115227 33.98,114.17 C25.34,114.17 16.71,114.24 8.07,114.24 C5.99,114.24 3.92,114.12 1.85,113.95 C1.20214974,113.872208 0.628350042,113.494914 0.30018326,112.930939 C-0.0279835227,112.366963 -0.0724798274,111.681677 0.18,111.08 C0.94,108.86 2.18,107.92 4.4,107.93 C6.48,107.93 8.56,108.11 10.63,108.1 C19.43,108.1 28.22,108 37.02,107.99 C39.7394231,107.961101 42.4480338,107.642638 45.1,107.04 C50.7542687,106.024956 55.3921762,101.982638 57.17,96.52 C58.5931239,92.2637087 59.3290147,87.8078566 59.35,83.32 C59.55,76.45 59.62,69.57 59.92,62.7 C60.09,58.7 59.92,54.7 59.76,50.7 C59.55,44.31 59.55,37.91 59.49,31.51 C59.4870387,28.6309999 59.1514809,25.7619803 58.49,22.96 C58.3495008,21.9659675 57.4938641,21.2301198 56.49,21.24 C54.42,21.24 52.34,21.32 50.27,21.39 C49.48,21.39 48.69,21.53 47.89,21.57 C47.2593539,21.4371478 46.7726086,20.9345735 46.66,20.3 C46.740405,19.3515046 46.9420479,18.4172262 47.26,17.52 C47.9910088,15.9222167 48.8226803,14.3724354 49.75,12.88 C51.9957043,9.18796942 54.580185,5.71298103 57.47,2.5 C60.47,-0.76 62.52,-0.79 65.47,2.3 C66.24,3.1 66.92,4 67.61,4.88 C70.1200721,8.19689655 72.8318628,11.3561995 75.73,14.34 C76.4108042,15.0133092 77.0175929,15.7575473 77.54,16.56 C78.0982166,17.3651421 78.1985428,18.4023139 77.8049953,19.2995207 C77.4114478,20.1967274 76.5804312,20.8253784 75.61,20.96 C74.3412913,21.0947676 73.0657598,21.1548712 71.79,21.14 C69.87,21.14 67.96,21.14 66.04,21.26 C65.5497887,21.2613204 65.0852271,21.4792443 64.7708316,21.8553618 C64.456436,22.2314792 64.3243586,22.7273257 64.41,23.21 C64.49,24.97 64.58,26.73 64.76,28.47 C65.58,36.76 65.28,45.07 65.16,53.54 Z" id="Path"></path>
        </g>
    </g>
</svg>