<svg xmlns="http://www.w3.org/2000/svg" width="120" height="82" viewBox="0 0 120 82"><title>logo</title><defs><linearGradient id="a" x1="50%" x2="50%" y1="0%" y2="100%"><stop offset="0%" stop-color="#40DAF2"/><stop offset="25.9%" stop-color="#3BD3EF"/><stop offset="62.4%" stop-color="#2EC1E8"/><stop offset="100%" stop-color="#1BA7DD"/></linearGradient><linearGradient id="b" x1="50%" x2="50%" y1="94.804%" y2="-5.196%"><stop offset="0%" stop-color="#1BA7DD"/><stop offset="100%" stop-color="#33C7EB"/></linearGradient><linearGradient id="c" x1="50%" x2="50%" y1="100%" y2="8.099%"><stop offset="0%" stop-color="#44C9EA"/><stop offset="100%" stop-color="#53DEF3"/></linearGradient></defs><g fill="none" fill-rule="nonzero"><path fill="url(#a)" d="M99.346,36.118 C99.758,34.478 100,32.768 100,31 C100,19.402 90.598,10 79,10 C75.004,10 71.28,11.136 68.1,13.076 C63.372,5.25 54.81,0 45,0 C30.088,0 18,12.088 18,27 C18,29.608 18.39,32.122 19.08,34.508 C8.186,36.78 0,46.432 0,58 C0,71.254 10.746,82 24,82 L96,82 L96,81.95 C96.334,81.964 96.662,82 97,82 C109.702,82 120,71.702 120,59 C120,47.09 110.946,37.294 99.346,36.118 Z"/><path fill="url(#b)" d="M120,59 C120,47.09 110.946,37.294 99.346,36.118 C99.678,34.792 99.862,33.41 99.934,32 L77,32 C74.238,32 72,34.238 72,37 C72,39.762 74.238,42 77,42 L77,42 C79.762,42 82,44.238 82,47 C82,49.762 79.762,52 77,52 L57,52 C54.238,52 52,54.238 52,57 C52,59.762 54.238,62 57,62 L63,62 C65.762,62 68,64.238 68,67 C68,69.762 65.762,72 63,72 L39,72 C36.238,72 34,74.238 34,77 C34,79.762 36.238,82 39,82 L96,82 L96,81.95 C96.334,81.964 96.662,82 97,82 C109.702,82 120,71.702 120,59 Z"/><path fill="url(#c)" d="M1.376,50 L33,50 C35.762,50 38,47.762 38,45 C38,42.238 35.762,40 33,40 L31,40 C28.238,40 26,37.762 26,35 C26,32.238 28.238,30 31,30 L49,30 C51.762,30 54,27.762 54,25 C54,22.238 51.762,20 49,20 L41,20 C38.238,20 36,17.762 36,15 C36,12.238 38.238,10 41,10 L43,10 C45.762,10 48,7.762 48,5 C48,2.468 46.11,0.396 43.668,0.068 C29.38,0.766 18,12.538 18,27 C18,29.608 18.39,32.122 19.08,34.508 C10.83,36.228 4.14,42.186 1.376,50 Z"/></g></svg>