<svg xmlns="http://www.w3.org/2000/svg" width="160" height="160" viewBox="0 0 80 80"><path fill="#e1ebf2" d="M42.471,77.5c3.56-1.682,6.029-5.308,6.029-9.5V10.5h27V68c0,5.238-4.262,9.5-9.5,9.5H42.471z"/><path fill="#788b9c" d="M75,11v57c0,4.963-4.037,9-9,9H44.318C47.148,75.008,49,71.716,49,68V11H75 M76,10H48v58 c0,5.523-4.477,10-10,10h28c5.523,0,10-4.477,10-10V10L76,10z"/><path fill="#fff" d="M13,77.5c-5.238,0-9.5-4.262-9.5-9.5V2.5h53V68c0,5.07,3.993,9.226,9,9.487V77.5H13z"/><path fill="#788b9c" d="M56,3v65c0,3.953,2.306,7.378,5.643,9H13c-4.963,0-9-4.037-9-9V3H56 M57,2H3v66 c0,5.523,4.477,10,10,10h53v-1c-4.971,0-9-4.029-9-9V2L57,2z"/><path fill="#788b9c" d="M13 12H47V16H13zM13 24H27V25H13zM13 30H27V31H13zM13 36H27V37H13zM13 42H27V43H13zM13 48H27V49H13zM13 54H27V55H13zM13 60H27V61H13zM13 66H27V67H13zM57 22H68V23H57zM57 28H68V29H57zM57 34H68V35H57zM57 40H68V41H57zM57 46H68V47H57zM57 52H68V53H57zM57 58H68V59H57zM57 64H68V65H57zM33 24H47V25H33zM33 30H47V31H33zM33 36H47V37H33zM33 42H47V43H33zM33 48H47V49H33zM33 54H47V55H33zM33 60H47V61H33zM33 66H47V67H33z"/></svg>