<?xml version="1.0" encoding="UTF-8"?>
<svg width="692px" height="784px" viewBox="0 0 692 784" version="1.1" xmlns="http://www.w3.org/2000/svg" xmlns:xlink="http://www.w3.org/1999/xlink">
    <!-- Generator: Sketch 63.1 (92452) - https://sketch.com -->
    <title>cat-in-space</title>
    <desc>Created with Sketch.</desc>
    <defs>
        <path d="M118.534,29.933 C102.424,3.21 61.126,-9.677 30.79,8.61 C0.454,26.898 -7.433,69.435 8.676,96.158 C24.786,122.881 59.703,125.184 90.039,106.896 C120.376,88.609 134.644,56.656 118.534,29.933 Z" id="path-1"></path>
    </defs>
    <g id="Page-1" stroke="none" stroke-width="1" fill="none" fill-rule="evenodd">
        <g id="cat-in-space" transform="translate(-184.000000, -140.000000)">
            <path d="M233.576,443.312 C233.576,443.312 242.299,162.246 399.299,215.353 C556.299,268.46 582.852,403.268 695.193,299.098 C807.534,194.928 962.767,401.258 801.406,559.54 C640.045,717.822 987.278,815.864 813.661,891.438 C640.044,967.012 536.936,685.14 411.809,815.863 C286.682,946.586 143.703,758.289 194.767,644.097 C245.831,529.905 233.576,443.312 233.576,443.312 Z" id="Path" fill="#41B4E6" fill-rule="nonzero" opacity="0.25"></path>
            <path d="M486.691,844.985 C486.691,844.985 210.956,900.16 227.116,735.211 C243.276,570.262 368.564,513.86 241.653,428.038 C114.742,342.216 280.542,144.277 471.263,265.587 C661.984,386.897 678.817,26.48 791.757,178.464 C904.697,330.448 653.51,494.728 809.181,586.989 C964.852,679.25 813.839,861.167 691.048,837.299 C568.257,813.432 486.691,844.985 486.691,844.985 Z" id="Path" fill="#41B4E6" fill-rule="nonzero" opacity="0.1"></path>
            <g id="Group" transform="translate(272.000000, 259.000000)" fill="#FFFFFF" fill-rule="nonzero">
                <path d="M337.161,225.247 C337.161,223.43 335.688,221.957 333.871,221.957 C332.054,221.957 330.581,223.43 330.581,225.247 C330.581,227.064 332.054,228.537 333.871,228.537 C335.689,228.537 337.161,227.064 337.161,225.247 Z" id="Path"></path>
                <path d="M296.062,656.988 C296.062,655.613 294.947,654.498 293.572,654.498 C292.197,654.498 291.083,655.613 291.083,656.988 C291.083,658.363 292.198,659.477 293.572,659.477 C294.947,659.477 296.062,658.363 296.062,656.988 Z" id="Path"></path>
                <path d="M174.016,336.287 C174.016,333.037 171.382,330.402 168.132,330.402 C164.882,330.402 162.248,333.037 162.248,336.287 C162.248,339.537 164.882,342.171 168.132,342.171 C171.382,342.171 174.016,339.537 174.016,336.287 Z" id="Path"></path>
                <path d="M553.568,610.84 C553.568,608.64 551.785,606.857 549.585,606.857 C547.385,606.857 545.602,608.64 545.602,610.84 C545.602,613.039 547.385,614.823 549.585,614.823 C551.785,614.823 553.568,613.039 553.568,610.84 Z" id="Path"></path>
                <path d="M493.029,222.038 C493.029,219.433 490.918,217.322 488.313,217.322 C485.709,217.322 483.597,219.433 483.597,222.038 C483.597,224.643 485.709,226.754 488.313,226.754 C490.918,226.754 493.029,224.642 493.029,222.038 Z" id="Path" opacity="0.5"></path>
                <path d="M73.498,257.426 C73.498,255.226 71.715,253.443 69.515,253.443 C67.316,253.443 65.532,255.226 65.532,257.426 C65.532,259.626 67.315,261.409 69.515,261.409 C71.715,261.409 73.498,259.625 73.498,257.426 Z" id="Path"></path>
                <path d="M174.832,422.468 C174.832,421.671 174.186,421.025 173.389,421.025 C172.592,421.025 171.947,421.671 171.947,422.468 C171.947,423.265 172.593,423.91 173.389,423.91 C174.186,423.91 174.832,423.264 174.832,422.468 Z" id="Path"></path>
                <circle id="Oval" cx="556.863" cy="533.81" r="1.893"></circle>
                <circle id="Oval" cx="360.903" cy="92.553" r="1.893"></circle>
                <path d="M3.09,467.412 C3.09,466.615 2.444,465.97 1.647,465.97 C0.851,465.97 0.205,466.616 0.205,467.412 C0.205,468.209 0.851,468.854 1.647,468.854 C2.444,468.854 3.09,468.208 3.09,467.412 Z" id="Path"></path>
                <path d="M23.311,379.954 C23.311,379.157 22.665,378.512 21.868,378.512 C21.072,378.512 20.426,379.158 20.426,379.954 C20.426,380.751 21.072,381.396 21.868,381.396 C22.665,381.396 23.311,380.75 23.311,379.954 Z" id="Path"></path>
                <path d="M277.807,208.363 C277.795,207.567 277.14,206.931 276.343,206.942 C275.547,206.954 274.911,207.61 274.923,208.406 C274.935,209.202 275.59,209.838 276.387,209.826 C277.183,209.815 277.819,209.159 277.807,208.363 Z" id="Path"></path>
                <path d="M27.646,160.708 C27.634,159.911 26.979,159.276 26.182,159.287 C25.385,159.299 24.75,159.955 24.762,160.751 C24.774,161.548 25.429,162.183 26.226,162.171 C27.022,162.16 27.658,161.505 27.646,160.708 Z" id="Path"></path>
                <path d="M222.458,85.684 C222.458,84.887 221.812,84.241 221.016,84.241 C220.219,84.241 219.574,84.887 219.574,85.684 C219.574,86.481 220.22,87.126 221.016,87.126 C221.812,87.126 222.458,86.481 222.458,85.684 Z" id="Path" opacity="0.5"></path>
                <path d="M332.128,289.749 C331.983,288.966 331.231,288.448 330.447,288.593 C329.664,288.738 329.146,289.49 329.291,290.274 C329.436,291.058 330.188,291.575 330.972,291.43 C331.755,291.284 332.273,290.532 332.128,289.749 Z" id="Path" opacity="0.5"></path>
                <path d="M382.383,254.582 C382.383,253.785 381.737,253.14 380.94,253.14 C380.144,253.14 379.498,253.786 379.498,254.582 C379.498,255.378 380.144,256.024 380.94,256.024 C381.737,256.024 382.383,255.378 382.383,254.582 Z" id="Path"></path>
                <path d="M563.569,141.763 C563.569,140.967 562.923,140.321 562.127,140.321 C561.33,140.321 560.685,140.967 560.685,141.763 C560.685,142.56 561.331,143.205 562.127,143.205 C562.923,143.205 563.569,142.56 563.569,141.763 Z" id="Path" opacity="0.5"></path>
                <path d="M330.128,103.969 C330.128,103.172 329.482,102.527 328.686,102.527 C327.889,102.527 327.243,103.173 327.243,103.969 C327.243,104.765 327.889,105.411 328.686,105.411 C329.482,105.411 330.128,104.765 330.128,103.969 Z" id="Path" opacity="0.5"></path>
                <path d="M295.497,275.454 C295.497,274.657 294.851,274.012 294.055,274.012 C293.258,274.012 292.612,274.658 292.612,275.454 C292.612,276.251 293.258,276.896 294.055,276.896 C294.852,276.896 295.497,276.25 295.497,275.454 Z" id="Path" opacity="0.5"></path>
                <path d="M462.88,217.507 C462.88,216.71 462.234,216.065 461.438,216.065 C460.641,216.065 459.995,216.711 459.995,217.507 C459.995,218.304 460.641,218.949 461.438,218.949 C462.234,218.949 462.88,218.304 462.88,217.507 Z" id="Path" opacity="0.5"></path>
                <path d="M217.071,36.971 C217.071,35.577 215.941,34.447 214.547,34.447 C213.153,34.447 212.023,35.577 212.023,36.971 C212.023,38.365 213.153,39.495 214.547,39.495 C215.941,39.495 217.071,38.365 217.071,36.971 Z" id="Path"></path>
                <path d="M50.716,348.554 C50.716,347.16 49.586,346.03 48.191,346.03 C46.796,346.03 45.667,347.16 45.667,348.554 C45.667,349.948 46.797,351.078 48.191,351.078 C49.585,351.078 50.716,349.948 50.716,348.554 Z" id="Path"></path>
                <path d="M456.037,358.91 C456.037,358.113 455.391,357.468 454.594,357.468 C453.797,357.468 453.152,358.114 453.152,358.91 C453.152,359.706 453.798,360.352 454.594,360.352 C455.391,360.352 456.037,359.706 456.037,358.91 Z" id="Path"></path>
                <path d="M387.914,183.408 C387.914,182.611 387.268,181.966 386.472,181.966 C385.675,181.966 385.029,182.612 385.029,183.408 C385.029,184.204 385.675,184.85 386.472,184.85 C387.268,184.85 387.914,184.204 387.914,183.408 Z" id="Path" opacity="0.5"></path>
                <path d="M138.34,262.683 C138.34,261.886 137.694,261.241 136.898,261.241 C136.101,261.241 135.456,261.887 135.456,262.683 C135.456,263.48 136.102,264.125 136.898,264.125 C137.694,264.125 138.34,263.48 138.34,262.683 Z" id="Path"></path>
                <path d="M99.475,89.499 C99.475,88.702 98.829,88.057 98.033,88.057 C97.236,88.057 96.591,88.703 96.591,89.499 C96.591,90.295 97.237,90.941 98.033,90.941 C98.829,90.941 99.475,90.296 99.475,89.499 Z" id="Path"></path>
                <path d="M15.667,196.089 C15.667,195.292 15.021,194.646 14.225,194.646 C13.428,194.646 12.783,195.292 12.783,196.089 C12.783,196.885 13.429,197.531001 14.225,197.531001 C15.021,197.532 15.667,196.886 15.667,196.089 Z" id="Path" opacity="0.5"></path>
                <circle id="Oval" cx="259.26" cy="494.95" r="1"></circle>
                <path d="M231.22,432.672 C231.22,431.12 229.961,429.861 228.409,429.861 C226.857,429.861 225.598,431.119 225.598,432.672 C225.598,434.224 226.856,435.483 228.409,435.483 C229.962,435.483 231.22,434.225 231.22,432.672 Z" id="Path"></path>
                <path d="M175.428,201.713 C175.428,200.16 174.17,198.902 172.618,198.902 C171.066,198.902 169.807,200.16 169.807,201.713 C169.807,203.265 171.065,204.523 172.618,204.523 C174.169,204.523 175.428,203.265 175.428,201.713 Z" id="Path"></path>
                <path d="M6.205,47.712 C6.205,46.548 5.261,45.604 4.097,45.604 C2.933,45.604 1.989,46.548 1.989,47.712 C1.989,48.876 2.933,49.82 4.097,49.82 C5.261,49.82 6.205,48.876 6.205,47.712 Z" id="Path"></path>
                <path d="M477.154,415.266 C477.154,414.452 476.494,413.793 475.681,413.793 C474.867,413.793 474.207,414.453 474.207,415.266 C474.207,416.08 474.867,416.74 475.681,416.74 C476.494,416.739 477.154,416.08 477.154,415.266 Z" id="Path"></path>
                <path d="M23.265,556.172 C23.265,555.375 22.619,554.73 21.823,554.73 C21.026,554.73 20.381,555.376 20.381,556.172 C20.381,556.969 21.027,557.615 21.823,557.615 C22.619,557.614 23.265,556.968 23.265,556.172 Z" id="Path"></path>
                <polygon id="Path" points="519.85 348.096 518.625 353.811 517.4 348.096 513.075 346.73 517.4 345.365 518.625 339.649 519.85 345.365 524.175 346.73"></polygon>
                <polygon id="Path" points="131.33 162.859 128.156 177.673 124.981 162.859 113.771 159.321 124.981 155.783 128.156 140.969 131.33 155.783 142.54 159.321"></polygon>
                <polygon id="Path" points="285.547 33.11 282.373 47.924 279.198 33.11 267.988 29.572 279.198 26.034 282.373 11.22 285.547 26.034 296.757 29.572"></polygon>
                <polygon id="Path" opacity="0.5" points="176.894 101.456 174.903 110.745 172.913 101.456 165.884 99.238 172.913 97.02 174.903 87.731 176.894 97.02 183.922 99.238"></polygon>
                <polygon id="Path" points="18.558 14.885 16.568 24.174 14.577 14.885 7.549 12.667 14.577 10.448 16.568 1.16 18.558 10.448 25.586 12.667"></polygon>
                <polygon id="Path" points="432.179 143.507 430.189 152.795 428.198 143.507 421.17 141.288 428.198 139.07 430.189 129.782 432.179 139.07 439.208 141.288"></polygon>
                <polygon id="Path" points="47.947 212.882 46.703 218.688 45.459 212.882 41.066 211.496 45.459 210.109 46.703 204.304 47.947 210.109 52.339 211.496"></polygon>
                <polygon id="Path" points="82.261 390.613 80.27 399.901 78.28 390.613 71.251 388.395 78.28 386.177 80.27 376.888 82.261 386.177 89.289 388.395"></polygon>
                <polygon id="Path" points="155.889 605.244 152.371 621.656 148.854 605.244 136.435 601.324 148.854 597.404 152.371 580.991 155.889 597.404 168.307 601.324"></polygon>
                <polygon id="Path" opacity="0.5" points="423.216 399.576 421.225 408.864 419.235 399.576 412.206 397.358 419.235 395.139 421.225 385.851 423.216 395.139 430.244 397.358"></polygon>
                <polygon id="Path" points="44.793 627.302 43.364 633.967 41.936 627.302 36.893 625.71 41.936 624.118 43.364 617.453 44.793 624.118 49.836 625.71"></polygon>
                <path d="M196.908,641.953 C196.908,640.578 195.794,639.464 194.419,639.464 C193.044,639.464 191.93,640.578 191.93,641.953 C191.93,643.328 193.045,644.442 194.419,644.442 C195.794,644.442 196.908,643.328 196.908,641.953 Z" id="Path"></path>
                <path d="M507.679,647.21 C507.679,645.835 506.564,644.721 505.189,644.721 C503.814,644.721 502.7,645.836 502.7,647.21 C502.7,648.585 503.815,649.699001 505.189,649.699001 C506.564,649.7 507.679,648.585 507.679,647.21 Z" id="Path"></path>
                <path d="M38.264,512.706 C38.264,510.506 36.481,508.723 34.281,508.723 C32.081,508.723 30.298,510.506 30.298,512.706 C30.298,514.906 32.081,516.689 34.281,516.689 C36.481,516.689 38.264,514.905 38.264,512.706 Z" id="Path" opacity="0.5"></path>
                <path d="M159.542,5.592 C160.335,3.54 159.315,1.234 157.263,0.441 C155.212,-0.352 152.905,0.668 152.112,2.719 C151.319,4.771 152.339,7.077 154.39,7.871 C156.443,8.664 158.749,7.644 159.542,5.592 Z" id="Path" opacity="0.5"></path>
                <path d="M80.198,649.978 C80.198,649.181 79.552,648.536 78.756,648.536 C77.959,648.536 77.314,649.182 77.314,649.978 C77.314,650.775 77.96,651.420001 78.756,651.420001 C79.552,651.421 80.198,650.775 80.198,649.978 Z" id="Path" opacity="0.5"></path>
                <path d="M101.538,557.098 C101.538,556.302 100.892,555.656 100.096,555.656 C99.3,555.656 98.654,556.302 98.654,557.098 C98.654,557.895 99.3,558.541 100.096,558.541 C100.892,558.54 101.538,557.894 101.538,557.098 Z" id="Path" opacity="0.5"></path>
                <path d="M434.506,579.88 C434.506,578.386 433.295,577.175 431.802,577.175 C430.308,577.175 429.098,578.386 429.098,579.88 C429.098,581.373 430.309,582.584 431.802,582.584 C433.296,582.584 434.506,581.373 434.506,579.88 Z" id="Path" opacity="0.5"></path>
                <path d="M463.988,566.17 C463.988,565.373 463.342,564.728 462.546,564.728 C461.749,564.728 461.104,565.374 461.104,566.17 C461.104,566.966 461.75,567.612 462.546,567.612 C463.343,567.612 463.988,566.966 463.988,566.17 Z" id="Path"></path>
                <path d="M321.699,181.13 C321.699,180.333 321.053,179.688 320.257,179.688 C319.46,179.688 318.815,180.334 318.815,181.13 C318.815,181.927 319.461,182.572 320.257,182.572 C321.053,182.572 321.699,181.926 321.699,181.13 Z" id="Path"></path>
                <path d="M194.452,242.724 C194.452,241.736 193.652,240.936 192.664,240.936 C191.677,240.936 190.877,241.736 190.877,242.724 C190.877,243.711 191.677,244.511 192.664,244.511 C193.652,244.511 194.452,243.711 194.452,242.724 Z" id="Path"></path>
                <circle id="Oval" cx="77.908" cy="5.592" r="1.442"></circle>
                <path d="M205.744,433.614 C205.744,433.166 205.381,432.803 204.933,432.803 C204.485,432.803 204.122,433.166 204.122,433.614 C204.122,434.062 204.485,434.425 204.933,434.425 C205.381,434.425 205.744,434.062 205.744,433.614 Z" id="Path"></path>
                <path d="M260.883,609.672 C260.883,609.224 260.52,608.861 260.072,608.861 C259.624,608.861 259.261,609.224 259.261,609.672 C259.261,610.12 259.624,610.483 260.072,610.483 C260.519,610.483 260.883,610.12 260.883,609.672 Z" id="Path"></path>
                <path d="M522.13,10.328 C522.13,9.88 521.767,9.517 521.319,9.517 C520.871,9.517 520.508,9.88 520.508,10.328 C520.508,10.776 520.871,11.139 521.319,11.139 C521.767,11.139 522.13,10.776 522.13,10.328 Z" id="Path"></path>
                <path d="M507.033,248.948 C507.033,248.5 506.67,248.137 506.222,248.137 C505.774,248.137 505.41,248.5 505.41,248.948 C505.41,249.396 505.773,249.759002 506.222,249.759002 C506.67,249.76 507.033,249.397 507.033,248.948 Z" id="Path"></path>
                <path d="M105.043,450.197 C105.043,449.749 104.68,449.386 104.231,449.386 C103.783,449.386 103.42,449.749 103.42,450.197 C103.42,450.645 103.783,451.008 104.231,451.008 C104.679,451.008 105.043,450.645 105.043,450.197 Z" id="Path"></path>
                <path d="M555.427,663.414 C555.427,662.617 554.781,661.971 553.985,661.971 C553.188,661.971 552.543,662.617 552.543,663.414 C552.543,664.21 553.189,664.856 553.985,664.856 C554.781,664.856 555.427,664.21 555.427,663.414 Z" id="Path"></path>
                <path d="M373.185,351.546 C373.185,350.052 371.974,348.842 370.48,348.842 C368.986,348.842 367.776,350.053 367.776,351.546 C367.776,353.04 368.987,354.251 370.48,354.251 C371.975,354.251 373.185,353.04 373.185,351.546 Z" id="Path"></path>
                <polygon id="Path" points="307.509 460.325 306.284 466.04 305.059 460.325 300.734 458.959 305.059 457.594 306.284 451.878 307.509 457.594 311.834 458.959"></polygon>
                <polygon id="Path" points="224.044 365.697 222.819 371.413 221.594 365.697 217.269 364.332 221.594 362.967 222.819 357.251 224.044 362.967 228.369 364.332"></polygon>
                <polygon id="Path" opacity="0.5" points="282.518 579.059 280.528 588.348 278.537 579.059 271.508 576.841 278.537 574.622 280.528 565.334 282.518 574.622 289.546 576.841"></polygon>
                <polygon id="Path" points="431.496 641.223 428.669 654.417 425.841 641.223 415.858 638.072 425.841 634.921 428.669 621.727 431.496 634.921 441.48 638.072"></polygon>
                <polygon id="Path" opacity="0.5" points="551.922 487.744 550.801 492.975 549.68 487.744 545.723 486.496 549.68 485.246 550.801 480.016 551.922 485.246 555.879 486.496"></polygon>
                <path d="M464.298,115.476 C464.298,114.082 463.168,112.952 461.774,112.952 C460.38,112.952 459.25,114.082 459.25,115.476 C459.25,116.87 460.38,118 461.774,118 C463.168,118 464.298,116.87 464.298,115.476 Z" id="Path"></path>
                <g transform="translate(379.000000, 342.000000)" id="Path">
                    <path d="M14.007,23.933 C14.625,27.655 12.109,31.172 8.387,31.79 C4.665,32.408 1.148,29.892 0.53,26.17 C-0.088,22.448 2.428,18.931 6.15,18.313 C9.871,17.695 13.389,20.211 14.007,23.933 Z"></path>
                    <path d="M27.576,12.921 C27.885,14.782 26.627,16.541 24.766,16.85 C22.905,17.159 21.146,15.901 20.837,14.04 C20.528,12.179 21.786,10.42 23.647,10.111 C25.508,9.802 27.267,11.06 27.576,12.921 Z"></path>
                    <path d="M42.641,3.969 C43.053,6.45 41.375,8.795 38.894,9.207 C36.413,9.619 34.068,7.942 33.656,5.46 C33.244,2.979 34.921,0.634 37.403,0.222 C39.883,-0.19 42.229,1.488 42.641,3.969 Z"></path>
                </g>
            </g>
            <rect id="Rectangle" x="0" y="0" width="1080" height="1080"></rect>
            <g id="Group" transform="translate(367.000000, 353.000000)">
                <g>
                    <g fill-rule="nonzero">
                        <path d="M155.556,111.656 C182.716,104.225 213.208,110.204 235.551,127.342 C240.392,131.056 245.306,136.846 243.212,142.577 C240.944,148.785 232.617,149.571 226.015,149.247 C214.063,148.66 201.966,147.929 190.569,144.283 C179.171,140.637 168.374,133.722 162.439,123.331" id="Path" fill="#F2F2F2"></path>
                        <path d="M99.02,110.476 C62.522,132.478 62.591,197.465 86.813,237.645 C87.223,238.325 87.655,238.974 88.077,239.637 L87.998,239.611 C87.998,239.611 110.53,277.224 141.407,303.417 C166.889,325.034 190.332,334.934 201.942,336.278 C211.162,337.346 222.195,334.109 209.741,317.332 C199.831,303.982 178.53,273.985 194.239,266.381 C209.948,258.777 222.271,293.564 226.706,305.081 C236.827,331.36 246.766,311.202 246.766,311.202 C263.745,245.925 226.567,184.554 215.025,167.602 C212.991,163.419 209.087,157.488 205.923,153.886 C177.991,122.089 135.518,88.474 99.02,110.476 Z" id="Path" fill="#F2F2F2"></path>
                        <polygon id="Path" fill="#D3D3D3" points="114.538 171.056 160.374 144.053 188.056 163.425 128.564 203.605"></polygon>
                        <path d="M155.77,41.456 C133.603,4.684 79.533,-12.008 39.716,11.994 C-0.101,35.997 -10.586,91.605 11.582,128.377 C33.749,165.149 81.13,170.744 120.946,146.742 C160.762,122.739 177.937,78.228 155.77,41.456 Z" id="Path" fill="#F2F2F2"></path>
                        <path d="M147.705,51.372 C131.595,24.649 90.297,11.762 59.961,30.049 C29.625,48.337 21.738,90.874 37.847,117.597 C53.957,144.32 88.874,146.623 119.21,128.335 C149.547,110.048 163.815,78.095 147.705,51.372 Z" id="Path" fill="#D3D3D3"></path>
                        <path d="M75.852,54.469 C71.573,47.371 60.603,43.948 52.545,48.805 C44.487,53.663 42.392,64.962 46.671,72.06 C50.95,79.158 60.225,79.77 68.283,74.912 C76.342,70.055 80.131,61.567 75.852,54.469 Z" id="Path" fill="#F2F2F2"></path>
                        <path d="M56.945,89.102 C54.931,85.762 49.769,84.151 45.977,86.437 C42.185,88.723 41.199,94.04 43.213,97.381 C45.227,100.722 49.591,101.009 53.383,98.723 C57.175,96.437 58.958,92.443 56.945,89.102 Z" id="Path" fill="#F2F2F2"></path>
                        <path d="M105.465,213.844 C103.493,210.08 97.849,211.408 94.025,213.262 C93.025,213.747 92.022,214.239 91.022,214.738 C91.004,211.484 90.828,208.11 90.472,204.653 C88.017,180.829 78.144,162.328 68.42,163.33 C58.696,164.332 52.803,184.457 55.258,208.281 C57.526,230.288 66.124,247.716 75.087,249.462 L75.155,249.65 C87.015,252.589 103.581,232.808 105.824,218.535 C106.071,216.958 106.206,215.258 105.465,213.844 Z" id="Path" fill="#F2F2F2"></path>
                        <path d="M191.285,307.147 C197.023,312.94 198.991,320.295 195.679,323.574 C192.368,326.854 185.032,324.817 179.294,319.024 C173.556,313.231 171.588,305.876 174.9,302.597 C178.211,299.317 185.547,301.354 191.285,307.147 Z" id="Path" fill="#D3D3D3"></path>
                        <path d="M74.286,231.557 C78.617,228.227 83.671,227.535 85.574,230.011 C87.477,232.487 85.509,237.193 81.178,240.522 C76.847,243.852 71.793,244.544 69.89,242.068 C67.987,239.593 69.955,234.887 74.286,231.557 Z" id="Path" fill="#D3D3D3"></path>
                        <path d="M230.302,130.35 C235.003,132.988 237.5,137.467 235.88,140.355 C234.259,143.243 229.135,143.445 224.434,140.807 C219.733,138.169 217.236,133.69 218.856,130.802 C220.477,127.915 225.601,127.712 230.302,130.35 Z" id="Path" fill="#D3D3D3"></path>
                        <ellipse id="Oval" fill="#D3D3D3" transform="translate(237.547248, 281.582825) rotate(-10.981825) translate(-237.547248, -281.582825) " cx="237.547248" cy="281.582825" rx="8.43910608" ry="14.7631856"></ellipse>
                    </g>
                    <g id="Clipped" transform="translate(30.000000, 22.000000)">
                        <mask id="mask-2" fill="white">
                            <use xlink:href="#path-1"></use>
                        </mask>
                        <g id="SVGID_1_"></g>
                        <g id="Group" mask="url(#mask-2)">
                            <g transform="translate(-22.000000, -23.000000)">
                                <path d="M39.51,145.728 C40.93,144.414 41.742,142.648 42.775,141.077 C43.379,142.583 43.554,144.388 43.95,145.835 C44.462,147.707 45.073,149.564 45.752,151.382 C47.27,155.446 49.285,159.425 51.792,162.969 C52.664,164.202 54.823,164.3 55.702,163 C57.512,160.32 58.345,157.352 59.692,154.451 C60.837,151.988 62.431,149.719 64.161,147.58 C64.36,148.495 64.501,149.428 64.685,150.336 C65.039,152.083 67.091,153.205 68.625,151.975 C69.367,151.38 75.191,146.988 77.262,145.108 C77.392,145.205 77.51,145.29 77.579,145.343 C78.352,145.946 79.189,146.485 80.158,146.696 C83.746,147.477 87.34,144.592 89.836,141.891 C90.556,142.257 91.253,142.536 92.298,142.364 C94.11,142.066 94.611,140.74 95.87,139.731 C98.715,137.451 103.164,141.798 106.28,139.131 C107.594,138.007 107.579,136.068 108.699,134.761 C111.012,132.063 112.3,134.147 114.958,133.381 C117.139,132.753 117.911,130.82 118.433,128.779 C122.496,126.766 132.202,122.678 131.204,117.92 C131.533,117.79 131.862,117.661 132.19,117.531 C133.086,117.157 134.044,116.947995 134.936,116.554 C136.103,116.038 137.304,115.36 138.096,114.327 C139.71,112.221 139.725,109.821 142.544,108.602 C144.611,107.708 146.918,107.332 149.046,106.587 C150.777,105.98 151.078,103.419 149.624,102.362 C148.274,101.382 146.771,100.552 145.374,99.597 C150.354,97.56 155.296,96.006 160.755,95.291 C163.786,94.894 168.501,94.009 167.522,89.911 C166.732,86.606 163.37,83.504 161.171,81.059 C158.013,77.546 154.283,74.91 150.315,72.55 C153.386,71.76 156.588,71.37 159.575,70.21 C161.062,69.632 161.541,67.679 160.596,66.436 C158.731,63.982 156.116,62.315 153.68,60.479 C152.057,59.255 150.413,58.062 148.652,57.042 C148.531,56.972 148.406,56.908 148.282,56.842 C149.073,56.634 149.865,56.424 150.648,56.17 C152.351,55.617 152.72,52.935 151.226,51.946 C144.548,47.524 136.236,45.178 128.959,41.838 C123.046,39.124 116.726,36.708 110.151,37.069 C110.078,34.408 110.042,31.744 110.039,29.074 C110.034,24.4 109.909,19.725 109.521,15.065 C109.191,11.099 108.283,7.133 108.17,3.163 C108.142,2.169 107.643,1.554 106.973,1.273 C106.013,0.281 104.4,-0.001 103.443,1.473 C102.815,2.44 102.188,3.423 101.559,4.415 C100.438,3.413 98.358,3.339 97.511,5.117 C97.149,5.875 96.751,6.626 96.331,7.371 C95.478,7.072 94.508,7.255 93.839,8.252 C90.646,13.009 87.207,18.482 84.949,23.999 C84.184,23.082 82.834,22.605 81.565,23.459 C78.909,25.248 75.906,26.44 73.239,28.187 C72.265,27.463 70.804,27.323 69.777,28.487 C68.883,29.501 68.18,30.625 67.542,31.788 C66.385,31.192 64.804,31.37 64.128,32.902 C63.663,33.958 63.319,35.049 63.015,36.152 C58.814,38.106 54.6,39.992 50.697,42.544 C48.965,43.676 49.63,45.72 51.032,46.544 C48.71,48.1 46.383,49.65 44.039,51.173 C42.991,51.854 42.825,52.87 43.16,53.751 C38.208,53.96 33.272,55.171 28.464,56.22 C23.197,57.367 17.378,57.331 12.401,59.514 C11.148,60.064 10.788,61.223 11.013,62.263 C9.046,62.784 7.066,63.248 5.048,63.568 C3.609,63.796 2.975,64.951 3.005,66.085 C2.954,66.097 2.903,66.111 2.852,66.122 C1.631,66.399 0.441,67.508 0.732,68.897 C1.805,74.024 8.73,78.66 12.74,81.342 C16.717,84.001 20.76,86.613 24.601,89.468 C25.729,90.306 26.907,91.101 28.084,91.901 C26.145,96.848 25.558,102.236 25.734,107.543 C25.93,113.456 26.646,120.444 29.03,125.896 C29.61,127.223 31.606,128.043 32.804,126.917 C32.865,126.859 32.926,126.793 32.986,126.725 C32.974,126.897 32.96,127.072 32.956,127.233 C32.914,129.09 32.906,130.95 33.069,132.8 C33.426,136.858 34.411,140.861 35.737,144.704 C36.222,146.113 38.376,146.778 39.51,145.728 Z" id="Path" fill="#FFBE55" fill-rule="nonzero"></path>
                                <path d="M3.953,70.588 C3.787,69.561 4.617,68.399 5.684,68.323 C11.069,67.938 16.545,69.999 21.705,71.312 C24.246,71.958 26.699,72.81 29.197,73.596 C31.569,74.342 33.781,75.093 35.542,76.909 C36.452,77.847 36.081,78.926 35.262,79.53 C35.348,79.929 35.322,80.35 35.151,80.728 C34.23,82.756 32.192,87.275 29.63,87.652 C28.361,87.839 27.249,87.026 26.229,86.405 C24.48,85.339 22.808,84.177 21.008,83.192 C17.487,81.266 13.798,79.645 10.516,77.308 C8.31,75.736 4.424,73.5 3.953,70.588 Z" id="Path" fill="#F2F2F2" fill-rule="nonzero"></path>
                                <path d="M97.294,32.733 C99.448,25.455 99.11,17.543 101.828,10.41 C102.449,8.78 104.161,6.931 105.635,7.7 C106.492,7.941 107.194,8.704 107.023,9.684 C107.32,10.801 107.17,12.047 107.139,13.172 C107.084,15.236 107.12,17.276 106.896,19.329 C106.985,20.316 107.084,21.302 107.207,22.287 C107.448,24.216 107.638,26.13 107.694,28.075 C107.753,30.122 108.177,32.334 107.906,34.369 C107.456,37.752 104.248,38.023 101.437,37.826 C100.199,37.739 98.735,37.812 97.81,36.837 C96.723,35.691 96.882,34.127 97.294,32.733 Z" id="Path" fill="#F2F2F2" fill-rule="nonzero"></path>
                                <path d="M84.399,83.873 C92.838,77.966 102.845,73.204 112.453,74.297 C122.062,75.39 130.222,83.063 129.319,92.475 C128.739,98.523 124.771,104.207 120.352,109.06 C114.578,115.402 107.657,121.011 99.754,124.405 C91.851,127.799 82.898,128.814 75.477,126.173 C68.718,123.767 51.519,106.89 84.399,83.873 Z" id="Path" fill="#F2F2F2" fill-rule="nonzero"></path>
                                <path d="M101.095,105.971 C97.302,101.969 94.075,97.465 91.507,92.586 L90.277,93.233 C92.905,98.224 96.205,102.832 100.086,106.926 L101.095,105.971 Z" id="Path" fill="#000000" fill-rule="nonzero"></path>
                                <g id="Group" stroke-width="1" fill="none" fill-rule="evenodd" transform="translate(87.000000, 93.000000)">
                                    <path d="M8.896,1.185 C9.757,0.198 11.293,1.534 10.431,2.523 C9.569,3.511 8.033,2.174 8.896,1.185 Z" id="Path" fill="#F2F2F2" fill-rule="nonzero"></path>
                                    <path d="M12.539,6.181 C13.4,5.194 14.936,6.531 14.073,7.519 C13.212,8.507 11.677,7.17 12.539,6.181 Z" id="Path" fill="#F2F2F2" fill-rule="nonzero"></path>
                                    <path d="M17.413,0.97 C18.274,-0.018 19.81,1.319 18.947,2.308 C18.087,3.296 16.551,1.959 17.413,0.97 Z" id="Path" fill="#F2F2F2" fill-rule="nonzero"></path>
                                    <path d="M3.008,5.047 C3.869,4.06 5.405,5.396 4.542,6.385 C3.681,7.372 2.145,6.036 3.008,5.047 Z" id="Path" fill="#F2F2F2" fill-rule="nonzero"></path>
                                    <path d="M6.553,10.256 C7.414,9.268 8.95,10.605 8.087,11.594 C7.227,12.581 5.691,11.244 6.553,10.256 Z" id="Path" fill="#F2F2F2" fill-rule="nonzero"></path>
                                    <path d="M1.065,11.845 C1.926,10.858 3.462,12.194 2.599,13.183 C1.738,14.171 0.202,12.835 1.065,11.845 Z" id="Path" fill="#F2F2F2" fill-rule="nonzero"></path>
                                </g>
                                <path d="M83.746,91.58 C83.594,90.094 84.809,89.325 85.849,88.565 C86.671,87.964 87.407,87.254 88.228,86.649 C90.095,85.275 93.588,83.797 94.764,86.854 C95.035,87.559 94.983,88.353 94.752,89.119 C94.856,90.271 94.54,91.471 94.103,92.53 C93.55,93.871 92.695,95.475 91.105,95.689 C89.703,95.877 88.04,95.198 86.77,94.657 C85.47,94.103 83.905,93.143 83.746,91.58 Z" id="Path" fill="#FF5EB3" fill-rule="nonzero"></path>
                                <g id="Group" stroke-width="1" fill="none" fill-rule="evenodd" transform="translate(35.000000, 54.000000)">
                                    <path d="M99.337,7.115 C96.89,6.987 94.558,6.924 92.421,6.871 C90.269,6.836 88.329,6.805 86.692,6.779 C83.39,6.697 81.203,6.454 80.985,5.57 C80.774,4.73 82.632,3.388 86.011,2.277 C86.855,2.003 87.79,1.734 88.808,1.521 C89.823,1.278 90.922,1.113 92.083,0.948 C94.407,0.663 96.991,0.544 99.695,0.686 C102.398,0.845 104.953,1.25 107.231,1.791 C108.367,2.084 109.44,2.37 110.422,2.724 C111.41,3.049 112.309,3.42 113.117,3.786 C116.352,5.265 118.049,6.805 117.747,7.616 C117.432,8.47 115.231,8.469 111.941,8.184 C110.312,8.029 108.38,7.845 106.237,7.641 C104.107,7.454 101.782,7.259 99.337,7.115 Z" id="Path" fill="#FF9843" fill-rule="nonzero"></path>
                                    <path d="M91.207,11.319 C93.53,10.614 96.866,10.249 100.508,10.614 C104.149,10.984 107.345,12.01 109.48,13.166 C111.625,14.322 112.722,15.557 112.447,16.39 C112.166,17.244 110.605,17.556 108.35,17.576 C106.088,17.592 103.12,17.353 99.86,17.02 C96.6,16.694 93.644,16.334 91.431,15.866 C89.226,15.395 87.759,14.777 87.654,13.884 C87.552,13.013 88.875,12.023 91.207,11.319 Z" id="Path" fill="#FF9843" fill-rule="nonzero"></path>
                                    <path d="M102.303,27.089 C99.681,26.255 97.98,25.46 97.9919369,24.555 C98.002,23.684 99.778,22.863 102.742,22.557 C104.221,22.399 105.987,22.401 107.934,22.582 C109.877,22.78 112,23.167 114.169,23.79 C116.335,24.426 118.335,25.236 120.082,26.11 C121.823,27 123.315,27.944 124.48,28.87 C126.819,30.716 127.88,32.361 127.421,33.102 C126.946,33.873 125.084,33.633 122.423,32.932 C121.093,32.575 119.546,32.127 117.856,31.609 C116.169,31.106 114.317,30.553 112.374,29.974 C110.422,29.423 108.563,28.898 106.868,28.419 C105.163,27.951 103.617,27.501 102.303,27.089 Z" id="Path" fill="#FF9843" fill-rule="nonzero"></path>
                                    <path d="M108.845,32.896 C112.885,33.986 115.785,36.26 115.322,37.977 C114.859,39.694 111.209,40.202 107.168,39.113 C103.128,38.024 100.228,35.749 100.691,34.031 C101.154,32.315 104.805,31.807 108.845,32.896 Z" id="Path" fill="#FF9843" fill-rule="nonzero"></path>
                                    <path d="M19.617,92.482 C19.902,90.527 20.394,88.399 21.138,86.24 C21.896,84.085 22.832,82.112 23.822,80.403 C24.831,78.701 25.883,77.258 26.898,76.15 C28.924,73.922 30.662,72.987 31.361,73.502 C32.093,74.038 31.696,75.881 30.803,78.491 C30.349,79.796 29.797,81.312 29.172,82.969 C28.564,84.634 27.893,86.444 27.219,88.357 C26.559,90.274 25.961,92.109 25.403,93.792 C24.864,95.479 24.355,97.011 23.901,98.315 C22.98,100.915 22.147,102.607 21.24,102.572 C20.371,102.542 19.59,100.729 19.386,97.725 C19.279,96.226 19.35,94.442 19.617,92.482 Z" id="Path" fill="#FF9843" fill-rule="nonzero"></path>
                                    <path d="M20.731,78.082 C19.297,80.461 17.902,82.573 16.66,84.075 C15.419,85.569 14.299,86.445 13.446,86.161 C12.612,85.884 12.215,84.457 12.449,82.343 C12.677,80.238 13.582,77.465 15.22,74.75 C16.863,72.037 18.898,69.948 20.656,68.768 C22.419,67.579 23.867,67.268 24.5,67.878 C25.147,68.501 24.893,69.9 24.146,71.693 C23.393,73.491 22.171,75.707 20.731,78.082 Z" id="Path" fill="#FF9843" fill-rule="nonzero"></path>
                                    <path d="M3.63,76.59 C3.787,75.828 3.995,75 4.301,74.141 C4.575,73.266 4.967,72.375 5.39,71.436 C6.281,69.585 7.463,67.638 8.947,65.778 C10.445,63.931 12.094,62.358 13.711,61.091 C14.538,60.477 15.325,59.902 16.12,59.447 C16.894,58.965 17.658,58.584 18.369,58.267 C21.226,57.007 23.258,56.938 23.648,57.704 C24.067,58.516 22.86,59.989 20.968,62.005 C20.494,62.512 19.97,63.044 19.43,63.636 C18.869,64.2 18.312,64.843 17.701,65.481 C16.515,66.797 15.24,68.242 13.964,69.813 C12.703,71.397 11.565,72.951 10.534,74.391 C10.041,75.124 9.534,75.806 9.102,76.475 C8.639,77.129 8.233,77.755 7.838,78.326 C6.275,80.607 5.095,82.102 4.211,81.866 C3.379,81.651 3.011,79.651 3.63,76.59 Z" id="Path" fill="#FF9843" fill-rule="nonzero"></path>
                                    <path d="M11.842,57.485 C10.499,58.886 9.247,60.244 8.09,61.487 C6.95,62.742 5.896,63.877 4.981,64.837 C3.142,66.745 1.731,67.904 0.914,67.51 C0.13,67.136 0.11,65.216 1.094,62.466 C1.58,61.091 2.344,59.537 3.358,57.909 C4.388,56.293 5.677,54.611 7.211,53.013 C8.755,51.424 10.391,50.077 11.97,48.992 C13.562,47.922 15.089,47.104 16.445,46.57 C19.16,45.49 21.079,45.443 21.48,46.213 C21.902,47.016 20.793,48.466 18.951,50.371 C18.023,51.319 16.926,52.412 15.712,53.595 C14.508,54.795 13.195,56.095 11.842,57.485 Z" id="Path" fill="#FF9843" fill-rule="nonzero"></path>
                                </g>
                                <g id="Group" stroke-width="1" fill="none" fill-rule="evenodd" transform="translate(90.000000, 57.000000)">
                                    <path d="M10.049,4.958 C10.842,6.235 11.442,8.767 10.986,10.199 C10.472,11.815 8.61,12.733 6.921,12.568 C5.233,12.403 3.739,11.37 2.58,10.132 C1.488,8.967 0.604,7.554 0.326,5.981 C0.048,4.408 0.338,2.539 1.601,1.561 C5.139,-1.182 8.47,2.414 10.049,4.958 Z" id="Path" fill="#000000" fill-rule="nonzero"></path>
                                    <path d="M8.879,7.624 C8.374,8.073 7.545,8.056 7.009,7.644 C5.982,6.855 6.252,4.822 7.734,4.893 C8.999,4.954 9.917,6.702 8.879,7.624 Z" id="Path" fill="#F2F2F2" fill-rule="nonzero"></path>
                                </g>
                                <g id="Group" stroke-width="1" fill="none" fill-rule="evenodd" transform="translate(52.000000, 83.000000)">
                                    <path d="M10.588,4.458 C11.381,5.735 11.981,8.267 11.525,9.699 C11.011,11.315 9.149,12.233 7.46,12.068 C5.772,11.903 4.278,10.87 3.119,9.632 C2.027,8.467 1.143,7.054 0.865,5.481 C0.587,3.908 0.877,2.039 2.14,1.06 C5.678,-1.681 9.008,1.915 10.588,4.458 Z" id="Path" fill="#000000" fill-rule="nonzero"></path>
                                    <path d="M9.418,7.125 C8.913,7.574 8.084,7.557 7.548,7.145 C6.521,6.356 6.791,4.323 8.273,4.394 C9.537,4.455 10.456,6.202 9.418,7.125 Z" id="Path" fill="#F2F2F2" fill-rule="nonzero"></path>
                                </g>
                                <g id="Group" stroke-width="1" fill="none" fill-rule="evenodd" transform="translate(56.000000, 86.000000)">
                                    <path d="M83.07,3.544 C79.539,2.831 75.611,2.268 71.458,2.05 C67.303,1.873 63.34,2.062 59.757,2.437 C57.972,2.679 56.268,2.87 54.699,3.201 C53.912,3.355 53.145,3.469 52.42,3.639 C51.696,3.812 51.001,3.978 50.337,4.137 C49,4.421 47.828,4.814 46.782,5.104 C46.261,5.258 45.771,5.386 45.328,5.526 C44.888,5.676 44.486,5.812 44.123,5.935 C42.671,6.42 41.851,6.657 41.823,6.589 C41.794,6.521 42.561,6.153 43.977,5.544 C44.333,5.393 44.728,5.226 45.159,5.043 C45.596,4.872 46.08,4.715 46.596,4.533 C47.634,4.185 48.803,3.737 50.142,3.403 C50.808,3.221 51.506,3.03 52.233,2.832 C52.962,2.639 53.734,2.503 54.527,2.328 C56.11,1.955 57.832,1.727 59.639,1.455 C63.266,1.019 67.291,0.798 71.509,0.978 C75.725,1.199 79.711,1.801 83.281,2.578 C85.054,3.02 86.747,3.41 88.287,3.931 C89.06,4.18 89.816,4.389 90.523,4.65 C91.227,4.917 91.904,5.172 92.55,5.417 C93.851,5.877 94.973,6.433 95.973,6.878 C96.47,7.108 96.937,7.311 97.356,7.522 C97.768,7.745 98.145,7.949 98.485,8.133 C99.837,8.873 100.565,9.312 100.531,9.378 C100.496,9.443 99.702,9.13 98.303,8.509 C97.953,8.352 97.566,8.177 97.142,7.987 C96.714,7.805 96.238,7.631 95.735,7.429 C94.721,7.04 93.591,6.539 92.287,6.129 C91.641,5.908 90.965,5.677 90.261,5.436 C89.556,5.198 88.802,5.012 88.034,4.784 C86.502,4.305 84.824,3.954 83.07,3.544 Z" id="Path" fill="#F2F2F2" fill-rule="nonzero"></path>
                                    <path d="M46.766,9.818 C47.281,9.838 47.838,9.883 48.438,9.92 C49.637,10.009 51.008,10.07 52.51,10.271 C53.263,10.36 54.051,10.453 54.872,10.55 C55.693,10.651 56.539,10.811 57.42,10.947 C59.185,11.203 61.046,11.615 63.009,12.023 C66.916,12.926 71.166,14.128 75.518,15.711 C79.858,17.326 83.874,19.166 87.434,21.01 C89.194,21.971 90.877,22.863 92.388,23.813 C93.147,24.279 93.895,24.707 94.586,25.161 C95.274,25.62 95.935,26.06 96.566,26.48 C97.84,27.301 98.924,28.143 99.895,28.852 C100.377,29.212 100.83,29.54 101.235,29.858 C101.632,30.185 101.995,30.484 102.323,30.754 C103.625,31.836 104.321,32.46 104.275,32.518 C104.228,32.576 103.445,32.062 102.07,31.086 C101.726997,30.84 101.347,30.568 100.931,30.27 C100.505,29.984 100.043,29.674 99.547,29.341 C98.549,28.682 97.442,27.89 96.151,27.116 C95.513,26.718 94.845,26.3 94.149,25.865 C93.452,25.433 92.7,25.026 91.938,24.581 C90.421,23.672 88.737,22.818 86.981,21.889 C83.43,20.11 79.444,18.317 75.148,16.718 C70.84,15.151 66.643,13.934 62.786,12.986 C60.847,12.555 59.011,12.114 57.267,11.823 C56.397,11.668 55.561,11.49 54.75,11.368 C53.939,11.248 53.159,11.133 52.415,11.023 C50.93,10.775 49.574,10.662 48.387,10.517 C47.794,10.449 47.24,10.385 46.731,10.327 C46.221,10.284 45.755,10.246 45.334,10.211 C43.655,10.063 42.725,9.946 42.7269968,9.872 C42.729,9.798 43.664,9.774 45.357,9.794 C45.781,9.801 46.251,9.809 46.766,9.818 Z" id="Path" fill="#F2F2F2" fill-rule="nonzero"></path>
                                    <path d="M51.886,7.053 C45.661,7.45 41.888,8.444 41.8467957,8.244 C41.831,8.18 42.755,7.873 44.467,7.464 C46.178,7.052 48.69,6.592 51.829,6.296 C54.966,5.996 58.738,5.92 62.899,6.288 C67.057,6.652 71.598,7.505 76.199,8.958 C80.791,10.44 84.985,12.374 88.586,14.486 C92.191,16.595 95.221,18.843 97.605,20.905 C99.992,22.965 101.773,24.795 102.929,26.122 C104.087,27.447 104.662,28.232 104.613,28.275 C104.464,28.414 101.965,25.418 97.12,21.489 C92.311,17.559 84.932,12.868 75.873,9.981 C66.814,7.087 58.082,6.637 51.886,7.053 Z" id="Path" fill="#F2F2F2" fill-rule="nonzero"></path>
                                    <path d="M38.507,64.859 C38.198,63.967 37.821,62.958 37.494,61.815 C37.323,61.245 37.144,60.648 36.957,60.027 C36.774,59.404 36.619,58.746 36.441,58.069 C36.071,56.719 35.772,55.253 35.442,53.714 C34.84,50.624 34.328,47.196 34.029,43.572 C33.753,39.947 33.718,36.48 33.825,33.334 C33.909,31.762 33.973,30.267 34.125,28.876 C34.194,28.18 34.244,27.506 34.326,26.862 C34.412,26.219 34.495,25.601 34.574,25.011 C34.717,23.83 34.93,22.774 35.094,21.845 C35.253,20.914 35.43,20.12 35.591,19.475 C35.901,18.182 36.106,17.477 36.178,17.4917655 C36.353,17.527 35.81,20.409 35.327,25.103 C35.271,25.69 35.211,26.305 35.149,26.945 C35.089,27.585 35.061,28.255 35.011,28.946 C34.899,30.328 34.868,31.808 34.812,33.365 C34.761,36.48 34.825,39.905 35.097,43.488 C35.393,47.07 35.87,50.462 36.412,53.53 C36.713,55.058 36.976,56.515 37.305,57.862 C37.463,58.536 37.596,59.193 37.757,59.816 C37.919,60.439 38.074,61.036 38.223,61.607 C39.44,66.166 40.431,68.926 40.263,68.989 C40.194,69.015 39.88,68.351 39.37,67.123 C39.111,66.509 38.811,65.753 38.507,64.859 Z" id="Path" fill="#F2F2F2" fill-rule="nonzero"></path>
                                    <path d="M24.014,61.99 C23.35,56.846 22.547,49.645 23.123,41.67 C23.433,37.689 24.099,33.923 25.047,30.59 C25.994,27.256 27.19,24.355 28.428,22.046 C29.661,19.734 30.869,17.984 31.792,16.851 C32.711,15.715 33.29,15.15 33.339,15.191 C33.506,15.316 31.354,17.75 29.106,22.389 C27.976,24.698 26.878,27.568 26.001,30.852 C25.123,34.136 24.498,37.836 24.193,41.752 C23.626,49.602 24.298,56.753 24.768,61.906 C25.013,64.479 25.211,66.565 25.349,68.023 C25.473,69.47 25.508,70.275 25.435,70.2850941 C25.362,70.295 25.186,69.508 24.935,68.077 C24.684,66.644 24.356,64.568 24.014,61.99 Z" id="Path" fill="#F2F2F2" fill-rule="nonzero"></path>
                                    <path d="M0.792,56.327 C1.004,55.682 1.282,54.9 1.645,54.008 C2.003,53.114 2.391,52.085 2.897,50.983 C3.384,49.871 3.927,48.658 4.571,47.383 C5.182,46.091 5.915,44.753 6.673,43.338 C8.239,40.534 10.084,37.517 12.204,34.475 C14.342,31.445 16.55,28.682 18.652,26.255 C19.725,25.059 20.733,23.914 21.739,22.9 C22.718,21.861 23.674,20.937 24.553,20.1 C25.417,19.248 26.252,18.534 26.971,17.892 C27.686,17.247 28.327,16.719 28.861,16.3 C29.921,15.454 30.529,15.014 30.577,15.07 C30.692,15.204 28.452,17.189 25.087,20.639 C24.248,21.504 23.331,22.451 22.388,23.508 C21.418,24.54 20.444,25.697 19.401,26.899 C17.359,29.339 15.198,32.091 13.082,35.091 C10.983,38.103 9.131,41.072 7.533,43.824 C6.758,45.213 6.003,46.524 5.363,47.787 C4.691,49.033 4.113,50.219 3.585,51.302 C1.488,55.641 0.385,58.423 0.22,58.361 C0.151,58.334 0.358,57.613 0.792,56.327 Z" id="Path" fill="#F2F2F2" fill-rule="nonzero"></path>
                                </g>
                            </g>
                        </g>
                    </g>
                </g>
                <circle id="Oval" fill="#000000" fill-rule="nonzero" cx="110.749" cy="107.814" r="4.485"></circle>
            </g>
        </g>
    </g>
</svg>