<svg id="a7041ee8-d42c-4836-81ad-e3e5854f3a9a" data-name="Layer 1" xmlns="http://www.w3.org/2000/svg" width="845" height="768.35038" viewBox="0 0 845 768.35038"><title>options</title><path d="M1004.90564,834.17519q-47.94909-9.21153-92.23329-15.8315l11.78-25.51174c-3.93168-1.54563-21.29092,13.05371-21.29092,13.05371l15.62175-74.0728c-19.81561,2.67277-30.18765,78.31112-30.18765,78.31112L866.5707,784.52592l10.59748,28.76493c-90.36294-12.09149-168.427-16.61884-234.10235-16.84413l10.08256-21.83538c-3.93167-1.54562-21.29091,13.05372-21.29091,13.05372l15.62175-74.0728c-19.81562,2.67276-30.18765,78.31111-30.18765,78.31111l-22.02487-25.598,11.2244,30.46676c-55.06352,1.187-99.97991,5.37911-134.655,10.1744,10.2458-34.021,44.71853-66.35319,44.71853-66.35319-26.26293,8.76728-40.07975,23.48857-47.32357,37.21865-.38613-42.0189,3.61449-119.91909,31.42071-206.14049,0,0-54.74368,132.9285-48.18331,222.19847l.764,15.85138c-45.98913,7.37281-69.12634,15.0679-69.12634,15.0679Z" transform="translate(-177.5 -65.82481)" fill="#3f3d56"/><path d="M973.64648,829.31069c-.22949-.375-5.64062-9.41016-7.5166-28.17188-1.7207-17.21289-.61425-46.22656,14.43262-86.69824,28.50586-76.6709-6.56934-138.5332-6.92773-139.14942l1.73046-1.0039c.09082.15625,9.14161,15.92871,14.48829,41.04394a179.06121,179.06121,0,0,1-7.416,99.80664c-28.457,76.54-7.30078,112.77344-7.084,113.13086Z" transform="translate(-177.5 -65.82481)" fill="#3f3d56"/><circle cx="785" cy="491.96439" r="13" fill="#2f8aad"/><circle cx="826" cy="539.96439" r="13" fill="#3f3d56"/><circle cx="798" cy="571.96439" r="13" fill="#2f8aad"/><circle cx="832" cy="598.96439" r="13" fill="#2f8aad"/><circle cx="788" cy="640.96439" r="13" fill="#3f3d56"/><path d="M981.5,829.7892s-13-32,26-56Z" transform="translate(-177.5 -65.82481)" fill="#3f3d56"/><path d="M965.512,829.20873s-5.91642-34.02934-51.7085-33.73768Z" transform="translate(-177.5 -65.82481)" fill="#3f3d56"/><path d="M706.83649,472.6105c2.26536-.08278,4.57065-.20606,6.85088-.36585l.16073,2.29366c-2.306.1616-4.636.286-6.92711.37007Z" transform="translate(-177.5 -65.82481)" fill="#e6e6e6"/><path d="M685.23791,66.26637c3.08323-.21606,6.19708-.36449,9.25629-.44156l.05754,2.29864c-4.58041.115-9.25863.39221-13.84529.81942l-.21225-2.29Q682.85577,66.43331,685.23791,66.26637Zm-18.65627,2.15708.36841,2.27011c-4.55365.73777-9.12944,1.64141-13.60319,2.6842l-.52155-2.23911C657.34891,70.08448,661.97686,69.17043,666.58164,68.42345Zm41.93384-2.48051c4.65982.19905,9.36372.56157,13.9816,1.07755l-.25632,2.28462c-4.56453-.50959-9.21525-.868-13.82308-1.06389Zm-69.22892,8.84779.67407,2.19917c-4.40041,1.35053-8.81018,2.87279-13.10621,4.52438l-.82564-2.14578C630.37523,77.69762,634.83549,76.15719,639.28656,74.79073Zm97.086-5.73312c4.57825.83388,9.18883,1.84,13.7025,2.989l-.56644,2.22757c-4.46434-1.13561-9.0223-2.12961-13.54929-2.95471ZM613.1202,84.8503l.97211,2.08375c-4.17085,1.94444-8.32536,4.05768-12.3462,6.27972l-1.11122-2.01322C604.70127,88.95393,608.90141,86.81724,613.1202,84.8503ZM763.559,75.9794c4.43262,1.462,8.86542,3.095,13.17542,4.85479l-.86931,2.1295c-4.26075-1.73962-8.6439-3.35473-13.0264-4.79995ZM588.61173,98.39627l1.24731,1.93165c-3.86524,2.49926-7.6931,5.16246-11.3739,7.91665l-1.37829-1.84144C580.83049,103.6178,584.70126,100.92458,588.61173,98.39627ZM789.54078,86.58144c4.18779,2.05535,8.35246,4.27889,12.37957,6.61111l-1.1526,1.98954c-3.98131-2.305-8.0993-4.50484-12.24048-6.53758ZM566.17581,115.179l1.49969,1.7429c-3.49,3.00305-6.91951,6.16392-10.19429,9.39612l-1.616-1.63572C559.1779,121.41255,562.64645,118.21517,566.17581,115.179Zm247.641-14.54464c3.85917,2.60172,7.6806,5.37153,11.35881,8.23352l-1.41249,1.81418c-3.63649-2.82891-7.41525-5.56794-11.23191-8.14113ZM546.22484,134.86792l1.72284,1.52243c-3.049,3.45046-6.019,7.04957-8.82671,10.69922l-1.8225-1.4029C540.13824,141.99651,543.14137,138.35681,546.22484,134.86792Zm289.71975-17.01279c3.473,3.10485,6.88161,6.36839,10.13117,9.69822l-1.64546,1.60541c-3.21321-3.293-6.58377-6.51869-10.01773-9.58913ZM529.12911,157.09387l1.91259,1.275c-2.54985,3.82853-5.003,7.8-7.29081,11.80258l-1.99547-1.14093C524.06815,164.9823,526.5497,160.96611,529.12911,157.09387Zm326.39173-19.17746c3.01769,3.54641,5.949,7.24181,8.71355,10.98154l-1.84895,1.36757c-2.73345-3.698-5.63206-7.35182-8.61613-10.86007ZM515.21456,181.4491l2.06893,1.00072c-2.00739,4.14953-3.89488,8.42009-5.611,12.69552l-2.13311-.85668C511.2746,189.96463,513.18343,185.64531,515.21456,181.4491Zm356.96056-21.00224c2.50326,3.92235,4.90131,7.9815,7.12767,12.06394l-2.01848,1.10033c-2.20171-4.03577-4.57239-8.04957-7.04723-11.92777Zm-367.41545,47.044,2.18787.70653c-1.41787,4.38733-2.70118,8.88-3.81361,13.354l-2.23127-.55492C502.02724,216.471,503.32493,211.92669,504.75967,207.4909Zm380.82205-22.46052c1.94372,4.23279,3.76313,8.58685,5.40921,12.94067l-2.1512.81251c-1.62686-4.30452-3.42587-8.60823-5.34717-12.79421ZM497.99267,234.71823l2.26539.39948c-.79975,4.53534-1.45068,9.15479-1.93589,13.73l-2.28592-.24272C496.52681,243.97763,497.18533,239.30588,497.99267,234.71823Zm397.499-23.46486c1.341,4.45735,2.54423,9.02,3.57538,13.56043l-2.24222.5094c-1.0197-4.48944-2.20914-9.00019-3.53535-13.40681ZM495.03785,262.59173l2.29741.08548c-.16992,4.59362-.18292,9.2584-.04014,13.86556l-2.2977.071C494.85219,271.95555,494.866,267.23782,495.03785,262.59173Zm406.66564-24.00482c.71688,4.59281,1.2865,9.27642,1.693,13.92081l-2.29091.19993c-.40121-4.593-.9649-9.22412-1.67425-13.76569ZM498.19521,290.383c.452,4.58718,1.06646,9.21194,1.82646,13.74546l-2.267.38058c-.76925-4.58521-1.39071-9.26181-1.84857-13.90035Zm4.58619,27.33436c1.0739,4.48395,2.31416,8.981,3.68843,13.36681l-2.19374.6872c-1.39013-4.43535-2.64523-8.9837-3.73062-13.51918Zm8.28976,26.44681c1.67545,4.28311,3.52056,8.56221,5.48529,12.71757l-2.07847.983c-1.98724-4.20329-3.85376-8.531-5.54726-12.8629Zm11.83694,25.03c2.25108,4.01768,4.66883,8.00455,7.18471,11.85005l-1.92407,1.25916c-2.54486-3.88962-4.98942-7.92187-7.2662-11.985Zm15.16712,23.18276c2.78192,3.67492,5.72324,7.2959,8.73925,10.762l-1.73324,1.50914c-3.05134-3.50467-6.02593-7.16665-8.84-10.88321Zm18.19586,20.90419c3.2513,3.25825,6.6575,6.44655,10.12467,9.477l-1.51285,1.73116c-3.50671-3.06478-6.95146-6.28921-10.24018-9.58367Zm20.8736,18.24223c3.6709,2.78992,7.48047,5.48684,11.32323,8.01486l-1.26322,1.92076c-3.88638-2.55648-7.73971-5.28353-11.45108-8.10494Zm23.1662,15.23981c4.019,2.2647,8.16182,4.41718,12.31391,6.39682l-.989,2.076c-4.19985-2.00273-8.38935-4.17895-12.45411-6.47027Zm25.04028,11.93415c4.28849,1.69378,8.68831,3.25764,13.07831,4.64944l-.695,2.19157c-4.4395-1.40747-8.89012-2.98972-13.2283-4.702Zm26.44826,8.3854c4.47428,1.08484,9.04323,2.02685,13.58125,2.80054l-.38588,2.26669c-4.5904-.78239-9.21188-1.73536-13.73655-2.83242Zm27.32371,4.65734c4.57668.45809,9.23159.76383,13.83693.90817l-.073,2.29879c-4.65724-.14633-9.3653-.45566-13.993-.91863Z" transform="translate(-177.5 -65.82481)" fill="#e6e6e6"/><path d="M901.855,266.89492l2.29862-.04178c.04223,2.3211.04537,4.6545.00943,6.93606l-2.29844-.03589C901.89953,271.49771,901.89652,269.19018,901.855,266.89492Z" transform="translate(-177.5 -65.82481)" fill="#e6e6e6"/><polygon points="536.5 652.464 527.5 684.464 550.5 688.464 563.5 661.464 536.5 652.464" fill="#ffb8b8"/><polygon points="683.5 660.464 689.5 696.464 712.5 698.464 707.5 657.464 683.5 660.464" fill="#ffb8b8"/><circle cx="622.5" cy="230.46439" r="29" fill="#ffb8b8"/><path d="M782,314.2892s5,31,4,34,31.5-4.5,31.5-4.5,1.5-32.5,2.5-34.5Z" transform="translate(-177.5 -65.82481)" fill="#ffb8b8"/><polygon points="649.5 340.464 655.5 407.464 639.5 405.464 639.5 345.464 649.5 340.464" fill="#ffb8b8"/><path d="M825.84452,343.25422a8.301,8.301,0,0,0-8.941-6.23955c-12.06551,1.29-35.42431,4.05577-36.90349,6.27453-1.293,1.93958-10.528,19.345-16.89511,31.40739a102.074,102.074,0,0,1-10.42911,15.65316C748.98438,395.008,745,403.9142,750,418.2892c8,23,9,55,9,55l63-14s-5-28,7-46C838.46327,399.0943,829.89146,359.40153,825.84452,343.25422Z" transform="translate(-177.5 -65.82481)" fill="#3f3d56"/><path d="M755,461.2892l6,49-52,213s40,15,40,14,60-150,60-150l49,146,43-4-43-185s-.5-52.5-31-80l-5.97244-15.40709S783,428.2892,755,461.2892Z" transform="translate(-177.5 -65.82481)" fill="#2f2e41"/><path d="M893,754.2892l-36-6-2,23-18,10s-28,1-18,22,36,16,36,16,27,15,44,9c0,0,3.5-10.5,2-14-1.62417-3.78973-7-32-7-32Z" transform="translate(-177.5 -65.82481)" fill="#2f2e41"/><path d="M738,742.2892l-36-6-2,23-18,10s-28,1-18,22,36,16,36,16,27,15,44,9c0,0,3.5-7.5,2-14-.92712-4.01752-7-32-7-32Z" transform="translate(-177.5 -65.82481)" fill="#2f2e41"/><path d="M800,341.2892s-25.70079-3.17179-27.35039,15.41411S775,438.2892,775,438.2892l-24,85s-33,46-12,42,27-39,27-39l30-73,11.5234-60.90941a96.8895,96.8895,0,0,0,.154-35.912C806.205,348.6417,803.825,341.7142,800,341.2892Z" transform="translate(-177.5 -65.82481)" fill="#ffb8b8"/><path d="M816.71425,253.58207h0c-19.09476,0-34.57413,21.454-34.57413,47.91879v33.62383h8.2804l4.79387-12.4579-1.19848,12.4579h53.22321l4.35808-11.32536-1.08951,11.32536H856.5V308.724C856.5,278.27,838.68731,253.58207,816.71425,253.58207Z" transform="translate(-177.5 -65.82481)" fill="#2f2e41"/><path d="M820.349,261.03389a22.64513,22.64513,0,0,0-17.86769-9.118h-.84772c-16.34471,0-29.59465,14.79008-29.59465,33.0346v.00007h5.47668l.88447-6.73228,1.29681,6.73228H812.1788l2.72137-5.69563-.68036,5.69563h6.39012q4.47278,22.213-12.8533,44.42594H818.642l5.44268-11.39127-1.36065,11.39127h20.75025l4.082-26.2C847.55634,283.55514,836.15576,266.91662,820.349,261.03389Z" transform="translate(-177.5 -65.82481)" fill="#2f2e41"/><rect y="142.96439" width="435" height="33" fill="#3f3d56"/><rect y="226.96439" width="435" height="33" fill="#3f3d56"/><rect y="310.96439" width="435" height="33" fill="#3f3d56"/><circle cx="217" cy="159.46439" r="33" fill="#2f8aad"/><circle cx="51" cy="243.46439" r="33" fill="#2f8aad"/><circle cx="340" cy="327.46439" r="33" fill="#2f8aad"/></svg>