<svg version="1.1" xmlns="http://www.w3.org/2000/svg" viewBox="0 0 82 180">
<g transform="translate(52 170)"><path d="M0 0 C-7 -13.166666666666666, -45.333333333333336 -52.33333333333333, -42 -79 C-38.666666666666664 -105.66666666666667, 9.666666666666666 -146.5, 20 -160 M0 0 C-7 -13.166666666666666, -45.333333333333336 -52.33333333333333, -42 -79 C-38.666666666666664 -105.66666666666667, 9.666666666666666 -146.5, 20 -160" style="stroke: rgb(0, 0, 0); stroke-width: 2; fill: none;"></path></g><g transform="translate(52 170)"><path d="M8.156833085375903 -132.43662942540675 C12.582760211155598 -142.7373767156751, 17.008687336935292 -153.03812400594347, 20 -160 M8.156833085375903 -132.43662942540675 C11.872492774504659 -141.0843252384303, 15.588152463633413 -149.73202105145384, 20 -160" style="stroke: rgb(0, 0, 0); stroke-width: 2; fill: none;"></path></g><g transform="translate(52 170)"><path d="M-6.789785290425414 -146.49787408987362 C3.2218643186243714 -151.54377319372983, 13.233513927674156 -156.58967229758602, 20 -160 M-6.789785290425414 -146.49787408987362 C1.6152068879025627 -150.73401340323986, 10.02019906623054 -154.9701527166061, 20 -160" style="stroke: rgb(0, 0, 0); stroke-width: 2; fill: none;"></path></g></svg>