<svg version="1.1" xmlns="http://www.w3.org/2000/svg" viewBox="0 0 75 180">
<g transform="translate(21 170)"><path d="M0 0 C7.333333333333333 -12.333333333333334, 45.833333333333336 -47.33333333333333, 44 -74 C42.166666666666664 -100.66666666666667, -1.833333333333334 -145.66666666666666, -11 -160 M0 0 C7.333333333333333 -12.333333333333334, 45.833333333333336 -47.33333333333333, 44 -74 C42.166666666666664 -100.66666666666667, -1.833333333333334 -145.66666666666666, -11 -160" style="stroke: rgb(0, 0, 0); stroke-width: 2; fill: none;"></path></g><g transform="translate(21 170)"><path d="M14.472177010401275 -144.151713078355 C9.339709257810476 -147.34503344221454, 4.207241505219679 -150.5383538060741, -11 -160 M14.472177010401275 -144.151713078355 C6.598839217581609 -149.05034880629788, -1.2744985752380575 -153.94898453424076, -11 -160" style="stroke: rgb(0, 0, 0); stroke-width: 2; fill: none;"></path></g><g transform="translate(21 170)"><path d="M-1.6742628150297652 -131.4863080966904 C-3.553334452740663 -137.23162009500479, -5.432406090451561 -142.97693209331914, -11 -160 M-1.6742628150297652 -131.4863080966904 C-4.556807129728415 -140.2997647550464, -7.439351444427064 -149.11322141340239, -11 -160" style="stroke: rgb(0, 0, 0); stroke-width: 2; fill: none;"></path></g></svg>